999
dxfrw 0.6.3
  0
SECTION
  2
HEADER
  9
$ACADVER
  1
AC1021
  9
$DWGCODEPAGE
  3
ANSI_1252
  9
$INSBASE
 10
0
 20
0
 30
0
  9
$EXTMIN
 10
-123.5
 20
-115
 30
0
  9
$EXTMAX
 10
123.5
 20
65
 30
0
  9
$LIMMIN
 10
0
 20
0
  9
$LIMMAX
 10
420
 20
297
  9
$ORTHOMODE
 70
    0
  9
$REGENMODE
 70
    1
  9
$FILLMODE
 70
    1
  9
$QTEXTMODE
 70
    0
  9
$MIRRTEXT
 70
    0
  9
$LTSCALE
 40
1
  9
$ATTMODE
 70
    0
  9
$TEXTSIZE
 40
2.5
  9
$TRACEWID
 40
15.68
  9
$TEXTSTYLE
  7
STANDARD
  9
$CLAYER
  8
0
  9
$CELTYPE
  6
BYLAYER
  9
$CECOLOR
 62
  256
  9
$CELTSCALE
 40
1
  9
$DISPSILH
 70
    0
  9
$DIMSCALE
 40
1
  9
$DIMASZ
 40
2.5
  9
$DIMEXO
 40
0.625
  9
$DIMDLI
 40
3.75
  9
$DIMRND
 40
0
  9
$DIMDLE
 40
0
  9
$DIMEXE
 40
1.25
  9
$DIMTP
 40
0
  9
$DIMTM
 40
0
  9
$DIMTXT
 40
2.5
  9
$DIMCEN
 40
2.5
  9
$DIMTSZ
 40
0
  9
$DIMTOL
 70
    0
  9
$DIMLIM
 70
    0
  9
$DIMTIH
 70
    0
  9
$DIMTOH
 70
    0
  9
$DIMSE1
 70
    0
  9
$DIMSE2
 70
    0
  9
$DIMTAD
 70
    1
  9
$DIMZIN
 70
    1
  9
$DIMBLK
  1

  9
$DIMASO
 70
    1
  9
$DIMSHO
 70
    1
  9
$DIMPOST
  1

  9
$DIMAPOST
  1

  9
$DIMALT
 70
    0
  9
$DIMALTD
 70
    3
  9
$DIMALTF
 40
0.03937
  9
$DIMLFAC
 40
1
  9
$DIMTOFL
 70
    1
  9
$DIMTVP
 40
0
  9
$DIMTIX
 70
    0
  9
$DIMSOXD
 70
    0
  9
$DIMSAH
 70
    0
  9
$DIMBLK1
  1

  9
$DIMBLK2
  1

  9
$DIMSTYLE
  2
STANDARD
  9
$DIMCLRD
 70
    0
  9
$DIMCLRE
 70
    0
  9
$DIMCLRT
 70
    0
  9
$DIMTFAC
 40
1
  9
$DIMGAP
 40
0.625
  9
$DIMJUST
 70
    0
  9
$DIMSD1
 70
    0
  9
$DIMSD2
 70
    0
  9
$DIMTOLJ
 70
    0
  9
$DIMTZIN
 70
    8
  9
$DIMALTZ
 70
    0
  9
$DIMALTTZ
 70
    0
  9
$DIMUPT
 70
    0
  9
$DIMDEC
 70
    4
  9
$DIMTDEC
 70
    2
  9
$DIMALTU
 70
    2
  9
$DIMALTTD
 70
    3
  9
$DIMTXSTY
  7
standard
  9
$DIMAUNIT
 70
    0
  9
$DIMADEC
 70
    2
  9
$DIMALTRND
 40
0
  9
$DIMAZIN
 70
    0
  9
$DIMDSEP
 70
    0
  9
$DIMATFIT
 70
    3
  9
$DIMFRAC
 70
    0
  9
$DIMLDRBLK
  1
STANDARD
  9
$DIMLUNIT
 70
    2
  9
$DIMLWD
 70
   -2
  9
$DIMLWE
 70
   -2
  9
$DIMTMOVE
 70
    0
  9
$DIMFXL
 40
1
  9
$DIMFXLON
 70
    0
  9
$DIMJOGANG
 40
0.7854
  9
$DIMTFILL
 70
    0
  9
$DIMTFILLCLR
 70
    0
  9
$DIMARCSYM
 70
    0
  9
$DIMLTYPE
  6

  9
$DIMLTEX1
  6

  9
$DIMLTEX2
  6

  9
$LUNITS
 70
    2
  9
$LUPREC
 70
    4
  9
$SKETCHINC
 40
1
  9
$FILLETRAD
 40
0
  9
$AUNITS
 70
    0
  9
$AUPREC
 70
    2
  9
$MENU
  1
.
  9
$ELEVATION
 40
0
  9
$PELEVATION
 40
0
  9
$THICKNESS
 40
0
  9
$LIMCHECK
 70
    0
  9
$CHAMFERA
 40
0
  9
$CHAMFERB
 40
0
  9
$CHAMFERC
 40
0
  9
$CHAMFERD
 40
0
  9
$SKPOLY
 70
    0
  9
$USRTIMER
 70
    1
  9
$ANGBASE
 50
0
  9
$ANGDIR
 70
    0
  9
$PDMODE
 70
   34
  9
$PDSIZE
 40
0
  9
$PLINEWID
 40
0
  9
$SPLFRAME
 70
    0
  9
$SPLINETYPE
 70
    2
  9
$SPLINESEGS
 70
    8
  9
$HANDSEED
  5
20000
  9
$SURFTAB1
 70
    6
  9
$SURFTAB2
 70
    6
  9
$SURFTYPE
 70
    6
  9
$SURFU
 70
    6
  9
$SURFV
 70
    6
  9
$UCSBASE
  2

  9
$UCSNAME
  2

  9
$UCSORG
 10
0
 20
0
 30
0
  9
$UCSXDIR
 10
1
 20
0
 30
0
  9
$UCSYDIR
 10
0
 20
1
 30
0
  9
$UCSORTHOREF
  2

  9
$UCSORTHOVIEW
 70
    0
  9
$UCSORGTOP
 10
0
 20
0
 30
0
  9
$UCSORGBOTTOM
 10
0
 20
0
 30
0
  9
$UCSORGLEFT
 10
0
 20
0
 30
0
  9
$UCSORGRIGHT
 10
0
 20
0
 30
0
  9
$UCSORGFRONT
 10
0
 20
0
 30
0
  9
$UCSORGBACK
 10
0
 20
0
 30
0
  9
$PUCSBASE
  2

  9
$PUCSNAME
  2

  9
$PUCSORG
 10
0
 20
0
 30
0
  9
$PUCSXDIR
 10
1
 20
0
 30
0
  9
$PUCSYDIR
 10
0
 20
1
 30
0
  9
$PUCSORTHOREF
  2

  9
$PUCSORTHOVIEW
 70
    0
  9
$PUCSORGTOP
 10
0
 20
0
 30
0
  9
$PUCSORGBOTTOM
 10
0
 20
0
 30
0
  9
$PUCSORGLEFT
 10
0
 20
0
 30
0
  9
$PUCSORGRIGHT
 10
0
 20
0
 30
0
  9
$PUCSORGFRONT
 10
0
 20
0
 30
0
  9
$PUCSORGBACK
 10
0
 20
0
 30
0
  9
$USERI1
 70
    0
  9
$USERI2
 70
    0
  9
$USERI3
 70
    0
  9
$USERI4
 70
    0
  9
$USERI5
 70
    0
  9
$USERR1
 40
0
  9
$USERR2
 40
0
  9
$USERR3
 40
0
  9
$USERR4
 40
0
  9
$USERR5
 40
0
  9
$WORLDVIEW
 70
    1
  9
$SHADEDGE
 70
    3
  9
$SHADEDIF
 70
   70
  9
$TILEMODE
 70
    1
  9
$MAXACTVP
 70
   64
  9
$PINSBASE
 10
148.5
 20
134.1666666666667
 30
0
  9
$PLIMCHECK
 70
    0
  9
$PEXTMIN
 10
0
 20
0
 30
0
  9
$PEXTMAX
 10
0
 20
0
 30
0
  9
$GRIDMODE
 70
    1
  9
$SNAPSTYLE
 70
    1
  9
$GRIDUNIT
 10
0
 20
0
  9
$PLIMMIN
 10
0
 20
0
  9
$PLIMMAX
 10
297
 20
210
  9
$UNITMODE
 70
    0
  9
$VISRETAIN
 70
    1
  9
$PLINEGEN
 70
    0
  9
$PSLTSCALE
 70
    1
  9
$TREEDEPTH
 70
 3020
  9
$CMLSTYLE
  2
Standard
  9
$CMLJUST
 70
    0
  9
$CMLSCALE
 40
20
  9
$PROXYGRAPHICS
 70
    1
  9
$MEASUREMENT
 70
    1
  9
$CELWEIGHT
370
   -1
  9
$ENDCAPS
280
    0
  9
$JOINSTYLE
280
    0
  9
$LWDISPLAY
290
    0
  9
$INSUNITS
 70
    0
  9
$HYPERLINKBASE
  1

  9
$STYLESHEET
  1

  9
$XEDIT
290
    1
  9
$CEPSNTYPE
380
    0
  9
$PSTYLEMODE
290
    1
  9
$EXTNAMES
290
    1
  9
$PSVPSCALE
 40
1.166666666666667
  9
$OLESTARTUP
290
    0
  9
$SORTENTS
280
  127
  9
$INDEXCTL
280
    0
  9
$HIDETEXT
280
    1
  9
$XCLIPFRAME
290
    0
  9
$HALOGAP
280
    0
  9
$OBSCOLOR
 70
  257
  9
$OBSLTYPE
280
    0
  9
$INTERSECTIONDISPLAY
280
    0
  9
$INTERSECTIONCOLOR
 70
  257
  9
$DIMASSOC
280
    1
  9
$PROJECTNAME
  1

  9
$CAMERADISPLAY
290
    0
  9
$LENSLENGTH
 40
50
  9
$CAMERAHEIGHT
 40
0
  9
$STEPSPERSEC
 40
2
  9
$STEPSIZE
 40
50
  9
$3DDWFPREC
 40
2
  9
$PSOLWIDTH
 40
5
  9
$PSOLHEIGHT
 40
80
  9
$LOFTANG1
 40
1.570796326794897
  9
$LOFTANG2
 40
1.570796326794897
  9
$LOFTMAG1
 40
0
  9
$LOFTMAG2
 40
0
  9
$LOFTPARAM
 70
    7
  9
$LOFTNORMALS
280
    1
  9
$LATITUDE
 40
1
  9
$LONGITUDE
 40
1
  9
$NORTHDIRECTION
 40
0
  9
$TIMEZONE
 70
-8000
  9
$LIGHTGLYPHDISPLAY
280
    1
  9
$TILEMODELIGHTSYNCH
280
    1
  9
$SOLIDHIST
280
    1
  9
$SHOWHIST
280
    1
  9
$DWFFRAME
280
    2
  9
$DGNFRAME
280
    0
  9
$REALWORLDSCALE
290
    1
  9
$INTERFERECOLOR
 62
    1
  9
$CSHADOW
280
    0
  9
$SHADOWPLANELOCATION
 40
0
  0
ENDSEC
  0
SECTION
  2
CLASSES
  0
ENDSEC
  0
SECTION
  2
TABLES
  0
TABLE
  2
VPORT
  5
8
330
0
100
AcDbSymbolTable
 70
    1
  0
VPORT
  5
31
330
2
100
AcDbSymbolTableRecord
100
AcDbViewportTableRecord
  2
*ACTIVE
 70
    0
 10
0
 20
0
 11
1
 21
1
 12
124.4947735191638
 22
34.18118466898954
 13
0
 23
0
 14
10
 24
10
 15
10
 25
10
 16
0
 26
0
 36
1
 17
0
 27
0
 37
0
 40
186.2717770034843
 41
2.673400673400673
 42
50
 43
0
 44
0
 50
0
 51
0
 71
    0
 72
  100
 73
    1
 74
    3
 75
    0
 76
    1
 77
    1
 78
    0
281
    0
 65
    1
110
0
120
0
130
0
111
1
121
0
131
0
112
0
122
1
132
0
 79
    0
146
0
348
10020
 60
    7
 61
    5
292
1
282
    1
141
0
142
0
 63
  250
421
3358443
  0
ENDTAB
  0
TABLE
  2
LTYPE
  5
5
330
0
100
AcDbSymbolTable
 70
    4
  0
LTYPE
  5
14
330
5
100
AcDbSymbolTableRecord
100
AcDbLinetypeTableRecord
  2
ByBlock
 70
    0
  3

 72
   65
 73
    0
 40
0
  0
LTYPE
  5
15
330
5
100
AcDbSymbolTableRecord
100
AcDbLinetypeTableRecord
  2
ByLayer
 70
    0
  3

 72
   65
 73
    0
 40
0
  0
LTYPE
  5
16
330
5
100
AcDbSymbolTableRecord
100
AcDbLinetypeTableRecord
  2
Continuous
 70
    0
  3
Solid line
 72
   65
 73
    0
 40
0
  0
LTYPE
  5
32
330
5
100
AcDbSymbolTableRecord
100
AcDbLinetypeTableRecord
  2
DOT
 70
    0
  3
Dot . . . . . . . . . . . . . . . . . . . . . .
 72
   65
 73
    2
 40
6.35
 49
0
 74
    0
 49
-6.35
 74
    0
  0
LTYPE
  5
33
330
5
100
AcDbSymbolTableRecord
100
AcDbLinetypeTableRecord
  2
DOTTINY
 70
    0
  3
Dot (.15x) .....................................
 72
   65
 73
    2
 40
0.9525
 49
0
 74
    0
 49
-0.9525
 74
    0
  0
LTYPE
  5
34
330
5
100
AcDbSymbolTableRecord
100
AcDbLinetypeTableRecord
  2
DOT2
 70
    0
  3
Dot (.5x) .....................................
 72
   65
 73
    2
 40
3.175
 49
0
 74
    0
 49
-3.175
 74
    0
  0
LTYPE
  5
35
330
5
100
AcDbSymbolTableRecord
100
AcDbLinetypeTableRecord
  2
DOTX2
 70
    0
  3
Dot (2x) .  .  .  .  .  .  .  .  .  .  .  .  .
 72
   65
 73
    2
 40
12.7
 49
0
 74
    0
 49
-12.7
 74
    0
  0
LTYPE
  5
36
330
5
100
AcDbSymbolTableRecord
100
AcDbLinetypeTableRecord
  2
DASHED
 70
    0
  3
Dashed _ _ _ _ _ _ _ _ _ _ _ _ _ _ _ _ _
 72
   65
 73
    2
 40
19.05
 49
12.7
 74
    0
 49
-6.35
 74
    0
  0
LTYPE
  5
37
330
5
100
AcDbSymbolTableRecord
100
AcDbLinetypeTableRecord
  2
DASHEDTINY
 70
    0
  3
Dashed (.15x) _ _ _ _ _ _ _ _ _ _ _ _ _ _ _ _ _
 72
   65
 73
    2
 40
2.8575
 49
1.905
 74
    0
 49
-0.9525
 74
    0
  0
LTYPE
  5
38
330
5
100
AcDbSymbolTableRecord
100
AcDbLinetypeTableRecord
  2
DASHED2
 70
    0
  3
Dashed (.5x) _ _ _ _ _ _ _ _ _ _ _ _ _ _ _ _ _
 72
   65
 73
    2
 40
9.524999999999999
 49
6.35
 74
    0
 49
-3.175
 74
    0
  0
LTYPE
  5
39
330
5
100
AcDbSymbolTableRecord
100
AcDbLinetypeTableRecord
  2
DASHEDX2
 70
    0
  3
Dashed (2x) ____  ____  ____  ____  ____  ___
 72
   65
 73
    2
 40
38.09999999999999
 49
25.4
 74
    0
 49
-12.7
 74
    0
  0
LTYPE
  5
3A
330
5
100
AcDbSymbolTableRecord
100
AcDbLinetypeTableRecord
  2
DASHDOT
 70
    0
  3
Dash dot __ . __ . __ . __ . __ . __ . __ . __
 72
   65
 73
    4
 40
25.4
 49
12.7
 74
    0
 49
-6.35
 74
    0
 49
0
 74
    0
 49
-6.35
 74
    0
  0
LTYPE
  5
3B
330
5
100
AcDbSymbolTableRecord
100
AcDbLinetypeTableRecord
  2
DASHDOTTINY
 70
    0
  3
Dash dot (.15x) _._._._._._._._._._._._._._._.
 72
   65
 73
    4
 40
3.81
 49
1.905
 74
    0
 49
-0.9525
 74
    0
 49
0
 74
    0
 49
-0.9525
 74
    0
  0
LTYPE
  5
3C
330
5
100
AcDbSymbolTableRecord
100
AcDbLinetypeTableRecord
  2
DASHDOT2
 70
    0
  3
Dash dot (.5x) _._._._._._._._._._._._._._._.
 72
   65
 73
    4
 40
12.7
 49
6.35
 74
    0
 49
-3.175
 74
    0
 49
0
 74
    0
 49
-3.175
 74
    0
  0
LTYPE
  5
3D
330
5
100
AcDbSymbolTableRecord
100
AcDbLinetypeTableRecord
  2
DASHDOTX2
 70
    0
  3
Dash dot (2x) ____  .  ____  .  ____  .  ___
 72
   65
 73
    4
 40
50.8
 49
25.4
 74
    0
 49
-12.7
 74
    0
 49
0
 74
    0
 49
-12.7
 74
    0
  0
LTYPE
  5
3E
330
5
100
AcDbSymbolTableRecord
100
AcDbLinetypeTableRecord
  2
DIVIDE
 70
    0
  3
Divide ____ . . ____ . . ____ . . ____ . . ____
 72
   65
 73
    6
 40
31.75
 49
12.7
 74
    0
 49
-6.35
 74
    0
 49
0
 74
    0
 49
-6.35
 74
    0
 49
0
 74
    0
 49
-6.35
 74
    0
  0
LTYPE
  5
3F
330
5
100
AcDbSymbolTableRecord
100
AcDbLinetypeTableRecord
  2
DIVIDETINY
 70
    0
  3
Divide (.15x) __..__..__..__..__..__..__..__.._
 72
   65
 73
    6
 40
4.7625
 49
1.905
 74
    0
 49
-0.9525
 74
    0
 49
0
 74
    0
 49
-0.9525
 74
    0
 49
0
 74
    0
 49
-0.9525
 74
    0
  0
LTYPE
  5
40
330
5
100
AcDbSymbolTableRecord
100
AcDbLinetypeTableRecord
  2
DIVIDE2
 70
    0
  3
Divide (.5x) __..__..__..__..__..__..__..__.._
 72
   65
 73
    6
 40
15.875
 49
6.35
 74
    0
 49
-3.175
 74
    0
 49
0
 74
    0
 49
-3.175
 74
    0
 49
0
 74
    0
 49
-3.175
 74
    0
  0
LTYPE
  5
41
330
5
100
AcDbSymbolTableRecord
100
AcDbLinetypeTableRecord
  2
DIVIDEX2
 70
    0
  3
Divide (2x) ________  .  .  ________  .  .  _
 72
   65
 73
    6
 40
63.5
 49
25.4
 74
    0
 49
-12.7
 74
    0
 49
0
 74
    0
 49
-12.7
 74
    0
 49
0
 74
    0
 49
-12.7
 74
    0
  0
LTYPE
  5
42
330
5
100
AcDbSymbolTableRecord
100
AcDbLinetypeTableRecord
  2
BORDER
 70
    0
  3
Border __ __ . __ __ . __ __ . __ __ . __ __ .
 72
   65
 73
    6
 40
44.45
 49
12.7
 74
    0
 49
-6.35
 74
    0
 49
12.7
 74
    0
 49
-6.35
 74
    0
 49
0
 74
    0
 49
-6.35
 74
    0
  0
LTYPE
  5
43
330
5
100
AcDbSymbolTableRecord
100
AcDbLinetypeTableRecord
  2
BORDERTINY
 70
    0
  3
Border (.15x) __.__.__.__.__.__.__.__.__.__.__.
 72
   65
 73
    6
 40
6.6675
 49
1.905
 74
    0
 49
-0.9525
 74
    0
 49
1.905
 74
    0
 49
-0.9525
 74
    0
 49
0
 74
    0
 49
-0.9525
 74
    0
  0
LTYPE
  5
44
330
5
100
AcDbSymbolTableRecord
100
AcDbLinetypeTableRecord
  2
BORDER2
 70
    0
  3
Border (.5x) __.__.__.__.__.__.__.__.__.__.__.
 72
   65
 73
    6
 40
22.225
 49
6.35
 74
    0
 49
-3.175
 74
    0
 49
6.35
 74
    0
 49
-3.175
 74
    0
 49
0
 74
    0
 49
-3.175
 74
    0
  0
LTYPE
  5
45
330
5
100
AcDbSymbolTableRecord
100
AcDbLinetypeTableRecord
  2
BORDERX2
 70
    0
  3
Border (2x) ____  ____  .  ____  ____  .  ___
 72
   65
 73
    6
 40
88.89999999999999
 49
25.4
 74
    0
 49
-12.7
 74
    0
 49
25.4
 74
    0
 49
-12.7
 74
    0
 49
0
 74
    0
 49
-12.7
 74
    0
  0
LTYPE
  5
46
330
5
100
AcDbSymbolTableRecord
100
AcDbLinetypeTableRecord
  2
CENTER
 70
    0
  3
Center ____ _ ____ _ ____ _ ____ _ ____ _ ____
 72
   65
 73
    4
 40
50.8
 49
31.75
 74
    0
 49
-6.35
 74
    0
 49
6.35
 74
    0
 49
-6.35
 74
    0
  0
LTYPE
  5
47
330
5
100
AcDbSymbolTableRecord
100
AcDbLinetypeTableRecord
  2
CENTERTINY
 70
    0
  3
Center (.15x) ___ _ ___ _ ___ _ ___ _ ___ _ ___
 72
   65
 73
    4
 40
7.619999999999999
 49
4.7625
 74
    0
 49
-0.9525
 74
    0
 49
0.9525
 74
    0
 49
-0.9525
 74
    0
  0
LTYPE
  5
48
330
5
100
AcDbSymbolTableRecord
100
AcDbLinetypeTableRecord
  2
CENTER2
 70
    0
  3
Center (.5x) ___ _ ___ _ ___ _ ___ _ ___ _ ___
 72
   65
 73
    4
 40
28.575
 49
19.05
 74
    0
 49
-3.175
 74
    0
 49
3.175
 74
    0
 49
-3.175
 74
    0
  0
LTYPE
  5
49
330
5
100
AcDbSymbolTableRecord
100
AcDbLinetypeTableRecord
  2
CENTERX2
 70
    0
  3
Center (2x) ________  __  ________  __  _____
 72
   65
 73
    4
 40
101.6
 49
63.5
 74
    0
 49
-12.7
 74
    0
 49
12.7
 74
    0
 49
-12.7
 74
    0
  0
ENDTAB
  0
TABLE
  2
LAYER
  5
2
330
0
100
AcDbSymbolTable
 70
    1
  0
LAYER
  5
10
330
2
100
AcDbSymbolTableRecord
100
AcDbLayerTableRecord
  2
0
 70
    0
 62
    7
  6
CONTINUOUS
370
    0
390
F
  0
LAYER
  5
4A
330
2
100
AcDbSymbolTableRecord
100
AcDbLayerTableRecord
  2
Black
 70
    0
 62
    7
420
131586
  6
CONTINUOUS
370
    0
390
F
  0
LAYER
  5
4B
330
2
100
AcDbSymbolTableRecord
100
AcDbLayerTableRecord
  2
Blue
 70
    0
 62
    5
  6
CONTINUOUS
370
    0
390
F
  0
LAYER
  5
4C
330
2
100
AcDbSymbolTableRecord
100
AcDbLayerTableRecord
  2
White
 70
    0
 62
  255
420
16711422
  6
CONTINUOUS
370
    0
390
F
  0
ENDTAB
  0
TABLE
  2
STYLE
  5
3
330
0
100
AcDbSymbolTable
 70
    3
  0
STYLE
  5
4D
330
2
100
AcDbSymbolTableRecord
100
AcDbTextStyleTableRecord
  2
romanc
 70
    0
 40
0
 41
1
 50
0
 71
    0
 42
1
  3
romanc
  4

  0
STYLE
  5
4E
330
2
100
AcDbSymbolTableRecord
100
AcDbTextStyleTableRecord
  2
Standard
 70
    0
 40
0
 41
1
 50
0
 71
    0
 42
1
  3
txt
  4

  0
ENDTAB
  0
TABLE
  2
VIEW
  5
6
330
0
100
AcDbSymbolTable
 70
    0
  0
ENDTAB
  0
TABLE
  2
UCS
  5
7
330
0
100
AcDbSymbolTable
 70
    0
  0
ENDTAB
  0
TABLE
  2
APPID
  5
9
330
0
100
AcDbSymbolTable
 70
    1
  0
APPID
  5
12
330
9
100
AcDbSymbolTableRecord
100
AcDbRegAppTableRecord
  2
ACAD
 70
    0
  0
APPID
  5
4F
330
9
100
AcDbSymbolTableRecord
100
AcDbRegAppTableRecord
  2
LibreCad
 70
    0
  0
ENDTAB
  0
TABLE
  2
DIMSTYLE
  5
A
330
0
100
AcDbSymbolTable
 70
    1
100
AcDbDimStyleTable
 71
    1
  0
DIMSTYLE
105
50
330
A
100
AcDbSymbolTableRecord
100
AcDbDimStyleTableRecord
  2
Standard
 70
    0
 40
1
 41
2.5
 42
0.625
 43
0.38
 44
1.25
 45
0
 46
0
 47
0
 48
0
 49
1
140
2.5
141
0.09
142
0
143
25.4
144
1
145
0
146
1
147
0.625
148
0
 71
    0
 72
    0
 73
    0
 74
    1
 75
    0
 76
    0
 77
    0
 78
    1
 79
    0
170
    0
171
    2
172
    0
173
    0
174
    0
175
    0
176
    0
177
    0
178
    0
179
    2
271
    4
272
    4
273
    2
274
    2
275
    0
276
    0
277
    2
278
    0
279
    0
280
    0
281
    0
282
    0
283
    1
284
    0
285
    0
286
    0
288
    0
289
    3
340
4E
  0
ENDTAB
  0
TABLE
  2
BLOCK_RECORD
  5
1
330
0
100
AcDbSymbolTable
 70
    2
  0
BLOCK_RECORD
  5
1F
330
1
100
AcDbSymbolTableRecord
100
AcDbBlockTableRecord
  2
*Model_Space
 70
    0
280
    1
281
    0
  0
BLOCK_RECORD
  5
1E
330
1
100
AcDbSymbolTableRecord
100
AcDbBlockTableRecord
  2
*Paper_Space
 70
    0
280
    1
281
    0
  0
ENDTAB
  0
ENDSEC
  0
SECTION
  2
BLOCKS
  0
BLOCK
  5
20
330
1F
100
AcDbEntity
  8
0
100
AcDbBlockBegin
  2
*Model_Space
 70
    0
 10
0
 20
0
 30
0
  3
*Model_Space
  1

  0
ENDBLK
  5
21
330
1F
100
AcDbEntity
  8
0
100
AcDbBlockEnd
  0
BLOCK
  5
1C
330
1B
100
AcDbEntity
  8
0
100
AcDbBlockBegin
  2
*Paper_Space
 70
    0
 10
0
 20
0
 30
0
  3
*Paper_Space
  1

  0
ENDBLK
  5
1D
330
1F
100
AcDbEntity
  8
0
100
AcDbBlockEnd
  0
ENDSEC
  0
SECTION
  2
ENTITIES
  0
HATCH
  5
51
100
AcDbEntity
  8
Black
  6
ByLayer
 62
  256
370
   -1
100
AcDbHatch
 10
0
 20
0
 30
0
210
0
220
0
230
1
  2
SOLID
 70
    1
 71
    0
 91
    1
 92
    0
 93
   28
 72
    1
 10
123.5
 20
-55
 11
-123.5
 21
-55
 72
    1
 10
-123.5
 20
-55
 11
-123.5
 21
-65
 72
    1
 10
-123.5
 20
-65
 11
123.5
 21
-65
 72
    1
 10
123.5
 20
-65
 11
123.5
 21
-55
 72
    1
 10
-123.5
 20
-45
 11
123.5
 21
-45
 72
    1
 10
123.5
 20
-45
 11
123.5
 21
-35
 72
    1
 10
123.5
 20
-35
 11
-123.5
 21
-35
 72
    1
 10
-123.5
 20
-35
 11
-123.5
 21
-45
 72
    1
 10
-123.5
 20
-25
 11
123.5
 21
-25
 72
    1
 10
123.5
 20
-25
 11
123.5
 21
-15
 72
    1
 10
123.5
 20
-15
 11
-123.5
 21
-15
 72
    1
 10
-123.5
 20
-15
 11
-123.5
 21
-25
 72
    1
 10
-24.7
 20
5
 11
123.5
 21
5
 72
    1
 10
123.5
 20
5
 11
123.5
 21
-5
 72
    1
 10
123.5
 20
-5
 11
-123.5
 21
-5
 72
    1
 10
-123.5
 20
-5
 11
-123.5
 21
65
 72
    1
 10
-123.5
 20
65
 11
123.5
 21
65
 72
    1
 10
123.5
 20
65
 11
123.5
 21
55
 72
    1
 10
123.5
 20
55
 11
-24.7
 21
55
 72
    1
 10
-24.7
 20
55
 11
-24.7
 21
45
 72
    1
 10
-24.7
 20
45
 11
123.5
 21
45
 72
    1
 10
123.5
 20
45
 11
123.5
 21
35
 72
    1
 10
123.5
 20
35
 11
-24.7
 21
35
 72
    1
 10
-24.7
 20
35
 11
-24.7
 21
25
 72
    1
 10
-24.7
 20
25
 11
123.5
 21
25
 72
    1
 10
123.5
 20
25
 11
123.5
 21
15
 72
    1
 10
123.5
 20
15
 11
-24.7
 21
15
 72
    1
 10
-24.7
 20
15
 11
-24.7
 21
5
 97
    0
 75
    0
 76
    1
 98
    0
  0
HATCH
  5
52
100
AcDbEntity
  8
Blue
  6
ByLayer
 62
  256
370
   -1
100
AcDbHatch
 10
0
 20
0
 30
0
210
0
220
0
230
1
  2
SOLID
 70
    1
 71
    0
 91
    1
 92
    0
 93
    4
 72
    1
 10
123.5
 20
-15
 11
-123.5
 21
-15
 72
    1
 10
-123.5
 20
-15
 11
-123.5
 21
-5
 72
    1
 10
-123.5
 20
-5
 11
123.5
 21
-5
 72
    1
 10
123.5
 20
-5
 11
123.5
 21
-15
 97
    0
 75
    0
 76
    1
 98
    0
  0
HATCH
  5
53
100
AcDbEntity
  8
White
  6
ByLayer
 62
  256
370
   -1
100
AcDbHatch
 10
0
 20
0
 30
0
210
0
220
0
230
1
  2
SOLID
 70
    1
 71
    0
 91
    1
 92
    0
 93
  520
 72
    1
 10
-115.1
 20
61.99999999999922
 11
-115.998055953159
 21
59.23606797750004
 72
    1
 10
-115.998055953159
 20
59.23606797750004
 11
-118.9042260651814
 21
59.23606797750004
 72
    1
 10
-118.9042260651824
 20
59.23606797750004
 11
-116.5530850560111
 21
57.52786404500051
 72
    1
 10
-116.5530850560111
 20
57.52786404500051
 11
-117.4511410091714
 21
54.76393202249892
 72
    1
 10
-117.4511410091702
 20
54.76393202249979
 11
-115.0999999999999
 21
56.47213595499943
 72
    1
 10
-115.0999999999998
 20
56.47213595499944
 11
-112.7488589908304
 21
54.76393202250065
 72
    1
 10
-112.7488589908297
 20
54.76393202250011
 11
-113.6469149439892
 21
57.52786404500021
 72
    1
 10
-113.6469149439892
 20
57.52786404500021
 11
-111.2957739348193
 21
59.23606797750071
 72
    1
 10
-111.2957739348177
 20
59.23606797750068
 11
-114.2019440468412
 21
59.23606797750028
 72
    1
 10
-114.2019440468412
 20
59.23606797750028
 11
-115.1
 21
61.99999999999922
 72
    1
 10
-106.9
 20
54.99999999999922
 11
-107.798055953159
 21
52.23606797750004
 72
    1
 10
-107.798055953159
 20
52.23606797750004
 11
-110.7042260651814
 21
52.23606797750004
 72
    1
 10
-110.7042260651824
 20
52.23606797750004
 11
-108.3530850560111
 21
50.52786404500051
 72
    1
 10
-108.3530850560111
 20
50.52786404500051
 11
-109.2511410091714
 21
47.76393202249892
 72
    1
 10
-109.2511410091702
 20
47.76393202249979
 11
-106.8999999999999
 21
49.47213595499943
 72
    1
 10
-106.8999999999998
 20
49.47213595499944
 11
-104.5488589908304
 21
47.76393202250065
 72
    1
 10
-104.5488589908297
 20
47.76393202250011
 11
-105.4469149439892
 21
50.52786404500021
 72
    1
 10
-105.4469149439892
 20
50.52786404500021
 11
-103.0957739348193
 21
52.23606797750071
 72
    1
 10
-103.0957739348177
 20
52.23606797750068
 11
-106.0019440468412
 21
52.23606797750028
 72
    1
 10
-106.0019440468412
 20
52.23606797750028
 11
-106.9
 21
54.99999999999922
 72
    1
 10
-98.70000000000002
 20
47.99999999999922
 11
-99.59805595315902
 21
45.23606797750004
 72
    1
 10
-99.59805595315902
 20
45.23606797750004
 11
-102.5042260651814
 21
45.23606797750004
 72
    1
 10
-102.5042260651824
 20
45.23606797750004
 11
-100.1530850560111
 21
43.52786404500051
 72
    1
 10
-100.1530850560111
 20
43.52786404500051
 11
-101.0511410091714
 21
40.76393202249892
 72
    1
 10
-101.0511410091702
 20
40.76393202249979
 11
-98.69999999999992
 21
42.47213595499943
 72
    1
 10
-98.69999999999982
 20
42.47213595499944
 11
-96.34885899083042
 21
40.76393202250065
 72
    1
 10
-96.34885899082973
 20
40.76393202250011
 11
-97.24691494398922
 21
43.52786404500021
 72
    1
 10
-97.24691494398922
 20
43.52786404500021
 11
-94.89577393481932
 21
45.23606797750071
 72
    1
 10
-94.89577393481773
 20
45.23606797750068
 11
-97.80194404684123
 21
45.23606797750028
 72
    1
 10
-97.80194404684123
 20
45.23606797750028
 11
-98.70000000000002
 21
47.99999999999922
 72
    1
 10
-90.50000000000003
 20
40.99999999999922
 11
-91.39805595315903
 21
38.23606797750004
 72
    1
 10
-91.39805595315903
 20
38.23606797750004
 11
-94.30422606518144
 21
38.23606797750004
 72
    1
 10
-94.30422606518243
 20
38.23606797750004
 11
-91.95308505601113
 21
36.52786404500051
 72
    1
 10
-91.95308505601113
 20
36.52786404500051
 11
-92.85114100917143
 21
33.76393202249892
 72
    1
 10
-92.85114100917023
 20
33.76393202249979
 11
-90.49999999999993
 21
35.47213595499943
 72
    1
 10
-90.49999999999983
 20
35.47213595499944
 11
-88.14885899083043
 21
33.76393202250065
 72
    1
 10
-88.14885899082974
 20
33.76393202250011
 11
-89.04691494398924
 21
36.52786404500021
 72
    1
 10
-89.04691494398924
 20
36.52786404500021
 11
-86.69577393481933
 21
38.23606797750071
 72
    1
 10
-86.69577393481774
 20
38.23606797750068
 11
-89.60194404684124
 21
38.23606797750028
 72
    1
 10
-89.60194404684124
 20
38.23606797750028
 11
-90.50000000000003
 21
40.99999999999922
 72
    1
 10
-82.30000000000004
 20
33.99999999999922
 11
-83.19805595315904
 21
31.23606797750004
 72
    1
 10
-83.19805595315904
 20
31.23606797750004
 11
-86.10422606518145
 21
31.23606797750004
 72
    1
 10
-86.10422606518244
 20
31.23606797750004
 11
-83.75308505601114
 21
29.52786404500051
 72
    1
 10
-83.75308505601114
 20
29.52786404500051
 11
-84.65114100917144
 21
26.76393202249892
 72
    1
 10
-84.65114100917025
 20
26.76393202249979
 11
-82.29999999999994
 21
28.47213595499943
 72
    1
 10
-82.29999999999984
 20
28.47213595499944
 11
-79.94885899083044
 21
26.76393202250065
 72
    1
 10
-79.94885899082975
 20
26.76393202250011
 11
-80.84691494398925
 21
29.52786404500021
 72
    1
 10
-80.84691494398925
 20
29.52786404500021
 11
-78.49577393481934
 21
31.23606797750071
 72
    1
 10
-78.49577393481775
 20
31.23606797750068
 11
-81.40194404684125
 21
31.23606797750028
 72
    1
 10
-81.40194404684125
 20
31.23606797750028
 11
-82.30000000000004
 21
33.99999999999922
 72
    1
 10
-74.10000000000005
 20
26.99999999999922
 11
-74.99805595315905
 21
24.23606797750004
 72
    1
 10
-74.99805595315905
 20
24.23606797750004
 11
-77.90422606518146
 21
24.23606797750004
 72
    1
 10
-77.90422606518246
 20
24.23606797750004
 11
-75.55308505601116
 21
22.52786404500051
 72
    1
 10
-75.55308505601116
 20
22.52786404500051
 11
-76.45114100917145
 21
19.76393202249892
 72
    1
 10
-76.45114100917026
 20
19.76393202249979
 11
-74.09999999999995
 21
21.47213595499943
 72
    1
 10
-74.09999999999985
 20
21.47213595499944
 11
-71.74885899083046
 21
19.76393202250065
 72
    1
 10
-71.74885899082976
 20
19.76393202250011
 11
-72.64691494398926
 21
22.52786404500021
 72
    1
 10
-72.64691494398926
 20
22.52786404500021
 11
-70.29577393481935
 21
24.23606797750071
 72
    1
 10
-70.29577393481776
 20
24.23606797750068
 11
-73.20194404684126
 21
24.23606797750028
 72
    1
 10
-73.20194404684126
 20
24.23606797750028
 11
-74.10000000000005
 21
26.99999999999922
 72
    1
 10
-65.90000000000006
 20
19.99999999999922
 11
-66.79805595315906
 21
17.23606797750004
 72
    1
 10
-66.79805595315906
 20
17.23606797750004
 11
-69.70422606518147
 21
17.23606797750004
 72
    1
 10
-69.70422606518247
 20
17.23606797750004
 11
-67.35308505601117
 21
15.52786404500051
 72
    1
 10
-67.35308505601117
 20
15.52786404500051
 11
-68.25114100917146
 21
12.76393202249892
 72
    1
 10
-68.25114100917027
 20
12.76393202249979
 11
-65.89999999999996
 21
14.47213595499943
 72
    1
 10
-65.89999999999986
 20
14.47213595499944
 11
-63.54885899083047
 21
12.76393202250065
 72
    1
 10
-63.54885899082977
 20
12.76393202250011
 11
-64.44691494398927
 21
15.52786404500021
 72
    1
 10
-64.44691494398927
 20
15.52786404500021
 11
-62.09577393481936
 21
17.23606797750071
 72
    1
 10
-62.09577393481777
 20
17.23606797750068
 11
-65.00194404684127
 21
17.23606797750028
 72
    1
 10
-65.00194404684127
 20
17.23606797750028
 11
-65.90000000000006
 21
19.99999999999922
 72
    1
 10
-57.70000000000007
 20
12.99999999999922
 11
-58.59805595315908
 21
10.23606797750004
 72
    1
 10
-58.59805595315908
 20
10.23606797750004
 11
-61.50422606518148
 21
10.23606797750004
 72
    1
 10
-61.50422606518248
 20
10.23606797750004
 11
-59.15308505601118
 21
8.527864045000513
 72
    1
 10
-59.15308505601118
 20
8.527864045000513
 11
-60.05114100917147
 21
5.763932022498921
 72
    1
 10
-60.05114100917028
 20
5.763932022499787
 11
-57.69999999999997
 21
7.47213595499943
 72
    1
 10
-57.69999999999987
 20
7.472135954999438
 11
-55.34885899083048
 21
5.763932022500647
 72
    1
 10
-55.34885899082978
 20
5.763932022500107
 11
-56.24691494398928
 21
8.527864045000207
 72
    1
 10
-56.24691494398928
 20
8.527864045000207
 11
-53.89577393481937
 21
10.23606797750071
 72
    1
 10
-53.89577393481778
 20
10.23606797750068
 11
-56.80194404684129
 21
10.23606797750028
 72
    1
 10
-56.80194404684129
 20
10.23606797750028
 11
-57.70000000000007
 21
12.99999999999922
 72
    1
 10
-49.50000000000009
 20
5.999999999999218
 11
-50.39805595315909
 21
3.236067977500042
 72
    1
 10
-50.39805595315909
 20
3.236067977500042
 11
-53.3042260651815
 21
3.236067977500042
 72
    1
 10
-53.30422606518249
 20
3.236067977500042
 11
-50.95308505601119
 21
1.527864045000513
 72
    1
 10
-50.95308505601119
 20
1.527864045000513
 11
-51.85114100917149
 21
-1.236067977501079
 72
    1
 10
-51.85114100917029
 20
-1.236067977500213
 11
-49.49999999999999
 21
0.4721359549994304
 72
    1
 10
-49.49999999999989
 20
0.4721359549994375
 11
-47.14885899083049
 21
-1.236067977499353
 72
    1
 10
-47.14885899082979
 20
-1.236067977499893
 11
-48.04691494398929
 21
1.527864045000207
 72
    1
 10
-48.04691494398929
 20
1.527864045000207
 11
-45.69577393481939
 21
3.23606797750071
 72
    1
 10
-45.69577393481779
 20
3.236067977500682
 11
-48.6019440468413
 21
3.236067977500277
 72
    1
 10
-48.6019440468413
 20
3.236067977500277
 11
-49.50000000000009
 21
5.999999999999218
 72
    1
 10
-98.7
 20
61.99999999999922
 11
-99.598055953159
 21
59.23606797750004
 72
    1
 10
-99.598055953159
 20
59.23606797750004
 11
-102.5042260651814
 21
59.23606797750004
 72
    1
 10
-102.5042260651824
 20
59.23606797750004
 11
-100.1530850560111
 21
57.52786404500051
 72
    1
 10
-100.1530850560111
 20
57.52786404500051
 11
-101.0511410091714
 21
54.76393202249892
 72
    1
 10
-101.0511410091702
 20
54.76393202249979
 11
-98.6999999999999
 21
56.47213595499943
 72
    1
 10
-98.6999999999998
 20
56.47213595499944
 11
-96.34885899083041
 21
54.76393202250065
 72
    1
 10
-96.34885899082971
 20
54.76393202250011
 11
-97.24691494398921
 21
57.52786404500021
 72
    1
 10
-97.24691494398921
 20
57.52786404500021
 11
-94.8957739348193
 21
59.23606797750071
 72
    1
 10
-94.89577393481771
 20
59.23606797750068
 11
-97.80194404684121
 21
59.23606797750028
 72
    1
 10
-97.80194404684121
 20
59.23606797750028
 11
-98.7
 21
61.99999999999922
 72
    1
 10
-90.50000000000001
 20
54.99999999999922
 11
-91.39805595315902
 21
52.23606797750004
 72
    1
 10
-91.39805595315902
 20
52.23606797750004
 11
-94.30422606518142
 21
52.23606797750004
 72
    1
 10
-94.30422606518242
 20
52.23606797750004
 11
-91.95308505601112
 21
50.52786404500051
 72
    1
 10
-91.95308505601112
 20
50.52786404500051
 11
-92.85114100917141
 21
47.76393202249892
 72
    1
 10
-92.85114100917022
 20
47.76393202249979
 11
-90.49999999999991
 21
49.47213595499943
 72
    1
 10
-90.49999999999982
 20
49.47213595499944
 11
-88.14885899083042
 21
47.76393202250065
 72
    1
 10
-88.14885899082972
 20
47.76393202250011
 11
-89.04691494398922
 21
50.52786404500021
 72
    1
 10
-89.04691494398922
 20
50.52786404500021
 11
-86.69577393481931
 21
52.23606797750071
 72
    1
 10
-86.69577393481772
 20
52.23606797750068
 11
-89.60194404684123
 21
52.23606797750028
 72
    1
 10
-89.60194404684123
 20
52.23606797750028
 11
-90.50000000000001
 21
54.99999999999922
 72
    1
 10
-82.30000000000003
 20
47.99999999999922
 11
-83.19805595315903
 21
45.23606797750004
 72
    1
 10
-83.19805595315903
 20
45.23606797750004
 11
-86.10422606518144
 21
45.23606797750004
 72
    1
 10
-86.10422606518243
 20
45.23606797750004
 11
-83.75308505601113
 21
43.52786404500051
 72
    1
 10
-83.75308505601113
 20
43.52786404500051
 11
-84.65114100917143
 21
40.76393202249892
 72
    1
 10
-84.65114100917023
 20
40.76393202249979
 11
-82.29999999999993
 21
42.47213595499943
 72
    1
 10
-82.29999999999983
 20
42.47213595499944
 11
-79.94885899083043
 21
40.76393202250065
 72
    1
 10
-79.94885899082973
 20
40.76393202250011
 11
-80.84691494398923
 21
43.52786404500021
 72
    1
 10
-80.84691494398923
 20
43.52786404500021
 11
-78.49577393481933
 21
45.23606797750071
 72
    1
 10
-78.49577393481773
 20
45.23606797750068
 11
-81.40194404684124
 21
45.23606797750028
 72
    1
 10
-81.40194404684124
 20
45.23606797750028
 11
-82.30000000000003
 21
47.99999999999922
 72
    1
 10
-74.10000000000004
 20
40.99999999999922
 11
-74.99805595315904
 21
38.23606797750004
 72
    1
 10
-74.99805595315904
 20
38.23606797750004
 11
-77.90422606518145
 21
38.23606797750004
 72
    1
 10
-77.90422606518244
 20
38.23606797750004
 11
-75.55308505601114
 21
36.52786404500051
 72
    1
 10
-75.55308505601114
 20
36.52786404500051
 11
-76.45114100917144
 21
33.76393202249892
 72
    1
 10
-76.45114100917024
 20
33.76393202249979
 11
-74.09999999999994
 21
35.47213595499943
 72
    1
 10
-74.09999999999984
 20
35.47213595499944
 11
-71.74885899083044
 21
33.76393202250065
 72
    1
 10
-71.74885899082975
 20
33.76393202250011
 11
-72.64691494398924
 21
36.52786404500021
 72
    1
 10
-72.64691494398924
 20
36.52786404500021
 11
-70.29577393481934
 21
38.23606797750071
 72
    1
 10
-70.29577393481775
 20
38.23606797750068
 11
-73.20194404684125
 21
38.23606797750028
 72
    1
 10
-73.20194404684125
 20
38.23606797750028
 11
-74.10000000000004
 21
40.99999999999922
 72
    1
 10
-65.90000000000005
 20
33.99999999999922
 11
-66.79805595315905
 21
31.23606797750004
 72
    1
 10
-66.79805595315905
 20
31.23606797750004
 11
-69.70422606518146
 21
31.23606797750004
 72
    1
 10
-69.70422606518245
 20
31.23606797750004
 11
-67.35308505601115
 21
29.52786404500051
 72
    1
 10
-67.35308505601115
 20
29.52786404500051
 11
-68.25114100917145
 21
26.76393202249892
 72
    1
 10
-68.25114100917025
 20
26.76393202249979
 11
-65.89999999999995
 21
28.47213595499943
 72
    1
 10
-65.89999999999985
 20
28.47213595499944
 11
-63.54885899083045
 21
26.76393202250065
 72
    1
 10
-63.54885899082976
 20
26.76393202250011
 11
-64.44691494398926
 21
29.52786404500021
 72
    1
 10
-64.44691494398926
 20
29.52786404500021
 11
-62.09577393481935
 21
31.23606797750071
 72
    1
 10
-62.09577393481776
 20
31.23606797750068
 11
-65.00194404684126
 21
31.23606797750028
 72
    1
 10
-65.00194404684126
 20
31.23606797750028
 11
-65.90000000000005
 21
33.99999999999922
 72
    1
 10
-57.70000000000006
 20
26.99999999999922
 11
-58.59805595315906
 21
24.23606797750004
 72
    1
 10
-58.59805595315906
 20
24.23606797750004
 11
-61.50422606518147
 21
24.23606797750004
 72
    1
 10
-61.50422606518246
 20
24.23606797750004
 11
-59.15308505601116
 21
22.52786404500051
 72
    1
 10
-59.15308505601116
 20
22.52786404500051
 11
-60.05114100917146
 21
19.76393202249892
 72
    1
 10
-60.05114100917027
 20
19.76393202249979
 11
-57.69999999999996
 21
21.47213595499943
 72
    1
 10
-57.69999999999986
 20
21.47213595499944
 11
-55.34885899083046
 21
19.76393202250065
 72
    1
 10
-55.34885899082977
 20
19.76393202250011
 11
-56.24691494398927
 21
22.52786404500021
 72
    1
 10
-56.24691494398927
 20
22.52786404500021
 11
-53.89577393481936
 21
24.23606797750071
 72
    1
 10
-53.89577393481777
 20
24.23606797750068
 11
-56.80194404684127
 21
24.23606797750028
 72
    1
 10
-56.80194404684127
 20
24.23606797750028
 11
-57.70000000000006
 21
26.99999999999922
 72
    1
 10
-49.50000000000007
 20
19.99999999999922
 11
-50.39805595315907
 21
17.23606797750004
 72
    1
 10
-50.39805595315907
 20
17.23606797750004
 11
-53.30422606518148
 21
17.23606797750004
 72
    1
 10
-53.30422606518248
 20
17.23606797750004
 11
-50.95308505601118
 21
15.52786404500051
 72
    1
 10
-50.95308505601118
 20
15.52786404500051
 11
-51.85114100917147
 21
12.76393202249892
 72
    1
 10
-51.85114100917028
 20
12.76393202249979
 11
-49.49999999999997
 21
14.47213595499943
 72
    1
 10
-49.49999999999987
 20
14.47213595499944
 11
-47.14885899083048
 21
12.76393202250065
 72
    1
 10
-47.14885899082978
 20
12.76393202250011
 11
-48.04691494398928
 21
15.52786404500021
 72
    1
 10
-48.04691494398928
 20
15.52786404500021
 11
-45.69577393481937
 21
17.23606797750071
 72
    1
 10
-45.69577393481778
 20
17.23606797750068
 11
-48.60194404684128
 21
17.23606797750028
 72
    1
 10
-48.60194404684128
 20
17.23606797750028
 11
-49.50000000000007
 21
19.99999999999922
 72
    1
 10
-41.30000000000008
 20
12.99999999999922
 11
-42.19805595315908
 21
10.23606797750004
 72
    1
 10
-42.19805595315908
 20
10.23606797750004
 11
-45.10422606518149
 21
10.23606797750004
 72
    1
 10
-45.10422606518249
 20
10.23606797750004
 11
-42.75308505601119
 21
8.527864045000513
 72
    1
 10
-42.75308505601119
 20
8.527864045000513
 11
-43.65114100917148
 21
5.763932022498921
 72
    1
 10
-43.65114100917029
 20
5.763932022499787
 11
-41.29999999999998
 21
7.47213595499943
 72
    1
 10
-41.29999999999988
 20
7.472135954999438
 11
-38.94885899083049
 21
5.763932022500647
 72
    1
 10
-38.94885899082979
 20
5.763932022500107
 11
-39.84691494398929
 21
8.527864045000207
 72
    1
 10
-39.84691494398929
 20
8.527864045000207
 11
-37.49577393481938
 21
10.23606797750071
 72
    1
 10
-37.49577393481779
 20
10.23606797750068
 11
-40.40194404684129
 21
10.23606797750028
 72
    1
 10
-40.40194404684129
 20
10.23606797750028
 11
-41.30000000000008
 21
12.99999999999922
 72
    1
 10
-33.10000000000009
 20
5.999999999999218
 11
-33.9980559531591
 21
3.236067977500042
 72
    1
 10
-33.9980559531591
 20
3.236067977500042
 11
-36.9042260651815
 21
3.236067977500042
 72
    1
 10
-36.9042260651825
 20
3.236067977500042
 11
-34.5530850560112
 21
1.527864045000513
 72
    1
 10
-34.5530850560112
 20
1.527864045000513
 11
-35.45114100917149
 21
-1.236067977501079
 72
    1
 10
-35.4511410091703
 20
-1.236067977500213
 11
-33.09999999999999
 21
0.4721359549994304
 72
    1
 10
-33.09999999999989
 20
0.4721359549994375
 11
-30.7488589908305
 21
-1.236067977499353
 72
    1
 10
-30.7488589908298
 20
-1.236067977499893
 11
-31.6469149439893
 21
1.527864045000207
 72
    1
 10
-31.6469149439893
 20
1.527864045000207
 11
-29.29577393481939
 21
3.23606797750071
 72
    1
 10
-29.2957739348178
 20
3.236067977500682
 11
-32.20194404684131
 21
3.236067977500277
 72
    1
 10
-32.20194404684131
 20
3.236067977500277
 11
-33.10000000000009
 21
5.999999999999218
 72
    1
 10
-82.30000000000001
 20
61.99999999999922
 11
-83.19805595315901
 21
59.23606797750004
 72
    1
 10
-83.19805595315901
 20
59.23606797750004
 11
-86.10422606518142
 21
59.23606797750004
 72
    1
 10
-86.10422606518242
 20
59.23606797750004
 11
-83.75308505601112
 21
57.52786404500051
 72
    1
 10
-83.75308505601112
 20
57.52786404500051
 11
-84.65114100917141
 21
54.76393202249892
 72
    1
 10
-84.65114100917022
 20
54.76393202249979
 11
-82.29999999999991
 21
56.47213595499943
 72
    1
 10
-82.29999999999981
 20
56.47213595499944
 11
-79.94885899083042
 21
54.76393202250065
 72
    1
 10
-79.94885899082972
 20
54.76393202250011
 11
-80.84691494398922
 21
57.52786404500021
 72
    1
 10
-80.84691494398922
 20
57.52786404500021
 11
-78.49577393481931
 21
59.23606797750071
 72
    1
 10
-78.49577393481772
 20
59.23606797750068
 11
-81.40194404684122
 21
59.23606797750028
 72
    1
 10
-81.40194404684122
 20
59.23606797750028
 11
-82.30000000000001
 21
61.99999999999922
 72
    1
 10
-74.10000000000002
 20
54.99999999999922
 11
-74.99805595315902
 21
52.23606797750004
 72
    1
 10
-74.99805595315902
 20
52.23606797750004
 11
-77.90422606518143
 21
52.23606797750004
 72
    1
 10
-77.90422606518243
 20
52.23606797750004
 11
-75.55308505601113
 21
50.52786404500051
 72
    1
 10
-75.55308505601113
 20
50.52786404500051
 11
-76.45114100917142
 21
47.76393202249892
 72
    1
 10
-76.45114100917023
 20
47.76393202249979
 11
-74.09999999999992
 21
49.47213595499943
 72
    1
 10
-74.09999999999982
 20
49.47213595499944
 11
-71.74885899083043
 21
47.76393202250065
 72
    1
 10
-71.74885899082973
 20
47.76393202250011
 11
-72.64691494398923
 21
50.52786404500021
 72
    1
 10
-72.64691494398923
 20
50.52786404500021
 11
-70.29577393481932
 21
52.23606797750071
 72
    1
 10
-70.29577393481773
 20
52.23606797750068
 11
-73.20194404684123
 21
52.23606797750028
 72
    1
 10
-73.20194404684123
 20
52.23606797750028
 11
-74.10000000000002
 21
54.99999999999922
 72
    1
 10
-65.90000000000003
 20
47.99999999999922
 11
-66.79805595315904
 21
45.23606797750004
 72
    1
 10
-66.79805595315904
 20
45.23606797750004
 11
-69.70422606518144
 21
45.23606797750004
 72
    1
 10
-69.70422606518244
 20
45.23606797750004
 11
-67.35308505601114
 21
43.52786404500051
 72
    1
 10
-67.35308505601114
 20
43.52786404500051
 11
-68.25114100917143
 21
40.76393202249892
 72
    1
 10
-68.25114100917024
 20
40.76393202249979
 11
-65.89999999999993
 21
42.47213595499943
 72
    1
 10
-65.89999999999984
 20
42.47213595499944
 11
-63.54885899083044
 21
40.76393202250065
 72
    1
 10
-63.54885899082974
 20
40.76393202250011
 11
-64.44691494398924
 21
43.52786404500021
 72
    1
 10
-64.44691494398924
 20
43.52786404500021
 11
-62.09577393481933
 21
45.23606797750071
 72
    1
 10
-62.09577393481774
 20
45.23606797750068
 11
-65.00194404684125
 21
45.23606797750028
 72
    1
 10
-65.00194404684125
 20
45.23606797750028
 11
-65.90000000000003
 21
47.99999999999922
 72
    1
 10
-57.70000000000005
 20
40.99999999999922
 11
-58.59805595315905
 21
38.23606797750004
 72
    1
 10
-58.59805595315905
 20
38.23606797750004
 11
-61.50422606518146
 21
38.23606797750004
 72
    1
 10
-61.50422606518245
 20
38.23606797750004
 11
-59.15308505601115
 21
36.52786404500051
 72
    1
 10
-59.15308505601115
 20
36.52786404500051
 11
-60.05114100917145
 21
33.76393202249892
 72
    1
 10
-60.05114100917025
 20
33.76393202249979
 11
-57.69999999999995
 21
35.47213595499943
 72
    1
 10
-57.69999999999985
 20
35.47213595499944
 11
-55.34885899083045
 21
33.76393202250065
 72
    1
 10
-55.34885899082975
 20
33.76393202250011
 11
-56.24691494398925
 21
36.52786404500021
 72
    1
 10
-56.24691494398925
 20
36.52786404500021
 11
-53.89577393481935
 21
38.23606797750071
 72
    1
 10
-53.89577393481775
 20
38.23606797750068
 11
-56.80194404684126
 21
38.23606797750028
 72
    1
 10
-56.80194404684126
 20
38.23606797750028
 11
-57.70000000000005
 21
40.99999999999922
 72
    1
 10
-49.50000000000006
 20
33.99999999999922
 11
-50.39805595315906
 21
31.23606797750004
 72
    1
 10
-50.39805595315906
 20
31.23606797750004
 11
-53.30422606518147
 21
31.23606797750004
 72
    1
 10
-53.30422606518246
 20
31.23606797750004
 11
-50.95308505601116
 21
29.52786404500051
 72
    1
 10
-50.95308505601116
 20
29.52786404500051
 11
-51.85114100917146
 21
26.76393202249892
 72
    1
 10
-51.85114100917026
 20
26.76393202249979
 11
-49.49999999999996
 21
28.47213595499943
 72
    1
 10
-49.49999999999986
 20
28.47213595499944
 11
-47.14885899083046
 21
26.76393202250065
 72
    1
 10
-47.14885899082977
 20
26.76393202250011
 11
-48.04691494398926
 21
29.52786404500021
 72
    1
 10
-48.04691494398926
 20
29.52786404500021
 11
-45.69577393481936
 21
31.23606797750071
 72
    1
 10
-45.69577393481777
 20
31.23606797750068
 11
-48.60194404684127
 21
31.23606797750028
 72
    1
 10
-48.60194404684127
 20
31.23606797750028
 11
-49.50000000000006
 21
33.99999999999922
 72
    1
 10
-41.30000000000007
 20
26.99999999999922
 11
-42.19805595315907
 21
24.23606797750004
 72
    1
 10
-42.19805595315907
 20
24.23606797750004
 11
-45.10422606518148
 21
24.23606797750004
 72
    1
 10
-45.10422606518247
 20
24.23606797750004
 11
-42.75308505601117
 21
22.52786404500051
 72
    1
 10
-42.75308505601117
 20
22.52786404500051
 11
-43.65114100917147
 21
19.76393202249892
 72
    1
 10
-43.65114100917027
 20
19.76393202249979
 11
-41.29999999999997
 21
21.47213595499943
 72
    1
 10
-41.29999999999987
 20
21.47213595499944
 11
-38.94885899083047
 21
19.76393202250065
 72
    1
 10
-38.94885899082978
 20
19.76393202250011
 11
-39.84691494398928
 21
22.52786404500021
 72
    1
 10
-39.84691494398928
 20
22.52786404500021
 11
-37.49577393481937
 21
24.23606797750071
 72
    1
 10
-37.49577393481778
 20
24.23606797750068
 11
-40.40194404684128
 21
24.23606797750028
 72
    1
 10
-40.40194404684128
 20
24.23606797750028
 11
-41.30000000000007
 21
26.99999999999922
 72
    1
 10
-33.10000000000008
 20
19.99999999999922
 11
-33.99805595315908
 21
17.23606797750004
 72
    1
 10
-33.99805595315908
 20
17.23606797750004
 11
-36.90422606518149
 21
17.23606797750004
 72
    1
 10
-36.90422606518248
 20
17.23606797750004
 11
-34.55308505601118
 21
15.52786404500051
 72
    1
 10
-34.55308505601118
 20
15.52786404500051
 11
-35.45114100917148
 21
12.76393202249892
 72
    1
 10
-35.45114100917029
 20
12.76393202249979
 11
-33.09999999999998
 21
14.47213595499943
 72
    1
 10
-33.09999999999988
 20
14.47213595499944
 11
-30.74885899083048
 21
12.76393202250065
 72
    1
 10
-30.74885899082979
 20
12.76393202250011
 11
-31.64691494398929
 21
15.52786404500021
 72
    1
 10
-31.64691494398929
 20
15.52786404500021
 11
-29.29577393481938
 21
17.23606797750071
 72
    1
 10
-29.29577393481779
 20
17.23606797750068
 11
-32.20194404684129
 21
17.23606797750028
 72
    1
 10
-32.20194404684129
 20
17.23606797750028
 11
-33.10000000000008
 21
19.99999999999922
 72
    1
 10
-65.90000000000002
 20
61.99999999999922
 11
-66.79805595315902
 21
59.23606797750004
 72
    1
 10
-66.79805595315902
 20
59.23606797750004
 11
-69.70422606518143
 21
59.23606797750004
 72
    1
 10
-69.70422606518243
 20
59.23606797750004
 11
-67.35308505601112
 21
57.52786404500051
 72
    1
 10
-67.35308505601112
 20
57.52786404500051
 11
-68.25114100917142
 21
54.76393202249892
 72
    1
 10
-68.25114100917023
 20
54.76393202249979
 11
-65.89999999999992
 21
56.47213595499943
 72
    1
 10
-65.89999999999982
 20
56.47213595499944
 11
-63.54885899083042
 21
54.76393202250065
 72
    1
 10
-63.54885899082973
 20
54.76393202250011
 11
-64.44691494398923
 21
57.52786404500021
 72
    1
 10
-64.44691494398923
 20
57.52786404500021
 11
-62.09577393481932
 21
59.23606797750071
 72
    1
 10
-62.09577393481773
 20
59.23606797750068
 11
-65.00194404684123
 21
59.23606797750028
 72
    1
 10
-65.00194404684123
 20
59.23606797750028
 11
-65.90000000000002
 21
61.99999999999922
 72
    1
 10
-57.70000000000003
 20
54.99999999999922
 11
-58.59805595315903
 21
52.23606797750004
 72
    1
 10
-58.59805595315903
 20
52.23606797750004
 11
-61.50422606518144
 21
52.23606797750004
 72
    1
 10
-61.50422606518244
 20
52.23606797750004
 11
-59.15308505601114
 21
50.52786404500051
 72
    1
 10
-59.15308505601114
 20
50.52786404500051
 11
-60.05114100917143
 21
47.76393202249892
 72
    1
 10
-60.05114100917024
 20
47.76393202249979
 11
-57.69999999999993
 21
49.47213595499943
 72
    1
 10
-57.69999999999983
 20
49.47213595499944
 11
-55.34885899083044
 21
47.76393202250065
 72
    1
 10
-55.34885899082974
 20
47.76393202250011
 11
-56.24691494398924
 21
50.52786404500021
 72
    1
 10
-56.24691494398924
 20
50.52786404500021
 11
-53.89577393481933
 21
52.23606797750071
 72
    1
 10
-53.89577393481774
 20
52.23606797750068
 11
-56.80194404684124
 21
52.23606797750028
 72
    1
 10
-56.80194404684124
 20
52.23606797750028
 11
-57.70000000000003
 21
54.99999999999922
 72
    1
 10
-49.50000000000004
 20
47.99999999999922
 11
-50.39805595315904
 21
45.23606797750004
 72
    1
 10
-50.39805595315904
 20
45.23606797750004
 11
-53.30422606518145
 21
45.23606797750004
 72
    1
 10
-53.30422606518245
 20
45.23606797750004
 11
-50.95308505601115
 21
43.52786404500051
 72
    1
 10
-50.95308505601115
 20
43.52786404500051
 11
-51.85114100917144
 21
40.76393202249892
 72
    1
 10
-51.85114100917025
 20
40.76393202249979
 11
-49.49999999999994
 21
42.47213595499943
 72
    1
 10
-49.49999999999984
 20
42.47213595499944
 11
-47.14885899083045
 21
40.76393202250065
 72
    1
 10
-47.14885899082975
 20
40.76393202250011
 11
-48.04691494398925
 21
43.52786404500021
 72
    1
 10
-48.04691494398925
 20
43.52786404500021
 11
-45.69577393481934
 21
45.23606797750071
 72
    1
 10
-45.69577393481775
 20
45.23606797750068
 11
-48.60194404684125
 21
45.23606797750028
 72
    1
 10
-48.60194404684125
 20
45.23606797750028
 11
-49.50000000000004
 21
47.99999999999922
 72
    1
 10
-41.30000000000005
 20
40.99999999999922
 11
-42.19805595315906
 21
38.23606797750004
 72
    1
 10
-42.19805595315906
 20
38.23606797750004
 11
-45.10422606518146
 21
38.23606797750004
 72
    1
 10
-45.10422606518246
 20
38.23606797750004
 11
-42.75308505601116
 21
36.52786404500051
 72
    1
 10
-42.75308505601116
 20
36.52786404500051
 11
-43.65114100917145
 21
33.76393202249892
 72
    1
 10
-43.65114100917026
 20
33.76393202249979
 11
-41.29999999999995
 21
35.47213595499943
 72
    1
 10
-41.29999999999986
 20
35.47213595499944
 11
-38.94885899083046
 21
33.76393202250065
 72
    1
 10
-38.94885899082976
 20
33.76393202250011
 11
-39.84691494398926
 21
36.52786404500021
 72
    1
 10
-39.84691494398926
 20
36.52786404500021
 11
-37.49577393481935
 21
38.23606797750071
 72
    1
 10
-37.49577393481776
 20
38.23606797750068
 11
-40.40194404684127
 21
38.23606797750028
 72
    1
 10
-40.40194404684127
 20
38.23606797750028
 11
-41.30000000000005
 21
40.99999999999922
 72
    1
 10
-33.10000000000007
 20
33.99999999999922
 11
-33.99805595315907
 21
31.23606797750004
 72
    1
 10
-33.99805595315907
 20
31.23606797750004
 11
-36.90422606518148
 21
31.23606797750004
 72
    1
 10
-36.90422606518247
 20
31.23606797750004
 11
-34.55308505601117
 21
29.52786404500051
 72
    1
 10
-34.55308505601117
 20
29.52786404500051
 11
-35.45114100917147
 21
26.76393202249892
 72
    1
 10
-35.45114100917027
 20
26.76393202249979
 11
-33.09999999999997
 21
28.47213595499943
 72
    1
 10
-33.09999999999987
 20
28.47213595499944
 11
-30.74885899083047
 21
26.76393202250065
 72
    1
 10
-30.74885899082977
 20
26.76393202250011
 11
-31.64691494398927
 21
29.52786404500021
 72
    1
 10
-31.64691494398927
 20
29.52786404500021
 11
-29.29577393481937
 21
31.23606797750071
 72
    1
 10
-29.29577393481777
 20
31.23606797750068
 11
-32.20194404684128
 21
31.23606797750028
 72
    1
 10
-32.20194404684128
 20
31.23606797750028
 11
-33.10000000000007
 21
33.99999999999922
 72
    1
 10
-49.50000000000003
 20
61.99999999999922
 11
-50.39805595315903
 21
59.23606797750004
 72
    1
 10
-50.39805595315903
 20
59.23606797750004
 11
-53.30422606518144
 21
59.23606797750004
 72
    1
 10
-53.30422606518243
 20
59.23606797750004
 11
-50.95308505601113
 21
57.52786404500051
 72
    1
 10
-50.95308505601113
 20
57.52786404500051
 11
-51.85114100917143
 21
54.76393202249892
 72
    1
 10
-51.85114100917023
 20
54.76393202249979
 11
-49.49999999999993
 21
56.47213595499943
 72
    1
 10
-49.49999999999983
 20
56.47213595499944
 11
-47.14885899083043
 21
54.76393202250065
 72
    1
 10
-47.14885899082974
 20
54.76393202250011
 11
-48.04691494398924
 21
57.52786404500021
 72
    1
 10
-48.04691494398924
 20
57.52786404500021
 11
-45.69577393481933
 21
59.23606797750071
 72
    1
 10
-45.69577393481774
 20
59.23606797750068
 11
-48.60194404684124
 21
59.23606797750028
 72
    1
 10
-48.60194404684124
 20
59.23606797750028
 11
-49.50000000000003
 21
61.99999999999922
 72
    1
 10
-41.30000000000004
 20
54.99999999999922
 11
-42.19805595315904
 21
52.23606797750004
 72
    1
 10
-42.19805595315904
 20
52.23606797750004
 11
-45.10422606518145
 21
52.23606797750004
 72
    1
 10
-45.10422606518244
 20
52.23606797750004
 11
-42.75308505601114
 21
50.52786404500051
 72
    1
 10
-42.75308505601114
 20
50.52786404500051
 11
-43.65114100917144
 21
47.76393202249892
 72
    1
 10
-43.65114100917025
 20
47.76393202249979
 11
-41.29999999999994
 21
49.47213595499943
 72
    1
 10
-41.29999999999984
 20
49.47213595499944
 11
-38.94885899083044
 21
47.76393202250065
 72
    1
 10
-38.94885899082975
 20
47.76393202250011
 11
-39.84691494398925
 21
50.52786404500021
 72
    1
 10
-39.84691494398925
 20
50.52786404500021
 11
-37.49577393481934
 21
52.23606797750071
 72
    1
 10
-37.49577393481775
 20
52.23606797750068
 11
-40.40194404684125
 21
52.23606797750028
 72
    1
 10
-40.40194404684125
 20
52.23606797750028
 11
-41.30000000000004
 21
54.99999999999922
 72
    1
 10
-33.10000000000005
 20
47.99999999999922
 11
-33.99805595315905
 21
45.23606797750004
 72
    1
 10
-33.99805595315905
 20
45.23606797750004
 11
-36.90422606518146
 21
45.23606797750004
 72
    1
 10
-36.90422606518246
 20
45.23606797750004
 11
-34.55308505601116
 21
43.52786404500051
 72
    1
 10
-34.55308505601116
 20
43.52786404500051
 11
-35.45114100917145
 21
40.76393202249892
 72
    1
 10
-35.45114100917026
 20
40.76393202249979
 11
-33.09999999999995
 21
42.47213595499943
 72
    1
 10
-33.09999999999985
 20
42.47213595499944
 11
-30.74885899083046
 21
40.76393202250065
 72
    1
 10
-30.74885899082976
 20
40.76393202250011
 11
-31.64691494398926
 21
43.52786404500021
 72
    1
 10
-31.64691494398926
 20
43.52786404500021
 11
-29.29577393481935
 21
45.23606797750071
 72
    1
 10
-29.29577393481776
 20
45.23606797750068
 11
-32.20194404684126
 21
45.23606797750028
 72
    1
 10
-32.20194404684126
 20
45.23606797750028
 11
-33.10000000000005
 21
47.99999999999922
 72
    1
 10
-33.10000000000004
 20
61.99999999999922
 11
-33.99805595315904
 21
59.23606797750004
 72
    1
 10
-33.99805595315904
 20
59.23606797750004
 11
-36.90422606518145
 21
59.23606797750004
 72
    1
 10
-36.90422606518244
 20
59.23606797750004
 11
-34.55308505601114
 21
57.52786404500051
 72
    1
 10
-34.55308505601114
 20
57.52786404500051
 11
-35.45114100917144
 21
54.76393202249892
 72
    1
 10
-35.45114100917024
 20
54.76393202249979
 11
-33.09999999999994
 21
56.47213595499943
 72
    1
 10
-33.09999999999984
 20
56.47213595499944
 11
-30.74885899083044
 21
54.76393202250065
 72
    1
 10
-30.74885899082975
 20
54.76393202250011
 11
-31.64691494398924
 21
57.52786404500021
 72
    1
 10
-31.64691494398924
 20
57.52786404500021
 11
-29.29577393481934
 21
59.23606797750071
 72
    1
 10
-29.29577393481775
 20
59.23606797750068
 11
-32.20194404684125
 21
59.23606797750028
 72
    1
 10
-32.20194404684125
 20
59.23606797750028
 11
-33.10000000000004
 21
61.99999999999922
 72
    1
 10
-115.1
 20
47.99999999999922
 11
-115.998055953159
 21
45.23606797750004
 72
    1
 10
-115.998055953159
 20
45.23606797750004
 11
-118.9042260651814
 21
45.23606797750004
 72
    1
 10
-118.9042260651824
 20
45.23606797750004
 11
-116.5530850560111
 21
43.52786404500051
 72
    1
 10
-116.5530850560111
 20
43.52786404500051
 11
-117.4511410091714
 21
40.76393202249892
 72
    1
 10
-117.4511410091702
 20
40.76393202249979
 11
-115.0999999999999
 21
42.47213595499943
 72
    1
 10
-115.0999999999998
 20
42.47213595499944
 11
-112.7488589908304
 21
40.76393202250065
 72
    1
 10
-112.7488589908297
 20
40.76393202250011
 11
-113.6469149439892
 21
43.52786404500021
 72
    1
 10
-113.6469149439892
 20
43.52786404500021
 11
-111.2957739348193
 21
45.23606797750071
 72
    1
 10
-111.2957739348177
 20
45.23606797750068
 11
-114.2019440468412
 21
45.23606797750028
 72
    1
 10
-114.2019440468412
 20
45.23606797750028
 11
-115.1
 21
47.99999999999922
 72
    1
 10
-115.1
 20
33.99999999999922
 11
-115.998055953159
 21
31.23606797750004
 72
    1
 10
-115.998055953159
 20
31.23606797750004
 11
-118.9042260651814
 21
31.23606797750004
 72
    1
 10
-118.9042260651824
 20
31.23606797750004
 11
-116.5530850560111
 21
29.52786404500051
 72
    1
 10
-116.5530850560111
 20
29.52786404500051
 11
-117.4511410091714
 21
26.76393202249892
 72
    1
 10
-117.4511410091702
 20
26.76393202249979
 11
-115.0999999999999
 21
28.47213595499943
 72
    1
 10
-115.0999999999998
 20
28.47213595499944
 11
-112.7488589908304
 21
26.76393202250065
 72
    1
 10
-112.7488589908297
 20
26.76393202250011
 11
-113.6469149439892
 21
29.52786404500021
 72
    1
 10
-113.6469149439892
 20
29.52786404500021
 11
-111.2957739348193
 21
31.23606797750071
 72
    1
 10
-111.2957739348177
 20
31.23606797750068
 11
-114.2019440468412
 21
31.23606797750028
 72
    1
 10
-114.2019440468412
 20
31.23606797750028
 11
-115.1
 21
33.99999999999922
 72
    1
 10
-115.1
 20
19.99999999999922
 11
-115.998055953159
 21
17.23606797750004
 72
    1
 10
-115.998055953159
 20
17.23606797750004
 11
-118.9042260651814
 21
17.23606797750004
 72
    1
 10
-118.9042260651824
 20
17.23606797750004
 11
-116.5530850560111
 21
15.52786404500051
 72
    1
 10
-116.5530850560111
 20
15.52786404500051
 11
-117.4511410091714
 21
12.76393202249892
 72
    1
 10
-117.4511410091702
 20
12.76393202249979
 11
-115.0999999999999
 21
14.47213595499943
 72
    1
 10
-115.0999999999998
 20
14.47213595499944
 11
-112.7488589908304
 21
12.76393202250065
 72
    1
 10
-112.7488589908297
 20
12.76393202250011
 11
-113.6469149439892
 21
15.52786404500021
 72
    1
 10
-113.6469149439892
 20
15.52786404500021
 11
-111.2957739348193
 21
17.23606797750071
 72
    1
 10
-111.2957739348177
 20
17.23606797750068
 11
-114.2019440468412
 21
17.23606797750028
 72
    1
 10
-114.2019440468412
 20
17.23606797750028
 11
-115.1
 21
19.99999999999922
 72
    1
 10
-115.1
 20
5.999999999999218
 11
-115.998055953159
 21
3.236067977500042
 72
    1
 10
-115.998055953159
 20
3.236067977500042
 11
-118.9042260651814
 21
3.236067977500042
 72
    1
 10
-118.9042260651824
 20
3.236067977500042
 11
-116.5530850560111
 21
1.527864045000513
 72
    1
 10
-116.5530850560111
 20
1.527864045000513
 11
-117.4511410091714
 21
-1.236067977501079
 72
    1
 10
-117.4511410091702
 20
-1.236067977500213
 11
-115.0999999999999
 21
0.4721359549994304
 72
    1
 10
-115.0999999999998
 20
0.4721359549994375
 11
-112.7488589908304
 21
-1.236067977499353
 72
    1
 10
-112.7488589908297
 20
-1.236067977499893
 11
-113.6469149439892
 21
1.527864045000207
 72
    1
 10
-113.6469149439892
 20
1.527864045000207
 11
-111.2957739348193
 21
3.23606797750071
 72
    1
 10
-111.2957739348177
 20
3.236067977500682
 11
-114.2019440468412
 21
3.236067977500277
 72
    1
 10
-114.2019440468412
 20
3.236067977500277
 11
-115.1
 21
5.999999999999218
 72
    1
 10
-98.69999999999999
 20
33.99999999999922
 11
-99.59805595315899
 21
31.23606797750004
 72
    1
 10
-99.59805595315899
 20
31.23606797750004
 11
-102.5042260651814
 21
31.23606797750004
 72
    1
 10
-102.5042260651824
 20
31.23606797750004
 11
-100.1530850560111
 21
29.52786404500051
 72
    1
 10
-100.1530850560111
 20
29.52786404500051
 11
-101.0511410091714
 21
26.76393202249892
 72
    1
 10
-101.0511410091702
 20
26.76393202249979
 11
-98.69999999999989
 21
28.47213595499943
 72
    1
 10
-98.69999999999979
 20
28.47213595499944
 11
-96.34885899083039
 21
26.76393202250065
 72
    1
 10
-96.3488589908297
 20
26.76393202250011
 11
-97.2469149439892
 21
29.52786404500021
 72
    1
 10
-97.2469149439892
 20
29.52786404500021
 11
-94.89577393481929
 21
31.23606797750071
 72
    1
 10
-94.8957739348177
 20
31.23606797750068
 11
-97.8019440468412
 21
31.23606797750028
 72
    1
 10
-97.8019440468412
 20
31.23606797750028
 11
-98.69999999999999
 21
33.99999999999922
 72
    1
 10
-98.69999999999999
 20
19.99999999999922
 11
-99.59805595315899
 21
17.23606797750004
 72
    1
 10
-99.59805595315899
 20
17.23606797750004
 11
-102.5042260651814
 21
17.23606797750004
 72
    1
 10
-102.5042260651824
 20
17.23606797750004
 11
-100.1530850560111
 21
15.52786404500051
 72
    1
 10
-100.1530850560111
 20
15.52786404500051
 11
-101.0511410091714
 21
12.76393202249892
 72
    1
 10
-101.0511410091702
 20
12.76393202249979
 11
-98.69999999999989
 21
14.47213595499943
 72
    1
 10
-98.69999999999979
 20
14.47213595499944
 11
-96.34885899083039
 21
12.76393202250065
 72
    1
 10
-96.3488589908297
 20
12.76393202250011
 11
-97.2469149439892
 21
15.52786404500021
 72
    1
 10
-97.2469149439892
 20
15.52786404500021
 11
-94.89577393481929
 21
17.23606797750071
 72
    1
 10
-94.8957739348177
 20
17.23606797750068
 11
-97.8019440468412
 21
17.23606797750028
 72
    1
 10
-97.8019440468412
 20
17.23606797750028
 11
-98.69999999999999
 21
19.99999999999922
 72
    1
 10
-98.69999999999999
 20
5.999999999999218
 11
-99.59805595315899
 21
3.236067977500042
 72
    1
 10
-99.59805595315899
 20
3.236067977500042
 11
-102.5042260651814
 21
3.236067977500042
 72
    1
 10
-102.5042260651824
 20
3.236067977500042
 11
-100.1530850560111
 21
1.527864045000513
 72
    1
 10
-100.1530850560111
 20
1.527864045000513
 11
-101.0511410091714
 21
-1.236067977501079
 72
    1
 10
-101.0511410091702
 20
-1.236067977500213
 11
-98.69999999999989
 21
0.4721359549994304
 72
    1
 10
-98.69999999999979
 20
0.4721359549994375
 11
-96.34885899083039
 21
-1.236067977499353
 72
    1
 10
-96.3488589908297
 20
-1.236067977499893
 11
-97.2469149439892
 21
1.527864045000207
 72
    1
 10
-97.2469149439892
 20
1.527864045000207
 11
-94.89577393481929
 21
3.23606797750071
 72
    1
 10
-94.8957739348177
 20
3.236067977500682
 11
-97.8019440468412
 21
3.236067977500277
 72
    1
 10
-97.8019440468412
 20
3.236067977500277
 11
-98.69999999999999
 21
5.999999999999218
 72
    1
 10
-82.29999999999998
 20
19.99999999999922
 11
-83.19805595315898
 21
17.23606797750004
 72
    1
 10
-83.19805595315898
 20
17.23606797750004
 11
-86.10422606518139
 21
17.23606797750004
 72
    1
 10
-86.10422606518239
 20
17.23606797750004
 11
-83.75308505601109
 21
15.52786404500051
 72
    1
 10
-83.75308505601109
 20
15.52786404500051
 11
-84.65114100917138
 21
12.76393202249892
 72
    1
 10
-84.65114100917019
 20
12.76393202249979
 11
-82.29999999999988
 21
14.47213595499943
 72
    1
 10
-82.29999999999978
 20
14.47213595499944
 11
-79.94885899083039
 21
12.76393202250065
 72
    1
 10
-79.94885899082969
 20
12.76393202250011
 11
-80.84691494398919
 21
15.52786404500021
 72
    1
 10
-80.84691494398919
 20
15.52786404500021
 11
-78.49577393481928
 21
17.23606797750071
 72
    1
 10
-78.49577393481769
 20
17.23606797750068
 11
-81.40194404684119
 21
17.23606797750028
 72
    1
 10
-81.40194404684119
 20
17.23606797750028
 11
-82.29999999999998
 21
19.99999999999922
 72
    1
 10
-82.29999999999998
 20
5.999999999999218
 11
-83.19805595315898
 21
3.236067977500042
 72
    1
 10
-83.19805595315898
 20
3.236067977500042
 11
-86.10422606518139
 21
3.236067977500042
 72
    1
 10
-86.10422606518239
 20
3.236067977500042
 11
-83.75308505601109
 21
1.527864045000513
 72
    1
 10
-83.75308505601109
 20
1.527864045000513
 11
-84.65114100917138
 21
-1.236067977501079
 72
    1
 10
-84.65114100917019
 20
-1.236067977500213
 11
-82.29999999999988
 21
0.4721359549994304
 72
    1
 10
-82.29999999999978
 20
0.4721359549994375
 11
-79.94885899083039
 21
-1.236067977499353
 72
    1
 10
-79.94885899082969
 20
-1.236067977499893
 11
-80.84691494398919
 21
1.527864045000207
 72
    1
 10
-80.84691494398919
 20
1.527864045000207
 11
-78.49577393481928
 21
3.23606797750071
 72
    1
 10
-78.49577393481769
 20
3.236067977500682
 11
-81.40194404684119
 21
3.236067977500277
 72
    1
 10
-81.40194404684119
 20
3.236067977500277
 11
-82.29999999999998
 21
5.999999999999218
 72
    1
 10
-65.89999999999998
 20
5.999999999999218
 11
-66.79805595315898
 21
3.236067977500042
 72
    1
 10
-66.79805595315898
 20
3.236067977500042
 11
-69.70422606518139
 21
3.236067977500042
 72
    1
 10
-69.70422606518238
 20
3.236067977500042
 11
-67.35308505601108
 21
1.527864045000513
 72
    1
 10
-67.35308505601108
 20
1.527864045000513
 11
-68.25114100917138
 21
-1.236067977501079
 72
    1
 10
-68.25114100917018
 20
-1.236067977500213
 11
-65.89999999999988
 21
0.4721359549994304
 72
    1
 10
-65.89999999999978
 20
0.4721359549994375
 11
-63.54885899083038
 21
-1.236067977499353
 72
    1
 10
-63.54885899082969
 20
-1.236067977499893
 11
-64.44691494398919
 21
1.527864045000207
 72
    1
 10
-64.44691494398919
 20
1.527864045000207
 11
-62.09577393481928
 21
3.23606797750071
 72
    1
 10
-62.09577393481769
 20
3.236067977500682
 11
-65.00194404684119
 21
3.236067977500277
 72
    1
 10
-65.00194404684119
 20
3.236067977500277
 11
-65.89999999999998
 21
5.999999999999218
 72
    1
 10
-106.9
 20
40.99999999999922
 11
-107.798055953159
 21
38.23606797750004
 72
    1
 10
-107.798055953159
 20
38.23606797750004
 11
-110.7042260651814
 21
38.23606797750004
 72
    1
 10
-110.7042260651824
 20
38.23606797750004
 11
-108.3530850560111
 21
36.52786404500051
 72
    1
 10
-108.3530850560111
 20
36.52786404500051
 11
-109.2511410091714
 21
33.76393202249892
 72
    1
 10
-109.2511410091702
 20
33.76393202249979
 11
-106.8999999999999
 21
35.47213595499943
 72
    1
 10
-106.8999999999998
 20
35.47213595499944
 11
-104.5488589908304
 21
33.76393202250065
 72
    1
 10
-104.5488589908297
 20
33.76393202250011
 11
-105.4469149439892
 21
36.52786404500021
 72
    1
 10
-105.4469149439892
 20
36.52786404500021
 11
-103.0957739348193
 21
38.23606797750071
 72
    1
 10
-103.0957739348177
 20
38.23606797750068
 11
-106.0019440468412
 21
38.23606797750028
 72
    1
 10
-106.0019440468412
 20
38.23606797750028
 11
-106.9
 21
40.99999999999922
 72
    1
 10
-90.50000000000003
 20
26.99999999999922
 11
-91.39805595315903
 21
24.23606797750004
 72
    1
 10
-91.39805595315903
 20
24.23606797750004
 11
-94.30422606518144
 21
24.23606797750004
 72
    1
 10
-94.30422606518243
 20
24.23606797750004
 11
-91.95308505601113
 21
22.52786404500051
 72
    1
 10
-91.95308505601113
 20
22.52786404500051
 11
-92.85114100917143
 21
19.76393202249892
 72
    1
 10
-92.85114100917023
 20
19.76393202249979
 11
-90.49999999999993
 21
21.47213595499943
 72
    1
 10
-90.49999999999983
 20
21.47213595499944
 11
-88.14885899083043
 21
19.76393202250065
 72
    1
 10
-88.14885899082974
 20
19.76393202250011
 11
-89.04691494398924
 21
22.52786404500021
 72
    1
 10
-89.04691494398924
 20
22.52786404500021
 11
-86.69577393481933
 21
24.23606797750071
 72
    1
 10
-86.69577393481774
 20
24.23606797750068
 11
-89.60194404684124
 21
24.23606797750028
 72
    1
 10
-89.60194404684124
 20
24.23606797750028
 11
-90.50000000000003
 21
26.99999999999922
 72
    1
 10
-74.10000000000005
 20
12.99999999999922
 11
-74.99805595315905
 21
10.23606797750004
 72
    1
 10
-74.99805595315905
 20
10.23606797750004
 11
-77.90422606518146
 21
10.23606797750004
 72
    1
 10
-77.90422606518246
 20
10.23606797750004
 11
-75.55308505601116
 21
8.527864045000513
 72
    1
 10
-75.55308505601116
 20
8.527864045000513
 11
-76.45114100917145
 21
5.763932022498921
 72
    1
 10
-76.45114100917026
 20
5.763932022499787
 11
-74.09999999999995
 21
7.47213595499943
 72
    1
 10
-74.09999999999985
 20
7.472135954999438
 11
-71.74885899083046
 21
5.763932022500647
 72
    1
 10
-71.74885899082976
 20
5.763932022500107
 11
-72.64691494398926
 21
8.527864045000207
 72
    1
 10
-72.64691494398926
 20
8.527864045000207
 11
-70.29577393481935
 21
10.23606797750071
 72
    1
 10
-70.29577393481776
 20
10.23606797750068
 11
-73.20194404684126
 21
10.23606797750028
 72
    1
 10
-73.20194404684126
 20
10.23606797750028
 11
-74.10000000000005
 21
12.99999999999922
 72
    1
 10
-106.9
 20
26.99999999999922
 11
-107.798055953159
 21
24.23606797750004
 72
    1
 10
-107.798055953159
 20
24.23606797750004
 11
-110.7042260651814
 21
24.23606797750004
 72
    1
 10
-110.7042260651824
 20
24.23606797750004
 11
-108.3530850560111
 21
22.52786404500051
 72
    1
 10
-108.3530850560111
 20
22.52786404500051
 11
-109.2511410091714
 21
19.76393202249892
 72
    1
 10
-109.2511410091702
 20
19.76393202249979
 11
-106.8999999999999
 21
21.47213595499943
 72
    1
 10
-106.8999999999998
 20
21.47213595499944
 11
-104.5488589908304
 21
19.76393202250065
 72
    1
 10
-104.5488589908297
 20
19.76393202250011
 11
-105.4469149439892
 21
22.52786404500021
 72
    1
 10
-105.4469149439892
 20
22.52786404500021
 11
-103.0957739348193
 21
24.23606797750071
 72
    1
 10
-103.0957739348177
 20
24.23606797750068
 11
-106.0019440468412
 21
24.23606797750028
 72
    1
 10
-106.0019440468412
 20
24.23606797750028
 11
-106.9
 21
26.99999999999922
 72
    1
 10
-90.50000000000003
 20
12.99999999999922
 11
-91.39805595315903
 21
10.23606797750004
 72
    1
 10
-91.39805595315903
 20
10.23606797750004
 11
-94.30422606518144
 21
10.23606797750004
 72
    1
 10
-94.30422606518243
 20
10.23606797750004
 11
-91.95308505601113
 21
8.527864045000513
 72
    1
 10
-91.95308505601113
 20
8.527864045000513
 11
-92.85114100917143
 21
5.763932022498921
 72
    1
 10
-92.85114100917023
 20
5.763932022499787
 11
-90.49999999999993
 21
7.47213595499943
 72
    1
 10
-90.49999999999983
 20
7.472135954999438
 11
-88.14885899083043
 21
5.763932022500647
 72
    1
 10
-88.14885899082974
 20
5.763932022500107
 11
-89.04691494398924
 21
8.527864045000207
 72
    1
 10
-89.04691494398924
 20
8.527864045000207
 11
-86.69577393481933
 21
10.23606797750071
 72
    1
 10
-86.69577393481774
 20
10.23606797750068
 11
-89.60194404684124
 21
10.23606797750028
 72
    1
 10
-89.60194404684124
 20
10.23606797750028
 11
-90.50000000000003
 21
12.99999999999922
 72
    1
 10
-106.9
 20
12.99999999999922
 11
-107.798055953159
 21
10.23606797750004
 72
    1
 10
-107.798055953159
 20
10.23606797750004
 11
-110.7042260651814
 21
10.23606797750004
 72
    1
 10
-110.7042260651824
 20
10.23606797750004
 11
-108.3530850560111
 21
8.527864045000513
 72
    1
 10
-108.3530850560111
 20
8.527864045000513
 11
-109.2511410091714
 21
5.763932022498921
 72
    1
 10
-109.2511410091702
 20
5.763932022499787
 11
-106.8999999999999
 21
7.47213595499943
 72
    1
 10
-106.8999999999998
 20
7.472135954999438
 11
-104.5488589908304
 21
5.763932022500647
 72
    1
 10
-104.5488589908297
 20
5.763932022500107
 11
-105.4469149439892
 21
8.527864045000207
 72
    1
 10
-105.4469149439892
 20
8.527864045000207
 11
-103.0957739348193
 21
10.23606797750071
 72
    1
 10
-103.0957739348177
 20
10.23606797750068
 11
-106.0019440468412
 21
10.23606797750028
 72
    1
 10
-106.0019440468412
 20
10.23606797750028
 11
-106.9
 21
12.99999999999922
 72
    1
 10
123.5
 20
-55
 11
-123.5
 21
-55
 72
    1
 10
-123.5
 20
-55
 11
-123.5
 21
-45
 72
    1
 10
-123.5
 20
-45
 11
123.5
 21
-45
 72
    1
 10
123.5
 20
-45
 11
123.5
 21
-55
 72
    1
 10
123.5
 20
-35
 11
-123.5
 21
-35
 72
    1
 10
-123.5
 20
-35
 11
-123.5
 21
-25
 72
    1
 10
-123.5
 20
-25
 11
123.5
 21
-25
 72
    1
 10
123.5
 20
-25
 11
123.5
 21
-35
 72
    1
 10
-24.7
 20
5
 11
123.5
 21
5
 72
    1
 10
123.5
 20
5
 11
123.5
 21
15
 72
    1
 10
123.5
 20
15
 11
-24.7
 21
15
 72
    1
 10
-24.7
 20
15
 11
-24.7
 21
5
 72
    1
 10
-24.7
 20
25
 11
123.5
 21
25
 72
    1
 10
123.5
 20
25
 11
123.5
 21
35
 72
    1
 10
123.5
 20
35
 11
-24.7
 21
35
 72
    1
 10
-24.7
 20
35
 11
-24.7
 21
25
 72
    1
 10
-24.7
 20
45
 11
123.5
 21
45
 72
    1
 10
123.5
 20
45
 11
123.5
 21
55
 72
    1
 10
123.5
 20
55
 11
-24.7
 21
55
 72
    1
 10
-24.7
 20
55
 11
-24.7
 21
45
 97
    0
 75
    0
 76
    1
 98
    0
  0
LINE
  5
54
100
AcDbEntity
  8
White
  6
ByLayer
 62
  256
370
   -1
100
AcDbLine
 10
-115.1
 20
61.99999999999922
 11
-115.998055953159
 21
59.23606797750004
  0
LINE
  5
55
100
AcDbEntity
  8
White
  6
ByLayer
 62
  256
370
   -1
100
AcDbLine
 10
-115.998055953159
 20
59.23606797750004
 11
-118.9042260651814
 21
59.23606797750004
  0
LINE
  5
56
100
AcDbEntity
  8
White
  6
ByLayer
 62
  256
370
   -1
100
AcDbLine
 10
-117.4511410091714
 20
54.76393202249892
 11
-116.5530850560111
 21
57.52786404500051
  0
LINE
  5
57
100
AcDbEntity
  8
White
  6
ByLayer
 62
  256
370
   -1
100
AcDbLine
 10
-114.2019440468412
 20
59.23606797750028
 11
-111.2957739348177
 21
59.23606797750068
  0
LINE
  5
58
100
AcDbEntity
  8
White
  6
ByLayer
 62
  256
370
   -1
100
AcDbLine
 10
-114.2019440468412
 20
59.23606797750028
 11
-115.1
 21
61.99999999999922
  0
LINE
  5
59
100
AcDbEntity
  8
White
  6
ByLayer
 62
  256
370
   -1
100
AcDbLine
 10
-112.7488589908297
 20
54.76393202250011
 11
-113.6469149439892
 21
57.52786404500021
  0
LINE
  5
5A
100
AcDbEntity
  8
White
  6
ByLayer
 62
  256
370
   -1
100
AcDbLine
 10
-115.0999999999998
 20
56.47213595499944
 11
-112.7488589908304
 21
54.76393202250065
  0
LINE
  5
5B
100
AcDbEntity
  8
White
  6
ByLayer
 62
  256
370
   -1
100
AcDbLine
 10
-118.9042260651824
 20
59.23606797750004
 11
-116.5530850560111
 21
57.52786404500051
  0
LINE
  5
5C
100
AcDbEntity
  8
White
  6
ByLayer
 62
  256
370
   -1
100
AcDbLine
 10
-117.4511410091702
 20
54.76393202249979
 11
-115.0999999999999
 21
56.47213595499943
  0
LINE
  5
5D
100
AcDbEntity
  8
White
  6
ByLayer
 62
  256
370
   -1
100
AcDbLine
 10
-113.6469149439892
 20
57.52786404500021
 11
-111.2957739348193
 21
59.23606797750071
  0
LINE
  5
5E
100
AcDbEntity
  8
White
  6
ByLayer
 62
  256
370
   -1
100
AcDbLine
 10
-106.9
 20
54.99999999999922
 11
-107.798055953159
 21
52.23606797750004
  0
LINE
  5
5F
100
AcDbEntity
  8
White
  6
ByLayer
 62
  256
370
   -1
100
AcDbLine
 10
-107.798055953159
 20
52.23606797750004
 11
-110.7042260651814
 21
52.23606797750004
  0
LINE
  5
60
100
AcDbEntity
  8
White
  6
ByLayer
 62
  256
370
   -1
100
AcDbLine
 10
-109.2511410091714
 20
47.76393202249892
 11
-108.3530850560111
 21
50.52786404500051
  0
LINE
  5
61
100
AcDbEntity
  8
White
  6
ByLayer
 62
  256
370
   -1
100
AcDbLine
 10
-106.0019440468412
 20
52.23606797750028
 11
-103.0957739348177
 21
52.23606797750068
  0
LINE
  5
62
100
AcDbEntity
  8
White
  6
ByLayer
 62
  256
370
   -1
100
AcDbLine
 10
-106.0019440468412
 20
52.23606797750028
 11
-106.9
 21
54.99999999999922
  0
LINE
  5
63
100
AcDbEntity
  8
White
  6
ByLayer
 62
  256
370
   -1
100
AcDbLine
 10
-104.5488589908297
 20
47.76393202250011
 11
-105.4469149439892
 21
50.52786404500021
  0
LINE
  5
64
100
AcDbEntity
  8
White
  6
ByLayer
 62
  256
370
   -1
100
AcDbLine
 10
-106.8999999999998
 20
49.47213595499944
 11
-104.5488589908304
 21
47.76393202250065
  0
LINE
  5
65
100
AcDbEntity
  8
White
  6
ByLayer
 62
  256
370
   -1
100
AcDbLine
 10
-110.7042260651824
 20
52.23606797750004
 11
-108.3530850560111
 21
50.52786404500051
  0
LINE
  5
66
100
AcDbEntity
  8
White
  6
ByLayer
 62
  256
370
   -1
100
AcDbLine
 10
-109.2511410091702
 20
47.76393202249979
 11
-106.8999999999999
 21
49.47213595499943
  0
LINE
  5
67
100
AcDbEntity
  8
White
  6
ByLayer
 62
  256
370
   -1
100
AcDbLine
 10
-105.4469149439892
 20
50.52786404500021
 11
-103.0957739348193
 21
52.23606797750071
  0
LINE
  5
68
100
AcDbEntity
  8
White
  6
ByLayer
 62
  256
370
   -1
100
AcDbLine
 10
-98.70000000000002
 20
47.99999999999922
 11
-99.59805595315902
 21
45.23606797750004
  0
LINE
  5
69
100
AcDbEntity
  8
White
  6
ByLayer
 62
  256
370
   -1
100
AcDbLine
 10
-99.59805595315902
 20
45.23606797750004
 11
-102.5042260651814
 21
45.23606797750004
  0
LINE
  5
6A
100
AcDbEntity
  8
White
  6
ByLayer
 62
  256
370
   -1
100
AcDbLine
 10
-101.0511410091714
 20
40.76393202249892
 11
-100.1530850560111
 21
43.52786404500051
  0
LINE
  5
6B
100
AcDbEntity
  8
White
  6
ByLayer
 62
  256
370
   -1
100
AcDbLine
 10
-97.80194404684123
 20
45.23606797750028
 11
-94.89577393481773
 21
45.23606797750068
  0
LINE
  5
6C
100
AcDbEntity
  8
White
  6
ByLayer
 62
  256
370
   -1
100
AcDbLine
 10
-97.80194404684123
 20
45.23606797750028
 11
-98.70000000000002
 21
47.99999999999922
  0
LINE
  5
6D
100
AcDbEntity
  8
White
  6
ByLayer
 62
  256
370
   -1
100
AcDbLine
 10
-96.34885899082973
 20
40.76393202250011
 11
-97.24691494398922
 21
43.52786404500021
  0
LINE
  5
6E
100
AcDbEntity
  8
White
  6
ByLayer
 62
  256
370
   -1
100
AcDbLine
 10
-98.69999999999982
 20
42.47213595499944
 11
-96.34885899083042
 21
40.76393202250065
  0
LINE
  5
6F
100
AcDbEntity
  8
White
  6
ByLayer
 62
  256
370
   -1
100
AcDbLine
 10
-102.5042260651824
 20
45.23606797750004
 11
-100.1530850560111
 21
43.52786404500051
  0
LINE
  5
70
100
AcDbEntity
  8
White
  6
ByLayer
 62
  256
370
   -1
100
AcDbLine
 10
-101.0511410091702
 20
40.76393202249979
 11
-98.69999999999992
 21
42.47213595499943
  0
LINE
  5
71
100
AcDbEntity
  8
White
  6
ByLayer
 62
  256
370
   -1
100
AcDbLine
 10
-97.24691494398922
 20
43.52786404500021
 11
-94.89577393481932
 21
45.23606797750071
  0
LINE
  5
72
100
AcDbEntity
  8
White
  6
ByLayer
 62
  256
370
   -1
100
AcDbLine
 10
-90.50000000000003
 20
40.99999999999922
 11
-91.39805595315903
 21
38.23606797750004
  0
LINE
  5
73
100
AcDbEntity
  8
White
  6
ByLayer
 62
  256
370
   -1
100
AcDbLine
 10
-91.39805595315903
 20
38.23606797750004
 11
-94.30422606518144
 21
38.23606797750004
  0
LINE
  5
74
100
AcDbEntity
  8
White
  6
ByLayer
 62
  256
370
   -1
100
AcDbLine
 10
-92.85114100917143
 20
33.76393202249892
 11
-91.95308505601113
 21
36.52786404500051
  0
LINE
  5
75
100
AcDbEntity
  8
White
  6
ByLayer
 62
  256
370
   -1
100
AcDbLine
 10
-89.60194404684124
 20
38.23606797750028
 11
-86.69577393481774
 21
38.23606797750068
  0
LINE
  5
76
100
AcDbEntity
  8
White
  6
ByLayer
 62
  256
370
   -1
100
AcDbLine
 10
-89.60194404684124
 20
38.23606797750028
 11
-90.50000000000003
 21
40.99999999999922
  0
LINE
  5
77
100
AcDbEntity
  8
White
  6
ByLayer
 62
  256
370
   -1
100
AcDbLine
 10
-88.14885899082974
 20
33.76393202250011
 11
-89.04691494398924
 21
36.52786404500021
  0
LINE
  5
78
100
AcDbEntity
  8
White
  6
ByLayer
 62
  256
370
   -1
100
AcDbLine
 10
-90.49999999999983
 20
35.47213595499944
 11
-88.14885899083043
 21
33.76393202250065
  0
LINE
  5
79
100
AcDbEntity
  8
White
  6
ByLayer
 62
  256
370
   -1
100
AcDbLine
 10
-94.30422606518243
 20
38.23606797750004
 11
-91.95308505601113
 21
36.52786404500051
  0
LINE
  5
7A
100
AcDbEntity
  8
White
  6
ByLayer
 62
  256
370
   -1
100
AcDbLine
 10
-92.85114100917023
 20
33.76393202249979
 11
-90.49999999999993
 21
35.47213595499943
  0
LINE
  5
7B
100
AcDbEntity
  8
White
  6
ByLayer
 62
  256
370
   -1
100
AcDbLine
 10
-89.04691494398924
 20
36.52786404500021
 11
-86.69577393481933
 21
38.23606797750071
  0
LINE
  5
7C
100
AcDbEntity
  8
White
  6
ByLayer
 62
  256
370
   -1
100
AcDbLine
 10
-82.30000000000004
 20
33.99999999999922
 11
-83.19805595315904
 21
31.23606797750004
  0
LINE
  5
7D
100
AcDbEntity
  8
White
  6
ByLayer
 62
  256
370
   -1
100
AcDbLine
 10
-83.19805595315904
 20
31.23606797750004
 11
-86.10422606518145
 21
31.23606797750004
  0
LINE
  5
7E
100
AcDbEntity
  8
White
  6
ByLayer
 62
  256
370
   -1
100
AcDbLine
 10
-84.65114100917144
 20
26.76393202249892
 11
-83.75308505601114
 21
29.52786404500051
  0
LINE
  5
7F
100
AcDbEntity
  8
White
  6
ByLayer
 62
  256
370
   -1
100
AcDbLine
 10
-81.40194404684125
 20
31.23606797750028
 11
-78.49577393481775
 21
31.23606797750068
  0
LINE
  5
80
100
AcDbEntity
  8
White
  6
ByLayer
 62
  256
370
   -1
100
AcDbLine
 10
-81.40194404684125
 20
31.23606797750028
 11
-82.30000000000004
 21
33.99999999999922
  0
LINE
  5
81
100
AcDbEntity
  8
White
  6
ByLayer
 62
  256
370
   -1
100
AcDbLine
 10
-79.94885899082975
 20
26.76393202250011
 11
-80.84691494398925
 21
29.52786404500021
  0
LINE
  5
82
100
AcDbEntity
  8
White
  6
ByLayer
 62
  256
370
   -1
100
AcDbLine
 10
-82.29999999999984
 20
28.47213595499944
 11
-79.94885899083044
 21
26.76393202250065
  0
LINE
  5
83
100
AcDbEntity
  8
White
  6
ByLayer
 62
  256
370
   -1
100
AcDbLine
 10
-86.10422606518244
 20
31.23606797750004
 11
-83.75308505601114
 21
29.52786404500051
  0
LINE
  5
84
100
AcDbEntity
  8
White
  6
ByLayer
 62
  256
370
   -1
100
AcDbLine
 10
-84.65114100917025
 20
26.76393202249979
 11
-82.29999999999994
 21
28.47213595499943
  0
LINE
  5
85
100
AcDbEntity
  8
White
  6
ByLayer
 62
  256
370
   -1
100
AcDbLine
 10
-80.84691494398925
 20
29.52786404500021
 11
-78.49577393481934
 21
31.23606797750071
  0
LINE
  5
86
100
AcDbEntity
  8
White
  6
ByLayer
 62
  256
370
   -1
100
AcDbLine
 10
-74.10000000000005
 20
26.99999999999922
 11
-74.99805595315905
 21
24.23606797750004
  0
LINE
  5
87
100
AcDbEntity
  8
White
  6
ByLayer
 62
  256
370
   -1
100
AcDbLine
 10
-74.99805595315905
 20
24.23606797750004
 11
-77.90422606518146
 21
24.23606797750004
  0
LINE
  5
88
100
AcDbEntity
  8
White
  6
ByLayer
 62
  256
370
   -1
100
AcDbLine
 10
-76.45114100917145
 20
19.76393202249892
 11
-75.55308505601116
 21
22.52786404500051
  0
LINE
  5
89
100
AcDbEntity
  8
White
  6
ByLayer
 62
  256
370
   -1
100
AcDbLine
 10
-73.20194404684126
 20
24.23606797750028
 11
-70.29577393481776
 21
24.23606797750068
  0
LINE
  5
8A
100
AcDbEntity
  8
White
  6
ByLayer
 62
  256
370
   -1
100
AcDbLine
 10
-73.20194404684126
 20
24.23606797750028
 11
-74.10000000000005
 21
26.99999999999922
  0
LINE
  5
8B
100
AcDbEntity
  8
White
  6
ByLayer
 62
  256
370
   -1
100
AcDbLine
 10
-71.74885899082976
 20
19.76393202250011
 11
-72.64691494398926
 21
22.52786404500021
  0
LINE
  5
8C
100
AcDbEntity
  8
White
  6
ByLayer
 62
  256
370
   -1
100
AcDbLine
 10
-74.09999999999985
 20
21.47213595499944
 11
-71.74885899083046
 21
19.76393202250065
  0
LINE
  5
8D
100
AcDbEntity
  8
White
  6
ByLayer
 62
  256
370
   -1
100
AcDbLine
 10
-77.90422606518246
 20
24.23606797750004
 11
-75.55308505601116
 21
22.52786404500051
  0
LINE
  5
8E
100
AcDbEntity
  8
White
  6
ByLayer
 62
  256
370
   -1
100
AcDbLine
 10
-76.45114100917026
 20
19.76393202249979
 11
-74.09999999999995
 21
21.47213595499943
  0
LINE
  5
8F
100
AcDbEntity
  8
White
  6
ByLayer
 62
  256
370
   -1
100
AcDbLine
 10
-72.64691494398926
 20
22.52786404500021
 11
-70.29577393481935
 21
24.23606797750071
  0
LINE
  5
90
100
AcDbEntity
  8
White
  6
ByLayer
 62
  256
370
   -1
100
AcDbLine
 10
-65.90000000000006
 20
19.99999999999922
 11
-66.79805595315906
 21
17.23606797750004
  0
LINE
  5
91
100
AcDbEntity
  8
White
  6
ByLayer
 62
  256
370
   -1
100
AcDbLine
 10
-66.79805595315906
 20
17.23606797750004
 11
-69.70422606518147
 21
17.23606797750004
  0
LINE
  5
92
100
AcDbEntity
  8
White
  6
ByLayer
 62
  256
370
   -1
100
AcDbLine
 10
-68.25114100917146
 20
12.76393202249892
 11
-67.35308505601117
 21
15.52786404500051
  0
LINE
  5
93
100
AcDbEntity
  8
White
  6
ByLayer
 62
  256
370
   -1
100
AcDbLine
 10
-65.00194404684127
 20
17.23606797750028
 11
-62.09577393481777
 21
17.23606797750068
  0
LINE
  5
94
100
AcDbEntity
  8
White
  6
ByLayer
 62
  256
370
   -1
100
AcDbLine
 10
-65.00194404684127
 20
17.23606797750028
 11
-65.90000000000006
 21
19.99999999999922
  0
LINE
  5
95
100
AcDbEntity
  8
White
  6
ByLayer
 62
  256
370
   -1
100
AcDbLine
 10
-63.54885899082977
 20
12.76393202250011
 11
-64.44691494398927
 21
15.52786404500021
  0
LINE
  5
96
100
AcDbEntity
  8
White
  6
ByLayer
 62
  256
370
   -1
100
AcDbLine
 10
-65.89999999999986
 20
14.47213595499944
 11
-63.54885899083047
 21
12.76393202250065
  0
LINE
  5
97
100
AcDbEntity
  8
White
  6
ByLayer
 62
  256
370
   -1
100
AcDbLine
 10
-69.70422606518247
 20
17.23606797750004
 11
-67.35308505601117
 21
15.52786404500051
  0
LINE
  5
98
100
AcDbEntity
  8
White
  6
ByLayer
 62
  256
370
   -1
100
AcDbLine
 10
-68.25114100917027
 20
12.76393202249979
 11
-65.89999999999996
 21
14.47213595499943
  0
LINE
  5
99
100
AcDbEntity
  8
White
  6
ByLayer
 62
  256
370
   -1
100
AcDbLine
 10
-64.44691494398927
 20
15.52786404500021
 11
-62.09577393481936
 21
17.23606797750071
  0
LINE
  5
9A
100
AcDbEntity
  8
White
  6
ByLayer
 62
  256
370
   -1
100
AcDbLine
 10
-57.70000000000007
 20
12.99999999999922
 11
-58.59805595315908
 21
10.23606797750004
  0
LINE
  5
9B
100
AcDbEntity
  8
White
  6
ByLayer
 62
  256
370
   -1
100
AcDbLine
 10
-58.59805595315908
 20
10.23606797750004
 11
-61.50422606518148
 21
10.23606797750004
  0
LINE
  5
9C
100
AcDbEntity
  8
White
  6
ByLayer
 62
  256
370
   -1
100
AcDbLine
 10
-60.05114100917147
 20
5.763932022498921
 11
-59.15308505601118
 21
8.527864045000513
  0
LINE
  5
9D
100
AcDbEntity
  8
White
  6
ByLayer
 62
  256
370
   -1
100
AcDbLine
 10
-56.80194404684129
 20
10.23606797750028
 11
-53.89577393481778
 21
10.23606797750068
  0
LINE
  5
9E
100
AcDbEntity
  8
White
  6
ByLayer
 62
  256
370
   -1
100
AcDbLine
 10
-56.80194404684129
 20
10.23606797750028
 11
-57.70000000000007
 21
12.99999999999922
  0
LINE
  5
9F
100
AcDbEntity
  8
White
  6
ByLayer
 62
  256
370
   -1
100
AcDbLine
 10
-55.34885899082978
 20
5.763932022500107
 11
-56.24691494398928
 21
8.527864045000207
  0
LINE
  5
A0
100
AcDbEntity
  8
White
  6
ByLayer
 62
  256
370
   -1
100
AcDbLine
 10
-57.69999999999987
 20
7.472135954999438
 11
-55.34885899083048
 21
5.763932022500647
  0
LINE
  5
A1
100
AcDbEntity
  8
White
  6
ByLayer
 62
  256
370
   -1
100
AcDbLine
 10
-61.50422606518248
 20
10.23606797750004
 11
-59.15308505601118
 21
8.527864045000513
  0
LINE
  5
A2
100
AcDbEntity
  8
White
  6
ByLayer
 62
  256
370
   -1
100
AcDbLine
 10
-60.05114100917028
 20
5.763932022499787
 11
-57.69999999999997
 21
7.47213595499943
  0
LINE
  5
A3
100
AcDbEntity
  8
White
  6
ByLayer
 62
  256
370
   -1
100
AcDbLine
 10
-56.24691494398928
 20
8.527864045000207
 11
-53.89577393481937
 21
10.23606797750071
  0
LINE
  5
A4
100
AcDbEntity
  8
White
  6
ByLayer
 62
  256
370
   -1
100
AcDbLine
 10
-49.50000000000009
 20
5.999999999999218
 11
-50.39805595315909
 21
3.236067977500042
  0
LINE
  5
A5
100
AcDbEntity
  8
White
  6
ByLayer
 62
  256
370
   -1
100
AcDbLine
 10
-50.39805595315909
 20
3.236067977500042
 11
-53.3042260651815
 21
3.236067977500042
  0
LINE
  5
A6
100
AcDbEntity
  8
White
  6
ByLayer
 62
  256
370
   -1
100
AcDbLine
 10
-51.85114100917149
 20
-1.236067977501079
 11
-50.95308505601119
 21
1.527864045000513
  0
LINE
  5
A7
100
AcDbEntity
  8
White
  6
ByLayer
 62
  256
370
   -1
100
AcDbLine
 10
-48.6019440468413
 20
3.236067977500277
 11
-45.69577393481779
 21
3.236067977500682
  0
LINE
  5
A8
100
AcDbEntity
  8
White
  6
ByLayer
 62
  256
370
   -1
100
AcDbLine
 10
-48.6019440468413
 20
3.236067977500277
 11
-49.50000000000009
 21
5.999999999999218
  0
LINE
  5
A9
100
AcDbEntity
  8
White
  6
ByLayer
 62
  256
370
   -1
100
AcDbLine
 10
-47.14885899082979
 20
-1.236067977499893
 11
-48.04691494398929
 21
1.527864045000207
  0
LINE
  5
AA
100
AcDbEntity
  8
White
  6
ByLayer
 62
  256
370
   -1
100
AcDbLine
 10
-49.49999999999989
 20
0.4721359549994375
 11
-47.14885899083049
 21
-1.236067977499353
  0
LINE
  5
AB
100
AcDbEntity
  8
White
  6
ByLayer
 62
  256
370
   -1
100
AcDbLine
 10
-53.30422606518249
 20
3.236067977500042
 11
-50.95308505601119
 21
1.527864045000513
  0
LINE
  5
AC
100
AcDbEntity
  8
White
  6
ByLayer
 62
  256
370
   -1
100
AcDbLine
 10
-51.85114100917029
 20
-1.236067977500213
 11
-49.49999999999999
 21
0.4721359549994304
  0
LINE
  5
AD
100
AcDbEntity
  8
White
  6
ByLayer
 62
  256
370
   -1
100
AcDbLine
 10
-48.04691494398929
 20
1.527864045000207
 11
-45.69577393481939
 21
3.23606797750071
  0
LINE
  5
AE
100
AcDbEntity
  8
White
  6
ByLayer
 62
  256
370
   -1
100
AcDbLine
 10
-98.7
 20
61.99999999999922
 11
-99.598055953159
 21
59.23606797750004
  0
LINE
  5
AF
100
AcDbEntity
  8
White
  6
ByLayer
 62
  256
370
   -1
100
AcDbLine
 10
-99.598055953159
 20
59.23606797750004
 11
-102.5042260651814
 21
59.23606797750004
  0
LINE
  5
B0
100
AcDbEntity
  8
White
  6
ByLayer
 62
  256
370
   -1
100
AcDbLine
 10
-101.0511410091714
 20
54.76393202249892
 11
-100.1530850560111
 21
57.52786404500051
  0
LINE
  5
B1
100
AcDbEntity
  8
White
  6
ByLayer
 62
  256
370
   -1
100
AcDbLine
 10
-97.80194404684121
 20
59.23606797750028
 11
-94.89577393481771
 21
59.23606797750068
  0
LINE
  5
B2
100
AcDbEntity
  8
White
  6
ByLayer
 62
  256
370
   -1
100
AcDbLine
 10
-97.80194404684121
 20
59.23606797750028
 11
-98.7
 21
61.99999999999922
  0
LINE
  5
B3
100
AcDbEntity
  8
White
  6
ByLayer
 62
  256
370
   -1
100
AcDbLine
 10
-96.34885899082971
 20
54.76393202250011
 11
-97.24691494398921
 21
57.52786404500021
  0
LINE
  5
B4
100
AcDbEntity
  8
White
  6
ByLayer
 62
  256
370
   -1
100
AcDbLine
 10
-98.6999999999998
 20
56.47213595499944
 11
-96.34885899083041
 21
54.76393202250065
  0
LINE
  5
B5
100
AcDbEntity
  8
White
  6
ByLayer
 62
  256
370
   -1
100
AcDbLine
 10
-102.5042260651824
 20
59.23606797750004
 11
-100.1530850560111
 21
57.52786404500051
  0
LINE
  5
B6
100
AcDbEntity
  8
White
  6
ByLayer
 62
  256
370
   -1
100
AcDbLine
 10
-101.0511410091702
 20
54.76393202249979
 11
-98.6999999999999
 21
56.47213595499943
  0
LINE
  5
B7
100
AcDbEntity
  8
White
  6
ByLayer
 62
  256
370
   -1
100
AcDbLine
 10
-97.24691494398921
 20
57.52786404500021
 11
-94.8957739348193
 21
59.23606797750071
  0
LINE
  5
B8
100
AcDbEntity
  8
White
  6
ByLayer
 62
  256
370
   -1
100
AcDbLine
 10
-90.50000000000001
 20
54.99999999999922
 11
-91.39805595315902
 21
52.23606797750004
  0
LINE
  5
B9
100
AcDbEntity
  8
White
  6
ByLayer
 62
  256
370
   -1
100
AcDbLine
 10
-91.39805595315902
 20
52.23606797750004
 11
-94.30422606518142
 21
52.23606797750004
  0
LINE
  5
BA
100
AcDbEntity
  8
White
  6
ByLayer
 62
  256
370
   -1
100
AcDbLine
 10
-92.85114100917141
 20
47.76393202249892
 11
-91.95308505601112
 21
50.52786404500051
  0
LINE
  5
BB
100
AcDbEntity
  8
White
  6
ByLayer
 62
  256
370
   -1
100
AcDbLine
 10
-89.60194404684123
 20
52.23606797750028
 11
-86.69577393481772
 21
52.23606797750068
  0
LINE
  5
BC
100
AcDbEntity
  8
White
  6
ByLayer
 62
  256
370
   -1
100
AcDbLine
 10
-89.60194404684123
 20
52.23606797750028
 11
-90.50000000000001
 21
54.99999999999922
  0
LINE
  5
BD
100
AcDbEntity
  8
White
  6
ByLayer
 62
  256
370
   -1
100
AcDbLine
 10
-88.14885899082972
 20
47.76393202250011
 11
-89.04691494398922
 21
50.52786404500021
  0
LINE
  5
BE
100
AcDbEntity
  8
White
  6
ByLayer
 62
  256
370
   -1
100
AcDbLine
 10
-90.49999999999982
 20
49.47213595499944
 11
-88.14885899083042
 21
47.76393202250065
  0
LINE
  5
BF
100
AcDbEntity
  8
White
  6
ByLayer
 62
  256
370
   -1
100
AcDbLine
 10
-94.30422606518242
 20
52.23606797750004
 11
-91.95308505601112
 21
50.52786404500051
  0
LINE
  5
C0
100
AcDbEntity
  8
White
  6
ByLayer
 62
  256
370
   -1
100
AcDbLine
 10
-92.85114100917022
 20
47.76393202249979
 11
-90.49999999999991
 21
49.47213595499943
  0
LINE
  5
C1
100
AcDbEntity
  8
White
  6
ByLayer
 62
  256
370
   -1
100
AcDbLine
 10
-89.04691494398922
 20
50.52786404500021
 11
-86.69577393481931
 21
52.23606797750071
  0
LINE
  5
C2
100
AcDbEntity
  8
White
  6
ByLayer
 62
  256
370
   -1
100
AcDbLine
 10
-82.30000000000003
 20
47.99999999999922
 11
-83.19805595315903
 21
45.23606797750004
  0
LINE
  5
C3
100
AcDbEntity
  8
White
  6
ByLayer
 62
  256
370
   -1
100
AcDbLine
 10
-83.19805595315903
 20
45.23606797750004
 11
-86.10422606518144
 21
45.23606797750004
  0
LINE
  5
C4
100
AcDbEntity
  8
White
  6
ByLayer
 62
  256
370
   -1
100
AcDbLine
 10
-84.65114100917143
 20
40.76393202249892
 11
-83.75308505601113
 21
43.52786404500051
  0
LINE
  5
C5
100
AcDbEntity
  8
White
  6
ByLayer
 62
  256
370
   -1
100
AcDbLine
 10
-81.40194404684124
 20
45.23606797750028
 11
-78.49577393481773
 21
45.23606797750068
  0
LINE
  5
C6
100
AcDbEntity
  8
White
  6
ByLayer
 62
  256
370
   -1
100
AcDbLine
 10
-81.40194404684124
 20
45.23606797750028
 11
-82.30000000000003
 21
47.99999999999922
  0
LINE
  5
C7
100
AcDbEntity
  8
White
  6
ByLayer
 62
  256
370
   -1
100
AcDbLine
 10
-79.94885899082973
 20
40.76393202250011
 11
-80.84691494398923
 21
43.52786404500021
  0
LINE
  5
C8
100
AcDbEntity
  8
White
  6
ByLayer
 62
  256
370
   -1
100
AcDbLine
 10
-82.29999999999983
 20
42.47213595499944
 11
-79.94885899083043
 21
40.76393202250065
  0
LINE
  5
C9
100
AcDbEntity
  8
White
  6
ByLayer
 62
  256
370
   -1
100
AcDbLine
 10
-86.10422606518243
 20
45.23606797750004
 11
-83.75308505601113
 21
43.52786404500051
  0
LINE
  5
CA
100
AcDbEntity
  8
White
  6
ByLayer
 62
  256
370
   -1
100
AcDbLine
 10
-84.65114100917023
 20
40.76393202249979
 11
-82.29999999999993
 21
42.47213595499943
  0
LINE
  5
CB
100
AcDbEntity
  8
White
  6
ByLayer
 62
  256
370
   -1
100
AcDbLine
 10
-80.84691494398923
 20
43.52786404500021
 11
-78.49577393481933
 21
45.23606797750071
  0
LINE
  5
CC
100
AcDbEntity
  8
White
  6
ByLayer
 62
  256
370
   -1
100
AcDbLine
 10
-74.10000000000004
 20
40.99999999999922
 11
-74.99805595315904
 21
38.23606797750004
  0
LINE
  5
CD
100
AcDbEntity
  8
White
  6
ByLayer
 62
  256
370
   -1
100
AcDbLine
 10
-74.99805595315904
 20
38.23606797750004
 11
-77.90422606518145
 21
38.23606797750004
  0
LINE
  5
CE
100
AcDbEntity
  8
White
  6
ByLayer
 62
  256
370
   -1
100
AcDbLine
 10
-76.45114100917144
 20
33.76393202249892
 11
-75.55308505601114
 21
36.52786404500051
  0
LINE
  5
CF
100
AcDbEntity
  8
White
  6
ByLayer
 62
  256
370
   -1
100
AcDbLine
 10
-73.20194404684125
 20
38.23606797750028
 11
-70.29577393481775
 21
38.23606797750068
  0
LINE
  5
D0
100
AcDbEntity
  8
White
  6
ByLayer
 62
  256
370
   -1
100
AcDbLine
 10
-73.20194404684125
 20
38.23606797750028
 11
-74.10000000000004
 21
40.99999999999922
  0
LINE
  5
D1
100
AcDbEntity
  8
White
  6
ByLayer
 62
  256
370
   -1
100
AcDbLine
 10
-71.74885899082975
 20
33.76393202250011
 11
-72.64691494398924
 21
36.52786404500021
  0
LINE
  5
D2
100
AcDbEntity
  8
White
  6
ByLayer
 62
  256
370
   -1
100
AcDbLine
 10
-74.09999999999984
 20
35.47213595499944
 11
-71.74885899083044
 21
33.76393202250065
  0
LINE
  5
D3
100
AcDbEntity
  8
White
  6
ByLayer
 62
  256
370
   -1
100
AcDbLine
 10
-77.90422606518244
 20
38.23606797750004
 11
-75.55308505601114
 21
36.52786404500051
  0
LINE
  5
D4
100
AcDbEntity
  8
White
  6
ByLayer
 62
  256
370
   -1
100
AcDbLine
 10
-76.45114100917024
 20
33.76393202249979
 11
-74.09999999999994
 21
35.47213595499943
  0
LINE
  5
D5
100
AcDbEntity
  8
White
  6
ByLayer
 62
  256
370
   -1
100
AcDbLine
 10
-72.64691494398924
 20
36.52786404500021
 11
-70.29577393481934
 21
38.23606797750071
  0
LINE
  5
D6
100
AcDbEntity
  8
White
  6
ByLayer
 62
  256
370
   -1
100
AcDbLine
 10
-65.90000000000005
 20
33.99999999999922
 11
-66.79805595315905
 21
31.23606797750004
  0
LINE
  5
D7
100
AcDbEntity
  8
White
  6
ByLayer
 62
  256
370
   -1
100
AcDbLine
 10
-66.79805595315905
 20
31.23606797750004
 11
-69.70422606518146
 21
31.23606797750004
  0
LINE
  5
D8
100
AcDbEntity
  8
White
  6
ByLayer
 62
  256
370
   -1
100
AcDbLine
 10
-68.25114100917145
 20
26.76393202249892
 11
-67.35308505601115
 21
29.52786404500051
  0
LINE
  5
D9
100
AcDbEntity
  8
White
  6
ByLayer
 62
  256
370
   -1
100
AcDbLine
 10
-65.00194404684126
 20
31.23606797750028
 11
-62.09577393481776
 21
31.23606797750068
  0
LINE
  5
DA
100
AcDbEntity
  8
White
  6
ByLayer
 62
  256
370
   -1
100
AcDbLine
 10
-65.00194404684126
 20
31.23606797750028
 11
-65.90000000000005
 21
33.99999999999922
  0
LINE
  5
DB
100
AcDbEntity
  8
White
  6
ByLayer
 62
  256
370
   -1
100
AcDbLine
 10
-63.54885899082976
 20
26.76393202250011
 11
-64.44691494398926
 21
29.52786404500021
  0
LINE
  5
DC
100
AcDbEntity
  8
White
  6
ByLayer
 62
  256
370
   -1
100
AcDbLine
 10
-65.89999999999985
 20
28.47213595499944
 11
-63.54885899083045
 21
26.76393202250065
  0
LINE
  5
DD
100
AcDbEntity
  8
White
  6
ByLayer
 62
  256
370
   -1
100
AcDbLine
 10
-69.70422606518245
 20
31.23606797750004
 11
-67.35308505601115
 21
29.52786404500051
  0
LINE
  5
DE
100
AcDbEntity
  8
White
  6
ByLayer
 62
  256
370
   -1
100
AcDbLine
 10
-68.25114100917025
 20
26.76393202249979
 11
-65.89999999999995
 21
28.47213595499943
  0
LINE
  5
DF
100
AcDbEntity
  8
White
  6
ByLayer
 62
  256
370
   -1
100
AcDbLine
 10
-64.44691494398926
 20
29.52786404500021
 11
-62.09577393481935
 21
31.23606797750071
  0
LINE
  5
E0
100
AcDbEntity
  8
White
  6
ByLayer
 62
  256
370
   -1
100
AcDbLine
 10
-57.70000000000006
 20
26.99999999999922
 11
-58.59805595315906
 21
24.23606797750004
  0
LINE
  5
E1
100
AcDbEntity
  8
White
  6
ByLayer
 62
  256
370
   -1
100
AcDbLine
 10
-58.59805595315906
 20
24.23606797750004
 11
-61.50422606518147
 21
24.23606797750004
  0
LINE
  5
E2
100
AcDbEntity
  8
White
  6
ByLayer
 62
  256
370
   -1
100
AcDbLine
 10
-60.05114100917146
 20
19.76393202249892
 11
-59.15308505601116
 21
22.52786404500051
  0
LINE
  5
E3
100
AcDbEntity
  8
White
  6
ByLayer
 62
  256
370
   -1
100
AcDbLine
 10
-56.80194404684127
 20
24.23606797750028
 11
-53.89577393481777
 21
24.23606797750068
  0
LINE
  5
E4
100
AcDbEntity
  8
White
  6
ByLayer
 62
  256
370
   -1
100
AcDbLine
 10
-56.80194404684127
 20
24.23606797750028
 11
-57.70000000000006
 21
26.99999999999922
  0
LINE
  5
E5
100
AcDbEntity
  8
White
  6
ByLayer
 62
  256
370
   -1
100
AcDbLine
 10
-55.34885899082977
 20
19.76393202250011
 11
-56.24691494398927
 21
22.52786404500021
  0
LINE
  5
E6
100
AcDbEntity
  8
White
  6
ByLayer
 62
  256
370
   -1
100
AcDbLine
 10
-57.69999999999986
 20
21.47213595499944
 11
-55.34885899083046
 21
19.76393202250065
  0
LINE
  5
E7
100
AcDbEntity
  8
White
  6
ByLayer
 62
  256
370
   -1
100
AcDbLine
 10
-61.50422606518246
 20
24.23606797750004
 11
-59.15308505601116
 21
22.52786404500051
  0
LINE
  5
E8
100
AcDbEntity
  8
White
  6
ByLayer
 62
  256
370
   -1
100
AcDbLine
 10
-60.05114100917027
 20
19.76393202249979
 11
-57.69999999999996
 21
21.47213595499943
  0
LINE
  5
E9
100
AcDbEntity
  8
White
  6
ByLayer
 62
  256
370
   -1
100
AcDbLine
 10
-56.24691494398927
 20
22.52786404500021
 11
-53.89577393481936
 21
24.23606797750071
  0
LINE
  5
EA
100
AcDbEntity
  8
White
  6
ByLayer
 62
  256
370
   -1
100
AcDbLine
 10
-49.50000000000007
 20
19.99999999999922
 11
-50.39805595315907
 21
17.23606797750004
  0
LINE
  5
EB
100
AcDbEntity
  8
White
  6
ByLayer
 62
  256
370
   -1
100
AcDbLine
 10
-50.39805595315907
 20
17.23606797750004
 11
-53.30422606518148
 21
17.23606797750004
  0
LINE
  5
EC
100
AcDbEntity
  8
White
  6
ByLayer
 62
  256
370
   -1
100
AcDbLine
 10
-51.85114100917147
 20
12.76393202249892
 11
-50.95308505601118
 21
15.52786404500051
  0
LINE
  5
ED
100
AcDbEntity
  8
White
  6
ByLayer
 62
  256
370
   -1
100
AcDbLine
 10
-48.60194404684128
 20
17.23606797750028
 11
-45.69577393481778
 21
17.23606797750068
  0
LINE
  5
EE
100
AcDbEntity
  8
White
  6
ByLayer
 62
  256
370
   -1
100
AcDbLine
 10
-48.60194404684128
 20
17.23606797750028
 11
-49.50000000000007
 21
19.99999999999922
  0
LINE
  5
EF
100
AcDbEntity
  8
White
  6
ByLayer
 62
  256
370
   -1
100
AcDbLine
 10
-47.14885899082978
 20
12.76393202250011
 11
-48.04691494398928
 21
15.52786404500021
  0
LINE
  5
F0
100
AcDbEntity
  8
White
  6
ByLayer
 62
  256
370
   -1
100
AcDbLine
 10
-49.49999999999987
 20
14.47213595499944
 11
-47.14885899083048
 21
12.76393202250065
  0
LINE
  5
F1
100
AcDbEntity
  8
White
  6
ByLayer
 62
  256
370
   -1
100
AcDbLine
 10
-53.30422606518248
 20
17.23606797750004
 11
-50.95308505601118
 21
15.52786404500051
  0
LINE
  5
F2
100
AcDbEntity
  8
White
  6
ByLayer
 62
  256
370
   -1
100
AcDbLine
 10
-51.85114100917028
 20
12.76393202249979
 11
-49.49999999999997
 21
14.47213595499943
  0
LINE
  5
F3
100
AcDbEntity
  8
White
  6
ByLayer
 62
  256
370
   -1
100
AcDbLine
 10
-48.04691494398928
 20
15.52786404500021
 11
-45.69577393481937
 21
17.23606797750071
  0
LINE
  5
F4
100
AcDbEntity
  8
White
  6
ByLayer
 62
  256
370
   -1
100
AcDbLine
 10
-41.30000000000008
 20
12.99999999999922
 11
-42.19805595315908
 21
10.23606797750004
  0
LINE
  5
F5
100
AcDbEntity
  8
White
  6
ByLayer
 62
  256
370
   -1
100
AcDbLine
 10
-42.19805595315908
 20
10.23606797750004
 11
-45.10422606518149
 21
10.23606797750004
  0
LINE
  5
F6
100
AcDbEntity
  8
White
  6
ByLayer
 62
  256
370
   -1
100
AcDbLine
 10
-43.65114100917148
 20
5.763932022498921
 11
-42.75308505601119
 21
8.527864045000513
  0
LINE
  5
F7
100
AcDbEntity
  8
White
  6
ByLayer
 62
  256
370
   -1
100
AcDbLine
 10
-40.40194404684129
 20
10.23606797750028
 11
-37.49577393481779
 21
10.23606797750068
  0
LINE
  5
F8
100
AcDbEntity
  8
White
  6
ByLayer
 62
  256
370
   -1
100
AcDbLine
 10
-40.40194404684129
 20
10.23606797750028
 11
-41.30000000000008
 21
12.99999999999922
  0
LINE
  5
F9
100
AcDbEntity
  8
White
  6
ByLayer
 62
  256
370
   -1
100
AcDbLine
 10
-38.94885899082979
 20
5.763932022500107
 11
-39.84691494398929
 21
8.527864045000207
  0
LINE
  5
FA
100
AcDbEntity
  8
White
  6
ByLayer
 62
  256
370
   -1
100
AcDbLine
 10
-41.29999999999988
 20
7.472135954999438
 11
-38.94885899083049
 21
5.763932022500647
  0
LINE
  5
FB
100
AcDbEntity
  8
White
  6
ByLayer
 62
  256
370
   -1
100
AcDbLine
 10
-45.10422606518249
 20
10.23606797750004
 11
-42.75308505601119
 21
8.527864045000513
  0
LINE
  5
FC
100
AcDbEntity
  8
White
  6
ByLayer
 62
  256
370
   -1
100
AcDbLine
 10
-43.65114100917029
 20
5.763932022499787
 11
-41.29999999999998
 21
7.47213595499943
  0
LINE
  5
FD
100
AcDbEntity
  8
White
  6
ByLayer
 62
  256
370
   -1
100
AcDbLine
 10
-39.84691494398929
 20
8.527864045000207
 11
-37.49577393481938
 21
10.23606797750071
  0
LINE
  5
FE
100
AcDbEntity
  8
White
  6
ByLayer
 62
  256
370
   -1
100
AcDbLine
 10
-33.10000000000009
 20
5.999999999999218
 11
-33.9980559531591
 21
3.236067977500042
  0
LINE
  5
FF
100
AcDbEntity
  8
White
  6
ByLayer
 62
  256
370
   -1
100
AcDbLine
 10
-33.9980559531591
 20
3.236067977500042
 11
-36.9042260651815
 21
3.236067977500042
  0
LINE
  5
100
100
AcDbEntity
  8
White
  6
ByLayer
 62
  256
370
   -1
100
AcDbLine
 10
-35.45114100917149
 20
-1.236067977501079
 11
-34.5530850560112
 21
1.527864045000513
  0
LINE
  5
101
100
AcDbEntity
  8
White
  6
ByLayer
 62
  256
370
   -1
100
AcDbLine
 10
-32.20194404684131
 20
3.236067977500277
 11
-29.2957739348178
 21
3.236067977500682
  0
LINE
  5
102
100
AcDbEntity
  8
White
  6
ByLayer
 62
  256
370
   -1
100
AcDbLine
 10
-32.20194404684131
 20
3.236067977500277
 11
-33.10000000000009
 21
5.999999999999218
  0
LINE
  5
103
100
AcDbEntity
  8
White
  6
ByLayer
 62
  256
370
   -1
100
AcDbLine
 10
-30.7488589908298
 20
-1.236067977499893
 11
-31.6469149439893
 21
1.527864045000207
  0
LINE
  5
104
100
AcDbEntity
  8
White
  6
ByLayer
 62
  256
370
   -1
100
AcDbLine
 10
-33.09999999999989
 20
0.4721359549994375
 11
-30.7488589908305
 21
-1.236067977499353
  0
LINE
  5
105
100
AcDbEntity
  8
White
  6
ByLayer
 62
  256
370
   -1
100
AcDbLine
 10
-36.9042260651825
 20
3.236067977500042
 11
-34.5530850560112
 21
1.527864045000513
  0
LINE
  5
106
100
AcDbEntity
  8
White
  6
ByLayer
 62
  256
370
   -1
100
AcDbLine
 10
-35.4511410091703
 20
-1.236067977500213
 11
-33.09999999999999
 21
0.4721359549994304
  0
LINE
  5
107
100
AcDbEntity
  8
White
  6
ByLayer
 62
  256
370
   -1
100
AcDbLine
 10
-31.6469149439893
 20
1.527864045000207
 11
-29.29577393481939
 21
3.23606797750071
  0
LINE
  5
108
100
AcDbEntity
  8
White
  6
ByLayer
 62
  256
370
   -1
100
AcDbLine
 10
-82.30000000000001
 20
61.99999999999922
 11
-83.19805595315901
 21
59.23606797750004
  0
LINE
  5
109
100
AcDbEntity
  8
White
  6
ByLayer
 62
  256
370
   -1
100
AcDbLine
 10
-83.19805595315901
 20
59.23606797750004
 11
-86.10422606518142
 21
59.23606797750004
  0
LINE
  5
10A
100
AcDbEntity
  8
White
  6
ByLayer
 62
  256
370
   -1
100
AcDbLine
 10
-84.65114100917141
 20
54.76393202249892
 11
-83.75308505601112
 21
57.52786404500051
  0
LINE
  5
10B
100
AcDbEntity
  8
White
  6
ByLayer
 62
  256
370
   -1
100
AcDbLine
 10
-81.40194404684122
 20
59.23606797750028
 11
-78.49577393481772
 21
59.23606797750068
  0
LINE
  5
10C
100
AcDbEntity
  8
White
  6
ByLayer
 62
  256
370
   -1
100
AcDbLine
 10
-81.40194404684122
 20
59.23606797750028
 11
-82.30000000000001
 21
61.99999999999922
  0
LINE
  5
10D
100
AcDbEntity
  8
White
  6
ByLayer
 62
  256
370
   -1
100
AcDbLine
 10
-79.94885899082972
 20
54.76393202250011
 11
-80.84691494398922
 21
57.52786404500021
  0
LINE
  5
10E
100
AcDbEntity
  8
White
  6
ByLayer
 62
  256
370
   -1
100
AcDbLine
 10
-82.29999999999981
 20
56.47213595499944
 11
-79.94885899083042
 21
54.76393202250065
  0
LINE
  5
10F
100
AcDbEntity
  8
White
  6
ByLayer
 62
  256
370
   -1
100
AcDbLine
 10
-86.10422606518242
 20
59.23606797750004
 11
-83.75308505601112
 21
57.52786404500051
  0
LINE
  5
110
100
AcDbEntity
  8
White
  6
ByLayer
 62
  256
370
   -1
100
AcDbLine
 10
-84.65114100917022
 20
54.76393202249979
 11
-82.29999999999991
 21
56.47213595499943
  0
LINE
  5
111
100
AcDbEntity
  8
White
  6
ByLayer
 62
  256
370
   -1
100
AcDbLine
 10
-80.84691494398922
 20
57.52786404500021
 11
-78.49577393481931
 21
59.23606797750071
  0
LINE
  5
112
100
AcDbEntity
  8
White
  6
ByLayer
 62
  256
370
   -1
100
AcDbLine
 10
-74.10000000000002
 20
54.99999999999922
 11
-74.99805595315902
 21
52.23606797750004
  0
LINE
  5
113
100
AcDbEntity
  8
White
  6
ByLayer
 62
  256
370
   -1
100
AcDbLine
 10
-74.99805595315902
 20
52.23606797750004
 11
-77.90422606518143
 21
52.23606797750004
  0
LINE
  5
114
100
AcDbEntity
  8
White
  6
ByLayer
 62
  256
370
   -1
100
AcDbLine
 10
-76.45114100917142
 20
47.76393202249892
 11
-75.55308505601113
 21
50.52786404500051
  0
LINE
  5
115
100
AcDbEntity
  8
White
  6
ByLayer
 62
  256
370
   -1
100
AcDbLine
 10
-73.20194404684123
 20
52.23606797750028
 11
-70.29577393481773
 21
52.23606797750068
  0
LINE
  5
116
100
AcDbEntity
  8
White
  6
ByLayer
 62
  256
370
   -1
100
AcDbLine
 10
-73.20194404684123
 20
52.23606797750028
 11
-74.10000000000002
 21
54.99999999999922
  0
LINE
  5
117
100
AcDbEntity
  8
White
  6
ByLayer
 62
  256
370
   -1
100
AcDbLine
 10
-71.74885899082973
 20
47.76393202250011
 11
-72.64691494398923
 21
50.52786404500021
  0
LINE
  5
118
100
AcDbEntity
  8
White
  6
ByLayer
 62
  256
370
   -1
100
AcDbLine
 10
-74.09999999999982
 20
49.47213595499944
 11
-71.74885899083043
 21
47.76393202250065
  0
LINE
  5
119
100
AcDbEntity
  8
White
  6
ByLayer
 62
  256
370
   -1
100
AcDbLine
 10
-77.90422606518243
 20
52.23606797750004
 11
-75.55308505601113
 21
50.52786404500051
  0
LINE
  5
11A
100
AcDbEntity
  8
White
  6
ByLayer
 62
  256
370
   -1
100
AcDbLine
 10
-76.45114100917023
 20
47.76393202249979
 11
-74.09999999999992
 21
49.47213595499943
  0
LINE
  5
11B
100
AcDbEntity
  8
White
  6
ByLayer
 62
  256
370
   -1
100
AcDbLine
 10
-72.64691494398923
 20
50.52786404500021
 11
-70.29577393481932
 21
52.23606797750071
  0
LINE
  5
11C
100
AcDbEntity
  8
White
  6
ByLayer
 62
  256
370
   -1
100
AcDbLine
 10
-65.90000000000003
 20
47.99999999999922
 11
-66.79805595315904
 21
45.23606797750004
  0
LINE
  5
11D
100
AcDbEntity
  8
White
  6
ByLayer
 62
  256
370
   -1
100
AcDbLine
 10
-66.79805595315904
 20
45.23606797750004
 11
-69.70422606518144
 21
45.23606797750004
  0
LINE
  5
11E
100
AcDbEntity
  8
White
  6
ByLayer
 62
  256
370
   -1
100
AcDbLine
 10
-68.25114100917143
 20
40.76393202249892
 11
-67.35308505601114
 21
43.52786404500051
  0
LINE
  5
11F
100
AcDbEntity
  8
White
  6
ByLayer
 62
  256
370
   -1
100
AcDbLine
 10
-65.00194404684125
 20
45.23606797750028
 11
-62.09577393481774
 21
45.23606797750068
  0
LINE
  5
120
100
AcDbEntity
  8
White
  6
ByLayer
 62
  256
370
   -1
100
AcDbLine
 10
-65.00194404684125
 20
45.23606797750028
 11
-65.90000000000003
 21
47.99999999999922
  0
LINE
  5
121
100
AcDbEntity
  8
White
  6
ByLayer
 62
  256
370
   -1
100
AcDbLine
 10
-63.54885899082974
 20
40.76393202250011
 11
-64.44691494398924
 21
43.52786404500021
  0
LINE
  5
122
100
AcDbEntity
  8
White
  6
ByLayer
 62
  256
370
   -1
100
AcDbLine
 10
-65.89999999999984
 20
42.47213595499944
 11
-63.54885899083044
 21
40.76393202250065
  0
LINE
  5
123
100
AcDbEntity
  8
White
  6
ByLayer
 62
  256
370
   -1
100
AcDbLine
 10
-69.70422606518244
 20
45.23606797750004
 11
-67.35308505601114
 21
43.52786404500051
  0
LINE
  5
124
100
AcDbEntity
  8
White
  6
ByLayer
 62
  256
370
   -1
100
AcDbLine
 10
-68.25114100917024
 20
40.76393202249979
 11
-65.89999999999993
 21
42.47213595499943
  0
LINE
  5
125
100
AcDbEntity
  8
White
  6
ByLayer
 62
  256
370
   -1
100
AcDbLine
 10
-64.44691494398924
 20
43.52786404500021
 11
-62.09577393481933
 21
45.23606797750071
  0
LINE
  5
126
100
AcDbEntity
  8
White
  6
ByLayer
 62
  256
370
   -1
100
AcDbLine
 10
-57.70000000000005
 20
40.99999999999922
 11
-58.59805595315905
 21
38.23606797750004
  0
LINE
  5
127
100
AcDbEntity
  8
White
  6
ByLayer
 62
  256
370
   -1
100
AcDbLine
 10
-58.59805595315905
 20
38.23606797750004
 11
-61.50422606518146
 21
38.23606797750004
  0
LINE
  5
128
100
AcDbEntity
  8
White
  6
ByLayer
 62
  256
370
   -1
100
AcDbLine
 10
-60.05114100917145
 20
33.76393202249892
 11
-59.15308505601115
 21
36.52786404500051
  0
LINE
  5
129
100
AcDbEntity
  8
White
  6
ByLayer
 62
  256
370
   -1
100
AcDbLine
 10
-56.80194404684126
 20
38.23606797750028
 11
-53.89577393481775
 21
38.23606797750068
  0
LINE
  5
12A
100
AcDbEntity
  8
White
  6
ByLayer
 62
  256
370
   -1
100
AcDbLine
 10
-56.80194404684126
 20
38.23606797750028
 11
-57.70000000000005
 21
40.99999999999922
  0
LINE
  5
12B
100
AcDbEntity
  8
White
  6
ByLayer
 62
  256
370
   -1
100
AcDbLine
 10
-55.34885899082975
 20
33.76393202250011
 11
-56.24691494398925
 21
36.52786404500021
  0
LINE
  5
12C
100
AcDbEntity
  8
White
  6
ByLayer
 62
  256
370
   -1
100
AcDbLine
 10
-57.69999999999985
 20
35.47213595499944
 11
-55.34885899083045
 21
33.76393202250065
  0
LINE
  5
12D
100
AcDbEntity
  8
White
  6
ByLayer
 62
  256
370
   -1
100
AcDbLine
 10
-61.50422606518245
 20
38.23606797750004
 11
-59.15308505601115
 21
36.52786404500051
  0
LINE
  5
12E
100
AcDbEntity
  8
White
  6
ByLayer
 62
  256
370
   -1
100
AcDbLine
 10
-60.05114100917025
 20
33.76393202249979
 11
-57.69999999999995
 21
35.47213595499943
  0
LINE
  5
12F
100
AcDbEntity
  8
White
  6
ByLayer
 62
  256
370
   -1
100
AcDbLine
 10
-56.24691494398925
 20
36.52786404500021
 11
-53.89577393481935
 21
38.23606797750071
  0
LINE
  5
130
100
AcDbEntity
  8
White
  6
ByLayer
 62
  256
370
   -1
100
AcDbLine
 10
-49.50000000000006
 20
33.99999999999922
 11
-50.39805595315906
 21
31.23606797750004
  0
LINE
  5
131
100
AcDbEntity
  8
White
  6
ByLayer
 62
  256
370
   -1
100
AcDbLine
 10
-50.39805595315906
 20
31.23606797750004
 11
-53.30422606518147
 21
31.23606797750004
  0
LINE
  5
132
100
AcDbEntity
  8
White
  6
ByLayer
 62
  256
370
   -1
100
AcDbLine
 10
-51.85114100917146
 20
26.76393202249892
 11
-50.95308505601116
 21
29.52786404500051
  0
LINE
  5
133
100
AcDbEntity
  8
White
  6
ByLayer
 62
  256
370
   -1
100
AcDbLine
 10
-48.60194404684127
 20
31.23606797750028
 11
-45.69577393481777
 21
31.23606797750068
  0
LINE
  5
134
100
AcDbEntity
  8
White
  6
ByLayer
 62
  256
370
   -1
100
AcDbLine
 10
-48.60194404684127
 20
31.23606797750028
 11
-49.50000000000006
 21
33.99999999999922
  0
LINE
  5
135
100
AcDbEntity
  8
White
  6
ByLayer
 62
  256
370
   -1
100
AcDbLine
 10
-47.14885899082977
 20
26.76393202250011
 11
-48.04691494398926
 21
29.52786404500021
  0
LINE
  5
136
100
AcDbEntity
  8
White
  6
ByLayer
 62
  256
370
   -1
100
AcDbLine
 10
-49.49999999999986
 20
28.47213595499944
 11
-47.14885899083046
 21
26.76393202250065
  0
LINE
  5
137
100
AcDbEntity
  8
White
  6
ByLayer
 62
  256
370
   -1
100
AcDbLine
 10
-53.30422606518246
 20
31.23606797750004
 11
-50.95308505601116
 21
29.52786404500051
  0
LINE
  5
138
100
AcDbEntity
  8
White
  6
ByLayer
 62
  256
370
   -1
100
AcDbLine
 10
-51.85114100917026
 20
26.76393202249979
 11
-49.49999999999996
 21
28.47213595499943
  0
LINE
  5
139
100
AcDbEntity
  8
White
  6
ByLayer
 62
  256
370
   -1
100
AcDbLine
 10
-48.04691494398926
 20
29.52786404500021
 11
-45.69577393481936
 21
31.23606797750071
  0
LINE
  5
13A
100
AcDbEntity
  8
White
  6
ByLayer
 62
  256
370
   -1
100
AcDbLine
 10
-41.30000000000007
 20
26.99999999999922
 11
-42.19805595315907
 21
24.23606797750004
  0
LINE
  5
13B
100
AcDbEntity
  8
White
  6
ByLayer
 62
  256
370
   -1
100
AcDbLine
 10
-42.19805595315907
 20
24.23606797750004
 11
-45.10422606518148
 21
24.23606797750004
  0
LINE
  5
13C
100
AcDbEntity
  8
White
  6
ByLayer
 62
  256
370
   -1
100
AcDbLine
 10
-43.65114100917147
 20
19.76393202249892
 11
-42.75308505601117
 21
22.52786404500051
  0
LINE
  5
13D
100
AcDbEntity
  8
White
  6
ByLayer
 62
  256
370
   -1
100
AcDbLine
 10
-40.40194404684128
 20
24.23606797750028
 11
-37.49577393481778
 21
24.23606797750068
  0
LINE
  5
13E
100
AcDbEntity
  8
White
  6
ByLayer
 62
  256
370
   -1
100
AcDbLine
 10
-40.40194404684128
 20
24.23606797750028
 11
-41.30000000000007
 21
26.99999999999922
  0
LINE
  5
13F
100
AcDbEntity
  8
White
  6
ByLayer
 62
  256
370
   -1
100
AcDbLine
 10
-38.94885899082978
 20
19.76393202250011
 11
-39.84691494398928
 21
22.52786404500021
  0
LINE
  5
140
100
AcDbEntity
  8
White
  6
ByLayer
 62
  256
370
   -1
100
AcDbLine
 10
-41.29999999999987
 20
21.47213595499944
 11
-38.94885899083047
 21
19.76393202250065
  0
LINE
  5
141
100
AcDbEntity
  8
White
  6
ByLayer
 62
  256
370
   -1
100
AcDbLine
 10
-45.10422606518247
 20
24.23606797750004
 11
-42.75308505601117
 21
22.52786404500051
  0
LINE
  5
142
100
AcDbEntity
  8
White
  6
ByLayer
 62
  256
370
   -1
100
AcDbLine
 10
-43.65114100917027
 20
19.76393202249979
 11
-41.29999999999997
 21
21.47213595499943
  0
LINE
  5
143
100
AcDbEntity
  8
White
  6
ByLayer
 62
  256
370
   -1
100
AcDbLine
 10
-39.84691494398928
 20
22.52786404500021
 11
-37.49577393481937
 21
24.23606797750071
  0
LINE
  5
144
100
AcDbEntity
  8
White
  6
ByLayer
 62
  256
370
   -1
100
AcDbLine
 10
-33.10000000000008
 20
19.99999999999922
 11
-33.99805595315908
 21
17.23606797750004
  0
LINE
  5
145
100
AcDbEntity
  8
White
  6
ByLayer
 62
  256
370
   -1
100
AcDbLine
 10
-33.99805595315908
 20
17.23606797750004
 11
-36.90422606518149
 21
17.23606797750004
  0
LINE
  5
146
100
AcDbEntity
  8
White
  6
ByLayer
 62
  256
370
   -1
100
AcDbLine
 10
-35.45114100917148
 20
12.76393202249892
 11
-34.55308505601118
 21
15.52786404500051
  0
LINE
  5
147
100
AcDbEntity
  8
White
  6
ByLayer
 62
  256
370
   -1
100
AcDbLine
 10
-32.20194404684129
 20
17.23606797750028
 11
-29.29577393481779
 21
17.23606797750068
  0
LINE
  5
148
100
AcDbEntity
  8
White
  6
ByLayer
 62
  256
370
   -1
100
AcDbLine
 10
-32.20194404684129
 20
17.23606797750028
 11
-33.10000000000008
 21
19.99999999999922
  0
LINE
  5
149
100
AcDbEntity
  8
White
  6
ByLayer
 62
  256
370
   -1
100
AcDbLine
 10
-30.74885899082979
 20
12.76393202250011
 11
-31.64691494398929
 21
15.52786404500021
  0
LINE
  5
14A
100
AcDbEntity
  8
White
  6
ByLayer
 62
  256
370
   -1
100
AcDbLine
 10
-33.09999999999988
 20
14.47213595499944
 11
-30.74885899083048
 21
12.76393202250065
  0
LINE
  5
14B
100
AcDbEntity
  8
White
  6
ByLayer
 62
  256
370
   -1
100
AcDbLine
 10
-36.90422606518248
 20
17.23606797750004
 11
-34.55308505601118
 21
15.52786404500051
  0
LINE
  5
14C
100
AcDbEntity
  8
White
  6
ByLayer
 62
  256
370
   -1
100
AcDbLine
 10
-35.45114100917029
 20
12.76393202249979
 11
-33.09999999999998
 21
14.47213595499943
  0
LINE
  5
14D
100
AcDbEntity
  8
White
  6
ByLayer
 62
  256
370
   -1
100
AcDbLine
 10
-31.64691494398929
 20
15.52786404500021
 11
-29.29577393481938
 21
17.23606797750071
  0
LINE
  5
14E
100
AcDbEntity
  8
White
  6
ByLayer
 62
  256
370
   -1
100
AcDbLine
 10
-65.90000000000002
 20
61.99999999999922
 11
-66.79805595315902
 21
59.23606797750004
  0
LINE
  5
14F
100
AcDbEntity
  8
White
  6
ByLayer
 62
  256
370
   -1
100
AcDbLine
 10
-66.79805595315902
 20
59.23606797750004
 11
-69.70422606518143
 21
59.23606797750004
  0
LINE
  5
150
100
AcDbEntity
  8
White
  6
ByLayer
 62
  256
370
   -1
100
AcDbLine
 10
-68.25114100917142
 20
54.76393202249892
 11
-67.35308505601112
 21
57.52786404500051
  0
LINE
  5
151
100
AcDbEntity
  8
White
  6
ByLayer
 62
  256
370
   -1
100
AcDbLine
 10
-65.00194404684123
 20
59.23606797750028
 11
-62.09577393481773
 21
59.23606797750068
  0
LINE
  5
152
100
AcDbEntity
  8
White
  6
ByLayer
 62
  256
370
   -1
100
AcDbLine
 10
-65.00194404684123
 20
59.23606797750028
 11
-65.90000000000002
 21
61.99999999999922
  0
LINE
  5
153
100
AcDbEntity
  8
White
  6
ByLayer
 62
  256
370
   -1
100
AcDbLine
 10
-63.54885899082973
 20
54.76393202250011
 11
-64.44691494398923
 21
57.52786404500021
  0
LINE
  5
154
100
AcDbEntity
  8
White
  6
ByLayer
 62
  256
370
   -1
100
AcDbLine
 10
-65.89999999999982
 20
56.47213595499944
 11
-63.54885899083042
 21
54.76393202250065
  0
LINE
  5
155
100
AcDbEntity
  8
White
  6
ByLayer
 62
  256
370
   -1
100
AcDbLine
 10
-69.70422606518243
 20
59.23606797750004
 11
-67.35308505601112
 21
57.52786404500051
  0
LINE
  5
156
100
AcDbEntity
  8
White
  6
ByLayer
 62
  256
370
   -1
100
AcDbLine
 10
-68.25114100917023
 20
54.76393202249979
 11
-65.89999999999992
 21
56.47213595499943
  0
LINE
  5
157
100
AcDbEntity
  8
White
  6
ByLayer
 62
  256
370
   -1
100
AcDbLine
 10
-64.44691494398923
 20
57.52786404500021
 11
-62.09577393481932
 21
59.23606797750071
  0
LINE
  5
158
100
AcDbEntity
  8
White
  6
ByLayer
 62
  256
370
   -1
100
AcDbLine
 10
-57.70000000000003
 20
54.99999999999922
 11
-58.59805595315903
 21
52.23606797750004
  0
LINE
  5
159
100
AcDbEntity
  8
White
  6
ByLayer
 62
  256
370
   -1
100
AcDbLine
 10
-58.59805595315903
 20
52.23606797750004
 11
-61.50422606518144
 21
52.23606797750004
  0
LINE
  5
15A
100
AcDbEntity
  8
White
  6
ByLayer
 62
  256
370
   -1
100
AcDbLine
 10
-60.05114100917143
 20
47.76393202249892
 11
-59.15308505601114
 21
50.52786404500051
  0
LINE
  5
15B
100
AcDbEntity
  8
White
  6
ByLayer
 62
  256
370
   -1
100
AcDbLine
 10
-56.80194404684124
 20
52.23606797750028
 11
-53.89577393481774
 21
52.23606797750068
  0
LINE
  5
15C
100
AcDbEntity
  8
White
  6
ByLayer
 62
  256
370
   -1
100
AcDbLine
 10
-56.80194404684124
 20
52.23606797750028
 11
-57.70000000000003
 21
54.99999999999922
  0
LINE
  5
15D
100
AcDbEntity
  8
White
  6
ByLayer
 62
  256
370
   -1
100
AcDbLine
 10
-55.34885899082974
 20
47.76393202250011
 11
-56.24691494398924
 21
50.52786404500021
  0
LINE
  5
15E
100
AcDbEntity
  8
White
  6
ByLayer
 62
  256
370
   -1
100
AcDbLine
 10
-57.69999999999983
 20
49.47213595499944
 11
-55.34885899083044
 21
47.76393202250065
  0
LINE
  5
15F
100
AcDbEntity
  8
White
  6
ByLayer
 62
  256
370
   -1
100
AcDbLine
 10
-61.50422606518244
 20
52.23606797750004
 11
-59.15308505601114
 21
50.52786404500051
  0
LINE
  5
160
100
AcDbEntity
  8
White
  6
ByLayer
 62
  256
370
   -1
100
AcDbLine
 10
-60.05114100917024
 20
47.76393202249979
 11
-57.69999999999993
 21
49.47213595499943
  0
LINE
  5
161
100
AcDbEntity
  8
White
  6
ByLayer
 62
  256
370
   -1
100
AcDbLine
 10
-56.24691494398924
 20
50.52786404500021
 11
-53.89577393481933
 21
52.23606797750071
  0
LINE
  5
162
100
AcDbEntity
  8
White
  6
ByLayer
 62
  256
370
   -1
100
AcDbLine
 10
-49.50000000000004
 20
47.99999999999922
 11
-50.39805595315904
 21
45.23606797750004
  0
LINE
  5
163
100
AcDbEntity
  8
White
  6
ByLayer
 62
  256
370
   -1
100
AcDbLine
 10
-50.39805595315904
 20
45.23606797750004
 11
-53.30422606518145
 21
45.23606797750004
  0
LINE
  5
164
100
AcDbEntity
  8
White
  6
ByLayer
 62
  256
370
   -1
100
AcDbLine
 10
-51.85114100917144
 20
40.76393202249892
 11
-50.95308505601115
 21
43.52786404500051
  0
LINE
  5
165
100
AcDbEntity
  8
White
  6
ByLayer
 62
  256
370
   -1
100
AcDbLine
 10
-48.60194404684125
 20
45.23606797750028
 11
-45.69577393481775
 21
45.23606797750068
  0
LINE
  5
166
100
AcDbEntity
  8
White
  6
ByLayer
 62
  256
370
   -1
100
AcDbLine
 10
-48.60194404684125
 20
45.23606797750028
 11
-49.50000000000004
 21
47.99999999999922
  0
LINE
  5
167
100
AcDbEntity
  8
White
  6
ByLayer
 62
  256
370
   -1
100
AcDbLine
 10
-47.14885899082975
 20
40.76393202250011
 11
-48.04691494398925
 21
43.52786404500021
  0
LINE
  5
168
100
AcDbEntity
  8
White
  6
ByLayer
 62
  256
370
   -1
100
AcDbLine
 10
-49.49999999999984
 20
42.47213595499944
 11
-47.14885899083045
 21
40.76393202250065
  0
LINE
  5
169
100
AcDbEntity
  8
White
  6
ByLayer
 62
  256
370
   -1
100
AcDbLine
 10
-53.30422606518245
 20
45.23606797750004
 11
-50.95308505601115
 21
43.52786404500051
  0
LINE
  5
16A
100
AcDbEntity
  8
White
  6
ByLayer
 62
  256
370
   -1
100
AcDbLine
 10
-51.85114100917025
 20
40.76393202249979
 11
-49.49999999999994
 21
42.47213595499943
  0
LINE
  5
16B
100
AcDbEntity
  8
White
  6
ByLayer
 62
  256
370
   -1
100
AcDbLine
 10
-48.04691494398925
 20
43.52786404500021
 11
-45.69577393481934
 21
45.23606797750071
  0
LINE
  5
16C
100
AcDbEntity
  8
White
  6
ByLayer
 62
  256
370
   -1
100
AcDbLine
 10
-41.30000000000005
 20
40.99999999999922
 11
-42.19805595315906
 21
38.23606797750004
  0
LINE
  5
16D
100
AcDbEntity
  8
White
  6
ByLayer
 62
  256
370
   -1
100
AcDbLine
 10
-42.19805595315906
 20
38.23606797750004
 11
-45.10422606518146
 21
38.23606797750004
  0
LINE
  5
16E
100
AcDbEntity
  8
White
  6
ByLayer
 62
  256
370
   -1
100
AcDbLine
 10
-43.65114100917145
 20
33.76393202249892
 11
-42.75308505601116
 21
36.52786404500051
  0
LINE
  5
16F
100
AcDbEntity
  8
White
  6
ByLayer
 62
  256
370
   -1
100
AcDbLine
 10
-40.40194404684127
 20
38.23606797750028
 11
-37.49577393481776
 21
38.23606797750068
  0
LINE
  5
170
100
AcDbEntity
  8
White
  6
ByLayer
 62
  256
370
   -1
100
AcDbLine
 10
-40.40194404684127
 20
38.23606797750028
 11
-41.30000000000005
 21
40.99999999999922
  0
LINE
  5
171
100
AcDbEntity
  8
White
  6
ByLayer
 62
  256
370
   -1
100
AcDbLine
 10
-38.94885899082976
 20
33.76393202250011
 11
-39.84691494398926
 21
36.52786404500021
  0
LINE
  5
172
100
AcDbEntity
  8
White
  6
ByLayer
 62
  256
370
   -1
100
AcDbLine
 10
-41.29999999999986
 20
35.47213595499944
 11
-38.94885899083046
 21
33.76393202250065
  0
LINE
  5
173
100
AcDbEntity
  8
White
  6
ByLayer
 62
  256
370
   -1
100
AcDbLine
 10
-45.10422606518246
 20
38.23606797750004
 11
-42.75308505601116
 21
36.52786404500051
  0
LINE
  5
174
100
AcDbEntity
  8
White
  6
ByLayer
 62
  256
370
   -1
100
AcDbLine
 10
-43.65114100917026
 20
33.76393202249979
 11
-41.29999999999995
 21
35.47213595499943
  0
LINE
  5
175
100
AcDbEntity
  8
White
  6
ByLayer
 62
  256
370
   -1
100
AcDbLine
 10
-39.84691494398926
 20
36.52786404500021
 11
-37.49577393481935
 21
38.23606797750071
  0
LINE
  5
176
100
AcDbEntity
  8
White
  6
ByLayer
 62
  256
370
   -1
100
AcDbLine
 10
-33.10000000000007
 20
33.99999999999922
 11
-33.99805595315907
 21
31.23606797750004
  0
LINE
  5
177
100
AcDbEntity
  8
White
  6
ByLayer
 62
  256
370
   -1
100
AcDbLine
 10
-33.99805595315907
 20
31.23606797750004
 11
-36.90422606518148
 21
31.23606797750004
  0
LINE
  5
178
100
AcDbEntity
  8
White
  6
ByLayer
 62
  256
370
   -1
100
AcDbLine
 10
-35.45114100917147
 20
26.76393202249892
 11
-34.55308505601117
 21
29.52786404500051
  0
LINE
  5
179
100
AcDbEntity
  8
White
  6
ByLayer
 62
  256
370
   -1
100
AcDbLine
 10
-32.20194404684128
 20
31.23606797750028
 11
-29.29577393481777
 21
31.23606797750068
  0
LINE
  5
17A
100
AcDbEntity
  8
White
  6
ByLayer
 62
  256
370
   -1
100
AcDbLine
 10
-32.20194404684128
 20
31.23606797750028
 11
-33.10000000000007
 21
33.99999999999922
  0
LINE
  5
17B
100
AcDbEntity
  8
White
  6
ByLayer
 62
  256
370
   -1
100
AcDbLine
 10
-30.74885899082977
 20
26.76393202250011
 11
-31.64691494398927
 21
29.52786404500021
  0
LINE
  5
17C
100
AcDbEntity
  8
White
  6
ByLayer
 62
  256
370
   -1
100
AcDbLine
 10
-33.09999999999987
 20
28.47213595499944
 11
-30.74885899083047
 21
26.76393202250065
  0
LINE
  5
17D
100
AcDbEntity
  8
White
  6
ByLayer
 62
  256
370
   -1
100
AcDbLine
 10
-36.90422606518247
 20
31.23606797750004
 11
-34.55308505601117
 21
29.52786404500051
  0
LINE
  5
17E
100
AcDbEntity
  8
White
  6
ByLayer
 62
  256
370
   -1
100
AcDbLine
 10
-35.45114100917027
 20
26.76393202249979
 11
-33.09999999999997
 21
28.47213595499943
  0
LINE
  5
17F
100
AcDbEntity
  8
White
  6
ByLayer
 62
  256
370
   -1
100
AcDbLine
 10
-31.64691494398927
 20
29.52786404500021
 11
-29.29577393481937
 21
31.23606797750071
  0
LINE
  5
180
100
AcDbEntity
  8
White
  6
ByLayer
 62
  256
370
   -1
100
AcDbLine
 10
-49.50000000000003
 20
61.99999999999922
 11
-50.39805595315903
 21
59.23606797750004
  0
LINE
  5
181
100
AcDbEntity
  8
White
  6
ByLayer
 62
  256
370
   -1
100
AcDbLine
 10
-50.39805595315903
 20
59.23606797750004
 11
-53.30422606518144
 21
59.23606797750004
  0
LINE
  5
182
100
AcDbEntity
  8
White
  6
ByLayer
 62
  256
370
   -1
100
AcDbLine
 10
-51.85114100917143
 20
54.76393202249892
 11
-50.95308505601113
 21
57.52786404500051
  0
LINE
  5
183
100
AcDbEntity
  8
White
  6
ByLayer
 62
  256
370
   -1
100
AcDbLine
 10
-48.60194404684124
 20
59.23606797750028
 11
-45.69577393481774
 21
59.23606797750068
  0
LINE
  5
184
100
AcDbEntity
  8
White
  6
ByLayer
 62
  256
370
   -1
100
AcDbLine
 10
-48.60194404684124
 20
59.23606797750028
 11
-49.50000000000003
 21
61.99999999999922
  0
LINE
  5
185
100
AcDbEntity
  8
White
  6
ByLayer
 62
  256
370
   -1
100
AcDbLine
 10
-47.14885899082974
 20
54.76393202250011
 11
-48.04691494398924
 21
57.52786404500021
  0
LINE
  5
186
100
AcDbEntity
  8
White
  6
ByLayer
 62
  256
370
   -1
100
AcDbLine
 10
-49.49999999999983
 20
56.47213595499944
 11
-47.14885899083043
 21
54.76393202250065
  0
LINE
  5
187
100
AcDbEntity
  8
White
  6
ByLayer
 62
  256
370
   -1
100
AcDbLine
 10
-53.30422606518243
 20
59.23606797750004
 11
-50.95308505601113
 21
57.52786404500051
  0
LINE
  5
188
100
AcDbEntity
  8
White
  6
ByLayer
 62
  256
370
   -1
100
AcDbLine
 10
-51.85114100917023
 20
54.76393202249979
 11
-49.49999999999993
 21
56.47213595499943
  0
LINE
  5
189
100
AcDbEntity
  8
White
  6
ByLayer
 62
  256
370
   -1
100
AcDbLine
 10
-48.04691494398924
 20
57.52786404500021
 11
-45.69577393481933
 21
59.23606797750071
  0
LINE
  5
18A
100
AcDbEntity
  8
White
  6
ByLayer
 62
  256
370
   -1
100
AcDbLine
 10
-41.30000000000004
 20
54.99999999999922
 11
-42.19805595315904
 21
52.23606797750004
  0
LINE
  5
18B
100
AcDbEntity
  8
White
  6
ByLayer
 62
  256
370
   -1
100
AcDbLine
 10
-42.19805595315904
 20
52.23606797750004
 11
-45.10422606518145
 21
52.23606797750004
  0
LINE
  5
18C
100
AcDbEntity
  8
White
  6
ByLayer
 62
  256
370
   -1
100
AcDbLine
 10
-43.65114100917144
 20
47.76393202249892
 11
-42.75308505601114
 21
50.52786404500051
  0
LINE
  5
18D
100
AcDbEntity
  8
White
  6
ByLayer
 62
  256
370
   -1
100
AcDbLine
 10
-40.40194404684125
 20
52.23606797750028
 11
-37.49577393481775
 21
52.23606797750068
  0
LINE
  5
18E
100
AcDbEntity
  8
White
  6
ByLayer
 62
  256
370
   -1
100
AcDbLine
 10
-40.40194404684125
 20
52.23606797750028
 11
-41.30000000000004
 21
54.99999999999922
  0
LINE
  5
18F
100
AcDbEntity
  8
White
  6
ByLayer
 62
  256
370
   -1
100
AcDbLine
 10
-38.94885899082975
 20
47.76393202250011
 11
-39.84691494398925
 21
50.52786404500021
  0
LINE
  5
190
100
AcDbEntity
  8
White
  6
ByLayer
 62
  256
370
   -1
100
AcDbLine
 10
-41.29999999999984
 20
49.47213595499944
 11
-38.94885899083044
 21
47.76393202250065
  0
LINE
  5
191
100
AcDbEntity
  8
White
  6
ByLayer
 62
  256
370
   -1
100
AcDbLine
 10
-45.10422606518244
 20
52.23606797750004
 11
-42.75308505601114
 21
50.52786404500051
  0
LINE
  5
192
100
AcDbEntity
  8
White
  6
ByLayer
 62
  256
370
   -1
100
AcDbLine
 10
-43.65114100917025
 20
47.76393202249979
 11
-41.29999999999994
 21
49.47213595499943
  0
LINE
  5
193
100
AcDbEntity
  8
White
  6
ByLayer
 62
  256
370
   -1
100
AcDbLine
 10
-39.84691494398925
 20
50.52786404500021
 11
-37.49577393481934
 21
52.23606797750071
  0
LINE
  5
194
100
AcDbEntity
  8
White
  6
ByLayer
 62
  256
370
   -1
100
AcDbLine
 10
-33.10000000000005
 20
47.99999999999922
 11
-33.99805595315905
 21
45.23606797750004
  0
LINE
  5
195
100
AcDbEntity
  8
White
  6
ByLayer
 62
  256
370
   -1
100
AcDbLine
 10
-33.99805595315905
 20
45.23606797750004
 11
-36.90422606518146
 21
45.23606797750004
  0
LINE
  5
196
100
AcDbEntity
  8
White
  6
ByLayer
 62
  256
370
   -1
100
AcDbLine
 10
-35.45114100917145
 20
40.76393202249892
 11
-34.55308505601116
 21
43.52786404500051
  0
LINE
  5
197
100
AcDbEntity
  8
White
  6
ByLayer
 62
  256
370
   -1
100
AcDbLine
 10
-32.20194404684126
 20
45.23606797750028
 11
-29.29577393481776
 21
45.23606797750068
  0
LINE
  5
198
100
AcDbEntity
  8
White
  6
ByLayer
 62
  256
370
   -1
100
AcDbLine
 10
-32.20194404684126
 20
45.23606797750028
 11
-33.10000000000005
 21
47.99999999999922
  0
LINE
  5
199
100
AcDbEntity
  8
White
  6
ByLayer
 62
  256
370
   -1
100
AcDbLine
 10
-30.74885899082976
 20
40.76393202250011
 11
-31.64691494398926
 21
43.52786404500021
  0
LINE
  5
19A
100
AcDbEntity
  8
White
  6
ByLayer
 62
  256
370
   -1
100
AcDbLine
 10
-33.09999999999985
 20
42.47213595499944
 11
-30.74885899083046
 21
40.76393202250065
  0
LINE
  5
19B
100
AcDbEntity
  8
White
  6
ByLayer
 62
  256
370
   -1
100
AcDbLine
 10
-36.90422606518246
 20
45.23606797750004
 11
-34.55308505601116
 21
43.52786404500051
  0
LINE
  5
19C
100
AcDbEntity
  8
White
  6
ByLayer
 62
  256
370
   -1
100
AcDbLine
 10
-35.45114100917026
 20
40.76393202249979
 11
-33.09999999999995
 21
42.47213595499943
  0
LINE
  5
19D
100
AcDbEntity
  8
White
  6
ByLayer
 62
  256
370
   -1
100
AcDbLine
 10
-31.64691494398926
 20
43.52786404500021
 11
-29.29577393481935
 21
45.23606797750071
  0
LINE
  5
19E
100
AcDbEntity
  8
White
  6
ByLayer
 62
  256
370
   -1
100
AcDbLine
 10
-33.10000000000004
 20
61.99999999999922
 11
-33.99805595315904
 21
59.23606797750004
  0
LINE
  5
19F
100
AcDbEntity
  8
White
  6
ByLayer
 62
  256
370
   -1
100
AcDbLine
 10
-33.99805595315904
 20
59.23606797750004
 11
-36.90422606518145
 21
59.23606797750004
  0
LINE
  5
1A0
100
AcDbEntity
  8
White
  6
ByLayer
 62
  256
370
   -1
100
AcDbLine
 10
-35.45114100917144
 20
54.76393202249892
 11
-34.55308505601114
 21
57.52786404500051
  0
LINE
  5
1A1
100
AcDbEntity
  8
White
  6
ByLayer
 62
  256
370
   -1
100
AcDbLine
 10
-32.20194404684125
 20
59.23606797750028
 11
-29.29577393481775
 21
59.23606797750068
  0
LINE
  5
1A2
100
AcDbEntity
  8
White
  6
ByLayer
 62
  256
370
   -1
100
AcDbLine
 10
-32.20194404684125
 20
59.23606797750028
 11
-33.10000000000004
 21
61.99999999999922
  0
LINE
  5
1A3
100
AcDbEntity
  8
White
  6
ByLayer
 62
  256
370
   -1
100
AcDbLine
 10
-30.74885899082975
 20
54.76393202250011
 11
-31.64691494398924
 21
57.52786404500021
  0
LINE
  5
1A4
100
AcDbEntity
  8
White
  6
ByLayer
 62
  256
370
   -1
100
AcDbLine
 10
-33.09999999999984
 20
56.47213595499944
 11
-30.74885899083044
 21
54.76393202250065
  0
LINE
  5
1A5
100
AcDbEntity
  8
White
  6
ByLayer
 62
  256
370
   -1
100
AcDbLine
 10
-36.90422606518244
 20
59.23606797750004
 11
-34.55308505601114
 21
57.52786404500051
  0
LINE
  5
1A6
100
AcDbEntity
  8
White
  6
ByLayer
 62
  256
370
   -1
100
AcDbLine
 10
-35.45114100917024
 20
54.76393202249979
 11
-33.09999999999994
 21
56.47213595499943
  0
LINE
  5
1A7
100
AcDbEntity
  8
White
  6
ByLayer
 62
  256
370
   -1
100
AcDbLine
 10
-31.64691494398924
 20
57.52786404500021
 11
-29.29577393481934
 21
59.23606797750071
  0
LINE
  5
1A8
100
AcDbEntity
  8
White
  6
ByLayer
 62
  256
370
   -1
100
AcDbLine
 10
-115.1
 20
47.99999999999922
 11
-115.998055953159
 21
45.23606797750004
  0
LINE
  5
1A9
100
AcDbEntity
  8
White
  6
ByLayer
 62
  256
370
   -1
100
AcDbLine
 10
-115.998055953159
 20
45.23606797750004
 11
-118.9042260651814
 21
45.23606797750004
  0
LINE
  5
1AA
100
AcDbEntity
  8
White
  6
ByLayer
 62
  256
370
   -1
100
AcDbLine
 10
-117.4511410091714
 20
40.76393202249892
 11
-116.5530850560111
 21
43.52786404500051
  0
LINE
  5
1AB
100
AcDbEntity
  8
White
  6
ByLayer
 62
  256
370
   -1
100
AcDbLine
 10
-114.2019440468412
 20
45.23606797750028
 11
-111.2957739348177
 21
45.23606797750068
  0
LINE
  5
1AC
100
AcDbEntity
  8
White
  6
ByLayer
 62
  256
370
   -1
100
AcDbLine
 10
-114.2019440468412
 20
45.23606797750028
 11
-115.1
 21
47.99999999999922
  0
LINE
  5
1AD
100
AcDbEntity
  8
White
  6
ByLayer
 62
  256
370
   -1
100
AcDbLine
 10
-112.7488589908297
 20
40.76393202250011
 11
-113.6469149439892
 21
43.52786404500021
  0
LINE
  5
1AE
100
AcDbEntity
  8
White
  6
ByLayer
 62
  256
370
   -1
100
AcDbLine
 10
-115.0999999999998
 20
42.47213595499944
 11
-112.7488589908304
 21
40.76393202250065
  0
LINE
  5
1AF
100
AcDbEntity
  8
White
  6
ByLayer
 62
  256
370
   -1
100
AcDbLine
 10
-118.9042260651824
 20
45.23606797750004
 11
-116.5530850560111
 21
43.52786404500051
  0
LINE
  5
1B0
100
AcDbEntity
  8
White
  6
ByLayer
 62
  256
370
   -1
100
AcDbLine
 10
-117.4511410091702
 20
40.76393202249979
 11
-115.0999999999999
 21
42.47213595499943
  0
LINE
  5
1B1
100
AcDbEntity
  8
White
  6
ByLayer
 62
  256
370
   -1
100
AcDbLine
 10
-113.6469149439892
 20
43.52786404500021
 11
-111.2957739348193
 21
45.23606797750071
  0
LINE
  5
1B2
100
AcDbEntity
  8
White
  6
ByLayer
 62
  256
370
   -1
100
AcDbLine
 10
-115.1
 20
33.99999999999922
 11
-115.998055953159
 21
31.23606797750004
  0
LINE
  5
1B3
100
AcDbEntity
  8
White
  6
ByLayer
 62
  256
370
   -1
100
AcDbLine
 10
-115.998055953159
 20
31.23606797750004
 11
-118.9042260651814
 21
31.23606797750004
  0
LINE
  5
1B4
100
AcDbEntity
  8
White
  6
ByLayer
 62
  256
370
   -1
100
AcDbLine
 10
-117.4511410091714
 20
26.76393202249892
 11
-116.5530850560111
 21
29.52786404500051
  0
LINE
  5
1B5
100
AcDbEntity
  8
White
  6
ByLayer
 62
  256
370
   -1
100
AcDbLine
 10
-114.2019440468412
 20
31.23606797750028
 11
-111.2957739348177
 21
31.23606797750068
  0
LINE
  5
1B6
100
AcDbEntity
  8
White
  6
ByLayer
 62
  256
370
   -1
100
AcDbLine
 10
-114.2019440468412
 20
31.23606797750028
 11
-115.1
 21
33.99999999999922
  0
LINE
  5
1B7
100
AcDbEntity
  8
White
  6
ByLayer
 62
  256
370
   -1
100
AcDbLine
 10
-112.7488589908297
 20
26.76393202250011
 11
-113.6469149439892
 21
29.52786404500021
  0
LINE
  5
1B8
100
AcDbEntity
  8
White
  6
ByLayer
 62
  256
370
   -1
100
AcDbLine
 10
-115.0999999999998
 20
28.47213595499944
 11
-112.7488589908304
 21
26.76393202250065
  0
LINE
  5
1B9
100
AcDbEntity
  8
White
  6
ByLayer
 62
  256
370
   -1
100
AcDbLine
 10
-118.9042260651824
 20
31.23606797750004
 11
-116.5530850560111
 21
29.52786404500051
  0
LINE
  5
1BA
100
AcDbEntity
  8
White
  6
ByLayer
 62
  256
370
   -1
100
AcDbLine
 10
-117.4511410091702
 20
26.76393202249979
 11
-115.0999999999999
 21
28.47213595499943
  0
LINE
  5
1BB
100
AcDbEntity
  8
White
  6
ByLayer
 62
  256
370
   -1
100
AcDbLine
 10
-113.6469149439892
 20
29.52786404500021
 11
-111.2957739348193
 21
31.23606797750071
  0
LINE
  5
1BC
100
AcDbEntity
  8
White
  6
ByLayer
 62
  256
370
   -1
100
AcDbLine
 10
-115.1
 20
19.99999999999922
 11
-115.998055953159
 21
17.23606797750004
  0
LINE
  5
1BD
100
AcDbEntity
  8
White
  6
ByLayer
 62
  256
370
   -1
100
AcDbLine
 10
-115.998055953159
 20
17.23606797750004
 11
-118.9042260651814
 21
17.23606797750004
  0
LINE
  5
1BE
100
AcDbEntity
  8
White
  6
ByLayer
 62
  256
370
   -1
100
AcDbLine
 10
-117.4511410091714
 20
12.76393202249892
 11
-116.5530850560111
 21
15.52786404500051
  0
LINE
  5
1BF
100
AcDbEntity
  8
White
  6
ByLayer
 62
  256
370
   -1
100
AcDbLine
 10
-114.2019440468412
 20
17.23606797750028
 11
-111.2957739348177
 21
17.23606797750068
  0
LINE
  5
1C0
100
AcDbEntity
  8
White
  6
ByLayer
 62
  256
370
   -1
100
AcDbLine
 10
-114.2019440468412
 20
17.23606797750028
 11
-115.1
 21
19.99999999999922
  0
LINE
  5
1C1
100
AcDbEntity
  8
White
  6
ByLayer
 62
  256
370
   -1
100
AcDbLine
 10
-112.7488589908297
 20
12.76393202250011
 11
-113.6469149439892
 21
15.52786404500021
  0
LINE
  5
1C2
100
AcDbEntity
  8
White
  6
ByLayer
 62
  256
370
   -1
100
AcDbLine
 10
-115.0999999999998
 20
14.47213595499944
 11
-112.7488589908304
 21
12.76393202250065
  0
LINE
  5
1C3
100
AcDbEntity
  8
White
  6
ByLayer
 62
  256
370
   -1
100
AcDbLine
 10
-118.9042260651824
 20
17.23606797750004
 11
-116.5530850560111
 21
15.52786404500051
  0
LINE
  5
1C4
100
AcDbEntity
  8
White
  6
ByLayer
 62
  256
370
   -1
100
AcDbLine
 10
-117.4511410091702
 20
12.76393202249979
 11
-115.0999999999999
 21
14.47213595499943
  0
LINE
  5
1C5
100
AcDbEntity
  8
White
  6
ByLayer
 62
  256
370
   -1
100
AcDbLine
 10
-113.6469149439892
 20
15.52786404500021
 11
-111.2957739348193
 21
17.23606797750071
  0
LINE
  5
1C6
100
AcDbEntity
  8
White
  6
ByLayer
 62
  256
370
   -1
100
AcDbLine
 10
-115.1
 20
5.999999999999218
 11
-115.998055953159
 21
3.236067977500042
  0
LINE
  5
1C7
100
AcDbEntity
  8
White
  6
ByLayer
 62
  256
370
   -1
100
AcDbLine
 10
-115.998055953159
 20
3.236067977500042
 11
-118.9042260651814
 21
3.236067977500042
  0
LINE
  5
1C8
100
AcDbEntity
  8
White
  6
ByLayer
 62
  256
370
   -1
100
AcDbLine
 10
-117.4511410091714
 20
-1.236067977501079
 11
-116.5530850560111
 21
1.527864045000513
  0
LINE
  5
1C9
100
AcDbEntity
  8
White
  6
ByLayer
 62
  256
370
   -1
100
AcDbLine
 10
-114.2019440468412
 20
3.236067977500277
 11
-111.2957739348177
 21
3.236067977500682
  0
LINE
  5
1CA
100
AcDbEntity
  8
White
  6
ByLayer
 62
  256
370
   -1
100
AcDbLine
 10
-114.2019440468412
 20
3.236067977500277
 11
-115.1
 21
5.999999999999218
  0
LINE
  5
1CB
100
AcDbEntity
  8
White
  6
ByLayer
 62
  256
370
   -1
100
AcDbLine
 10
-112.7488589908297
 20
-1.236067977499893
 11
-113.6469149439892
 21
1.527864045000207
  0
LINE
  5
1CC
100
AcDbEntity
  8
White
  6
ByLayer
 62
  256
370
   -1
100
AcDbLine
 10
-115.0999999999998
 20
0.4721359549994375
 11
-112.7488589908304
 21
-1.236067977499353
  0
LINE
  5
1CD
100
AcDbEntity
  8
White
  6
ByLayer
 62
  256
370
   -1
100
AcDbLine
 10
-118.9042260651824
 20
3.236067977500042
 11
-116.5530850560111
 21
1.527864045000513
  0
LINE
  5
1CE
100
AcDbEntity
  8
White
  6
ByLayer
 62
  256
370
   -1
100
AcDbLine
 10
-117.4511410091702
 20
-1.236067977500213
 11
-115.0999999999999
 21
0.4721359549994304
  0
LINE
  5
1CF
100
AcDbEntity
  8
White
  6
ByLayer
 62
  256
370
   -1
100
AcDbLine
 10
-113.6469149439892
 20
1.527864045000207
 11
-111.2957739348193
 21
3.23606797750071
  0
LINE
  5
1D0
100
AcDbEntity
  8
White
  6
ByLayer
 62
  256
370
   -1
100
AcDbLine
 10
-98.69999999999999
 20
33.99999999999922
 11
-99.59805595315899
 21
31.23606797750004
  0
LINE
  5
1D1
100
AcDbEntity
  8
White
  6
ByLayer
 62
  256
370
   -1
100
AcDbLine
 10
-99.59805595315899
 20
31.23606797750004
 11
-102.5042260651814
 21
31.23606797750004
  0
LINE
  5
1D2
100
AcDbEntity
  8
White
  6
ByLayer
 62
  256
370
   -1
100
AcDbLine
 10
-101.0511410091714
 20
26.76393202249892
 11
-100.1530850560111
 21
29.52786404500051
  0
LINE
  5
1D3
100
AcDbEntity
  8
White
  6
ByLayer
 62
  256
370
   -1
100
AcDbLine
 10
-97.8019440468412
 20
31.23606797750028
 11
-94.8957739348177
 21
31.23606797750068
  0
LINE
  5
1D4
100
AcDbEntity
  8
White
  6
ByLayer
 62
  256
370
   -1
100
AcDbLine
 10
-97.8019440468412
 20
31.23606797750028
 11
-98.69999999999999
 21
33.99999999999922
  0
LINE
  5
1D5
100
AcDbEntity
  8
White
  6
ByLayer
 62
  256
370
   -1
100
AcDbLine
 10
-96.3488589908297
 20
26.76393202250011
 11
-97.2469149439892
 21
29.52786404500021
  0
LINE
  5
1D6
100
AcDbEntity
  8
White
  6
ByLayer
 62
  256
370
   -1
100
AcDbLine
 10
-98.69999999999979
 20
28.47213595499944
 11
-96.34885899083039
 21
26.76393202250065
  0
LINE
  5
1D7
100
AcDbEntity
  8
White
  6
ByLayer
 62
  256
370
   -1
100
AcDbLine
 10
-102.5042260651824
 20
31.23606797750004
 11
-100.1530850560111
 21
29.52786404500051
  0
LINE
  5
1D8
100
AcDbEntity
  8
White
  6
ByLayer
 62
  256
370
   -1
100
AcDbLine
 10
-101.0511410091702
 20
26.76393202249979
 11
-98.69999999999989
 21
28.47213595499943
  0
LINE
  5
1D9
100
AcDbEntity
  8
White
  6
ByLayer
 62
  256
370
   -1
100
AcDbLine
 10
-97.2469149439892
 20
29.52786404500021
 11
-94.89577393481929
 21
31.23606797750071
  0
LINE
  5
1DA
100
AcDbEntity
  8
White
  6
ByLayer
 62
  256
370
   -1
100
AcDbLine
 10
-98.69999999999999
 20
19.99999999999922
 11
-99.59805595315899
 21
17.23606797750004
  0
LINE
  5
1DB
100
AcDbEntity
  8
White
  6
ByLayer
 62
  256
370
   -1
100
AcDbLine
 10
-99.59805595315899
 20
17.23606797750004
 11
-102.5042260651814
 21
17.23606797750004
  0
LINE
  5
1DC
100
AcDbEntity
  8
White
  6
ByLayer
 62
  256
370
   -1
100
AcDbLine
 10
-101.0511410091714
 20
12.76393202249892
 11
-100.1530850560111
 21
15.52786404500051
  0
LINE
  5
1DD
100
AcDbEntity
  8
White
  6
ByLayer
 62
  256
370
   -1
100
AcDbLine
 10
-97.8019440468412
 20
17.23606797750028
 11
-94.8957739348177
 21
17.23606797750068
  0
LINE
  5
1DE
100
AcDbEntity
  8
White
  6
ByLayer
 62
  256
370
   -1
100
AcDbLine
 10
-97.8019440468412
 20
17.23606797750028
 11
-98.69999999999999
 21
19.99999999999922
  0
LINE
  5
1DF
100
AcDbEntity
  8
White
  6
ByLayer
 62
  256
370
   -1
100
AcDbLine
 10
-96.3488589908297
 20
12.76393202250011
 11
-97.2469149439892
 21
15.52786404500021
  0
LINE
  5
1E0
100
AcDbEntity
  8
White
  6
ByLayer
 62
  256
370
   -1
100
AcDbLine
 10
-98.69999999999979
 20
14.47213595499944
 11
-96.34885899083039
 21
12.76393202250065
  0
LINE
  5
1E1
100
AcDbEntity
  8
White
  6
ByLayer
 62
  256
370
   -1
100
AcDbLine
 10
-102.5042260651824
 20
17.23606797750004
 11
-100.1530850560111
 21
15.52786404500051
  0
LINE
  5
1E2
100
AcDbEntity
  8
White
  6
ByLayer
 62
  256
370
   -1
100
AcDbLine
 10
-101.0511410091702
 20
12.76393202249979
 11
-98.69999999999989
 21
14.47213595499943
  0
LINE
  5
1E3
100
AcDbEntity
  8
White
  6
ByLayer
 62
  256
370
   -1
100
AcDbLine
 10
-97.2469149439892
 20
15.52786404500021
 11
-94.89577393481929
 21
17.23606797750071
  0
LINE
  5
1E4
100
AcDbEntity
  8
White
  6
ByLayer
 62
  256
370
   -1
100
AcDbLine
 10
-98.69999999999999
 20
5.999999999999218
 11
-99.59805595315899
 21
3.236067977500042
  0
LINE
  5
1E5
100
AcDbEntity
  8
White
  6
ByLayer
 62
  256
370
   -1
100
AcDbLine
 10
-99.59805595315899
 20
3.236067977500042
 11
-102.5042260651814
 21
3.236067977500042
  0
LINE
  5
1E6
100
AcDbEntity
  8
White
  6
ByLayer
 62
  256
370
   -1
100
AcDbLine
 10
-101.0511410091714
 20
-1.236067977501079
 11
-100.1530850560111
 21
1.527864045000513
  0
LINE
  5
1E7
100
AcDbEntity
  8
White
  6
ByLayer
 62
  256
370
   -1
100
AcDbLine
 10
-97.8019440468412
 20
3.236067977500277
 11
-94.8957739348177
 21
3.236067977500682
  0
LINE
  5
1E8
100
AcDbEntity
  8
White
  6
ByLayer
 62
  256
370
   -1
100
AcDbLine
 10
-97.8019440468412
 20
3.236067977500277
 11
-98.69999999999999
 21
5.999999999999218
  0
LINE
  5
1E9
100
AcDbEntity
  8
White
  6
ByLayer
 62
  256
370
   -1
100
AcDbLine
 10
-96.3488589908297
 20
-1.236067977499893
 11
-97.2469149439892
 21
1.527864045000207
  0
LINE
  5
1EA
100
AcDbEntity
  8
White
  6
ByLayer
 62
  256
370
   -1
100
AcDbLine
 10
-98.69999999999979
 20
0.4721359549994375
 11
-96.34885899083039
 21
-1.236067977499353
  0
LINE
  5
1EB
100
AcDbEntity
  8
White
  6
ByLayer
 62
  256
370
   -1
100
AcDbLine
 10
-102.5042260651824
 20
3.236067977500042
 11
-100.1530850560111
 21
1.527864045000513
  0
LINE
  5
1EC
100
AcDbEntity
  8
White
  6
ByLayer
 62
  256
370
   -1
100
AcDbLine
 10
-101.0511410091702
 20
-1.236067977500213
 11
-98.69999999999989
 21
0.4721359549994304
  0
LINE
  5
1ED
100
AcDbEntity
  8
White
  6
ByLayer
 62
  256
370
   -1
100
AcDbLine
 10
-97.2469149439892
 20
1.527864045000207
 11
-94.89577393481929
 21
3.23606797750071
  0
LINE
  5
1EE
100
AcDbEntity
  8
White
  6
ByLayer
 62
  256
370
   -1
100
AcDbLine
 10
-82.29999999999998
 20
19.99999999999922
 11
-83.19805595315898
 21
17.23606797750004
  0
LINE
  5
1EF
100
AcDbEntity
  8
White
  6
ByLayer
 62
  256
370
   -1
100
AcDbLine
 10
-83.19805595315898
 20
17.23606797750004
 11
-86.10422606518139
 21
17.23606797750004
  0
LINE
  5
1F0
100
AcDbEntity
  8
White
  6
ByLayer
 62
  256
370
   -1
100
AcDbLine
 10
-84.65114100917138
 20
12.76393202249892
 11
-83.75308505601109
 21
15.52786404500051
  0
LINE
  5
1F1
100
AcDbEntity
  8
White
  6
ByLayer
 62
  256
370
   -1
100
AcDbLine
 10
-81.40194404684119
 20
17.23606797750028
 11
-78.49577393481769
 21
17.23606797750068
  0
LINE
  5
1F2
100
AcDbEntity
  8
White
  6
ByLayer
 62
  256
370
   -1
100
AcDbLine
 10
-81.40194404684119
 20
17.23606797750028
 11
-82.29999999999998
 21
19.99999999999922
  0
LINE
  5
1F3
100
AcDbEntity
  8
White
  6
ByLayer
 62
  256
370
   -1
100
AcDbLine
 10
-79.94885899082969
 20
12.76393202250011
 11
-80.84691494398919
 21
15.52786404500021
  0
LINE
  5
1F4
100
AcDbEntity
  8
White
  6
ByLayer
 62
  256
370
   -1
100
AcDbLine
 10
-82.29999999999978
 20
14.47213595499944
 11
-79.94885899083039
 21
12.76393202250065
  0
LINE
  5
1F5
100
AcDbEntity
  8
White
  6
ByLayer
 62
  256
370
   -1
100
AcDbLine
 10
-86.10422606518239
 20
17.23606797750004
 11
-83.75308505601109
 21
15.52786404500051
  0
LINE
  5
1F6
100
AcDbEntity
  8
White
  6
ByLayer
 62
  256
370
   -1
100
AcDbLine
 10
-84.65114100917019
 20
12.76393202249979
 11
-82.29999999999988
 21
14.47213595499943
  0
LINE
  5
1F7
100
AcDbEntity
  8
White
  6
ByLayer
 62
  256
370
   -1
100
AcDbLine
 10
-80.84691494398919
 20
15.52786404500021
 11
-78.49577393481928
 21
17.23606797750071
  0
LINE
  5
1F8
100
AcDbEntity
  8
White
  6
ByLayer
 62
  256
370
   -1
100
AcDbLine
 10
-82.29999999999998
 20
5.999999999999218
 11
-83.19805595315898
 21
3.236067977500042
  0
LINE
  5
1F9
100
AcDbEntity
  8
White
  6
ByLayer
 62
  256
370
   -1
100
AcDbLine
 10
-83.19805595315898
 20
3.236067977500042
 11
-86.10422606518139
 21
3.236067977500042
  0
LINE
  5
1FA
100
AcDbEntity
  8
White
  6
ByLayer
 62
  256
370
   -1
100
AcDbLine
 10
-84.65114100917138
 20
-1.236067977501079
 11
-83.75308505601109
 21
1.527864045000513
  0
LINE
  5
1FB
100
AcDbEntity
  8
White
  6
ByLayer
 62
  256
370
   -1
100
AcDbLine
 10
-81.40194404684119
 20
3.236067977500277
 11
-78.49577393481769
 21
3.236067977500682
  0
LINE
  5
1FC
100
AcDbEntity
  8
White
  6
ByLayer
 62
  256
370
   -1
100
AcDbLine
 10
-81.40194404684119
 20
3.236067977500277
 11
-82.29999999999998
 21
5.999999999999218
  0
LINE
  5
1FD
100
AcDbEntity
  8
White
  6
ByLayer
 62
  256
370
   -1
100
AcDbLine
 10
-79.94885899082969
 20
-1.236067977499893
 11
-80.84691494398919
 21
1.527864045000207
  0
LINE
  5
1FE
100
AcDbEntity
  8
White
  6
ByLayer
 62
  256
370
   -1
100
AcDbLine
 10
-82.29999999999978
 20
0.4721359549994375
 11
-79.94885899083039
 21
-1.236067977499353
  0
LINE
  5
1FF
100
AcDbEntity
  8
White
  6
ByLayer
 62
  256
370
   -1
100
AcDbLine
 10
-86.10422606518239
 20
3.236067977500042
 11
-83.75308505601109
 21
1.527864045000513
  0
LINE
  5
200
100
AcDbEntity
  8
White
  6
ByLayer
 62
  256
370
   -1
100
AcDbLine
 10
-84.65114100917019
 20
-1.236067977500213
 11
-82.29999999999988
 21
0.4721359549994304
  0
LINE
  5
201
100
AcDbEntity
  8
White
  6
ByLayer
 62
  256
370
   -1
100
AcDbLine
 10
-80.84691494398919
 20
1.527864045000207
 11
-78.49577393481928
 21
3.23606797750071
  0
LINE
  5
202
100
AcDbEntity
  8
White
  6
ByLayer
 62
  256
370
   -1
100
AcDbLine
 10
-65.89999999999998
 20
5.999999999999218
 11
-66.79805595315898
 21
3.236067977500042
  0
LINE
  5
203
100
AcDbEntity
  8
White
  6
ByLayer
 62
  256
370
   -1
100
AcDbLine
 10
-66.79805595315898
 20
3.236067977500042
 11
-69.70422606518139
 21
3.236067977500042
  0
LINE
  5
204
100
AcDbEntity
  8
White
  6
ByLayer
 62
  256
370
   -1
100
AcDbLine
 10
-68.25114100917138
 20
-1.236067977501079
 11
-67.35308505601108
 21
1.527864045000513
  0
LINE
  5
205
100
AcDbEntity
  8
White
  6
ByLayer
 62
  256
370
   -1
100
AcDbLine
 10
-65.00194404684119
 20
3.236067977500277
 11
-62.09577393481769
 21
3.236067977500682
  0
LINE
  5
206
100
AcDbEntity
  8
White
  6
ByLayer
 62
  256
370
   -1
100
AcDbLine
 10
-65.00194404684119
 20
3.236067977500277
 11
-65.89999999999998
 21
5.999999999999218
  0
LINE
  5
207
100
AcDbEntity
  8
White
  6
ByLayer
 62
  256
370
   -1
100
AcDbLine
 10
-63.54885899082969
 20
-1.236067977499893
 11
-64.44691494398919
 21
1.527864045000207
  0
LINE
  5
208
100
AcDbEntity
  8
White
  6
ByLayer
 62
  256
370
   -1
100
AcDbLine
 10
-65.89999999999978
 20
0.4721359549994375
 11
-63.54885899083038
 21
-1.236067977499353
  0
LINE
  5
209
100
AcDbEntity
  8
White
  6
ByLayer
 62
  256
370
   -1
100
AcDbLine
 10
-69.70422606518238
 20
3.236067977500042
 11
-67.35308505601108
 21
1.527864045000513
  0
LINE
  5
20A
100
AcDbEntity
  8
White
  6
ByLayer
 62
  256
370
   -1
100
AcDbLine
 10
-68.25114100917018
 20
-1.236067977500213
 11
-65.89999999999988
 21
0.4721359549994304
  0
LINE
  5
20B
100
AcDbEntity
  8
White
  6
ByLayer
 62
  256
370
   -1
100
AcDbLine
 10
-64.44691494398919
 20
1.527864045000207
 11
-62.09577393481928
 21
3.23606797750071
  0
LINE
  5
20C
100
AcDbEntity
  8
White
  6
ByLayer
 62
  256
370
   -1
100
AcDbLine
 10
-106.9
 20
40.99999999999922
 11
-107.798055953159
 21
38.23606797750004
  0
LINE
  5
20D
100
AcDbEntity
  8
White
  6
ByLayer
 62
  256
370
   -1
100
AcDbLine
 10
-107.798055953159
 20
38.23606797750004
 11
-110.7042260651814
 21
38.23606797750004
  0
LINE
  5
20E
100
AcDbEntity
  8
White
  6
ByLayer
 62
  256
370
   -1
100
AcDbLine
 10
-109.2511410091714
 20
33.76393202249892
 11
-108.3530850560111
 21
36.52786404500051
  0
LINE
  5
20F
100
AcDbEntity
  8
White
  6
ByLayer
 62
  256
370
   -1
100
AcDbLine
 10
-106.0019440468412
 20
38.23606797750028
 11
-103.0957739348177
 21
38.23606797750068
  0
LINE
  5
210
100
AcDbEntity
  8
White
  6
ByLayer
 62
  256
370
   -1
100
AcDbLine
 10
-106.0019440468412
 20
38.23606797750028
 11
-106.9
 21
40.99999999999922
  0
LINE
  5
211
100
AcDbEntity
  8
White
  6
ByLayer
 62
  256
370
   -1
100
AcDbLine
 10
-104.5488589908297
 20
33.76393202250011
 11
-105.4469149439892
 21
36.52786404500021
  0
LINE
  5
212
100
AcDbEntity
  8
White
  6
ByLayer
 62
  256
370
   -1
100
AcDbLine
 10
-106.8999999999998
 20
35.47213595499944
 11
-104.5488589908304
 21
33.76393202250065
  0
LINE
  5
213
100
AcDbEntity
  8
White
  6
ByLayer
 62
  256
370
   -1
100
AcDbLine
 10
-110.7042260651824
 20
38.23606797750004
 11
-108.3530850560111
 21
36.52786404500051
  0
LINE
  5
214
100
AcDbEntity
  8
White
  6
ByLayer
 62
  256
370
   -1
100
AcDbLine
 10
-109.2511410091702
 20
33.76393202249979
 11
-106.8999999999999
 21
35.47213595499943
  0
LINE
  5
215
100
AcDbEntity
  8
White
  6
ByLayer
 62
  256
370
   -1
100
AcDbLine
 10
-105.4469149439892
 20
36.52786404500021
 11
-103.0957739348193
 21
38.23606797750071
  0
LINE
  5
216
100
AcDbEntity
  8
White
  6
ByLayer
 62
  256
370
   -1
100
AcDbLine
 10
-90.50000000000003
 20
26.99999999999922
 11
-91.39805595315903
 21
24.23606797750004
  0
LINE
  5
217
100
AcDbEntity
  8
White
  6
ByLayer
 62
  256
370
   -1
100
AcDbLine
 10
-91.39805595315903
 20
24.23606797750004
 11
-94.30422606518144
 21
24.23606797750004
  0
LINE
  5
218
100
AcDbEntity
  8
White
  6
ByLayer
 62
  256
370
   -1
100
AcDbLine
 10
-92.85114100917143
 20
19.76393202249892
 11
-91.95308505601113
 21
22.52786404500051
  0
LINE
  5
219
100
AcDbEntity
  8
White
  6
ByLayer
 62
  256
370
   -1
100
AcDbLine
 10
-89.60194404684124
 20
24.23606797750028
 11
-86.69577393481774
 21
24.23606797750068
  0
LINE
  5
21A
100
AcDbEntity
  8
White
  6
ByLayer
 62
  256
370
   -1
100
AcDbLine
 10
-89.60194404684124
 20
24.23606797750028
 11
-90.50000000000003
 21
26.99999999999922
  0
LINE
  5
21B
100
AcDbEntity
  8
White
  6
ByLayer
 62
  256
370
   -1
100
AcDbLine
 10
-88.14885899082974
 20
19.76393202250011
 11
-89.04691494398924
 21
22.52786404500021
  0
LINE
  5
21C
100
AcDbEntity
  8
White
  6
ByLayer
 62
  256
370
   -1
100
AcDbLine
 10
-90.49999999999983
 20
21.47213595499944
 11
-88.14885899083043
 21
19.76393202250065
  0
LINE
  5
21D
100
AcDbEntity
  8
White
  6
ByLayer
 62
  256
370
   -1
100
AcDbLine
 10
-94.30422606518243
 20
24.23606797750004
 11
-91.95308505601113
 21
22.52786404500051
  0
LINE
  5
21E
100
AcDbEntity
  8
White
  6
ByLayer
 62
  256
370
   -1
100
AcDbLine
 10
-92.85114100917023
 20
19.76393202249979
 11
-90.49999999999993
 21
21.47213595499943
  0
LINE
  5
21F
100
AcDbEntity
  8
White
  6
ByLayer
 62
  256
370
   -1
100
AcDbLine
 10
-89.04691494398924
 20
22.52786404500021
 11
-86.69577393481933
 21
24.23606797750071
  0
LINE
  5
220
100
AcDbEntity
  8
White
  6
ByLayer
 62
  256
370
   -1
100
AcDbLine
 10
-74.10000000000005
 20
12.99999999999922
 11
-74.99805595315905
 21
10.23606797750004
  0
LINE
  5
221
100
AcDbEntity
  8
White
  6
ByLayer
 62
  256
370
   -1
100
AcDbLine
 10
-74.99805595315905
 20
10.23606797750004
 11
-77.90422606518146
 21
10.23606797750004
  0
LINE
  5
222
100
AcDbEntity
  8
White
  6
ByLayer
 62
  256
370
   -1
100
AcDbLine
 10
-76.45114100917145
 20
5.763932022498921
 11
-75.55308505601116
 21
8.527864045000513
  0
LINE
  5
223
100
AcDbEntity
  8
White
  6
ByLayer
 62
  256
370
   -1
100
AcDbLine
 10
-73.20194404684126
 20
10.23606797750028
 11
-70.29577393481776
 21
10.23606797750068
  0
LINE
  5
224
100
AcDbEntity
  8
White
  6
ByLayer
 62
  256
370
   -1
100
AcDbLine
 10
-73.20194404684126
 20
10.23606797750028
 11
-74.10000000000005
 21
12.99999999999922
  0
LINE
  5
225
100
AcDbEntity
  8
White
  6
ByLayer
 62
  256
370
   -1
100
AcDbLine
 10
-71.74885899082976
 20
5.763932022500107
 11
-72.64691494398926
 21
8.527864045000207
  0
LINE
  5
226
100
AcDbEntity
  8
White
  6
ByLayer
 62
  256
370
   -1
100
AcDbLine
 10
-74.09999999999985
 20
7.472135954999438
 11
-71.74885899083046
 21
5.763932022500647
  0
LINE
  5
227
100
AcDbEntity
  8
White
  6
ByLayer
 62
  256
370
   -1
100
AcDbLine
 10
-77.90422606518246
 20
10.23606797750004
 11
-75.55308505601116
 21
8.527864045000513
  0
LINE
  5
228
100
AcDbEntity
  8
White
  6
ByLayer
 62
  256
370
   -1
100
AcDbLine
 10
-76.45114100917026
 20
5.763932022499787
 11
-74.09999999999995
 21
7.47213595499943
  0
LINE
  5
229
100
AcDbEntity
  8
White
  6
ByLayer
 62
  256
370
   -1
100
AcDbLine
 10
-72.64691494398926
 20
8.527864045000207
 11
-70.29577393481935
 21
10.23606797750071
  0
LINE
  5
22A
100
AcDbEntity
  8
White
  6
ByLayer
 62
  256
370
   -1
100
AcDbLine
 10
-106.9
 20
26.99999999999922
 11
-107.798055953159
 21
24.23606797750004
  0
LINE
  5
22B
100
AcDbEntity
  8
White
  6
ByLayer
 62
  256
370
   -1
100
AcDbLine
 10
-107.798055953159
 20
24.23606797750004
 11
-110.7042260651814
 21
24.23606797750004
  0
LINE
  5
22C
100
AcDbEntity
  8
White
  6
ByLayer
 62
  256
370
   -1
100
AcDbLine
 10
-109.2511410091714
 20
19.76393202249892
 11
-108.3530850560111
 21
22.52786404500051
  0
LINE
  5
22D
100
AcDbEntity
  8
White
  6
ByLayer
 62
  256
370
   -1
100
AcDbLine
 10
-106.0019440468412
 20
24.23606797750028
 11
-103.0957739348177
 21
24.23606797750068
  0
LINE
  5
22E
100
AcDbEntity
  8
White
  6
ByLayer
 62
  256
370
   -1
100
AcDbLine
 10
-106.0019440468412
 20
24.23606797750028
 11
-106.9
 21
26.99999999999922
  0
LINE
  5
22F
100
AcDbEntity
  8
White
  6
ByLayer
 62
  256
370
   -1
100
AcDbLine
 10
-104.5488589908297
 20
19.76393202250011
 11
-105.4469149439892
 21
22.52786404500021
  0
LINE
  5
230
100
AcDbEntity
  8
White
  6
ByLayer
 62
  256
370
   -1
100
AcDbLine
 10
-106.8999999999998
 20
21.47213595499944
 11
-104.5488589908304
 21
19.76393202250065
  0
LINE
  5
231
100
AcDbEntity
  8
White
  6
ByLayer
 62
  256
370
   -1
100
AcDbLine
 10
-110.7042260651824
 20
24.23606797750004
 11
-108.3530850560111
 21
22.52786404500051
  0
LINE
  5
232
100
AcDbEntity
  8
White
  6
ByLayer
 62
  256
370
   -1
100
AcDbLine
 10
-109.2511410091702
 20
19.76393202249979
 11
-106.8999999999999
 21
21.47213595499943
  0
LINE
  5
233
100
AcDbEntity
  8
White
  6
ByLayer
 62
  256
370
   -1
100
AcDbLine
 10
-105.4469149439892
 20
22.52786404500021
 11
-103.0957739348193
 21
24.23606797750071
  0
LINE
  5
234
100
AcDbEntity
  8
White
  6
ByLayer
 62
  256
370
   -1
100
AcDbLine
 10
-90.50000000000003
 20
12.99999999999922
 11
-91.39805595315903
 21
10.23606797750004
  0
LINE
  5
235
100
AcDbEntity
  8
White
  6
ByLayer
 62
  256
370
   -1
100
AcDbLine
 10
-91.39805595315903
 20
10.23606797750004
 11
-94.30422606518144
 21
10.23606797750004
  0
LINE
  5
236
100
AcDbEntity
  8
White
  6
ByLayer
 62
  256
370
   -1
100
AcDbLine
 10
-92.85114100917143
 20
5.763932022498921
 11
-91.95308505601113
 21
8.527864045000513
  0
LINE
  5
237
100
AcDbEntity
  8
White
  6
ByLayer
 62
  256
370
   -1
100
AcDbLine
 10
-89.60194404684124
 20
10.23606797750028
 11
-86.69577393481774
 21
10.23606797750068
  0
LINE
  5
238
100
AcDbEntity
  8
White
  6
ByLayer
 62
  256
370
   -1
100
AcDbLine
 10
-89.60194404684124
 20
10.23606797750028
 11
-90.50000000000003
 21
12.99999999999922
  0
LINE
  5
239
100
AcDbEntity
  8
White
  6
ByLayer
 62
  256
370
   -1
100
AcDbLine
 10
-88.14885899082974
 20
5.763932022500107
 11
-89.04691494398924
 21
8.527864045000207
  0
LINE
  5
23A
100
AcDbEntity
  8
White
  6
ByLayer
 62
  256
370
   -1
100
AcDbLine
 10
-90.49999999999983
 20
7.472135954999438
 11
-88.14885899083043
 21
5.763932022500647
  0
LINE
  5
23B
100
AcDbEntity
  8
White
  6
ByLayer
 62
  256
370
   -1
100
AcDbLine
 10
-94.30422606518243
 20
10.23606797750004
 11
-91.95308505601113
 21
8.527864045000513
  0
LINE
  5
23C
100
AcDbEntity
  8
White
  6
ByLayer
 62
  256
370
   -1
100
AcDbLine
 10
-92.85114100917023
 20
5.763932022499787
 11
-90.49999999999993
 21
7.47213595499943
  0
LINE
  5
23D
100
AcDbEntity
  8
White
  6
ByLayer
 62
  256
370
   -1
100
AcDbLine
 10
-89.04691494398924
 20
8.527864045000207
 11
-86.69577393481933
 21
10.23606797750071
  0
LINE
  5
23E
100
AcDbEntity
  8
White
  6
ByLayer
 62
  256
370
   -1
100
AcDbLine
 10
-106.9
 20
12.99999999999922
 11
-107.798055953159
 21
10.23606797750004
  0
LINE
  5
23F
100
AcDbEntity
  8
White
  6
ByLayer
 62
  256
370
   -1
100
AcDbLine
 10
-107.798055953159
 20
10.23606797750004
 11
-110.7042260651814
 21
10.23606797750004
  0
LINE
  5
240
100
AcDbEntity
  8
White
  6
ByLayer
 62
  256
370
   -1
100
AcDbLine
 10
-109.2511410091714
 20
5.763932022498921
 11
-108.3530850560111
 21
8.527864045000513
  0
LINE
  5
241
100
AcDbEntity
  8
White
  6
ByLayer
 62
  256
370
   -1
100
AcDbLine
 10
-106.0019440468412
 20
10.23606797750028
 11
-103.0957739348177
 21
10.23606797750068
  0
LINE
  5
242
100
AcDbEntity
  8
White
  6
ByLayer
 62
  256
370
   -1
100
AcDbLine
 10
-106.0019440468412
 20
10.23606797750028
 11
-106.9
 21
12.99999999999922
  0
LINE
  5
243
100
AcDbEntity
  8
White
  6
ByLayer
 62
  256
370
   -1
100
AcDbLine
 10
-104.5488589908297
 20
5.763932022500107
 11
-105.4469149439892
 21
8.527864045000207
  0
LINE
  5
244
100
AcDbEntity
  8
White
  6
ByLayer
 62
  256
370
   -1
100
AcDbLine
 10
-106.8999999999998
 20
7.472135954999438
 11
-104.5488589908304
 21
5.763932022500647
  0
LINE
  5
245
100
AcDbEntity
  8
White
  6
ByLayer
 62
  256
370
   -1
100
AcDbLine
 10
-110.7042260651824
 20
10.23606797750004
 11
-108.3530850560111
 21
8.527864045000513
  0
LINE
  5
246
100
AcDbEntity
  8
White
  6
ByLayer
 62
  256
370
   -1
100
AcDbLine
 10
-109.2511410091702
 20
5.763932022499787
 11
-106.8999999999999
 21
7.47213595499943
  0
LINE
  5
247
100
AcDbEntity
  8
White
  6
ByLayer
 62
  256
370
   -1
100
AcDbLine
 10
-105.4469149439892
 20
8.527864045000207
 11
-103.0957739348193
 21
10.23606797750071
  0
LINE
  5
248
100
AcDbEntity
  8
0
  6
ByLayer
 62
  256
370
   -1
100
AcDbLine
 10
-123.5
 20
-65
 11
-123.5
 21
-115
  0
LINE
  5
249
100
AcDbEntity
  8
0
  6
ByLayer
 62
  256
370
   -1
100
AcDbLine
 10
123.5
 20
-65
 11
123.5
 21
-115
  0
LINE
  5
24A
100
AcDbEntity
  8
0
  6
ByLayer
 62
  256
370
   -1
100
AcDbLine
 10
-123.5
 20
-115
 11
123.5
 21
-115
  0
LINE
  5
24B
100
AcDbEntity
  8
White
  6
ByLayer
 62
  256
370
   -1
100
AcDbLine
 10
123.5
 20
-55
 11
-123.5
 21
-55
  0
LINE
  5
24C
100
AcDbEntity
  8
White
  6
ByLayer
 62
  256
370
   -1
100
AcDbLine
 10
-123.5
 20
-45
 11
123.5
 21
-45
  0
LINE
  5
24D
100
AcDbEntity
  8
White
  6
ByLayer
 62
  256
370
   -1
100
AcDbLine
 10
123.5
 20
-35
 11
-123.5
 21
-35
  0
LINE
  5
24E
100
AcDbEntity
  8
White
  6
ByLayer
 62
  256
370
   -1
100
AcDbLine
 10
-123.5
 20
-25
 11
123.5
 21
-25
  0
LINE
  5
24F
100
AcDbEntity
  8
White
  6
ByLayer
 62
  256
370
   -1
100
AcDbLine
 10
-24.7
 20
5
 11
123.5
 21
5
  0
LINE
  5
250
100
AcDbEntity
  8
White
  6
ByLayer
 62
  256
370
   -1
100
AcDbLine
 10
-24.7
 20
25
 11
123.5
 21
25
  0
LINE
  5
251
100
AcDbEntity
  8
White
  6
ByLayer
 62
  256
370
   -1
100
AcDbLine
 10
-24.7
 20
15
 11
123.5
 21
15
  0
LINE
  5
252
100
AcDbEntity
  8
White
  6
ByLayer
 62
  256
370
   -1
100
AcDbLine
 10
-24.7
 20
45
 11
123.5
 21
45
  0
LINE
  5
253
100
AcDbEntity
  8
White
  6
ByLayer
 62
  256
370
   -1
100
AcDbLine
 10
-24.7
 20
35
 11
123.5
 21
35
  0
LINE
  5
254
100
AcDbEntity
  8
White
  6
ByLayer
 62
  256
370
   -1
100
AcDbLine
 10
-24.7
 20
55
 11
123.5
 21
55
  0
LINE
  5
255
100
AcDbEntity
  8
White
  6
ByLayer
 62
  256
370
   -1
100
AcDbLine
 10
-24.7
 20
55
 11
-24.7
 21
45
  0
LINE
  5
256
100
AcDbEntity
  8
White
  6
ByLayer
 62
  256
370
   -1
100
AcDbLine
 10
-24.7
 20
35
 11
-24.7
 21
25
  0
LINE
  5
257
100
AcDbEntity
  8
White
  6
ByLayer
 62
  256
370
   -1
100
AcDbLine
 10
-24.7
 20
15
 11
-24.7
 21
5
  0
LINE
  5
258
100
AcDbEntity
  8
Blue
  6
ByLayer
 62
  256
370
   -1
100
AcDbLine
 10
123.5
 20
-15
 11
-123.5
 21
-15
  0
LINE
  5
259
100
AcDbEntity
  8
Blue
  6
ByLayer
 62
  256
370
   -1
100
AcDbLine
 10
-123.5
 20
-5
 11
-123.5
 21
-15
  0
LINE
  5
25A
100
AcDbEntity
  8
Blue
  6
ByLayer
 62
  256
370
   -1
100
AcDbLine
 10
123.5
 20
-15
 11
123.5
 21
-5
  0
LINE
  5
25B
100
AcDbEntity
  8
Blue
  6
ByLayer
 62
  256
370
   -1
100
AcDbLine
 10
-123.5
 20
-5
 11
123.5
 21
-5
  0
LINE
  5
25C
100
AcDbEntity
  8
Black
  6
ByLayer
 62
  256
370
   -1
100
AcDbLine
 10
-123.5
 20
-55
 11
-123.5
 21
-65
  0
LINE
  5
25D
100
AcDbEntity
  8
Black
  6
ByLayer
 62
  256
370
   -1
100
AcDbLine
 10
-123.5
 20
-65
 11
123.5
 21
-65
  0
LINE
  5
25E
100
AcDbEntity
  8
Black
  6
ByLayer
 62
  256
370
   -1
100
AcDbLine
 10
123.5
 20
-65
 11
123.5
 21
-55
  0
LINE
  5
25F
100
AcDbEntity
  8
Black
  6
ByLayer
 62
  256
370
   -1
100
AcDbLine
 10
-123.5
 20
-35
 11
-123.5
 21
-45
  0
LINE
  5
260
100
AcDbEntity
  8
Black
  6
ByLayer
 62
  256
370
   -1
100
AcDbLine
 10
123.5
 20
-45
 11
123.5
 21
-35
  0
LINE
  5
261
100
AcDbEntity
  8
Black
  6
ByLayer
 62
  256
370
   -1
100
AcDbLine
 10
-123.5
 20
-15
 11
-123.5
 21
-25
  0
LINE
  5
262
100
AcDbEntity
  8
Black
  6
ByLayer
 62
  256
370
   -1
100
AcDbLine
 10
123.5
 20
-25
 11
123.5
 21
-15
  0
LINE
  5
263
100
AcDbEntity
  8
Black
  6
ByLayer
 62
  256
370
   -1
100
AcDbLine
 10
123.5
 20
5
 11
123.5
 21
-5
  0
LINE
  5
264
100
AcDbEntity
  8
Black
  6
ByLayer
 62
  256
370
   -1
100
AcDbLine
 10
123.5
 20
25
 11
123.5
 21
15
  0
LINE
  5
265
100
AcDbEntity
  8
Black
  6
ByLayer
 62
  256
370
   -1
100
AcDbLine
 10
123.5
 20
45
 11
123.5
 21
35
  0
LINE
  5
266
100
AcDbEntity
  8
Black
  6
ByLayer
 62
  256
370
   -1
100
AcDbLine
 10
123.5
 20
65
 11
123.5
 21
55
  0
LINE
  5
267
100
AcDbEntity
  8
Black
  6
ByLayer
 62
  256
370
   -1
100
AcDbLine
 10
-123.5
 20
-5
 11
-123.5
 21
65
  0
LINE
  5
268
100
AcDbEntity
  8
Black
  6
ByLayer
 62
  256
370
   -1
100
AcDbLine
 10
-123.5
 20
65
 11
123.5
 21
65
  0
LINE
  5
269
100
AcDbEntity
  8
Black
  6
ByLayer
 62
  256
370
   -1
100
AcDbLine
 10
-123.5
 20
-25
 11
-123.5
 21
-35
  0
LINE
  5
26A
100
AcDbEntity
  8
Black
  6
ByLayer
 62
  256
370
   -1
100
AcDbLine
 10
-123.5
 20
-45
 11
-123.5
 21
-55
  0
LINE
  5
26B
100
AcDbEntity
  8
Black
  6
ByLayer
 62
  256
370
   -1
100
AcDbLine
 10
123.5
 20
-55
 11
123.5
 21
-45
  0
LINE
  5
26C
100
AcDbEntity
  8
Black
  6
ByLayer
 62
  256
370
   -1
100
AcDbLine
 10
123.5
 20
-35
 11
123.5
 21
-25
  0
LINE
  5
26D
100
AcDbEntity
  8
Black
  6
ByLayer
 62
  256
370
   -1
100
AcDbLine
 10
123.5
 20
5
 11
123.5
 21
15
  0
LINE
  5
26E
100
AcDbEntity
  8
Black
  6
ByLayer
 62
  256
370
   -1
100
AcDbLine
 10
123.5
 20
25
 11
123.5
 21
35
  0
LINE
  5
26F
100
AcDbEntity
  8
Black
  6
ByLayer
 62
  256
370
   -1
100
AcDbLine
 10
123.5
 20
45
 11
123.5
 21
55
  0
MTEXT
  5
270
100
AcDbEntity
  8
0
  6
ByLayer
 62
  256
370
   -1
100
AcDbMText
 10
0
 20
-90
 30
0
 40
8.5
 41
238.1012161111111
 71
    5
 72
    1
  1
Flag of the Blue Lives Matter\Pmovement, by Felipe Lohan\PPinheiro da Silva
  7
romanc
210
0
220
0
230
1
 50
0
 73
    2
 44
1
  0
ENDSEC
  0
SECTION
  2
OBJECTS
  0
DICTIONARY
  5
C
330
0
100
AcDbDictionary
281
    1
  3
ACAD_GROUP
350
D
  0
DICTIONARY
  5
D
330
C
100
AcDbDictionary
281
    1
  0
PLOTSETTINGS
  5
271
100
AcDbPlotSettings
  6
1x1
 40
0
 41
0
 42
0
 43
0
  0
ENDSEC
  0
EOF
