999
dxfrw 0.6.3
  0
SECTION
  2
HEADER
  9
$ACADVER
  1
AC1021
  9
$DWGCODEPAGE
  3
ANSI_1252
  9
$INSBASE
 10
0
 20
0
 30
0
  9
$EXTMIN
 10
-123.5
 20
-115
 30
0
  9
$EXTMAX
 10
123.5
 20
65
 30
0
  9
$LIMMIN
 10
0
 20
0
  9
$LIMMAX
 10
420
 20
297
  9
$ORTHOMODE
 70
    0
  9
$REGENMODE
 70
    1
  9
$FILLMODE
 70
    1
  9
$QTEXTMODE
 70
    0
  9
$MIRRTEXT
 70
    0
  9
$LTSCALE
 40
1
  9
$ATTMODE
 70
    0
  9
$TEXTSIZE
 40
2.5
  9
$TRACEWID
 40
15.68
  9
$TEXTSTYLE
  7
STANDARD
  9
$CLAYER
  8
Black
  9
$CELTYPE
  6
BYLAYER
  9
$CECOLOR
 62
  256
  9
$CELTSCALE
 40
1
  9
$DISPSILH
 70
    0
  9
$DIMSCALE
 40
1
  9
$DIMASZ
 40
2.5
  9
$DIMEXO
 40
0.625
  9
$DIMDLI
 40
3.75
  9
$DIMRND
 40
0
  9
$DIMDLE
 40
0
  9
$DIMEXE
 40
1.25
  9
$DIMTP
 40
0
  9
$DIMTM
 40
0
  9
$DIMTXT
 40
2.5
  9
$DIMCEN
 40
2.5
  9
$DIMTSZ
 40
0
  9
$DIMTOL
 70
    0
  9
$DIMLIM
 70
    0
  9
$DIMTIH
 70
    0
  9
$DIMTOH
 70
    0
  9
$DIMSE1
 70
    0
  9
$DIMSE2
 70
    0
  9
$DIMTAD
 70
    1
  9
$DIMZIN
 70
    1
  9
$DIMBLK
  1

  9
$DIMASO
 70
    1
  9
$DIMSHO
 70
    1
  9
$DIMPOST
  1

  9
$DIMAPOST
  1

  9
$DIMALT
 70
    0
  9
$DIMALTD
 70
    3
  9
$DIMALTF
 40
0.03937
  9
$DIMLFAC
 40
1
  9
$DIMTOFL
 70
    1
  9
$DIMTVP
 40
0
  9
$DIMTIX
 70
    0
  9
$DIMSOXD
 70
    0
  9
$DIMSAH
 70
    0
  9
$DIMBLK1
  1

  9
$DIMBLK2
  1

  9
$DIMSTYLE
  2
STANDARD
  9
$DIMCLRD
 70
    0
  9
$DIMCLRE
 70
    0
  9
$DIMCLRT
 70
    0
  9
$DIMTFAC
 40
1
  9
$DIMGAP
 40
0.625
  9
$DIMJUST
 70
    0
  9
$DIMSD1
 70
    0
  9
$DIMSD2
 70
    0
  9
$DIMTOLJ
 70
    0
  9
$DIMTZIN
 70
    8
  9
$DIMALTZ
 70
    0
  9
$DIMALTTZ
 70
    0
  9
$DIMUPT
 70
    0
  9
$DIMDEC
 70
    4
  9
$DIMTDEC
 70
    2
  9
$DIMALTU
 70
    2
  9
$DIMALTTD
 70
    3
  9
$DIMTXSTY
  7
standard
  9
$DIMAUNIT
 70
    0
  9
$DIMADEC
 70
    2
  9
$DIMALTRND
 40
0
  9
$DIMAZIN
 70
    0
  9
$DIMDSEP
 70
    0
  9
$DIMATFIT
 70
    3
  9
$DIMFRAC
 70
    0
  9
$DIMLDRBLK
  1
STANDARD
  9
$DIMLUNIT
 70
    2
  9
$DIMLWD
 70
   -2
  9
$DIMLWE
 70
   -2
  9
$DIMTMOVE
 70
    0
  9
$DIMFXL
 40
1
  9
$DIMFXLON
 70
    0
  9
$DIMJOGANG
 40
0.7854
  9
$DIMTFILL
 70
    0
  9
$DIMTFILLCLR
 70
    0
  9
$DIMARCSYM
 70
    0
  9
$DIMLTYPE
  6

  9
$DIMLTEX1
  6

  9
$DIMLTEX2
  6

  9
$LUNITS
 70
    2
  9
$LUPREC
 70
    4
  9
$SKETCHINC
 40
1
  9
$FILLETRAD
 40
0
  9
$AUNITS
 70
    0
  9
$AUPREC
 70
    2
  9
$MENU
  1
.
  9
$ELEVATION
 40
0
  9
$PELEVATION
 40
0
  9
$THICKNESS
 40
0
  9
$LIMCHECK
 70
    0
  9
$CHAMFERA
 40
0
  9
$CHAMFERB
 40
0
  9
$CHAMFERC
 40
0
  9
$CHAMFERD
 40
0
  9
$SKPOLY
 70
    0
  9
$USRTIMER
 70
    1
  9
$ANGBASE
 50
0
  9
$ANGDIR
 70
    0
  9
$PDMODE
 70
   34
  9
$PDSIZE
 40
0
  9
$PLINEWID
 40
0
  9
$SPLFRAME
 70
    0
  9
$SPLINETYPE
 70
    2
  9
$SPLINESEGS
 70
    8
  9
$HANDSEED
  5
20000
  9
$SURFTAB1
 70
    6
  9
$SURFTAB2
 70
    6
  9
$SURFTYPE
 70
    6
  9
$SURFU
 70
    6
  9
$SURFV
 70
    6
  9
$UCSBASE
  2

  9
$UCSNAME
  2

  9
$UCSORG
 10
0
 20
0
 30
0
  9
$UCSXDIR
 10
1
 20
0
 30
0
  9
$UCSYDIR
 10
0
 20
1
 30
0
  9
$UCSORTHOREF
  2

  9
$UCSORTHOVIEW
 70
    0
  9
$UCSORGTOP
 10
0
 20
0
 30
0
  9
$UCSORGBOTTOM
 10
0
 20
0
 30
0
  9
$UCSORGLEFT
 10
0
 20
0
 30
0
  9
$UCSORGRIGHT
 10
0
 20
0
 30
0
  9
$UCSORGFRONT
 10
0
 20
0
 30
0
  9
$UCSORGBACK
 10
0
 20
0
 30
0
  9
$PUCSBASE
  2

  9
$PUCSNAME
  2

  9
$PUCSORG
 10
0
 20
0
 30
0
  9
$PUCSXDIR
 10
1
 20
0
 30
0
  9
$PUCSYDIR
 10
0
 20
1
 30
0
  9
$PUCSORTHOREF
  2

  9
$PUCSORTHOVIEW
 70
    0
  9
$PUCSORGTOP
 10
0
 20
0
 30
0
  9
$PUCSORGBOTTOM
 10
0
 20
0
 30
0
  9
$PUCSORGLEFT
 10
0
 20
0
 30
0
  9
$PUCSORGRIGHT
 10
0
 20
0
 30
0
  9
$PUCSORGFRONT
 10
0
 20
0
 30
0
  9
$PUCSORGBACK
 10
0
 20
0
 30
0
  9
$USERI1
 70
    0
  9
$USERI2
 70
    0
  9
$USERI3
 70
    0
  9
$USERI4
 70
    0
  9
$USERI5
 70
    0
  9
$USERR1
 40
0
  9
$USERR2
 40
0
  9
$USERR3
 40
0
  9
$USERR4
 40
0
  9
$USERR5
 40
0
  9
$WORLDVIEW
 70
    1
  9
$SHADEDGE
 70
    3
  9
$SHADEDIF
 70
   70
  9
$TILEMODE
 70
    1
  9
$MAXACTVP
 70
   64
  9
$PINSBASE
 10
148.5
 20
134.1666666666667
 30
0
  9
$PLIMCHECK
 70
    0
  9
$PEXTMIN
 10
0
 20
0
 30
0
  9
$PEXTMAX
 10
0
 20
0
 30
0
  9
$GRIDMODE
 70
    1
  9
$SNAPSTYLE
 70
    1
  9
$GRIDUNIT
 10
0
 20
0
  9
$PLIMMIN
 10
0
 20
0
  9
$PLIMMAX
 10
297
 20
210
  9
$UNITMODE
 70
    0
  9
$VISRETAIN
 70
    1
  9
$PLINEGEN
 70
    0
  9
$PSLTSCALE
 70
    1
  9
$TREEDEPTH
 70
 3020
  9
$CMLSTYLE
  2
Standard
  9
$CMLJUST
 70
    0
  9
$CMLSCALE
 40
20
  9
$PROXYGRAPHICS
 70
    1
  9
$MEASUREMENT
 70
    1
  9
$CELWEIGHT
370
   -1
  9
$ENDCAPS
280
    0
  9
$JOINSTYLE
280
    0
  9
$LWDISPLAY
290
    0
  9
$INSUNITS
 70
    0
  9
$HYPERLINKBASE
  1

  9
$STYLESHEET
  1

  9
$XEDIT
290
    1
  9
$CEPSNTYPE
380
    0
  9
$PSTYLEMODE
290
    1
  9
$EXTNAMES
290
    1
  9
$PSVPSCALE
 40
1.166666666666667
  9
$OLESTARTUP
290
    0
  9
$SORTENTS
280
  127
  9
$INDEXCTL
280
    0
  9
$HIDETEXT
280
    1
  9
$XCLIPFRAME
290
    0
  9
$HALOGAP
280
    0
  9
$OBSCOLOR
 70
  257
  9
$OBSLTYPE
280
    0
  9
$INTERSECTIONDISPLAY
280
    0
  9
$INTERSECTIONCOLOR
 70
  257
  9
$DIMASSOC
280
    1
  9
$PROJECTNAME
  1

  9
$CAMERADISPLAY
290
    0
  9
$LENSLENGTH
 40
50
  9
$CAMERAHEIGHT
 40
0
  9
$STEPSPERSEC
 40
2
  9
$STEPSIZE
 40
50
  9
$3DDWFPREC
 40
2
  9
$PSOLWIDTH
 40
5
  9
$PSOLHEIGHT
 40
80
  9
$LOFTANG1
 40
1.570796326794897
  9
$LOFTANG2
 40
1.570796326794897
  9
$LOFTMAG1
 40
0
  9
$LOFTMAG2
 40
0
  9
$LOFTPARAM
 70
    7
  9
$LOFTNORMALS
280
    1
  9
$LATITUDE
 40
1
  9
$LONGITUDE
 40
1
  9
$NORTHDIRECTION
 40
0
  9
$TIMEZONE
 70
-8000
  9
$LIGHTGLYPHDISPLAY
280
    1
  9
$TILEMODELIGHTSYNCH
280
    1
  9
$SOLIDHIST
280
    1
  9
$SHOWHIST
280
    1
  9
$DWFFRAME
280
    2
  9
$DGNFRAME
280
    0
  9
$REALWORLDSCALE
290
    1
  9
$INTERFERECOLOR
 62
    1
  9
$CSHADOW
280
    0
  9
$SHADOWPLANELOCATION
 40
0
  0
ENDSEC
  0
SECTION
  2
CLASSES
  0
ENDSEC
  0
SECTION
  2
TABLES
  0
TABLE
  2
VPORT
  5
8
330
0
100
AcDbSymbolTable
 70
    1
  0
VPORT
  5
31
330
2
100
AcDbSymbolTableRecord
100
AcDbViewportTableRecord
  2
*ACTIVE
 70
    0
 10
0
 20
0
 11
1
 21
1
 12
127.1358580883195
 22
57.12160384531538
 13
0
 23
0
 14
10
 24
10
 15
10
 25
10
 16
0
 26
0
 36
1
 17
0
 27
0
 37
0
 40
262.1505580863376
 41
2.15983606557377
 42
50
 43
0
 44
0
 50
0
 51
0
 71
    0
 72
  100
 73
    1
 74
    3
 75
    0
 76
    1
 77
    1
 78
    0
281
    0
 65
    1
110
0
120
0
130
0
111
1
121
0
131
0
112
0
122
1
132
0
 79
    0
146
0
348
10020
 60
    7
 61
    5
292
1
282
    1
141
0
142
0
 63
  250
421
3358443
  0
ENDTAB
  0
TABLE
  2
LTYPE
  5
5
330
0
100
AcDbSymbolTable
 70
    4
  0
LTYPE
  5
14
330
5
100
AcDbSymbolTableRecord
100
AcDbLinetypeTableRecord
  2
ByBlock
 70
    0
  3

 72
   65
 73
    0
 40
0
  0
LTYPE
  5
15
330
5
100
AcDbSymbolTableRecord
100
AcDbLinetypeTableRecord
  2
ByLayer
 70
    0
  3

 72
   65
 73
    0
 40
0
  0
LTYPE
  5
16
330
5
100
AcDbSymbolTableRecord
100
AcDbLinetypeTableRecord
  2
Continuous
 70
    0
  3
Solid line
 72
   65
 73
    0
 40
0
  0
LTYPE
  5
32
330
5
100
AcDbSymbolTableRecord
100
AcDbLinetypeTableRecord
  2
DOT
 70
    0
  3
Dot . . . . . . . . . . . . . . . . . . . . . .
 72
   65
 73
    2
 40
6.35
 49
0
 74
    0
 49
-6.35
 74
    0
  0
LTYPE
  5
33
330
5
100
AcDbSymbolTableRecord
100
AcDbLinetypeTableRecord
  2
DOTTINY
 70
    0
  3
Dot (.15x) .....................................
 72
   65
 73
    2
 40
0.9525
 49
0
 74
    0
 49
-0.9525
 74
    0
  0
LTYPE
  5
34
330
5
100
AcDbSymbolTableRecord
100
AcDbLinetypeTableRecord
  2
DOT2
 70
    0
  3
Dot (.5x) .....................................
 72
   65
 73
    2
 40
3.175
 49
0
 74
    0
 49
-3.175
 74
    0
  0
LTYPE
  5
35
330
5
100
AcDbSymbolTableRecord
100
AcDbLinetypeTableRecord
  2
DOTX2
 70
    0
  3
Dot (2x) .  .  .  .  .  .  .  .  .  .  .  .  .
 72
   65
 73
    2
 40
12.7
 49
0
 74
    0
 49
-12.7
 74
    0
  0
LTYPE
  5
36
330
5
100
AcDbSymbolTableRecord
100
AcDbLinetypeTableRecord
  2
DASHED
 70
    0
  3
Dashed _ _ _ _ _ _ _ _ _ _ _ _ _ _ _ _ _
 72
   65
 73
    2
 40
19.05
 49
12.7
 74
    0
 49
-6.35
 74
    0
  0
LTYPE
  5
37
330
5
100
AcDbSymbolTableRecord
100
AcDbLinetypeTableRecord
  2
DASHEDTINY
 70
    0
  3
Dashed (.15x) _ _ _ _ _ _ _ _ _ _ _ _ _ _ _ _ _
 72
   65
 73
    2
 40
2.8575
 49
1.905
 74
    0
 49
-0.9525
 74
    0
  0
LTYPE
  5
38
330
5
100
AcDbSymbolTableRecord
100
AcDbLinetypeTableRecord
  2
DASHED2
 70
    0
  3
Dashed (.5x) _ _ _ _ _ _ _ _ _ _ _ _ _ _ _ _ _
 72
   65
 73
    2
 40
9.524999999999999
 49
6.35
 74
    0
 49
-3.175
 74
    0
  0
LTYPE
  5
39
330
5
100
AcDbSymbolTableRecord
100
AcDbLinetypeTableRecord
  2
DASHEDX2
 70
    0
  3
Dashed (2x) ____  ____  ____  ____  ____  ___
 72
   65
 73
    2
 40
38.09999999999999
 49
25.4
 74
    0
 49
-12.7
 74
    0
  0
LTYPE
  5
3A
330
5
100
AcDbSymbolTableRecord
100
AcDbLinetypeTableRecord
  2
DASHDOT
 70
    0
  3
Dash dot __ . __ . __ . __ . __ . __ . __ . __
 72
   65
 73
    4
 40
25.4
 49
12.7
 74
    0
 49
-6.35
 74
    0
 49
0
 74
    0
 49
-6.35
 74
    0
  0
LTYPE
  5
3B
330
5
100
AcDbSymbolTableRecord
100
AcDbLinetypeTableRecord
  2
DASHDOTTINY
 70
    0
  3
Dash dot (.15x) _._._._._._._._._._._._._._._.
 72
   65
 73
    4
 40
3.81
 49
1.905
 74
    0
 49
-0.9525
 74
    0
 49
0
 74
    0
 49
-0.9525
 74
    0
  0
LTYPE
  5
3C
330
5
100
AcDbSymbolTableRecord
100
AcDbLinetypeTableRecord
  2
DASHDOT2
 70
    0
  3
Dash dot (.5x) _._._._._._._._._._._._._._._.
 72
   65
 73
    4
 40
12.7
 49
6.35
 74
    0
 49
-3.175
 74
    0
 49
0
 74
    0
 49
-3.175
 74
    0
  0
LTYPE
  5
3D
330
5
100
AcDbSymbolTableRecord
100
AcDbLinetypeTableRecord
  2
DASHDOTX2
 70
    0
  3
Dash dot (2x) ____  .  ____  .  ____  .  ___
 72
   65
 73
    4
 40
50.8
 49
25.4
 74
    0
 49
-12.7
 74
    0
 49
0
 74
    0
 49
-12.7
 74
    0
  0
LTYPE
  5
3E
330
5
100
AcDbSymbolTableRecord
100
AcDbLinetypeTableRecord
  2
DIVIDE
 70
    0
  3
Divide ____ . . ____ . . ____ . . ____ . . ____
 72
   65
 73
    6
 40
31.75
 49
12.7
 74
    0
 49
-6.35
 74
    0
 49
0
 74
    0
 49
-6.35
 74
    0
 49
0
 74
    0
 49
-6.35
 74
    0
  0
LTYPE
  5
3F
330
5
100
AcDbSymbolTableRecord
100
AcDbLinetypeTableRecord
  2
DIVIDETINY
 70
    0
  3
Divide (.15x) __..__..__..__..__..__..__..__.._
 72
   65
 73
    6
 40
4.7625
 49
1.905
 74
    0
 49
-0.9525
 74
    0
 49
0
 74
    0
 49
-0.9525
 74
    0
 49
0
 74
    0
 49
-0.9525
 74
    0
  0
LTYPE
  5
40
330
5
100
AcDbSymbolTableRecord
100
AcDbLinetypeTableRecord
  2
DIVIDE2
 70
    0
  3
Divide (.5x) __..__..__..__..__..__..__..__.._
 72
   65
 73
    6
 40
15.875
 49
6.35
 74
    0
 49
-3.175
 74
    0
 49
0
 74
    0
 49
-3.175
 74
    0
 49
0
 74
    0
 49
-3.175
 74
    0
  0
LTYPE
  5
41
330
5
100
AcDbSymbolTableRecord
100
AcDbLinetypeTableRecord
  2
DIVIDEX2
 70
    0
  3
Divide (2x) ________  .  .  ________  .  .  _
 72
   65
 73
    6
 40
63.5
 49
25.4
 74
    0
 49
-12.7
 74
    0
 49
0
 74
    0
 49
-12.7
 74
    0
 49
0
 74
    0
 49
-12.7
 74
    0
  0
LTYPE
  5
42
330
5
100
AcDbSymbolTableRecord
100
AcDbLinetypeTableRecord
  2
BORDER
 70
    0
  3
Border __ __ . __ __ . __ __ . __ __ . __ __ .
 72
   65
 73
    6
 40
44.45
 49
12.7
 74
    0
 49
-6.35
 74
    0
 49
12.7
 74
    0
 49
-6.35
 74
    0
 49
0
 74
    0
 49
-6.35
 74
    0
  0
LTYPE
  5
43
330
5
100
AcDbSymbolTableRecord
100
AcDbLinetypeTableRecord
  2
BORDERTINY
 70
    0
  3
Border (.15x) __.__.__.__.__.__.__.__.__.__.__.
 72
   65
 73
    6
 40
6.6675
 49
1.905
 74
    0
 49
-0.9525
 74
    0
 49
1.905
 74
    0
 49
-0.9525
 74
    0
 49
0
 74
    0
 49
-0.9525
 74
    0
  0
LTYPE
  5
44
330
5
100
AcDbSymbolTableRecord
100
AcDbLinetypeTableRecord
  2
BORDER2
 70
    0
  3
Border (.5x) __.__.__.__.__.__.__.__.__.__.__.
 72
   65
 73
    6
 40
22.225
 49
6.35
 74
    0
 49
-3.175
 74
    0
 49
6.35
 74
    0
 49
-3.175
 74
    0
 49
0
 74
    0
 49
-3.175
 74
    0
  0
LTYPE
  5
45
330
5
100
AcDbSymbolTableRecord
100
AcDbLinetypeTableRecord
  2
BORDERX2
 70
    0
  3
Border (2x) ____  ____  .  ____  ____  .  ___
 72
   65
 73
    6
 40
88.89999999999999
 49
25.4
 74
    0
 49
-12.7
 74
    0
 49
25.4
 74
    0
 49
-12.7
 74
    0
 49
0
 74
    0
 49
-12.7
 74
    0
  0
LTYPE
  5
46
330
5
100
AcDbSymbolTableRecord
100
AcDbLinetypeTableRecord
  2
CENTER
 70
    0
  3
Center ____ _ ____ _ ____ _ ____ _ ____ _ ____
 72
   65
 73
    4
 40
50.8
 49
31.75
 74
    0
 49
-6.35
 74
    0
 49
6.35
 74
    0
 49
-6.35
 74
    0
  0
LTYPE
  5
47
330
5
100
AcDbSymbolTableRecord
100
AcDbLinetypeTableRecord
  2
CENTERTINY
 70
    0
  3
Center (.15x) ___ _ ___ _ ___ _ ___ _ ___ _ ___
 72
   65
 73
    4
 40
7.619999999999999
 49
4.7625
 74
    0
 49
-0.9525
 74
    0
 49
0.9525
 74
    0
 49
-0.9525
 74
    0
  0
LTYPE
  5
48
330
5
100
AcDbSymbolTableRecord
100
AcDbLinetypeTableRecord
  2
CENTER2
 70
    0
  3
Center (.5x) ___ _ ___ _ ___ _ ___ _ ___ _ ___
 72
   65
 73
    4
 40
28.575
 49
19.05
 74
    0
 49
-3.175
 74
    0
 49
3.175
 74
    0
 49
-3.175
 74
    0
  0
LTYPE
  5
49
330
5
100
AcDbSymbolTableRecord
100
AcDbLinetypeTableRecord
  2
CENTERX2
 70
    0
  3
Center (2x) ________  __  ________  __  _____
 72
   65
 73
    4
 40
101.6
 49
63.5
 74
    0
 49
-12.7
 74
    0
 49
12.7
 74
    0
 49
-12.7
 74
    0
  0
ENDTAB
  0
TABLE
  2
LAYER
  5
2
330
0
100
AcDbSymbolTable
 70
    1
  0
LAYER
  5
10
330
2
100
AcDbSymbolTableRecord
100
AcDbLayerTableRecord
  2
0
 70
    0
 62
    7
  6
CONTINUOUS
370
    0
390
F
  0
LAYER
  5
4A
330
2
100
AcDbSymbolTableRecord
100
AcDbLayerTableRecord
  2
Black
 70
    0
 62
    7
420
131586
  6
CONTINUOUS
370
    0
390
F
  0
LAYER
  5
4B
330
2
100
AcDbSymbolTableRecord
100
AcDbLayerTableRecord
  2
Blue
 70
    0
 62
    5
  6
CONTINUOUS
370
    0
390
F
  0
LAYER
  5
4C
330
2
100
AcDbSymbolTableRecord
100
AcDbLayerTableRecord
  2
White
 70
    0
 62
  255
420
16711422
  6
CONTINUOUS
370
    0
390
F
  0
ENDTAB
  0
TABLE
  2
STYLE
  5
3
330
0
100
AcDbSymbolTable
 70
    3
  0
STYLE
  5
4D
330
2
100
AcDbSymbolTableRecord
100
AcDbTextStyleTableRecord
  2
romanc
 70
    0
 40
0
 41
1
 50
0
 71
    0
 42
1
  3
romanc
  4

  0
STYLE
  5
4E
330
2
100
AcDbSymbolTableRecord
100
AcDbTextStyleTableRecord
  2
Standard
 70
    0
 40
0
 41
1
 50
0
 71
    0
 42
1
  3
txt
  4

  0
ENDTAB
  0
TABLE
  2
VIEW
  5
6
330
0
100
AcDbSymbolTable
 70
    0
  0
ENDTAB
  0
TABLE
  2
UCS
  5
7
330
0
100
AcDbSymbolTable
 70
    0
  0
ENDTAB
  0
TABLE
  2
APPID
  5
9
330
0
100
AcDbSymbolTable
 70
    1
  0
APPID
  5
12
330
9
100
AcDbSymbolTableRecord
100
AcDbRegAppTableRecord
  2
ACAD
 70
    0
  0
APPID
  5
4F
330
9
100
AcDbSymbolTableRecord
100
AcDbRegAppTableRecord
  2
LibreCad
 70
    0
  0
ENDTAB
  0
TABLE
  2
DIMSTYLE
  5
A
330
0
100
AcDbSymbolTable
 70
    1
100
AcDbDimStyleTable
 71
    1
  0
DIMSTYLE
105
50
330
A
100
AcDbSymbolTableRecord
100
AcDbDimStyleTableRecord
  2
Standard
 70
    0
 40
1
 41
2.5
 42
0.625
 43
0.38
 44
1.25
 45
0
 46
0
 47
0
 48
0
 49
1
140
2.5
141
0.09
142
0
143
25.4
144
1
145
0
146
1
147
0.625
148
0
 71
    0
 72
    0
 73
    0
 74
    1
 75
    0
 76
    0
 77
    0
 78
    1
 79
    0
170
    0
171
    2
172
    0
173
    0
174
    0
175
    0
176
    0
177
    0
178
    0
179
    2
271
    4
272
    4
273
    2
274
    2
275
    0
276
    0
277
    2
278
    0
279
    0
280
    0
281
    0
282
    0
283
    1
284
    0
285
    0
286
    0
288
    0
289
    3
340
standard
341

371
   -2
372
   -2
  0
ENDTAB
  0
TABLE
  2
BLOCK_RECORD
  5
1
330
0
100
AcDbSymbolTable
 70
    2
  0
BLOCK_RECORD
  5
1F
330
1
100
AcDbSymbolTableRecord
100
AcDbBlockTableRecord
  2
*Model_Space
 70
    0
280
    1
281
    0
  0
BLOCK_RECORD
  5
1E
330
1
100
AcDbSymbolTableRecord
100
AcDbBlockTableRecord
  2
*Paper_Space
 70
    0
280
    1
281
    0
  0
ENDTAB
  0
ENDSEC
  0
SECTION
  2
BLOCKS
  0
BLOCK
  5
20
330
1F
100
AcDbEntity
  8
0
100
AcDbBlockBegin
  2
*Model_Space
 70
    0
 10
0
 20
0
 30
0
  3
*Model_Space
  1

  0
ENDBLK
  5
21
330
1F
100
AcDbEntity
  8
0
100
AcDbBlockEnd
  0
BLOCK
  5
1C
330
1B
100
AcDbEntity
  8
0
100
AcDbBlockBegin
  2
*Paper_Space
 70
    0
 10
0
 20
0
 30
0
  3
*Paper_Space
  1

  0
ENDBLK
  5
1D
330
1F
100
AcDbEntity
  8
0
100
AcDbBlockEnd
  0
ENDSEC
  0
SECTION
  2
ENTITIES
  0
HATCH
  5
51
100
AcDbEntity
  8
Black
  6
ByLayer
 62
  256
370
   -1
100
AcDbHatch
 10
0
 20
0
 30
0
210
0
220
0
230
1
  2
SOLID
 70
    1
 71
    0
 91
    1
 92
    0
 93
   16
 72
    1
 10
-24.7
 20
5
 11
123.5
 21
5
 72
    1
 10
123.5
 20
5
 11
123.5
 21
-5
 72
    1
 10
123.5
 20
-5
 11
-123.5
 21
-5
 72
    1
 10
-123.5
 20
-5
 11
-123.5
 21
65
 72
    1
 10
-123.5
 20
65
 11
123.5
 21
65
 72
    1
 10
123.5
 20
65
 11
123.5
 21
55
 72
    1
 10
123.5
 20
55
 11
-24.7
 21
55
 72
    1
 10
-24.7
 20
55
 11
-24.7
 21
45
 72
    1
 10
-24.7
 20
45
 11
123.5
 21
45
 72
    1
 10
123.5
 20
45
 11
123.5
 21
35
 72
    1
 10
123.5
 20
35
 11
-24.7
 21
35
 72
    1
 10
-24.7
 20
35
 11
-24.7
 21
25
 72
    1
 10
-24.7
 20
25
 11
123.5
 21
25
 72
    1
 10
123.5
 20
25
 11
123.5
 21
15
 72
    1
 10
123.5
 20
15
 11
-24.7
 21
15
 72
    1
 10
-24.7
 20
15
 11
-24.7
 21
5
 97
    0
 75
    0
 76
    1
 98
    0
  0
HATCH
  5
52
100
AcDbEntity
  8
White
  6
ByLayer
 62
  256
370
   -1
100
AcDbHatch
 10
0
 20
0
 30
0
210
0
220
0
230
1
  2
SOLID
 70
    1
 71
    0
 91
    1
 92
    0
 93
    4
 72
    1
 10
-24.7
 20
45
 11
123.5
 21
45
 72
    1
 10
123.5
 20
45
 11
123.5
 21
55
 72
    1
 10
123.5
 20
55
 11
-24.7
 21
55
 72
    1
 10
-24.7
 20
55
 11
-24.7
 21
45
 97
    0
 75
    0
 76
    1
 98
    0
  0
HATCH
  5
53
100
AcDbEntity
  8
White
  6
ByLayer
 62
  256
370
   -1
100
AcDbHatch
 10
0
 20
0
 30
0
210
0
220
0
230
1
  2
SOLID
 70
    1
 71
    0
 91
    1
 92
    0
 93
    4
 72
    1
 10
-24.7
 20
25
 11
123.5
 21
25
 72
    1
 10
123.5
 20
25
 11
123.5
 21
35
 72
    1
 10
123.5
 20
35
 11
-24.7
 21
35
 72
    1
 10
-24.7
 20
35
 11
-24.7
 21
25
 97
    0
 75
    0
 76
    1
 98
    0
  0
HATCH
  5
54
100
AcDbEntity
  8
White
  6
ByLayer
 62
  256
370
   -1
100
AcDbHatch
 10
0
 20
0
 30
0
210
0
220
0
230
1
  2
SOLID
 70
    1
 71
    0
 91
    1
 92
    0
 93
    4
 72
    1
 10
-24.7
 20
5
 11
123.5
 21
5
 72
    1
 10
123.5
 20
5
 11
123.5
 21
15
 72
    1
 10
123.5
 20
15
 11
-24.7
 21
15
 72
    1
 10
-24.7
 20
15
 11
-24.7
 21
5
 97
    0
 75
    0
 76
    1
 98
    0
  0
HATCH
  5
55
100
AcDbEntity
  8
White
  6
ByLayer
 62
  256
370
   -1
100
AcDbHatch
 10
0
 20
0
 30
0
210
0
220
0
230
1
  2
SOLID
 70
    1
 71
    0
 91
    1
 92
    0
 93
    4
 72
    1
 10
123.5
 20
-35
 11
-123.5
 21
-35
 72
    1
 10
-123.5
 20
-35
 11
-123.5
 21
-25
 72
    1
 10
-123.5
 20
-25
 11
123.5
 21
-25
 72
    1
 10
123.5
 20
-25
 11
123.5
 21
-35
 97
    0
 75
    0
 76
    1
 98
    0
  0
HATCH
  5
56
100
AcDbEntity
  8
White
  6
ByLayer
 62
  256
370
   -1
100
AcDbHatch
 10
0
 20
0
 30
0
210
0
220
0
230
1
  2
SOLID
 70
    1
 71
    0
 91
    1
 92
    0
 93
    4
 72
    1
 10
123.5
 20
-55
 11
-123.5
 21
-55
 72
    1
 10
-123.5
 20
-55
 11
-123.5
 21
-45
 72
    1
 10
-123.5
 20
-45
 11
123.5
 21
-45
 72
    1
 10
123.5
 20
-45
 11
123.5
 21
-55
 97
    0
 75
    0
 76
    1
 98
    0
  0
HATCH
  5
57
100
AcDbEntity
  8
Black
  6
ByLayer
 62
  256
370
   -1
100
AcDbHatch
 10
0
 20
0
 30
0
210
0
220
0
230
1
  2
SOLID
 70
    1
 71
    0
 91
    1
 92
    0
 93
    4
 72
    1
 10
123.5
 20
-55
 11
-123.5
 21
-55
 72
    1
 10
-123.5
 20
-55
 11
-123.5
 21
-65
 72
    1
 10
-123.5
 20
-65
 11
123.5
 21
-65
 72
    1
 10
123.5
 20
-65
 11
123.5
 21
-55
 97
    0
 75
    0
 76
    1
 98
    0
  0
HATCH
  5
58
100
AcDbEntity
  8
Black
  6
ByLayer
 62
  256
370
   -1
100
AcDbHatch
 10
0
 20
0
 30
0
210
0
220
0
230
1
  2
SOLID
 70
    1
 71
    0
 91
    1
 92
    0
 93
    4
 72
    1
 10
-123.5
 20
-45
 11
123.5
 21
-45
 72
    1
 10
123.5
 20
-45
 11
123.5
 21
-35
 72
    1
 10
123.5
 20
-35
 11
-123.5
 21
-35
 72
    1
 10
-123.5
 20
-35
 11
-123.5
 21
-45
 97
    0
 75
    0
 76
    1
 98
    0
  0
HATCH
  5
59
100
AcDbEntity
  8
Black
  6
ByLayer
 62
  256
370
   -1
100
AcDbHatch
 10
0
 20
0
 30
0
210
0
220
0
230
1
  2
SOLID
 70
    1
 71
    0
 91
    1
 92
    0
 93
    4
 72
    1
 10
-123.5
 20
-25
 11
123.5
 21
-25
 72
    1
 10
123.5
 20
-25
 11
123.5
 21
-15
 72
    1
 10
123.5
 20
-15
 11
-123.5
 21
-15
 72
    1
 10
-123.5
 20
-15
 11
-123.5
 21
-25
 97
    0
 75
    0
 76
    1
 98
    0
  0
HATCH
  5
5A
100
AcDbEntity
  8
White
  6
ByLayer
 62
  256
370
   -1
100
AcDbHatch
 10
0
 20
0
 30
0
210
0
220
0
230
1
  2
SOLID
 70
    1
 71
    0
 91
    1
 92
    0
 93
   10
 72
    1
 10
-41.85502910285478
 20
47.76393202250218
 11
-39.50388809368469
 21
46.05572809000285
 72
    1
 10
-39.50388809368469
 20
46.05572809000285
 11
-40.40194404684419
 21
48.81966011250295
 72
    1
 10
-40.40194404684419
 20
48.81966011250295
 11
-38.05080303767269
 21
50.52786404500343
 72
    1
 10
-38.05080303767269
 20
50.52786404500343
 11
-40.9569731496962
 21
50.52786404500302
 72
    1
 10
-40.9569731496962
 20
50.52786404500302
 11
-41.85502910285498
 21
53.29179606750197
 72
    1
 10
-41.85502910285498
 20
53.29179606750197
 11
-42.75308505601399
 21
50.52786404500279
 72
    1
 10
-42.75308505601399
 20
50.52786404500279
 11
-45.65925516803739
 21
50.52786404500279
 72
    1
 10
-45.65925516803739
 20
50.52786404500279
 11
-43.30811415886609
 21
48.81966011250326
 72
    1
 10
-43.30811415886609
 20
48.81966011250326
 11
-44.20617011202519
 21
46.05572809000254
 72
    1
 10
-44.20617011202519
 20
46.05572809000254
 11
-41.85502910285478
 21
47.76393202250218
 97
    0
 75
    0
 76
    1
 98
    0
  0
HATCH
  5
5B
100
AcDbEntity
  8
White
  6
ByLayer
 62
  256
370
   -1
100
AcDbHatch
 10
0
 20
0
 30
0
210
0
220
0
230
1
  2
SOLID
 70
    1
 71
    0
 91
    1
 92
    0
 93
   10
 72
    1
 10
-58.25502910285382
 20
47.76393202250143
 11
-55.90388809368373
 21
46.0557280900021
 72
    1
 10
-55.90388809368373
 20
46.0557280900021
 11
-56.80194404684323
 21
48.8196601125022
 72
    1
 10
-56.80194404684323
 20
48.8196601125022
 11
-54.45080303767173
 21
50.52786404500267
 72
    1
 10
-54.45080303767173
 20
50.52786404500267
 11
-57.35697314969524
 21
50.52786404500227
 72
    1
 10
-57.35697314969524
 20
50.52786404500227
 11
-58.25502910285402
 21
53.2917960675012
 72
    1
 10
-58.25502910285402
 20
53.2917960675012
 11
-59.15308505601303
 21
50.52786404500203
 72
    1
 10
-59.15308505601303
 20
50.52786404500203
 11
-62.05925516803643
 21
50.52786404500203
 72
    1
 10
-62.05925516803643
 20
50.52786404500203
 11
-59.70811415886513
 21
48.8196601125025
 72
    1
 10
-59.70811415886513
 20
48.8196601125025
 11
-60.60617011202423
 21
46.05572809000177
 72
    1
 10
-60.60617011202423
 20
46.05572809000177
 11
-58.25502910285382
 21
47.76393202250143
 97
    0
 75
    0
 76
    1
 98
    0
  0
HATCH
  5
5C
100
AcDbEntity
  8
White
  6
ByLayer
 62
  256
370
   -1
100
AcDbHatch
 10
0
 20
0
 30
0
210
0
220
0
230
1
  2
SOLID
 70
    1
 71
    0
 91
    1
 92
    0
 93
   10
 72
    1
 10
-74.65502910285285
 20
47.76393202250067
 11
-72.30388809368277
 21
46.05572809000134
 72
    1
 10
-72.30388809368277
 20
46.05572809000134
 11
-73.20194404684227
 21
48.81966011250145
 72
    1
 10
-73.20194404684227
 20
48.81966011250145
 11
-70.85080303767077
 21
50.52786404500191
 72
    1
 10
-70.85080303767077
 20
50.52786404500191
 11
-73.75697314969428
 21
50.52786404500151
 72
    1
 10
-73.75697314969428
 20
50.52786404500151
 11
-74.65502910285305
 21
53.29179606750045
 72
    1
 10
-74.65502910285305
 20
53.29179606750045
 11
-75.55308505601208
 21
50.52786404500127
 72
    1
 10
-75.55308505601208
 20
50.52786404500127
 11
-78.45925516803547
 21
50.52786404500127
 72
    1
 10
-78.45925516803547
 20
50.52786404500127
 11
-76.10811415886417
 21
48.81966011250174
 72
    1
 10
-76.10811415886417
 20
48.81966011250174
 11
-77.00617011202327
 21
46.05572809000102
 72
    1
 10
-77.00617011202327
 20
46.05572809000102
 11
-74.65502910285285
 21
47.76393202250067
 97
    0
 75
    0
 76
    1
 98
    0
  0
HATCH
  5
5D
100
AcDbEntity
  8
White
  6
ByLayer
 62
  256
370
   -1
100
AcDbHatch
 10
0
 20
0
 30
0
210
0
220
0
230
1
  2
SOLID
 70
    1
 71
    0
 91
    1
 92
    0
 93
   10
 72
    1
 10
-91.05502910285189
 20
47.76393202249991
 11
-88.70388809368181
 21
46.05572809000058
 72
    1
 10
-88.70388809368181
 20
46.05572809000058
 11
-89.60194404684131
 21
48.81966011250068
 72
    1
 10
-89.60194404684131
 20
48.81966011250068
 11
-87.25080303766981
 21
50.52786404500116
 72
    1
 10
-87.25080303766981
 20
50.52786404500116
 11
-90.15697314969331
 21
50.52786404500075
 72
    1
 10
-90.15697314969331
 20
50.52786404500075
 11
-91.05502910285209
 21
53.2917960674997
 72
    1
 10
-91.05502910285209
 20
53.2917960674997
 11
-91.95308505601112
 21
50.52786404500052
 72
    1
 10
-91.95308505601112
 20
50.52786404500052
 11
-94.85925516803451
 21
50.52786404500052
 72
    1
 10
-94.85925516803451
 20
50.52786404500052
 11
-92.50811415886321
 21
48.81966011250099
 72
    1
 10
-92.50811415886321
 20
48.81966011250099
 11
-93.40617011202231
 21
46.05572809000027
 72
    1
 10
-93.40617011202231
 20
46.05572809000027
 11
-91.05502910285189
 21
47.76393202249991
 97
    0
 75
    0
 76
    1
 98
    0
  0
HATCH
  5
5E
100
AcDbEntity
  8
White
  6
ByLayer
 62
  256
370
   -1
100
AcDbHatch
 10
0
 20
0
 30
0
210
0
220
0
230
1
  2
SOLID
 70
    1
 71
    0
 91
    1
 92
    0
 93
   10
 72
    1
 10
-107.4550291028509
 20
47.76393202249916
 11
-105.1038880936809
 21
46.05572808999982
 72
    1
 10
-105.1038880936809
 20
46.05572808999982
 11
-106.0019440468404
 21
48.81966011249992
 72
    1
 10
-106.0019440468404
 20
48.81966011249992
 11
-103.6508030376689
 21
50.5278640450004
 72
    1
 10
-103.6508030376689
 20
50.5278640450004
 11
-106.5569731496924
 21
50.52786404499999
 72
    1
 10
-106.5569731496924
 20
50.52786404499999
 11
-107.4550291028511
 21
53.29179606749894
 72
    1
 10
-107.4550291028511
 20
53.29179606749894
 11
-108.3530850560102
 21
50.52786404499976
 72
    1
 10
-108.3530850560102
 20
50.52786404499976
 11
-111.2592551680335
 21
50.52786404499976
 72
    1
 10
-111.2592551680335
 20
50.52786404499976
 11
-108.9081141588622
 21
48.81966011250023
 72
    1
 10
-108.9081141588622
 20
48.81966011250023
 11
-109.8061701120213
 21
46.0557280899995
 72
    1
 10
-109.8061701120213
 20
46.0557280899995
 11
-107.4550291028509
 21
47.76393202249916
 97
    0
 75
    0
 76
    1
 98
    0
  0
HATCH
  5
5F
100
AcDbEntity
  8
White
  6
ByLayer
 62
  256
370
   -1
100
AcDbHatch
 10
0
 20
0
 30
0
210
0
220
0
230
1
  2
SOLID
 70
    1
 71
    0
 91
    1
 92
    0
 93
   10
 72
    1
 10
-115.6550291028509
 20
54.76393202249916
 11
-113.3038880936808
 21
53.05572808999982
 72
    1
 10
-113.3038880936808
 20
53.05572808999982
 11
-114.2019440468403
 21
55.81966011249992
 72
    1
 10
-114.2019440468403
 20
55.81966011249992
 11
-111.8508030376688
 21
57.52786404500041
 72
    1
 10
-111.8508030376688
 20
57.52786404500041
 11
-114.7569731496923
 21
57.52786404499999
 72
    1
 10
-114.7569731496923
 20
57.52786404499999
 11
-115.6550291028511
 21
60.29179606749894
 72
    1
 10
-115.6550291028511
 20
60.29179606749894
 11
-116.5530850560101
 21
57.52786404499975
 72
    1
 10
-116.5530850560101
 20
57.52786404499975
 11
-119.4592551680335
 21
57.52786404499975
 72
    1
 10
-119.4592551680335
 20
57.52786404499975
 11
-117.1081141588622
 21
55.81966011250023
 72
    1
 10
-117.1081141588622
 20
55.81966011250023
 11
-118.0061701120213
 21
53.0557280899995
 72
    1
 10
-118.0061701120213
 20
53.0557280899995
 11
-115.6550291028509
 21
54.76393202249916
 97
    0
 75
    0
 76
    1
 98
    0
  0
HATCH
  5
60
100
AcDbEntity
  8
White
  6
ByLayer
 62
  256
370
   -1
100
AcDbHatch
 10
0
 20
0
 30
0
210
0
220
0
230
1
  2
SOLID
 70
    1
 71
    0
 91
    1
 92
    0
 93
   10
 72
    1
 10
-99.25502910285188
 20
54.76393202249991
 11
-96.9038880936818
 21
53.05572809000058
 72
    1
 10
-96.9038880936818
 20
53.05572809000058
 11
-97.8019440468413
 21
55.81966011250068
 72
    1
 10
-97.8019440468413
 20
55.81966011250068
 11
-95.4508030376698
 21
57.52786404500116
 72
    1
 10
-95.4508030376698
 20
57.52786404500116
 11
-98.3569731496933
 21
57.52786404500075
 72
    1
 10
-98.3569731496933
 20
57.52786404500075
 11
-99.25502910285208
 21
60.2917960674997
 72
    1
 10
-99.25502910285208
 20
60.2917960674997
 11
-100.1530850560111
 21
57.52786404500052
 72
    1
 10
-100.1530850560111
 20
57.52786404500052
 11
-103.0592551680345
 21
57.52786404500052
 72
    1
 10
-103.0592551680345
 20
57.52786404500052
 11
-100.7081141588632
 21
55.81966011250099
 72
    1
 10
-100.7081141588632
 20
55.81966011250099
 11
-101.6061701120223
 21
53.05572809000027
 72
    1
 10
-101.6061701120223
 20
53.05572809000027
 11
-99.25502910285188
 21
54.76393202249991
 97
    0
 75
    0
 76
    1
 98
    0
  0
HATCH
  5
61
100
AcDbEntity
  8
White
  6
ByLayer
 62
  256
370
   -1
100
AcDbHatch
 10
0
 20
0
 30
0
210
0
220
0
230
1
  2
SOLID
 70
    1
 71
    0
 91
    1
 92
    0
 93
   10
 72
    1
 10
-82.85502910285284
 20
54.76393202250067
 11
-80.50388809368276
 21
53.05572809000134
 72
    1
 10
-80.50388809368276
 20
53.05572809000134
 11
-81.40194404684226
 21
55.81966011250144
 72
    1
 10
-81.40194404684226
 20
55.81966011250144
 11
-79.05080303767076
 21
57.52786404500191
 72
    1
 10
-79.05080303767076
 20
57.52786404500191
 11
-81.95697314969426
 21
57.52786404500151
 72
    1
 10
-81.95697314969426
 20
57.52786404500151
 11
-82.85502910285304
 21
60.29179606750045
 72
    1
 10
-82.85502910285304
 20
60.29179606750045
 11
-83.75308505601207
 21
57.52786404500127
 72
    1
 10
-83.75308505601207
 20
57.52786404500127
 11
-86.65925516803546
 21
57.52786404500127
 72
    1
 10
-86.65925516803546
 20
57.52786404500127
 11
-84.30811415886416
 21
55.81966011250174
 72
    1
 10
-84.30811415886416
 20
55.81966011250174
 11
-85.20617011202326
 21
53.05572809000102
 72
    1
 10
-85.20617011202326
 20
53.05572809000102
 11
-82.85502910285284
 21
54.76393202250067
 97
    0
 75
    0
 76
    1
 98
    0
  0
HATCH
  5
62
100
AcDbEntity
  8
White
  6
ByLayer
 62
  256
370
   -1
100
AcDbHatch
 10
0
 20
0
 30
0
210
0
220
0
230
1
  2
SOLID
 70
    1
 71
    0
 91
    1
 92
    0
 93
   10
 72
    1
 10
-66.4550291028538
 20
54.76393202250143
 11
-64.10388809368372
 21
53.0557280900021
 72
    1
 10
-64.10388809368372
 20
53.0557280900021
 11
-65.00194404684322
 21
55.8196601125022
 72
    1
 10
-65.00194404684322
 20
55.8196601125022
 11
-62.65080303767172
 21
57.52786404500267
 72
    1
 10
-62.65080303767172
 20
57.52786404500267
 11
-65.55697314969522
 21
57.52786404500227
 72
    1
 10
-65.55697314969522
 20
57.52786404500227
 11
-66.455029102854
 21
60.2917960675012
 72
    1
 10
-66.455029102854
 20
60.2917960675012
 11
-67.35308505601303
 21
57.52786404500203
 72
    1
 10
-67.35308505601303
 20
57.52786404500203
 11
-70.25925516803642
 21
57.52786404500203
 72
    1
 10
-70.25925516803642
 20
57.52786404500203
 11
-67.90811415886512
 21
55.8196601125025
 72
    1
 10
-67.90811415886512
 20
55.8196601125025
 11
-68.80617011202422
 21
53.05572809000177
 72
    1
 10
-68.80617011202422
 20
53.05572809000177
 11
-66.4550291028538
 21
54.76393202250143
 97
    0
 75
    0
 76
    1
 98
    0
  0
HATCH
  5
63
100
AcDbEntity
  8
White
  6
ByLayer
 62
  256
370
   -1
100
AcDbHatch
 10
0
 20
0
 30
0
210
0
220
0
230
1
  2
SOLID
 70
    1
 71
    0
 91
    1
 92
    0
 93
   10
 72
    1
 10
-50.05502910285477
 20
54.76393202250218
 11
-47.70388809368468
 21
53.05572809000285
 72
    1
 10
-47.70388809368468
 20
53.05572809000285
 11
-48.60194404684418
 21
55.81966011250295
 72
    1
 10
-48.60194404684418
 20
55.81966011250295
 11
-46.25080303767268
 21
57.52786404500343
 72
    1
 10
-46.25080303767268
 20
57.52786404500343
 11
-49.15697314969619
 21
57.52786404500302
 72
    1
 10
-49.15697314969619
 20
57.52786404500302
 11
-50.05502910285497
 21
60.29179606750197
 72
    1
 10
-50.05502910285497
 20
60.29179606750197
 11
-50.95308505601398
 21
57.52786404500279
 72
    1
 10
-50.95308505601398
 20
57.52786404500279
 11
-53.85925516803738
 21
57.52786404500279
 72
    1
 10
-53.85925516803738
 20
57.52786404500279
 11
-51.50811415886608
 21
55.81966011250326
 72
    1
 10
-51.50811415886608
 20
55.81966011250326
 11
-52.40617011202518
 21
53.05572809000254
 72
    1
 10
-52.40617011202518
 20
53.05572809000254
 11
-50.05502910285477
 21
54.76393202250218
 97
    0
 75
    0
 76
    1
 98
    0
  0
HATCH
  5
64
100
AcDbEntity
  8
White
  6
ByLayer
 62
  256
370
   -1
100
AcDbHatch
 10
0
 20
0
 30
0
210
0
220
0
230
1
  2
SOLID
 70
    1
 71
    0
 91
    1
 92
    0
 93
   10
 72
    1
 10
-33.65502910285573
 20
54.76393202250294
 11
-31.30388809368564
 21
53.0557280900036
 72
    1
 10
-31.30388809368564
 20
53.0557280900036
 11
-32.20194404684514
 21
55.8196601125037
 72
    1
 10
-32.20194404684514
 20
55.8196601125037
 11
-29.85080303767364
 21
57.52786404500419
 72
    1
 10
-29.85080303767364
 20
57.52786404500419
 11
-32.75697314969715
 21
57.52786404500377
 72
    1
 10
-32.75697314969715
 20
57.52786404500377
 11
-33.65502910285593
 21
60.29179606750272
 72
    1
 10
-33.65502910285593
 20
60.29179606750272
 11
-34.55308505601494
 21
57.52786404500355
 72
    1
 10
-34.55308505601494
 20
57.52786404500355
 11
-37.45925516803834
 21
57.52786404500355
 72
    1
 10
-37.45925516803834
 20
57.52786404500355
 11
-35.10811415886704
 21
55.81966011250402
 72
    1
 10
-35.10811415886704
 20
55.81966011250402
 11
-36.00617011202614
 21
53.05572809000329
 72
    1
 10
-36.00617011202614
 20
53.05572809000329
 11
-33.65502910285573
 21
54.76393202250294
 97
    0
 75
    0
 76
    1
 98
    0
  0
HATCH
  5
65
100
AcDbEntity
  8
White
  6
ByLayer
 62
  256
370
   -1
100
AcDbHatch
 10
0
 20
0
 30
0
210
0
220
0
230
1
  2
SOLID
 70
    1
 71
    0
 91
    1
 92
    0
 93
   10
 72
    1
 10
-33.1000000000027
 20
42.4721359550017
 11
-30.74885899083261
 21
40.76393202250237
 72
    1
 10
-30.74885899083261
 20
40.76393202250237
 11
-31.64691494399212
 21
43.52786404500247
 72
    1
 10
-31.64691494399212
 20
43.52786404500247
 11
-29.29577393482061
 21
45.23606797750296
 72
    1
 10
-29.29577393482061
 20
45.23606797750296
 11
-32.20194404684413
 21
45.23606797750254
 72
    1
 10
-32.20194404684413
 20
45.23606797750254
 11
-33.1000000000029
 21
48.00000000000149
 72
    1
 10
-33.1000000000029
 20
48.00000000000149
 11
-33.99805595316192
 21
45.23606797750232
 72
    1
 10
-33.99805595316192
 20
45.23606797750232
 11
-36.90422606518531
 21
45.23606797750232
 72
    1
 10
-36.90422606518531
 20
45.23606797750232
 11
-34.55308505601401
 21
43.52786404500279
 72
    1
 10
-34.55308505601401
 20
43.52786404500279
 11
-35.45114100917311
 21
40.76393202250206
 72
    1
 10
-35.45114100917311
 20
40.76393202250206
 11
-33.1000000000027
 21
42.4721359550017
 97
    0
 75
    0
 76
    1
 98
    0
  0
HATCH
  5
66
100
AcDbEntity
  8
White
  6
ByLayer
 62
  256
370
   -1
100
AcDbHatch
 10
0
 20
0
 30
0
210
0
220
0
230
1
  2
SOLID
 70
    1
 71
    0
 91
    1
 92
    0
 93
   10
 72
    1
 10
-49.50000000000174
 20
42.47213595500095
 11
-47.14885899083166
 21
40.76393202250162
 72
    1
 10
-47.14885899083166
 20
40.76393202250162
 11
-48.04691494399115
 21
43.52786404500172
 72
    1
 10
-48.04691494399115
 20
43.52786404500172
 11
-45.69577393481966
 21
45.2360679775022
 72
    1
 10
-45.69577393481966
 20
45.2360679775022
 11
-48.60194404684317
 21
45.23606797750179
 72
    1
 10
-48.60194404684317
 20
45.23606797750179
 11
-49.50000000000194
 21
48.00000000000074
 72
    1
 10
-49.50000000000194
 20
48.00000000000074
 11
-50.39805595316096
 21
45.23606797750156
 72
    1
 10
-50.39805595316096
 20
45.23606797750156
 11
-53.30422606518435
 21
45.23606797750156
 72
    1
 10
-53.30422606518435
 20
45.23606797750156
 11
-50.95308505601305
 21
43.52786404500203
 72
    1
 10
-50.95308505601305
 20
43.52786404500203
 11
-51.85114100917215
 21
40.76393202250131
 72
    1
 10
-51.85114100917215
 20
40.76393202250131
 11
-49.50000000000174
 21
42.47213595500095
 97
    0
 75
    0
 76
    1
 98
    0
  0
HATCH
  5
67
100
AcDbEntity
  8
White
  6
ByLayer
 62
  256
370
   -1
100
AcDbHatch
 10
0
 20
0
 30
0
210
0
220
0
230
1
  2
SOLID
 70
    1
 71
    0
 91
    1
 92
    0
 93
   10
 72
    1
 10
-65.90000000000077
 20
42.4721359550002
 11
-63.54885899083069
 21
40.76393202250087
 72
    1
 10
-63.54885899083069
 20
40.76393202250087
 11
-64.44691494399019
 21
43.52786404500097
 72
    1
 10
-64.44691494399019
 20
43.52786404500097
 11
-62.09577393481869
 21
45.23606797750143
 72
    1
 10
-62.09577393481869
 20
45.23606797750143
 11
-65.0019440468422
 21
45.23606797750104
 72
    1
 10
-65.0019440468422
 20
45.23606797750104
 11
-65.90000000000097
 21
47.99999999999997
 72
    1
 10
-65.90000000000097
 20
47.99999999999997
 11
-66.79805595316
 21
45.2360679775008
 72
    1
 10
-66.79805595316
 20
45.2360679775008
 11
-69.70422606518339
 21
45.2360679775008
 72
    1
 10
-69.70422606518339
 20
45.2360679775008
 11
-67.35308505601209
 21
43.52786404500127
 72
    1
 10
-67.35308505601209
 20
43.52786404500127
 11
-68.25114100917119
 21
40.76393202250054
 72
    1
 10
-68.25114100917119
 20
40.76393202250054
 11
-65.90000000000077
 21
42.4721359550002
 97
    0
 75
    0
 76
    1
 98
    0
  0
HATCH
  5
68
100
AcDbEntity
  8
White
  6
ByLayer
 62
  256
370
   -1
100
AcDbHatch
 10
0
 20
0
 30
0
210
0
220
0
230
1
  2
SOLID
 70
    1
 71
    0
 91
    1
 92
    0
 93
   10
 72
    1
 10
-82.29999999999981
 20
42.47213595499944
 11
-79.94885899082973
 21
40.76393202250011
 72
    1
 10
-79.94885899082973
 20
40.76393202250011
 11
-80.84691494398923
 21
43.52786404500021
 72
    1
 10
-80.84691494398923
 20
43.52786404500021
 11
-78.49577393481773
 21
45.23606797750068
 72
    1
 10
-78.49577393481773
 20
45.23606797750068
 11
-81.40194404684124
 21
45.23606797750028
 72
    1
 10
-81.40194404684124
 20
45.23606797750028
 11
-82.30000000000001
 21
47.99999999999922
 72
    1
 10
-82.30000000000001
 20
47.99999999999922
 11
-83.19805595315904
 21
45.23606797750004
 72
    1
 10
-83.19805595315904
 20
45.23606797750004
 11
-86.10422606518243
 21
45.23606797750004
 72
    1
 10
-86.10422606518243
 20
45.23606797750004
 11
-83.75308505601113
 21
43.52786404500051
 72
    1
 10
-83.75308505601113
 20
43.52786404500051
 11
-84.65114100917023
 21
40.76393202249979
 72
    1
 10
-84.65114100917023
 20
40.76393202249979
 11
-82.29999999999981
 21
42.47213595499944
 97
    0
 75
    0
 76
    1
 98
    0
  0
HATCH
  5
69
100
AcDbEntity
  8
White
  6
ByLayer
 62
  256
370
   -1
100
AcDbHatch
 10
0
 20
0
 30
0
210
0
220
0
230
1
  2
SOLID
 70
    1
 71
    0
 91
    1
 92
    0
 93
   10
 72
    1
 10
-98.69999999999885
 20
42.47213595499868
 11
-96.34885899082877
 21
40.76393202249935
 72
    1
 10
-96.34885899082877
 20
40.76393202249935
 11
-97.24691494398827
 21
43.52786404499945
 72
    1
 10
-97.24691494398827
 20
43.52786404499945
 11
-94.89577393481677
 21
45.23606797749993
 72
    1
 10
-94.89577393481677
 20
45.23606797749993
 11
-97.80194404684028
 21
45.23606797749952
 72
    1
 10
-97.80194404684028
 20
45.23606797749952
 11
-98.69999999999905
 21
47.99999999999847
 72
    1
 10
-98.69999999999905
 20
47.99999999999847
 11
-99.59805595315808
 21
45.23606797749929
 72
    1
 10
-99.59805595315808
 20
45.23606797749929
 11
-102.5042260651815
 21
45.23606797749929
 72
    1
 10
-102.5042260651815
 20
45.23606797749929
 11
-100.1530850560102
 21
43.52786404499976
 72
    1
 10
-100.1530850560102
 20
43.52786404499976
 11
-101.0511410091693
 21
40.76393202249903
 72
    1
 10
-101.0511410091693
 20
40.76393202249903
 11
-98.69999999999885
 21
42.47213595499868
 97
    0
 75
    0
 76
    1
 98
    0
  0
HATCH
  5
6A
100
AcDbEntity
  8
White
  6
ByLayer
 62
  256
370
   -1
100
AcDbHatch
 10
0
 20
0
 30
0
210
0
220
0
230
1
  2
SOLID
 70
    1
 71
    0
 91
    1
 92
    0
 93
   10
 72
    1
 10
-115.0999999999979
 20
42.47213595499792
 11
-112.7488589908278
 21
40.76393202249859
 72
    1
 10
-112.7488589908278
 20
40.76393202249859
 11
-113.6469149439873
 21
43.52786404499869
 72
    1
 10
-113.6469149439873
 20
43.52786404499869
 11
-111.2957739348158
 21
45.23606797749918
 72
    1
 10
-111.2957739348158
 20
45.23606797749918
 11
-114.2019440468393
 21
45.23606797749876
 72
    1
 10
-114.2019440468393
 20
45.23606797749876
 11
-115.0999999999981
 21
47.99999999999771
 72
    1
 10
-115.0999999999981
 20
47.99999999999771
 11
-115.9980559531571
 21
45.23606797749852
 72
    1
 10
-115.9980559531571
 20
45.23606797749852
 11
-118.9042260651805
 21
45.23606797749852
 72
    1
 10
-118.9042260651805
 20
45.23606797749852
 11
-116.5530850560092
 21
43.527864044999
 72
    1
 10
-116.5530850560092
 20
43.527864044999
 11
-117.4511410091683
 21
40.76393202249827
 72
    1
 10
-117.4511410091683
 20
40.76393202249827
 11
-115.0999999999979
 21
42.47213595499792
 97
    0
 75
    0
 76
    1
 98
    0
  0
HATCH
  5
6B
100
AcDbEntity
  8
White
  6
ByLayer
 62
  256
370
   -1
100
AcDbHatch
 10
0
 20
0
 30
0
210
0
220
0
230
1
  2
SOLID
 70
    1
 71
    0
 91
    1
 92
    0
 93
   10
 72
    1
 10
-106.8999999999979
 20
35.47213595499792
 11
-104.5488589908278
 21
33.76393202249859
 72
    1
 10
-104.5488589908278
 20
33.76393202249859
 11
-105.4469149439873
 21
36.52786404499869
 72
    1
 10
-105.4469149439873
 20
36.52786404499869
 11
-103.0957739348158
 21
38.23606797749917
 72
    1
 10
-103.0957739348158
 20
38.23606797749917
 11
-106.0019440468393
 21
38.23606797749876
 72
    1
 10
-106.0019440468393
 20
38.23606797749876
 11
-106.8999999999981
 21
40.9999999999977
 72
    1
 10
-106.8999999999981
 20
40.9999999999977
 11
-107.7980559531571
 21
38.23606797749853
 72
    1
 10
-107.7980559531571
 20
38.23606797749853
 11
-110.7042260651805
 21
38.23606797749853
 72
    1
 10
-110.7042260651805
 20
38.23606797749853
 11
-108.3530850560092
 21
36.527864044999
 72
    1
 10
-108.3530850560092
 20
36.527864044999
 11
-109.2511410091683
 21
33.76393202249827
 72
    1
 10
-109.2511410091683
 20
33.76393202249827
 11
-106.8999999999979
 21
35.47213595499792
 97
    0
 75
    0
 76
    1
 98
    0
  0
HATCH
  5
6C
100
AcDbEntity
  8
White
  6
ByLayer
 62
  256
370
   -1
100
AcDbHatch
 10
0
 20
0
 30
0
210
0
220
0
230
1
  2
SOLID
 70
    1
 71
    0
 91
    1
 92
    0
 93
   10
 72
    1
 10
-90.49999999999886
 20
35.47213595499868
 11
-88.14885899082878
 21
33.76393202249935
 72
    1
 10
-88.14885899082878
 20
33.76393202249935
 11
-89.04691494398828
 21
36.52786404499945
 72
    1
 10
-89.04691494398828
 20
36.52786404499945
 11
-86.69577393481678
 21
38.23606797749993
 72
    1
 10
-86.69577393481678
 20
38.23606797749993
 11
-89.60194404684029
 21
38.23606797749952
 72
    1
 10
-89.60194404684029
 20
38.23606797749952
 11
-90.49999999999906
 21
40.99999999999847
 72
    1
 10
-90.49999999999906
 20
40.99999999999847
 11
-91.39805595315809
 21
38.23606797749929
 72
    1
 10
-91.39805595315809
 20
38.23606797749929
 11
-94.30422606518148
 21
38.23606797749929
 72
    1
 10
-94.30422606518148
 20
38.23606797749929
 11
-91.95308505601018
 21
36.52786404499976
 72
    1
 10
-91.95308505601018
 20
36.52786404499976
 11
-92.85114100916928
 21
33.76393202249903
 72
    1
 10
-92.85114100916928
 20
33.76393202249903
 11
-90.49999999999886
 21
35.47213595499868
 97
    0
 75
    0
 76
    1
 98
    0
  0
HATCH
  5
6D
100
AcDbEntity
  8
White
  6
ByLayer
 62
  256
370
   -1
100
AcDbHatch
 10
0
 20
0
 30
0
210
0
220
0
230
1
  2
SOLID
 70
    1
 71
    0
 91
    1
 92
    0
 93
   10
 72
    1
 10
-74.09999999999982
 20
35.47213595499944
 11
-71.74885899082975
 21
33.76393202250011
 72
    1
 10
-71.74885899082975
 20
33.76393202250011
 11
-72.64691494398924
 21
36.52786404500021
 72
    1
 10
-72.64691494398924
 20
36.52786404500021
 11
-70.29577393481775
 21
38.23606797750068
 72
    1
 10
-70.29577393481775
 20
38.23606797750068
 11
-73.20194404684125
 21
38.23606797750028
 72
    1
 10
-73.20194404684125
 20
38.23606797750028
 11
-74.10000000000002
 21
40.99999999999922
 72
    1
 10
-74.10000000000002
 20
40.99999999999922
 11
-74.99805595315905
 21
38.23606797750004
 72
    1
 10
-74.99805595315905
 20
38.23606797750004
 11
-77.90422606518244
 21
38.23606797750004
 72
    1
 10
-77.90422606518244
 20
38.23606797750004
 11
-75.55308505601114
 21
36.52786404500051
 72
    1
 10
-75.55308505601114
 20
36.52786404500051
 11
-76.45114100917024
 21
33.76393202249979
 72
    1
 10
-76.45114100917024
 20
33.76393202249979
 11
-74.09999999999982
 21
35.47213595499944
 97
    0
 75
    0
 76
    1
 98
    0
  0
HATCH
  5
6E
100
AcDbEntity
  8
White
  6
ByLayer
 62
  256
370
   -1
100
AcDbHatch
 10
0
 20
0
 30
0
210
0
220
0
230
1
  2
SOLID
 70
    1
 71
    0
 91
    1
 92
    0
 93
   10
 72
    1
 10
-57.70000000000079
 20
35.4721359550002
 11
-55.34885899083071
 21
33.76393202250087
 72
    1
 10
-55.34885899083071
 20
33.76393202250087
 11
-56.24691494399021
 21
36.52786404500097
 72
    1
 10
-56.24691494399021
 20
36.52786404500097
 11
-53.89577393481871
 21
38.23606797750143
 72
    1
 10
-53.89577393481871
 20
38.23606797750143
 11
-56.80194404684222
 21
38.23606797750104
 72
    1
 10
-56.80194404684222
 20
38.23606797750104
 11
-57.70000000000099
 21
40.99999999999997
 72
    1
 10
-57.70000000000099
 20
40.99999999999997
 11
-58.59805595316001
 21
38.2360679775008
 72
    1
 10
-58.59805595316001
 20
38.2360679775008
 11
-61.5042260651834
 21
38.2360679775008
 72
    1
 10
-61.5042260651834
 20
38.2360679775008
 11
-59.1530850560121
 21
36.52786404500127
 72
    1
 10
-59.1530850560121
 20
36.52786404500127
 11
-60.0511410091712
 21
33.76393202250054
 72
    1
 10
-60.0511410091712
 20
33.76393202250054
 11
-57.70000000000079
 21
35.4721359550002
 97
    0
 75
    0
 76
    1
 98
    0
  0
HATCH
  5
6F
100
AcDbEntity
  8
White
  6
ByLayer
 62
  256
370
   -1
100
AcDbHatch
 10
0
 20
0
 30
0
210
0
220
0
230
1
  2
SOLID
 70
    1
 71
    0
 91
    1
 92
    0
 93
   10
 72
    1
 10
-41.30000000000175
 20
35.47213595500095
 11
-38.94885899083167
 21
33.76393202250162
 72
    1
 10
-38.94885899083167
 20
33.76393202250162
 11
-39.84691494399117
 21
36.52786404500172
 72
    1
 10
-39.84691494399117
 20
36.52786404500172
 11
-37.49577393481967
 21
38.2360679775022
 72
    1
 10
-37.49577393481967
 20
38.2360679775022
 11
-40.40194404684318
 21
38.23606797750179
 72
    1
 10
-40.40194404684318
 20
38.23606797750179
 11
-41.30000000000195
 21
41.00000000000074
 72
    1
 10
-41.30000000000195
 20
41.00000000000074
 11
-42.19805595316097
 21
38.23606797750156
 72
    1
 10
-42.19805595316097
 20
38.23606797750156
 11
-45.10422606518436
 21
38.23606797750156
 72
    1
 10
-45.10422606518436
 20
38.23606797750156
 11
-42.75308505601306
 21
36.52786404500203
 72
    1
 10
-42.75308505601306
 20
36.52786404500203
 11
-43.65114100917216
 21
33.76393202250131
 72
    1
 10
-43.65114100917216
 20
33.76393202250131
 11
-41.30000000000175
 21
35.47213595500095
 97
    0
 75
    0
 76
    1
 98
    0
  0
HATCH
  5
70
100
AcDbEntity
  8
White
  6
ByLayer
 62
  256
370
   -1
100
AcDbHatch
 10
0
 20
0
 30
0
210
0
220
0
230
1
  2
SOLID
 70
    1
 71
    0
 91
    1
 92
    0
 93
   10
 72
    1
 10
-41.30000000000081
 20
21.4721359550002
 11
-38.94885899083073
 21
19.76393202250087
 72
    1
 10
-38.94885899083073
 20
19.76393202250087
 11
-39.84691494399023
 21
22.52786404500097
 72
    1
 10
-39.84691494399023
 20
22.52786404500097
 11
-37.49577393481873
 21
24.23606797750144
 72
    1
 10
-37.49577393481873
 20
24.23606797750144
 11
-40.40194404684224
 21
24.23606797750104
 72
    1
 10
-40.40194404684224
 20
24.23606797750104
 11
-41.30000000000101
 21
26.99999999999998
 72
    1
 10
-41.30000000000101
 20
26.99999999999998
 11
-42.19805595316003
 21
24.2360679775008
 72
    1
 10
-42.19805595316003
 20
24.2360679775008
 11
-45.10422606518343
 21
24.2360679775008
 72
    1
 10
-45.10422606518343
 20
24.2360679775008
 11
-42.75308505601213
 21
22.52786404500127
 72
    1
 10
-42.75308505601213
 20
22.52786404500127
 11
-43.65114100917123
 21
19.76393202250055
 72
    1
 10
-43.65114100917123
 20
19.76393202250055
 11
-41.30000000000081
 21
21.4721359550002
 97
    0
 75
    0
 76
    1
 98
    0
  0
HATCH
  5
71
100
AcDbEntity
  8
White
  6
ByLayer
 62
  256
370
   -1
100
AcDbHatch
 10
0
 20
0
 30
0
210
0
220
0
230
1
  2
SOLID
 70
    1
 71
    0
 91
    1
 92
    0
 93
   10
 72
    1
 10
-57.69999999999985
 20
21.47213595499944
 11
-55.34885899082977
 21
19.76393202250011
 72
    1
 10
-55.34885899082977
 20
19.76393202250011
 11
-56.24691494398927
 21
22.52786404500021
 72
    1
 10
-56.24691494398927
 20
22.52786404500021
 11
-53.89577393481777
 21
24.23606797750068
 72
    1
 10
-53.89577393481777
 20
24.23606797750068
 11
-56.80194404684128
 21
24.23606797750028
 72
    1
 10
-56.80194404684128
 20
24.23606797750028
 11
-57.70000000000005
 21
26.99999999999922
 72
    1
 10
-57.70000000000005
 20
26.99999999999922
 11
-58.59805595315907
 21
24.23606797750004
 72
    1
 10
-58.59805595315907
 20
24.23606797750004
 11
-61.50422606518246
 21
24.23606797750004
 72
    1
 10
-61.50422606518246
 20
24.23606797750004
 11
-59.15308505601116
 21
22.52786404500051
 72
    1
 10
-59.15308505601116
 20
22.52786404500051
 11
-60.05114100917027
 21
19.76393202249979
 72
    1
 10
-60.05114100917027
 20
19.76393202249979
 11
-57.69999999999985
 21
21.47213595499944
 97
    0
 75
    0
 76
    1
 98
    0
  0
HATCH
  5
72
100
AcDbEntity
  8
White
  6
ByLayer
 62
  256
370
   -1
100
AcDbHatch
 10
0
 20
0
 30
0
210
0
220
0
230
1
  2
SOLID
 70
    1
 71
    0
 91
    1
 92
    0
 93
   10
 72
    1
 10
-74.09999999999889
 20
21.47213595499868
 11
-71.74885899082881
 21
19.76393202249935
 72
    1
 10
-71.74885899082881
 20
19.76393202249935
 11
-72.64691494398831
 21
22.52786404499945
 72
    1
 10
-72.64691494398831
 20
22.52786404499945
 11
-70.29577393481681
 21
24.23606797749993
 72
    1
 10
-70.29577393481681
 20
24.23606797749993
 11
-73.20194404684031
 21
24.23606797749952
 72
    1
 10
-73.20194404684031
 20
24.23606797749952
 11
-74.09999999999908
 21
26.99999999999847
 72
    1
 10
-74.09999999999908
 20
26.99999999999847
 11
-74.99805595315812
 21
24.23606797749929
 72
    1
 10
-74.99805595315812
 20
24.23606797749929
 11
-77.9042260651815
 21
24.23606797749929
 72
    1
 10
-77.9042260651815
 20
24.23606797749929
 11
-75.5530850560102
 21
22.52786404499976
 72
    1
 10
-75.5530850560102
 20
22.52786404499976
 11
-76.45114100916931
 21
19.76393202249903
 72
    1
 10
-76.45114100916931
 20
19.76393202249903
 11
-74.09999999999889
 21
21.47213595499868
 97
    0
 75
    0
 76
    1
 98
    0
  0
HATCH
  5
73
100
AcDbEntity
  8
White
  6
ByLayer
 62
  256
370
   -1
100
AcDbHatch
 10
0
 20
0
 30
0
210
0
220
0
230
1
  2
SOLID
 70
    1
 71
    0
 91
    1
 92
    0
 93
   10
 72
    1
 10
-90.49999999999793
 20
21.47213595499792
 11
-88.14885899082785
 21
19.76393202249859
 72
    1
 10
-88.14885899082785
 20
19.76393202249859
 11
-89.04691494398735
 21
22.52786404499869
 72
    1
 10
-89.04691494398735
 20
22.52786404499869
 11
-86.69577393481585
 21
24.23606797749917
 72
    1
 10
-86.69577393481585
 20
24.23606797749917
 11
-89.60194404683935
 21
24.23606797749876
 72
    1
 10
-89.60194404683935
 20
24.23606797749876
 11
-90.49999999999812
 21
26.9999999999977
 72
    1
 10
-90.49999999999812
 20
26.9999999999977
 11
-91.39805595315715
 21
24.23606797749853
 72
    1
 10
-91.39805595315715
 20
24.23606797749853
 11
-94.30422606518054
 21
24.23606797749853
 72
    1
 10
-94.30422606518054
 20
24.23606797749853
 11
-91.95308505600924
 21
22.527864044999
 72
    1
 10
-91.95308505600924
 20
22.527864044999
 11
-92.85114100916834
 21
19.76393202249827
 72
    1
 10
-92.85114100916834
 20
19.76393202249827
 11
-90.49999999999793
 21
21.47213595499792
 97
    0
 75
    0
 76
    1
 98
    0
  0
HATCH
  5
74
100
AcDbEntity
  8
White
  6
ByLayer
 62
  256
370
   -1
100
AcDbHatch
 10
0
 20
0
 30
0
210
0
220
0
230
1
  2
SOLID
 70
    1
 71
    0
 91
    1
 92
    0
 93
   10
 72
    1
 10
-106.899999999997
 20
21.47213595499717
 11
-104.5488589908269
 21
19.76393202249784
 72
    1
 10
-104.5488589908269
 20
19.76393202249784
 11
-105.4469149439864
 21
22.52786404499794
 72
    1
 10
-105.4469149439864
 20
22.52786404499794
 11
-103.0957739348149
 21
24.23606797749841
 72
    1
 10
-103.0957739348149
 20
24.23606797749841
 11
-106.0019440468384
 21
24.23606797749801
 72
    1
 10
-106.0019440468384
 20
24.23606797749801
 11
-106.8999999999972
 21
26.99999999999695
 72
    1
 10
-106.8999999999972
 20
26.99999999999695
 11
-107.7980559531562
 21
24.23606797749777
 72
    1
 10
-107.7980559531562
 20
24.23606797749777
 11
-110.7042260651796
 21
24.23606797749777
 72
    1
 10
-110.7042260651796
 20
24.23606797749777
 11
-108.3530850560083
 21
22.52786404499824
 72
    1
 10
-108.3530850560083
 20
22.52786404499824
 11
-109.2511410091674
 21
19.76393202249752
 72
    1
 10
-109.2511410091674
 20
19.76393202249752
 11
-106.899999999997
 21
21.47213595499717
 97
    0
 75
    0
 76
    1
 98
    0
  0
HATCH
  5
75
100
AcDbEntity
  8
White
  6
ByLayer
 62
  256
370
   -1
100
AcDbHatch
 10
0
 20
0
 30
0
210
0
220
0
230
1
  2
SOLID
 70
    1
 71
    0
 91
    1
 92
    0
 93
   10
 72
    1
 10
-115.099999999997
 20
28.47213595499717
 11
-112.7488589908269
 21
26.76393202249784
 72
    1
 10
-112.7488589908269
 20
26.76393202249784
 11
-113.6469149439864
 21
29.52786404499794
 72
    1
 10
-113.6469149439864
 20
29.52786404499794
 11
-111.2957739348149
 21
31.23606797749841
 72
    1
 10
-111.2957739348149
 20
31.23606797749841
 11
-114.2019440468384
 21
31.23606797749801
 72
    1
 10
-114.2019440468384
 20
31.23606797749801
 11
-115.0999999999972
 21
33.99999999999695
 72
    1
 10
-115.0999999999972
 20
33.99999999999695
 11
-115.9980559531562
 21
31.23606797749777
 72
    1
 10
-115.9980559531562
 20
31.23606797749777
 11
-118.9042260651796
 21
31.23606797749777
 72
    1
 10
-118.9042260651796
 20
31.23606797749777
 11
-116.5530850560083
 21
29.52786404499824
 72
    1
 10
-116.5530850560083
 20
29.52786404499824
 11
-117.4511410091674
 21
26.76393202249751
 72
    1
 10
-117.4511410091674
 20
26.76393202249751
 11
-115.099999999997
 21
28.47213595499717
 97
    0
 75
    0
 76
    1
 98
    0
  0
HATCH
  5
76
100
AcDbEntity
  8
White
  6
ByLayer
 62
  256
370
   -1
100
AcDbHatch
 10
0
 20
0
 30
0
210
0
220
0
230
1
  2
SOLID
 70
    1
 71
    0
 91
    1
 92
    0
 93
   10
 72
    1
 10
-98.69999999999791
 20
28.47213595499792
 11
-96.34885899082784
 21
26.76393202249859
 72
    1
 10
-96.34885899082784
 20
26.76393202249859
 11
-97.24691494398733
 21
29.52786404499869
 72
    1
 10
-97.24691494398733
 20
29.52786404499869
 11
-94.89577393481584
 21
31.23606797749917
 72
    1
 10
-94.89577393481584
 20
31.23606797749917
 11
-97.80194404683934
 21
31.23606797749876
 72
    1
 10
-97.80194404683934
 20
31.23606797749876
 11
-98.69999999999811
 21
33.9999999999977
 72
    1
 10
-98.69999999999811
 20
33.9999999999977
 11
-99.59805595315714
 21
31.23606797749853
 72
    1
 10
-99.59805595315714
 20
31.23606797749853
 11
-102.5042260651805
 21
31.23606797749853
 72
    1
 10
-102.5042260651805
 20
31.23606797749853
 11
-100.1530850560092
 21
29.527864044999
 72
    1
 10
-100.1530850560092
 20
29.527864044999
 11
-101.0511410091683
 21
26.76393202249827
 72
    1
 10
-101.0511410091683
 20
26.76393202249827
 11
-98.69999999999791
 21
28.47213595499792
 97
    0
 75
    0
 76
    1
 98
    0
  0
HATCH
  5
77
100
AcDbEntity
  8
White
  6
ByLayer
 62
  256
370
   -1
100
AcDbHatch
 10
0
 20
0
 30
0
210
0
220
0
230
1
  2
SOLID
 70
    1
 71
    0
 91
    1
 92
    0
 93
   10
 72
    1
 10
-82.29999999999887
 20
28.47213595499868
 11
-79.9488589908288
 21
26.76393202249935
 72
    1
 10
-79.9488589908288
 20
26.76393202249935
 11
-80.8469149439883
 21
29.52786404499945
 72
    1
 10
-80.8469149439883
 20
29.52786404499945
 11
-78.4957739348168
 21
31.23606797749993
 72
    1
 10
-78.4957739348168
 20
31.23606797749993
 11
-81.4019440468403
 21
31.23606797749952
 72
    1
 10
-81.4019440468403
 20
31.23606797749952
 11
-82.29999999999907
 21
33.99999999999847
 72
    1
 10
-82.29999999999907
 20
33.99999999999847
 11
-83.1980559531581
 21
31.23606797749929
 72
    1
 10
-83.1980559531581
 20
31.23606797749929
 11
-86.10422606518149
 21
31.23606797749929
 72
    1
 10
-86.10422606518149
 20
31.23606797749929
 11
-83.75308505601019
 21
29.52786404499976
 72
    1
 10
-83.75308505601019
 20
29.52786404499976
 11
-84.65114100916929
 21
26.76393202249903
 72
    1
 10
-84.65114100916929
 20
26.76393202249903
 11
-82.29999999999887
 21
28.47213595499868
 97
    0
 75
    0
 76
    1
 98
    0
  0
HATCH
  5
78
100
AcDbEntity
  8
White
  6
ByLayer
 62
  256
370
   -1
100
AcDbHatch
 10
0
 20
0
 30
0
210
0
220
0
230
1
  2
SOLID
 70
    1
 71
    0
 91
    1
 92
    0
 93
   10
 72
    1
 10
-65.89999999999984
 20
28.47213595499944
 11
-63.54885899082976
 21
26.76393202250011
 72
    1
 10
-63.54885899082976
 20
26.76393202250011
 11
-64.44691494398926
 21
29.52786404500021
 72
    1
 10
-64.44691494398926
 20
29.52786404500021
 11
-62.09577393481776
 21
31.23606797750068
 72
    1
 10
-62.09577393481776
 20
31.23606797750068
 11
-65.00194404684126
 21
31.23606797750028
 72
    1
 10
-65.00194404684126
 20
31.23606797750028
 11
-65.90000000000003
 21
33.99999999999922
 72
    1
 10
-65.90000000000003
 20
33.99999999999922
 11
-66.79805595315906
 21
31.23606797750004
 72
    1
 10
-66.79805595315906
 20
31.23606797750004
 11
-69.70422606518245
 21
31.23606797750004
 72
    1
 10
-69.70422606518245
 20
31.23606797750004
 11
-67.35308505601115
 21
29.52786404500051
 72
    1
 10
-67.35308505601115
 20
29.52786404500051
 11
-68.25114100917025
 21
26.76393202249979
 72
    1
 10
-68.25114100917025
 20
26.76393202249979
 11
-65.89999999999984
 21
28.47213595499944
 97
    0
 75
    0
 76
    1
 98
    0
  0
HATCH
  5
79
100
AcDbEntity
  8
White
  6
ByLayer
 62
  256
370
   -1
100
AcDbHatch
 10
0
 20
0
 30
0
210
0
220
0
230
1
  2
SOLID
 70
    1
 71
    0
 91
    1
 92
    0
 93
   10
 72
    1
 10
-49.5000000000008
 20
28.4721359550002
 11
-47.14885899083072
 21
26.76393202250087
 72
    1
 10
-47.14885899083072
 20
26.76393202250087
 11
-48.04691494399022
 21
29.52786404500097
 72
    1
 10
-48.04691494399022
 20
29.52786404500097
 11
-45.69577393481872
 21
31.23606797750144
 72
    1
 10
-45.69577393481872
 20
31.23606797750144
 11
-48.60194404684223
 21
31.23606797750104
 72
    1
 10
-48.60194404684223
 20
31.23606797750104
 11
-49.500000000001
 21
33.99999999999998
 72
    1
 10
-49.500000000001
 20
33.99999999999998
 11
-50.39805595316002
 21
31.2360679775008
 72
    1
 10
-50.39805595316002
 20
31.2360679775008
 11
-53.30422606518341
 21
31.2360679775008
 72
    1
 10
-53.30422606518341
 20
31.2360679775008
 11
-50.95308505601211
 21
29.52786404500127
 72
    1
 10
-50.95308505601211
 20
29.52786404500127
 11
-51.85114100917122
 21
26.76393202250055
 72
    1
 10
-51.85114100917122
 20
26.76393202250055
 11
-49.5000000000008
 21
28.4721359550002
 97
    0
 75
    0
 76
    1
 98
    0
  0
HATCH
  5
7A
100
AcDbEntity
  8
White
  6
ByLayer
 62
  256
370
   -1
100
AcDbHatch
 10
0
 20
0
 30
0
210
0
220
0
230
1
  2
SOLID
 70
    1
 71
    0
 91
    1
 92
    0
 93
   10
 72
    1
 10
-33.10000000000176
 20
28.47213595500095
 11
-30.74885899083167
 21
26.76393202250162
 72
    1
 10
-30.74885899083167
 20
26.76393202250162
 11
-31.64691494399118
 21
29.52786404500172
 72
    1
 10
-31.64691494399118
 20
29.52786404500172
 11
-29.29577393481967
 21
31.23606797750219
 72
    1
 10
-29.29577393481967
 20
31.23606797750219
 11
-32.20194404684319
 21
31.23606797750179
 72
    1
 10
-32.20194404684319
 20
31.23606797750179
 11
-33.10000000000196
 21
34.00000000000073
 72
    1
 10
-33.10000000000196
 20
34.00000000000073
 11
-33.99805595316098
 21
31.23606797750156
 72
    1
 10
-33.99805595316098
 20
31.23606797750156
 11
-36.90422606518437
 21
31.23606797750156
 72
    1
 10
-36.90422606518437
 20
31.23606797750156
 11
-34.55308505601307
 21
29.52786404500203
 72
    1
 10
-34.55308505601307
 20
29.52786404500203
 11
-35.45114100917218
 21
26.7639320225013
 72
    1
 10
-35.45114100917218
 20
26.7639320225013
 11
-33.10000000000176
 21
28.47213595500095
 97
    0
 75
    0
 76
    1
 98
    0
  0
HATCH
  5
7B
100
AcDbEntity
  8
White
  6
ByLayer
 62
  256
370
   -1
100
AcDbHatch
 10
0
 20
0
 30
0
210
0
220
0
230
1
  2
SOLID
 70
    1
 71
    0
 91
    1
 92
    0
 93
   10
 72
    1
 10
-33.10000000000083
 20
14.47213595500019
 11
-30.74885899083074
 21
12.76393202250086
 72
    1
 10
-30.74885899083074
 20
12.76393202250086
 11
-31.64691494399024
 21
15.52786404500096
 72
    1
 10
-31.64691494399024
 20
15.52786404500096
 11
-29.29577393481874
 21
17.23606797750144
 72
    1
 10
-29.29577393481874
 20
17.23606797750144
 11
-32.20194404684225
 21
17.23606797750103
 72
    1
 10
-32.20194404684225
 20
17.23606797750103
 11
-33.10000000000102
 21
19.99999999999998
 72
    1
 10
-33.10000000000102
 20
19.99999999999998
 11
-33.99805595316004
 21
17.2360679775008
 72
    1
 10
-33.99805595316004
 20
17.2360679775008
 11
-36.90422606518344
 21
17.2360679775008
 72
    1
 10
-36.90422606518344
 20
17.2360679775008
 11
-34.55308505601214
 21
15.52786404500127
 72
    1
 10
-34.55308505601214
 20
15.52786404500127
 11
-35.45114100917124
 21
12.76393202250054
 72
    1
 10
-35.45114100917124
 20
12.76393202250054
 11
-33.10000000000083
 21
14.47213595500019
 97
    0
 75
    0
 76
    1
 98
    0
  0
HATCH
  5
7C
100
AcDbEntity
  8
White
  6
ByLayer
 62
  256
370
   -1
100
AcDbHatch
 10
0
 20
0
 30
0
210
0
220
0
230
1
  2
SOLID
 70
    1
 71
    0
 91
    1
 92
    0
 93
   10
 72
    1
 10
-49.49999999999986
 20
14.47213595499944
 11
-47.14885899082978
 21
12.76393202250011
 72
    1
 10
-47.14885899082978
 20
12.76393202250011
 11
-48.04691494398928
 21
15.52786404500021
 72
    1
 10
-48.04691494398928
 20
15.52786404500021
 11
-45.69577393481778
 21
17.23606797750068
 72
    1
 10
-45.69577393481778
 20
17.23606797750068
 11
-48.60194404684129
 21
17.23606797750028
 72
    1
 10
-48.60194404684129
 20
17.23606797750028
 11
-49.50000000000006
 21
19.99999999999922
 72
    1
 10
-49.50000000000006
 20
19.99999999999922
 11
-50.39805595315908
 21
17.23606797750004
 72
    1
 10
-50.39805595315908
 20
17.23606797750004
 11
-53.30422606518248
 21
17.23606797750004
 72
    1
 10
-53.30422606518248
 20
17.23606797750004
 11
-50.95308505601118
 21
15.52786404500051
 72
    1
 10
-50.95308505601118
 20
15.52786404500051
 11
-51.85114100917028
 21
12.76393202249979
 72
    1
 10
-51.85114100917028
 20
12.76393202249979
 11
-49.49999999999986
 21
14.47213595499944
 97
    0
 75
    0
 76
    1
 98
    0
  0
HATCH
  5
7D
100
AcDbEntity
  8
White
  6
ByLayer
 62
  256
370
   -1
100
AcDbHatch
 10
0
 20
0
 30
0
210
0
220
0
230
1
  2
SOLID
 70
    1
 71
    0
 91
    1
 92
    0
 93
   10
 72
    1
 10
-65.8999999999989
 20
14.47213595499868
 11
-63.54885899082882
 21
12.76393202249935
 72
    1
 10
-63.54885899082882
 20
12.76393202249935
 11
-64.44691494398832
 21
15.52786404499945
 72
    1
 10
-64.44691494398832
 20
15.52786404499945
 11
-62.09577393481682
 21
17.23606797749992
 72
    1
 10
-62.09577393481682
 20
17.23606797749992
 11
-65.00194404684032
 21
17.23606797749952
 72
    1
 10
-65.00194404684032
 20
17.23606797749952
 11
-65.8999999999991
 21
19.99999999999846
 72
    1
 10
-65.8999999999991
 20
19.99999999999846
 11
-66.79805595315813
 21
17.23606797749929
 72
    1
 10
-66.79805595315813
 20
17.23606797749929
 11
-69.70422606518152
 21
17.23606797749929
 72
    1
 10
-69.70422606518152
 20
17.23606797749929
 11
-67.35308505601022
 21
15.52786404499976
 72
    1
 10
-67.35308505601022
 20
15.52786404499976
 11
-68.25114100916932
 21
12.76393202249903
 72
    1
 10
-68.25114100916932
 20
12.76393202249903
 11
-65.8999999999989
 21
14.47213595499868
 97
    0
 75
    0
 76
    1
 98
    0
  0
HATCH
  5
7E
100
AcDbEntity
  8
White
  6
ByLayer
 62
  256
370
   -1
100
AcDbHatch
 10
0
 20
0
 30
0
210
0
220
0
230
1
  2
SOLID
 70
    1
 71
    0
 91
    1
 92
    0
 93
   10
 72
    1
 10
-82.29999999999794
 20
14.47213595499792
 11
-79.94885899082786
 21
12.76393202249859
 72
    1
 10
-79.94885899082786
 20
12.76393202249859
 11
-80.84691494398736
 21
15.52786404499869
 72
    1
 10
-80.84691494398736
 20
15.52786404499869
 11
-78.49577393481586
 21
17.23606797749917
 72
    1
 10
-78.49577393481586
 20
17.23606797749917
 11
-81.40194404683936
 21
17.23606797749876
 72
    1
 10
-81.40194404683936
 20
17.23606797749876
 11
-82.29999999999814
 21
19.9999999999977
 72
    1
 10
-82.29999999999814
 20
19.9999999999977
 11
-83.19805595315717
 21
17.23606797749853
 72
    1
 10
-83.19805595315717
 20
17.23606797749853
 11
-86.10422606518055
 21
17.23606797749853
 72
    1
 10
-86.10422606518055
 20
17.23606797749853
 11
-83.75308505600925
 21
15.527864044999
 72
    1
 10
-83.75308505600925
 20
15.527864044999
 11
-84.65114100916836
 21
12.76393202249827
 72
    1
 10
-84.65114100916836
 20
12.76393202249827
 11
-82.29999999999794
 21
14.47213595499792
 97
    0
 75
    0
 76
    1
 98
    0
  0
HATCH
  5
7F
100
AcDbEntity
  8
White
  6
ByLayer
 62
  256
370
   -1
100
AcDbHatch
 10
0
 20
0
 30
0
210
0
220
0
230
1
  2
SOLID
 70
    1
 71
    0
 91
    1
 92
    0
 93
   10
 72
    1
 10
-98.69999999999698
 20
14.47213595499717
 11
-96.3488589908269
 21
12.76393202249784
 72
    1
 10
-96.3488589908269
 20
12.76393202249784
 11
-97.2469149439864
 21
15.52786404499794
 72
    1
 10
-97.2469149439864
 20
15.52786404499794
 11
-94.8957739348149
 21
17.23606797749841
 72
    1
 10
-94.8957739348149
 20
17.23606797749841
 11
-97.8019440468384
 21
17.23606797749801
 72
    1
 10
-97.8019440468384
 20
17.23606797749801
 11
-98.69999999999717
 21
19.99999999999694
 72
    1
 10
-98.69999999999717
 20
19.99999999999694
 11
-99.59805595315621
 21
17.23606797749777
 72
    1
 10
-99.59805595315621
 20
17.23606797749777
 11
-102.5042260651796
 21
17.23606797749777
 72
    1
 10
-102.5042260651796
 20
17.23606797749777
 11
-100.1530850560083
 21
15.52786404499824
 72
    1
 10
-100.1530850560083
 20
15.52786404499824
 11
-101.0511410091674
 21
12.76393202249752
 72
    1
 10
-101.0511410091674
 20
12.76393202249752
 11
-98.69999999999698
 21
14.47213595499717
 97
    0
 75
    0
 76
    1
 98
    0
  0
HATCH
  5
80
100
AcDbEntity
  8
White
  6
ByLayer
 62
  256
370
   -1
100
AcDbHatch
 10
0
 20
0
 30
0
210
0
220
0
230
1
  2
SOLID
 70
    1
 71
    0
 91
    1
 92
    0
 93
   10
 72
    1
 10
-115.099999999996
 20
14.47213595499641
 11
-112.7488589908259
 21
12.76393202249708
 72
    1
 10
-112.7488589908259
 20
12.76393202249708
 11
-113.6469149439854
 21
15.52786404499718
 72
    1
 10
-113.6469149439854
 20
15.52786404499718
 11
-111.2957739348139
 21
17.23606797749765
 72
    1
 10
-111.2957739348139
 20
17.23606797749765
 11
-114.2019440468374
 21
17.23606797749725
 72
    1
 10
-114.2019440468374
 20
17.23606797749725
 11
-115.0999999999962
 21
19.99999999999619
 72
    1
 10
-115.0999999999962
 20
19.99999999999619
 11
-115.9980559531552
 21
17.23606797749701
 72
    1
 10
-115.9980559531552
 20
17.23606797749701
 11
-118.9042260651786
 21
17.23606797749701
 72
    1
 10
-118.9042260651786
 20
17.23606797749701
 11
-116.5530850560073
 21
15.52786404499748
 72
    1
 10
-116.5530850560073
 20
15.52786404499748
 11
-117.4511410091664
 21
12.76393202249676
 72
    1
 10
-117.4511410091664
 20
12.76393202249676
 11
-115.099999999996
 21
14.47213595499641
 97
    0
 75
    0
 76
    1
 98
    0
  0
HATCH
  5
81
100
AcDbEntity
  8
White
  6
ByLayer
 62
  256
370
   -1
100
AcDbHatch
 10
0
 20
0
 30
0
210
0
220
0
230
1
  2
SOLID
 70
    1
 71
    0
 91
    1
 92
    0
 93
   10
 72
    1
 10
-115.0999999999951
 20
0.4721359549956516
 11
-112.748858990825
 21
-1.236067977503679
 72
    1
 10
-112.748858990825
 20
-1.236067977503679
 11
-113.6469149439845
 21
1.527864044996421
 72
    1
 10
-113.6469149439845
 20
1.527864044996421
 11
-111.295773934813
 21
3.236067977496896
 72
    1
 10
-111.295773934813
 20
3.236067977496896
 11
-114.2019440468365
 21
3.236067977496491
 72
    1
 10
-114.2019440468365
 20
3.236067977496491
 11
-115.0999999999953
 21
5.999999999995433
 72
    1
 10
-115.0999999999953
 20
5.999999999995433
 11
-115.9980559531543
 21
3.236067977496256
 72
    1
 10
-115.9980559531543
 20
3.236067977496256
 11
-118.9042260651777
 21
3.236067977496256
 72
    1
 10
-118.9042260651777
 20
3.236067977496256
 11
-116.5530850560064
 21
1.527864044996727
 72
    1
 10
-116.5530850560064
 20
1.527864044996727
 11
-117.4511410091655
 21
-1.236067977503999
 72
    1
 10
-117.4511410091655
 20
-1.236067977503999
 11
-115.0999999999951
 21
0.4721359549956516
 97
    0
 75
    0
 76
    1
 98
    0
  0
HATCH
  5
82
100
AcDbEntity
  8
White
  6
ByLayer
 62
  256
370
   -1
100
AcDbHatch
 10
0
 20
0
 30
0
210
0
220
0
230
1
  2
SOLID
 70
    1
 71
    0
 91
    1
 92
    0
 93
   10
 72
    1
 10
-98.69999999999604
 20
0.4721359549964088
 11
-96.34885899082596
 21
-1.236067977502922
 72
    1
 10
-96.34885899082596
 20
-1.236067977502922
 11
-97.24691494398546
 21
1.527864044997178
 72
    1
 10
-97.24691494398546
 20
1.527864044997178
 11
-94.89577393481396
 21
3.236067977497653
 72
    1
 10
-94.89577393481396
 20
3.236067977497653
 11
-97.80194404683746
 21
3.236067977497248
 72
    1
 10
-97.80194404683746
 20
3.236067977497248
 11
-98.69999999999624
 21
5.99999999999619
 72
    1
 10
-98.69999999999624
 20
5.99999999999619
 11
-99.59805595315527
 21
3.236067977497013
 72
    1
 10
-99.59805595315527
 20
3.236067977497013
 11
-102.5042260651787
 21
3.236067977497013
 72
    1
 10
-102.5042260651787
 20
3.236067977497013
 11
-100.1530850560074
 21
1.527864044997484
 72
    1
 10
-100.1530850560074
 20
1.527864044997484
 11
-101.0511410091665
 21
-1.236067977503242
 72
    1
 10
-101.0511410091665
 20
-1.236067977503242
 11
-98.69999999999604
 21
0.4721359549964088
 97
    0
 75
    0
 76
    1
 98
    0
  0
HATCH
  5
83
100
AcDbEntity
  8
White
  6
ByLayer
 62
  256
370
   -1
100
AcDbHatch
 10
0
 20
0
 30
0
210
0
220
0
230
1
  2
SOLID
 70
    1
 71
    0
 91
    1
 92
    0
 93
   10
 72
    1
 10
-106.899999999996
 20
7.472135954996409
 11
-104.5488589908259
 21
5.763932022497078
 72
    1
 10
-104.5488589908259
 20
5.763932022497078
 11
-105.4469149439854
 21
8.527864044997179
 72
    1
 10
-105.4469149439854
 20
8.527864044997179
 11
-103.0957739348139
 21
10.23606797749765
 72
    1
 10
-103.0957739348139
 20
10.23606797749765
 11
-106.0019440468375
 21
10.23606797749725
 72
    1
 10
-106.0019440468375
 20
10.23606797749725
 11
-106.8999999999962
 21
12.99999999999619
 72
    1
 10
-106.8999999999962
 20
12.99999999999619
 11
-107.7980559531553
 21
10.23606797749701
 72
    1
 10
-107.7980559531553
 20
10.23606797749701
 11
-110.7042260651786
 21
10.23606797749701
 72
    1
 10
-110.7042260651786
 20
10.23606797749701
 11
-108.3530850560073
 21
8.527864044997484
 72
    1
 10
-108.3530850560073
 20
8.527864044997484
 11
-109.2511410091664
 21
5.763932022496759
 72
    1
 10
-109.2511410091664
 20
5.763932022496759
 11
-106.899999999996
 21
7.472135954996409
 97
    0
 75
    0
 76
    1
 98
    0
  0
HATCH
  5
84
100
AcDbEntity
  8
White
  6
ByLayer
 62
  256
370
   -1
100
AcDbHatch
 10
0
 20
0
 30
0
210
0
220
0
230
1
  2
SOLID
 70
    1
 71
    0
 91
    1
 92
    0
 93
   10
 72
    1
 10
-82.299999999997
 20
0.472135954997166
 11
-79.94885899082692
 21
-1.236067977502165
 72
    1
 10
-79.94885899082692
 20
-1.236067977502165
 11
-80.84691494398642
 21
1.527864044997935
 72
    1
 10
-80.84691494398642
 20
1.527864044997935
 11
-78.49577393481492
 21
3.23606797749841
 72
    1
 10
-78.49577393481492
 20
3.23606797749841
 11
-81.40194404683842
 21
3.236067977498005
 72
    1
 10
-81.40194404683842
 20
3.236067977498005
 11
-82.2999999999972
 21
5.999999999996946
 72
    1
 10
-82.2999999999972
 20
5.999999999996946
 11
-83.19805595315623
 21
3.236067977497771
 72
    1
 10
-83.19805595315623
 20
3.236067977497771
 11
-86.10422606517962
 21
3.236067977497771
 72
    1
 10
-86.10422606517962
 20
3.236067977497771
 11
-83.75308505600832
 21
1.527864044998241
 72
    1
 10
-83.75308505600832
 20
1.527864044998241
 11
-84.65114100916742
 21
-1.236067977502485
 72
    1
 10
-84.65114100916742
 20
-1.236067977502485
 11
-82.299999999997
 21
0.472135954997166
 97
    0
 75
    0
 76
    1
 98
    0
  0
HATCH
  5
85
100
AcDbEntity
  8
White
  6
ByLayer
 62
  256
370
   -1
100
AcDbHatch
 10
0
 20
0
 30
0
210
0
220
0
230
1
  2
SOLID
 70
    1
 71
    0
 91
    1
 92
    0
 93
   10
 72
    1
 10
-90.49999999999699
 20
7.472135954997166
 11
-88.14885899082691
 21
5.763932022497835
 72
    1
 10
-88.14885899082691
 20
5.763932022497835
 11
-89.04691494398641
 21
8.527864044997935
 72
    1
 10
-89.04691494398641
 20
8.527864044997935
 11
-86.69577393481491
 21
10.23606797749841
 72
    1
 10
-86.69577393481491
 20
10.23606797749841
 11
-89.60194404683841
 21
10.236067977498
 72
    1
 10
-89.60194404683841
 20
10.236067977498
 11
-90.49999999999719
 21
12.99999999999695
 72
    1
 10
-90.49999999999719
 20
12.99999999999695
 11
-91.39805595315622
 21
10.23606797749777
 72
    1
 10
-91.39805595315622
 20
10.23606797749777
 11
-94.30422606517961
 21
10.23606797749777
 72
    1
 10
-94.30422606517961
 20
10.23606797749777
 11
-91.95308505600831
 21
8.527864044998241
 72
    1
 10
-91.95308505600831
 20
8.527864044998241
 11
-92.85114100916741
 21
5.763932022497515
 72
    1
 10
-92.85114100916741
 20
5.763932022497515
 11
-90.49999999999699
 21
7.472135954997166
 97
    0
 75
    0
 76
    1
 98
    0
  0
HATCH
  5
86
100
AcDbEntity
  8
White
  6
ByLayer
 62
  256
370
   -1
100
AcDbHatch
 10
0
 20
0
 30
0
210
0
220
0
230
1
  2
SOLID
 70
    1
 71
    0
 91
    1
 92
    0
 93
   10
 72
    1
 10
-65.89999999999796
 20
0.4721359549979232
 11
-63.54885899082788
 21
-1.236067977501407
 72
    1
 10
-63.54885899082788
 20
-1.236067977501407
 11
-64.44691494398738
 21
1.527864044998693
 72
    1
 10
-64.44691494398738
 20
1.527864044998693
 11
-62.09577393481588
 21
3.236067977499168
 72
    1
 10
-62.09577393481588
 20
3.236067977499168
 11
-65.00194404683938
 21
3.236067977498763
 72
    1
 10
-65.00194404683938
 20
3.236067977498763
 11
-65.89999999999816
 21
5.999999999997704
 72
    1
 10
-65.89999999999816
 20
5.999999999997704
 11
-66.79805595315719
 21
3.236067977498528
 72
    1
 10
-66.79805595315719
 20
3.236067977498528
 11
-69.70422606518058
 21
3.236067977498528
 72
    1
 10
-69.70422606518058
 20
3.236067977498528
 11
-67.35308505600928
 21
1.527864044998999
 72
    1
 10
-67.35308505600928
 20
1.527864044998999
 11
-68.25114100916838
 21
-1.236067977501727
 72
    1
 10
-68.25114100916838
 20
-1.236067977501727
 11
-65.89999999999796
 21
0.4721359549979232
 97
    0
 75
    0
 76
    1
 98
    0
  0
HATCH
  5
87
100
AcDbEntity
  8
White
  6
ByLayer
 62
  256
370
   -1
100
AcDbHatch
 10
0
 20
0
 30
0
210
0
220
0
230
1
  2
SOLID
 70
    1
 71
    0
 91
    1
 92
    0
 93
   10
 72
    1
 10
-74.09999999999795
 20
7.472135954997923
 11
-71.74885899082787
 21
5.763932022498593
 72
    1
 10
-71.74885899082787
 20
5.763932022498593
 11
-72.64691494398737
 21
8.527864044998694
 72
    1
 10
-72.64691494398737
 20
8.527864044998694
 11
-70.29577393481587
 21
10.23606797749917
 72
    1
 10
-70.29577393481587
 20
10.23606797749917
 11
-73.20194404683937
 21
10.23606797749876
 72
    1
 10
-73.20194404683937
 20
10.23606797749876
 11
-74.09999999999815
 21
12.9999999999977
 72
    1
 10
-74.09999999999815
 20
12.9999999999977
 11
-74.99805595315718
 21
10.23606797749853
 72
    1
 10
-74.99805595315718
 20
10.23606797749853
 11
-77.90422606518057
 21
10.23606797749853
 72
    1
 10
-77.90422606518057
 20
10.23606797749853
 11
-75.55308505600927
 21
8.527864044998999
 72
    1
 10
-75.55308505600927
 20
8.527864044998999
 11
-76.45114100916837
 21
5.763932022498273
 72
    1
 10
-76.45114100916837
 20
5.763932022498273
 11
-74.09999999999795
 21
7.472135954997923
 97
    0
 75
    0
 76
    1
 98
    0
  0
HATCH
  5
88
100
AcDbEntity
  8
White
  6
ByLayer
 62
  256
370
   -1
100
AcDbHatch
 10
0
 20
0
 30
0
210
0
220
0
230
1
  2
SOLID
 70
    1
 71
    0
 91
    1
 92
    0
 93
   10
 72
    1
 10
-49.49999999999893
 20
0.4721359549986803
 11
-47.14885899082884
 21
-1.23606797750065
 72
    1
 10
-47.14885899082884
 20
-1.23606797750065
 11
-48.04691494398834
 21
1.52786404499945
 72
    1
 10
-48.04691494398834
 20
1.52786404499945
 11
-45.69577393481684
 21
3.236067977499925
 72
    1
 10
-45.69577393481684
 20
3.236067977499925
 11
-48.60194404684035
 21
3.23606797749952
 72
    1
 10
-48.60194404684035
 20
3.23606797749952
 11
-49.49999999999913
 21
5.999999999998462
 72
    1
 10
-49.49999999999913
 20
5.999999999998462
 11
-50.39805595315814
 21
3.236067977499285
 72
    1
 10
-50.39805595315814
 20
3.236067977499285
 11
-53.30422606518154
 21
3.236067977499285
 72
    1
 10
-53.30422606518154
 20
3.236067977499285
 11
-50.95308505601024
 21
1.527864044999756
 72
    1
 10
-50.95308505601024
 20
1.527864044999756
 11
-51.85114100916934
 21
-1.23606797750097
 72
    1
 10
-51.85114100916934
 20
-1.23606797750097
 11
-49.49999999999893
 21
0.4721359549986803
 97
    0
 75
    0
 76
    1
 98
    0
  0
HATCH
  5
89
100
AcDbEntity
  8
White
  6
ByLayer
 62
  256
370
   -1
100
AcDbHatch
 10
0
 20
0
 30
0
210
0
220
0
230
1
  2
SOLID
 70
    1
 71
    0
 91
    1
 92
    0
 93
   10
 72
    1
 10
-57.69999999999892
 20
7.472135954998681
 11
-55.34885899082883
 21
5.76393202249935
 72
    1
 10
-55.34885899082883
 20
5.76393202249935
 11
-56.24691494398833
 21
8.52786404499945
 72
    1
 10
-56.24691494398833
 20
8.52786404499945
 11
-53.89577393481683
 21
10.23606797749992
 72
    1
 10
-53.89577393481683
 20
10.23606797749992
 11
-56.80194404684034
 21
10.23606797749952
 72
    1
 10
-56.80194404684034
 20
10.23606797749952
 11
-57.69999999999911
 21
12.99999999999846
 72
    1
 10
-57.69999999999911
 20
12.99999999999846
 11
-58.59805595315813
 21
10.23606797749929
 72
    1
 10
-58.59805595315813
 20
10.23606797749929
 11
-61.50422606518153
 21
10.23606797749929
 72
    1
 10
-61.50422606518153
 20
10.23606797749929
 11
-59.15308505601023
 21
8.527864044999756
 72
    1
 10
-59.15308505601023
 20
8.527864044999756
 11
-60.05114100916933
 21
5.763932022499031
 72
    1
 10
-60.05114100916933
 20
5.763932022499031
 11
-57.69999999999892
 21
7.472135954998681
 97
    0
 75
    0
 76
    1
 98
    0
  0
HATCH
  5
8A
100
AcDbEntity
  8
White
  6
ByLayer
 62
  256
370
   -1
100
AcDbHatch
 10
0
 20
0
 30
0
210
0
220
0
230
1
  2
SOLID
 70
    1
 71
    0
 91
    1
 92
    0
 93
   10
 72
    1
 10
-41.29999999999988
 20
7.472135954999438
 11
-38.94885899082979
 21
5.763932022500107
 72
    1
 10
-38.94885899082979
 20
5.763932022500107
 11
-39.84691494398929
 21
8.527864045000207
 72
    1
 10
-39.84691494398929
 20
8.527864045000207
 11
-37.49577393481779
 21
10.23606797750068
 72
    1
 10
-37.49577393481779
 20
10.23606797750068
 11
-40.4019440468413
 21
10.23606797750028
 72
    1
 10
-40.4019440468413
 20
10.23606797750028
 11
-41.30000000000008
 21
12.99999999999922
 72
    1
 10
-41.30000000000008
 20
12.99999999999922
 11
-42.19805595315909
 21
10.23606797750004
 72
    1
 10
-42.19805595315909
 20
10.23606797750004
 11
-45.10422606518249
 21
10.23606797750004
 72
    1
 10
-45.10422606518249
 20
10.23606797750004
 11
-42.75308505601119
 21
8.527864045000513
 72
    1
 10
-42.75308505601119
 20
8.527864045000513
 11
-43.65114100917029
 21
5.763932022499787
 72
    1
 10
-43.65114100917029
 20
5.763932022499787
 11
-41.29999999999988
 21
7.472135954999438
 97
    0
 75
    0
 76
    1
 98
    0
  0
HATCH
  5
8B
100
AcDbEntity
  8
White
  6
ByLayer
 62
  256
370
   -1
100
AcDbHatch
 10
0
 20
0
 30
0
210
0
220
0
230
1
  2
SOLID
 70
    1
 71
    0
 91
    1
 92
    0
 93
   10
 72
    1
 10
-33.09999999999989
 20
0.4721359549994375
 11
-30.7488589908298
 21
-1.236067977499893
 72
    1
 10
-30.7488589908298
 20
-1.236067977499893
 11
-31.6469149439893
 21
1.527864045000207
 72
    1
 10
-31.6469149439893
 20
1.527864045000207
 11
-29.2957739348178
 21
3.236067977500682
 72
    1
 10
-29.2957739348178
 20
3.236067977500682
 11
-32.20194404684131
 21
3.236067977500277
 72
    1
 10
-32.20194404684131
 20
3.236067977500277
 11
-33.10000000000009
 21
5.999999999999218
 72
    1
 10
-33.10000000000009
 20
5.999999999999218
 11
-33.9980559531591
 21
3.236067977500042
 72
    1
 10
-33.9980559531591
 20
3.236067977500042
 11
-36.9042260651825
 21
3.236067977500042
 72
    1
 10
-36.9042260651825
 20
3.236067977500042
 11
-34.5530850560112
 21
1.527864045000513
 72
    1
 10
-34.5530850560112
 20
1.527864045000513
 11
-35.4511410091703
 21
-1.236067977500213
 72
    1
 10
-35.4511410091703
 20
-1.236067977500213
 11
-33.09999999999989
 21
0.4721359549994375
 97
    0
 75
    0
 76
    1
 98
    0
  0
HATCH
  5
8C
100
AcDbEntity
  8
Blue
  6
ByLayer
 62
  256
370
   -1
100
AcDbHatch
 10
0
 20
0
 30
0
210
0
220
0
230
1
  2
SOLID
 70
    1
 71
    0
 91
    1
 92
    0
 93
    4
 72
    1
 10
123.5
 20
-15
 11
-123.5
 21
-15
 72
    1
 10
-123.5
 20
-15
 11
-123.5
 21
-5
 72
    1
 10
-123.5
 20
-5
 11
123.5
 21
-5
 72
    1
 10
123.5
 20
-5
 11
123.5
 21
-15
 97
    0
 75
    0
 76
    1
 98
    0
  0
LINE
  5
8D
100
AcDbEntity
  8
0
  6
ByLayer
 62
  256
370
   -1
100
AcDbLine
 10
-123.5
 20
-65
 11
-123.5
 21
-115
  0
LINE
  5
8E
100
AcDbEntity
  8
0
  6
ByLayer
 62
  256
370
   -1
100
AcDbLine
 10
123.5
 20
-65
 11
123.5
 21
-115
  0
LINE
  5
8F
100
AcDbEntity
  8
0
  6
ByLayer
 62
  256
370
   -1
100
AcDbLine
 10
-123.5
 20
-115
 11
123.5
 21
-115
  0
LINE
  5
90
100
AcDbEntity
  8
White
  6
ByLayer
 62
  256
370
   -1
100
AcDbLine
 10
123.5
 20
-55
 11
-123.5
 21
-55
  0
LINE
  5
91
100
AcDbEntity
  8
White
  6
ByLayer
 62
  256
370
   -1
100
AcDbLine
 10
-123.5
 20
-45
 11
123.5
 21
-45
  0
LINE
  5
92
100
AcDbEntity
  8
White
  6
ByLayer
 62
  256
370
   -1
100
AcDbLine
 10
123.5
 20
-35
 11
-123.5
 21
-35
  0
LINE
  5
93
100
AcDbEntity
  8
White
  6
ByLayer
 62
  256
370
   -1
100
AcDbLine
 10
-123.5
 20
-25
 11
123.5
 21
-25
  0
LINE
  5
94
100
AcDbEntity
  8
White
  6
ByLayer
 62
  256
370
   -1
100
AcDbLine
 10
-24.7
 20
5
 11
123.5
 21
5
  0
LINE
  5
95
100
AcDbEntity
  8
White
  6
ByLayer
 62
  256
370
   -1
100
AcDbLine
 10
-24.7
 20
25
 11
123.5
 21
25
  0
LINE
  5
96
100
AcDbEntity
  8
White
  6
ByLayer
 62
  256
370
   -1
100
AcDbLine
 10
-24.7
 20
15
 11
123.5
 21
15
  0
LINE
  5
97
100
AcDbEntity
  8
White
  6
ByLayer
 62
  256
370
   -1
100
AcDbLine
 10
-24.7
 20
45
 11
123.5
 21
45
  0
LINE
  5
98
100
AcDbEntity
  8
White
  6
ByLayer
 62
  256
370
   -1
100
AcDbLine
 10
-24.7
 20
35
 11
123.5
 21
35
  0
LINE
  5
99
100
AcDbEntity
  8
White
  6
ByLayer
 62
  256
370
   -1
100
AcDbLine
 10
-24.7
 20
55
 11
123.5
 21
55
  0
LINE
  5
9A
100
AcDbEntity
  8
White
  6
ByLayer
 62
  256
370
   -1
100
AcDbLine
 10
-24.7
 20
55
 11
-24.7
 21
45
  0
LINE
  5
9B
100
AcDbEntity
  8
White
  6
ByLayer
 62
  256
370
   -1
100
AcDbLine
 10
-24.7
 20
35
 11
-24.7
 21
25
  0
LINE
  5
9C
100
AcDbEntity
  8
White
  6
ByLayer
 62
  256
370
   -1
100
AcDbLine
 10
-24.7
 20
15
 11
-24.7
 21
5
  0
LINE
  5
9D
100
AcDbEntity
  8
Blue
  6
ByLayer
 62
  256
370
   -1
100
AcDbLine
 10
123.5
 20
-15
 11
-123.5
 21
-15
  0
LINE
  5
9E
100
AcDbEntity
  8
Blue
  6
ByLayer
 62
  256
370
   -1
100
AcDbLine
 10
-123.5
 20
-5
 11
-123.5
 21
-15
  0
LINE
  5
9F
100
AcDbEntity
  8
Blue
  6
ByLayer
 62
  256
370
   -1
100
AcDbLine
 10
123.5
 20
-15
 11
123.5
 21
-5
  0
LINE
  5
A0
100
AcDbEntity
  8
Blue
  6
ByLayer
 62
  256
370
   -1
100
AcDbLine
 10
-123.5
 20
-5
 11
123.5
 21
-5
  0
LINE
  5
A1
100
AcDbEntity
  8
Black
  6
ByLayer
 62
  256
370
   -1
100
AcDbLine
 10
-123.5
 20
-55
 11
-123.5
 21
-65
  0
LINE
  5
A2
100
AcDbEntity
  8
Black
  6
ByLayer
 62
  256
370
   -1
100
AcDbLine
 10
-123.5
 20
-65
 11
123.5
 21
-65
  0
LINE
  5
A3
100
AcDbEntity
  8
Black
  6
ByLayer
 62
  256
370
   -1
100
AcDbLine
 10
123.5
 20
-65
 11
123.5
 21
-55
  0
LINE
  5
A4
100
AcDbEntity
  8
Black
  6
ByLayer
 62
  256
370
   -1
100
AcDbLine
 10
-123.5
 20
-35
 11
-123.5
 21
-45
  0
LINE
  5
A5
100
AcDbEntity
  8
Black
  6
ByLayer
 62
  256
370
   -1
100
AcDbLine
 10
123.5
 20
-45
 11
123.5
 21
-35
  0
LINE
  5
A6
100
AcDbEntity
  8
Black
  6
ByLayer
 62
  256
370
   -1
100
AcDbLine
 10
-123.5
 20
-15
 11
-123.5
 21
-25
  0
LINE
  5
A7
100
AcDbEntity
  8
Black
  6
ByLayer
 62
  256
370
   -1
100
AcDbLine
 10
123.5
 20
-25
 11
123.5
 21
-15
  0
LINE
  5
A8
100
AcDbEntity
  8
Black
  6
ByLayer
 62
  256
370
   -1
100
AcDbLine
 10
123.5
 20
5
 11
123.5
 21
-5
  0
LINE
  5
A9
100
AcDbEntity
  8
Black
  6
ByLayer
 62
  256
370
   -1
100
AcDbLine
 10
123.5
 20
25
 11
123.5
 21
15
  0
LINE
  5
AA
100
AcDbEntity
  8
Black
  6
ByLayer
 62
  256
370
   -1
100
AcDbLine
 10
123.5
 20
45
 11
123.5
 21
35
  0
LINE
  5
AB
100
AcDbEntity
  8
Black
  6
ByLayer
 62
  256
370
   -1
100
AcDbLine
 10
123.5
 20
65
 11
123.5
 21
55
  0
LINE
  5
AC
100
AcDbEntity
  8
Black
  6
ByLayer
 62
  256
370
   -1
100
AcDbLine
 10
-123.5
 20
-5
 11
-123.5
 21
65
  0
LINE
  5
AD
100
AcDbEntity
  8
Black
  6
ByLayer
 62
  256
370
   -1
100
AcDbLine
 10
-123.5
 20
65
 11
123.5
 21
65
  0
LINE
  5
AE
100
AcDbEntity
  8
Black
  6
ByLayer
 62
  256
370
   -1
100
AcDbLine
 10
-123.5
 20
-25
 11
-123.5
 21
-35
  0
LINE
  5
AF
100
AcDbEntity
  8
Black
  6
ByLayer
 62
  256
370
   -1
100
AcDbLine
 10
-123.5
 20
-45
 11
-123.5
 21
-55
  0
LINE
  5
B0
100
AcDbEntity
  8
Black
  6
ByLayer
 62
  256
370
   -1
100
AcDbLine
 10
123.5
 20
-55
 11
123.5
 21
-45
  0
LINE
  5
B1
100
AcDbEntity
  8
Black
  6
ByLayer
 62
  256
370
   -1
100
AcDbLine
 10
123.5
 20
-35
 11
123.5
 21
-25
  0
LINE
  5
B2
100
AcDbEntity
  8
Black
  6
ByLayer
 62
  256
370
   -1
100
AcDbLine
 10
123.5
 20
5
 11
123.5
 21
15
  0
LINE
  5
B3
100
AcDbEntity
  8
Black
  6
ByLayer
 62
  256
370
   -1
100
AcDbLine
 10
123.5
 20
25
 11
123.5
 21
35
  0
LINE
  5
B4
100
AcDbEntity
  8
Black
  6
ByLayer
 62
  256
370
   -1
100
AcDbLine
 10
123.5
 20
45
 11
123.5
 21
55
  0
MTEXT
  5
B5
100
AcDbEntity
  8
0
  6
ByLayer
 62
  256
370
   -1
100
AcDbMText
 10
0
 20
-90
 30
0
 40
8.5
 41
225.7559955555555
 71
    5
 72
    1
  1
Flag of the Blue Lives Matter\Pmovement, by Felipe Lohan\PPinheiro da Silva
  7
romanc
210
0
220
0
230
1
 50
0
 73
    2
 44
1
  0
LWPOLYLINE
  5
B6
100
AcDbEntity
  8
White
  6
ByLayer
 62
  256
370
   -1
100
AcDbPolyline
 90
   10
 70
    1
 43
0
 10
-33.09999999999989
 20
0.4721359549994375
 10
-30.7488589908298
 20
-1.236067977499893
 10
-31.6469149439893
 20
1.527864045000207
 10
-29.2957739348178
 20
3.236067977500682
 10
-32.20194404684131
 20
3.236067977500277
 10
-33.10000000000009
 20
5.999999999999218
 10
-33.9980559531591
 20
3.236067977500042
 10
-36.9042260651825
 20
3.236067977500042
 10
-34.5530850560112
 20
1.527864045000513
 10
-35.4511410091703
 20
-1.236067977500213
  0
LWPOLYLINE
  5
B7
100
AcDbEntity
  8
White
  6
ByLayer
 62
  256
370
   -1
100
AcDbPolyline
 90
   10
 70
    1
 43
0
 10
-41.29999999999988
 20
7.472135954999438
 10
-38.94885899082979
 20
5.763932022500107
 10
-39.84691494398929
 20
8.527864045000207
 10
-37.49577393481779
 20
10.23606797750068
 10
-40.4019440468413
 20
10.23606797750028
 10
-41.30000000000008
 20
12.99999999999922
 10
-42.19805595315909
 20
10.23606797750004
 10
-45.10422606518249
 20
10.23606797750004
 10
-42.75308505601119
 20
8.527864045000513
 10
-43.65114100917029
 20
5.763932022499787
  0
LWPOLYLINE
  5
B8
100
AcDbEntity
  8
White
  6
ByLayer
 62
  256
370
   -1
100
AcDbPolyline
 90
   10
 70
    1
 43
0
 10
-49.49999999999893
 20
0.4721359549986803
 10
-47.14885899082884
 20
-1.23606797750065
 10
-48.04691494398834
 20
1.52786404499945
 10
-45.69577393481684
 20
3.236067977499925
 10
-48.60194404684035
 20
3.23606797749952
 10
-49.49999999999913
 20
5.999999999998462
 10
-50.39805595315814
 20
3.236067977499285
 10
-53.30422606518154
 20
3.236067977499285
 10
-50.95308505601024
 20
1.527864044999756
 10
-51.85114100916934
 20
-1.23606797750097
  0
LWPOLYLINE
  5
B9
100
AcDbEntity
  8
White
  6
ByLayer
 62
  256
370
   -1
100
AcDbPolyline
 90
   10
 70
    1
 43
0
 10
-57.69999999999892
 20
7.472135954998681
 10
-55.34885899082883
 20
5.76393202249935
 10
-56.24691494398833
 20
8.52786404499945
 10
-53.89577393481683
 20
10.23606797749992
 10
-56.80194404684034
 20
10.23606797749952
 10
-57.69999999999911
 20
12.99999999999846
 10
-58.59805595315813
 20
10.23606797749929
 10
-61.50422606518153
 20
10.23606797749929
 10
-59.15308505601023
 20
8.527864044999756
 10
-60.05114100916933
 20
5.763932022499031
  0
LWPOLYLINE
  5
BA
100
AcDbEntity
  8
White
  6
ByLayer
 62
  256
370
   -1
100
AcDbPolyline
 90
   10
 70
    1
 43
0
 10
-65.89999999999796
 20
0.4721359549979232
 10
-63.54885899082788
 20
-1.236067977501407
 10
-64.44691494398738
 20
1.527864044998693
 10
-62.09577393481588
 20
3.236067977499168
 10
-65.00194404683938
 20
3.236067977498763
 10
-65.89999999999816
 20
5.999999999997704
 10
-66.79805595315719
 20
3.236067977498528
 10
-69.70422606518058
 20
3.236067977498528
 10
-67.35308505600928
 20
1.527864044998999
 10
-68.25114100916838
 20
-1.236067977501727
  0
LWPOLYLINE
  5
BB
100
AcDbEntity
  8
White
  6
ByLayer
 62
  256
370
   -1
100
AcDbPolyline
 90
   10
 70
    1
 43
0
 10
-74.09999999999795
 20
7.472135954997923
 10
-71.74885899082787
 20
5.763932022498593
 10
-72.64691494398737
 20
8.527864044998694
 10
-70.29577393481587
 20
10.23606797749917
 10
-73.20194404683937
 20
10.23606797749876
 10
-74.09999999999815
 20
12.9999999999977
 10
-74.99805595315718
 20
10.23606797749853
 10
-77.90422606518057
 20
10.23606797749853
 10
-75.55308505600927
 20
8.527864044998999
 10
-76.45114100916837
 20
5.763932022498273
  0
LWPOLYLINE
  5
BC
100
AcDbEntity
  8
White
  6
ByLayer
 62
  256
370
   -1
100
AcDbPolyline
 90
   10
 70
    1
 43
0
 10
-82.299999999997
 20
0.472135954997166
 10
-79.94885899082692
 20
-1.236067977502165
 10
-80.84691494398642
 20
1.527864044997935
 10
-78.49577393481492
 20
3.23606797749841
 10
-81.40194404683842
 20
3.236067977498005
 10
-82.2999999999972
 20
5.999999999996946
 10
-83.19805595315623
 20
3.236067977497771
 10
-86.10422606517962
 20
3.236067977497771
 10
-83.75308505600832
 20
1.527864044998241
 10
-84.65114100916742
 20
-1.236067977502485
  0
LWPOLYLINE
  5
BD
100
AcDbEntity
  8
White
  6
ByLayer
 62
  256
370
   -1
100
AcDbPolyline
 90
   10
 70
    1
 43
0
 10
-90.49999999999699
 20
7.472135954997166
 10
-88.14885899082691
 20
5.763932022497835
 10
-89.04691494398641
 20
8.527864044997935
 10
-86.69577393481491
 20
10.23606797749841
 10
-89.60194404683841
 20
10.236067977498
 10
-90.49999999999719
 20
12.99999999999695
 10
-91.39805595315622
 20
10.23606797749777
 10
-94.30422606517961
 20
10.23606797749777
 10
-91.95308505600831
 20
8.527864044998241
 10
-92.85114100916741
 20
5.763932022497515
  0
LWPOLYLINE
  5
BE
100
AcDbEntity
  8
White
  6
ByLayer
 62
  256
370
   -1
100
AcDbPolyline
 90
   10
 70
    1
 43
0
 10
-98.69999999999604
 20
0.4721359549964088
 10
-96.34885899082596
 20
-1.236067977502922
 10
-97.24691494398546
 20
1.527864044997178
 10
-94.89577393481396
 20
3.236067977497653
 10
-97.80194404683746
 20
3.236067977497248
 10
-98.69999999999624
 20
5.99999999999619
 10
-99.59805595315527
 20
3.236067977497013
 10
-102.5042260651787
 20
3.236067977497013
 10
-100.1530850560074
 20
1.527864044997484
 10
-101.0511410091665
 20
-1.236067977503242
  0
LWPOLYLINE
  5
BF
100
AcDbEntity
  8
White
  6
ByLayer
 62
  256
370
   -1
100
AcDbPolyline
 90
   10
 70
    1
 43
0
 10
-106.899999999996
 20
7.472135954996409
 10
-104.5488589908259
 20
5.763932022497078
 10
-105.4469149439854
 20
8.527864044997179
 10
-103.0957739348139
 20
10.23606797749765
 10
-106.0019440468375
 20
10.23606797749725
 10
-106.8999999999962
 20
12.99999999999619
 10
-107.7980559531553
 20
10.23606797749701
 10
-110.7042260651786
 20
10.23606797749701
 10
-108.3530850560073
 20
8.527864044997484
 10
-109.2511410091664
 20
5.763932022496759
  0
LWPOLYLINE
  5
C0
100
AcDbEntity
  8
White
  6
ByLayer
 62
  256
370
   -1
100
AcDbPolyline
 90
   10
 70
    1
 43
0
 10
-115.0999999999951
 20
0.4721359549956516
 10
-112.748858990825
 20
-1.236067977503679
 10
-113.6469149439845
 20
1.527864044996421
 10
-111.295773934813
 20
3.236067977496896
 10
-114.2019440468365
 20
3.236067977496491
 10
-115.0999999999953
 20
5.999999999995433
 10
-115.9980559531543
 20
3.236067977496256
 10
-118.9042260651777
 20
3.236067977496256
 10
-116.5530850560064
 20
1.527864044996727
 10
-117.4511410091655
 20
-1.236067977503999
  0
LWPOLYLINE
  5
C1
100
AcDbEntity
  8
White
  6
ByLayer
 62
  256
370
   -1
100
AcDbPolyline
 90
   10
 70
    1
 43
0
 10
-33.10000000000083
 20
14.47213595500019
 10
-30.74885899083074
 20
12.76393202250086
 10
-31.64691494399024
 20
15.52786404500096
 10
-29.29577393481874
 20
17.23606797750144
 10
-32.20194404684225
 20
17.23606797750103
 10
-33.10000000000102
 20
19.99999999999998
 10
-33.99805595316004
 20
17.2360679775008
 10
-36.90422606518344
 20
17.2360679775008
 10
-34.55308505601214
 20
15.52786404500127
 10
-35.45114100917124
 20
12.76393202250054
  0
LWPOLYLINE
  5
C2
100
AcDbEntity
  8
White
  6
ByLayer
 62
  256
370
   -1
100
AcDbPolyline
 90
   10
 70
    1
 43
0
 10
-49.49999999999986
 20
14.47213595499944
 10
-47.14885899082978
 20
12.76393202250011
 10
-48.04691494398928
 20
15.52786404500021
 10
-45.69577393481778
 20
17.23606797750068
 10
-48.60194404684129
 20
17.23606797750028
 10
-49.50000000000006
 20
19.99999999999922
 10
-50.39805595315908
 20
17.23606797750004
 10
-53.30422606518248
 20
17.23606797750004
 10
-50.95308505601118
 20
15.52786404500051
 10
-51.85114100917028
 20
12.76393202249979
  0
LWPOLYLINE
  5
C3
100
AcDbEntity
  8
White
  6
ByLayer
 62
  256
370
   -1
100
AcDbPolyline
 90
   10
 70
    1
 43
0
 10
-65.8999999999989
 20
14.47213595499868
 10
-63.54885899082882
 20
12.76393202249935
 10
-64.44691494398832
 20
15.52786404499945
 10
-62.09577393481682
 20
17.23606797749992
 10
-65.00194404684032
 20
17.23606797749952
 10
-65.8999999999991
 20
19.99999999999846
 10
-66.79805595315813
 20
17.23606797749929
 10
-69.70422606518152
 20
17.23606797749929
 10
-67.35308505601022
 20
15.52786404499976
 10
-68.25114100916932
 20
12.76393202249903
  0
LWPOLYLINE
  5
C4
100
AcDbEntity
  8
White
  6
ByLayer
 62
  256
370
   -1
100
AcDbPolyline
 90
   10
 70
    1
 43
0
 10
-82.29999999999794
 20
14.47213595499792
 10
-79.94885899082786
 20
12.76393202249859
 10
-80.84691494398736
 20
15.52786404499869
 10
-78.49577393481586
 20
17.23606797749917
 10
-81.40194404683936
 20
17.23606797749876
 10
-82.29999999999814
 20
19.9999999999977
 10
-83.19805595315717
 20
17.23606797749853
 10
-86.10422606518055
 20
17.23606797749853
 10
-83.75308505600925
 20
15.527864044999
 10
-84.65114100916836
 20
12.76393202249827
  0
LWPOLYLINE
  5
C5
100
AcDbEntity
  8
White
  6
ByLayer
 62
  256
370
   -1
100
AcDbPolyline
 90
   10
 70
    1
 43
0
 10
-98.69999999999698
 20
14.47213595499717
 10
-96.3488589908269
 20
12.76393202249784
 10
-97.2469149439864
 20
15.52786404499794
 10
-94.8957739348149
 20
17.23606797749841
 10
-97.8019440468384
 20
17.23606797749801
 10
-98.69999999999717
 20
19.99999999999694
 10
-99.59805595315621
 20
17.23606797749777
 10
-102.5042260651796
 20
17.23606797749777
 10
-100.1530850560083
 20
15.52786404499824
 10
-101.0511410091674
 20
12.76393202249752
  0
LWPOLYLINE
  5
C6
100
AcDbEntity
  8
White
  6
ByLayer
 62
  256
370
   -1
100
AcDbPolyline
 90
   10
 70
    1
 43
0
 10
-115.099999999996
 20
14.47213595499641
 10
-112.7488589908259
 20
12.76393202249708
 10
-113.6469149439854
 20
15.52786404499718
 10
-111.2957739348139
 20
17.23606797749765
 10
-114.2019440468374
 20
17.23606797749725
 10
-115.0999999999962
 20
19.99999999999619
 10
-115.9980559531552
 20
17.23606797749701
 10
-118.9042260651786
 20
17.23606797749701
 10
-116.5530850560073
 20
15.52786404499748
 10
-117.4511410091664
 20
12.76393202249676
  0
LWPOLYLINE
  5
C7
100
AcDbEntity
  8
White
  6
ByLayer
 62
  256
370
   -1
100
AcDbPolyline
 90
   10
 70
    1
 43
0
 10
-41.30000000000081
 20
21.4721359550002
 10
-38.94885899083073
 20
19.76393202250087
 10
-39.84691494399023
 20
22.52786404500097
 10
-37.49577393481873
 20
24.23606797750144
 10
-40.40194404684224
 20
24.23606797750104
 10
-41.30000000000101
 20
26.99999999999998
 10
-42.19805595316003
 20
24.2360679775008
 10
-45.10422606518343
 20
24.2360679775008
 10
-42.75308505601213
 20
22.52786404500127
 10
-43.65114100917123
 20
19.76393202250055
  0
LWPOLYLINE
  5
C8
100
AcDbEntity
  8
White
  6
ByLayer
 62
  256
370
   -1
100
AcDbPolyline
 90
   10
 70
    1
 43
0
 10
-57.69999999999985
 20
21.47213595499944
 10
-55.34885899082977
 20
19.76393202250011
 10
-56.24691494398927
 20
22.52786404500021
 10
-53.89577393481777
 20
24.23606797750068
 10
-56.80194404684128
 20
24.23606797750028
 10
-57.70000000000005
 20
26.99999999999922
 10
-58.59805595315907
 20
24.23606797750004
 10
-61.50422606518246
 20
24.23606797750004
 10
-59.15308505601116
 20
22.52786404500051
 10
-60.05114100917027
 20
19.76393202249979
  0
LWPOLYLINE
  5
C9
100
AcDbEntity
  8
White
  6
ByLayer
 62
  256
370
   -1
100
AcDbPolyline
 90
   10
 70
    1
 43
0
 10
-74.09999999999889
 20
21.47213595499868
 10
-71.74885899082881
 20
19.76393202249935
 10
-72.64691494398831
 20
22.52786404499945
 10
-70.29577393481681
 20
24.23606797749993
 10
-73.20194404684031
 20
24.23606797749952
 10
-74.09999999999908
 20
26.99999999999847
 10
-74.99805595315812
 20
24.23606797749929
 10
-77.9042260651815
 20
24.23606797749929
 10
-75.5530850560102
 20
22.52786404499976
 10
-76.45114100916931
 20
19.76393202249903
  0
LWPOLYLINE
  5
CA
100
AcDbEntity
  8
White
  6
ByLayer
 62
  256
370
   -1
100
AcDbPolyline
 90
   10
 70
    1
 43
0
 10
-90.49999999999793
 20
21.47213595499792
 10
-88.14885899082785
 20
19.76393202249859
 10
-89.04691494398735
 20
22.52786404499869
 10
-86.69577393481585
 20
24.23606797749917
 10
-89.60194404683935
 20
24.23606797749876
 10
-90.49999999999812
 20
26.9999999999977
 10
-91.39805595315715
 20
24.23606797749853
 10
-94.30422606518054
 20
24.23606797749853
 10
-91.95308505600924
 20
22.527864044999
 10
-92.85114100916834
 20
19.76393202249827
  0
LWPOLYLINE
  5
CB
100
AcDbEntity
  8
White
  6
ByLayer
 62
  256
370
   -1
100
AcDbPolyline
 90
   10
 70
    1
 43
0
 10
-106.899999999997
 20
21.47213595499717
 10
-104.5488589908269
 20
19.76393202249784
 10
-105.4469149439864
 20
22.52786404499794
 10
-103.0957739348149
 20
24.23606797749841
 10
-106.0019440468384
 20
24.23606797749801
 10
-106.8999999999972
 20
26.99999999999695
 10
-107.7980559531562
 20
24.23606797749777
 10
-110.7042260651796
 20
24.23606797749777
 10
-108.3530850560083
 20
22.52786404499824
 10
-109.2511410091674
 20
19.76393202249752
  0
LWPOLYLINE
  5
CC
100
AcDbEntity
  8
White
  6
ByLayer
 62
  256
370
   -1
100
AcDbPolyline
 90
   10
 70
    1
 43
0
 10
-33.10000000000176
 20
28.47213595500095
 10
-30.74885899083167
 20
26.76393202250162
 10
-31.64691494399118
 20
29.52786404500172
 10
-29.29577393481967
 20
31.23606797750219
 10
-32.20194404684319
 20
31.23606797750179
 10
-33.10000000000196
 20
34.00000000000073
 10
-33.99805595316098
 20
31.23606797750156
 10
-36.90422606518437
 20
31.23606797750156
 10
-34.55308505601307
 20
29.52786404500203
 10
-35.45114100917218
 20
26.7639320225013
  0
LWPOLYLINE
  5
CD
100
AcDbEntity
  8
White
  6
ByLayer
 62
  256
370
   -1
100
AcDbPolyline
 90
   10
 70
    1
 43
0
 10
-49.5000000000008
 20
28.4721359550002
 10
-47.14885899083072
 20
26.76393202250087
 10
-48.04691494399022
 20
29.52786404500097
 10
-45.69577393481872
 20
31.23606797750144
 10
-48.60194404684223
 20
31.23606797750104
 10
-49.500000000001
 20
33.99999999999998
 10
-50.39805595316002
 20
31.2360679775008
 10
-53.30422606518341
 20
31.2360679775008
 10
-50.95308505601211
 20
29.52786404500127
 10
-51.85114100917122
 20
26.76393202250055
  0
LWPOLYLINE
  5
CE
100
AcDbEntity
  8
White
  6
ByLayer
 62
  256
370
   -1
100
AcDbPolyline
 90
   10
 70
    1
 43
0
 10
-65.89999999999984
 20
28.47213595499944
 10
-63.54885899082976
 20
26.76393202250011
 10
-64.44691494398926
 20
29.52786404500021
 10
-62.09577393481776
 20
31.23606797750068
 10
-65.00194404684126
 20
31.23606797750028
 10
-65.90000000000003
 20
33.99999999999922
 10
-66.79805595315906
 20
31.23606797750004
 10
-69.70422606518245
 20
31.23606797750004
 10
-67.35308505601115
 20
29.52786404500051
 10
-68.25114100917025
 20
26.76393202249979
  0
LWPOLYLINE
  5
CF
100
AcDbEntity
  8
White
  6
ByLayer
 62
  256
370
   -1
100
AcDbPolyline
 90
   10
 70
    1
 43
0
 10
-82.29999999999887
 20
28.47213595499868
 10
-79.9488589908288
 20
26.76393202249935
 10
-80.8469149439883
 20
29.52786404499945
 10
-78.4957739348168
 20
31.23606797749993
 10
-81.4019440468403
 20
31.23606797749952
 10
-82.29999999999907
 20
33.99999999999847
 10
-83.1980559531581
 20
31.23606797749929
 10
-86.10422606518149
 20
31.23606797749929
 10
-83.75308505601019
 20
29.52786404499976
 10
-84.65114100916929
 20
26.76393202249903
  0
LWPOLYLINE
  5
D0
100
AcDbEntity
  8
White
  6
ByLayer
 62
  256
370
   -1
100
AcDbPolyline
 90
   10
 70
    1
 43
0
 10
-98.69999999999791
 20
28.47213595499792
 10
-96.34885899082784
 20
26.76393202249859
 10
-97.24691494398733
 20
29.52786404499869
 10
-94.89577393481584
 20
31.23606797749917
 10
-97.80194404683934
 20
31.23606797749876
 10
-98.69999999999811
 20
33.9999999999977
 10
-99.59805595315714
 20
31.23606797749853
 10
-102.5042260651805
 20
31.23606797749853
 10
-100.1530850560092
 20
29.527864044999
 10
-101.0511410091683
 20
26.76393202249827
  0
LWPOLYLINE
  5
D1
100
AcDbEntity
  8
White
  6
ByLayer
 62
  256
370
   -1
100
AcDbPolyline
 90
   10
 70
    1
 43
0
 10
-115.099999999997
 20
28.47213595499717
 10
-112.7488589908269
 20
26.76393202249784
 10
-113.6469149439864
 20
29.52786404499794
 10
-111.2957739348149
 20
31.23606797749841
 10
-114.2019440468384
 20
31.23606797749801
 10
-115.0999999999972
 20
33.99999999999695
 10
-115.9980559531562
 20
31.23606797749777
 10
-118.9042260651796
 20
31.23606797749777
 10
-116.5530850560083
 20
29.52786404499824
 10
-117.4511410091674
 20
26.76393202249751
  0
LWPOLYLINE
  5
D2
100
AcDbEntity
  8
White
  6
ByLayer
 62
  256
370
   -1
100
AcDbPolyline
 90
   10
 70
    1
 43
0
 10
-41.30000000000175
 20
35.47213595500095
 10
-38.94885899083167
 20
33.76393202250162
 10
-39.84691494399117
 20
36.52786404500172
 10
-37.49577393481967
 20
38.2360679775022
 10
-40.40194404684318
 20
38.23606797750179
 10
-41.30000000000195
 20
41.00000000000074
 10
-42.19805595316097
 20
38.23606797750156
 10
-45.10422606518436
 20
38.23606797750156
 10
-42.75308505601306
 20
36.52786404500203
 10
-43.65114100917216
 20
33.76393202250131
  0
LWPOLYLINE
  5
D3
100
AcDbEntity
  8
White
  6
ByLayer
 62
  256
370
   -1
100
AcDbPolyline
 90
   10
 70
    1
 43
0
 10
-57.70000000000079
 20
35.4721359550002
 10
-55.34885899083071
 20
33.76393202250087
 10
-56.24691494399021
 20
36.52786404500097
 10
-53.89577393481871
 20
38.23606797750143
 10
-56.80194404684222
 20
38.23606797750104
 10
-57.70000000000099
 20
40.99999999999997
 10
-58.59805595316001
 20
38.2360679775008
 10
-61.5042260651834
 20
38.2360679775008
 10
-59.1530850560121
 20
36.52786404500127
 10
-60.0511410091712
 20
33.76393202250054
  0
LWPOLYLINE
  5
D4
100
AcDbEntity
  8
White
  6
ByLayer
 62
  256
370
   -1
100
AcDbPolyline
 90
   10
 70
    1
 43
0
 10
-74.09999999999982
 20
35.47213595499944
 10
-71.74885899082975
 20
33.76393202250011
 10
-72.64691494398924
 20
36.52786404500021
 10
-70.29577393481775
 20
38.23606797750068
 10
-73.20194404684125
 20
38.23606797750028
 10
-74.10000000000002
 20
40.99999999999922
 10
-74.99805595315905
 20
38.23606797750004
 10
-77.90422606518244
 20
38.23606797750004
 10
-75.55308505601114
 20
36.52786404500051
 10
-76.45114100917024
 20
33.76393202249979
  0
LWPOLYLINE
  5
D5
100
AcDbEntity
  8
White
  6
ByLayer
 62
  256
370
   -1
100
AcDbPolyline
 90
   10
 70
    1
 43
0
 10
-90.49999999999886
 20
35.47213595499868
 10
-88.14885899082878
 20
33.76393202249935
 10
-89.04691494398828
 20
36.52786404499945
 10
-86.69577393481678
 20
38.23606797749993
 10
-89.60194404684029
 20
38.23606797749952
 10
-90.49999999999906
 20
40.99999999999847
 10
-91.39805595315809
 20
38.23606797749929
 10
-94.30422606518148
 20
38.23606797749929
 10
-91.95308505601018
 20
36.52786404499976
 10
-92.85114100916928
 20
33.76393202249903
  0
LWPOLYLINE
  5
D6
100
AcDbEntity
  8
White
  6
ByLayer
 62
  256
370
   -1
100
AcDbPolyline
 90
   10
 70
    1
 43
0
 10
-106.8999999999979
 20
35.47213595499792
 10
-104.5488589908278
 20
33.76393202249859
 10
-105.4469149439873
 20
36.52786404499869
 10
-103.0957739348158
 20
38.23606797749917
 10
-106.0019440468393
 20
38.23606797749876
 10
-106.8999999999981
 20
40.9999999999977
 10
-107.7980559531571
 20
38.23606797749853
 10
-110.7042260651805
 20
38.23606797749853
 10
-108.3530850560092
 20
36.527864044999
 10
-109.2511410091683
 20
33.76393202249827
  0
LWPOLYLINE
  5
D7
100
AcDbEntity
  8
White
  6
ByLayer
 62
  256
370
   -1
100
AcDbPolyline
 90
   10
 70
    1
 43
0
 10
-33.1000000000027
 20
42.4721359550017
 10
-30.74885899083261
 20
40.76393202250237
 10
-31.64691494399212
 20
43.52786404500247
 10
-29.29577393482061
 20
45.23606797750296
 10
-32.20194404684413
 20
45.23606797750254
 10
-33.1000000000029
 20
48.00000000000149
 10
-33.99805595316192
 20
45.23606797750232
 10
-36.90422606518531
 20
45.23606797750232
 10
-34.55308505601401
 20
43.52786404500279
 10
-35.45114100917311
 20
40.76393202250206
  0
LWPOLYLINE
  5
D8
100
AcDbEntity
  8
White
  6
ByLayer
 62
  256
370
   -1
100
AcDbPolyline
 90
   10
 70
    1
 43
0
 10
-49.50000000000174
 20
42.47213595500095
 10
-47.14885899083166
 20
40.76393202250162
 10
-48.04691494399115
 20
43.52786404500172
 10
-45.69577393481966
 20
45.2360679775022
 10
-48.60194404684317
 20
45.23606797750179
 10
-49.50000000000194
 20
48.00000000000074
 10
-50.39805595316096
 20
45.23606797750156
 10
-53.30422606518435
 20
45.23606797750156
 10
-50.95308505601305
 20
43.52786404500203
 10
-51.85114100917215
 20
40.76393202250131
  0
LWPOLYLINE
  5
D9
100
AcDbEntity
  8
White
  6
ByLayer
 62
  256
370
   -1
100
AcDbPolyline
 90
   10
 70
    1
 43
0
 10
-65.90000000000077
 20
42.4721359550002
 10
-63.54885899083069
 20
40.76393202250087
 10
-64.44691494399019
 20
43.52786404500097
 10
-62.09577393481869
 20
45.23606797750143
 10
-65.0019440468422
 20
45.23606797750104
 10
-65.90000000000097
 20
47.99999999999997
 10
-66.79805595316
 20
45.2360679775008
 10
-69.70422606518339
 20
45.2360679775008
 10
-67.35308505601209
 20
43.52786404500127
 10
-68.25114100917119
 20
40.76393202250054
  0
LWPOLYLINE
  5
DA
100
AcDbEntity
  8
White
  6
ByLayer
 62
  256
370
   -1
100
AcDbPolyline
 90
   10
 70
    1
 43
0
 10
-82.29999999999981
 20
42.47213595499944
 10
-79.94885899082973
 20
40.76393202250011
 10
-80.84691494398923
 20
43.52786404500021
 10
-78.49577393481773
 20
45.23606797750068
 10
-81.40194404684124
 20
45.23606797750028
 10
-82.30000000000001
 20
47.99999999999922
 10
-83.19805595315904
 20
45.23606797750004
 10
-86.10422606518243
 20
45.23606797750004
 10
-83.75308505601113
 20
43.52786404500051
 10
-84.65114100917023
 20
40.76393202249979
  0
LWPOLYLINE
  5
DB
100
AcDbEntity
  8
White
  6
ByLayer
 62
  256
370
   -1
100
AcDbPolyline
 90
   10
 70
    1
 43
0
 10
-98.69999999999885
 20
42.47213595499868
 10
-96.34885899082877
 20
40.76393202249935
 10
-97.24691494398827
 20
43.52786404499945
 10
-94.89577393481677
 20
45.23606797749993
 10
-97.80194404684028
 20
45.23606797749952
 10
-98.69999999999905
 20
47.99999999999847
 10
-99.59805595315808
 20
45.23606797749929
 10
-102.5042260651815
 20
45.23606797749929
 10
-100.1530850560102
 20
43.52786404499976
 10
-101.0511410091693
 20
40.76393202249903
  0
LWPOLYLINE
  5
DC
100
AcDbEntity
  8
White
  6
ByLayer
 62
  256
370
   -1
100
AcDbPolyline
 90
   10
 70
    1
 43
0
 10
-115.0999999999979
 20
42.47213595499792
 10
-112.7488589908278
 20
40.76393202249859
 10
-113.6469149439873
 20
43.52786404499869
 10
-111.2957739348158
 20
45.23606797749918
 10
-114.2019440468393
 20
45.23606797749876
 10
-115.0999999999981
 20
47.99999999999771
 10
-115.9980559531571
 20
45.23606797749852
 10
-118.9042260651805
 20
45.23606797749852
 10
-116.5530850560092
 20
43.527864044999
 10
-117.4511410091683
 20
40.76393202249827
  0
LWPOLYLINE
  5
DD
100
AcDbEntity
  8
White
  6
ByLayer
 62
  256
370
   -1
100
AcDbPolyline
 90
   10
 70
    1
 43
0
 10
-41.85502910285478
 20
47.76393202250218
 10
-39.50388809368469
 20
46.05572809000285
 10
-40.40194404684419
 20
48.81966011250295
 10
-38.05080303767269
 20
50.52786404500343
 10
-40.9569731496962
 20
50.52786404500302
 10
-41.85502910285498
 20
53.29179606750197
 10
-42.75308505601399
 20
50.52786404500279
 10
-45.65925516803739
 20
50.52786404500279
 10
-43.30811415886609
 20
48.81966011250326
 10
-44.20617011202519
 20
46.05572809000254
  0
LWPOLYLINE
  5
DE
100
AcDbEntity
  8
White
  6
ByLayer
 62
  256
370
   -1
100
AcDbPolyline
 90
   10
 70
    1
 43
0
 10
-58.25502910285382
 20
47.76393202250143
 10
-55.90388809368373
 20
46.0557280900021
 10
-56.80194404684323
 20
48.8196601125022
 10
-54.45080303767173
 20
50.52786404500267
 10
-57.35697314969524
 20
50.52786404500227
 10
-58.25502910285402
 20
53.2917960675012
 10
-59.15308505601303
 20
50.52786404500203
 10
-62.05925516803643
 20
50.52786404500203
 10
-59.70811415886513
 20
48.8196601125025
 10
-60.60617011202423
 20
46.05572809000177
  0
LWPOLYLINE
  5
DF
100
AcDbEntity
  8
White
  6
ByLayer
 62
  256
370
   -1
100
AcDbPolyline
 90
   10
 70
    1
 43
0
 10
-74.65502910285285
 20
47.76393202250067
 10
-72.30388809368277
 20
46.05572809000134
 10
-73.20194404684227
 20
48.81966011250145
 10
-70.85080303767077
 20
50.52786404500191
 10
-73.75697314969428
 20
50.52786404500151
 10
-74.65502910285305
 20
53.29179606750045
 10
-75.55308505601208
 20
50.52786404500127
 10
-78.45925516803547
 20
50.52786404500127
 10
-76.10811415886417
 20
48.81966011250174
 10
-77.00617011202327
 20
46.05572809000102
  0
LWPOLYLINE
  5
E0
100
AcDbEntity
  8
White
  6
ByLayer
 62
  256
370
   -1
100
AcDbPolyline
 90
   10
 70
    1
 43
0
 10
-91.05502910285189
 20
47.76393202249991
 10
-88.70388809368181
 20
46.05572809000058
 10
-89.60194404684131
 20
48.81966011250068
 10
-87.25080303766981
 20
50.52786404500116
 10
-90.15697314969331
 20
50.52786404500075
 10
-91.05502910285209
 20
53.2917960674997
 10
-91.95308505601112
 20
50.52786404500052
 10
-94.85925516803451
 20
50.52786404500052
 10
-92.50811415886321
 20
48.81966011250099
 10
-93.40617011202231
 20
46.05572809000027
  0
LWPOLYLINE
  5
E1
100
AcDbEntity
  8
White
  6
ByLayer
 62
  256
370
   -1
100
AcDbPolyline
 90
   10
 70
    1
 43
0
 10
-107.4550291028509
 20
47.76393202249916
 10
-105.1038880936809
 20
46.05572808999982
 10
-106.0019440468404
 20
48.81966011249992
 10
-103.6508030376689
 20
50.5278640450004
 10
-106.5569731496924
 20
50.52786404499999
 10
-107.4550291028511
 20
53.29179606749894
 10
-108.3530850560102
 20
50.52786404499976
 10
-111.2592551680335
 20
50.52786404499976
 10
-108.9081141588622
 20
48.81966011250023
 10
-109.8061701120213
 20
46.0557280899995
  0
LWPOLYLINE
  5
E2
100
AcDbEntity
  8
White
  6
ByLayer
 62
  256
370
   -1
100
AcDbPolyline
 90
   10
 70
    1
 43
0
 10
-33.65502910285573
 20
54.76393202250294
 10
-31.30388809368564
 20
53.0557280900036
 10
-32.20194404684514
 20
55.8196601125037
 10
-29.85080303767364
 20
57.52786404500419
 10
-32.75697314969715
 20
57.52786404500377
 10
-33.65502910285593
 20
60.29179606750272
 10
-34.55308505601494
 20
57.52786404500355
 10
-37.45925516803834
 20
57.52786404500355
 10
-35.10811415886704
 20
55.81966011250402
 10
-36.00617011202614
 20
53.05572809000329
  0
LWPOLYLINE
  5
E3
100
AcDbEntity
  8
White
  6
ByLayer
 62
  256
370
   -1
100
AcDbPolyline
 90
   10
 70
    1
 43
0
 10
-50.05502910285477
 20
54.76393202250218
 10
-47.70388809368468
 20
53.05572809000285
 10
-48.60194404684418
 20
55.81966011250295
 10
-46.25080303767268
 20
57.52786404500343
 10
-49.15697314969619
 20
57.52786404500302
 10
-50.05502910285497
 20
60.29179606750197
 10
-50.95308505601398
 20
57.52786404500279
 10
-53.85925516803738
 20
57.52786404500279
 10
-51.50811415886608
 20
55.81966011250326
 10
-52.40617011202518
 20
53.05572809000254
  0
LWPOLYLINE
  5
E4
100
AcDbEntity
  8
White
  6
ByLayer
 62
  256
370
   -1
100
AcDbPolyline
 90
   10
 70
    1
 43
0
 10
-66.4550291028538
 20
54.76393202250143
 10
-64.10388809368372
 20
53.0557280900021
 10
-65.00194404684322
 20
55.8196601125022
 10
-62.65080303767172
 20
57.52786404500267
 10
-65.55697314969522
 20
57.52786404500227
 10
-66.455029102854
 20
60.2917960675012
 10
-67.35308505601303
 20
57.52786404500203
 10
-70.25925516803642
 20
57.52786404500203
 10
-67.90811415886512
 20
55.8196601125025
 10
-68.80617011202422
 20
53.05572809000177
  0
LWPOLYLINE
  5
E5
100
AcDbEntity
  8
White
  6
ByLayer
 62
  256
370
   -1
100
AcDbPolyline
 90
   10
 70
    1
 43
0
 10
-82.85502910285284
 20
54.76393202250067
 10
-80.50388809368276
 20
53.05572809000134
 10
-81.40194404684226
 20
55.81966011250144
 10
-79.05080303767076
 20
57.52786404500191
 10
-81.95697314969426
 20
57.52786404500151
 10
-82.85502910285304
 20
60.29179606750045
 10
-83.75308505601207
 20
57.52786404500127
 10
-86.65925516803546
 20
57.52786404500127
 10
-84.30811415886416
 20
55.81966011250174
 10
-85.20617011202326
 20
53.05572809000102
  0
LWPOLYLINE
  5
E6
100
AcDbEntity
  8
White
  6
ByLayer
 62
  256
370
   -1
100
AcDbPolyline
 90
   10
 70
    1
 43
0
 10
-99.25502910285188
 20
54.76393202249991
 10
-96.9038880936818
 20
53.05572809000058
 10
-97.8019440468413
 20
55.81966011250068
 10
-95.4508030376698
 20
57.52786404500116
 10
-98.3569731496933
 20
57.52786404500075
 10
-99.25502910285208
 20
60.2917960674997
 10
-100.1530850560111
 20
57.52786404500052
 10
-103.0592551680345
 20
57.52786404500052
 10
-100.7081141588632
 20
55.81966011250099
 10
-101.6061701120223
 20
53.05572809000027
  0
LWPOLYLINE
  5
E7
100
AcDbEntity
  8
White
  6
ByLayer
 62
  256
370
   -1
100
AcDbPolyline
 90
   10
 70
    1
 43
0
 10
-115.6550291028509
 20
54.76393202249916
 10
-113.3038880936808
 20
53.05572808999982
 10
-114.2019440468403
 20
55.81966011249992
 10
-111.8508030376688
 20
57.52786404500041
 10
-114.7569731496923
 20
57.52786404499999
 10
-115.6550291028511
 20
60.29179606749894
 10
-116.5530850560101
 20
57.52786404499975
 10
-119.4592551680335
 20
57.52786404499975
 10
-117.1081141588622
 20
55.81966011250023
 10
-118.0061701120213
 20
53.0557280899995
  0
ENDSEC
  0
SECTION
  2
OBJECTS
  0
DICTIONARY
  5
C
330
0
100
AcDbDictionary
281
    1
  3
ACAD_GROUP
350
D
  0
DICTIONARY
  5
D
330
C
100
AcDbDictionary
281
    1
  0
ENDSEC
  0
EOF
