999
dxfrw 0.6.3
  0
SECTION
  2
HEADER
  9
$ACADVER
  1
AC1021
  9
$DWGCODEPAGE
  3
ANSI_1252
  9
$INSBASE
 10
0
 20
0
 30
0
  9
$EXTMIN
 10
-12.50000000000001
 20
-33.75
 30
0
  9
$EXTMAX
 10
237.5
 20
166.25
 30
0
  9
$LIMMIN
 10
0
 20
0
  9
$LIMMAX
 10
420
 20
297
  9
$ORTHOMODE
 70
    0
  9
$REGENMODE
 70
    1
  9
$FILLMODE
 70
    1
  9
$QTEXTMODE
 70
    0
  9
$MIRRTEXT
 70
    0
  9
$LTSCALE
 40
1
  9
$ATTMODE
 70
    0
  9
$TEXTSIZE
 40
2.5
  9
$TRACEWID
 40
15.68
  9
$TEXTSTYLE
  7
STANDARD
  9
$CLAYER
  8
Verde/Green
  9
$CELTYPE
  6
BYLAYER
  9
$CECOLOR
 62
  256
  9
$CELTSCALE
 40
1
  9
$DISPSILH
 70
    0
  9
$DIMSCALE
 40
2.5
  9
$DIMASZ
 40
2.5
  9
$DIMEXO
 40
0.625
  9
$DIMDLI
 40
3.75
  9
$DIMRND
 40
0
  9
$DIMDLE
 40
0
  9
$DIMEXE
 40
1.25
  9
$DIMTP
 40
0
  9
$DIMTM
 40
0
  9
$DIMTXT
 40
2.5
  9
$DIMCEN
 40
2.5
  9
$DIMTSZ
 40
0
  9
$DIMTOL
 70
    0
  9
$DIMLIM
 70
    0
  9
$DIMTIH
 70
    0
  9
$DIMTOH
 70
    0
  9
$DIMSE1
 70
    0
  9
$DIMSE2
 70
    0
  9
$DIMTAD
 70
    1
  9
$DIMZIN
 70
    8
  9
$DIMBLK
  1

  9
$DIMASO
 70
    1
  9
$DIMSHO
 70
    1
  9
$DIMPOST
  1

  9
$DIMAPOST
  1

  9
$DIMALT
 70
    0
  9
$DIMALTD
 70
    3
  9
$DIMALTF
 40
0.03937
  9
$DIMLFAC
 40
1
  9
$DIMTOFL
 70
    1
  9
$DIMTVP
 40
0
  9
$DIMTIX
 70
    0
  9
$DIMSOXD
 70
    0
  9
$DIMSAH
 70
    0
  9
$DIMBLK1
  1

  9
$DIMBLK2
  1

  9
$DIMSTYLE
  2
STANDARD
  9
$DIMCLRD
 70
    0
  9
$DIMCLRE
 70
    0
  9
$DIMCLRT
 70
    0
  9
$DIMTFAC
 40
1
  9
$DIMGAP
 40
0.625
  9
$DIMJUST
 70
    0
  9
$DIMSD1
 70
    0
  9
$DIMSD2
 70
    0
  9
$DIMTOLJ
 70
    0
  9
$DIMTZIN
 70
    8
  9
$DIMALTZ
 70
    0
  9
$DIMALTTZ
 70
    0
  9
$DIMUPT
 70
    0
  9
$DIMDEC
 70
    2
  9
$DIMTDEC
 70
    2
  9
$DIMALTU
 70
    2
  9
$DIMALTTD
 70
    3
  9
$DIMTXSTY
  7
standard
  9
$DIMAUNIT
 70
    0
  9
$DIMADEC
 70
    0
  9
$DIMALTRND
 40
0
  9
$DIMAZIN
 70
    0
  9
$DIMDSEP
 70
   44
  9
$DIMATFIT
 70
    3
  9
$DIMFRAC
 70
    0
  9
$DIMLDRBLK
  1
STANDARD
  9
$DIMLUNIT
 70
    2
  9
$DIMLWD
 70
   -2
  9
$DIMLWE
 70
   -2
  9
$DIMTMOVE
 70
    0
  9
$DIMFXL
 40
1
  9
$DIMFXLON
 70
    0
  9
$DIMJOGANG
 40
0.7854
  9
$DIMTFILL
 70
    0
  9
$DIMTFILLCLR
 70
    0
  9
$DIMARCSYM
 70
    0
  9
$DIMLTYPE
  6

  9
$DIMLTEX1
  6

  9
$DIMLTEX2
  6

  9
$LUNITS
 70
    2
  9
$LUPREC
 70
    4
  9
$SKETCHINC
 40
1
  9
$FILLETRAD
 40
0
  9
$AUNITS
 70
    0
  9
$AUPREC
 70
    2
  9
$MENU
  1
.
  9
$ELEVATION
 40
0
  9
$PELEVATION
 40
0
  9
$THICKNESS
 40
0
  9
$LIMCHECK
 70
    0
  9
$CHAMFERA
 40
0
  9
$CHAMFERB
 40
0
  9
$CHAMFERC
 40
0
  9
$CHAMFERD
 40
0
  9
$SKPOLY
 70
    0
  9
$USRTIMER
 70
    1
  9
$ANGBASE
 50
0
  9
$ANGDIR
 70
    0
  9
$PDMODE
 70
   34
  9
$PDSIZE
 40
0
  9
$PLINEWID
 40
0
  9
$SPLFRAME
 70
    0
  9
$SPLINETYPE
 70
    2
  9
$SPLINESEGS
 70
    8
  9
$HANDSEED
  5
20000
  9
$SURFTAB1
 70
    6
  9
$SURFTAB2
 70
    6
  9
$SURFTYPE
 70
    6
  9
$SURFU
 70
    6
  9
$SURFV
 70
    6
  9
$UCSBASE
  2

  9
$UCSNAME
  2

  9
$UCSORG
 10
0
 20
0
 30
0
  9
$UCSXDIR
 10
1
 20
0
 30
0
  9
$UCSYDIR
 10
0
 20
1
 30
0
  9
$UCSORTHOREF
  2

  9
$UCSORTHOVIEW
 70
    0
  9
$UCSORGTOP
 10
0
 20
0
 30
0
  9
$UCSORGBOTTOM
 10
0
 20
0
 30
0
  9
$UCSORGLEFT
 10
0
 20
0
 30
0
  9
$UCSORGRIGHT
 10
0
 20
0
 30
0
  9
$UCSORGFRONT
 10
0
 20
0
 30
0
  9
$UCSORGBACK
 10
0
 20
0
 30
0
  9
$PUCSBASE
  2

  9
$PUCSNAME
  2

  9
$PUCSORG
 10
0
 20
0
 30
0
  9
$PUCSXDIR
 10
1
 20
0
 30
0
  9
$PUCSYDIR
 10
0
 20
1
 30
0
  9
$PUCSORTHOREF
  2

  9
$PUCSORTHOVIEW
 70
    0
  9
$PUCSORGTOP
 10
0
 20
0
 30
0
  9
$PUCSORGBOTTOM
 10
0
 20
0
 30
0
  9
$PUCSORGLEFT
 10
0
 20
0
 30
0
  9
$PUCSORGRIGHT
 10
0
 20
0
 30
0
  9
$PUCSORGFRONT
 10
0
 20
0
 30
0
  9
$PUCSORGBACK
 10
0
 20
0
 30
0
  9
$USERI1
 70
    0
  9
$USERI2
 70
    0
  9
$USERI3
 70
    0
  9
$USERI4
 70
    0
  9
$USERI5
 70
    0
  9
$USERR1
 40
0
  9
$USERR2
 40
0
  9
$USERR3
 40
0
  9
$USERR4
 40
0
  9
$USERR5
 40
0
  9
$WORLDVIEW
 70
    1
  9
$SHADEDGE
 70
    3
  9
$SHADEDIF
 70
   70
  9
$TILEMODE
 70
    1
  9
$MAXACTVP
 70
   64
  9
$PINSBASE
 10
44.43750000000001
 20
43.71875
 30
0
  9
$PLIMCHECK
 70
    0
  9
$PEXTMIN
 10
0
 20
0
 30
0
  9
$PEXTMAX
 10
0
 20
0
 30
0
  9
$GRIDMODE
 70
    1
  9
$SNAPSTYLE
 70
    0
  9
$GRIDUNIT
 10
0
 20
0
  9
$PLIMMIN
 10
0
 20
0
  9
$PLIMMAX
 10
297
 20
210
  9
$UNITMODE
 70
    0
  9
$VISRETAIN
 70
    1
  9
$PLINEGEN
 70
    0
  9
$PSLTSCALE
 70
    1
  9
$TREEDEPTH
 70
 3020
  9
$CMLSTYLE
  2
Standard
  9
$CMLJUST
 70
    0
  9
$CMLSCALE
 40
20
  9
$PROXYGRAPHICS
 70
    1
  9
$MEASUREMENT
 70
    1
  9
$CELWEIGHT
370
   -1
  9
$ENDCAPS
280
    0
  9
$JOINSTYLE
280
    0
  9
$LWDISPLAY
290
    0
  9
$INSUNITS
 70
    4
  9
$HYPERLINKBASE
  1

  9
$STYLESHEET
  1

  9
$XEDIT
290
    1
  9
$CEPSNTYPE
380
    0
  9
$PSTYLEMODE
290
    1
  9
$EXTNAMES
290
    1
  9
$PSVPSCALE
 40
0.925000925000925
  9
$OLESTARTUP
290
    0
  9
$SORTENTS
280
  127
  9
$INDEXCTL
280
    0
  9
$HIDETEXT
280
    1
  9
$XCLIPFRAME
290
    0
  9
$HALOGAP
280
    0
  9
$OBSCOLOR
 70
  257
  9
$OBSLTYPE
280
    0
  9
$INTERSECTIONDISPLAY
280
    0
  9
$INTERSECTIONCOLOR
 70
  257
  9
$DIMASSOC
280
    1
  9
$PROJECTNAME
  1

  9
$CAMERADISPLAY
290
    0
  9
$LENSLENGTH
 40
50
  9
$CAMERAHEIGHT
 40
0
  9
$STEPSPERSEC
 40
2
  9
$STEPSIZE
 40
50
  9
$3DDWFPREC
 40
2
  9
$PSOLWIDTH
 40
5
  9
$PSOLHEIGHT
 40
80
  9
$LOFTANG1
 40
1.570796326794897
  9
$LOFTANG2
 40
1.570796326794897
  9
$LOFTMAG1
 40
0
  9
$LOFTMAG2
 40
0
  9
$LOFTPARAM
 70
    7
  9
$LOFTNORMALS
280
    1
  9
$LATITUDE
 40
1
  9
$LONGITUDE
 40
1
  9
$NORTHDIRECTION
 40
0
  9
$TIMEZONE
 70
-8000
  9
$LIGHTGLYPHDISPLAY
280
    1
  9
$TILEMODELIGHTSYNCH
280
    1
  9
$SOLIDHIST
280
    1
  9
$SHOWHIST
280
    1
  9
$DWFFRAME
280
    2
  9
$DGNFRAME
280
    0
  9
$REALWORLDSCALE
290
    1
  9
$INTERFERECOLOR
 62
    1
  9
$CSHADOW
280
    0
  9
$SHADOWPLANELOCATION
 40
0
  0
ENDSEC
  0
SECTION
  2
CLASSES
  0
ENDSEC
  0
SECTION
  2
TABLES
  0
TABLE
  2
VPORT
  5
8
330
0
100
AcDbSymbolTable
 70
    1
  0
VPORT
  5
31
330
2
100
AcDbSymbolTableRecord
100
AcDbViewportTableRecord
  2
*ACTIVE
 70
    0
 10
0
 20
0
 11
1
 21
1
 12
186.5822784810127
 22
85.82278481012658
 13
0
 23
0
 14
10
 24
10
 15
10
 25
10
 16
0
 26
0
 36
1
 17
0
 27
0
 37
0
 40
210.126582278481
 41
2.47710843373494
 42
50
 43
0
 44
0
 50
0
 51
0
 71
    0
 72
  100
 73
    1
 74
    3
 75
    0
 76
    1
 77
    0
 78
    0
281
    0
 65
    1
110
0
120
0
130
0
111
1
121
0
131
0
112
0
122
1
132
0
 79
    0
146
0
348
10020
 60
    7
 61
    5
292
1
282
    1
141
0
142
0
 63
  250
421
3358443
  0
ENDTAB
  0
TABLE
  2
LTYPE
  5
5
330
0
100
AcDbSymbolTable
 70
    4
  0
LTYPE
  5
14
330
5
100
AcDbSymbolTableRecord
100
AcDbLinetypeTableRecord
  2
ByBlock
 70
    0
  3

 72
   65
 73
    0
 40
0
  0
LTYPE
  5
15
330
5
100
AcDbSymbolTableRecord
100
AcDbLinetypeTableRecord
  2
ByLayer
 70
    0
  3

 72
   65
 73
    0
 40
0
  0
LTYPE
  5
16
330
5
100
AcDbSymbolTableRecord
100
AcDbLinetypeTableRecord
  2
Continuous
 70
    0
  3
Solid line
 72
   65
 73
    0
 40
0
  0
LTYPE
  5
32
330
5
100
AcDbSymbolTableRecord
100
AcDbLinetypeTableRecord
  2
DOT
 70
    0
  3
Dot . . . . . . . . . . . . . . . . . . . . . .
 72
   65
 73
    2
 40
6.35
 49
0
 74
    0
 49
-6.35
 74
    0
  0
LTYPE
  5
33
330
5
100
AcDbSymbolTableRecord
100
AcDbLinetypeTableRecord
  2
DOTTINY
 70
    0
  3
Dot (.15x) .....................................
 72
   65
 73
    2
 40
0.9525
 49
0
 74
    0
 49
-0.9525
 74
    0
  0
LTYPE
  5
34
330
5
100
AcDbSymbolTableRecord
100
AcDbLinetypeTableRecord
  2
DOT2
 70
    0
  3
Dot (.5x) .....................................
 72
   65
 73
    2
 40
3.175
 49
0
 74
    0
 49
-3.175
 74
    0
  0
LTYPE
  5
35
330
5
100
AcDbSymbolTableRecord
100
AcDbLinetypeTableRecord
  2
DOTX2
 70
    0
  3
Dot (2x) .  .  .  .  .  .  .  .  .  .  .  .  .
 72
   65
 73
    2
 40
12.7
 49
0
 74
    0
 49
-12.7
 74
    0
  0
LTYPE
  5
36
330
5
100
AcDbSymbolTableRecord
100
AcDbLinetypeTableRecord
  2
DASHED
 70
    0
  3
Dashed _ _ _ _ _ _ _ _ _ _ _ _ _ _ _ _ _
 72
   65
 73
    2
 40
19.05
 49
12.7
 74
    0
 49
-6.35
 74
    0
  0
LTYPE
  5
37
330
5
100
AcDbSymbolTableRecord
100
AcDbLinetypeTableRecord
  2
DASHEDTINY
 70
    0
  3
Dashed (.15x) _ _ _ _ _ _ _ _ _ _ _ _ _ _ _ _ _
 72
   65
 73
    2
 40
2.8575
 49
1.905
 74
    0
 49
-0.9525
 74
    0
  0
LTYPE
  5
38
330
5
100
AcDbSymbolTableRecord
100
AcDbLinetypeTableRecord
  2
DASHED2
 70
    0
  3
Dashed (.5x) _ _ _ _ _ _ _ _ _ _ _ _ _ _ _ _ _
 72
   65
 73
    2
 40
9.524999999999999
 49
6.35
 74
    0
 49
-3.175
 74
    0
  0
LTYPE
  5
39
330
5
100
AcDbSymbolTableRecord
100
AcDbLinetypeTableRecord
  2
DASHEDX2
 70
    0
  3
Dashed (2x) ____  ____  ____  ____  ____  ___
 72
   65
 73
    2
 40
38.09999999999999
 49
25.4
 74
    0
 49
-12.7
 74
    0
  0
LTYPE
  5
3A
330
5
100
AcDbSymbolTableRecord
100
AcDbLinetypeTableRecord
  2
DASHDOT
 70
    0
  3
Dash dot __ . __ . __ . __ . __ . __ . __ . __
 72
   65
 73
    4
 40
25.4
 49
12.7
 74
    0
 49
-6.35
 74
    0
 49
0
 74
    0
 49
-6.35
 74
    0
  0
LTYPE
  5
3B
330
5
100
AcDbSymbolTableRecord
100
AcDbLinetypeTableRecord
  2
DASHDOTTINY
 70
    0
  3
Dash dot (.15x) _._._._._._._._._._._._._._._.
 72
   65
 73
    4
 40
3.81
 49
1.905
 74
    0
 49
-0.9525
 74
    0
 49
0
 74
    0
 49
-0.9525
 74
    0
  0
LTYPE
  5
3C
330
5
100
AcDbSymbolTableRecord
100
AcDbLinetypeTableRecord
  2
DASHDOT2
 70
    0
  3
Dash dot (.5x) _._._._._._._._._._._._._._._.
 72
   65
 73
    4
 40
12.7
 49
6.35
 74
    0
 49
-3.175
 74
    0
 49
0
 74
    0
 49
-3.175
 74
    0
  0
LTYPE
  5
3D
330
5
100
AcDbSymbolTableRecord
100
AcDbLinetypeTableRecord
  2
DASHDOTX2
 70
    0
  3
Dash dot (2x) ____  .  ____  .  ____  .  ___
 72
   65
 73
    4
 40
50.8
 49
25.4
 74
    0
 49
-12.7
 74
    0
 49
0
 74
    0
 49
-12.7
 74
    0
  0
LTYPE
  5
3E
330
5
100
AcDbSymbolTableRecord
100
AcDbLinetypeTableRecord
  2
DIVIDE
 70
    0
  3
Divide ____ . . ____ . . ____ . . ____ . . ____
 72
   65
 73
    6
 40
31.75
 49
12.7
 74
    0
 49
-6.35
 74
    0
 49
0
 74
    0
 49
-6.35
 74
    0
 49
0
 74
    0
 49
-6.35
 74
    0
  0
LTYPE
  5
3F
330
5
100
AcDbSymbolTableRecord
100
AcDbLinetypeTableRecord
  2
DIVIDETINY
 70
    0
  3
Divide (.15x) __..__..__..__..__..__..__..__.._
 72
   65
 73
    6
 40
4.7625
 49
1.905
 74
    0
 49
-0.9525
 74
    0
 49
0
 74
    0
 49
-0.9525
 74
    0
 49
0
 74
    0
 49
-0.9525
 74
    0
  0
LTYPE
  5
40
330
5
100
AcDbSymbolTableRecord
100
AcDbLinetypeTableRecord
  2
DIVIDE2
 70
    0
  3
Divide (.5x) __..__..__..__..__..__..__..__.._
 72
   65
 73
    6
 40
15.875
 49
6.35
 74
    0
 49
-3.175
 74
    0
 49
0
 74
    0
 49
-3.175
 74
    0
 49
0
 74
    0
 49
-3.175
 74
    0
  0
LTYPE
  5
41
330
5
100
AcDbSymbolTableRecord
100
AcDbLinetypeTableRecord
  2
DIVIDEX2
 70
    0
  3
Divide (2x) ________  .  .  ________  .  .  _
 72
   65
 73
    6
 40
63.5
 49
25.4
 74
    0
 49
-12.7
 74
    0
 49
0
 74
    0
 49
-12.7
 74
    0
 49
0
 74
    0
 49
-12.7
 74
    0
  0
LTYPE
  5
42
330
5
100
AcDbSymbolTableRecord
100
AcDbLinetypeTableRecord
  2
BORDER
 70
    0
  3
Border __ __ . __ __ . __ __ . __ __ . __ __ .
 72
   65
 73
    6
 40
44.45
 49
12.7
 74
    0
 49
-6.35
 74
    0
 49
12.7
 74
    0
 49
-6.35
 74
    0
 49
0
 74
    0
 49
-6.35
 74
    0
  0
LTYPE
  5
43
330
5
100
AcDbSymbolTableRecord
100
AcDbLinetypeTableRecord
  2
BORDERTINY
 70
    0
  3
Border (.15x) __.__.__.__.__.__.__.__.__.__.__.
 72
   65
 73
    6
 40
6.6675
 49
1.905
 74
    0
 49
-0.9525
 74
    0
 49
1.905
 74
    0
 49
-0.9525
 74
    0
 49
0
 74
    0
 49
-0.9525
 74
    0
  0
LTYPE
  5
44
330
5
100
AcDbSymbolTableRecord
100
AcDbLinetypeTableRecord
  2
BORDER2
 70
    0
  3
Border (.5x) __.__.__.__.__.__.__.__.__.__.__.
 72
   65
 73
    6
 40
22.225
 49
6.35
 74
    0
 49
-3.175
 74
    0
 49
6.35
 74
    0
 49
-3.175
 74
    0
 49
0
 74
    0
 49
-3.175
 74
    0
  0
LTYPE
  5
45
330
5
100
AcDbSymbolTableRecord
100
AcDbLinetypeTableRecord
  2
BORDERX2
 70
    0
  3
Border (2x) ____  ____  .  ____  ____  .  ___
 72
   65
 73
    6
 40
88.89999999999999
 49
25.4
 74
    0
 49
-12.7
 74
    0
 49
25.4
 74
    0
 49
-12.7
 74
    0
 49
0
 74
    0
 49
-12.7
 74
    0
  0
LTYPE
  5
46
330
5
100
AcDbSymbolTableRecord
100
AcDbLinetypeTableRecord
  2
CENTER
 70
    0
  3
Center ____ _ ____ _ ____ _ ____ _ ____ _ ____
 72
   65
 73
    4
 40
50.8
 49
31.75
 74
    0
 49
-6.35
 74
    0
 49
6.35
 74
    0
 49
-6.35
 74
    0
  0
LTYPE
  5
47
330
5
100
AcDbSymbolTableRecord
100
AcDbLinetypeTableRecord
  2
CENTERTINY
 70
    0
  3
Center (.15x) ___ _ ___ _ ___ _ ___ _ ___ _ ___
 72
   65
 73
    4
 40
7.619999999999999
 49
4.7625
 74
    0
 49
-0.9525
 74
    0
 49
0.9525
 74
    0
 49
-0.9525
 74
    0
  0
LTYPE
  5
48
330
5
100
AcDbSymbolTableRecord
100
AcDbLinetypeTableRecord
  2
CENTER2
 70
    0
  3
Center (.5x) ___ _ ___ _ ___ _ ___ _ ___ _ ___
 72
   65
 73
    4
 40
28.575
 49
19.05
 74
    0
 49
-3.175
 74
    0
 49
3.175
 74
    0
 49
-3.175
 74
    0
  0
LTYPE
  5
49
330
5
100
AcDbSymbolTableRecord
100
AcDbLinetypeTableRecord
  2
CENTERX2
 70
    0
  3
Center (2x) ________  __  ________  __  _____
 72
   65
 73
    4
 40
101.6
 49
63.5
 74
    0
 49
-12.7
 74
    0
 49
12.7
 74
    0
 49
-12.7
 74
    0
  0
ENDTAB
  0
TABLE
  2
LAYER
  5
2
330
0
100
AcDbSymbolTable
 70
    1
  0
LAYER
  5
10
330
2
100
AcDbSymbolTableRecord
100
AcDbLayerTableRecord
  2
0
 70
    1
 62
    7
  6
CONTINUOUS
370
    0
390
F
  0
LAYER
  5
4A
330
2
100
AcDbSymbolTableRecord
100
AcDbLayerTableRecord
  2
Amarelo/Yellow
 70
    0
 62
    2
  6
CONTINUOUS
370
    0
390
F
  0
LAYER
  5
4B
330
2
100
AcDbSymbolTableRecord
100
AcDbLayerTableRecord
  2
Azul/Blue
 70
    0
 62
    5
  6
CONTINUOUS
370
    0
390
F
  0
LAYER
  5
4C
330
2
100
AcDbSymbolTableRecord
100
AcDbLayerTableRecord
  2
Estrelas
 70
    0
 62
  255
420
16711422
  6
CONTINUOUS
370
    0
390
F
  0
LAYER
  5
4D
330
2
100
AcDbSymbolTableRecord
100
AcDbLayerTableRecord
  2
Fonts
 70
    1
 62
    6
  6
CONTINUOUS
370
    0
390
F
  0
LAYER
  5
4E
330
2
100
AcDbSymbolTableRecord
100
AcDbLayerTableRecord
  2
G - Carolingi[o/an]
 70
    1
 62
   96
420
32768
  6
CONTINUOUS
370
    0
390
F
  0
LAYER
  5
4F
330
2
100
AcDbSymbolTableRecord
100
AcDbLayerTableRecord
  2
G - Insular-Gaelic[o]
 70
    0
 62
   96
420
32768
  6
CONTINUOUS
370
    0
390
F
  0
LAYER
  5
50
330
2
100
AcDbSymbolTableRecord
100
AcDbLayerTableRecord
  2
Marcacao
 70
    1
 62
    4
  6
CONTINUOUS
370
    0
390
F
  0
LAYER
  5
51
330
2
100
AcDbSymbolTableRecord
100
AcDbLayerTableRecord
  2
Text
 70
    0
 62
    7
  6
CONTINUOUS
370
    0
390
F
  0
LAYER
  5
52
330
2
100
AcDbSymbolTableRecord
100
AcDbLayerTableRecord
  2
Verde/Green
 70
    0
 62
   96
420
32768
  6
CONTINUOUS
370
    0
390
F
  0
ENDTAB
  0
TABLE
  2
STYLE
  5
3
330
0
100
AcDbSymbolTable
 70
    3
  0
STYLE
  5
53
330
2
100
AcDbSymbolTableRecord
100
AcDbTextStyleTableRecord
  2
standard
 70
    0
 40
0
 41
1
 50
0
 71
    0
 42
1
  3
standard
  4

  0
ENDTAB
  0
TABLE
  2
VIEW
  5
6
330
0
100
AcDbSymbolTable
 70
    0
  0
ENDTAB
  0
TABLE
  2
UCS
  5
7
330
0
100
AcDbSymbolTable
 70
    0
  0
ENDTAB
  0
TABLE
  2
APPID
  5
9
330
0
100
AcDbSymbolTable
 70
    1
  0
APPID
  5
12
330
9
100
AcDbSymbolTableRecord
100
AcDbRegAppTableRecord
  2
ACAD
 70
    0
  0
APPID
  5
54
330
9
100
AcDbSymbolTableRecord
100
AcDbRegAppTableRecord
  2
LibreCad
 70
    0
  0
ENDTAB
  0
TABLE
  2
DIMSTYLE
  5
A
330
0
100
AcDbSymbolTable
 70
    1
100
AcDbDimStyleTable
 71
    1
  0
DIMSTYLE
105
55
330
A
100
AcDbSymbolTableRecord
100
AcDbDimStyleTableRecord
  2
Standard
 70
    0
 40
2.5
 41
2.5
 42
0.625
 43
0.38
 44
1.25
 45
0
 46
0
 47
0
 48
0
 49
1
140
2.5
141
0.09
142
0
143
25.4
144
1
145
0
146
1
147
0.625
148
0
 71
    0
 72
    0
 73
    0
 74
    1
 75
    0
 76
    0
 77
    0
 78
    8
 79
    0
170
    0
171
    2
172
    0
173
    0
174
    0
175
    0
176
    0
177
    0
178
    0
179
    0
271
    2
272
    4
273
    2
274
    2
275
    0
276
    0
277
    2
278
   44
279
    0
280
    0
281
    0
282
    0
283
    1
284
    0
285
    0
286
    0
288
    0
289
    3
340
standard
341

371
   -2
372
   -2
  0
ENDTAB
  0
TABLE
  2
BLOCK_RECORD
  5
1
330
0
100
AcDbSymbolTable
 70
    2
  0
BLOCK_RECORD
  5
1F
330
1
100
AcDbSymbolTableRecord
100
AcDbBlockTableRecord
  2
*Model_Space
 70
    0
280
    1
281
    0
  0
BLOCK_RECORD
  5
1E
330
1
100
AcDbSymbolTableRecord
100
AcDbBlockTableRecord
  2
*Paper_Space
 70
    0
280
    1
281
    0
  0
BLOCK_RECORD
  5
56
330
1
100
AcDbSymbolTableRecord
100
AcDbBlockTableRecord
  2
Stars
 70
    0
280
    1
281
    0
  0
ENDTAB
  0
ENDSEC
  0
SECTION
  2
BLOCKS
  0
BLOCK
  5
20
330
1F
100
AcDbEntity
  8
0
100
AcDbBlockBegin
  2
*Model_Space
 70
    0
 10
0
 20
0
 30
0
  3
*Model_Space
  1

  0
ENDBLK
  5
21
330
1F
100
AcDbEntity
  8
0
100
AcDbBlockEnd
  0
BLOCK
  5
1C
330
1B
100
AcDbEntity
  8
0
100
AcDbBlockBegin
  2
*Paper_Space
 70
    0
 10
0
 20
0
 30
0
  3
*Paper_Space
  1

  0
ENDBLK
  5
1D
330
1F
100
AcDbEntity
  8
0
100
AcDbBlockEnd
  0
BLOCK
  5
57
330
56
100
AcDbEntity
  8
0
100
AcDbBlockBegin
  2
Stars
 70
    0
 10
0
 20
0
  3
Stars
  1

  0
HATCH
  5
59
100
AcDbEntity
  8
Estrelas
  6
ByLayer
 62
  256
370
   -1
100
AcDbHatch
 10
0
 20
0
 30
0
210
0
220
0
230
1
  2
SOLID
 70
    1
 71
    0
 91
    1
 92
    0
 93
   10
 72
    1
 10
0.2204194696096774
 20
-0.3033813728906053
 11
0.1362267240010051
 21
-0.04426274578121062
 72
    1
 10
0.1362267240010051
 20
-0.04426274578121062
 11
0.3566461936106826
 21
0.1158813728906052
 72
    1
 10
0.3566461936106826
 20
0.1158813728906052
 11
0.08419274560867225
 21
0.1158813728906052
 72
    1
 10
0.08419274560867225
 20
0.1158813728906052
 11
2.296212748401287e-17
 21
0.375
 72
    1
 10
2.296212748401287e-17
 20
0.375
 11
-0.08419274560867226
 21
0.1158813728906053
 72
    1
 10
-0.08419274560867226
 20
0.1158813728906053
 11
-0.3566461936106826
 21
0.1158813728906053
 72
    1
 10
-0.3566461936106826
 20
0.1158813728906053
 11
-0.1362267240010052
 21
-0.04426274578121053
 72
    1
 10
-0.1362267240010052
 20
-0.04426274578121053
 11
-0.2204194696096775
 21
-0.3033813728906052
 72
    1
 10
-0.2204194696096775
 20
-0.3033813728906052
 11
-2.775557561562891e-17
 21
-0.1432372542187894
 72
    1
 10
-2.775557561562891e-17
 20
-0.1432372542187894
 11
0.2204194696096774
 21
-0.3033813728906053
 97
    0
 75
    0
 76
    1
 98
    0
  0
CIRCLE
  5
5A
100
AcDbEntity
  8
Marcacao
  6
ByLayer
 62
  256
370
   -1
100
AcDbCircle
 10
0
 20
0
 40
0.375
  0
LWPOLYLINE
  5
5B
100
AcDbEntity
  8
Estrelas
  6
ByLayer
 62
  256
370
   -1
100
AcDbPolyline
 90
   10
 70
    1
 43
0
 10
0.2204194696096774
 20
-0.3033813728906053
 10
0.1362267240010051
 20
-0.04426274578121062
 10
0.3566461936106826
 20
0.1158813728906052
 10
0.08419274560867225
 20
0.1158813728906052
 10
2.296212748401287e-17
 20
0.375
 10
-0.08419274560867226
 20
0.1158813728906053
 10
-0.3566461936106826
 20
0.1158813728906053
 10
-0.1362267240010052
 20
-0.04426274578121053
 10
-0.2204194696096775
 20
-0.3033813728906052
 10
-2.775557561562891e-17
 20
-0.1432372542187894
  0
ENDBLK
  5
58
330
56
100
AcDbEntity
  8
0
100
AcDbBlockEnd
  0
ENDSEC
  0
SECTION
  2
ENTITIES
  0
HATCH
  5
5C
100
AcDbEntity
  8
Verde/Green
  6
ByLayer
 62
  256
370
   -1
100
AcDbHatch
 10
0
 20
0
 30
0
210
0
220
0
230
1
  2
SOLID
 70
    1
 71
    0
 91
    1
 92
    0
 93
    4
 72
    1
 10
-12.5
 20
166.25
 11
-12.5
 21
-8.75
 72
    1
 10
-12.5
 20
-8.75
 11
237.5
 21
-8.75
 72
    1
 10
237.5
 20
-8.75
 11
237.5
 21
166.25
 72
    1
 10
237.5
 20
166.25
 11
-12.5
 21
166.25
 97
    0
 75
    0
 76
    1
 98
    0
  0
HATCH
  5
5D
100
AcDbEntity
  8
Amarelo/Yellow
  6
ByLayer
 62
  256
370
   -1
100
AcDbHatch
 10
0
 20
0
 30
0
210
0
220
0
230
1
  2
SOLID
 70
    1
 71
    0
 91
    1
 92
    0
 93
    4
 72
    1
 10
112.5
 20
145
 11
8.75
 21
78.75
 72
    1
 10
8.75
 20
78.75
 11
112.5
 21
12.5
 72
    1
 10
112.5
 20
12.5
 11
216.25
 21
78.75
 72
    1
 10
216.25
 20
78.75
 11
112.5
 21
145
 97
    0
 75
    0
 76
    1
 98
    0
  0
HATCH
  5
5E
100
AcDbEntity
  8
Estrelas
  6
ByLayer
 62
  256
370
   -1
100
AcDbHatch
 10
0
 20
0
 30
0
210
0
220
0
230
1
  2
SOLID
 70
    1
 71
    0
 91
    1
 92
    0
 93
    4
 72
    2
 10
87.5
 20
-8.75
 40
100
 50
48.1185112651604
 51
99.99069693299391
 73
    1
 72
    2
 10
112.5
 20
78.75
 40
43.75
 50
194.5398655456636
 51
203.8405380059686
 73
    0
 72
    2
 10
87.5
 20
-8.75
 40
106.25
 50
261.8748192551716
 51
310.015972546674
 73
    0
 72
    2
 10
112.5
 20
78.75
 40
43.75
 50
8.050253795876982
 51
17.35092625618201
 73
    0
 97
    0
 75
    0
 76
    1
 98
    0
  0
HATCH
  5
5F
100
AcDbEntity
  8
G - Insular-Gaelic[o]
  6
ByLayer
 62
  256
370
   -1
100
AcDbHatch
 10
0
 20
0
 30
0
210
0
220
0
230
1
  2
SOLID
 70
    1
 71
    0
 91
    1
 92
    0
 93
   11
 72
    3
 10
129.7350774833982
 20
83.97925026641457
 11
-1.377016351831968
 21
0.5948327216823138
 40
0.5000000000003766
 50
0
 51
360
 73
    1
 72
    1
 10
131.7123925702358
 20
86.6653681765965
 11
132.8599035161548
 21
86.16967539980908
 72
    1
 10
132.8599035161548
 20
86.16967539980908
 11
133.0581810900491
 21
86.62868085042007
 72
    1
 10
133.0581810900491
 20
86.62868085042007
 11
129.3861374851611
 21
88.21490144157411
 72
    1
 10
129.3861374851611
 20
88.21490144157411
 11
129.1878599112669
 21
87.7558959909631
 72
    1
 10
129.1878599112669
 20
87.7558959909631
 11
130.686024047666
 21
87.10873079964526
 72
    2
 10
131.3158362894885
 20
85.74735776478116
 40
1.500000000000004
 50
114.8266851042735
 51
156.637
 73
    1
 72
    1
 10
129.9388199376554
 20
86.34219048646392
 11
129.5060916002612
 21
85.34043995262007
 72
    3
 10
129.7350774833982
 20
83.97925026641457
 11
1.836021802442962
 21
-0.7931102955765769
 40
0.6250000000003533
 50
122.9121626758747
 51
101.3969435685162
 73
    1
 72
    1
 10
129.9973822231277
 20
85.21690196062045
 11
130.3978251809196
 21
86.14391300213774
 72
    2
 10
131.3158360821425
 20
85.74735785434882
 40
1.000000000001071
 50
203.363
 51
293.3630836523885
 73
    0
 97
    0
 75
    0
 76
    1
 98
    0
  0
HATCH
  5
60
100
AcDbEntity
  8
Fonts
  6
ByLayer
 62
  256
370
   -1
100
AcDbHatch
 10
0
 20
0
 30
0
210
0
220
0
230
1
  2
SOLID
 70
    1
 71
    0
 91
    1
 92
    0
 93
   11
 72
    3
 10
24.50000000000001
 20
14.99999999999999
 11
-1.49999999999887
 21
0
 40
0.5000000000003766
 50
0
 51
360
 73
    1
 72
    1
 10
25.2500029200181
 20
18.25
 11
26.5
 21
18.25
 72
    1
 10
26.5
 20
18.25
 11
26.5
 21
18.75
 72
    1
 10
26.5
 20
18.75
 11
22.5
 21
18.75
 72
    1
 10
22.5
 20
18.75
 11
22.5
 21
18.25
 72
    1
 10
22.5
 20
18.25
 11
24.13196769712087
 21
18.24999999999999
 72
    2
 10
25.2500016858728
 20
17.25
 40
1.500000000000004
 50
138.1896851042735
 51
180
 73
    1
 72
    1
 10
23.7500016858728
 20
17.25
 11
23.75000168587292
 21
16.15878143983877
 72
    3
 10
24.50000000000001
 20
15
 11
1.999999999998867
 21
-1.136868377215518e-14
 40
0.6250000000003533
 50
122.9121626758748
 51
101.3969435685167
 73
    1
 72
    1
 10
24.25000146000742
 20
16.24019604202595
 11
24.25000146000742
 21
17.25
 72
    2
 10
25.25000146000849
 20
17.25
 40
1.000000000001071
 50
180
 51
270.0000836523885
 73
    0
 97
    0
 75
    0
 76
    1
 98
    0
  0
HATCH
  5
61
100
AcDbEntity
  8
G - Carolingi[o/an]
  6
ByLayer
 62
  256
370
   -1
100
AcDbHatch
 10
0
 20
0
 30
0
210
0
220
0
230
1
  2
SOLID
 70
    1
 71
    0
 91
    1
 92
    0
 93
   15
 72
    1
 10
129.7133931342395
 20
85.34062155759278
 11
131.9893626750834
 21
84.30623156868592
 72
    1
 10
131.9893626750834
 20
84.30623156868592
 11
130.9549726861765
 21
82.03026202784203
 72
    1
 10
130.9549726861765
 20
82.03026202784203
 11
130.4997787780054
 21
82.23714002562444
 72
    1
 10
130.4997787780054
 20
82.23714002562444
 11
130.7799430352696
 21
82.85358577897149
 72
    2
 10
129.9617090446271
 20
84.6785496516431
 40
2.000000000000002
 50
65.85062210937529
 51
204.441
 73
    0
 72
    1
 10
128.1409334119519
 20
85.50606164276859
 11
128.5546894075143
 21
86.41644945910519
 72
    2
 10
130.3754650401894
 20
85.5889374679797
 40
2.000000000000002
 50
204.441
 51
6.944916617331287
 73
    0
 72
    1
 10
132.3607907531178
 20
85.34710733423957
 11
131.8467977407134
 21
85.29708119450603
 72
    2
 10
130.3754650401894
 20
85.5889374679797
 40
1.500000000000002
 50
348.7803451190476
 51
155.559
 73
    1
 72
    1
 10
129.0098833156831
 20
86.20957146132382
 11
128.5961273201208
 21
85.29918364498721
 72
    2
 10
129.9617090446271
 20
84.6785496516431
 40
1.500000000000002
 50
155.559
 51
335.559
 73
    1
 72
    1
 10
131.3272907691318
 20
84.05791565829917
 11
129.9617090446269
 21
84.67854965164264
 72
    1
 10
129.9617090446269
 20
84.67854965164264
 11
129.7548310468455
 21
84.22335574347385
 72
    1
 10
129.7548310468455
 20
84.22335574347385
 11
129.2996371386767
 21
84.43023374125522
 72
    1
 10
129.2996371386767
 20
84.43023374125522
 11
129.7133931342395
 21
85.34062155759278
 97
    0
 75
    0
 76
    1
 98
    0
  0
HATCH
  5
62
100
AcDbEntity
  8
Azul/Blue
  6
ByLayer
 62
  256
370
   -1
100
AcDbHatch
 10
0
 20
0
 30
0
210
0
220
0
230
1
  2
SOLID
 70
    1
 71
    0
 91
    1
 92
    0
 93
    2
 72
    2
 10
112.5
 20
78.75
 40
43.75
 50
165.4601344543364
 51
342.649073743818
 73
    1
 72
    2
 10
87.5
 20
-8.75
 40
100
 50
48.1185112651604
 51
99.99069693299391
 73
    1
 97
    0
 75
    0
 76
    1
 98
    0
  0
HATCH
  5
63
100
AcDbEntity
  8
Azul/Blue
  6
ByLayer
 62
  256
370
   -1
100
AcDbHatch
 10
0
 20
0
 30
0
210
0
220
0
230
1
  2
SOLID
 70
    1
 71
    0
 91
    1
 92
    0
 93
    2
 72
    2
 10
112.5
 20
78.75
 40
43.75
 50
351.949746204123
 51
156.1594619940314
 73
    1
 72
    2
 10
87.5
 20
-8.75
 40
106.25
 50
261.8748192551716
 51
310.015972546674
 73
    0
 97
    0
 75
    0
 76
    1
 98
    0
  0
HATCH
  5
64
100
AcDbEntity
  8
Verde/Green
  6
ByLayer
 62
  256
370
   -1
100
AcDbHatch
 10
0
 20
0
 30
0
210
0
220
0
230
1
  2
SOLID
 70
    1
 71
    0
 91
    1
 92
    0
 93
    8
 72
    2
 10
75.39336178909429
 20
94.16535325805441
 40
2.000000000000002
 50
6.70925999999999
 51
186.70926
 73
    1
 72
    1
 10
73.40705822802205
 20
93.93169075941208
 11
73.52388947734309
 21
92.93853897887701
 72
    2
 10
75.51019303841534
 20
93.17220147751934
 40
2.000000000000002
 50
186.70926
 51
6.70925999999999
 73
    1
 72
    1
 10
77.49649659948756
 20
93.40586397616167
 11
77.37966535016652
 21
94.39901575669674
 72
    2
 10
75.39336178909429
 20
94.16535325805441
 40
1.500000000000002
 50
6.70925999999999
 51
186.70926
 73
    1
 72
    1
 10
73.90363411829011
 20
93.99010638407265
 11
74.02046536761117
 21
92.99695460353759
 72
    2
 10
75.51019303841534
 20
93.17220147751934
 40
1.500000000000002
 50
186.70926
 51
6.70925999999999
 73
    1
 72
    1
 10
76.99992070921951
 20
93.3474483515011
 11
76.88308945989846
 21
94.34060013203617
 97
    0
 75
    0
 76
    1
 98
    0
  0
HATCH
  5
65
100
AcDbEntity
  8
Verde/Green
  6
ByLayer
 62
  256
370
   -1
100
AcDbHatch
 10
0
 20
0
 30
0
210
0
220
0
230
1
  2
SOLID
 70
    1
 71
    0
 91
    1
 92
    0
 93
    8
 72
    2
 10
152.1495232090098
 20
72.23505895439969
 40
2.000000000000002
 50
321.4
 51
141.3999999999999
 73
    1
 72
    1
 10
150.5864822641722
 20
73.48281814781845
 11
149.9626026674634
 21
72.70129767540044
 72
    2
 10
151.5256436123011
 20
71.45353848198168
 40
2.000000000000002
 50
141.3999999999999
 51
321.4
 73
    1
 72
    1
 10
153.0886845571387
 20
70.20577928856291
 11
153.7125641538475
 21
70.98729976098092
 72
    2
 10
152.1495232090098
 20
72.23505895439969
 40
1.500000000000002
 50
321.4
 51
141.3999999999999
 73
    1
 72
    1
 10
150.9772425003816
 20
73.17087834946378
 11
150.3533629036729
 21
72.38935787704577
 72
    2
 10
151.5256436123011
 20
71.45353848198168
 40
1.500000000000002
 50
141.3999999999999
 51
321.4
 73
    1
 72
    1
 10
152.6979243209293
 20
70.51771908691759
 11
153.3218039176381
 21
71.2992395593356
 97
    0
 75
    0
 76
    1
 98
    0
  0
HATCH
  5
66
100
AcDbEntity
  8
Verde/Green
  6
ByLayer
 62
  256
370
   -1
100
AcDbHatch
 10
0
 20
0
 30
0
210
0
220
0
230
1
  2
SOLID
 70
    1
 71
    0
 91
    1
 92
    0
 93
    8
 72
    2
 10
125.6620406235961
 20
87.59209505944371
 40
2.000000000000002
 50
338.391
 51
158.391
 73
    1
 72
    1
 10
123.8026033244995
 20
88.32863625362651
 11
123.4343327274085
 21
87.39891760407917
 72
    2
 10
125.2937700265051
 20
86.66237640989637
 40
2.000000000000002
 50
158.391
 51
338.391
 73
    1
 72
    1
 10
127.1532073256018
 20
85.92583521571356
 11
127.5214779226928
 21
86.8555538652609
 72
    2
 10
125.6620406235961
 20
87.59209505944371
 40
1.500000000000002
 50
338.391
 51
158.391
 73
    1
 72
    1
 10
124.2674626492737
 20
88.1445009550808
 11
123.8991920521827
 21
87.21478230553346
 72
    2
 10
125.2937700265051
 20
86.66237640989637
 40
1.500000000000002
 50
158.391
 51
338.391
 73
    1
 72
    1
 10
126.6883480008276
 20
86.10997051425927
 11
127.0566185979186
 21
87.03968916380661
 97
    0
 75
    0
 76
    1
 98
    0
  0
HATCH
  5
67
100
AcDbEntity
  8
Verde/Green
  6
ByLayer
 62
  256
370
   -1
100
AcDbHatch
 10
0
 20
0
 30
0
210
0
220
0
230
1
  2
SOLID
 70
    1
 71
    0
 91
    1
 92
    0
 93
   13
 72
    2
 10
81.19020810487226
 20
95.43680171326969
 40
0.7500000000000018
 50
273.87743
 51
93.87743
 73
    1
 72
    1
 10
81.13949139727455
 20
96.18508495881943
 11
78.89464166062535
 21
96.03293483602639
 72
    1
 10
78.89464166062535
 20
96.03293483602639
 11
78.99607507582073
 21
94.5363683449269
 72
    1
 10
78.99607507582073
 20
94.5363683449269
 11
81.24092481246991
 21
94.68851846771996
 72
    2
 10
81.19020810487226
 20
95.43680171326969
 40
1.25
 50
273.87743
 51
93.87743
 73
    1
 72
    1
 10
81.10568025887609
 20
96.68394045585259
 11
78.36197502519371
 21
96.49797919466108
 72
    1
 10
78.36197502519371
 20
96.49797919466108
 11
78.70008640917828
 21
91.50942422432948
 72
    1
 10
78.70008640917828
 20
91.50942422432948
 11
79.19894190621145
 21
91.54323536272793
 72
    1
 10
79.19894190621145
 20
91.54323536272793
 11
79.02988621421918
 21
94.03751284789374
 72
    1
 10
79.02988621421918
 20
94.03751284789374
 11
81.94846673144835
 21
91.72959106081879
 72
    1
 10
81.94846673144835
 20
91.72959106081879
 11
82.69093038544355
 21
91.77991333151712
 72
    1
 10
82.69093038544355
 20
91.77991333151712
 11
79.77234986821442
 21
94.0878351185921
 72
    1
 10
79.77234986821441
 20
94.0878351185921
 11
81.27473595086839
 21
94.1896629706868
 97
    0
 75
    0
 76
    1
 98
    0
  0
HATCH
  5
68
100
AcDbEntity
  8
Verde/Green
  6
ByLayer
 62
  256
370
   -1
100
AcDbHatch
 10
0
 20
0
 30
0
210
0
220
0
230
1
  2
SOLID
 70
    1
 71
    0
 91
    1
 92
    0
 93
   13
 72
    2
 10
121.8068996649772
 20
89.82859686756137
 40
0.7500000000000018
 50
251.223
 51
71.223
 73
    1
 72
    1
 10
122.0483139099074
 20
90.53868077974697
 11
119.9180621733507
 21
91.26292351453769
 72
    1
 10
119.9180621733507
 20
91.26292351453769
 11
119.4352336834902
 21
89.84275569016654
 72
    1
 10
119.4352336834902
 20
89.84275569016654
 11
121.5654854200469
 21
89.11851295537582
 72
    2
 10
121.8068996649772
 20
89.82859686756137
 40
1.25
 50
251.223
 51
71.223
 73
    1
 72
    1
 10
122.2092567398609
 20
91.01207005453733
 11
119.6056157285138
 21
91.89725561928155
 72
    1
 10
119.6056157285138
 20
91.89725561928155
 11
117.9961874289789
 21
87.16336287137776
 72
    1
 10
117.9961874289789
 20
87.16336287137776
 11
118.4695767037693
 21
87.00242004142426
 72
    1
 10
118.4695767037693
 20
87.00242004142426
 11
119.2742908535367
 21
89.36936641537615
 72
    1
 10
119.2742908535367
 20
89.36936641537615
 11
121.0787402206154
 21
86.11535693591017
 72
    1
 10
121.0787402206154
 20
86.11535693591017
 11
121.7833016273019
 21
85.87582023174981
 72
    1
 10
121.7833016273019
 20
85.87582023174981
 11
119.9788522602233
 21
89.12982971121579
 72
    1
 10
119.9788522602233
 20
89.12982971121579
 11
121.4045425900934
 21
88.64512368058543
 97
    0
 75
    0
 76
    1
 98
    0
  0
HATCH
  5
69
100
AcDbEntity
  8
Verde/Green
  6
ByLayer
 62
  256
370
   -1
100
AcDbHatch
 10
0
 20
0
 30
0
210
0
220
0
230
1
  2
SOLID
 70
    1
 71
    0
 91
    1
 92
    0
 93
   13
 72
    2
 10
135.9944597500146
 20
83.6782992300205
 40
0.7500000000000018
 50
242.7269999999999
 51
62.72699999999996
 73
    1
 72
    1
 10
136.3381328144414
 20
84.34492418063931
 11
134.3382579625851
 21
85.37594337391968
 72
    1
 10
134.3382579625851
 20
85.37594337391968
 11
133.6509118337315
 21
84.04269347268212
 72
    1
 10
133.6509118337315
 20
84.04269347268212
 11
135.6507866855878
 21
83.01167427940173
 72
    2
 10
135.9944597500146
 20
83.6782992300205
 40
1.25
 50
242.7269999999999
 51
62.72699999999996
 73
    1
 72
    1
 10
136.567248190726
 20
84.78934081438516
 11
134.1229567051238
 21
86.04947538395007
 72
    1
 10
134.1229567051238
 20
86.04947538395007
 11
131.8318029422784
 21
81.6053090464915
 72
    1
 10
131.8318029422784
 20
81.6053090464915
 11
132.2762195760243
 21
81.37619367020697
 72
    1
 10
132.2762195760243
 20
81.37619367020697
 11
133.421796457447
 21
83.59827683893626
 72
    1
 10
133.421796457447
 20
83.59827683893626
 11
134.7256955755866
 21
80.11338626669161
 72
    1
 10
134.7256955755866
 20
80.11338626669161
 11
135.3871360122453
 21
79.77238603621527
 72
    1
 10
135.3871360122453
 20
79.77238603621527
 11
134.0832368941057
 21
83.2572766084599
 72
    1
 10
134.0832368941057
 20
83.2572766084599
 11
135.4216713093033
 21
82.56725764565587
 97
    0
 75
    0
 76
    1
 98
    0
  0
HATCH
  5
6A
100
AcDbEntity
  8
Verde/Green
  6
ByLayer
 62
  256
370
   -1
100
AcDbHatch
 10
0
 20
0
 30
0
210
0
220
0
230
1
  2
SOLID
 70
    1
 71
    0
 91
    1
 92
    0
 93
   12
 72
    1
 10
138.9315913660859
 20
82.94682128924623
 11
141.9594681488122
 21
81.1912694704078
 72
    1
 10
141.9594681488122
 20
81.1912694704078
 11
142.2102612657891
 21
81.62382329651157
 72
    1
 10
142.2102612657891
 20
81.62382329651157
 11
138.749830656959
 21
83.63016823232692
 72
    1
 10
138.749830656959
 20
83.63016823232692
 11
136.2418994871898
 21
79.30462997128933
 72
    1
 10
136.2418994871898
 20
79.30462997128933
 11
139.7023300960199
 21
77.29828503547397
 72
    1
 10
139.7023300960199
 20
77.29828503547397
 11
139.9531232129968
 21
77.73083886157775
 72
    1
 10
139.9531232129968
 20
77.73083886157775
 11
136.9252464302705
 21
79.48639068041618
 72
    1
 10
136.9252464302705
 20
79.48639068041618
 11
137.8030223396897
 21
81.00032907177933
 72
    1
 10
137.8030223396897
 20
81.00032907177933
 11
140.830899122416
 21
79.24477725294089
 72
    1
 10
140.830899122416
 20
79.24477725294089
 11
141.081692239393
 21
79.67733107904465
 72
    1
 10
141.081692239393
 20
79.67733107904465
 11
138.0538154566667
 21
81.43288289788309
 72
    1
 10
138.0538154566667
 20
81.43288289788309
 11
138.9315913660859
 21
82.94682128924623
 97
    0
 75
    0
 76
    1
 98
    0
  0
HATCH
  5
6B
100
AcDbEntity
  8
Verde/Green
  6
ByLayer
 62
  256
370
   -1
100
AcDbHatch
 10
0
 20
0
 30
0
210
0
220
0
230
1
  2
SOLID
 70
    1
 71
    0
 91
    1
 92
    0
 93
   12
 72
    1
 10
104.7881764142878
 20
94.95455429376503
 11
108.2319704804212
 21
94.32982840982488
 72
    1
 10
108.2319704804212
 20
94.32982840982488
 11
108.3212170352698
 21
94.8217989907011
 72
    1
 10
108.3212170352698
 20
94.8217989907011
 11
104.3854523882602
 21
95.53577142948983
 72
    1
 10
104.3854523882602
 20
95.53577142948983
 11
103.4929868397743
 21
90.61606562072791
 72
    1
 10
103.4929868397743
 20
90.61606562072791
 11
107.4287514867839
 21
89.90209318193918
 72
    1
 10
107.4287514867839
 20
89.90209318193918
 11
107.5179980416325
 21
90.39406376281536
 72
    1
 10
107.5179980416325
 20
90.39406376281536
 11
104.0742039754991
 21
91.01878964675551
 72
    1
 10
104.0742039754991
 20
91.01878964675551
 11
104.3865669174692
 21
92.74068667982218
 72
    1
 10
104.3865669174692
 20
92.74068667982218
 11
107.8303609836025
 21
92.11596079588203
 72
    1
 10
107.8303609836025
 20
92.11596079588203
 11
107.9196075384511
 21
92.60793137675822
 72
    1
 10
107.9196075384511
 20
92.60793137675822
 11
104.4758134723178
 21
93.23265726069836
 72
    1
 10
104.4758134723178
 20
93.23265726069836
 11
104.7881764142878
 21
94.95455429376503
 97
    0
 75
    0
 76
    1
 98
    0
  0
HATCH
  5
6C
100
AcDbEntity
  8
Verde/Green
  6
ByLayer
 62
  256
370
   -1
100
AcDbHatch
 10
0
 20
0
 30
0
210
0
220
0
230
1
  2
SOLID
 70
    1
 71
    0
 91
    1
 92
    0
 93
    8
 72
    1
 10
146.0081299656449
 20
75.89079603195621
 11
150.2353887128746
 21
76.23483241387504
 72
    1
 10
150.2353887128746
 20
76.23483241387504
 11
150.8610791943267
 21
75.78410121560563
 72
    1
 10
150.8610791943267
 20
75.78410121560563
 11
147.4024129465933
 21
75.50261690312661
 72
    1
 10
147.4024129465933
 20
75.50261690312661
 11
149.5459438436795
 21
73.95847282804205
 72
    1
 10
149.5459438436795
 20
73.95847282804205
 11
145.3186850964498
 21
73.61443644612319
 72
    1
 10
145.3186850964498
 20
73.61443644612319
 11
144.6929946149976
 21
74.06516764439259
 72
    1
 10
144.6929946149976
 20
74.06516764439259
 11
148.1516608627311
 21
74.34665195687165
 72
    1
 10
148.1516608627311
 20
74.34665195687165
 11
146.0081299656449
 21
75.89079603195621
 97
    0
 75
    0
 76
    1
 98
    0
  0
HATCH
  5
6D
100
AcDbEntity
  8
Verde/Green
  6
ByLayer
 62
  256
370
   -1
100
AcDbHatch
 10
0
 20
0
 30
0
210
0
220
0
230
1
  2
SOLID
 70
    1
 71
    0
 91
    1
 92
    0
 93
    8
 72
    1
 10
141.7547752550511
 20
78.67817044307799
 11
145.9598732335111
 21
79.23064536528307
 72
    1
 10
145.9598732335111
 20
79.23064536528307
 11
146.6070691054496
 21
78.81137851109705
 72
    1
 10
146.6070691054496
 20
78.81137851109705
 11
143.1665343958005
 21
78.35935357474747
 72
    1
 10
143.1665343958005
 20
78.35935357474747
 11
145.3837398497607
 21
76.92300208353403
 72
    1
 10
145.3837398497607
 20
76.92300208353403
 11
141.1786418713007
 21
76.37052716132894
 72
    1
 10
141.1786418713007
 20
76.37052716132894
 11
140.5314459993622
 21
76.78979401551494
 72
    1
 10
140.5314459993622
 20
76.78979401551494
 11
143.9719807090113
 21
77.24181895186459
 72
    1
 10
143.9719807090113
 20
77.24181895186459
 11
141.7547752550511
 21
78.67817044307799
 97
    0
 75
    0
 76
    1
 98
    0
  0
HATCH
  5
6E
100
AcDbEntity
  8
Verde/Green
  6
ByLayer
 62
  256
370
   -1
100
AcDbHatch
 10
0
 20
0
 30
0
210
0
220
0
230
1
  2
SOLID
 70
    1
 71
    0
 91
    1
 92
    0
 93
   12
 72
    1
 10
94.10639635987832
 20
91.66910252604426
 11
93.6080195428621
 21
91.70935855988736
 72
    1
 10
93.6080195428621
 20
91.70935855988736
 11
94.01057988129325
 21
96.69312673004958
 72
    1
 10
94.01057988129325
 20
96.69312673004958
 11
94.50895669830948
 21
96.65287069620648
 72
    1
 10
94.50895669830948
 20
96.65287069620648
 11
95.70808913445995
 21
92.86759483211438
 72
    1
 10
95.70808913445995
 20
92.86759483211438
 11
97.49921760040681
 21
96.41133449314778
 72
    1
 10
97.49921760040681
 20
96.41133449314778
 11
97.99759441742303
 21
96.37107845930467
 72
    1
 10
97.99759441742303
 20
96.37107845930467
 11
97.59503407899189
 21
91.38731028914245
 72
    1
 10
97.59503407899189
 20
91.38731028914245
 11
97.09665726197565
 21
91.42756632298556
 72
    1
 10
97.09665726197565
 20
91.42756632298556
 11
97.39265527687387
 21
95.09207408554835
 72
    1
 10
97.39265527687387
 20
95.09207408554832
 11
95.601526810927
 21
91.54833442451491
 72
    1
 10
95.601526810927
 20
91.54833442451491
 11
94.40239437477652
 21
95.33361028860703
 72
    1
 10
94.40239437477652
 20
95.33361028860702
 11
94.10639635987832
 21
91.66910252604426
 97
    0
 75
    0
 76
    1
 98
    0
  0
HATCH
  5
6F
100
AcDbEntity
  8
Verde/Green
  6
ByLayer
 62
  256
370
   -1
100
AcDbHatch
 10
0
 20
0
 30
0
210
0
220
0
230
1
  2
SOLID
 70
    1
 71
    0
 91
    1
 92
    0
 93
   10
 72
    2
 10
116.8944686495143
 20
91.40322430063209
 40
1.25
 50
285.945
 51
105.9450000000001
 73
    0
 72
    1
 10
116.551075544543
 20
90.20131699328343
 11
114.3876423913153
 21
90.81942458223179
 72
    1
 10
114.3876423913153
 20
90.81942458223179
 11
113.7008561813727
 21
88.41560996753442
 72
    1
 10
113.7008561813727
 20
88.41560996753442
 11
113.2200932584332
 21
88.55296720952296
 72
    1
 10
113.2200932584332
 20
88.55296720952296
 11
114.5936656783185
 21
93.36059643891767
 72
    1
 10
114.5936656783185
 20
93.36059643891767
 11
117.2378617544856
 21
92.60513160798077
 72
    2
 10
116.8944686495143
 20
91.40322430063209
 40
0.7500000000000018
 50
254.0549999999999
 51
74.05499999999999
 73
    1
 72
    1
 10
117.1005045124971
 20
92.12436868504129
 11
114.9370713592694
 21
92.74247627398965
 72
    1
 10
114.9370713592694
 20
92.74247627398965
 11
114.5249996333038
 21
91.30018750517125
 72
    1
 10
114.5249996333038
 20
91.30018750517125
 11
116.6884327865315
 21
90.68207991622289
 97
    0
 75
    0
 76
    1
 98
    0
  0
HATCH
  5
70
100
AcDbEntity
  8
G - Carolingi[o/an]
  6
ByLayer
 62
  256
370
   -1
100
AcDbHatch
 10
0
 20
0
 30
0
210
0
220
0
230
1
  2
SOLID
 70
    1
 71
    0
 91
    1
 92
    0
 93
   15
 72
    1
 10
129.7133931342395
 20
85.34062155759278
 11
131.9893626750834
 21
84.30623156868592
 72
    1
 10
131.9893626750834
 20
84.30623156868592
 11
130.9549726861765
 21
82.03026202784203
 72
    1
 10
130.9549726861765
 20
82.03026202784203
 11
130.4997787780054
 21
82.23714002562444
 72
    1
 10
130.4997787780054
 20
82.23714002562444
 11
130.7799430352696
 21
82.85358577897149
 72
    2
 10
129.9617090446271
 20
84.6785496516431
 40
2.000000000000002
 50
65.85062210937525
 51
204.441
 73
    0
 72
    1
 10
128.1409334119519
 20
85.50606164276859
 11
128.5546894075143
 21
86.41644945910519
 72
    2
 10
130.3754650401894
 20
85.5889374679797
 40
2.000000000000002
 50
204.441
 51
6.944916617331389
 73
    0
 72
    1
 10
132.3607907531178
 20
85.34710733423957
 11
131.8467977407134
 21
85.29708119450603
 72
    2
 10
130.3754650401894
 20
85.5889374679797
 40
1.500000000000002
 50
348.7803451190476
 51
155.559
 73
    1
 72
    1
 10
129.0098833156831
 20
86.20957146132382
 11
128.5961273201208
 21
85.29918364498721
 72
    2
 10
129.9617090446271
 20
84.6785496516431
 40
1.500000000000002
 50
155.559
 51
335.559
 73
    1
 72
    1
 10
131.3272907691318
 20
84.05791565829917
 11
129.9617090446269
 21
84.67854965164264
 72
    1
 10
129.9617090446269
 20
84.67854965164264
 11
129.7548310468455
 21
84.22335574347385
 72
    1
 10
129.7548310468455
 20
84.22335574347385
 11
129.2996371386767
 21
84.43023374125522
 72
    1
 10
129.2996371386767
 20
84.43023374125522
 11
129.7133931342395
 21
85.34062155759278
 97
    0
 75
    0
 76
    1
 98
    0
  0
HATCH
  5
71
100
AcDbEntity
  8
Verde/Green
  6
ByLayer
 62
  256
370
   -1
100
AcDbHatch
 10
0
 20
0
 30
0
210
0
220
0
230
1
  2
SOLID
 70
    1
 71
    0
 91
    1
 92
    0
 93
   12
 72
    1
 10
89.27711043299283
 20
96.37068066517143
 11
92.77541015267757
 21
96.2615978010097
 72
    1
 10
92.77541015267757
 20
96.2615978010097
 11
92.79099341898637
 21
96.7613549038218
 72
    1
 10
92.79099341898637
 20
96.7613549038218
 11
88.79293659648954
 21
96.88602103429236
 72
    1
 10
88.79293659648954
 20
96.88602103429236
 11
88.63710393340135
 21
91.88845000617133
 72
    1
 10
88.63710393340135
 20
91.88845000617133
 11
92.6351607558982
 21
91.76378387570075
 72
    1
 10
92.6351607558982
 20
91.76378387570075
 11
92.65074402220702
 21
92.26354097851286
 72
    1
 10
92.65074402220702
 20
92.26354097851286
 11
89.15244430252228
 21
92.3726238426746
 72
    1
 10
89.15244430252228
 20
92.3726238426746
 11
89.20698573460315
 21
94.12177370251696
 72
    1
 10
89.20698573460315
 20
94.12177370251696
 11
92.70528545428789
 21
94.01269083835523
 72
    1
 10
92.70528545428789
 20
94.01269083835523
 11
92.72086872059671
 21
94.51244794116734
 72
    1
 10
92.72086872059671
 20
94.51244794116734
 11
89.22256900091197
 21
94.62153080532907
 72
    1
 10
89.22256900091197
 20
94.62153080532907
 11
89.27711043299283
 21
96.37068066517143
 97
    0
 75
    0
 76
    1
 98
    0
  0
HATCH
  5
72
100
AcDbEntity
  8
Verde/Green
  6
ByLayer
 62
  256
370
   -1
100
AcDbHatch
 10
0
 20
0
 30
0
210
0
220
0
230
1
  2
SOLID
 70
    1
 71
    0
 91
    1
 92
    0
 93
    8
 72
    2
 10
85.11824196990307
 20
94.34870442701501
 40
2.000000000000188
 50
271.045624148366
 51
91.0455758516345
 73
    1
 72
    1
 10
85.08174651319956
 20
96.34837141970173
 11
84.08191302454726
 21
96.33012326995166
 72
    1
 10
84.08191302454726
 20
96.33012326995166
 11
84.15490562354748
 21
92.33078931534234
 72
    1
 10
84.15490562354748
 20
92.33078931534234
 11
85.15473911219979
 21
92.34903746509238
 72
    2
 10
85.11824239124866
 20
94.34870443470493
 40
2.50000000000045
 50
271.0455357003489
 51
91.04562897683007
 73
    1
 72
    1
 10
85.07262075273134
 20
96.84828813326379
 11
83.57287220534604
 21
96.82091593940282
 72
    1
 10
83.57287220534604
 20
96.82091593940282
 11
83.66411295409632
 21
91.82174849614114
 72
    1
 10
83.66411295409632
 20
91.82174849614114
 11
85.16385996048939
 21
91.84912066187819
 97
    0
 75
    0
 76
    1
 98
    0
  0
HATCH
  5
73
100
AcDbEntity
  8
Fonts
  6
ByLayer
 62
  256
370
   -1
100
AcDbHatch
 10
0
 20
0
 30
0
210
0
220
0
230
1
  2
SOLID
 70
    1
 71
    0
 91
    1
 92
    0
 93
    8
 72
    2
 10
44.5
 20
16.74999999999947
 40
2.000000000000002
 50
0
 51
180
 73
    1
 72
    1
 10
42.5
 20
16.74999999999947
 11
42.5
 21
15.75000000000053
 72
    2
 10
44.5
 20
15.75000000000053
 40
2.000000000000002
 50
180
 51
0
 73
    1
 72
    1
 10
46.5
 20
15.75000000000053
 11
46.5
 21
16.74999999999947
 72
    2
 10
44.5
 20
16.74999999999947
 40
1.500000000000002
 50
0
 51
180
 73
    1
 72
    1
 10
43
 20
16.74999999999947
 11
43
 21
15.75000000000053
 72
    2
 10
44.5
 20
15.75000000000053
 40
1.500000000000002
 50
180
 51
0
 73
    1
 72
    1
 10
46.00000000000001
 20
15.75000000000053
 11
46.00000000000001
 21
16.74999999999947
 97
    0
 75
    0
 76
    1
 98
    0
  0
HATCH
  5
74
100
AcDbEntity
  8
Fonts
  6
ByLayer
 62
  256
370
   -1
100
AcDbHatch
 10
0
 20
0
 30
0
210
0
220
0
230
1
  2
SOLID
 70
    1
 71
    0
 91
    1
 92
    0
 93
   10
 72
    2
 10
55.25
 20
17.5
 40
1.25
 50
270
 51
90
 73
    0
 72
    1
 10
55.25
 20
16.25
 11
53
 21
16.25
 72
    1
 10
53
 20
16.25
 11
53
 21
13.75
 72
    1
 10
53
 20
13.75
 11
52.5
 21
13.75
 72
    1
 10
52.5
 20
13.75
 11
52.5
 21
18.75
 72
    1
 10
52.5
 20
18.75
 11
55.25
 21
18.75
 72
    2
 10
55.25
 20
17.5
 40
0.7500000000000018
 50
270
 51
90
 73
    1
 72
    1
 10
55.25
 20
18.25
 11
53
 21
18.25
 72
    1
 10
53
 20
18.25
 11
53
 21
16.75
 72
    1
 10
53
 20
16.75
 11
55.25
 21
16.75
 97
    0
 75
    0
 76
    1
 98
    0
  0
HATCH
  5
75
100
AcDbEntity
  8
Fonts
  6
ByLayer
 62
  256
370
   -1
100
AcDbHatch
 10
0
 20
0
 30
0
210
0
220
0
230
1
  2
SOLID
 70
    1
 71
    0
 91
    1
 92
    0
 93
   13
 72
    2
 10
65.24999999999999
 20
17.5
 40
0.7500000000000018
 50
270
 51
90
 73
    1
 72
    1
 10
65.24999999999999
 20
18.25
 11
63
 21
18.25
 72
    1
 10
63
 20
18.25
 11
63
 21
16.75
 72
    1
 10
63
 20
16.75
 11
65.24999999999999
 21
16.75
 72
    2
 10
65.24999999999999
 20
17.5
 40
1.25
 50
270
 51
90
 73
    1
 72
    1
 10
65.24999999999999
 20
18.75
 11
62.5
 21
18.75
 72
    1
 10
62.5
 20
18.75
 11
62.5
 21
13.75
 72
    1
 10
62.5
 20
13.75
 11
63
 21
13.75
 72
    1
 10
63
 20
13.75
 11
63
 21
16.25
 72
    1
 10
63
 20
16.25
 11
65.75583294319611
 21
13.75
 72
    1
 10
65.75583294319611
 20
13.75
 11
66.49999999999999
 21
13.75
 72
    1
 10
66.49999999999999
 20
13.75
 11
63.74416705680392
 21
16.25
 72
    1
 10
63.7441670568039
 20
16.25
 11
65.24999999999999
 21
16.25
 97
    0
 75
    0
 76
    1
 98
    0
  0
HATCH
  5
76
100
AcDbEntity
  8
Fonts
  6
ByLayer
 62
  256
370
   -1
100
AcDbHatch
 10
0
 20
0
 30
0
210
0
220
0
230
1
  2
SOLID
 70
    1
 71
    0
 91
    1
 92
    0
 93
    8
 72
    1
 10
72.5
 20
16
 11
75.72886629455509
 21
18.75
 72
    1
 10
75.72886629455509
 20
18.75
 11
76.5
 21
18.75
 72
    1
 10
76.5
 20
18.75
 11
73.85820030445494
 21
16.5
 72
    1
 10
73.85820030445494
 20
16.5
 11
76.5
 21
16.5
 72
    1
 10
76.5
 20
16.5
 11
73.27113370544492
 21
13.75
 72
    1
 10
73.27113370544492
 20
13.75
 11
72.5
 21
13.75
 72
    1
 10
72.5
 20
13.75
 11
75.14179969554506
 21
16
 72
    1
 10
75.14179969554506
 20
16
 11
72.5
 21
16
 97
    0
 75
    0
 76
    1
 98
    0
  0
HATCH
  5
77
100
AcDbEntity
  8
Fonts
  6
ByLayer
 62
  256
370
   -1
100
AcDbHatch
 10
0
 20
0
 30
0
210
0
220
0
230
1
  2
SOLID
 70
    1
 71
    0
 91
    1
 92
    0
 93
   12
 72
    1
 10
33
 20
13.75
 11
32.5
 21
13.75
 72
    1
 10
32.5
 20
13.75
 11
32.5
 21
18.75
 72
    1
 10
32.5
 20
18.75
 11
33
 21
18.75
 72
    1
 10
33
 20
18.75
 11
34.5
 21
15.07355715851499
 72
    1
 10
34.50000000000001
 20
15.07355715851499
 11
36.00000000000001
 21
18.75
 72
    1
 10
36.00000000000001
 20
18.75
 11
36.5
 21
18.75
 72
    1
 10
36.5
 20
18.75
 11
36.5
 21
13.75
 72
    1
 10
36.5
 20
13.75
 11
36.00000000000001
 21
13.75
 72
    1
 10
36.00000000000001
 20
13.75
 11
36.00000000000001
 21
17.42644284148506
 72
    1
 10
36.00000000000001
 20
17.42644284148505
 11
34.5
 21
13.75
 72
    1
 10
34.5
 20
13.75
 11
33
 21
17.42644284148503
 72
    1
 10
33
 20
17.42644284148502
 11
33
 21
13.75
 97
    0
 75
    0
 76
    1
 98
    0
  0
HATCH
  5
78
100
AcDbEntity
  8
Fonts
  6
ByLayer
 62
  256
370
   -1
100
AcDbHatch
 10
0
 20
0
 30
0
210
0
220
0
230
1
  2
SOLID
 70
    1
 71
    0
 91
    1
 92
    0
 93
   15
 72
    2
 10
23.75000000000114
 20
15
 40
1.25
 50
90
 51
270
 73
    1
 72
    1
 10
23.75000000000114
 20
13.75
 11
25.24999999999888
 21
13.74999999999999
 72
    2
 10
25.24999999999888
 20
14.99999999999999
 40
1.25
 50
270
 51
90
 73
    1
 72
    2
 10
25.25000146000849
 20
17.25
 40
1.000000000001071
 50
90.00008365238901
 51
270.0000836523885
 73
    0
 72
    1
 10
25.2500029200181
 20
18.25
 11
26.5
 21
18.25
 72
    1
 10
26.5
 20
18.25
 11
26.5
 21
18.75
 72
    1
 10
26.5
 20
18.75
 11
22.5
 21
18.75
 72
    1
 10
22.5
 20
18.75
 11
22.5
 21
18.25
 72
    1
 10
22.5
 20
18.25
 11
24.13196769712087
 21
18.24999999999999
 72
    2
 10
25.2500016858728
 20
17.25
 40
1.500000000000004
 50
138.1896851042735
 51
221.8103148957268
 73
    1
 72
    1
 10
24.13196769712201
 20
16.250000000001
 11
23.75000000000114
 21
16.25
 72
    2
 10
25.24999999999888
 20
14.99999999999999
 40
0.75
 50
270
 51
90
 73
    1
 72
    1
 10
25.24999999999888
 20
15.74999999999999
 11
23.75000000000114
 21
15.75
 72
    2
 10
23.75000000000114
 20
15
 40
0.75
 50
90
 51
270
 73
    1
 72
    1
 10
23.75000000000114
 20
14.25
 11
25.24999999999888
 21
14.24999999999999
 97
    0
 75
    0
 76
    1
 98
    0
  0
HATCH
  5
79
100
AcDbEntity
  8
Fonts
  6
ByLayer
 62
  256
370
   -1
100
AcDbHatch
 10
0
 20
0
 30
0
210
0
220
0
230
1
  2
SOLID
 70
    1
 71
    0
 91
    1
 92
    0
 93
   15
 72
    1
 10
14
 20
16.25
 11
16.5
 21
16.25
 72
    1
 10
16.5
 20
16.25
 11
16.5
 21
13.75000000000001
 72
    1
 10
16.5
 20
13.75000000000001
 11
15.99999999999744
 21
13.75
 72
    1
 10
15.99999999999744
 20
13.75
 11
15.99999999999744
 21
14.42712434446562
 72
    2
 10
14.49999999999999
 20
15.75000000000053
 40
2.000000000000002
 50
41.40962210937526
 51
180
 73
    0
 72
    1
 10
12.5
 20
15.75000000000053
 11
12.5
 21
16.74999999999947
 72
    2
 10
14.49999999999999
 20
16.74999999999947
 40
2.000000000000002
 50
180
 51
342.5039166173314
 73
    0
 72
    1
 10
16.40747500825444
 20
17.35128120948819
 11
15.96024064732847
 21
17.09307033081672
 72
    2
 10
14.49999999999999
 20
16.74999999999947
 40
1.500000000000002
 50
13.22134511904757
 51
180
 73
    1
 72
    1
 10
13.00000000000001
 20
16.74999999999947
 11
13.00000000000001
 21
15.75000000000053
 72
    2
 10
14.49999999999999
 20
15.75000000000053
 40
1.500000000000002
 50
180
 51
0
 73
    1
 72
    1
 10
15.99999999999838
 20
15.75
 11
14.49999999999999
 21
15.75000000000001
 72
    1
 10
14.49999999999999
 20
15.75000000000001
 11
14.49999999999999
 21
15.25
 72
    1
 10
14.49999999999999
 20
15.25
 11
14
 21
15.25
 72
    1
 10
14
 20
15.25
 11
14
 21
16.25
 97
    0
 75
    0
 76
    1
 98
    0
  0
HATCH
  5
7A
100
AcDbEntity
  8
Fonts
  6
ByLayer
 62
  256
370
   -1
100
AcDbHatch
 10
0
 20
0
 30
0
210
0
220
0
230
1
  2
SOLID
 70
    1
 71
    0
 91
    1
 92
    0
 93
   12
 72
    1
 10
3.000000000000007
 20
18.25
 11
6.500000000000004
 21
18.25
 72
    1
 10
6.500000000000004
 20
18.25
 11
6.500000000000004
 21
18.75
 72
    1
 10
6.500000000000004
 20
18.75
 11
2.5
 21
18.75
 72
    1
 10
2.5
 20
18.75
 11
2.5
 21
13.75
 72
    1
 10
2.5
 20
13.75
 11
6.500000000000004
 21
13.75
 72
    1
 10
6.500000000000004
 20
13.75
 11
6.500000000000004
 21
14.25
 72
    1
 10
6.500000000000004
 20
14.25
 11
3.000000000000007
 21
14.25
 72
    1
 10
3.000000000000007
 20
14.25
 11
3.000000000000007
 21
16
 72
    1
 10
3.000000000000007
 20
16
 11
6.500000000000004
 21
16
 72
    1
 10
6.500000000000004
 20
16
 11
6.500000000000004
 21
16.5
 72
    1
 10
6.500000000000004
 20
16.5
 11
3.000000000000007
 21
16.5
 72
    1
 10
3.000000000000007
 20
16.5
 11
3.000000000000007
 21
18.25
 97
    0
 75
    0
 76
    1
 98
    0
  0
HATCH
  5
7B
100
AcDbEntity
  8
Fonts
  6
ByLayer
 62
  256
370
   -1
100
AcDbHatch
 10
0
 20
0
 30
0
210
0
220
0
230
1
  2
SOLID
 70
    1
 71
    0
 91
    1
 92
    0
 93
    8
 72
    2
 10
-6.000000842937006
 20
16.25
 40
2.000000000000188
 50
270.000024148366
 51
89.9999758516345
 73
    1
 72
    1
 10
-5.999999999999996
 20
18.25000000000001
 11
-6.999999999999993
 21
18.25
 72
    1
 10
-6.999999999999993
 20
18.25
 11
-6.999999999999993
 21
14.25
 72
    1
 10
-6.999999999999993
 20
14.25
 11
-5.999999999999996
 21
14.24999999999999
 72
    2
 10
-6.000000421521197
 20
16.24999999999986
 40
2.50000000000045
 50
269.9999357003489
 51
90.00002897683008
 73
    1
 72
    1
 10
-6.000001685873908
 20
18.75
 11
-7.5
 21
18.75
 72
    1
 10
-7.5
 20
18.75
 11
-7.5
 21
13.75
 72
    1
 10
-7.5
 20
13.75
 11
-6.000003227122797
 21
13.75000000000099
 97
    0
 75
    0
 76
    1
 98
    0
  0
LINE
  5
7C
100
AcDbEntity
  8
0
  6
ByLayer
 62
  256
370
   -1
100
AcDbLine
 10
-12.5
 20
-8.75
 11
-12.5
 21
166.25
  0
LINE
  5
7D
100
AcDbEntity
  8
0
  6
ByLayer
 62
  256
370
   -1
100
AcDbLine
 10
-12.5
 20
166.25
 11
237.5
 21
166.25
  0
LINE
  5
7E
100
AcDbEntity
  8
0
  6
ByLayer
 62
  256
370
   -1
100
AcDbLine
 10
237.5
 20
166.25
 11
237.5
 21
-8.75
  0
LINE
  5
7F
100
AcDbEntity
  8
0
  6
ByLayer
 62
  256
370
   -1
100
AcDbLine
 10
237.5
 20
-8.75
 11
-12.5
 21
-8.75
  0
LINE
  5
80
100
AcDbEntity
  8
0
  6
ByLayer
 62
  256
370
   -1
100
AcDbLine
 10
237.5
 20
3.75
 11
-12.5
 21
3.75
  0
LINE
  5
81
100
AcDbEntity
  8
0
  6
ByLayer
 62
  256
370
   -1
100
AcDbLine
 10
237.5
 20
16.25
 11
-12.5
 21
16.25
  0
LINE
  5
82
100
AcDbEntity
  8
0
  6
ByLayer
 62
  256
370
   -1
100
AcDbLine
 10
237.5
 20
28.75
 11
-12.5
 21
28.75
  0
LINE
  5
83
100
AcDbEntity
  8
0
  6
ByLayer
 62
  256
370
   -1
100
AcDbLine
 10
237.5
 20
41.25
 11
-12.5
 21
41.25
  0
LINE
  5
84
100
AcDbEntity
  8
0
  6
ByLayer
 62
  256
370
   -1
100
AcDbLine
 10
237.5
 20
53.75
 11
-12.5
 21
53.75
  0
LINE
  5
85
100
AcDbEntity
  8
0
  6
ByLayer
 62
  256
370
   -1
100
AcDbLine
 10
237.5
 20
66.25
 11
-12.5
 21
66.25
  0
LINE
  5
86
100
AcDbEntity
  8
0
  6
ByLayer
 62
  256
370
   -1
100
AcDbLine
 10
237.5
 20
78.75
 11
-12.5
 21
78.75
  0
LINE
  5
87
100
AcDbEntity
  8
0
  6
ByLayer
 62
  256
370
   -1
100
AcDbLine
 10
237.5
 20
91.25
 11
-12.5
 21
91.25
  0
LINE
  5
88
100
AcDbEntity
  8
0
  6
ByLayer
 62
  256
370
   -1
100
AcDbLine
 10
237.5
 20
103.75
 11
-12.5
 21
103.75
  0
LINE
  5
89
100
AcDbEntity
  8
0
  6
ByLayer
 62
  256
370
   -1
100
AcDbLine
 10
237.5
 20
116.25
 11
-12.5
 21
116.25
  0
LINE
  5
8A
100
AcDbEntity
  8
0
  6
ByLayer
 62
  256
370
   -1
100
AcDbLine
 10
237.5
 20
128.75
 11
-12.5
 21
128.75
  0
LINE
  5
8B
100
AcDbEntity
  8
0
  6
ByLayer
 62
  256
370
   -1
100
AcDbLine
 10
237.5
 20
141.25
 11
-12.5
 21
141.25
  0
LINE
  5
8C
100
AcDbEntity
  8
0
  6
ByLayer
 62
  256
370
   -1
100
AcDbLine
 10
237.5
 20
153.75
 11
-12.5
 21
153.75
  0
LINE
  5
8D
100
AcDbEntity
  8
0
  6
ByLayer
 62
  256
370
   -1
100
AcDbLine
 10
0
 20
-8.75
 11
0
 21
166.25
  0
LINE
  5
8E
100
AcDbEntity
  8
0
  6
ByLayer
 62
  256
370
   -1
100
AcDbLine
 10
12.5
 20
-8.75
 11
12.5
 21
166.25
  0
LINE
  5
8F
100
AcDbEntity
  8
0
  6
ByLayer
 62
  256
370
   -1
100
AcDbLine
 10
25
 20
-8.75
 11
25
 21
166.25
  0
LINE
  5
90
100
AcDbEntity
  8
0
  6
ByLayer
 62
  256
370
   -1
100
AcDbLine
 10
37.5
 20
-8.75
 11
37.5
 21
166.25
  0
LINE
  5
91
100
AcDbEntity
  8
0
  6
ByLayer
 62
  256
370
   -1
100
AcDbLine
 10
50
 20
-8.75
 11
50
 21
166.25
  0
LINE
  5
92
100
AcDbEntity
  8
0
  6
ByLayer
 62
  256
370
   -1
100
AcDbLine
 10
62.5
 20
-8.75
 11
62.5
 21
166.25
  0
LINE
  5
93
100
AcDbEntity
  8
0
  6
ByLayer
 62
  256
370
   -1
100
AcDbLine
 10
75
 20
-8.75
 11
75
 21
166.25
  0
LINE
  5
94
100
AcDbEntity
  8
0
  6
ByLayer
 62
  256
370
   -1
100
AcDbLine
 10
87.5
 20
-8.75
 11
87.5
 21
166.25
  0
LINE
  5
95
100
AcDbEntity
  8
0
  6
ByLayer
 62
  256
370
   -1
100
AcDbLine
 10
100
 20
-8.75
 11
100
 21
166.25
  0
LINE
  5
96
100
AcDbEntity
  8
0
  6
ByLayer
 62
  256
370
   -1
100
AcDbLine
 10
112.5
 20
-8.75
 11
112.5
 21
166.25
  0
LINE
  5
97
100
AcDbEntity
  8
0
  6
ByLayer
 62
  256
370
   -1
100
AcDbLine
 10
125
 20
-8.75
 11
125
 21
166.25
  0
LINE
  5
98
100
AcDbEntity
  8
0
  6
ByLayer
 62
  256
370
   -1
100
AcDbLine
 10
137.5
 20
-8.75
 11
137.5
 21
166.25
  0
LINE
  5
99
100
AcDbEntity
  8
0
  6
ByLayer
 62
  256
370
   -1
100
AcDbLine
 10
150
 20
-8.75
 11
150
 21
166.25
  0
LINE
  5
9A
100
AcDbEntity
  8
0
  6
ByLayer
 62
  256
370
   -1
100
AcDbLine
 10
162.5
 20
-8.75
 11
162.5
 21
166.25
  0
LINE
  5
9B
100
AcDbEntity
  8
0
  6
ByLayer
 62
  256
370
   -1
100
AcDbLine
 10
175
 20
-8.75
 11
175
 21
166.25
  0
LINE
  5
9C
100
AcDbEntity
  8
0
  6
ByLayer
 62
  256
370
   -1
100
AcDbLine
 10
187.5
 20
-8.75
 11
187.5
 21
166.25
  0
LINE
  5
9D
100
AcDbEntity
  8
0
  6
ByLayer
 62
  256
370
   -1
100
AcDbLine
 10
200
 20
-8.75
 11
200
 21
166.25
  0
LINE
  5
9E
100
AcDbEntity
  8
0
  6
ByLayer
 62
  256
370
   -1
100
AcDbLine
 10
212.5
 20
-8.75
 11
212.5
 21
166.25
  0
LINE
  5
9F
100
AcDbEntity
  8
0
  6
ByLayer
 62
  256
370
   -1
100
AcDbLine
 10
225
 20
-8.75
 11
225
 21
166.25
  0
LINE
  5
A0
100
AcDbEntity
  8
Amarelo/Yellow
  6
ByLayer
 62
  256
370
   -1
100
AcDbLine
 10
112.5
 20
145
 11
8.75
 21
78.75
  0
LINE
  5
A1
100
AcDbEntity
  8
Amarelo/Yellow
  6
ByLayer
 62
  256
370
   -1
100
AcDbLine
 10
8.75
 20
78.75
 11
112.5
 21
12.5
  0
LINE
  5
A2
100
AcDbEntity
  8
Amarelo/Yellow
  6
ByLayer
 62
  256
370
   -1
100
AcDbLine
 10
112.5
 20
12.5
 11
216.25
 21
78.75
  0
LINE
  5
A3
100
AcDbEntity
  8
Amarelo/Yellow
  6
ByLayer
 62
  256
370
   -1
100
AcDbLine
 10
216.25
 20
78.75
 11
112.5
 21
145
  0
ARC
  5
A4
100
AcDbEntity
  8
Verde/Green
  6
ByLayer
 62
  256
370
   -1
100
AcDbCircle
 10
75.39336178909429
 20
94.16535325805441
 40
2.000000000000002
100
AcDbArc
 50
6.70925999999999
 51
186.70926
  0
ARC
  5
A5
100
AcDbEntity
  8
Verde/Green
  6
ByLayer
 62
  256
370
   -1
100
AcDbCircle
 10
75.51019303841534
 20
93.17220147751934
 40
2.000000000000002
100
AcDbArc
 50
186.70926
 51
6.70925999999999
  0
LINE
  5
A6
100
AcDbEntity
  8
Verde/Green
  6
ByLayer
 62
  256
370
   -1
100
AcDbLine
 10
73.40705822802205
 20
93.93169075941208
 11
73.52388947734309
 21
92.93853897887701
  0
LINE
  5
A7
100
AcDbEntity
  8
Verde/Green
  6
ByLayer
 62
  256
370
   -1
100
AcDbLine
 10
77.37966535016652
 20
94.39901575669674
 11
77.49649659948756
 21
93.40586397616167
  0
ARC
  5
A8
100
AcDbEntity
  8
Verde/Green
  6
ByLayer
 62
  256
370
   -1
100
AcDbCircle
 10
75.39336178909429
 20
94.16535325805441
 40
1.500000000000002
100
AcDbArc
 50
6.70925999999999
 51
186.70926
  0
ARC
  5
A9
100
AcDbEntity
  8
Verde/Green
  6
ByLayer
 62
  256
370
   -1
100
AcDbCircle
 10
75.51019303841534
 20
93.17220147751934
 40
1.500000000000002
100
AcDbArc
 50
186.70926
 51
6.70925999999999
  0
LINE
  5
AA
100
AcDbEntity
  8
Verde/Green
  6
ByLayer
 62
  256
370
   -1
100
AcDbLine
 10
73.90363411829011
 20
93.99010638407265
 11
74.02046536761117
 21
92.99695460353759
  0
LINE
  5
AB
100
AcDbEntity
  8
Verde/Green
  6
ByLayer
 62
  256
370
   -1
100
AcDbLine
 10
76.88308945989846
 20
94.34060013203617
 11
76.99992070921951
 21
93.3474483515011
  0
ARC
  5
AC
100
AcDbEntity
  8
Verde/Green
  6
ByLayer
 62
  256
370
   -1
100
AcDbCircle
 10
152.1495232090098
 20
72.23505895439969
 40
2.000000000000002
100
AcDbArc
 50
321.4
 51
141.3999999999999
  0
ARC
  5
AD
100
AcDbEntity
  8
Verde/Green
  6
ByLayer
 62
  256
370
   -1
100
AcDbCircle
 10
151.5256436123011
 20
71.45353848198168
 40
2.000000000000002
100
AcDbArc
 50
141.3999999999999
 51
321.4
  0
LINE
  5
AE
100
AcDbEntity
  8
Verde/Green
  6
ByLayer
 62
  256
370
   -1
100
AcDbLine
 10
150.5864822641722
 20
73.48281814781845
 11
149.9626026674634
 21
72.70129767540044
  0
LINE
  5
AF
100
AcDbEntity
  8
Verde/Green
  6
ByLayer
 62
  256
370
   -1
100
AcDbLine
 10
153.7125641538475
 20
70.98729976098092
 11
153.0886845571387
 21
70.20577928856291
  0
ARC
  5
B0
100
AcDbEntity
  8
Verde/Green
  6
ByLayer
 62
  256
370
   -1
100
AcDbCircle
 10
152.1495232090098
 20
72.23505895439969
 40
1.500000000000002
100
AcDbArc
 50
321.4
 51
141.3999999999999
  0
ARC
  5
B1
100
AcDbEntity
  8
Verde/Green
  6
ByLayer
 62
  256
370
   -1
100
AcDbCircle
 10
151.5256436123011
 20
71.45353848198168
 40
1.500000000000002
100
AcDbArc
 50
141.3999999999999
 51
321.4
  0
LINE
  5
B2
100
AcDbEntity
  8
Verde/Green
  6
ByLayer
 62
  256
370
   -1
100
AcDbLine
 10
150.9772425003816
 20
73.17087834946378
 11
150.3533629036729
 21
72.38935787704577
  0
LINE
  5
B3
100
AcDbEntity
  8
Verde/Green
  6
ByLayer
 62
  256
370
   -1
100
AcDbLine
 10
153.3218039176381
 20
71.2992395593356
 11
152.6979243209293
 21
70.51771908691759
  0
ARC
  5
B4
100
AcDbEntity
  8
Verde/Green
  6
ByLayer
 62
  256
370
   -1
100
AcDbCircle
 10
125.6620406235961
 20
87.59209505944371
 40
2.000000000000002
100
AcDbArc
 50
338.391
 51
158.391
  0
ARC
  5
B5
100
AcDbEntity
  8
Verde/Green
  6
ByLayer
 62
  256
370
   -1
100
AcDbCircle
 10
125.2937700265051
 20
86.66237640989637
 40
2.000000000000002
100
AcDbArc
 50
158.391
 51
338.391
  0
LINE
  5
B6
100
AcDbEntity
  8
Verde/Green
  6
ByLayer
 62
  256
370
   -1
100
AcDbLine
 10
123.8026033244995
 20
88.32863625362651
 11
123.4343327274085
 21
87.39891760407917
  0
LINE
  5
B7
100
AcDbEntity
  8
Verde/Green
  6
ByLayer
 62
  256
370
   -1
100
AcDbLine
 10
127.5214779226928
 20
86.8555538652609
 11
127.1532073256018
 21
85.92583521571356
  0
ARC
  5
B8
100
AcDbEntity
  8
Verde/Green
  6
ByLayer
 62
  256
370
   -1
100
AcDbCircle
 10
125.6620406235961
 20
87.59209505944371
 40
1.500000000000002
100
AcDbArc
 50
338.391
 51
158.391
  0
ARC
  5
B9
100
AcDbEntity
  8
Verde/Green
  6
ByLayer
 62
  256
370
   -1
100
AcDbCircle
 10
125.2937700265051
 20
86.66237640989637
 40
1.500000000000002
100
AcDbArc
 50
158.391
 51
338.391
  0
LINE
  5
BA
100
AcDbEntity
  8
Verde/Green
  6
ByLayer
 62
  256
370
   -1
100
AcDbLine
 10
124.2674626492737
 20
88.1445009550808
 11
123.8991920521827
 21
87.21478230553346
  0
LINE
  5
BB
100
AcDbEntity
  8
Verde/Green
  6
ByLayer
 62
  256
370
   -1
100
AcDbLine
 10
127.0566185979186
 20
87.03968916380661
 11
126.6883480008276
 21
86.10997051425927
  0
LWPOLYLINE
  5
BC
100
AcDbEntity
  8
Verde/Green
  6
ByLayer
 62
  256
370
   -1
100
AcDbPolyline
 90
    4
 70
    1
 43
0
 10
81.24092481246991
 20
94.68851846771997
 42
0.999999999999991
 10
81.13949139727455
 20
96.18508495881943
 10
78.89464166062535
 20
96.03293483602639
 10
78.99607507582073
 20
94.5363683449269
  0
ARC
  5
BD
100
AcDbEntity
  8
Verde/Green
  6
ByLayer
 62
  256
370
   -1
100
AcDbCircle
 10
81.19020810487226
 20
95.43680171326969
 40
1.25
100
AcDbArc
 50
273.87743
 51
93.87743
  0
LINE
  5
BE
100
AcDbEntity
  8
Verde/Green
  6
ByLayer
 62
  256
370
   -1
100
AcDbLine
 10
79.19894190621145
 20
91.54323536272793
 11
78.70008640917828
 21
91.50942422432948
  0
LINE
  5
BF
100
AcDbEntity
  8
Verde/Green
  6
ByLayer
 62
  256
370
   -1
100
AcDbLine
 10
78.70008640917828
 20
91.50942422432948
 11
78.36197502519371
 21
96.49797919466108
  0
LINE
  5
C0
100
AcDbEntity
  8
Verde/Green
  6
ByLayer
 62
  256
370
   -1
100
AcDbLine
 10
78.36197502519371
 20
96.49797919466108
 11
81.10568025887609
 21
96.68394045585259
  0
LINE
  5
C1
100
AcDbEntity
  8
Verde/Green
  6
ByLayer
 62
  256
370
   -1
100
AcDbLine
 10
79.02988621421918
 20
94.03751284789374
 11
79.19894190621145
 21
91.54323536272793
  0
LINE
  5
C2
100
AcDbEntity
  8
Verde/Green
  6
ByLayer
 62
  256
370
   -1
100
AcDbLine
 10
81.27473595086839
 20
94.1896629706868
 11
79.77234986821441
 21
94.0878351185921
  0
LINE
  5
C3
100
AcDbEntity
  8
Verde/Green
  6
ByLayer
 62
  256
370
   -1
100
AcDbLine
 10
79.77234986821442
 20
94.0878351185921
 11
82.69093038544355
 21
91.77991333151712
  0
LINE
  5
C4
100
AcDbEntity
  8
Verde/Green
  6
ByLayer
 62
  256
370
   -1
100
AcDbLine
 10
79.02988621421918
 20
94.03751284789374
 11
81.94846673144835
 21
91.72959106081879
  0
LINE
  5
C5
100
AcDbEntity
  8
Verde/Green
  6
ByLayer
 62
  256
370
   -1
100
AcDbLine
 10
81.94846673144835
 20
91.72959106081879
 11
82.69093038544355
 21
91.77991333151712
  0
LWPOLYLINE
  5
C6
100
AcDbEntity
  8
Verde/Green
  6
ByLayer
 62
  256
370
   -1
100
AcDbPolyline
 90
    4
 70
    1
 43
0
 10
121.5654854200469
 20
89.11851295537582
 42
0.9999999999999968
 10
122.0483139099074
 20
90.53868077974697
 10
119.9180621733507
 20
91.26292351453769
 10
119.4352336834902
 20
89.84275569016654
  0
ARC
  5
C7
100
AcDbEntity
  8
Verde/Green
  6
ByLayer
 62
  256
370
   -1
100
AcDbCircle
 10
121.8068996649772
 20
89.82859686756137
 40
1.25
100
AcDbArc
 50
251.223
 51
71.223
  0
LINE
  5
C8
100
AcDbEntity
  8
Verde/Green
  6
ByLayer
 62
  256
370
   -1
100
AcDbLine
 10
118.4695767037693
 20
87.00242004142426
 11
117.9961874289789
 21
87.16336287137776
  0
LINE
  5
C9
100
AcDbEntity
  8
Verde/Green
  6
ByLayer
 62
  256
370
   -1
100
AcDbLine
 10
117.9961874289789
 20
87.16336287137776
 11
119.6056157285138
 21
91.89725561928155
  0
LINE
  5
CA
100
AcDbEntity
  8
Verde/Green
  6
ByLayer
 62
  256
370
   -1
100
AcDbLine
 10
119.6056157285138
 20
91.89725561928155
 11
122.2092567398609
 21
91.01207005453733
  0
LINE
  5
CB
100
AcDbEntity
  8
Verde/Green
  6
ByLayer
 62
  256
370
   -1
100
AcDbLine
 10
119.2742908535367
 20
89.36936641537615
 11
118.4695767037693
 21
87.00242004142426
  0
LINE
  5
CC
100
AcDbEntity
  8
Verde/Green
  6
ByLayer
 62
  256
370
   -1
100
AcDbLine
 10
121.4045425900934
 20
88.64512368058543
 11
119.9788522602233
 21
89.12982971121579
  0
LINE
  5
CD
100
AcDbEntity
  8
Verde/Green
  6
ByLayer
 62
  256
370
   -1
100
AcDbLine
 10
119.9788522602233
 20
89.12982971121579
 11
121.7833016273019
 21
85.87582023174981
  0
LINE
  5
CE
100
AcDbEntity
  8
Verde/Green
  6
ByLayer
 62
  256
370
   -1
100
AcDbLine
 10
119.2742908535367
 20
89.36936641537615
 11
121.0787402206154
 21
86.11535693591017
  0
LINE
  5
CF
100
AcDbEntity
  8
Verde/Green
  6
ByLayer
 62
  256
370
   -1
100
AcDbLine
 10
121.0787402206154
 20
86.11535693591017
 11
121.7833016273019
 21
85.87582023174981
  0
LWPOLYLINE
  5
D0
100
AcDbEntity
  8
Verde/Green
  6
ByLayer
 62
  256
370
   -1
100
AcDbPolyline
 90
    4
 70
    1
 43
0
 10
135.6507866855878
 20
83.01167427940167
 42
0.9999999999999786
 10
136.3381328144414
 20
84.34492418063923
 10
134.3382579625851
 20
85.37594337391968
 10
133.6509118337315
 20
84.04269347268212
  0
ARC
  5
D1
100
AcDbEntity
  8
Verde/Green
  6
ByLayer
 62
  256
370
   -1
100
AcDbCircle
 10
135.9944597500146
 20
83.6782992300205
 40
1.25
100
AcDbArc
 50
242.7269999999999
 51
62.72699999999996
  0
LINE
  5
D2
100
AcDbEntity
  8
Verde/Green
  6
ByLayer
 62
  256
370
   -1
100
AcDbLine
 10
132.2762195760243
 20
81.37619367020697
 11
131.8318029422784
 21
81.6053090464915
  0
LINE
  5
D3
100
AcDbEntity
  8
Verde/Green
  6
ByLayer
 62
  256
370
   -1
100
AcDbLine
 10
131.8318029422784
 20
81.6053090464915
 11
134.1229567051238
 21
86.04947538395007
  0
LINE
  5
D4
100
AcDbEntity
  8
Verde/Green
  6
ByLayer
 62
  256
370
   -1
100
AcDbLine
 10
134.1229567051238
 20
86.04947538395007
 11
136.567248190726
 21
84.78934081438516
  0
LINE
  5
D5
100
AcDbEntity
  8
Verde/Green
  6
ByLayer
 62
  256
370
   -1
100
AcDbLine
 10
133.421796457447
 20
83.59827683893626
 11
132.2762195760243
 21
81.37619367020697
  0
LINE
  5
D6
100
AcDbEntity
  8
Verde/Green
  6
ByLayer
 62
  256
370
   -1
100
AcDbLine
 10
135.4216713093033
 20
82.56725764565587
 11
134.0832368941057
 21
83.2572766084599
  0
LINE
  5
D7
100
AcDbEntity
  8
Verde/Green
  6
ByLayer
 62
  256
370
   -1
100
AcDbLine
 10
134.0832368941057
 20
83.2572766084599
 11
135.3871360122453
 21
79.77238603621527
  0
LINE
  5
D8
100
AcDbEntity
  8
Verde/Green
  6
ByLayer
 62
  256
370
   -1
100
AcDbLine
 10
133.421796457447
 20
83.59827683893626
 11
134.7256955755866
 21
80.11338626669161
  0
LINE
  5
D9
100
AcDbEntity
  8
Verde/Green
  6
ByLayer
 62
  256
370
   -1
100
AcDbLine
 10
134.7256955755866
 20
80.11338626669161
 11
135.3871360122453
 21
79.77238603621527
  0
LINE
  5
DA
100
AcDbEntity
  8
Verde/Green
  6
ByLayer
 62
  256
370
   -1
100
AcDbLine
 10
138.9315913660859
 20
82.94682128924623
 11
141.9594681488122
 21
81.1912694704078
  0
LINE
  5
DB
100
AcDbEntity
  8
Verde/Green
  6
ByLayer
 62
  256
370
   -1
100
AcDbLine
 10
138.0538154566667
 20
81.43288289788309
 11
141.081692239393
 21
79.67733107904465
  0
LINE
  5
DC
100
AcDbEntity
  8
Verde/Green
  6
ByLayer
 62
  256
370
   -1
100
AcDbLine
 10
137.8030223396897
 20
81.00032907177933
 11
140.830899122416
 21
79.24477725294089
  0
LINE
  5
DD
100
AcDbEntity
  8
Verde/Green
  6
ByLayer
 62
  256
370
   -1
100
AcDbLine
 10
136.9252464302705
 20
79.48639068041618
 11
139.9531232129968
 21
77.73083886157775
  0
LINE
  5
DE
100
AcDbEntity
  8
Verde/Green
  6
ByLayer
 62
  256
370
   -1
100
AcDbLine
 10
138.9315913660859
 20
82.94682128924623
 11
138.0538154566667
 21
81.43288289788309
  0
LINE
  5
DF
100
AcDbEntity
  8
Verde/Green
  6
ByLayer
 62
  256
370
   -1
100
AcDbLine
 10
137.8030223396897
 20
81.00032907177933
 11
136.9252464302705
 21
79.48639068041618
  0
LINE
  5
E0
100
AcDbEntity
  8
Verde/Green
  6
ByLayer
 62
  256
370
   -1
100
AcDbLine
 10
141.9594681488122
 20
81.1912694704078
 11
142.2102612657891
 21
81.62382329651157
  0
LINE
  5
E1
100
AcDbEntity
  8
Verde/Green
  6
ByLayer
 62
  256
370
   -1
100
AcDbLine
 10
142.2102612657891
 20
81.62382329651157
 11
138.749830656959
 21
83.63016823232692
  0
LINE
  5
E2
100
AcDbEntity
  8
Verde/Green
  6
ByLayer
 62
  256
370
   -1
100
AcDbLine
 10
138.749830656959
 20
83.63016823232692
 11
136.2418994871898
 21
79.30462997128933
  0
LINE
  5
E3
100
AcDbEntity
  8
Verde/Green
  6
ByLayer
 62
  256
370
   -1
100
AcDbLine
 10
136.2418994871898
 20
79.30462997128933
 11
139.7023300960199
 21
77.29828503547397
  0
LINE
  5
E4
100
AcDbEntity
  8
Verde/Green
  6
ByLayer
 62
  256
370
   -1
100
AcDbLine
 10
139.7023300960199
 20
77.29828503547397
 11
139.9531232129968
 21
77.73083886157775
  0
LINE
  5
E5
100
AcDbEntity
  8
Verde/Green
  6
ByLayer
 62
  256
370
   -1
100
AcDbLine
 10
141.081692239393
 20
79.67733107904465
 11
140.830899122416
 21
79.24477725294089
  0
LINE
  5
E6
100
AcDbEntity
  8
Verde/Green
  6
ByLayer
 62
  256
370
   -1
100
AcDbLine
 10
104.7881764142878
 20
94.95455429376503
 11
108.2319704804212
 21
94.32982840982488
  0
LINE
  5
E7
100
AcDbEntity
  8
Verde/Green
  6
ByLayer
 62
  256
370
   -1
100
AcDbLine
 10
104.4758134723178
 20
93.23265726069836
 11
107.9196075384511
 21
92.60793137675822
  0
LINE
  5
E8
100
AcDbEntity
  8
Verde/Green
  6
ByLayer
 62
  256
370
   -1
100
AcDbLine
 10
104.3865669174692
 20
92.74068667982218
 11
107.8303609836025
 21
92.11596079588203
  0
LINE
  5
E9
100
AcDbEntity
  8
Verde/Green
  6
ByLayer
 62
  256
370
   -1
100
AcDbLine
 10
104.0742039754991
 20
91.01878964675551
 11
107.5179980416325
 21
90.39406376281536
  0
LINE
  5
EA
100
AcDbEntity
  8
Verde/Green
  6
ByLayer
 62
  256
370
   -1
100
AcDbLine
 10
104.7881764142878
 20
94.95455429376503
 11
104.4758134723178
 21
93.23265726069836
  0
LINE
  5
EB
100
AcDbEntity
  8
Verde/Green
  6
ByLayer
 62
  256
370
   -1
100
AcDbLine
 10
104.3865669174692
 20
92.74068667982218
 11
104.0742039754991
 21
91.01878964675551
  0
LINE
  5
EC
100
AcDbEntity
  8
Verde/Green
  6
ByLayer
 62
  256
370
   -1
100
AcDbLine
 10
108.2319704804212
 20
94.32982840982488
 11
108.3212170352698
 21
94.8217989907011
  0
LINE
  5
ED
100
AcDbEntity
  8
Verde/Green
  6
ByLayer
 62
  256
370
   -1
100
AcDbLine
 10
108.3212170352698
 20
94.8217989907011
 11
104.3854523882602
 21
95.53577142948983
  0
LINE
  5
EE
100
AcDbEntity
  8
Verde/Green
  6
ByLayer
 62
  256
370
   -1
100
AcDbLine
 10
104.3854523882602
 20
95.53577142948983
 11
103.4929868397743
 21
90.61606562072791
  0
LINE
  5
EF
100
AcDbEntity
  8
Verde/Green
  6
ByLayer
 62
  256
370
   -1
100
AcDbLine
 10
103.4929868397743
 20
90.61606562072791
 11
107.4287514867839
 21
89.90209318193918
  0
LINE
  5
F0
100
AcDbEntity
  8
Verde/Green
  6
ByLayer
 62
  256
370
   -1
100
AcDbLine
 10
107.4287514867839
 20
89.90209318193918
 11
107.5179980416325
 21
90.39406376281536
  0
LINE
  5
F1
100
AcDbEntity
  8
Verde/Green
  6
ByLayer
 62
  256
370
   -1
100
AcDbLine
 10
107.9196075384511
 20
92.60793137675822
 11
107.8303609836025
 21
92.11596079588203
  0
LINE
  5
F2
100
AcDbEntity
  8
Verde/Green
  6
ByLayer
 62
  256
370
   -1
100
AcDbLine
 10
146.0081299656449
 20
75.89079603195621
 11
150.2353887128746
 21
76.23483241387504
  0
LINE
  5
F3
100
AcDbEntity
  8
Verde/Green
  6
ByLayer
 62
  256
370
   -1
100
AcDbLine
 10
150.2353887128746
 20
76.23483241387504
 11
150.8610791943267
 21
75.78410121560563
  0
LINE
  5
F4
100
AcDbEntity
  8
Verde/Green
  6
ByLayer
 62
  256
370
   -1
100
AcDbLine
 10
147.4024129465933
 20
75.50261690312661
 11
149.5459438436795
 21
73.95847282804205
  0
LINE
  5
F5
100
AcDbEntity
  8
Verde/Green
  6
ByLayer
 62
  256
370
   -1
100
AcDbLine
 10
147.4024129465933
 20
75.50261690312661
 11
150.8610791943267
 21
75.78410121560563
  0
LINE
  5
F6
100
AcDbEntity
  8
Verde/Green
  6
ByLayer
 62
  256
370
   -1
100
AcDbLine
 10
149.5459438436795
 20
73.95847282804205
 11
145.3186850964498
 21
73.61443644612319
  0
LINE
  5
F7
100
AcDbEntity
  8
Verde/Green
  6
ByLayer
 62
  256
370
   -1
100
AcDbLine
 10
146.0081299656449
 20
75.89079603195621
 11
148.1516608627311
 21
74.34665195687165
  0
LINE
  5
F8
100
AcDbEntity
  8
Verde/Green
  6
ByLayer
 62
  256
370
   -1
100
AcDbLine
 10
148.1516608627311
 20
74.34665195687165
 11
144.6929946149976
 21
74.06516764439259
  0
LINE
  5
F9
100
AcDbEntity
  8
Verde/Green
  6
ByLayer
 62
  256
370
   -1
100
AcDbLine
 10
144.6929946149976
 20
74.06516764439259
 11
145.3186850964498
 21
73.61443644612319
  0
LINE
  5
FA
100
AcDbEntity
  8
Verde/Green
  6
ByLayer
 62
  256
370
   -1
100
AcDbLine
 10
141.7547752550511
 20
78.67817044307799
 11
145.9598732335111
 21
79.23064536528307
  0
LINE
  5
FB
100
AcDbEntity
  8
Verde/Green
  6
ByLayer
 62
  256
370
   -1
100
AcDbLine
 10
145.9598732335111
 20
79.23064536528307
 11
146.6070691054496
 21
78.81137851109705
  0
LINE
  5
FC
100
AcDbEntity
  8
Verde/Green
  6
ByLayer
 62
  256
370
   -1
100
AcDbLine
 10
143.1665343958005
 20
78.35935357474747
 11
145.3837398497607
 21
76.92300208353403
  0
LINE
  5
FD
100
AcDbEntity
  8
Verde/Green
  6
ByLayer
 62
  256
370
   -1
100
AcDbLine
 10
143.1665343958005
 20
78.35935357474747
 11
146.6070691054496
 21
78.81137851109705
  0
LINE
  5
FE
100
AcDbEntity
  8
Verde/Green
  6
ByLayer
 62
  256
370
   -1
100
AcDbLine
 10
145.3837398497607
 20
76.92300208353403
 11
141.1786418713007
 21
76.37052716132894
  0
LINE
  5
FF
100
AcDbEntity
  8
Verde/Green
  6
ByLayer
 62
  256
370
   -1
100
AcDbLine
 10
141.7547752550511
 20
78.67817044307799
 11
143.9719807090113
 21
77.24181895186459
  0
LINE
  5
100
100
AcDbEntity
  8
Verde/Green
  6
ByLayer
 62
  256
370
   -1
100
AcDbLine
 10
143.9719807090113
 20
77.24181895186459
 11
140.5314459993622
 21
76.78979401551494
  0
LINE
  5
101
100
AcDbEntity
  8
Verde/Green
  6
ByLayer
 62
  256
370
   -1
100
AcDbLine
 10
140.5314459993622
 20
76.78979401551494
 11
141.1786418713007
 21
76.37052716132894
  0
LINE
  5
102
100
AcDbEntity
  8
Verde/Green
  6
ByLayer
 62
  256
370
   -1
100
AcDbLine
 10
94.10639635987832
 20
91.66910252604426
 11
93.6080195428621
 21
91.70935855988736
  0
LINE
  5
103
100
AcDbEntity
  8
Verde/Green
  6
ByLayer
 62
  256
370
   -1
100
AcDbLine
 10
97.09665726197565
 20
91.42756632298556
 11
97.59503407899189
 21
91.38731028914245
  0
LINE
  5
104
100
AcDbEntity
  8
Verde/Green
  6
ByLayer
 62
  256
370
   -1
100
AcDbLine
 10
97.59503407899189
 20
91.38731028914245
 11
97.99759441742303
 21
96.37107845930467
  0
LINE
  5
105
100
AcDbEntity
  8
Verde/Green
  6
ByLayer
 62
  256
370
   -1
100
AcDbLine
 10
97.99759441742303
 20
96.37107845930467
 11
97.49921760040681
 21
96.41133449314778
  0
LINE
  5
106
100
AcDbEntity
  8
Verde/Green
  6
ByLayer
 62
  256
370
   -1
100
AcDbLine
 10
94.50895669830948
 20
96.65287069620648
 11
94.01057988129325
 21
96.69312673004958
  0
LINE
  5
107
100
AcDbEntity
  8
Verde/Green
  6
ByLayer
 62
  256
370
   -1
100
AcDbLine
 10
94.01057988129325
 20
96.69312673004958
 11
93.6080195428621
 21
91.70935855988736
  0
LINE
  5
108
100
AcDbEntity
  8
Verde/Green
  6
ByLayer
 62
  256
370
   -1
100
AcDbLine
 10
94.50895669830948
 20
96.65287069620648
 11
95.70808913445995
 21
92.86759483211438
  0
LINE
  5
109
100
AcDbEntity
  8
Verde/Green
  6
ByLayer
 62
  256
370
   -1
100
AcDbLine
 10
97.49921760040681
 20
96.41133449314778
 11
95.70808913445995
 21
92.86759483211438
  0
LINE
  5
10A
100
AcDbEntity
  8
Verde/Green
  6
ByLayer
 62
  256
370
   -1
100
AcDbLine
 10
97.39265527687387
 20
95.09207408554832
 11
95.601526810927
 21
91.54833442451491
  0
LINE
  5
10B
100
AcDbEntity
  8
Verde/Green
  6
ByLayer
 62
  256
370
   -1
100
AcDbLine
 10
94.40239437477652
 20
95.33361028860703
 11
95.601526810927
 21
91.54833442451491
  0
LINE
  5
10C
100
AcDbEntity
  8
Verde/Green
  6
ByLayer
 62
  256
370
   -1
100
AcDbLine
 10
94.40239437477652
 20
95.33361028860702
 11
94.10639635987832
 21
91.66910252604426
  0
LINE
  5
10D
100
AcDbEntity
  8
Verde/Green
  6
ByLayer
 62
  256
370
   -1
100
AcDbLine
 10
97.39265527687387
 20
95.09207408554835
 11
97.09665726197565
 21
91.42756632298556
  0
LWPOLYLINE
  5
10E
100
AcDbEntity
  8
Verde/Green
  6
ByLayer
 62
  256
370
   -1
100
AcDbPolyline
 90
    6
 70
    1
 43
0
 10
117.2378617544856
 20
92.60513160798078
 42
-0.9999999999999946
 10
116.551075544543
 20
90.20131699328343
 10
114.3876423913153
 20
90.81942458223179
 10
113.7008561813727
 20
88.41560996753442
 10
113.2200932584332
 20
88.55296720952296
 10
114.5936656783185
 20
93.36059643891767
  0
LWPOLYLINE
  5
10F
100
AcDbEntity
  8
Verde/Green
  6
ByLayer
 62
  256
370
   -1
100
AcDbPolyline
 90
    4
 70
    1
 43
0
 10
116.6884327865315
 20
90.68207991622288
 42
1.000000000000003
 10
117.1005045124971
 20
92.12436868504129
 10
114.9370713592694
 20
92.74247627398965
 10
114.5249996333038
 20
91.30018750517125
  0
LINE
  5
110
100
AcDbEntity
  8
G - Carolingi[o/an]
  6
ByLayer
 62
  256
370
   -1
100
AcDbLine
 10
129.7133931342395
 20
85.34062155759278
 11
131.9893626750834
 21
84.30623156868592
  0
ARC
  5
111
100
AcDbEntity
  8
G - Carolingi[o/an]
  6
ByLayer
 62
  256
370
   -1
100
AcDbCircle
 10
129.9617090446271
 20
84.6785496516431
 40
1.500000000000002
100
AcDbArc
 50
155.559
 51
335.559
  0
LINE
  5
112
100
AcDbEntity
  8
G - Carolingi[o/an]
  6
ByLayer
 62
  256
370
   -1
100
AcDbLine
 10
129.0098833156831
 20
86.20957146132382
 11
128.5961273201208
 21
85.29918364498721
  0
LINE
  5
113
100
AcDbEntity
  8
G - Carolingi[o/an]
  6
ByLayer
 62
  256
370
   -1
100
AcDbLine
 10
128.5546894075143
 20
86.41644945910519
 11
128.1409334119519
 21
85.50606164276859
  0
ARC
  5
114
100
AcDbEntity
  8
G - Carolingi[o/an]
  6
ByLayer
 62
  256
370
   -1
100
AcDbCircle
 10
130.3754650401894
 20
85.5889374679797
 40
1.500000000000002
100
AcDbArc
 50
348.7803451190476
 51
155.559
  0
ARC
  5
115
100
AcDbEntity
  8
G - Carolingi[o/an]
  6
ByLayer
 62
  256
370
   -1
100
AcDbCircle
 10
130.3754650401894
 20
85.5889374679797
 40
2.000000000000002
100
AcDbArc
 50
353.0550833826687
 51
155.559
  0
LINE
  5
116
100
AcDbEntity
  8
G - Carolingi[o/an]
  6
ByLayer
 62
  256
370
   -1
100
AcDbLine
 10
131.8467977407134
 20
85.29708119450603
 11
132.3607907531178
 21
85.34710733423957
  0
LINE
  5
117
100
AcDbEntity
  8
G - Carolingi[o/an]
  6
ByLayer
 62
  256
370
   -1
100
AcDbLine
 10
130.4997787780054
 20
82.23714002562444
 11
130.9549726861765
 21
82.03026202784203
  0
LINE
  5
118
100
AcDbEntity
  8
G - Carolingi[o/an]
  6
ByLayer
 62
  256
370
   -1
100
AcDbLine
 10
131.9893626750834
 20
84.30623156868592
 11
130.9549726861765
 21
82.03026202784203
  0
ARC
  5
119
100
AcDbEntity
  8
G - Carolingi[o/an]
  6
ByLayer
 62
  256
370
   -1
100
AcDbCircle
 10
129.9617090446271
 20
84.6785496516431
 40
2.000000000000002
100
AcDbArc
 50
155.559
 51
294.1493778906247
  0
LINE
  5
11A
100
AcDbEntity
  8
G - Carolingi[o/an]
  6
ByLayer
 62
  256
370
   -1
100
AcDbLine
 10
130.7799430352696
 20
82.85358577897149
 11
130.4997787780054
 21
82.23714002562444
  0
LINE
  5
11B
100
AcDbEntity
  8
G - Carolingi[o/an]
  6
ByLayer
 62
  256
370
   -1
100
AcDbLine
 10
129.7133931342395
 20
85.34062155759278
 11
129.2996371386767
 21
84.43023374125522
  0
LINE
  5
11C
100
AcDbEntity
  8
G - Carolingi[o/an]
  6
ByLayer
 62
  256
370
   -1
100
AcDbLine
 10
129.9617090446269
 20
84.67854965164264
 11
129.7548310468455
 21
84.22335574347385
  0
LINE
  5
11D
100
AcDbEntity
  8
G - Carolingi[o/an]
  6
ByLayer
 62
  256
370
   -1
100
AcDbLine
 10
129.9617090446269
 20
84.67854965164264
 11
131.3272907691318
 21
84.05791565829917
  0
LINE
  5
11E
100
AcDbEntity
  8
G - Carolingi[o/an]
  6
ByLayer
 62
  256
370
   -1
100
AcDbLine
 10
129.2996371386767
 20
84.43023374125522
 11
129.7548310468455
 21
84.22335574347385
  0
ARC
  5
11F
100
AcDbEntity
  8
Verde/Green
  6
ByLayer
 62
  256
370
   -1
100
AcDbCircle
 10
85.11824196990307
 20
94.34870442701501
 40
2.000000000000188
100
AcDbArc
 50
271.045624148366
 51
91.0455758516345
  0
LINE
  5
120
100
AcDbEntity
  8
Verde/Green
  6
ByLayer
 62
  256
370
   -1
100
AcDbLine
 10
85.08174651319956
 20
96.34837141970173
 11
84.08191302454726
 21
96.33012326995166
  0
ARC
  5
121
100
AcDbEntity
  8
Verde/Green
  6
ByLayer
 62
  256
370
   -1
100
AcDbCircle
 10
85.11824239124866
 20
94.34870443470493
 40
2.50000000000045
100
AcDbArc
 50
271.0455357003489
 51
91.04562897683009
  0
LINE
  5
122
100
AcDbEntity
  8
Verde/Green
  6
ByLayer
 62
  256
370
   -1
100
AcDbLine
 10
85.07262075273134
 20
96.84828813326379
 11
83.57287220534604
 21
96.82091593940282
  0
LINE
  5
123
100
AcDbEntity
  8
Verde/Green
  6
ByLayer
 62
  256
370
   -1
100
AcDbLine
 10
83.57287220534604
 20
96.82091593940282
 11
83.66411295409632
 21
91.82174849614114
  0
LINE
  5
124
100
AcDbEntity
  8
Verde/Green
  6
ByLayer
 62
  256
370
   -1
100
AcDbLine
 10
84.08191302454726
 20
96.33012326995166
 11
84.15490562354748
 21
92.33078931534234
  0
LINE
  5
125
100
AcDbEntity
  8
Verde/Green
  6
ByLayer
 62
  256
370
   -1
100
AcDbLine
 10
84.15490562354748
 20
92.33078931534234
 11
85.15473911219979
 21
92.34903746509238
  0
LINE
  5
126
100
AcDbEntity
  8
Verde/Green
  6
ByLayer
 62
  256
370
   -1
100
AcDbLine
 10
83.66411295409632
 20
91.82174849614114
 11
85.16385996048939
 21
91.84912066187819
  0
LINE
  5
127
100
AcDbEntity
  8
Verde/Green
  6
ByLayer
 62
  256
370
   -1
100
AcDbLine
 10
89.27711043299283
 20
96.37068066517143
 11
92.77541015267757
 21
96.2615978010097
  0
LINE
  5
128
100
AcDbEntity
  8
Verde/Green
  6
ByLayer
 62
  256
370
   -1
100
AcDbLine
 10
89.22256900091197
 20
94.62153080532907
 11
92.72086872059671
 21
94.51244794116734
  0
LINE
  5
129
100
AcDbEntity
  8
Verde/Green
  6
ByLayer
 62
  256
370
   -1
100
AcDbLine
 10
89.20698573460315
 20
94.12177370251696
 11
92.70528545428789
 21
94.01269083835523
  0
LINE
  5
12A
100
AcDbEntity
  8
Verde/Green
  6
ByLayer
 62
  256
370
   -1
100
AcDbLine
 10
89.15244430252228
 20
92.3726238426746
 11
92.65074402220702
 21
92.26354097851286
  0
LINE
  5
12B
100
AcDbEntity
  8
Verde/Green
  6
ByLayer
 62
  256
370
   -1
100
AcDbLine
 10
89.27711043299283
 20
96.37068066517143
 11
89.22256900091197
 21
94.62153080532907
  0
LINE
  5
12C
100
AcDbEntity
  8
Verde/Green
  6
ByLayer
 62
  256
370
   -1
100
AcDbLine
 10
89.20698573460315
 20
94.12177370251696
 11
89.15244430252228
 21
92.3726238426746
  0
LINE
  5
12D
100
AcDbEntity
  8
Verde/Green
  6
ByLayer
 62
  256
370
   -1
100
AcDbLine
 10
92.77541015267757
 20
96.2615978010097
 11
92.79099341898637
 21
96.7613549038218
  0
LINE
  5
12E
100
AcDbEntity
  8
Verde/Green
  6
ByLayer
 62
  256
370
   -1
100
AcDbLine
 10
92.79099341898637
 20
96.7613549038218
 11
88.79293659648954
 21
96.88602103429236
  0
LINE
  5
12F
100
AcDbEntity
  8
Verde/Green
  6
ByLayer
 62
  256
370
   -1
100
AcDbLine
 10
88.79293659648954
 20
96.88602103429236
 11
88.63710393340135
 21
91.88845000617133
  0
LINE
  5
130
100
AcDbEntity
  8
Verde/Green
  6
ByLayer
 62
  256
370
   -1
100
AcDbLine
 10
88.63710393340135
 20
91.88845000617133
 11
92.6351607558982
 21
91.76378387570075
  0
LINE
  5
131
100
AcDbEntity
  8
Verde/Green
  6
ByLayer
 62
  256
370
   -1
100
AcDbLine
 10
92.6351607558982
 20
91.76378387570075
 11
92.65074402220702
 21
92.26354097851286
  0
LINE
  5
132
100
AcDbEntity
  8
Verde/Green
  6
ByLayer
 62
  256
370
   -1
100
AcDbLine
 10
92.72086872059671
 20
94.51244794116734
 11
92.70528545428789
 21
94.01269083835523
  0
INSERT
  5
133
100
AcDbEntity
  8
Estrelas
  6
ByLayer
 62
  256
370
   -1
100
AcDbBlockReference
  2
Stars
 10
112.5
 20
78.75
 30
0
 41
10
 42
10
 43
0
 50
0
 70
    1
 71
    1
 44
0
 45
0
  0
INSERT
  5
134
100
AcDbEntity
  8
Estrelas
  6
ByLayer
 62
  256
370
   -1
100
AcDbBlockReference
  2
Stars
 10
112.5
 20
101.25
 30
0
 41
10
 42
10
 43
0
 50
0
 70
    1
 71
    1
 44
0
 45
0
  0
INSERT
  5
135
100
AcDbEntity
  8
Estrelas
  6
ByLayer
 62
  256
370
   -1
100
AcDbBlockReference
  2
Stars
 10
112.5
 20
108.75
 30
0
 41
10
 42
10
 43
0
 50
0
 70
    1
 71
    1
 44
0
 45
0
  0
INSERT
  5
136
100
AcDbEntity
  8
Estrelas
  6
ByLayer
 62
  256
370
   -1
100
AcDbBlockReference
  2
Stars
 10
112.5
 20
116.25
 30
0
 41
10
 42
10
 43
0
 50
0
 70
    1
 71
    1
 44
0
 45
0
  0
INSERT
  5
137
100
AcDbEntity
  8
Estrelas
  6
ByLayer
 62
  256
370
   -1
100
AcDbBlockReference
  2
Stars
 10
112.5
 20
71.25
 30
0
 41
10
 42
10
 43
0
 50
0
 70
    1
 71
    1
 44
0
 45
0
  0
INSERT
  5
138
100
AcDbEntity
  8
Estrelas
  6
ByLayer
 62
  256
370
   -1
100
AcDbBlockReference
  2
Stars
 10
112.5
 20
63.75
 30
0
 41
10
 42
10
 43
0
 50
0
 70
    1
 71
    1
 44
0
 45
0
  0
INSERT
  5
139
100
AcDbEntity
  8
Estrelas
  6
ByLayer
 62
  256
370
   -1
100
AcDbBlockReference
  2
Stars
 10
112.5
 20
56.25
 30
0
 41
10
 42
10
 43
0
 50
0
 70
    1
 71
    1
 44
0
 45
0
  0
INSERT
  5
13A
100
AcDbEntity
  8
Estrelas
  6
ByLayer
 62
  256
370
   -1
100
AcDbBlockReference
  2
Stars
 10
112.5
 20
48.75
 30
0
 41
10
 42
10
 43
0
 50
0
 70
    1
 71
    1
 44
0
 45
0
  0
INSERT
  5
13B
100
AcDbEntity
  8
Estrelas
  6
ByLayer
 62
  256
370
   -1
100
AcDbBlockReference
  2
Stars
 10
112.5
 20
41.25
 30
0
 41
10
 42
10
 43
0
 50
0
 70
    1
 71
    1
 44
0
 45
0
  0
INSERT
  5
13C
100
AcDbEntity
  8
Estrelas
  6
ByLayer
 62
  256
370
   -1
100
AcDbBlockReference
  2
Stars
 10
106.0048094716167
 20
82.5
 30
0
 41
10
 42
10
 43
0
 50
0
 70
    1
 71
    1
 44
0
 45
0
  0
INSERT
  5
13D
100
AcDbEntity
  8
Estrelas
  6
ByLayer
 62
  256
370
   -1
100
AcDbBlockReference
  2
Stars
 10
106.0048094716167
 20
105
 30
0
 41
10
 42
10
 43
0
 50
0
 70
    1
 71
    1
 44
0
 45
0
  0
INSERT
  5
13E
100
AcDbEntity
  8
Estrelas
  6
ByLayer
 62
  256
370
   -1
100
AcDbBlockReference
  2
Stars
 10
106.0048094716167
 20
112.5
 30
0
 41
10
 42
10
 43
0
 50
0
 70
    1
 71
    1
 44
0
 45
0
  0
INSERT
  5
13F
100
AcDbEntity
  8
Estrelas
  6
ByLayer
 62
  256
370
   -1
100
AcDbBlockReference
  2
Stars
 10
106.0048094716167
 20
75
 30
0
 41
10
 42
10
 43
0
 50
0
 70
    1
 71
    1
 44
0
 45
0
  0
INSERT
  5
140
100
AcDbEntity
  8
Estrelas
  6
ByLayer
 62
  256
370
   -1
100
AcDbBlockReference
  2
Stars
 10
106.0048094716167
 20
67.5
 30
0
 41
10
 42
10
 43
0
 50
0
 70
    1
 71
    1
 44
0
 45
0
  0
INSERT
  5
141
100
AcDbEntity
  8
Estrelas
  6
ByLayer
 62
  256
370
   -1
100
AcDbBlockReference
  2
Stars
 10
106.0048094716167
 20
60
 30
0
 41
10
 42
10
 43
0
 50
0
 70
    1
 71
    1
 44
0
 45
0
  0
INSERT
  5
142
100
AcDbEntity
  8
Estrelas
  6
ByLayer
 62
  256
370
   -1
100
AcDbBlockReference
  2
Stars
 10
106.0048094716167
 20
52.5
 30
0
 41
10
 42
10
 43
0
 50
0
 70
    1
 71
    1
 44
0
 45
0
  0
INSERT
  5
143
100
AcDbEntity
  8
Estrelas
  6
ByLayer
 62
  256
370
   -1
100
AcDbBlockReference
  2
Stars
 10
106.0048094716167
 20
45
 30
0
 41
10
 42
10
 43
0
 50
0
 70
    1
 71
    1
 44
0
 45
0
  0
INSERT
  5
144
100
AcDbEntity
  8
Estrelas
  6
ByLayer
 62
  256
370
   -1
100
AcDbBlockReference
  2
Stars
 10
99.50961894323342
 20
86.25
 30
0
 41
10
 42
10
 43
0
 50
0
 70
    1
 71
    1
 44
0
 45
0
  0
INSERT
  5
145
100
AcDbEntity
  8
Estrelas
  6
ByLayer
 62
  256
370
   -1
100
AcDbBlockReference
  2
Stars
 10
99.50961894323343
 20
101.25
 30
0
 41
10
 42
10
 43
0
 50
0
 70
    1
 71
    1
 44
0
 45
0
  0
INSERT
  5
146
100
AcDbEntity
  8
Estrelas
  6
ByLayer
 62
  256
370
   -1
100
AcDbBlockReference
  2
Stars
 10
99.50961894323343
 20
108.75
 30
0
 41
10
 42
10
 43
0
 50
0
 70
    1
 71
    1
 44
0
 45
0
  0
INSERT
  5
147
100
AcDbEntity
  8
Estrelas
  6
ByLayer
 62
  256
370
   -1
100
AcDbBlockReference
  2
Stars
 10
99.50961894323343
 20
116.25
 30
0
 41
10
 42
10
 43
0
 50
0
 70
    1
 71
    1
 44
0
 45
0
  0
INSERT
  5
148
100
AcDbEntity
  8
Estrelas
  6
ByLayer
 62
  256
370
   -1
100
AcDbBlockReference
  2
Stars
 10
99.50961894323342
 20
78.75
 30
0
 41
10
 42
10
 43
0
 50
0
 70
    1
 71
    1
 44
0
 45
0
  0
INSERT
  5
149
100
AcDbEntity
  8
Estrelas
  6
ByLayer
 62
  256
370
   -1
100
AcDbBlockReference
  2
Stars
 10
99.50961894323342
 20
71.25
 30
0
 41
10
 42
10
 43
0
 50
0
 70
    1
 71
    1
 44
0
 45
0
  0
INSERT
  5
14A
100
AcDbEntity
  8
Estrelas
  6
ByLayer
 62
  256
370
   -1
100
AcDbBlockReference
  2
Stars
 10
99.50961894323342
 20
63.75000000000001
 30
0
 41
10
 42
10
 43
0
 50
0
 70
    1
 71
    1
 44
0
 45
0
  0
INSERT
  5
14B
100
AcDbEntity
  8
Estrelas
  6
ByLayer
 62
  256
370
   -1
100
AcDbBlockReference
  2
Stars
 10
99.50961894323342
 20
56.25000000000001
 30
0
 41
10
 42
10
 43
0
 50
0
 70
    1
 71
    1
 44
0
 45
0
  0
INSERT
  5
14C
100
AcDbEntity
  8
Estrelas
  6
ByLayer
 62
  256
370
   -1
100
AcDbBlockReference
  2
Stars
 10
99.50961894323342
 20
48.75000000000001
 30
0
 41
10
 42
10
 43
0
 50
0
 70
    1
 71
    1
 44
0
 45
0
  0
INSERT
  5
14D
100
AcDbEntity
  8
Estrelas
  6
ByLayer
 62
  256
370
   -1
100
AcDbBlockReference
  2
Stars
 10
99.50961894323342
 20
41.25000000000001
 30
0
 41
10
 42
10
 43
0
 50
0
 70
    1
 71
    1
 44
0
 45
0
  0
INSERT
  5
14E
100
AcDbEntity
  8
Estrelas
  6
ByLayer
 62
  256
370
   -1
100
AcDbBlockReference
  2
Stars
 10
93.01442841485014
 20
105
 30
0
 41
10
 42
10
 43
0
 50
0
 70
    1
 71
    1
 44
0
 45
0
  0
INSERT
  5
14F
100
AcDbEntity
  8
Estrelas
  6
ByLayer
 62
  256
370
   -1
100
AcDbBlockReference
  2
Stars
 10
93.01442841485014
 20
112.5
 30
0
 41
10
 42
10
 43
0
 50
0
 70
    1
 71
    1
 44
0
 45
0
  0
INSERT
  5
150
100
AcDbEntity
  8
Estrelas
  6
ByLayer
 62
  256
370
   -1
100
AcDbBlockReference
  2
Stars
 10
93.01442841485014
 20
82.5
 30
0
 41
10
 42
10
 43
0
 50
0
 70
    1
 71
    1
 44
0
 45
0
  0
INSERT
  5
151
100
AcDbEntity
  8
Estrelas
  6
ByLayer
 62
  256
370
   -1
100
AcDbBlockReference
  2
Stars
 10
93.01442841485013
 20
75
 30
0
 41
10
 42
10
 43
0
 50
0
 70
    1
 71
    1
 44
0
 45
0
  0
INSERT
  5
152
100
AcDbEntity
  8
Estrelas
  6
ByLayer
 62
  256
370
   -1
100
AcDbBlockReference
  2
Stars
 10
93.01442841485013
 20
67.50000000000001
 30
0
 41
10
 42
10
 43
0
 50
0
 70
    1
 71
    1
 44
0
 45
0
  0
INSERT
  5
153
100
AcDbEntity
  8
Estrelas
  6
ByLayer
 62
  256
370
   -1
100
AcDbBlockReference
  2
Stars
 10
93.01442841485013
 20
60.00000000000001
 30
0
 41
10
 42
10
 43
0
 50
0
 70
    1
 71
    1
 44
0
 45
0
  0
INSERT
  5
154
100
AcDbEntity
  8
Estrelas
  6
ByLayer
 62
  256
370
   -1
100
AcDbBlockReference
  2
Stars
 10
93.01442841485013
 20
52.50000000000001
 30
0
 41
10
 42
10
 43
0
 50
0
 70
    1
 71
    1
 44
0
 45
0
  0
INSERT
  5
155
100
AcDbEntity
  8
Estrelas
  6
ByLayer
 62
  256
370
   -1
100
AcDbBlockReference
  2
Stars
 10
93.01442841485013
 20
45.00000000000001
 30
0
 41
10
 42
10
 43
0
 50
0
 70
    1
 71
    1
 44
0
 45
0
  0
INSERT
  5
156
100
AcDbEntity
  8
Estrelas
  6
ByLayer
 62
  256
370
   -1
100
AcDbBlockReference
  2
Stars
 10
86.51923788646684
 20
101.25
 30
0
 41
10
 42
10
 43
0
 50
0
 70
    1
 71
    1
 44
0
 45
0
  0
INSERT
  5
157
100
AcDbEntity
  8
Estrelas
  6
ByLayer
 62
  256
370
   -1
100
AcDbBlockReference
  2
Stars
 10
86.51923788646684
 20
108.75
 30
0
 41
10
 42
10
 43
0
 50
0
 70
    1
 71
    1
 44
0
 45
0
  0
INSERT
  5
158
100
AcDbEntity
  8
Estrelas
  6
ByLayer
 62
  256
370
   -1
100
AcDbBlockReference
  2
Stars
 10
86.51923788646684
 20
86.25000000000001
 30
0
 41
10
 42
10
 43
0
 50
0
 70
    1
 71
    1
 44
0
 45
0
  0
INSERT
  5
159
100
AcDbEntity
  8
Estrelas
  6
ByLayer
 62
  256
370
   -1
100
AcDbBlockReference
  2
Stars
 10
86.51923788646684
 20
78.75000000000001
 30
0
 41
10
 42
10
 43
0
 50
0
 70
    1
 71
    1
 44
0
 45
0
  0
INSERT
  5
15A
100
AcDbEntity
  8
Estrelas
  6
ByLayer
 62
  256
370
   -1
100
AcDbBlockReference
  2
Stars
 10
86.51923788646684
 20
71.25000000000001
 30
0
 41
10
 42
10
 43
0
 50
0
 70
    1
 71
    1
 44
0
 45
0
  0
INSERT
  5
15B
100
AcDbEntity
  8
Estrelas
  6
ByLayer
 62
  256
370
   -1
100
AcDbBlockReference
  2
Stars
 10
86.51923788646684
 20
63.75000000000001
 30
0
 41
10
 42
10
 43
0
 50
0
 70
    1
 71
    1
 44
0
 45
0
  0
INSERT
  5
15C
100
AcDbEntity
  8
Estrelas
  6
ByLayer
 62
  256
370
   -1
100
AcDbBlockReference
  2
Stars
 10
86.51923788646684
 20
56.25000000000001
 30
0
 41
10
 42
10
 43
0
 50
0
 70
    1
 71
    1
 44
0
 45
0
  0
INSERT
  5
15D
100
AcDbEntity
  8
Estrelas
  6
ByLayer
 62
  256
370
   -1
100
AcDbBlockReference
  2
Stars
 10
86.51923788646684
 20
48.75000000000001
 30
0
 41
10
 42
10
 43
0
 50
0
 70
    1
 71
    1
 44
0
 45
0
  0
INSERT
  5
15E
100
AcDbEntity
  8
Estrelas
  6
ByLayer
 62
  256
370
   -1
100
AcDbBlockReference
  2
Stars
 10
80.02404735808355
 20
82.50000000000001
 30
0
 41
10
 42
10
 43
0
 50
0
 70
    1
 71
    1
 44
0
 45
0
  0
INSERT
  5
15F
100
AcDbEntity
  8
Estrelas
  6
ByLayer
 62
  256
370
   -1
100
AcDbBlockReference
  2
Stars
 10
80.02404735808355
 20
75.00000000000001
 30
0
 41
10
 42
10
 43
0
 50
0
 70
    1
 71
    1
 44
0
 45
0
  0
INSERT
  5
160
100
AcDbEntity
  8
Estrelas
  6
ByLayer
 62
  256
370
   -1
100
AcDbBlockReference
  2
Stars
 10
80.02404735808355
 20
67.50000000000001
 30
0
 41
10
 42
10
 43
0
 50
0
 70
    1
 71
    1
 44
0
 45
0
  0
INSERT
  5
161
100
AcDbEntity
  8
Estrelas
  6
ByLayer
 62
  256
370
   -1
100
AcDbBlockReference
  2
Stars
 10
80.02404735808355
 20
60.00000000000001
 30
0
 41
10
 42
10
 43
0
 50
0
 70
    1
 71
    1
 44
0
 45
0
  0
INSERT
  5
162
100
AcDbEntity
  8
Estrelas
  6
ByLayer
 62
  256
370
   -1
100
AcDbBlockReference
  2
Stars
 10
73.52885682970026
 20
86.25000000000001
 30
0
 41
10
 42
10
 43
0
 50
0
 70
    1
 71
    1
 44
0
 45
0
  0
INSERT
  5
163
100
AcDbEntity
  8
Estrelas
  6
ByLayer
 62
  256
370
   -1
100
AcDbBlockReference
  2
Stars
 10
73.52885682970026
 20
78.75000000000001
 30
0
 41
10
 42
10
 43
0
 50
0
 70
    1
 71
    1
 44
0
 45
0
  0
INSERT
  5
164
100
AcDbEntity
  8
Estrelas
  6
ByLayer
 62
  256
370
   -1
100
AcDbBlockReference
  2
Stars
 10
73.52885682970026
 20
71.25000000000001
 30
0
 41
10
 42
10
 43
0
 50
0
 70
    1
 71
    1
 44
0
 45
0
  0
INSERT
  5
165
100
AcDbEntity
  8
Estrelas
  6
ByLayer
 62
  256
370
   -1
100
AcDbBlockReference
  2
Stars
 10
118.9951905283833
 20
97.5
 30
0
 41
10
 42
10
 43
0
 50
0
 70
    1
 71
    1
 44
0
 45
0
  0
INSERT
  5
166
100
AcDbEntity
  8
Estrelas
  6
ByLayer
 62
  256
370
   -1
100
AcDbBlockReference
  2
Stars
 10
118.9951905283833
 20
105
 30
0
 41
10
 42
10
 43
0
 50
0
 70
    1
 71
    1
 44
0
 45
0
  0
INSERT
  5
167
100
AcDbEntity
  8
Estrelas
  6
ByLayer
 62
  256
370
   -1
100
AcDbBlockReference
  2
Stars
 10
118.9951905283833
 20
112.5
 30
0
 41
10
 42
10
 43
0
 50
0
 70
    1
 71
    1
 44
0
 45
0
  0
INSERT
  5
168
100
AcDbEntity
  8
Estrelas
  6
ByLayer
 62
  256
370
   -1
100
AcDbBlockReference
  2
Stars
 10
118.9951905283833
 20
75
 30
0
 41
10
 42
10
 43
0
 50
0
 70
    1
 71
    1
 44
0
 45
0
  0
INSERT
  5
169
100
AcDbEntity
  8
Estrelas
  6
ByLayer
 62
  256
370
   -1
100
AcDbBlockReference
  2
Stars
 10
118.9951905283833
 20
67.5
 30
0
 41
10
 42
10
 43
0
 50
0
 70
    1
 71
    1
 44
0
 45
0
  0
INSERT
  5
16A
100
AcDbEntity
  8
Estrelas
  6
ByLayer
 62
  256
370
   -1
100
AcDbBlockReference
  2
Stars
 10
118.9951905283833
 20
60
 30
0
 41
10
 42
10
 43
0
 50
0
 70
    1
 71
    1
 44
0
 45
0
  0
INSERT
  5
16B
100
AcDbEntity
  8
Estrelas
  6
ByLayer
 62
  256
370
   -1
100
AcDbBlockReference
  2
Stars
 10
118.9951905283833
 20
52.5
 30
0
 41
10
 42
10
 43
0
 50
0
 70
    1
 71
    1
 44
0
 45
0
  0
INSERT
  5
16C
100
AcDbEntity
  8
Estrelas
  6
ByLayer
 62
  256
370
   -1
100
AcDbBlockReference
  2
Stars
 10
118.9951905283833
 20
45
 30
0
 41
10
 42
10
 43
0
 50
0
 70
    1
 71
    1
 44
0
 45
0
  0
INSERT
  5
16D
100
AcDbEntity
  8
Estrelas
  6
ByLayer
 62
  256
370
   -1
100
AcDbBlockReference
  2
Stars
 10
125.4903810567666
 20
101.25
 30
0
 41
10
 42
10
 43
0
 50
0
 70
    1
 71
    1
 44
0
 45
0
  0
INSERT
  5
16E
100
AcDbEntity
  8
Estrelas
  6
ByLayer
 62
  256
370
   -1
100
AcDbBlockReference
  2
Stars
 10
125.4903810567666
 20
108.75
 30
0
 41
10
 42
10
 43
0
 50
0
 70
    1
 71
    1
 44
0
 45
0
  0
INSERT
  5
16F
100
AcDbEntity
  8
Estrelas
  6
ByLayer
 62
  256
370
   -1
100
AcDbBlockReference
  2
Stars
 10
125.4903810567666
 20
116.25
 30
0
 41
10
 42
10
 43
0
 50
0
 70
    1
 71
    1
 44
0
 45
0
  0
INSERT
  5
170
100
AcDbEntity
  8
Estrelas
  6
ByLayer
 62
  256
370
   -1
100
AcDbBlockReference
  2
Stars
 10
125.4903810567666
 20
78.75
 30
0
 41
10
 42
10
 43
0
 50
0
 70
    1
 71
    1
 44
0
 45
0
  0
INSERT
  5
171
100
AcDbEntity
  8
Estrelas
  6
ByLayer
 62
  256
370
   -1
100
AcDbBlockReference
  2
Stars
 10
125.4903810567666
 20
71.24999999999999
 30
0
 41
10
 42
10
 43
0
 50
0
 70
    1
 71
    1
 44
0
 45
0
  0
INSERT
  5
172
100
AcDbEntity
  8
Estrelas
  6
ByLayer
 62
  256
370
   -1
100
AcDbBlockReference
  2
Stars
 10
125.4903810567666
 20
63.74999999999999
 30
0
 41
10
 42
10
 43
0
 50
0
 70
    1
 71
    1
 44
0
 45
0
  0
INSERT
  5
173
100
AcDbEntity
  8
Estrelas
  6
ByLayer
 62
  256
370
   -1
100
AcDbBlockReference
  2
Stars
 10
125.4903810567666
 20
56.24999999999999
 30
0
 41
10
 42
10
 43
0
 50
0
 70
    1
 71
    1
 44
0
 45
0
  0
INSERT
  5
174
100
AcDbEntity
  8
Estrelas
  6
ByLayer
 62
  256
370
   -1
100
AcDbBlockReference
  2
Stars
 10
125.4903810567666
 20
48.74999999999999
 30
0
 41
10
 42
10
 43
0
 50
0
 70
    1
 71
    1
 44
0
 45
0
  0
INSERT
  5
175
100
AcDbEntity
  8
Estrelas
  6
ByLayer
 62
  256
370
   -1
100
AcDbBlockReference
  2
Stars
 10
125.4903810567666
 20
41.24999999999999
 30
0
 41
10
 42
10
 43
0
 50
0
 70
    1
 71
    1
 44
0
 45
0
  0
INSERT
  5
176
100
AcDbEntity
  8
Estrelas
  6
ByLayer
 62
  256
370
   -1
100
AcDbBlockReference
  2
Stars
 10
131.9855715851499
 20
97.49999999999999
 30
0
 41
10
 42
10
 43
0
 50
0
 70
    1
 71
    1
 44
0
 45
0
  0
INSERT
  5
177
100
AcDbEntity
  8
Estrelas
  6
ByLayer
 62
  256
370
   -1
100
AcDbBlockReference
  2
Stars
 10
131.9855715851499
 20
105
 30
0
 41
10
 42
10
 43
0
 50
0
 70
    1
 71
    1
 44
0
 45
0
  0
INSERT
  5
178
100
AcDbEntity
  8
Estrelas
  6
ByLayer
 62
  256
370
   -1
100
AcDbBlockReference
  2
Stars
 10
131.9855715851499
 20
112.5
 30
0
 41
10
 42
10
 43
0
 50
0
 70
    1
 71
    1
 44
0
 45
0
  0
INSERT
  5
179
100
AcDbEntity
  8
Estrelas
  6
ByLayer
 62
  256
370
   -1
100
AcDbBlockReference
  2
Stars
 10
131.9855715851499
 20
74.99999999999999
 30
0
 41
10
 42
10
 43
0
 50
0
 70
    1
 71
    1
 44
0
 45
0
  0
INSERT
  5
17A
100
AcDbEntity
  8
Estrelas
  6
ByLayer
 62
  256
370
   -1
100
AcDbBlockReference
  2
Stars
 10
131.9855715851499
 20
67.49999999999999
 30
0
 41
10
 42
10
 43
0
 50
0
 70
    1
 71
    1
 44
0
 45
0
  0
INSERT
  5
17B
100
AcDbEntity
  8
Estrelas
  6
ByLayer
 62
  256
370
   -1
100
AcDbBlockReference
  2
Stars
 10
131.9855715851499
 20
59.99999999999999
 30
0
 41
10
 42
10
 43
0
 50
0
 70
    1
 71
    1
 44
0
 45
0
  0
INSERT
  5
17C
100
AcDbEntity
  8
Estrelas
  6
ByLayer
 62
  256
370
   -1
100
AcDbBlockReference
  2
Stars
 10
131.9855715851499
 20
52.49999999999999
 30
0
 41
10
 42
10
 43
0
 50
0
 70
    1
 71
    1
 44
0
 45
0
  0
INSERT
  5
17D
100
AcDbEntity
  8
Estrelas
  6
ByLayer
 62
  256
370
   -1
100
AcDbBlockReference
  2
Stars
 10
131.9855715851499
 20
44.99999999999999
 30
0
 41
10
 42
10
 43
0
 50
0
 70
    1
 71
    1
 44
0
 45
0
  0
INSERT
  5
17E
100
AcDbEntity
  8
Estrelas
  6
ByLayer
 62
  256
370
   -1
100
AcDbBlockReference
  2
Stars
 10
138.4807621135332
 20
93.74999999999999
 30
0
 41
10
 42
10
 43
0
 50
0
 70
    1
 71
    1
 44
0
 45
0
  0
INSERT
  5
17F
100
AcDbEntity
  8
Estrelas
  6
ByLayer
 62
  256
370
   -1
100
AcDbBlockReference
  2
Stars
 10
138.4807621135332
 20
101.25
 30
0
 41
10
 42
10
 43
0
 50
0
 70
    1
 71
    1
 44
0
 45
0
  0
INSERT
  5
180
100
AcDbEntity
  8
Estrelas
  6
ByLayer
 62
  256
370
   -1
100
AcDbBlockReference
  2
Stars
 10
138.4807621135332
 20
108.75
 30
0
 41
10
 42
10
 43
0
 50
0
 70
    1
 71
    1
 44
0
 45
0
  0
INSERT
  5
181
100
AcDbEntity
  8
Estrelas
  6
ByLayer
 62
  256
370
   -1
100
AcDbBlockReference
  2
Stars
 10
138.4807621135332
 20
71.24999999999999
 30
0
 41
10
 42
10
 43
0
 50
0
 70
    1
 71
    1
 44
0
 45
0
  0
INSERT
  5
182
100
AcDbEntity
  8
Estrelas
  6
ByLayer
 62
  256
370
   -1
100
AcDbBlockReference
  2
Stars
 10
138.4807621135332
 20
63.74999999999999
 30
0
 41
10
 42
10
 43
0
 50
0
 70
    1
 71
    1
 44
0
 45
0
  0
INSERT
  5
183
100
AcDbEntity
  8
Estrelas
  6
ByLayer
 62
  256
370
   -1
100
AcDbBlockReference
  2
Stars
 10
138.4807621135332
 20
56.24999999999999
 30
0
 41
10
 42
10
 43
0
 50
0
 70
    1
 71
    1
 44
0
 45
0
  0
INSERT
  5
184
100
AcDbEntity
  8
Estrelas
  6
ByLayer
 62
  256
370
   -1
100
AcDbBlockReference
  2
Stars
 10
138.4807621135332
 20
48.74999999999999
 30
0
 41
10
 42
10
 43
0
 50
0
 70
    1
 71
    1
 44
0
 45
0
  0
INSERT
  5
185
100
AcDbEntity
  8
Estrelas
  6
ByLayer
 62
  256
370
   -1
100
AcDbBlockReference
  2
Stars
 10
144.9759526419165
 20
97.49999999999999
 30
0
 41
10
 42
10
 43
0
 50
0
 70
    1
 71
    1
 44
0
 45
0
  0
INSERT
  5
186
100
AcDbEntity
  8
Estrelas
  6
ByLayer
 62
  256
370
   -1
100
AcDbBlockReference
  2
Stars
 10
144.9759526419165
 20
89.99999999999999
 30
0
 41
10
 42
10
 43
0
 50
0
 70
    1
 71
    1
 44
0
 45
0
  0
INSERT
  5
187
100
AcDbEntity
  8
Estrelas
  6
ByLayer
 62
  256
370
   -1
100
AcDbBlockReference
  2
Stars
 10
144.9759526419165
 20
67.49999999999999
 30
0
 41
10
 42
10
 43
0
 50
0
 70
    1
 71
    1
 44
0
 45
0
  0
INSERT
  5
188
100
AcDbEntity
  8
Estrelas
  6
ByLayer
 62
  256
370
   -1
100
AcDbBlockReference
  2
Stars
 10
144.9759526419165
 20
59.99999999999999
 30
0
 41
10
 42
10
 43
0
 50
0
 70
    1
 71
    1
 44
0
 45
0
  0
INSERT
  5
189
100
AcDbEntity
  8
Estrelas
  6
ByLayer
 62
  256
370
   -1
100
AcDbBlockReference
  2
Stars
 10
151.4711431702997
 20
86.24999999999997
 30
0
 41
10
 42
10
 43
0
 50
0
 70
    1
 71
    1
 44
0
 45
0
  0
ARC
  5
18A
100
AcDbEntity
  8
Azul/Blue
  6
ByLayer
 62
  256
370
   -1
100
AcDbCircle
 10
112.5
 20
78.75
 40
43.75
100
AcDbArc
 50
351.949746204123
 51
156.1594619940314
  0
ARC
  5
18B
100
AcDbEntity
  8
Azul/Blue
  6
ByLayer
 62
  256
370
   -1
100
AcDbCircle
 10
112.5
 20
78.75
 40
43.75
100
AcDbArc
 50
165.4601344543364
 51
342.649073743818
  0
LINE
  5
18C
100
AcDbEntity
  8
Marcacao
  6
ByLayer
 62
  256
370
   -1
100
AcDbLine
 10
87.5
 20
-8.75
 11
72.48301592034539
 21
96.43342402275846
  0
LINE
  5
18D
100
AcDbEntity
  8
Marcacao
  6
ByLayer
 62
  256
370
   -1
100
AcDbLine
 10
87.5
 20
-8.75
 11
155.8188708721074
 21
72.62317975082647
  0
LINE
  5
18E
100
AcDbEntity
  8
Marcacao
  6
ByLayer
 62
  256
370
   -1
100
AcDbLine
 10
87.5
 20
-8.75
 11
77.69790759643236
 21
97.04688787725243
  0
LINE
  5
18F
100
AcDbEntity
  8
Marcacao
  6
ByLayer
 62
  256
370
   -1
100
AcDbLine
 10
87.5
 20
-8.75
 11
82.93673905803158
 21
97.40196253284961
  0
LINE
  5
190
100
AcDbEntity
  8
Marcacao
  6
ByLayer
 62
  256
370
   -1
100
AcDbLine
 10
87.5
 20
-8.75
 11
88.18671543478685
 21
97.49778078581983
  0
LINE
  5
191
100
AcDbEntity
  8
Marcacao
  6
ByLayer
 62
  256
370
   -1
100
AcDbLine
 10
87.5
 20
-8.75
 11
93.43501463696141
 21
97.33410861792191
  0
LINE
  5
192
100
AcDbEntity
  8
Marcacao
  6
ByLayer
 62
  256
370
   -1
100
AcDbLine
 10
87.5
 20
-8.75
 11
98.66881867100525
 21
96.91134576794963
  0
LINE
  5
193
100
AcDbEntity
  8
Marcacao
  6
ByLayer
 62
  256
370
   -1
100
AcDbLine
 10
87.5
 20
-8.75
 11
103.8753449451175
 21
96.23052475544412
  0
LINE
  5
194
100
AcDbEntity
  8
Marcacao
  6
ByLayer
 62
  256
370
   -1
100
AcDbLine
 10
87.5
 20
-8.75
 11
109.0418774883468
 21
95.29330835895722
  0
LINE
  5
195
100
AcDbEntity
  8
Marcacao
  6
ByLayer
 62
  256
370
   -1
100
AcDbLine
 10
87.5
 20
-8.75
 11
114.1557980069823
 21
94.10198555502446
  0
LINE
  5
196
100
AcDbEntity
  8
Marcacao
  6
ByLayer
 62
  256
370
   -1
100
AcDbLine
 10
87.5
 20
-8.75
 11
119.2046167023864
 21
92.65946592776613
  0
LINE
  5
197
100
AcDbEntity
  8
Marcacao
  6
ByLayer
 62
  256
370
   -1
100
AcDbLine
 10
87.5
 20
-8.75
 11
124.1760027750034
 21
90.96927256276963
  0
LINE
  5
198
100
AcDbEntity
  8
Marcacao
  6
ByLayer
 62
  256
370
   -1
100
AcDbLine
 10
87.5
 20
-8.75
 11
129.0578145400405
 21
89.03553344260897
  0
LINE
  5
199
100
AcDbEntity
  8
Marcacao
  6
ByLayer
 62
  256
370
   -1
100
AcDbLine
 10
87.5
 20
-8.75
 11
133.8381290812704
 21
86.86297136501679
  0
LINE
  5
19A
100
AcDbEntity
  8
Marcacao
  6
ByLayer
 62
  256
370
   -1
100
AcDbLine
 10
87.5
 20
-8.75
 11
138.5052713705387
 21
84.45689240832837
  0
LINE
  5
19B
100
AcDbEntity
  8
Marcacao
  6
ByLayer
 62
  256
370
   -1
100
AcDbLine
 10
87.5
 20
-8.75
 11
143.0478427818404
 21
81.823172972376
  0
LINE
  5
19C
100
AcDbEntity
  8
Marcacao
  6
ByLayer
 62
  256
370
   -1
100
AcDbLine
 10
87.5
 20
-8.75
 11
147.4547489303465
 21
78.96824542647396
  0
LINE
  5
19D
100
AcDbEntity
  8
Marcacao
  6
ByLayer
 62
  256
370
   -1
100
AcDbLine
 10
87.5
 20
-8.75
 11
151.7152267683701
 21
75.89908239955585
  0
LINE
  5
19E
100
AcDbEntity
  8
Marcacao
  6
ByLayer
 62
  256
370
   -1
100
AcDbLine
 10
87.5
 20
-8.75
 11
87.5
 21
97.5
  0
LINE
  5
19F
100
AcDbEntity
  8
Marcacao
  6
ByLayer
 62
  256
370
   -1
100
AcDbLine
 10
-7.5
 20
18.75
 11
-7.5
 21
13.75
  0
LINE
  5
1A0
100
AcDbEntity
  8
Marcacao
  6
ByLayer
 62
  256
370
   -1
100
AcDbLine
 10
-7.5
 20
18.75
 11
-3.499999999999996
 21
18.75
  0
LINE
  5
1A1
100
AcDbEntity
  8
Marcacao
  6
ByLayer
 62
  256
370
   -1
100
AcDbLine
 10
-7.5
 20
13.75
 11
-3.499999999999996
 21
13.75
  0
LINE
  5
1A2
100
AcDbEntity
  8
Marcacao
  6
ByLayer
 62
  256
370
   -1
100
AcDbLine
 10
-7.5
 20
18.75
 11
-3.499999999999996
 21
13.75
  0
LINE
  5
1A3
100
AcDbEntity
  8
Marcacao
  6
ByLayer
 62
  256
370
   -1
100
AcDbLine
 10
-3.499999999999996
 20
18.75
 11
-7.5
 21
13.75
  0
LINE
  5
1A4
100
AcDbEntity
  8
Marcacao
  6
ByLayer
 62
  256
370
   -1
100
AcDbLine
 10
-3.499999999999996
 20
18.75
 11
-3.499999999999996
 21
13.75
  0
LINE
  5
1A5
100
AcDbEntity
  8
Marcacao
  6
ByLayer
 62
  256
370
   -1
100
AcDbLine
 10
2.5
 20
18.75
 11
2.5
 21
13.75
  0
LINE
  5
1A6
100
AcDbEntity
  8
Marcacao
  6
ByLayer
 62
  256
370
   -1
100
AcDbLine
 10
2.5
 20
18.75
 11
6.500000000000004
 21
18.75
  0
LINE
  5
1A7
100
AcDbEntity
  8
Marcacao
  6
ByLayer
 62
  256
370
   -1
100
AcDbLine
 10
2.5
 20
13.75
 11
6.500000000000004
 21
13.75
  0
LINE
  5
1A8
100
AcDbEntity
  8
Marcacao
  6
ByLayer
 62
  256
370
   -1
100
AcDbLine
 10
2.5
 20
13.75
 11
6.500000000000004
 21
18.75
  0
LINE
  5
1A9
100
AcDbEntity
  8
Marcacao
  6
ByLayer
 62
  256
370
   -1
100
AcDbLine
 10
6.500000000000004
 20
13.75
 11
2.5
 21
18.75
  0
LINE
  5
1AA
100
AcDbEntity
  8
Marcacao
  6
ByLayer
 62
  256
370
   -1
100
AcDbLine
 10
6.500000000000004
 20
18.75
 11
6.500000000000004
 21
13.75
  0
LINE
  5
1AB
100
AcDbEntity
  8
Marcacao
  6
ByLayer
 62
  256
370
   -1
100
AcDbLine
 10
12.5
 20
18.75
 11
12.5
 21
13.75
  0
LINE
  5
1AC
100
AcDbEntity
  8
Marcacao
  6
ByLayer
 62
  256
370
   -1
100
AcDbLine
 10
16.5
 20
18.75
 11
16.5
 21
13.75
  0
LINE
  5
1AD
100
AcDbEntity
  8
Marcacao
  6
ByLayer
 62
  256
370
   -1
100
AcDbLine
 10
12.5
 20
18.75
 11
16.5
 21
18.75
  0
LINE
  5
1AE
100
AcDbEntity
  8
Marcacao
  6
ByLayer
 62
  256
370
   -1
100
AcDbLine
 10
12.5
 20
13.75
 11
16.5
 21
13.75
  0
LINE
  5
1AF
100
AcDbEntity
  8
Marcacao
  6
ByLayer
 62
  256
370
   -1
100
AcDbLine
 10
12.5
 20
18.75
 11
16.5
 21
13.75
  0
LINE
  5
1B0
100
AcDbEntity
  8
Marcacao
  6
ByLayer
 62
  256
370
   -1
100
AcDbLine
 10
12.5
 20
13.75
 11
16.5
 21
18.75
  0
LINE
  5
1B1
100
AcDbEntity
  8
Marcacao
  6
ByLayer
 62
  256
370
   -1
100
AcDbLine
 10
22.5
 20
18.75
 11
22.5
 21
13.75
  0
LINE
  5
1B2
100
AcDbEntity
  8
Marcacao
  6
ByLayer
 62
  256
370
   -1
100
AcDbLine
 10
26.5
 20
18.75
 11
26.5
 21
13.75
  0
LINE
  5
1B3
100
AcDbEntity
  8
Marcacao
  6
ByLayer
 62
  256
370
   -1
100
AcDbLine
 10
22.5
 20
18.75
 11
26.5
 21
18.75
  0
LINE
  5
1B4
100
AcDbEntity
  8
Marcacao
  6
ByLayer
 62
  256
370
   -1
100
AcDbLine
 10
22.5
 20
13.75
 11
26.5
 21
13.75
  0
LINE
  5
1B5
100
AcDbEntity
  8
Marcacao
  6
ByLayer
 62
  256
370
   -1
100
AcDbLine
 10
22.5
 20
18.75
 11
26.5
 21
13.75
  0
LINE
  5
1B6
100
AcDbEntity
  8
Marcacao
  6
ByLayer
 62
  256
370
   -1
100
AcDbLine
 10
22.5
 20
13.75
 11
26.5
 21
18.75
  0
LINE
  5
1B7
100
AcDbEntity
  8
Marcacao
  6
ByLayer
 62
  256
370
   -1
100
AcDbLine
 10
32.5
 20
18.75
 11
32.5
 21
13.75
  0
LINE
  5
1B8
100
AcDbEntity
  8
Marcacao
  6
ByLayer
 62
  256
370
   -1
100
AcDbLine
 10
32.5
 20
18.75
 11
36.5
 21
18.75
  0
LINE
  5
1B9
100
AcDbEntity
  8
Marcacao
  6
ByLayer
 62
  256
370
   -1
100
AcDbLine
 10
32.5
 20
13.75
 11
36.5
 21
13.75
  0
LINE
  5
1BA
100
AcDbEntity
  8
Marcacao
  6
ByLayer
 62
  256
370
   -1
100
AcDbLine
 10
32.5
 20
13.75
 11
36.5
 21
18.75
  0
LINE
  5
1BB
100
AcDbEntity
  8
Marcacao
  6
ByLayer
 62
  256
370
   -1
100
AcDbLine
 10
36.5
 20
13.75
 11
32.5
 21
18.75
  0
LINE
  5
1BC
100
AcDbEntity
  8
Marcacao
  6
ByLayer
 62
  256
370
   -1
100
AcDbLine
 10
36.5
 20
18.75
 11
36.5
 21
13.75
  0
LINE
  5
1BD
100
AcDbEntity
  8
Marcacao
  6
ByLayer
 62
  256
370
   -1
100
AcDbLine
 10
76.5
 20
18.75
 11
76.5
 21
13.75
  0
LINE
  5
1BE
100
AcDbEntity
  8
Marcacao
  6
ByLayer
 62
  256
370
   -1
100
AcDbLine
 10
72.5
 20
18.75
 11
76.5
 21
18.75
  0
LINE
  5
1BF
100
AcDbEntity
  8
Marcacao
  6
ByLayer
 62
  256
370
   -1
100
AcDbLine
 10
72.5
 20
13.75
 11
76.5
 21
13.75
  0
LINE
  5
1C0
100
AcDbEntity
  8
Marcacao
  6
ByLayer
 62
  256
370
   -1
100
AcDbLine
 10
72.5
 20
13.75
 11
76.5
 21
18.75
  0
LINE
  5
1C1
100
AcDbEntity
  8
Marcacao
  6
ByLayer
 62
  256
370
   -1
100
AcDbLine
 10
76.5
 20
13.75
 11
72.5
 21
18.75
  0
LINE
  5
1C2
100
AcDbEntity
  8
Marcacao
  6
ByLayer
 62
  256
370
   -1
100
AcDbLine
 10
72.5
 20
18.75
 11
72.5
 21
13.75
  0
LINE
  5
1C3
100
AcDbEntity
  8
Marcacao
  6
ByLayer
 62
  256
370
   -1
100
AcDbLine
 10
62.5
 20
18.75
 11
62.5
 21
13.75
  0
LINE
  5
1C4
100
AcDbEntity
  8
Marcacao
  6
ByLayer
 62
  256
370
   -1
100
AcDbLine
 10
66.49999999999999
 20
18.75
 11
66.49999999999999
 21
13.75
  0
LINE
  5
1C5
100
AcDbEntity
  8
Marcacao
  6
ByLayer
 62
  256
370
   -1
100
AcDbLine
 10
62.5
 20
18.75
 11
66.49999999999999
 21
18.75
  0
LINE
  5
1C6
100
AcDbEntity
  8
Marcacao
  6
ByLayer
 62
  256
370
   -1
100
AcDbLine
 10
62.5
 20
13.75
 11
66.49999999999999
 21
13.75
  0
LINE
  5
1C7
100
AcDbEntity
  8
Marcacao
  6
ByLayer
 62
  256
370
   -1
100
AcDbLine
 10
62.5
 20
18.75
 11
66.49999999999999
 21
13.75
  0
LINE
  5
1C8
100
AcDbEntity
  8
Marcacao
  6
ByLayer
 62
  256
370
   -1
100
AcDbLine
 10
66.49999999999999
 20
18.75
 11
62.5
 21
13.75
  0
LINE
  5
1C9
100
AcDbEntity
  8
Marcacao
  6
ByLayer
 62
  256
370
   -1
100
AcDbLine
 10
52.5
 20
18.75
 11
52.5
 21
13.75
  0
LINE
  5
1CA
100
AcDbEntity
  8
Marcacao
  6
ByLayer
 62
  256
370
   -1
100
AcDbLine
 10
52.5
 20
18.75
 11
56.5
 21
18.75
  0
LINE
  5
1CB
100
AcDbEntity
  8
Marcacao
  6
ByLayer
 62
  256
370
   -1
100
AcDbLine
 10
52.5
 20
13.75
 11
56.5
 21
13.75
  0
LINE
  5
1CC
100
AcDbEntity
  8
Marcacao
  6
ByLayer
 62
  256
370
   -1
100
AcDbLine
 10
52.5
 20
13.75
 11
56.5
 21
18.75
  0
LINE
  5
1CD
100
AcDbEntity
  8
Marcacao
  6
ByLayer
 62
  256
370
   -1
100
AcDbLine
 10
56.5
 20
13.75
 11
52.5
 21
18.75
  0
LINE
  5
1CE
100
AcDbEntity
  8
Marcacao
  6
ByLayer
 62
  256
370
   -1
100
AcDbLine
 10
56.5
 20
18.75
 11
56.5
 21
13.75
  0
LINE
  5
1CF
100
AcDbEntity
  8
Marcacao
  6
ByLayer
 62
  256
370
   -1
100
AcDbLine
 10
42.5
 20
18.75
 11
42.5
 21
13.75
  0
LINE
  5
1D0
100
AcDbEntity
  8
Marcacao
  6
ByLayer
 62
  256
370
   -1
100
AcDbLine
 10
42.5
 20
18.75
 11
46.5
 21
18.75
  0
LINE
  5
1D1
100
AcDbEntity
  8
Marcacao
  6
ByLayer
 62
  256
370
   -1
100
AcDbLine
 10
42.5
 20
13.75
 11
46.5
 21
13.75
  0
LINE
  5
1D2
100
AcDbEntity
  8
Marcacao
  6
ByLayer
 62
  256
370
   -1
100
AcDbLine
 10
42.5
 20
18.75
 11
46.5
 21
13.75
  0
LINE
  5
1D3
100
AcDbEntity
  8
Marcacao
  6
ByLayer
 62
  256
370
   -1
100
AcDbLine
 10
46.5
 20
18.75
 11
42.5
 21
13.75
  0
LINE
  5
1D4
100
AcDbEntity
  8
Marcacao
  6
ByLayer
 62
  256
370
   -1
100
AcDbLine
 10
46.5
 20
18.75
 11
46.5
 21
13.75
  0
LINE
  5
1D5
100
AcDbEntity
  8
Marcacao
  6
ByLayer
 62
  256
370
   -1
100
AcDbLine
 10
91.5
 20
97.5
 11
91.5
 21
92.5
  0
LINE
  5
1D6
100
AcDbEntity
  8
Marcacao
  6
ByLayer
 62
  256
370
   -1
100
AcDbLine
 10
87.5
 20
97.5
 11
91.5
 21
97.5
  0
LINE
  5
1D7
100
AcDbEntity
  8
Marcacao
  6
ByLayer
 62
  256
370
   -1
100
AcDbLine
 10
87.5
 20
92.5
 11
91.5
 21
92.5
  0
LINE
  5
1D8
100
AcDbEntity
  8
Marcacao
  6
ByLayer
 62
  256
370
   -1
100
AcDbLine
 10
87.5
 20
92.5
 11
91.5
 21
97.5
  0
LINE
  5
1D9
100
AcDbEntity
  8
Marcacao
  6
ByLayer
 62
  256
370
   -1
100
AcDbLine
 10
91.5
 20
92.5
 11
87.5
 21
97.5
  0
ARC
  5
1DA
100
AcDbEntity
  8
Fonts
  6
ByLayer
 62
  256
370
   -1
100
AcDbCircle
 10
-6.000000842937006
 20
16.25
 40
2.000000000000188
100
AcDbArc
 50
270.000024148366
 51
89.9999758516345
  0
LINE
  5
1DB
100
AcDbEntity
  8
Fonts
  6
ByLayer
 62
  256
370
   -1
100
AcDbLine
 10
-5.999999999999996
 20
18.25000000000001
 11
-6.999999999999993
 21
18.25
  0
ARC
  5
1DC
100
AcDbEntity
  8
Fonts
  6
ByLayer
 62
  256
370
   -1
100
AcDbCircle
 10
-6.000000421521197
 20
16.24999999999986
 40
2.50000000000045
100
AcDbArc
 50
269.9999357003489
 51
90.00002897683008
  0
LINE
  5
1DD
100
AcDbEntity
  8
Fonts
  6
ByLayer
 62
  256
370
   -1
100
AcDbLine
 10
-6.000001685873908
 20
18.75
 11
-7.5
 21
18.75
  0
LINE
  5
1DE
100
AcDbEntity
  8
Fonts
  6
ByLayer
 62
  256
370
   -1
100
AcDbLine
 10
-7.5
 20
18.75
 11
-7.5
 21
13.75
  0
LINE
  5
1DF
100
AcDbEntity
  8
Fonts
  6
ByLayer
 62
  256
370
   -1
100
AcDbLine
 10
-6.999999999999993
 20
18.25
 11
-6.999999999999993
 21
14.25
  0
LINE
  5
1E0
100
AcDbEntity
  8
Fonts
  6
ByLayer
 62
  256
370
   -1
100
AcDbLine
 10
-6.999999999999993
 20
14.25
 11
-5.999999999999996
 21
14.24999999999999
  0
LINE
  5
1E1
100
AcDbEntity
  8
Fonts
  6
ByLayer
 62
  256
370
   -1
100
AcDbLine
 10
-7.5
 20
13.75
 11
-6.000003227122797
 21
13.75000000000099
  0
LINE
  5
1E2
100
AcDbEntity
  8
Fonts
  6
ByLayer
 62
  256
370
   -1
100
AcDbLine
 10
3.000000000000007
 20
18.25
 11
6.500000000000004
 21
18.25
  0
LINE
  5
1E3
100
AcDbEntity
  8
Fonts
  6
ByLayer
 62
  256
370
   -1
100
AcDbLine
 10
3.000000000000007
 20
16.5
 11
6.500000000000004
 21
16.5
  0
LINE
  5
1E4
100
AcDbEntity
  8
Fonts
  6
ByLayer
 62
  256
370
   -1
100
AcDbLine
 10
3.000000000000007
 20
16
 11
6.500000000000004
 21
16
  0
LINE
  5
1E5
100
AcDbEntity
  8
Fonts
  6
ByLayer
 62
  256
370
   -1
100
AcDbLine
 10
3.000000000000007
 20
14.25
 11
6.500000000000004
 21
14.25
  0
LINE
  5
1E6
100
AcDbEntity
  8
Fonts
  6
ByLayer
 62
  256
370
   -1
100
AcDbLine
 10
3.000000000000007
 20
18.25
 11
3.000000000000007
 21
16.5
  0
LINE
  5
1E7
100
AcDbEntity
  8
Fonts
  6
ByLayer
 62
  256
370
   -1
100
AcDbLine
 10
3.000000000000007
 20
16
 11
3.000000000000007
 21
14.25
  0
LINE
  5
1E8
100
AcDbEntity
  8
Fonts
  6
ByLayer
 62
  256
370
   -1
100
AcDbLine
 10
6.500000000000004
 20
18.25
 11
6.500000000000004
 21
18.75
  0
LINE
  5
1E9
100
AcDbEntity
  8
Fonts
  6
ByLayer
 62
  256
370
   -1
100
AcDbLine
 10
6.500000000000004
 20
18.75
 11
2.5
 21
18.75
  0
LINE
  5
1EA
100
AcDbEntity
  8
Fonts
  6
ByLayer
 62
  256
370
   -1
100
AcDbLine
 10
2.5
 20
18.75
 11
2.5
 21
13.75
  0
LINE
  5
1EB
100
AcDbEntity
  8
Fonts
  6
ByLayer
 62
  256
370
   -1
100
AcDbLine
 10
2.5
 20
13.75
 11
6.500000000000004
 21
13.75
  0
LINE
  5
1EC
100
AcDbEntity
  8
Fonts
  6
ByLayer
 62
  256
370
   -1
100
AcDbLine
 10
6.500000000000004
 20
13.75
 11
6.500000000000004
 21
14.25
  0
LINE
  5
1ED
100
AcDbEntity
  8
Fonts
  6
ByLayer
 62
  256
370
   -1
100
AcDbLine
 10
6.500000000000004
 20
16.5
 11
6.500000000000004
 21
16
  0
LINE
  5
1EE
100
AcDbEntity
  8
Fonts
  6
ByLayer
 62
  256
370
   -1
100
AcDbLine
 10
14
 20
16.25
 11
16.5
 21
16.25
  0
ARC
  5
1EF
100
AcDbEntity
  8
Fonts
  6
ByLayer
 62
  256
370
   -1
100
AcDbCircle
 10
14.49999999999999
 20
15.75000000000053
 40
1.500000000000002
100
AcDbArc
 50
180
 51
0
  0
LINE
  5
1F0
100
AcDbEntity
  8
Fonts
  6
ByLayer
 62
  256
370
   -1
100
AcDbLine
 10
13.00000000000001
 20
16.74999999999947
 11
13.00000000000001
 21
15.75000000000053
  0
LINE
  5
1F1
100
AcDbEntity
  8
Fonts
  6
ByLayer
 62
  256
370
   -1
100
AcDbLine
 10
12.5
 20
16.74999999999947
 11
12.5
 21
15.75000000000053
  0
ARC
  5
1F2
100
AcDbEntity
  8
Fonts
  6
ByLayer
 62
  256
370
   -1
100
AcDbCircle
 10
14.49999999999999
 20
16.74999999999947
 40
1.500000000000002
100
AcDbArc
 50
13.22134511904757
 51
180
  0
ARC
  5
1F3
100
AcDbEntity
  8
Fonts
  6
ByLayer
 62
  256
370
   -1
100
AcDbCircle
 10
14.49999999999999
 20
16.74999999999947
 40
2.000000000000002
100
AcDbArc
 50
17.49608338266865
 51
180
  0
LINE
  5
1F4
100
AcDbEntity
  8
Fonts
  6
ByLayer
 62
  256
370
   -1
100
AcDbLine
 10
15.96024064732847
 20
17.09307033081672
 11
16.40747500825444
 21
17.35128120948819
  0
LINE
  5
1F5
100
AcDbEntity
  8
Fonts
  6
ByLayer
 62
  256
370
   -1
100
AcDbLine
 10
15.99999999999744
 20
13.75
 11
16.5
 21
13.75000000000001
  0
LINE
  5
1F6
100
AcDbEntity
  8
Fonts
  6
ByLayer
 62
  256
370
   -1
100
AcDbLine
 10
16.5
 20
16.25
 11
16.5
 21
13.75000000000001
  0
ARC
  5
1F7
100
AcDbEntity
  8
Fonts
  6
ByLayer
 62
  256
370
   -1
100
AcDbCircle
 10
14.49999999999999
 20
15.75000000000053
 40
2.000000000000002
100
AcDbArc
 50
180
 51
318.5903778906247
  0
LINE
  5
1F8
100
AcDbEntity
  8
Fonts
  6
ByLayer
 62
  256
370
   -1
100
AcDbLine
 10
15.99999999999744
 20
14.42712434446562
 11
15.99999999999744
 21
13.75
  0
LINE
  5
1F9
100
AcDbEntity
  8
Fonts
  6
ByLayer
 62
  256
370
   -1
100
AcDbLine
 10
14
 20
16.25
 11
14
 21
15.25
  0
LINE
  5
1FA
100
AcDbEntity
  8
Fonts
  6
ByLayer
 62
  256
370
   -1
100
AcDbLine
 10
14.49999999999999
 20
15.75000000000001
 11
14.49999999999999
 21
15.25
  0
LINE
  5
1FB
100
AcDbEntity
  8
Fonts
  6
ByLayer
 62
  256
370
   -1
100
AcDbLine
 10
14.49999999999999
 20
15.75000000000001
 11
15.99999999999838
 21
15.75
  0
LINE
  5
1FC
100
AcDbEntity
  8
Fonts
  6
ByLayer
 62
  256
370
   -1
100
AcDbLine
 10
14
 20
15.25
 11
14.49999999999999
 21
15.25
  0
LINE
  5
1FD
100
AcDbEntity
  8
Fonts
  6
ByLayer
 62
  256
370
   -1
100
AcDbLine
 10
25.2500029200181
 20
18.25
 11
26.5
 21
18.25
  0
LINE
  5
1FE
100
AcDbEntity
  8
Fonts
  6
ByLayer
 62
  256
370
   -1
100
AcDbLine
 10
22.5
 20
18.75
 11
26.5
 21
18.75
  0
LINE
  5
1FF
100
AcDbEntity
  8
Fonts
  6
ByLayer
 62
  256
370
   -1
100
AcDbLine
 10
22.5
 20
18.75
 11
22.5
 21
18.25
  0
LINE
  5
200
100
AcDbEntity
  8
Fonts
  6
ByLayer
 62
  256
370
   -1
100
AcDbLine
 10
26.5
 20
18.75
 11
26.5
 21
18.25
  0
LINE
  5
201
100
AcDbEntity
  8
Fonts
  6
ByLayer
 62
  256
370
   -1
100
AcDbLine
 10
22.5
 20
18.25
 11
24.13196769712087
 21
18.24999999999999
  0
LINE
  5
202
100
AcDbEntity
  8
Fonts
  6
ByLayer
 62
  256
370
   -1
100
AcDbLine
 10
33
 20
13.75
 11
32.5
 21
13.75
  0
LINE
  5
203
100
AcDbEntity
  8
Fonts
  6
ByLayer
 62
  256
370
   -1
100
AcDbLine
 10
36.00000000000001
 20
13.75
 11
36.5
 21
13.75
  0
LINE
  5
204
100
AcDbEntity
  8
Fonts
  6
ByLayer
 62
  256
370
   -1
100
AcDbLine
 10
36.5
 20
13.75
 11
36.5
 21
18.75
  0
LINE
  5
205
100
AcDbEntity
  8
Fonts
  6
ByLayer
 62
  256
370
   -1
100
AcDbLine
 10
36.5
 20
18.75
 11
36.00000000000001
 21
18.75
  0
LINE
  5
206
100
AcDbEntity
  8
Fonts
  6
ByLayer
 62
  256
370
   -1
100
AcDbLine
 10
33
 20
18.75
 11
32.5
 21
18.75
  0
LINE
  5
207
100
AcDbEntity
  8
Fonts
  6
ByLayer
 62
  256
370
   -1
100
AcDbLine
 10
32.5
 20
18.75
 11
32.5
 21
13.75
  0
LINE
  5
208
100
AcDbEntity
  8
Fonts
  6
ByLayer
 62
  256
370
   -1
100
AcDbLine
 10
33
 20
18.75
 11
34.5
 21
15.07355715851499
  0
LINE
  5
209
100
AcDbEntity
  8
Fonts
  6
ByLayer
 62
  256
370
   -1
100
AcDbLine
 10
36.00000000000001
 20
18.75
 11
34.50000000000001
 21
15.07355715851499
  0
LINE
  5
20A
100
AcDbEntity
  8
Fonts
  6
ByLayer
 62
  256
370
   -1
100
AcDbLine
 10
36.00000000000001
 20
17.42644284148505
 11
34.5
 21
13.75
  0
LINE
  5
20B
100
AcDbEntity
  8
Fonts
  6
ByLayer
 62
  256
370
   -1
100
AcDbLine
 10
33
 20
17.42644284148503
 11
34.5
 21
13.75
  0
LINE
  5
20C
100
AcDbEntity
  8
Fonts
  6
ByLayer
 62
  256
370
   -1
100
AcDbLine
 10
33
 20
17.42644284148502
 11
33
 21
13.75
  0
LINE
  5
20D
100
AcDbEntity
  8
Fonts
  6
ByLayer
 62
  256
370
   -1
100
AcDbLine
 10
36.00000000000001
 20
17.42644284148506
 11
36.00000000000001
 21
13.75
  0
LINE
  5
20E
100
AcDbEntity
  8
Fonts
  6
ByLayer
 62
  256
370
   -1
100
AcDbLine
 10
72.5
 20
16
 11
75.72886629455509
 21
18.75
  0
LINE
  5
20F
100
AcDbEntity
  8
Fonts
  6
ByLayer
 62
  256
370
   -1
100
AcDbLine
 10
75.72886629455509
 20
18.75
 11
76.5
 21
18.75
  0
LINE
  5
210
100
AcDbEntity
  8
Fonts
  6
ByLayer
 62
  256
370
   -1
100
AcDbLine
 10
73.85820030445494
 20
16.5
 11
76.5
 21
16.5
  0
LINE
  5
211
100
AcDbEntity
  8
Fonts
  6
ByLayer
 62
  256
370
   -1
100
AcDbLine
 10
73.85820030445494
 20
16.5
 11
76.5
 21
18.75
  0
LINE
  5
212
100
AcDbEntity
  8
Fonts
  6
ByLayer
 62
  256
370
   -1
100
AcDbLine
 10
76.5
 20
16.5
 11
73.27113370544492
 21
13.75
  0
LINE
  5
213
100
AcDbEntity
  8
Fonts
  6
ByLayer
 62
  256
370
   -1
100
AcDbLine
 10
72.5
 20
16
 11
75.14179969554506
 21
16
  0
LINE
  5
214
100
AcDbEntity
  8
Fonts
  6
ByLayer
 62
  256
370
   -1
100
AcDbLine
 10
75.14179969554506
 20
16
 11
72.5
 21
13.75
  0
LINE
  5
215
100
AcDbEntity
  8
Fonts
  6
ByLayer
 62
  256
370
   -1
100
AcDbLine
 10
72.5
 20
13.75
 11
73.27113370544492
 21
13.75
  0
LWPOLYLINE
  5
216
100
AcDbEntity
  8
Fonts
  6
ByLayer
 62
  256
370
   -1
100
AcDbPolyline
 90
    4
 70
    1
 43
0
 10
65.24999999999999
 20
16.75
 42
0.9999999999999999
 10
65.24999999999999
 20
18.25
 10
63
 20
18.25
 10
63
 20
16.75
  0
ARC
  5
217
100
AcDbEntity
  8
Fonts
  6
ByLayer
 62
  256
370
   -1
100
AcDbCircle
 10
65.24999999999999
 20
17.5
 40
1.25
100
AcDbArc
 50
270
 51
90
  0
LINE
  5
218
100
AcDbEntity
  8
Fonts
  6
ByLayer
 62
  256
370
   -1
100
AcDbLine
 10
63
 20
13.75
 11
62.5
 21
13.75
  0
LINE
  5
219
100
AcDbEntity
  8
Fonts
  6
ByLayer
 62
  256
370
   -1
100
AcDbLine
 10
62.5
 20
13.75
 11
62.5
 21
18.75
  0
LINE
  5
21A
100
AcDbEntity
  8
Fonts
  6
ByLayer
 62
  256
370
   -1
100
AcDbLine
 10
62.5
 20
18.75
 11
65.24999999999999
 21
18.75
  0
LINE
  5
21B
100
AcDbEntity
  8
Fonts
  6
ByLayer
 62
  256
370
   -1
100
AcDbLine
 10
63
 20
16.25
 11
63
 21
13.75
  0
LINE
  5
21C
100
AcDbEntity
  8
Fonts
  6
ByLayer
 62
  256
370
   -1
100
AcDbLine
 10
65.24999999999999
 20
16.25
 11
63.7441670568039
 21
16.25
  0
LINE
  5
21D
100
AcDbEntity
  8
Fonts
  6
ByLayer
 62
  256
370
   -1
100
AcDbLine
 10
63.74416705680392
 20
16.25
 11
66.49999999999999
 21
13.75
  0
LINE
  5
21E
100
AcDbEntity
  8
Fonts
  6
ByLayer
 62
  256
370
   -1
100
AcDbLine
 10
63
 20
16.25
 11
65.75583294319611
 21
13.75
  0
LINE
  5
21F
100
AcDbEntity
  8
Fonts
  6
ByLayer
 62
  256
370
   -1
100
AcDbLine
 10
65.75583294319611
 20
13.75
 11
66.49999999999999
 21
13.75
  0
LWPOLYLINE
  5
220
100
AcDbEntity
  8
Fonts
  6
ByLayer
 62
  256
370
   -1
100
AcDbPolyline
 90
    6
 70
    1
 43
0
 10
55.25
 20
18.75
 42
-0.9999999999999999
 10
55.25
 20
16.25
 10
53
 20
16.25
 10
53
 20
13.75
 10
52.5
 20
13.75
 10
52.5
 20
18.75
  0
LWPOLYLINE
  5
221
100
AcDbEntity
  8
Fonts
  6
ByLayer
 62
  256
370
   -1
100
AcDbPolyline
 90
    4
 70
    1
 43
0
 10
55.25
 20
16.75
 42
0.9999999999999999
 10
55.25
 20
18.25
 10
53
 20
18.25
 10
53
 20
16.75
  0
ARC
  5
222
100
AcDbEntity
  8
Fonts
  6
ByLayer
 62
  256
370
   -1
100
AcDbCircle
 10
44.5
 20
16.74999999999947
 40
2.000000000000002
100
AcDbArc
 50
0
 51
180
  0
ARC
  5
223
100
AcDbEntity
  8
Fonts
  6
ByLayer
 62
  256
370
   -1
100
AcDbCircle
 10
44.5
 20
15.75000000000053
 40
2.000000000000002
100
AcDbArc
 50
180
 51
0
  0
LINE
  5
224
100
AcDbEntity
  8
Fonts
  6
ByLayer
 62
  256
370
   -1
100
AcDbLine
 10
42.5
 20
16.74999999999947
 11
42.5
 21
15.75000000000053
  0
LINE
  5
225
100
AcDbEntity
  8
Fonts
  6
ByLayer
 62
  256
370
   -1
100
AcDbLine
 10
46.5
 20
16.74999999999947
 11
46.5
 21
15.75000000000053
  0
ARC
  5
226
100
AcDbEntity
  8
Fonts
  6
ByLayer
 62
  256
370
   -1
100
AcDbCircle
 10
44.5
 20
16.74999999999947
 40
1.500000000000002
100
AcDbArc
 50
0
 51
180
  0
ARC
  5
227
100
AcDbEntity
  8
Fonts
  6
ByLayer
 62
  256
370
   -1
100
AcDbCircle
 10
44.5
 20
15.75000000000053
 40
1.500000000000002
100
AcDbArc
 50
180
 51
0
  0
LINE
  5
228
100
AcDbEntity
  8
Fonts
  6
ByLayer
 62
  256
370
   -1
100
AcDbLine
 10
43
 20
16.74999999999947
 11
43
 21
15.75000000000053
  0
LINE
  5
229
100
AcDbEntity
  8
Fonts
  6
ByLayer
 62
  256
370
   -1
100
AcDbLine
 10
46.00000000000001
 20
16.74999999999947
 11
46.00000000000001
 21
15.75000000000053
  0
ARC
  5
22A
100
AcDbEntity
  8
Estrelas
  6
ByLayer
 62
  256
370
   -1
100
AcDbCircle
 10
87.5
 20
-8.75
 40
100
100
AcDbArc
 50
48.1185112651604
 51
99.99069693299391
  0
ARC
  5
22B
100
AcDbEntity
  8
Estrelas
  6
ByLayer
 62
  256
370
   -1
100
AcDbCircle
 10
87.5
 20
-8.75
 40
106.25
100
AcDbArc
 50
49.98402745332598
 51
98.12518074482833
  0
ARC
  5
22C
100
AcDbEntity
  8
Estrelas
  6
ByLayer
 62
  256
370
   -1
100
AcDbCircle
 10
112.5
 20
78.75
 40
43.75
100
AcDbArc
 50
156.1594619940314
 51
165.4601344543364
  0
ARC
  5
22D
100
AcDbEntity
  8
Estrelas
  6
ByLayer
 62
  256
370
   -1
100
AcDbCircle
 10
112.5
 20
78.75
 40
43.75
100
AcDbArc
 50
342.649073743818
 51
351.949746204123
  0
MTEXT
  5
22E
100
AcDbEntity
  8
Text
  6
ByLayer
 62
  256
370
   -1
100
AcDbMText
 10
112.5
 20
-21.25
 30
0
 40
6
 41
202.4999987279904
 71
    5
 72
    1
  1
Brazilian Flag, By Felipe Lohan Pinheiro da Silva. \PPlenty of Stars. Fuck the official specification.
  7
standard
210
0
220
0
230
1
 50
0
 73
    2
 44
1
  0
LINE
  5
22F
100
AcDbEntity
  8
Text
  6
ByLayer
 62
  256
370
   -1
100
AcDbLine
 10
-12.5
 20
-8.75
 11
-12.50000000000001
 21
-33.75
  0
LINE
  5
230
100
AcDbEntity
  8
Text
  6
ByLayer
 62
  256
370
   -1
100
AcDbLine
 10
237.5
 20
-8.75
 11
237.5
 21
-33.75
  0
LINE
  5
231
100
AcDbEntity
  8
Text
  6
ByLayer
 62
  256
370
   -1
100
AcDbLine
 10
237.5
 20
-33.75
 11
-12.50000000000001
 21
-33.75
  0
LINE
  5
232
100
AcDbEntity
  8
Verde/Green
  6
ByLayer
 62
  256
370
   -1
100
AcDbLine
 10
-12.5
 20
166.25
 11
-12.5
 21
-8.75
  0
LINE
  5
233
100
AcDbEntity
  8
Verde/Green
  6
ByLayer
 62
  256
370
   -1
100
AcDbLine
 10
-12.5
 20
166.25
 11
237.5
 21
166.25
  0
LINE
  5
234
100
AcDbEntity
  8
Verde/Green
  6
ByLayer
 62
  256
370
   -1
100
AcDbLine
 10
237.5
 20
166.25
 11
237.5
 21
-8.75
  0
LINE
  5
235
100
AcDbEntity
  8
Verde/Green
  6
ByLayer
 62
  256
370
   -1
100
AcDbLine
 10
237.5
 20
-8.75
 11
-12.5
 21
-8.75
  0
ARC
  5
236
100
AcDbEntity
  8
Fonts
  6
ByLayer
 62
  256
370
   -1
100
AcDbCircle
 10
25.25000146000849
 20
17.25
 40
1.000000000001071
100
AcDbArc
 50
89.9999163476115
 51
180
  0
ARC
  5
237
100
AcDbEntity
  8
Fonts
  6
ByLayer
 62
  256
370
   -1
100
AcDbCircle
 10
25.2500016858728
 20
17.25
 40
1.500000000000004
100
AcDbArc
 50
138.1896851042735
 51
180
  0
ELLIPSE
  5
238
100
AcDbEntity
  8
Fonts
  6
ByLayer
 62
  256
370
   -1
100
AcDbEllipse
 10
24.50000000000001
 20
14.99999999999999
 30
0
 11
-1.49999999999887
 21
0
 31
0
 40
0.5000000000003766
 41
0
 42
6.283185307179586
  0
ELLIPSE
  5
239
100
AcDbEntity
  8
Fonts
  6
ByLayer
 62
  256
370
   -1
100
AcDbEllipse
 10
24.50000000000001
 20
15
 30
0
 11
1.999999999998867
 21
-1.136868377215518e-14
 31
0
 40
0.6250000000003533
 41
1.955192191998704
 42
1.696123422188494
  0
LINE
  5
23A
100
AcDbEntity
  8
Fonts
  6
ByLayer
 62
  256
370
   -1
100
AcDbLine
 10
23.75000168587292
 20
16.15878143983877
 11
23.7500016858728
 21
17.25
  0
LINE
  5
23B
100
AcDbEntity
  8
Fonts
  6
ByLayer
 62
  256
370
   -1
100
AcDbLine
 10
24.25000146000742
 20
16.24019604202595
 11
24.25000146000742
 21
17.25
  0
LINE
  5
23C
100
AcDbEntity
  8
G - Insular-Gaelic[o]
  6
ByLayer
 62
  256
370
   -1
100
AcDbLine
 10
131.7123925702358
 20
86.6653681765965
 11
132.8599035161548
 21
86.16967539980908
  0
LINE
  5
23D
100
AcDbEntity
  8
G - Insular-Gaelic[o]
  6
ByLayer
 62
  256
370
   -1
100
AcDbLine
 10
129.3861374851611
 20
88.21490144157411
 11
133.0581810900491
 21
86.62868085042007
  0
LINE
  5
23E
100
AcDbEntity
  8
G - Insular-Gaelic[o]
  6
ByLayer
 62
  256
370
   -1
100
AcDbLine
 10
129.3861374851611
 20
88.21490144157411
 11
129.1878599112669
 21
87.7558959909631
  0
LINE
  5
23F
100
AcDbEntity
  8
G - Insular-Gaelic[o]
  6
ByLayer
 62
  256
370
   -1
100
AcDbLine
 10
133.0581810900491
 20
86.62868085042007
 11
132.8599035161548
 21
86.16967539980908
  0
LINE
  5
240
100
AcDbEntity
  8
G - Insular-Gaelic[o]
  6
ByLayer
 62
  256
370
   -1
100
AcDbLine
 10
129.1878599112669
 20
87.7558959909631
 11
130.686024047666
 21
87.10873079964526
  0
ARC
  5
241
100
AcDbEntity
  8
G - Insular-Gaelic[o]
  6
ByLayer
 62
  256
370
   -1
100
AcDbCircle
 10
131.3158360821425
 20
85.74735785434882
 40
1.000000000001071
100
AcDbArc
 50
66.63691634761152
 51
156.637
  0
ARC
  5
242
100
AcDbEntity
  8
G - Insular-Gaelic[o]
  6
ByLayer
 62
  256
370
   -1
100
AcDbCircle
 10
131.3158362894885
 20
85.74735776478116
 40
1.500000000000004
100
AcDbArc
 50
114.8266851042735
 51
156.637
  0
ELLIPSE
  5
243
100
AcDbEntity
  8
G - Insular-Gaelic[o]
  6
ByLayer
 62
  256
370
   -1
100
AcDbEllipse
 10
129.7350774833982
 20
83.97925026641457
 30
0
 11
-1.377016351831968
 21
0.5948327216823138
 31
0
 40
0.5000000000003766
 41
0
 42
6.283185307179586
  0
ELLIPSE
  5
244
100
AcDbEntity
  8
G - Insular-Gaelic[o]
  6
ByLayer
 62
  256
370
   -1
100
AcDbEllipse
 10
129.7350774833982
 20
83.97925026641457
 30
0
 11
1.836021802442962
 21
-0.7931102955765769
 31
0
 40
0.6250000000003533
 41
1.955192191998704
 42
1.696123422188494
  0
LINE
  5
245
100
AcDbEntity
  8
G - Insular-Gaelic[o]
  6
ByLayer
 62
  256
370
   -1
100
AcDbLine
 10
129.5060916002612
 20
85.34043995262007
 11
129.9388199376554
 21
86.34219048646392
  0
LINE
  5
246
100
AcDbEntity
  8
G - Insular-Gaelic[o]
  6
ByLayer
 62
  256
370
   -1
100
AcDbLine
 10
129.9973822231277
 20
85.21690196062045
 11
130.3978251809196
 21
86.14391300213774
  0
ENDSEC
  0
SECTION
  2
OBJECTS
  0
DICTIONARY
  5
C
330
0
100
AcDbDictionary
281
    1
  3
ACAD_GROUP
350
D
  0
DICTIONARY
  5
D
330
C
100
AcDbDictionary
281
    1
  0
ENDSEC
  0
EOF
