999
dxfrw 0.6.3
  0
SECTION
  2
HEADER
  9
$ACADVER
  1
AC1021
  9
$DWGCODEPAGE
  3
ANSI_1252
  9
$INSBASE
 10
0
 20
0
 30
0
  9
$EXTMIN
 10
-123.5
 20
-115
 30
0
  9
$EXTMAX
 10
123.5
 20
65
 30
0
  9
$LIMMIN
 10
0
 20
0
  9
$LIMMAX
 10
420
 20
297
  9
$ORTHOMODE
 70
    0
  9
$REGENMODE
 70
    1
  9
$FILLMODE
 70
    1
  9
$QTEXTMODE
 70
    0
  9
$MIRRTEXT
 70
    0
  9
$LTSCALE
 40
1
  9
$ATTMODE
 70
    0
  9
$TEXTSIZE
 40
2.5
  9
$TRACEWID
 40
15.68
  9
$TEXTSTYLE
  7
STANDARD
  9
$CLAYER
  8
0
  9
$CELTYPE
  6
BYLAYER
  9
$CECOLOR
 62
  256
  9
$CELTSCALE
 40
1
  9
$DISPSILH
 70
    0
  9
$DIMSCALE
 40
1
  9
$DIMASZ
 40
2.5
  9
$DIMEXO
 40
0.625
  9
$DIMDLI
 40
3.75
  9
$DIMRND
 40
0
  9
$DIMDLE
 40
0
  9
$DIMEXE
 40
1.25
  9
$DIMTP
 40
0
  9
$DIMTM
 40
0
  9
$DIMTXT
 40
2.5
  9
$DIMCEN
 40
2.5
  9
$DIMTSZ
 40
0
  9
$DIMTOL
 70
    0
  9
$DIMLIM
 70
    0
  9
$DIMTIH
 70
    0
  9
$DIMTOH
 70
    0
  9
$DIMSE1
 70
    0
  9
$DIMSE2
 70
    0
  9
$DIMTAD
 70
    1
  9
$DIMZIN
 70
    1
  9
$DIMBLK
  1

  9
$DIMASO
 70
    1
  9
$DIMSHO
 70
    1
  9
$DIMPOST
  1

  9
$DIMAPOST
  1

  9
$DIMALT
 70
    0
  9
$DIMALTD
 70
    3
  9
$DIMALTF
 40
0.03937
  9
$DIMLFAC
 40
1
  9
$DIMTOFL
 70
    1
  9
$DIMTVP
 40
0
  9
$DIMTIX
 70
    0
  9
$DIMSOXD
 70
    0
  9
$DIMSAH
 70
    0
  9
$DIMBLK1
  1

  9
$DIMBLK2
  1

  9
$DIMSTYLE
  2
STANDARD
  9
$DIMCLRD
 70
    0
  9
$DIMCLRE
 70
    0
  9
$DIMCLRT
 70
    0
  9
$DIMTFAC
 40
1
  9
$DIMGAP
 40
0.625
  9
$DIMJUST
 70
    0
  9
$DIMSD1
 70
    0
  9
$DIMSD2
 70
    0
  9
$DIMTOLJ
 70
    0
  9
$DIMTZIN
 70
    8
  9
$DIMALTZ
 70
    0
  9
$DIMALTTZ
 70
    0
  9
$DIMUPT
 70
    0
  9
$DIMDEC
 70
    4
  9
$DIMTDEC
 70
    2
  9
$DIMALTU
 70
    2
  9
$DIMALTTD
 70
    3
  9
$DIMTXSTY
  7
standard
  9
$DIMAUNIT
 70
    0
  9
$DIMADEC
 70
    2
  9
$DIMALTRND
 40
0
  9
$DIMAZIN
 70
    0
  9
$DIMDSEP
 70
    0
  9
$DIMATFIT
 70
    3
  9
$DIMFRAC
 70
    0
  9
$DIMLDRBLK
  1
STANDARD
  9
$DIMLUNIT
 70
    2
  9
$DIMLWD
 70
   -2
  9
$DIMLWE
 70
   -2
  9
$DIMTMOVE
 70
    0
  9
$DIMFXL
 40
1
  9
$DIMFXLON
 70
    0
  9
$DIMJOGANG
 40
0.7854
  9
$DIMTFILL
 70
    0
  9
$DIMTFILLCLR
 70
    0
  9
$DIMARCSYM
 70
    0
  9
$DIMLTYPE
  6

  9
$DIMLTEX1
  6

  9
$DIMLTEX2
  6

  9
$LUNITS
 70
    2
  9
$LUPREC
 70
    4
  9
$SKETCHINC
 40
1
  9
$FILLETRAD
 40
0
  9
$AUNITS
 70
    0
  9
$AUPREC
 70
    2
  9
$MENU
  1
.
  9
$ELEVATION
 40
0
  9
$PELEVATION
 40
0
  9
$THICKNESS
 40
0
  9
$LIMCHECK
 70
    0
  9
$CHAMFERA
 40
0
  9
$CHAMFERB
 40
0
  9
$CHAMFERC
 40
0
  9
$CHAMFERD
 40
0
  9
$SKPOLY
 70
    0
  9
$USRTIMER
 70
    1
  9
$ANGBASE
 50
0
  9
$ANGDIR
 70
    0
  9
$PDMODE
 70
   34
  9
$PDSIZE
 40
0
  9
$PLINEWID
 40
0
  9
$SPLFRAME
 70
    0
  9
$SPLINETYPE
 70
    2
  9
$SPLINESEGS
 70
    8
  9
$HANDSEED
  5
20000
  9
$SURFTAB1
 70
    6
  9
$SURFTAB2
 70
    6
  9
$SURFTYPE
 70
    6
  9
$SURFU
 70
    6
  9
$SURFV
 70
    6
  9
$UCSBASE
  2

  9
$UCSNAME
  2

  9
$UCSORG
 10
0
 20
0
 30
0
  9
$UCSXDIR
 10
1
 20
0
 30
0
  9
$UCSYDIR
 10
0
 20
1
 30
0
  9
$UCSORTHOREF
  2

  9
$UCSORTHOVIEW
 70
    0
  9
$UCSORGTOP
 10
0
 20
0
 30
0
  9
$UCSORGBOTTOM
 10
0
 20
0
 30
0
  9
$UCSORGLEFT
 10
0
 20
0
 30
0
  9
$UCSORGRIGHT
 10
0
 20
0
 30
0
  9
$UCSORGFRONT
 10
0
 20
0
 30
0
  9
$UCSORGBACK
 10
0
 20
0
 30
0
  9
$PUCSBASE
  2

  9
$PUCSNAME
  2

  9
$PUCSORG
 10
0
 20
0
 30
0
  9
$PUCSXDIR
 10
1
 20
0
 30
0
  9
$PUCSYDIR
 10
0
 20
1
 30
0
  9
$PUCSORTHOREF
  2

  9
$PUCSORTHOVIEW
 70
    0
  9
$PUCSORGTOP
 10
0
 20
0
 30
0
  9
$PUCSORGBOTTOM
 10
0
 20
0
 30
0
  9
$PUCSORGLEFT
 10
0
 20
0
 30
0
  9
$PUCSORGRIGHT
 10
0
 20
0
 30
0
  9
$PUCSORGFRONT
 10
0
 20
0
 30
0
  9
$PUCSORGBACK
 10
0
 20
0
 30
0
  9
$USERI1
 70
    0
  9
$USERI2
 70
    0
  9
$USERI3
 70
    0
  9
$USERI4
 70
    0
  9
$USERI5
 70
    0
  9
$USERR1
 40
0
  9
$USERR2
 40
0
  9
$USERR3
 40
0
  9
$USERR4
 40
0
  9
$USERR5
 40
0
  9
$WORLDVIEW
 70
    1
  9
$SHADEDGE
 70
    3
  9
$SHADEDIF
 70
   70
  9
$TILEMODE
 70
    1
  9
$MAXACTVP
 70
   64
  9
$PINSBASE
 10
110.8350253807106
 20
144.1159052453465
 30
0
  9
$PLIMCHECK
 70
    0
  9
$PEXTMIN
 10
0
 20
0
 30
0
  9
$PEXTMAX
 10
0
 20
0
 30
0
  9
$GRIDMODE
 70
    1
  9
$SNAPSTYLE
 70
    1
  9
$GRIDUNIT
 10
0
 20
0
  9
$PLIMMIN
 10
0
 20
0
  9
$PLIMMAX
 10
297
 20
210
  9
$UNITMODE
 70
    0
  9
$VISRETAIN
 70
    1
  9
$PLINEGEN
 70
    0
  9
$PSLTSCALE
 70
    1
  9
$TREEDEPTH
 70
 3020
  9
$CMLSTYLE
  2
Standard
  9
$CMLJUST
 70
    0
  9
$CMLSCALE
 40
20
  9
$PROXYGRAPHICS
 70
    1
  9
$MEASUREMENT
 70
    1
  9
$CELWEIGHT
370
   -1
  9
$ENDCAPS
280
    0
  9
$JOINSTYLE
280
    0
  9
$LWDISPLAY
290
    0
  9
$INSUNITS
 70
    0
  9
$HYPERLINKBASE
  1

  9
$STYLESHEET
  1

  9
$XEDIT
290
    1
  9
$CEPSNTYPE
380
    0
  9
$PSTYLEMODE
290
    1
  9
$EXTNAMES
290
    1
  9
$PSVPSCALE
 40
1.166666666666667
  9
$OLESTARTUP
290
    0
  9
$SORTENTS
280
  127
  9
$INDEXCTL
280
    0
  9
$HIDETEXT
280
    1
  9
$XCLIPFRAME
290
    0
  9
$HALOGAP
280
    0
  9
$OBSCOLOR
 70
  257
  9
$OBSLTYPE
280
    0
  9
$INTERSECTIONDISPLAY
280
    0
  9
$INTERSECTIONCOLOR
 70
  257
  9
$DIMASSOC
280
    1
  9
$PROJECTNAME
  1

  9
$CAMERADISPLAY
290
    0
  9
$LENSLENGTH
 40
50
  9
$CAMERAHEIGHT
 40
0
  9
$STEPSPERSEC
 40
2
  9
$STEPSIZE
 40
50
  9
$3DDWFPREC
 40
2
  9
$PSOLWIDTH
 40
5
  9
$PSOLHEIGHT
 40
80
  9
$LOFTANG1
 40
1.570796326794897
  9
$LOFTANG2
 40
1.570796326794897
  9
$LOFTMAG1
 40
0
  9
$LOFTMAG2
 40
0
  9
$LOFTPARAM
 70
    7
  9
$LOFTNORMALS
280
    1
  9
$LATITUDE
 40
1
  9
$LONGITUDE
 40
1
  9
$NORTHDIRECTION
 40
0
  9
$TIMEZONE
 70
-8000
  9
$LIGHTGLYPHDISPLAY
280
    1
  9
$TILEMODELIGHTSYNCH
280
    1
  9
$SOLIDHIST
280
    1
  9
$SHOWHIST
280
    1
  9
$DWFFRAME
280
    2
  9
$DGNFRAME
280
    0
  9
$REALWORLDSCALE
290
    1
  9
$INTERFERECOLOR
 62
    1
  9
$CSHADOW
280
    0
  9
$SHADOWPLANELOCATION
 40
0
  0
ENDSEC
  0
SECTION
  2
CLASSES
  0
ENDSEC
  0
SECTION
  2
TABLES
  0
TABLE
  2
VPORT
  5
8
330
0
100
AcDbSymbolTable
 70
    1
  0
VPORT
  5
31
330
2
100
AcDbSymbolTableRecord
100
AcDbViewportTableRecord
  2
*ACTIVE
 70
    0
 10
0
 20
0
 11
1
 21
1
 12
124.4947735191638
 22
34.18118466898954
 13
0
 23
0
 14
10
 24
10
 15
10
 25
10
 16
0
 26
0
 36
1
 17
0
 27
0
 37
0
 40
186.2717770034843
 41
2.673400673400673
 42
50
 43
0
 44
0
 50
0
 51
0
 71
    0
 72
  100
 73
    1
 74
    3
 75
    0
 76
    1
 77
    1
 78
    0
281
    0
 65
    1
110
0
120
0
130
0
111
1
121
0
131
0
112
0
122
1
132
0
 79
    0
146
0
348
10020
 60
    7
 61
    5
292
1
282
    1
141
0
142
0
 63
  250
421
3358443
  0
ENDTAB
  0
TABLE
  2
LTYPE
  5
5
330
0
100
AcDbSymbolTable
 70
    4
  0
LTYPE
  5
14
330
5
100
AcDbSymbolTableRecord
100
AcDbLinetypeTableRecord
  2
ByBlock
 70
    0
  3

 72
   65
 73
    0
 40
0
  0
LTYPE
  5
15
330
5
100
AcDbSymbolTableRecord
100
AcDbLinetypeTableRecord
  2
ByLayer
 70
    0
  3

 72
   65
 73
    0
 40
0
  0
LTYPE
  5
16
330
5
100
AcDbSymbolTableRecord
100
AcDbLinetypeTableRecord
  2
Continuous
 70
    0
  3
Solid line
 72
   65
 73
    0
 40
0
  0
LTYPE
  5
32
330
5
100
AcDbSymbolTableRecord
100
AcDbLinetypeTableRecord
  2
DOT
 70
    0
  3
Dot . . . . . . . . . . . . . . . . . . . . . .
 72
   65
 73
    2
 40
6.35
 49
0
 74
    0
 49
-6.35
 74
    0
  0
LTYPE
  5
33
330
5
100
AcDbSymbolTableRecord
100
AcDbLinetypeTableRecord
  2
DOTTINY
 70
    0
  3
Dot (.15x) .....................................
 72
   65
 73
    2
 40
0.9525
 49
0
 74
    0
 49
-0.9525
 74
    0
  0
LTYPE
  5
34
330
5
100
AcDbSymbolTableRecord
100
AcDbLinetypeTableRecord
  2
DOT2
 70
    0
  3
Dot (.5x) .....................................
 72
   65
 73
    2
 40
3.175
 49
0
 74
    0
 49
-3.175
 74
    0
  0
LTYPE
  5
35
330
5
100
AcDbSymbolTableRecord
100
AcDbLinetypeTableRecord
  2
DOTX2
 70
    0
  3
Dot (2x) .  .  .  .  .  .  .  .  .  .  .  .  .
 72
   65
 73
    2
 40
12.7
 49
0
 74
    0
 49
-12.7
 74
    0
  0
LTYPE
  5
36
330
5
100
AcDbSymbolTableRecord
100
AcDbLinetypeTableRecord
  2
DASHED
 70
    0
  3
Dashed _ _ _ _ _ _ _ _ _ _ _ _ _ _ _ _ _
 72
   65
 73
    2
 40
19.05
 49
12.7
 74
    0
 49
-6.35
 74
    0
  0
LTYPE
  5
37
330
5
100
AcDbSymbolTableRecord
100
AcDbLinetypeTableRecord
  2
DASHEDTINY
 70
    0
  3
Dashed (.15x) _ _ _ _ _ _ _ _ _ _ _ _ _ _ _ _ _
 72
   65
 73
    2
 40
2.8575
 49
1.905
 74
    0
 49
-0.9525
 74
    0
  0
LTYPE
  5
38
330
5
100
AcDbSymbolTableRecord
100
AcDbLinetypeTableRecord
  2
DASHED2
 70
    0
  3
Dashed (.5x) _ _ _ _ _ _ _ _ _ _ _ _ _ _ _ _ _
 72
   65
 73
    2
 40
9.524999999999999
 49
6.35
 74
    0
 49
-3.175
 74
    0
  0
LTYPE
  5
39
330
5
100
AcDbSymbolTableRecord
100
AcDbLinetypeTableRecord
  2
DASHEDX2
 70
    0
  3
Dashed (2x) ____  ____  ____  ____  ____  ___
 72
   65
 73
    2
 40
38.09999999999999
 49
25.4
 74
    0
 49
-12.7
 74
    0
  0
LTYPE
  5
3A
330
5
100
AcDbSymbolTableRecord
100
AcDbLinetypeTableRecord
  2
DASHDOT
 70
    0
  3
Dash dot __ . __ . __ . __ . __ . __ . __ . __
 72
   65
 73
    4
 40
25.4
 49
12.7
 74
    0
 49
-6.35
 74
    0
 49
0
 74
    0
 49
-6.35
 74
    0
  0
LTYPE
  5
3B
330
5
100
AcDbSymbolTableRecord
100
AcDbLinetypeTableRecord
  2
DASHDOTTINY
 70
    0
  3
Dash dot (.15x) _._._._._._._._._._._._._._._.
 72
   65
 73
    4
 40
3.81
 49
1.905
 74
    0
 49
-0.9525
 74
    0
 49
0
 74
    0
 49
-0.9525
 74
    0
  0
LTYPE
  5
3C
330
5
100
AcDbSymbolTableRecord
100
AcDbLinetypeTableRecord
  2
DASHDOT2
 70
    0
  3
Dash dot (.5x) _._._._._._._._._._._._._._._.
 72
   65
 73
    4
 40
12.7
 49
6.35
 74
    0
 49
-3.175
 74
    0
 49
0
 74
    0
 49
-3.175
 74
    0
  0
LTYPE
  5
3D
330
5
100
AcDbSymbolTableRecord
100
AcDbLinetypeTableRecord
  2
DASHDOTX2
 70
    0
  3
Dash dot (2x) ____  .  ____  .  ____  .  ___
 72
   65
 73
    4
 40
50.8
 49
25.4
 74
    0
 49
-12.7
 74
    0
 49
0
 74
    0
 49
-12.7
 74
    0
  0
LTYPE
  5
3E
330
5
100
AcDbSymbolTableRecord
100
AcDbLinetypeTableRecord
  2
DIVIDE
 70
    0
  3
Divide ____ . . ____ . . ____ . . ____ . . ____
 72
   65
 73
    6
 40
31.75
 49
12.7
 74
    0
 49
-6.35
 74
    0
 49
0
 74
    0
 49
-6.35
 74
    0
 49
0
 74
    0
 49
-6.35
 74
    0
  0
LTYPE
  5
3F
330
5
100
AcDbSymbolTableRecord
100
AcDbLinetypeTableRecord
  2
DIVIDETINY
 70
    0
  3
Divide (.15x) __..__..__..__..__..__..__..__.._
 72
   65
 73
    6
 40
4.7625
 49
1.905
 74
    0
 49
-0.9525
 74
    0
 49
0
 74
    0
 49
-0.9525
 74
    0
 49
0
 74
    0
 49
-0.9525
 74
    0
  0
LTYPE
  5
40
330
5
100
AcDbSymbolTableRecord
100
AcDbLinetypeTableRecord
  2
DIVIDE2
 70
    0
  3
Divide (.5x) __..__..__..__..__..__..__..__.._
 72
   65
 73
    6
 40
15.875
 49
6.35
 74
    0
 49
-3.175
 74
    0
 49
0
 74
    0
 49
-3.175
 74
    0
 49
0
 74
    0
 49
-3.175
 74
    0
  0
LTYPE
  5
41
330
5
100
AcDbSymbolTableRecord
100
AcDbLinetypeTableRecord
  2
DIVIDEX2
 70
    0
  3
Divide (2x) ________  .  .  ________  .  .  _
 72
   65
 73
    6
 40
63.5
 49
25.4
 74
    0
 49
-12.7
 74
    0
 49
0
 74
    0
 49
-12.7
 74
    0
 49
0
 74
    0
 49
-12.7
 74
    0
  0
LTYPE
  5
42
330
5
100
AcDbSymbolTableRecord
100
AcDbLinetypeTableRecord
  2
BORDER
 70
    0
  3
Border __ __ . __ __ . __ __ . __ __ . __ __ .
 72
   65
 73
    6
 40
44.45
 49
12.7
 74
    0
 49
-6.35
 74
    0
 49
12.7
 74
    0
 49
-6.35
 74
    0
 49
0
 74
    0
 49
-6.35
 74
    0
  0
LTYPE
  5
43
330
5
100
AcDbSymbolTableRecord
100
AcDbLinetypeTableRecord
  2
BORDERTINY
 70
    0
  3
Border (.15x) __.__.__.__.__.__.__.__.__.__.__.
 72
   65
 73
    6
 40
6.6675
 49
1.905
 74
    0
 49
-0.9525
 74
    0
 49
1.905
 74
    0
 49
-0.9525
 74
    0
 49
0
 74
    0
 49
-0.9525
 74
    0
  0
LTYPE
  5
44
330
5
100
AcDbSymbolTableRecord
100
AcDbLinetypeTableRecord
  2
BORDER2
 70
    0
  3
Border (.5x) __.__.__.__.__.__.__.__.__.__.__.
 72
   65
 73
    6
 40
22.225
 49
6.35
 74
    0
 49
-3.175
 74
    0
 49
6.35
 74
    0
 49
-3.175
 74
    0
 49
0
 74
    0
 49
-3.175
 74
    0
  0
LTYPE
  5
45
330
5
100
AcDbSymbolTableRecord
100
AcDbLinetypeTableRecord
  2
BORDERX2
 70
    0
  3
Border (2x) ____  ____  .  ____  ____  .  ___
 72
   65
 73
    6
 40
88.89999999999999
 49
25.4
 74
    0
 49
-12.7
 74
    0
 49
25.4
 74
    0
 49
-12.7
 74
    0
 49
0
 74
    0
 49
-12.7
 74
    0
  0
LTYPE
  5
46
330
5
100
AcDbSymbolTableRecord
100
AcDbLinetypeTableRecord
  2
CENTER
 70
    0
  3
Center ____ _ ____ _ ____ _ ____ _ ____ _ ____
 72
   65
 73
    4
 40
50.8
 49
31.75
 74
    0
 49
-6.35
 74
    0
 49
6.35
 74
    0
 49
-6.35
 74
    0
  0
LTYPE
  5
47
330
5
100
AcDbSymbolTableRecord
100
AcDbLinetypeTableRecord
  2
CENTERTINY
 70
    0
  3
Center (.15x) ___ _ ___ _ ___ _ ___ _ ___ _ ___
 72
   65
 73
    4
 40
7.619999999999999
 49
4.7625
 74
    0
 49
-0.9525
 74
    0
 49
0.9525
 74
    0
 49
-0.9525
 74
    0
  0
LTYPE
  5
48
330
5
100
AcDbSymbolTableRecord
100
AcDbLinetypeTableRecord
  2
CENTER2
 70
    0
  3
Center (.5x) ___ _ ___ _ ___ _ ___ _ ___ _ ___
 72
   65
 73
    4
 40
28.575
 49
19.05
 74
    0
 49
-3.175
 74
    0
 49
3.175
 74
    0
 49
-3.175
 74
    0
  0
LTYPE
  5
49
330
5
100
AcDbSymbolTableRecord
100
AcDbLinetypeTableRecord
  2
CENTERX2
 70
    0
  3
Center (2x) ________  __  ________  __  _____
 72
   65
 73
    4
 40
101.6
 49
63.5
 74
    0
 49
-12.7
 74
    0
 49
12.7
 74
    0
 49
-12.7
 74
    0
  0
ENDTAB
  0
TABLE
  2
LAYER
  5
2
330
0
100
AcDbSymbolTable
 70
    1
  0
LAYER
  5
10
330
2
100
AcDbSymbolTableRecord
100
AcDbLayerTableRecord
  2
0
 70
    0
 62
    7
  6
CONTINUOUS
370
    0
390
F
  0
LAYER
  5
4A
330
2
100
AcDbSymbolTableRecord
100
AcDbLayerTableRecord
  2
Black
 70
    0
 62
    7
420
131586
  6
CONTINUOUS
370
    0
390
F
  0
LAYER
  5
4B
330
2
100
AcDbSymbolTableRecord
100
AcDbLayerTableRecord
  2
Red
 70
    0
 62
    1
  6
CONTINUOUS
370
    0
390
F
  0
LAYER
  5
4C
330
2
100
AcDbSymbolTableRecord
100
AcDbLayerTableRecord
  2
White
 70
    0
 62
  255
420
16711422
  6
CONTINUOUS
370
    0
390
F
  0
ENDTAB
  0
TABLE
  2
STYLE
  5
3
330
0
100
AcDbSymbolTable
 70
    3
  0
STYLE
  5
4D
330
2
100
AcDbSymbolTableRecord
100
AcDbTextStyleTableRecord
  2
unicode
 70
    0
 40
0
 41
1
 50
0
 71
    0
 42
1
  3
unicode
  4

  0
STYLE
  5
4E
330
2
100
AcDbSymbolTableRecord
100
AcDbTextStyleTableRecord
  2
Standard
 70
    0
 40
0
 41
1
 50
0
 71
    0
 42
1
  3
txt
  4

  0
ENDTAB
  0
TABLE
  2
VIEW
  5
6
330
0
100
AcDbSymbolTable
 70
    0
  0
ENDTAB
  0
TABLE
  2
UCS
  5
7
330
0
100
AcDbSymbolTable
 70
    0
  0
ENDTAB
  0
TABLE
  2
APPID
  5
9
330
0
100
AcDbSymbolTable
 70
    1
  0
APPID
  5
12
330
9
100
AcDbSymbolTableRecord
100
AcDbRegAppTableRecord
  2
ACAD
 70
    0
  0
APPID
  5
4F
330
9
100
AcDbSymbolTableRecord
100
AcDbRegAppTableRecord
  2
LibreCad
 70
    0
  0
ENDTAB
  0
TABLE
  2
DIMSTYLE
  5
A
330
0
100
AcDbSymbolTable
 70
    1
100
AcDbDimStyleTable
 71
    1
  0
DIMSTYLE
105
50
330
A
100
AcDbSymbolTableRecord
100
AcDbDimStyleTableRecord
  2
Standard
 70
    0
 40
1
 41
2.5
 42
0.625
 43
0.38
 44
1.25
 45
0
 46
0
 47
0
 48
0
 49
1
140
2.5
141
0.09
142
0
143
25.4
144
1
145
0
146
1
147
0.625
148
0
 71
    0
 72
    0
 73
    0
 74
    1
 75
    0
 76
    0
 77
    0
 78
    1
 79
    0
170
    0
171
    2
172
    0
173
    0
174
    0
175
    0
176
    0
177
    0
178
    0
179
    2
271
    4
272
    4
273
    2
274
    2
275
    0
276
    0
277
    2
278
    0
279
    0
280
    0
281
    0
282
    0
283
    1
284
    0
285
    0
286
    0
288
    0
289
    3
340
4E
  0
ENDTAB
  0
TABLE
  2
BLOCK_RECORD
  5
1
330
0
100
AcDbSymbolTable
 70
    2
  0
BLOCK_RECORD
  5
1F
330
1
100
AcDbSymbolTableRecord
100
AcDbBlockTableRecord
  2
*Model_Space
 70
    0
280
    1
281
    0
  0
BLOCK_RECORD
  5
1E
330
1
100
AcDbSymbolTableRecord
100
AcDbBlockTableRecord
  2
*Paper_Space
 70
    0
280
    1
281
    0
  0
ENDTAB
  0
ENDSEC
  0
SECTION
  2
BLOCKS
  0
BLOCK
  5
20
330
1F
100
AcDbEntity
  8
0
100
AcDbBlockBegin
  2
*Model_Space
 70
    0
 10
0
 20
0
 30
0
  3
*Model_Space
  1

  0
ENDBLK
  5
21
330
1F
100
AcDbEntity
  8
0
100
AcDbBlockEnd
  0
BLOCK
  5
1C
330
1B
100
AcDbEntity
  8
0
100
AcDbBlockBegin
  2
*Paper_Space
 70
    0
 10
0
 20
0
 30
0
  3
*Paper_Space
  1

  0
ENDBLK
  5
1D
330
1F
100
AcDbEntity
  8
0
100
AcDbBlockEnd
  0
ENDSEC
  0
SECTION
  2
ENTITIES
  0
HATCH
  5
51
100
AcDbEntity
  8
Black
  6
ByLayer
 62
  256
370
   -1
100
AcDbHatch
 10
0
 20
0
 30
0
210
0
220
0
230
1
  2
SOLID
 70
    1
 71
    0
 91
    1
 92
    0
 93
   18
 72
    1
 10
123.5
 20
-15
 11
-123.5
 21
-15
 72
    1
 10
-123.5
 20
-15
 11
-123.5
 21
65
 72
    1
 10
-123.5
 20
65
 11
-24.7
 21
65
 72
    1
 10
-24.7
 20
65
 11
-24.7
 21
55
 72
    1
 10
-24.7
 20
55
 11
123.5
 21
55
 72
    1
 10
123.5
 20
55
 11
123.5
 21
45
 72
    1
 10
123.5
 20
45
 11
-24.7
 21
45
 72
    1
 10
-24.7
 20
45
 11
-24.7
 21
35
 72
    1
 10
-24.7
 20
35
 11
123.5
 21
35
 72
    1
 10
123.5
 20
35
 11
123.5
 21
25
 72
    1
 10
123.5
 20
25
 11
-24.7
 21
25
 72
    1
 10
-24.7
 20
25
 11
-24.7
 21
15
 72
    1
 10
-24.7
 20
15
 11
123.5
 21
15
 72
    1
 10
123.5
 20
15
 11
123.5
 21
5
 72
    1
 10
123.5
 20
5
 11
-24.7
 21
5
 72
    1
 10
-24.7
 20
5
 11
-24.7
 21
-5
 72
    1
 10
-24.7
 20
-5
 11
123.5
 21
-5
 72
    1
 10
123.5
 20
-5
 11
123.5
 21
-15
 97
    0
 75
    0
 76
    1
 98
    0
  0
HATCH
  5
52
100
AcDbEntity
  8
Black
  6
ByLayer
 62
  256
370
   -1
100
AcDbHatch
 10
0
 20
0
 30
0
210
0
220
0
230
1
  2
SOLID
 70
    1
 71
    0
 91
    1
 92
    0
 93
    4
 72
    1
 10
123.5
 20
-35
 11
-123.5
 21
-35
 72
    1
 10
-123.5
 20
-35
 11
-123.5
 21
-25
 72
    1
 10
-123.5
 20
-25
 11
123.5
 21
-25
 72
    1
 10
123.5
 20
-25
 11
123.5
 21
-35
 97
    0
 75
    0
 76
    1
 98
    0
  0
HATCH
  5
53
100
AcDbEntity
  8
Black
  6
ByLayer
 62
  256
370
   -1
100
AcDbHatch
 10
0
 20
0
 30
0
210
0
220
0
230
1
  2
SOLID
 70
    1
 71
    0
 91
    1
 92
    0
 93
    4
 72
    1
 10
123.5
 20
-55
 11
-123.5
 21
-55
 72
    1
 10
-123.5
 20
-55
 11
-123.5
 21
-45
 72
    1
 10
-123.5
 20
-45
 11
123.5
 21
-45
 72
    1
 10
123.5
 20
-45
 11
123.5
 21
-55
 97
    0
 75
    0
 76
    1
 98
    0
  0
HATCH
  5
54
100
AcDbEntity
  8
Red
  6
ByLayer
 62
  256
370
   -1
100
AcDbHatch
 10
0
 20
0
 30
0
210
0
220
0
230
1
  2
SOLID
 70
    1
 71
    0
 91
    1
 92
    0
 93
   10
 72
    1
 10
-32.20194404684131
 20
3.236067977500277
 11
-33.10000000000009
 21
5.999999999999218
 72
    1
 10
-33.10000000000009
 20
5.999999999999218
 11
-33.9980559531591
 21
3.236067977500042
 72
    1
 10
-33.9980559531591
 20
3.236067977500042
 11
-36.9042260651825
 21
3.236067977500042
 72
    1
 10
-36.9042260651825
 20
3.236067977500042
 11
-34.5530850560112
 21
1.527864045000513
 72
    1
 10
-34.5530850560112
 20
1.527864045000513
 11
-35.4511410091703
 21
-1.236067977500213
 72
    1
 10
-35.4511410091703
 20
-1.236067977500213
 11
-33.09999999999989
 21
0.4721359549994375
 72
    1
 10
-33.09999999999989
 20
0.4721359549994375
 11
-30.7488589908298
 21
-1.236067977499893
 72
    1
 10
-30.7488589908298
 20
-1.236067977499893
 11
-31.6469149439893
 21
1.527864045000207
 72
    1
 10
-31.6469149439893
 20
1.527864045000207
 11
-29.2957739348178
 21
3.236067977500682
 72
    1
 10
-29.2957739348178
 20
3.236067977500682
 11
-32.20194404684131
 21
3.236067977500277
 97
    0
 75
    0
 76
    1
 98
    0
  0
HATCH
  5
55
100
AcDbEntity
  8
Red
  6
ByLayer
 62
  256
370
   -1
100
AcDbHatch
 10
0
 20
0
 30
0
210
0
220
0
230
1
  2
SOLID
 70
    1
 71
    0
 91
    1
 92
    0
 93
   10
 72
    1
 10
-48.60194404684132
 20
3.236067977500188
 11
-49.50000000000009
 21
5.99999999999913
 72
    1
 10
-49.50000000000009
 20
5.99999999999913
 11
-50.39805595315911
 21
3.236067977499953
 72
    1
 10
-50.39805595315911
 20
3.236067977499953
 11
-53.3042260651825
 21
3.236067977499953
 72
    1
 10
-53.3042260651825
 20
3.236067977499953
 11
-50.9530850560112
 21
1.527864045000424
 72
    1
 10
-50.9530850560112
 20
1.527864045000424
 11
-51.85114100917031
 21
-1.236067977500302
 72
    1
 10
-51.85114100917031
 20
-1.236067977500302
 11
-49.49999999999989
 21
0.4721359549993487
 72
    1
 10
-49.49999999999989
 20
0.4721359549993487
 11
-47.14885899082981
 21
-1.236067977499982
 72
    1
 10
-47.14885899082981
 20
-1.236067977499982
 11
-48.04691494398931
 21
1.527864045000118
 72
    1
 10
-48.04691494398931
 20
1.527864045000118
 11
-45.69577393481781
 21
3.236067977500593
 72
    1
 10
-45.69577393481781
 20
3.236067977500593
 11
-48.60194404684132
 21
3.236067977500188
 97
    0
 75
    0
 76
    1
 98
    0
  0
HATCH
  5
56
100
AcDbEntity
  8
Red
  6
ByLayer
 62
  256
370
   -1
100
AcDbHatch
 10
0
 20
0
 30
0
210
0
220
0
230
1
  2
SOLID
 70
    1
 71
    0
 91
    1
 92
    0
 93
   10
 72
    1
 10
-65.00194404684132
 20
3.236067977500099
 11
-65.90000000000009
 21
5.999999999999041
 72
    1
 10
-65.90000000000009
 20
5.999999999999041
 11
-66.79805595315912
 21
3.236067977499864
 72
    1
 10
-66.79805595315912
 20
3.236067977499864
 11
-69.70422606518251
 21
3.236067977499864
 72
    1
 10
-69.70422606518251
 20
3.236067977499864
 11
-67.35308505601121
 21
1.527864045000335
 72
    1
 10
-67.35308505601121
 20
1.527864045000335
 11
-68.25114100917031
 21
-1.236067977500391
 72
    1
 10
-68.25114100917031
 20
-1.236067977500391
 11
-65.89999999999989
 21
0.4721359549992599
 72
    1
 10
-65.89999999999989
 20
0.4721359549992599
 11
-63.54885899082981
 21
-1.236067977500071
 72
    1
 10
-63.54885899082981
 20
-1.236067977500071
 11
-64.44691494398931
 21
1.527864045000029
 72
    1
 10
-64.44691494398931
 20
1.527864045000029
 11
-62.09577393481781
 21
3.236067977500504
 72
    1
 10
-62.09577393481781
 20
3.236067977500504
 11
-65.00194404684132
 21
3.236067977500099
 97
    0
 75
    0
 76
    1
 98
    0
  0
HATCH
  5
57
100
AcDbEntity
  8
Red
  6
ByLayer
 62
  256
370
   -1
100
AcDbHatch
 10
0
 20
0
 30
0
210
0
220
0
230
1
  2
SOLID
 70
    1
 71
    0
 91
    1
 92
    0
 93
   10
 72
    1
 10
-81.40194404684132
 20
3.236067977500011
 11
-82.3000000000001
 21
5.999999999998952
 72
    1
 10
-82.3000000000001
 20
5.999999999998952
 11
-83.19805595315913
 21
3.236067977499776
 72
    1
 10
-83.19805595315913
 20
3.236067977499776
 11
-86.10422606518252
 21
3.236067977499776
 72
    1
 10
-86.10422606518252
 20
3.236067977499776
 11
-83.75308505601122
 21
1.527864045000247
 72
    1
 10
-83.75308505601122
 20
1.527864045000247
 11
-84.65114100917032
 21
-1.236067977500479
 72
    1
 10
-84.65114100917032
 20
-1.236067977500479
 11
-82.2999999999999
 21
0.472135954999171
 72
    1
 10
-82.2999999999999
 20
0.472135954999171
 11
-79.94885899082982
 21
-1.23606797750016
 72
    1
 10
-79.94885899082982
 20
-1.23606797750016
 11
-80.84691494398932
 21
1.527864044999941
 72
    1
 10
-80.84691494398932
 20
1.527864044999941
 11
-78.49577393481782
 21
3.236067977500416
 72
    1
 10
-78.49577393481782
 20
3.236067977500416
 11
-81.40194404684132
 21
3.236067977500011
 97
    0
 75
    0
 76
    1
 98
    0
  0
HATCH
  5
58
100
AcDbEntity
  8
Red
  6
ByLayer
 62
  256
370
   -1
100
AcDbHatch
 10
0
 20
0
 30
0
210
0
220
0
230
1
  2
SOLID
 70
    1
 71
    0
 91
    1
 92
    0
 93
   10
 72
    1
 10
-97.80194404684133
 20
3.236067977499922
 11
-98.7000000000001
 21
5.999999999998863
 72
    1
 10
-98.7000000000001
 20
5.999999999998863
 11
-99.59805595315913
 21
3.236067977499687
 72
    1
 10
-99.59805595315913
 20
3.236067977499687
 11
-102.5042260651825
 21
3.236067977499687
 72
    1
 10
-102.5042260651825
 20
3.236067977499687
 11
-100.1530850560112
 21
1.527864045000158
 72
    1
 10
-100.1530850560112
 20
1.527864045000158
 11
-101.0511410091703
 21
-1.236067977500568
 72
    1
 10
-101.0511410091703
 20
-1.236067977500568
 11
-98.6999999999999
 21
0.4721359549990822
 72
    1
 10
-98.6999999999999
 20
0.4721359549990822
 11
-96.34885899082983
 21
-1.236067977500248
 72
    1
 10
-96.34885899082983
 20
-1.236067977500248
 11
-97.24691494398932
 21
1.527864044999852
 72
    1
 10
-97.24691494398932
 20
1.527864044999852
 11
-94.89577393481783
 21
3.236067977500327
 72
    1
 10
-94.89577393481783
 20
3.236067977500327
 11
-97.80194404684133
 21
3.236067977499922
 97
    0
 75
    0
 76
    1
 98
    0
  0
HATCH
  5
59
100
AcDbEntity
  8
Red
  6
ByLayer
 62
  256
370
   -1
100
AcDbHatch
 10
0
 20
0
 30
0
210
0
220
0
230
1
  2
SOLID
 70
    1
 71
    0
 91
    1
 92
    0
 93
   10
 72
    1
 10
-114.2019440468413
 20
3.236067977499833
 11
-115.1000000000001
 21
5.999999999998774
 72
    1
 10
-115.1000000000001
 20
5.999999999998774
 11
-115.9980559531591
 21
3.236067977499598
 72
    1
 10
-115.9980559531591
 20
3.236067977499598
 11
-118.9042260651825
 21
3.236067977499598
 72
    1
 10
-118.9042260651825
 20
3.236067977499598
 11
-116.5530850560112
 21
1.527864045000069
 72
    1
 10
-116.5530850560112
 20
1.527864045000069
 11
-117.4511410091703
 21
-1.236067977500657
 72
    1
 10
-117.4511410091703
 20
-1.236067977500657
 11
-115.0999999999999
 21
0.4721359549989934
 72
    1
 10
-115.0999999999999
 20
0.4721359549989934
 11
-112.7488589908298
 21
-1.236067977500337
 72
    1
 10
-112.7488589908298
 20
-1.236067977500337
 11
-113.6469149439893
 21
1.527864044999763
 72
    1
 10
-113.6469149439893
 20
1.527864044999763
 11
-111.2957739348178
 21
3.236067977500238
 72
    1
 10
-111.2957739348178
 20
3.236067977500238
 11
-114.2019440468413
 21
3.236067977499833
 97
    0
 75
    0
 76
    1
 98
    0
  0
HATCH
  5
5A
100
AcDbEntity
  8
Red
  6
ByLayer
 62
  256
370
   -1
100
AcDbHatch
 10
0
 20
0
 30
0
210
0
220
0
230
1
  2
SOLID
 70
    1
 71
    0
 91
    1
 92
    0
 93
   10
 72
    1
 10
-40.40194404684132
 20
10.23606797750018
 11
-41.30000000000009
 21
12.99999999999912
 72
    1
 10
-41.30000000000009
 20
12.99999999999912
 11
-42.19805595315911
 21
10.23606797749994
 72
    1
 10
-42.19805595315911
 20
10.23606797749994
 11
-45.1042260651825
 21
10.23606797749994
 72
    1
 10
-45.1042260651825
 20
10.23606797749994
 11
-42.7530850560112
 21
8.527864045000413
 72
    1
 10
-42.7530850560112
 20
8.527864045000413
 11
-43.6511410091703
 21
5.763932022499688
 72
    1
 10
-43.6511410091703
 20
5.763932022499688
 11
-41.29999999999989
 21
7.472135954999338
 72
    1
 10
-41.29999999999989
 20
7.472135954999338
 11
-38.94885899082981
 21
5.763932022500008
 72
    1
 10
-38.94885899082981
 20
5.763932022500008
 11
-39.8469149439893
 21
8.527864045000108
 72
    1
 10
-39.8469149439893
 20
8.527864045000108
 11
-37.49577393481781
 21
10.23606797750058
 72
    1
 10
-37.49577393481781
 20
10.23606797750058
 11
-40.40194404684132
 21
10.23606797750018
 97
    0
 75
    0
 76
    1
 98
    0
  0
HATCH
  5
5B
100
AcDbEntity
  8
Red
  6
ByLayer
 62
  256
370
   -1
100
AcDbHatch
 10
0
 20
0
 30
0
210
0
220
0
230
1
  2
SOLID
 70
    1
 71
    0
 91
    1
 92
    0
 93
   10
 72
    1
 10
-56.80194404684132
 20
10.23606797750009
 11
-57.7000000000001
 21
12.99999999999903
 72
    1
 10
-57.7000000000001
 20
12.99999999999903
 11
-58.59805595315911
 21
10.23606797749985
 72
    1
 10
-58.59805595315911
 20
10.23606797749985
 11
-61.50422606518251
 21
10.23606797749985
 72
    1
 10
-61.50422606518251
 20
10.23606797749985
 11
-59.15308505601121
 21
8.527864045000324
 72
    1
 10
-59.15308505601121
 20
8.527864045000324
 11
-60.05114100917031
 21
5.763932022499599
 72
    1
 10
-60.05114100917031
 20
5.763932022499599
 11
-57.6999999999999
 21
7.472135954999249
 72
    1
 10
-57.6999999999999
 20
7.472135954999249
 11
-55.34885899082981
 21
5.763932022499919
 72
    1
 10
-55.34885899082981
 20
5.763932022499919
 11
-56.24691494398931
 21
8.527864045000019
 72
    1
 10
-56.24691494398931
 20
8.527864045000019
 11
-53.89577393481781
 21
10.23606797750049
 72
    1
 10
-53.89577393481781
 20
10.23606797750049
 11
-56.80194404684132
 21
10.23606797750009
 97
    0
 75
    0
 76
    1
 98
    0
  0
HATCH
  5
5C
100
AcDbEntity
  8
Red
  6
ByLayer
 62
  256
370
   -1
100
AcDbHatch
 10
0
 20
0
 30
0
210
0
220
0
230
1
  2
SOLID
 70
    1
 71
    0
 91
    1
 92
    0
 93
   10
 72
    1
 10
-73.20194404684133
 20
10.2360679775
 11
-74.10000000000011
 21
12.99999999999894
 72
    1
 10
-74.10000000000011
 20
12.99999999999894
 11
-74.99805595315911
 21
10.23606797749976
 72
    1
 10
-74.99805595315911
 20
10.23606797749976
 11
-77.90422606518251
 21
10.23606797749976
 72
    1
 10
-77.90422606518251
 20
10.23606797749976
 11
-75.55308505601121
 21
8.527864045000236
 72
    1
 10
-75.55308505601121
 20
8.527864045000236
 11
-76.45114100917031
 21
5.76393202249951
 72
    1
 10
-76.45114100917031
 20
5.76393202249951
 11
-74.09999999999991
 21
7.47213595499916
 72
    1
 10
-74.09999999999991
 20
7.47213595499916
 11
-71.74885899082982
 21
5.76393202249983
 72
    1
 10
-71.74885899082982
 20
5.76393202249983
 11
-72.64691494398932
 21
8.52786404499993
 72
    1
 10
-72.64691494398932
 20
8.52786404499993
 11
-70.29577393481782
 21
10.2360679775004
 72
    1
 10
-70.29577393481782
 20
10.2360679775004
 11
-73.20194404684133
 21
10.2360679775
 97
    0
 75
    0
 76
    1
 98
    0
  0
HATCH
  5
5D
100
AcDbEntity
  8
Red
  6
ByLayer
 62
  256
370
   -1
100
AcDbHatch
 10
0
 20
0
 30
0
210
0
220
0
230
1
  2
SOLID
 70
    1
 71
    0
 91
    1
 92
    0
 93
   10
 72
    1
 10
-89.60194404684134
 20
10.23606797749991
 11
-90.50000000000011
 21
12.99999999999885
 72
    1
 10
-90.50000000000011
 20
12.99999999999885
 11
-91.39805595315912
 21
10.23606797749968
 72
    1
 10
-91.39805595315912
 20
10.23606797749968
 11
-94.30422606518252
 21
10.23606797749968
 72
    1
 10
-94.30422606518252
 20
10.23606797749968
 11
-91.95308505601122
 21
8.527864045000147
 72
    1
 10
-91.95308505601122
 20
8.527864045000147
 11
-92.85114100917032
 21
5.763932022499421
 72
    1
 10
-92.85114100917032
 20
5.763932022499421
 11
-90.49999999999991
 21
7.472135954999072
 72
    1
 10
-90.49999999999991
 20
7.472135954999072
 11
-88.14885899082982
 21
5.763932022499741
 72
    1
 10
-88.14885899082982
 20
5.763932022499741
 11
-89.04691494398932
 21
8.527864044999841
 72
    1
 10
-89.04691494398932
 20
8.527864044999841
 11
-86.69577393481782
 21
10.23606797750032
 72
    1
 10
-86.69577393481782
 20
10.23606797750032
 11
-89.60194404684134
 21
10.23606797749991
 97
    0
 75
    0
 76
    1
 98
    0
  0
HATCH
  5
5E
100
AcDbEntity
  8
Red
  6
ByLayer
 62
  256
370
   -1
100
AcDbHatch
 10
0
 20
0
 30
0
210
0
220
0
230
1
  2
SOLID
 70
    1
 71
    0
 91
    1
 92
    0
 93
   10
 72
    1
 10
-106.0019440468413
 20
10.23606797749982
 11
-106.9000000000001
 21
12.99999999999876
 72
    1
 10
-106.9000000000001
 20
12.99999999999876
 11
-107.7980559531591
 21
10.23606797749959
 72
    1
 10
-107.7980559531591
 20
10.23606797749959
 11
-110.7042260651825
 21
10.23606797749959
 72
    1
 10
-110.7042260651825
 20
10.23606797749959
 11
-108.3530850560112
 21
8.527864045000058
 72
    1
 10
-108.3530850560112
 20
8.527864045000058
 11
-109.2511410091703
 21
5.763932022499333
 72
    1
 10
-109.2511410091703
 20
5.763932022499333
 11
-106.8999999999999
 21
7.472135954998983
 72
    1
 10
-106.8999999999999
 20
7.472135954998983
 11
-104.5488589908298
 21
5.763932022499652
 72
    1
 10
-104.5488589908298
 20
5.763932022499652
 11
-105.4469149439893
 21
8.527864044999752
 72
    1
 10
-105.4469149439893
 20
8.527864044999752
 11
-103.0957739348178
 21
10.23606797750023
 72
    1
 10
-103.0957739348178
 20
10.23606797750023
 11
-106.0019440468413
 21
10.23606797749982
 97
    0
 75
    0
 76
    1
 98
    0
  0
HATCH
  5
5F
100
AcDbEntity
  8
Red
  6
ByLayer
 62
  256
370
   -1
100
AcDbHatch
 10
0
 20
0
 30
0
210
0
220
0
230
1
  2
SOLID
 70
    1
 71
    0
 91
    1
 92
    0
 93
   10
 72
    1
 10
-114.2019440468413
 20
17.23606797749974
 11
-115.1000000000001
 21
19.99999999999869
 72
    1
 10
-115.1000000000001
 20
19.99999999999869
 11
-115.9980559531591
 21
17.23606797749951
 72
    1
 10
-115.9980559531591
 20
17.23606797749951
 11
-118.9042260651825
 21
17.23606797749951
 72
    1
 10
-118.9042260651825
 20
17.23606797749951
 11
-116.5530850560112
 21
15.52786404499998
 72
    1
 10
-116.5530850560112
 20
15.52786404499998
 11
-117.4511410091703
 21
12.76393202249925
 72
    1
 10
-117.4511410091703
 20
12.76393202249925
 11
-115.0999999999999
 21
14.4721359549989
 72
    1
 10
-115.0999999999999
 20
14.4721359549989
 11
-112.7488589908298
 21
12.76393202249957
 72
    1
 10
-112.7488589908298
 20
12.76393202249957
 11
-113.6469149439893
 21
15.52786404499967
 72
    1
 10
-113.6469149439893
 20
15.52786404499967
 11
-111.2957739348178
 21
17.23606797750015
 72
    1
 10
-111.2957739348178
 20
17.23606797750015
 11
-114.2019440468413
 21
17.23606797749974
 97
    0
 75
    0
 76
    1
 98
    0
  0
HATCH
  5
60
100
AcDbEntity
  8
Red
  6
ByLayer
 62
  256
370
   -1
100
AcDbHatch
 10
0
 20
0
 30
0
210
0
220
0
230
1
  2
SOLID
 70
    1
 71
    0
 91
    1
 92
    0
 93
   10
 72
    1
 10
-97.8019440468413
 20
17.23606797749983
 11
-98.70000000000007
 21
19.99999999999877
 72
    1
 10
-98.70000000000007
 20
19.99999999999877
 11
-99.5980559531591
 21
17.2360679774996
 72
    1
 10
-99.5980559531591
 20
17.2360679774996
 11
-102.5042260651825
 21
17.2360679774996
 72
    1
 10
-102.5042260651825
 20
17.2360679774996
 11
-100.1530850560112
 21
15.52786404500007
 72
    1
 10
-100.1530850560112
 20
15.52786404500007
 11
-101.0511410091703
 21
12.76393202249934
 72
    1
 10
-101.0511410091703
 20
12.76393202249934
 11
-98.69999999999987
 21
14.47213595499899
 72
    1
 10
-98.69999999999987
 20
14.47213595499899
 11
-96.3488589908298
 21
12.76393202249966
 72
    1
 10
-96.3488589908298
 20
12.76393202249966
 11
-97.2469149439893
 21
15.52786404499976
 72
    1
 10
-97.2469149439893
 20
15.52786404499976
 11
-94.8957739348178
 21
17.23606797750024
 72
    1
 10
-94.8957739348178
 20
17.23606797750024
 11
-97.8019440468413
 21
17.23606797749983
 97
    0
 75
    0
 76
    1
 98
    0
  0
HATCH
  5
61
100
AcDbEntity
  8
Red
  6
ByLayer
 62
  256
370
   -1
100
AcDbHatch
 10
0
 20
0
 30
0
210
0
220
0
230
1
  2
SOLID
 70
    1
 71
    0
 91
    1
 92
    0
 93
   10
 72
    1
 10
-81.40194404684129
 20
17.23606797749992
 11
-82.30000000000007
 21
19.99999999999886
 72
    1
 10
-82.30000000000007
 20
19.99999999999886
 11
-83.1980559531591
 21
17.23606797749969
 72
    1
 10
-83.1980559531591
 20
17.23606797749969
 11
-86.10422606518249
 21
17.23606797749969
 72
    1
 10
-86.10422606518249
 20
17.23606797749969
 11
-83.75308505601119
 21
15.52786404500016
 72
    1
 10
-83.75308505601119
 20
15.52786404500016
 11
-84.65114100917029
 21
12.76393202249943
 72
    1
 10
-84.65114100917029
 20
12.76393202249943
 11
-82.29999999999987
 21
14.47213595499908
 72
    1
 10
-82.29999999999987
 20
14.47213595499908
 11
-79.94885899082979
 21
12.76393202249975
 72
    1
 10
-79.94885899082979
 20
12.76393202249975
 11
-80.84691494398929
 21
15.52786404499985
 72
    1
 10
-80.84691494398929
 20
15.52786404499985
 11
-78.49577393481779
 21
17.23606797750033
 72
    1
 10
-78.49577393481779
 20
17.23606797750033
 11
-81.40194404684129
 21
17.23606797749992
 97
    0
 75
    0
 76
    1
 98
    0
  0
HATCH
  5
62
100
AcDbEntity
  8
Red
  6
ByLayer
 62
  256
370
   -1
100
AcDbHatch
 10
0
 20
0
 30
0
210
0
220
0
230
1
  2
SOLID
 70
    1
 71
    0
 91
    1
 92
    0
 93
   10
 72
    1
 10
-65.00194404684129
 20
17.23606797750001
 11
-65.90000000000006
 21
19.99999999999895
 72
    1
 10
-65.90000000000006
 20
19.99999999999895
 11
-66.79805595315909
 21
17.23606797749978
 72
    1
 10
-66.79805595315909
 20
17.23606797749978
 11
-69.70422606518248
 21
17.23606797749978
 72
    1
 10
-69.70422606518248
 20
17.23606797749978
 11
-67.35308505601118
 21
15.52786404500025
 72
    1
 10
-67.35308505601118
 20
15.52786404500025
 11
-68.25114100917028
 21
12.76393202249952
 72
    1
 10
-68.25114100917028
 20
12.76393202249952
 11
-65.89999999999986
 21
14.47213595499917
 72
    1
 10
-65.89999999999986
 20
14.47213595499917
 11
-63.54885899082979
 21
12.76393202249984
 72
    1
 10
-63.54885899082979
 20
12.76393202249984
 11
-64.44691494398928
 21
15.52786404499994
 72
    1
 10
-64.44691494398928
 20
15.52786404499994
 11
-62.09577393481779
 21
17.23606797750042
 72
    1
 10
-62.09577393481779
 20
17.23606797750042
 11
-65.00194404684129
 21
17.23606797750001
 97
    0
 75
    0
 76
    1
 98
    0
  0
HATCH
  5
63
100
AcDbEntity
  8
Red
  6
ByLayer
 62
  256
370
   -1
100
AcDbHatch
 10
0
 20
0
 30
0
210
0
220
0
230
1
  2
SOLID
 70
    1
 71
    0
 91
    1
 92
    0
 93
   10
 72
    1
 10
-48.60194404684129
 20
17.2360679775001
 11
-49.50000000000006
 21
19.99999999999904
 72
    1
 10
-49.50000000000006
 20
19.99999999999904
 11
-50.39805595315908
 21
17.23606797749986
 72
    1
 10
-50.39805595315908
 20
17.23606797749986
 11
-53.30422606518248
 21
17.23606797749986
 72
    1
 10
-53.30422606518248
 20
17.23606797749986
 11
-50.95308505601118
 21
15.52786404500034
 72
    1
 10
-50.95308505601118
 20
15.52786404500034
 11
-51.85114100917028
 21
12.76393202249961
 72
    1
 10
-51.85114100917028
 20
12.76393202249961
 11
-49.49999999999986
 21
14.47213595499926
 72
    1
 10
-49.49999999999986
 20
14.47213595499926
 11
-47.14885899082978
 21
12.76393202249993
 72
    1
 10
-47.14885899082978
 20
12.76393202249993
 11
-48.04691494398928
 21
15.52786404500003
 72
    1
 10
-48.04691494398928
 20
15.52786404500003
 11
-45.69577393481778
 21
17.2360679775005
 72
    1
 10
-45.69577393481778
 20
17.2360679775005
 11
-48.60194404684129
 21
17.2360679775001
 97
    0
 75
    0
 76
    1
 98
    0
  0
HATCH
  5
64
100
AcDbEntity
  8
Red
  6
ByLayer
 62
  256
370
   -1
100
AcDbHatch
 10
0
 20
0
 30
0
210
0
220
0
230
1
  2
SOLID
 70
    1
 71
    0
 91
    1
 92
    0
 93
   10
 72
    1
 10
-32.20194404684128
 20
17.23606797750019
 11
-33.10000000000006
 21
19.99999999999913
 72
    1
 10
-33.10000000000006
 20
19.99999999999913
 11
-33.99805595315907
 21
17.23606797749995
 72
    1
 10
-33.99805595315907
 20
17.23606797749995
 11
-36.90422606518247
 21
17.23606797749995
 72
    1
 10
-36.90422606518247
 20
17.23606797749995
 11
-34.55308505601117
 21
15.52786404500042
 72
    1
 10
-34.55308505601117
 20
15.52786404500042
 11
-35.45114100917027
 21
12.7639320224997
 72
    1
 10
-35.45114100917027
 20
12.7639320224997
 11
-33.09999999999986
 21
14.47213595499935
 72
    1
 10
-33.09999999999986
 20
14.47213595499935
 11
-30.74885899082977
 21
12.76393202250002
 72
    1
 10
-30.74885899082977
 20
12.76393202250002
 11
-31.64691494398927
 21
15.52786404500012
 72
    1
 10
-31.64691494398927
 20
15.52786404500012
 11
-29.29577393481777
 21
17.23606797750059
 72
    1
 10
-29.29577393481777
 20
17.23606797750059
 11
-32.20194404684128
 21
17.23606797750019
 97
    0
 75
    0
 76
    1
 98
    0
  0
HATCH
  5
65
100
AcDbEntity
  8
Red
  6
ByLayer
 62
  256
370
   -1
100
AcDbHatch
 10
0
 20
0
 30
0
210
0
220
0
230
1
  2
SOLID
 70
    1
 71
    0
 91
    1
 92
    0
 93
   10
 72
    1
 10
-32.20194404684126
 20
31.2360679775001
 11
-33.10000000000003
 21
33.99999999999904
 72
    1
 10
-33.10000000000003
 20
33.99999999999904
 11
-33.99805595315905
 21
31.23606797749986
 72
    1
 10
-33.99805595315905
 20
31.23606797749986
 11
-36.90422606518244
 21
31.23606797749986
 72
    1
 10
-36.90422606518244
 20
31.23606797749986
 11
-34.55308505601114
 21
29.52786404500034
 72
    1
 10
-34.55308505601114
 20
29.52786404500034
 11
-35.45114100917024
 21
26.76393202249961
 72
    1
 10
-35.45114100917024
 20
26.76393202249961
 11
-33.09999999999983
 21
28.47213595499926
 72
    1
 10
-33.09999999999983
 20
28.47213595499926
 11
-30.74885899082974
 21
26.76393202249993
 72
    1
 10
-30.74885899082974
 20
26.76393202249993
 11
-31.64691494398924
 21
29.52786404500003
 72
    1
 10
-31.64691494398924
 20
29.52786404500003
 11
-29.29577393481774
 21
31.2360679775005
 72
    1
 10
-29.29577393481774
 20
31.2360679775005
 11
-32.20194404684126
 21
31.2360679775001
 97
    0
 75
    0
 76
    1
 98
    0
  0
HATCH
  5
66
100
AcDbEntity
  8
Red
  6
ByLayer
 62
  256
370
   -1
100
AcDbHatch
 10
0
 20
0
 30
0
210
0
220
0
230
1
  2
SOLID
 70
    1
 71
    0
 91
    1
 92
    0
 93
   10
 72
    1
 10
-48.60194404684126
 20
31.23606797750001
 11
-49.50000000000004
 21
33.99999999999895
 72
    1
 10
-49.50000000000004
 20
33.99999999999895
 11
-50.39805595315905
 21
31.23606797749978
 72
    1
 10
-50.39805595315905
 20
31.23606797749978
 11
-53.30422606518245
 21
31.23606797749978
 72
    1
 10
-53.30422606518245
 20
31.23606797749978
 11
-50.95308505601115
 21
29.52786404500025
 72
    1
 10
-50.95308505601115
 20
29.52786404500025
 11
-51.85114100917025
 21
26.76393202249952
 72
    1
 10
-51.85114100917025
 20
26.76393202249952
 11
-49.49999999999984
 21
28.47213595499917
 72
    1
 10
-49.49999999999984
 20
28.47213595499917
 11
-47.14885899082975
 21
26.76393202249984
 72
    1
 10
-47.14885899082975
 20
26.76393202249984
 11
-48.04691494398925
 21
29.52786404499994
 72
    1
 10
-48.04691494398925
 20
29.52786404499994
 11
-45.69577393481775
 21
31.23606797750042
 72
    1
 10
-45.69577393481775
 20
31.23606797750042
 11
-48.60194404684126
 21
31.23606797750001
 97
    0
 75
    0
 76
    1
 98
    0
  0
HATCH
  5
67
100
AcDbEntity
  8
Red
  6
ByLayer
 62
  256
370
   -1
100
AcDbHatch
 10
0
 20
0
 30
0
210
0
220
0
230
1
  2
SOLID
 70
    1
 71
    0
 91
    1
 92
    0
 93
   10
 72
    1
 10
-65.00194404684126
 20
31.23606797749992
 11
-65.90000000000003
 21
33.99999999999886
 72
    1
 10
-65.90000000000003
 20
33.99999999999886
 11
-66.79805595315906
 21
31.23606797749969
 72
    1
 10
-66.79805595315906
 20
31.23606797749969
 11
-69.70422606518245
 21
31.23606797749969
 72
    1
 10
-69.70422606518245
 20
31.23606797749969
 11
-67.35308505601115
 21
29.52786404500016
 72
    1
 10
-67.35308505601115
 20
29.52786404500016
 11
-68.25114100917025
 21
26.76393202249943
 72
    1
 10
-68.25114100917025
 20
26.76393202249943
 11
-65.89999999999984
 21
28.47213595499908
 72
    1
 10
-65.89999999999984
 20
28.47213595499908
 11
-63.54885899082976
 21
26.76393202249975
 72
    1
 10
-63.54885899082976
 20
26.76393202249975
 11
-64.44691494398926
 21
29.52786404499985
 72
    1
 10
-64.44691494398926
 20
29.52786404499985
 11
-62.09577393481776
 21
31.23606797750033
 72
    1
 10
-62.09577393481776
 20
31.23606797750033
 11
-65.00194404684126
 21
31.23606797749992
 97
    0
 75
    0
 76
    1
 98
    0
  0
HATCH
  5
68
100
AcDbEntity
  8
Red
  6
ByLayer
 62
  256
370
   -1
100
AcDbHatch
 10
0
 20
0
 30
0
210
0
220
0
230
1
  2
SOLID
 70
    1
 71
    0
 91
    1
 92
    0
 93
   10
 72
    1
 10
-81.40194404684127
 20
31.23606797749983
 11
-82.30000000000004
 21
33.99999999999878
 72
    1
 10
-82.30000000000004
 20
33.99999999999878
 11
-83.19805595315907
 21
31.2360679774996
 72
    1
 10
-83.19805595315907
 20
31.2360679774996
 11
-86.10422606518246
 21
31.2360679774996
 72
    1
 10
-86.10422606518246
 20
31.2360679774996
 11
-83.75308505601116
 21
29.52786404500007
 72
    1
 10
-83.75308505601116
 20
29.52786404500007
 11
-84.65114100917026
 21
26.76393202249934
 72
    1
 10
-84.65114100917026
 20
26.76393202249934
 11
-82.29999999999984
 21
28.47213595499899
 72
    1
 10
-82.29999999999984
 20
28.47213595499899
 11
-79.94885899082976
 21
26.76393202249966
 72
    1
 10
-79.94885899082976
 20
26.76393202249966
 11
-80.84691494398926
 21
29.52786404499976
 72
    1
 10
-80.84691494398926
 20
29.52786404499976
 11
-78.49577393481776
 21
31.23606797750024
 72
    1
 10
-78.49577393481776
 20
31.23606797750024
 11
-81.40194404684127
 21
31.23606797749983
 97
    0
 75
    0
 76
    1
 98
    0
  0
HATCH
  5
69
100
AcDbEntity
  8
Red
  6
ByLayer
 62
  256
370
   -1
100
AcDbHatch
 10
0
 20
0
 30
0
210
0
220
0
230
1
  2
SOLID
 70
    1
 71
    0
 91
    1
 92
    0
 93
   10
 72
    1
 10
-97.80194404684127
 20
31.23606797749974
 11
-98.70000000000005
 21
33.99999999999869
 72
    1
 10
-98.70000000000005
 20
33.99999999999869
 11
-99.59805595315908
 21
31.23606797749951
 72
    1
 10
-99.59805595315908
 20
31.23606797749951
 11
-102.5042260651825
 21
31.23606797749951
 72
    1
 10
-102.5042260651825
 20
31.23606797749951
 11
-100.1530850560112
 21
29.52786404499998
 72
    1
 10
-100.1530850560112
 20
29.52786404499998
 11
-101.0511410091703
 21
26.76393202249925
 72
    1
 10
-101.0511410091703
 20
26.76393202249925
 11
-98.69999999999985
 21
28.4721359549989
 72
    1
 10
-98.69999999999985
 20
28.4721359549989
 11
-96.34885899082977
 21
26.76393202249957
 72
    1
 10
-96.34885899082977
 20
26.76393202249957
 11
-97.24691494398927
 21
29.52786404499967
 72
    1
 10
-97.24691494398927
 20
29.52786404499967
 11
-94.89577393481777
 21
31.23606797750015
 72
    1
 10
-94.89577393481777
 20
31.23606797750015
 11
-97.80194404684127
 21
31.23606797749974
 97
    0
 75
    0
 76
    1
 98
    0
  0
HATCH
  5
6A
100
AcDbEntity
  8
Red
  6
ByLayer
 62
  256
370
   -1
100
AcDbHatch
 10
0
 20
0
 30
0
210
0
220
0
230
1
  2
SOLID
 70
    1
 71
    0
 91
    1
 92
    0
 93
   10
 72
    1
 10
-114.2019440468413
 20
31.23606797749965
 11
-115.1000000000001
 21
33.99999999999859
 72
    1
 10
-115.1000000000001
 20
33.99999999999859
 11
-115.9980559531591
 21
31.23606797749942
 72
    1
 10
-115.9980559531591
 20
31.23606797749942
 11
-118.9042260651825
 21
31.23606797749942
 72
    1
 10
-118.9042260651825
 20
31.23606797749942
 11
-116.5530850560112
 21
29.52786404499989
 72
    1
 10
-116.5530850560112
 20
29.52786404499989
 11
-117.4511410091703
 21
26.76393202249917
 72
    1
 10
-117.4511410091703
 20
26.76393202249917
 11
-115.0999999999999
 21
28.47213595499882
 72
    1
 10
-115.0999999999999
 20
28.47213595499882
 11
-112.7488589908298
 21
26.76393202249949
 72
    1
 10
-112.7488589908298
 20
26.76393202249949
 11
-113.6469149439893
 21
29.52786404499959
 72
    1
 10
-113.6469149439893
 20
29.52786404499959
 11
-111.2957739348178
 21
31.23606797750006
 72
    1
 10
-111.2957739348178
 20
31.23606797750006
 11
-114.2019440468413
 21
31.23606797749965
 97
    0
 75
    0
 76
    1
 98
    0
  0
HATCH
  5
6B
100
AcDbEntity
  8
Red
  6
ByLayer
 62
  256
370
   -1
100
AcDbHatch
 10
0
 20
0
 30
0
210
0
220
0
230
1
  2
SOLID
 70
    1
 71
    0
 91
    1
 92
    0
 93
   10
 72
    1
 10
-106.0019440468413
 20
24.23606797749973
 11
-106.9000000000001
 21
26.99999999999867
 72
    1
 10
-106.9000000000001
 20
26.99999999999867
 11
-107.7980559531591
 21
24.2360679774995
 72
    1
 10
-107.7980559531591
 20
24.2360679774995
 11
-110.7042260651825
 21
24.2360679774995
 72
    1
 10
-110.7042260651825
 20
24.2360679774995
 11
-108.3530850560112
 21
22.52786404499997
 72
    1
 10
-108.3530850560112
 20
22.52786404499997
 11
-109.2511410091703
 21
19.76393202249924
 72
    1
 10
-109.2511410091703
 20
19.76393202249924
 11
-106.8999999999999
 21
21.47213595499889
 72
    1
 10
-106.8999999999999
 20
21.47213595499889
 11
-104.5488589908298
 21
19.76393202249956
 72
    1
 10
-104.5488589908298
 20
19.76393202249956
 11
-105.4469149439893
 21
22.52786404499966
 72
    1
 10
-105.4469149439893
 20
22.52786404499966
 11
-103.0957739348178
 21
24.23606797750014
 72
    1
 10
-103.0957739348178
 20
24.23606797750014
 11
-106.0019440468413
 21
24.23606797749973
 97
    0
 75
    0
 76
    1
 98
    0
  0
HATCH
  5
6C
100
AcDbEntity
  8
Red
  6
ByLayer
 62
  256
370
   -1
100
AcDbHatch
 10
0
 20
0
 30
0
210
0
220
0
230
1
  2
SOLID
 70
    1
 71
    0
 91
    1
 92
    0
 93
   10
 72
    1
 10
-89.60194404684131
 20
24.23606797749982
 11
-90.50000000000009
 21
26.99999999999876
 72
    1
 10
-90.50000000000009
 20
26.99999999999876
 11
-91.39805595315909
 21
24.23606797749959
 72
    1
 10
-91.39805595315909
 20
24.23606797749959
 11
-94.30422606518249
 21
24.23606797749959
 72
    1
 10
-94.30422606518249
 20
24.23606797749959
 11
-91.95308505601119
 21
22.52786404500006
 72
    1
 10
-91.95308505601119
 20
22.52786404500006
 11
-92.85114100917029
 21
19.76393202249933
 72
    1
 10
-92.85114100917029
 20
19.76393202249933
 11
-90.49999999999989
 21
21.47213595499898
 72
    1
 10
-90.49999999999989
 20
21.47213595499898
 11
-88.14885899082979
 21
19.76393202249965
 72
    1
 10
-88.14885899082979
 20
19.76393202249965
 11
-89.04691494398929
 21
22.52786404499975
 72
    1
 10
-89.04691494398929
 20
22.52786404499975
 11
-86.69577393481779
 21
24.23606797750023
 72
    1
 10
-86.69577393481779
 20
24.23606797750023
 11
-89.60194404684131
 21
24.23606797749982
 97
    0
 75
    0
 76
    1
 98
    0
  0
HATCH
  5
6D
100
AcDbEntity
  8
Red
  6
ByLayer
 62
  256
370
   -1
100
AcDbHatch
 10
0
 20
0
 30
0
210
0
220
0
230
1
  2
SOLID
 70
    1
 71
    0
 91
    1
 92
    0
 93
   10
 72
    1
 10
-73.20194404684131
 20
24.23606797749991
 11
-74.10000000000008
 21
26.99999999999885
 72
    1
 10
-74.10000000000008
 20
26.99999999999885
 11
-74.99805595315908
 21
24.23606797749968
 72
    1
 10
-74.99805595315908
 20
24.23606797749968
 11
-77.90422606518248
 21
24.23606797749968
 72
    1
 10
-77.90422606518248
 20
24.23606797749968
 11
-75.55308505601118
 21
22.52786404500015
 72
    1
 10
-75.55308505601118
 20
22.52786404500015
 11
-76.45114100917029
 21
19.76393202249942
 72
    1
 10
-76.45114100917029
 20
19.76393202249942
 11
-74.09999999999988
 21
21.47213595499907
 72
    1
 10
-74.09999999999988
 20
21.47213595499907
 11
-71.74885899082979
 21
19.76393202249974
 72
    1
 10
-71.74885899082979
 20
19.76393202249974
 11
-72.64691494398929
 21
22.52786404499984
 72
    1
 10
-72.64691494398929
 20
22.52786404499984
 11
-70.29577393481779
 21
24.23606797750032
 72
    1
 10
-70.29577393481779
 20
24.23606797750032
 11
-73.20194404684131
 21
24.23606797749991
 97
    0
 75
    0
 76
    1
 98
    0
  0
HATCH
  5
6E
100
AcDbEntity
  8
Red
  6
ByLayer
 62
  256
370
   -1
100
AcDbHatch
 10
0
 20
0
 30
0
210
0
220
0
230
1
  2
SOLID
 70
    1
 71
    0
 91
    1
 92
    0
 93
   10
 72
    1
 10
-56.80194404684129
 20
24.2360679775
 11
-57.70000000000007
 21
26.99999999999894
 72
    1
 10
-57.70000000000007
 20
26.99999999999894
 11
-58.59805595315908
 21
24.23606797749976
 72
    1
 10
-58.59805595315908
 20
24.23606797749976
 11
-61.50422606518248
 21
24.23606797749976
 72
    1
 10
-61.50422606518248
 20
24.23606797749976
 11
-59.15308505601118
 21
22.52786404500024
 72
    1
 10
-59.15308505601118
 20
22.52786404500024
 11
-60.05114100917028
 21
19.76393202249951
 72
    1
 10
-60.05114100917028
 20
19.76393202249951
 11
-57.69999999999987
 21
21.47213595499916
 72
    1
 10
-57.69999999999987
 20
21.47213595499916
 11
-55.34885899082978
 21
19.76393202249983
 72
    1
 10
-55.34885899082978
 20
19.76393202249983
 11
-56.24691494398928
 21
22.52786404499993
 72
    1
 10
-56.24691494398928
 20
22.52786404499993
 11
-53.89577393481778
 21
24.2360679775004
 72
    1
 10
-53.89577393481778
 20
24.2360679775004
 11
-56.80194404684129
 21
24.2360679775
 97
    0
 75
    0
 76
    1
 98
    0
  0
HATCH
  5
6F
100
AcDbEntity
  8
Red
  6
ByLayer
 62
  256
370
   -1
100
AcDbHatch
 10
0
 20
0
 30
0
210
0
220
0
230
1
  2
SOLID
 70
    1
 71
    0
 91
    1
 92
    0
 93
   10
 72
    1
 10
-40.40194404684129
 20
24.23606797750009
 11
-41.30000000000006
 21
26.99999999999903
 72
    1
 10
-41.30000000000006
 20
26.99999999999903
 11
-42.19805595315908
 21
24.23606797749985
 72
    1
 10
-42.19805595315908
 20
24.23606797749985
 11
-45.10422606518247
 21
24.23606797749985
 72
    1
 10
-45.10422606518247
 20
24.23606797749985
 11
-42.75308505601117
 21
22.52786404500032
 72
    1
 10
-42.75308505601117
 20
22.52786404500032
 11
-43.65114100917027
 21
19.7639320224996
 72
    1
 10
-43.65114100917027
 20
19.7639320224996
 11
-41.29999999999986
 21
21.47213595499925
 72
    1
 10
-41.29999999999986
 20
21.47213595499925
 11
-38.94885899082978
 21
19.76393202249992
 72
    1
 10
-38.94885899082978
 20
19.76393202249992
 11
-39.84691494398928
 21
22.52786404500002
 72
    1
 10
-39.84691494398928
 20
22.52786404500002
 11
-37.49577393481778
 21
24.23606797750049
 72
    1
 10
-37.49577393481778
 20
24.23606797750049
 11
-40.40194404684129
 21
24.23606797750009
 97
    0
 75
    0
 76
    1
 98
    0
  0
HATCH
  5
70
100
AcDbEntity
  8
Red
  6
ByLayer
 62
  256
370
   -1
100
AcDbHatch
 10
0
 20
0
 30
0
210
0
220
0
230
1
  2
SOLID
 70
    1
 71
    0
 91
    1
 92
    0
 93
   10
 72
    1
 10
-40.40194404684123
 20
52.23606797749991
 11
-41.3
 21
54.99999999999885
 72
    1
 10
-41.3
 20
54.99999999999885
 11
-42.19805595315902
 21
52.23606797749967
 72
    1
 10
-42.19805595315902
 20
52.23606797749967
 11
-45.10422606518242
 21
52.23606797749967
 72
    1
 10
-45.10422606518242
 20
52.23606797749967
 11
-42.75308505601112
 21
50.52786404500014
 72
    1
 10
-42.75308505601112
 20
50.52786404500014
 11
-43.65114100917022
 21
47.76393202249942
 72
    1
 10
-43.65114100917022
 20
47.76393202249942
 11
-41.29999999999981
 21
49.47213595499908
 72
    1
 10
-41.29999999999981
 20
49.47213595499908
 11
-38.94885899082972
 21
47.76393202249974
 72
    1
 10
-38.94885899082972
 20
47.76393202249974
 11
-39.84691494398922
 21
50.52786404499984
 72
    1
 10
-39.84691494398922
 20
50.52786404499984
 11
-37.49577393481772
 21
52.23606797750031
 72
    1
 10
-37.49577393481772
 20
52.23606797750031
 11
-40.40194404684123
 21
52.23606797749991
 97
    0
 75
    0
 76
    1
 98
    0
  0
HATCH
  5
71
100
AcDbEntity
  8
Red
  6
ByLayer
 62
  256
370
   -1
100
AcDbHatch
 10
0
 20
0
 30
0
210
0
220
0
230
1
  2
SOLID
 70
    1
 71
    0
 91
    1
 92
    0
 93
   10
 72
    1
 10
-56.80194404684124
 20
52.23606797749982
 11
-57.70000000000001
 21
54.99999999999876
 72
    1
 10
-57.70000000000001
 20
54.99999999999876
 11
-58.59805595315903
 21
52.23606797749959
 72
    1
 10
-58.59805595315903
 20
52.23606797749959
 11
-61.50422606518242
 21
52.23606797749959
 72
    1
 10
-61.50422606518242
 20
52.23606797749959
 11
-59.15308505601112
 21
50.52786404500006
 72
    1
 10
-59.15308505601112
 20
50.52786404500006
 11
-60.05114100917022
 21
47.76393202249933
 72
    1
 10
-60.05114100917022
 20
47.76393202249933
 11
-57.69999999999981
 21
49.47213595499898
 72
    1
 10
-57.69999999999981
 20
49.47213595499898
 11
-55.34885899082973
 21
47.76393202249965
 72
    1
 10
-55.34885899082973
 20
47.76393202249965
 11
-56.24691494398922
 21
50.52786404499975
 72
    1
 10
-56.24691494398922
 20
50.52786404499975
 11
-53.89577393481773
 21
52.23606797750023
 72
    1
 10
-53.89577393481773
 20
52.23606797750023
 11
-56.80194404684124
 21
52.23606797749982
 97
    0
 75
    0
 76
    1
 98
    0
  0
HATCH
  5
72
100
AcDbEntity
  8
Red
  6
ByLayer
 62
  256
370
   -1
100
AcDbHatch
 10
0
 20
0
 30
0
210
0
220
0
230
1
  2
SOLID
 70
    1
 71
    0
 91
    1
 92
    0
 93
   10
 72
    1
 10
-73.20194404684125
 20
52.23606797749973
 11
-74.10000000000002
 21
54.99999999999868
 72
    1
 10
-74.10000000000002
 20
54.99999999999868
 11
-74.99805595315902
 21
52.2360679774995
 72
    1
 10
-74.99805595315902
 20
52.2360679774995
 11
-77.90422606518243
 21
52.2360679774995
 72
    1
 10
-77.90422606518243
 20
52.2360679774995
 11
-75.55308505601113
 21
50.52786404499997
 72
    1
 10
-75.55308505601113
 20
50.52786404499997
 11
-76.45114100917023
 21
47.76393202249925
 72
    1
 10
-76.45114100917023
 20
47.76393202249925
 11
-74.09999999999982
 21
49.47213595499889
 72
    1
 10
-74.09999999999982
 20
49.47213595499889
 11
-71.74885899082973
 21
47.76393202249956
 72
    1
 10
-71.74885899082973
 20
47.76393202249956
 11
-72.64691494398923
 21
50.52786404499966
 72
    1
 10
-72.64691494398923
 20
50.52786404499966
 11
-70.29577393481773
 21
52.23606797750014
 72
    1
 10
-70.29577393481773
 20
52.23606797750014
 11
-73.20194404684125
 21
52.23606797749973
 97
    0
 75
    0
 76
    1
 98
    0
  0
HATCH
  5
73
100
AcDbEntity
  8
Red
  6
ByLayer
 62
  256
370
   -1
100
AcDbHatch
 10
0
 20
0
 30
0
210
0
220
0
230
1
  2
SOLID
 70
    1
 71
    0
 91
    1
 92
    0
 93
   10
 72
    1
 10
-89.60194404684125
 20
52.23606797749964
 11
-90.50000000000003
 21
54.99999999999859
 72
    1
 10
-90.50000000000003
 20
54.99999999999859
 11
-91.39805595315903
 21
52.23606797749941
 72
    1
 10
-91.39805595315903
 20
52.23606797749941
 11
-94.30422606518243
 21
52.23606797749941
 72
    1
 10
-94.30422606518243
 20
52.23606797749941
 11
-91.95308505601113
 21
50.52786404499988
 72
    1
 10
-91.95308505601113
 20
50.52786404499988
 11
-92.85114100917023
 21
47.76393202249916
 72
    1
 10
-92.85114100917023
 20
47.76393202249916
 11
-90.49999999999983
 21
49.47213595499881
 72
    1
 10
-90.49999999999983
 20
49.47213595499881
 11
-88.14885899082974
 21
47.76393202249947
 72
    1
 10
-88.14885899082974
 20
47.76393202249947
 11
-89.04691494398924
 21
50.52786404499957
 72
    1
 10
-89.04691494398924
 20
50.52786404499957
 11
-86.69577393481774
 21
52.23606797750005
 72
    1
 10
-86.69577393481774
 20
52.23606797750005
 11
-89.60194404684125
 21
52.23606797749964
 97
    0
 75
    0
 76
    1
 98
    0
  0
HATCH
  5
74
100
AcDbEntity
  8
Red
  6
ByLayer
 62
  256
370
   -1
100
AcDbHatch
 10
0
 20
0
 30
0
210
0
220
0
230
1
  2
SOLID
 70
    1
 71
    0
 91
    1
 92
    0
 93
   10
 72
    1
 10
-106.0019440468413
 20
52.23606797749956
 11
-106.9
 21
54.99999999999849
 72
    1
 10
-106.9
 20
54.99999999999849
 11
-107.798055953159
 21
52.23606797749932
 72
    1
 10
-107.798055953159
 20
52.23606797749932
 11
-110.7042260651824
 21
52.23606797749932
 72
    1
 10
-110.7042260651824
 20
52.23606797749932
 11
-108.3530850560111
 21
50.52786404499979
 72
    1
 10
-108.3530850560111
 20
50.52786404499979
 11
-109.2511410091702
 21
47.76393202249906
 72
    1
 10
-109.2511410091702
 20
47.76393202249906
 11
-106.8999999999998
 21
49.47213595499872
 72
    1
 10
-106.8999999999998
 20
49.47213595499872
 11
-104.5488589908297
 21
47.76393202249939
 72
    1
 10
-104.5488589908297
 20
47.76393202249939
 11
-105.4469149439892
 21
50.52786404499949
 72
    1
 10
-105.4469149439892
 20
50.52786404499949
 11
-103.0957739348177
 21
52.23606797749996
 72
    1
 10
-103.0957739348177
 20
52.23606797749996
 11
-106.0019440468413
 21
52.23606797749956
 97
    0
 75
    0
 76
    1
 98
    0
  0
HATCH
  5
75
100
AcDbEntity
  8
Red
  6
ByLayer
 62
  256
370
   -1
100
AcDbHatch
 10
0
 20
0
 30
0
210
0
220
0
230
1
  2
SOLID
 70
    1
 71
    0
 91
    1
 92
    0
 93
   10
 72
    1
 10
-114.2019440468412
 20
59.23606797749947
 11
-115.1
 21
61.99999999999842
 72
    1
 10
-115.1
 20
61.99999999999842
 11
-115.998055953159
 21
59.23606797749925
 72
    1
 10
-115.998055953159
 20
59.23606797749925
 11
-118.9042260651824
 21
59.23606797749925
 72
    1
 10
-118.9042260651824
 20
59.23606797749925
 11
-116.5530850560111
 21
57.52786404499972
 72
    1
 10
-116.5530850560111
 20
57.52786404499972
 11
-117.4511410091702
 21
54.76393202249899
 72
    1
 10
-117.4511410091702
 20
54.76393202249899
 11
-115.0999999999998
 21
56.47213595499863
 72
    1
 10
-115.0999999999998
 20
56.47213595499863
 11
-112.7488589908297
 21
54.7639320224993
 72
    1
 10
-112.7488589908297
 20
54.7639320224993
 11
-113.6469149439892
 21
57.5278640449994
 72
    1
 10
-113.6469149439892
 20
57.5278640449994
 11
-111.2957739348177
 21
59.23606797749989
 72
    1
 10
-111.2957739348177
 20
59.23606797749989
 11
-114.2019440468412
 21
59.23606797749947
 97
    0
 75
    0
 76
    1
 98
    0
  0
HATCH
  5
76
100
AcDbEntity
  8
Red
  6
ByLayer
 62
  256
370
   -1
100
AcDbHatch
 10
0
 20
0
 30
0
210
0
220
0
230
1
  2
SOLID
 70
    1
 71
    0
 91
    1
 92
    0
 93
   10
 72
    1
 10
-97.80194404684121
 20
59.23606797749957
 11
-98.69999999999999
 21
61.99999999999851
 72
    1
 10
-98.69999999999999
 20
61.99999999999851
 11
-99.59805595315902
 21
59.23606797749933
 72
    1
 10
-99.59805595315902
 20
59.23606797749933
 11
-102.5042260651824
 21
59.23606797749933
 72
    1
 10
-102.5042260651824
 20
59.23606797749933
 11
-100.1530850560111
 21
57.5278640449998
 72
    1
 10
-100.1530850560111
 20
57.5278640449998
 11
-101.0511410091702
 21
54.76393202249908
 72
    1
 10
-101.0511410091702
 20
54.76393202249908
 11
-98.69999999999979
 21
56.47213595499873
 72
    1
 10
-98.69999999999979
 20
56.47213595499873
 11
-96.34885899082971
 21
54.7639320224994
 72
    1
 10
-96.34885899082971
 20
54.7639320224994
 11
-97.24691494398921
 21
57.5278640449995
 72
    1
 10
-97.24691494398921
 20
57.5278640449995
 11
-94.89577393481771
 21
59.23606797749997
 72
    1
 10
-94.89577393481771
 20
59.23606797749997
 11
-97.80194404684121
 21
59.23606797749957
 97
    0
 75
    0
 76
    1
 98
    0
  0
HATCH
  5
77
100
AcDbEntity
  8
Red
  6
ByLayer
 62
  256
370
   -1
100
AcDbHatch
 10
0
 20
0
 30
0
210
0
220
0
230
1
  2
SOLID
 70
    1
 71
    0
 91
    1
 92
    0
 93
   10
 72
    1
 10
-81.40194404684121
 20
59.23606797749966
 11
-82.29999999999998
 21
61.9999999999986
 72
    1
 10
-82.29999999999998
 20
61.9999999999986
 11
-83.19805595315901
 21
59.23606797749942
 72
    1
 10
-83.19805595315901
 20
59.23606797749942
 11
-86.1042260651824
 21
59.23606797749942
 72
    1
 10
-86.1042260651824
 20
59.23606797749942
 11
-83.7530850560111
 21
57.52786404499989
 72
    1
 10
-83.7530850560111
 20
57.52786404499989
 11
-84.6511410091702
 21
54.76393202249916
 72
    1
 10
-84.6511410091702
 20
54.76393202249916
 11
-82.29999999999978
 21
56.47213595499882
 72
    1
 10
-82.29999999999978
 20
56.47213595499882
 11
-79.94885899082971
 21
54.76393202249949
 72
    1
 10
-79.94885899082971
 20
54.76393202249949
 11
-80.8469149439892
 21
57.52786404499959
 72
    1
 10
-80.8469149439892
 20
57.52786404499959
 11
-78.49577393481771
 21
59.23606797750006
 72
    1
 10
-78.49577393481771
 20
59.23606797750006
 11
-81.40194404684121
 21
59.23606797749966
 97
    0
 75
    0
 76
    1
 98
    0
  0
HATCH
  5
78
100
AcDbEntity
  8
Red
  6
ByLayer
 62
  256
370
   -1
100
AcDbHatch
 10
0
 20
0
 30
0
210
0
220
0
230
1
  2
SOLID
 70
    1
 71
    0
 91
    1
 92
    0
 93
   10
 72
    1
 10
-65.0019440468412
 20
59.23606797749974
 11
-65.89999999999998
 21
61.99999999999869
 72
    1
 10
-65.89999999999998
 20
61.99999999999869
 11
-66.79805595315901
 21
59.23606797749951
 72
    1
 10
-66.79805595315901
 20
59.23606797749951
 11
-69.7042260651824
 21
59.23606797749951
 72
    1
 10
-69.7042260651824
 20
59.23606797749951
 11
-67.3530850560111
 21
57.52786404499998
 72
    1
 10
-67.3530850560111
 20
57.52786404499998
 11
-68.2511410091702
 21
54.76393202249925
 72
    1
 10
-68.2511410091702
 20
54.76393202249925
 11
-65.89999999999978
 21
56.4721359549989
 72
    1
 10
-65.89999999999978
 20
56.4721359549989
 11
-63.5488589908297
 21
54.76393202249957
 72
    1
 10
-63.5488589908297
 20
54.76393202249957
 11
-64.4469149439892
 21
57.52786404499967
 72
    1
 10
-64.4469149439892
 20
57.52786404499967
 11
-62.0957739348177
 21
59.23606797750015
 72
    1
 10
-62.0957739348177
 20
59.23606797750015
 11
-65.0019440468412
 21
59.23606797749974
 97
    0
 75
    0
 76
    1
 98
    0
  0
HATCH
  5
79
100
AcDbEntity
  8
Red
  6
ByLayer
 62
  256
370
   -1
100
AcDbHatch
 10
0
 20
0
 30
0
210
0
220
0
230
1
  2
SOLID
 70
    1
 71
    0
 91
    1
 92
    0
 93
   10
 72
    1
 10
-48.6019440468412
 20
59.23606797749983
 11
-49.49999999999998
 21
61.99999999999877
 72
    1
 10
-49.49999999999998
 20
61.99999999999877
 11
-50.39805595315899
 21
59.2360679774996
 72
    1
 10
-50.39805595315899
 20
59.2360679774996
 11
-53.30422606518239
 21
59.2360679774996
 72
    1
 10
-53.30422606518239
 20
59.2360679774996
 11
-50.95308505601109
 21
57.52786404500007
 72
    1
 10
-50.95308505601109
 20
57.52786404500007
 11
-51.85114100917019
 21
54.76393202249935
 72
    1
 10
-51.85114100917019
 20
54.76393202249935
 11
-49.49999999999978
 21
56.47213595499899
 72
    1
 10
-49.49999999999978
 20
56.47213595499899
 11
-47.14885899082969
 21
54.76393202249966
 72
    1
 10
-47.14885899082969
 20
54.76393202249966
 11
-48.04691494398919
 21
57.52786404499976
 72
    1
 10
-48.04691494398919
 20
57.52786404499976
 11
-45.69577393481769
 21
59.23606797750024
 72
    1
 10
-45.69577393481769
 20
59.23606797750024
 11
-48.6019440468412
 21
59.23606797749983
 97
    0
 75
    0
 76
    1
 98
    0
  0
HATCH
  5
7A
100
AcDbEntity
  8
Red
  6
ByLayer
 62
  256
370
   -1
100
AcDbHatch
 10
0
 20
0
 30
0
210
0
220
0
230
1
  2
SOLID
 70
    1
 71
    0
 91
    1
 92
    0
 93
   10
 72
    1
 10
-32.2019440468412
 20
59.23606797749992
 11
-33.09999999999997
 21
61.99999999999886
 72
    1
 10
-33.09999999999997
 20
61.99999999999886
 11
-33.99805595315899
 21
59.23606797749969
 72
    1
 10
-33.99805595315899
 20
59.23606797749969
 11
-36.90422606518239
 21
59.23606797749969
 72
    1
 10
-36.90422606518239
 20
59.23606797749969
 11
-34.55308505601108
 21
57.52786404500016
 72
    1
 10
-34.55308505601108
 20
57.52786404500016
 11
-35.45114100917019
 21
54.76393202249943
 72
    1
 10
-35.45114100917019
 20
54.76393202249943
 11
-33.09999999999977
 21
56.47213595499908
 72
    1
 10
-33.09999999999977
 20
56.47213595499908
 11
-30.74885899082969
 21
54.76393202249975
 72
    1
 10
-30.74885899082969
 20
54.76393202249975
 11
-31.64691494398919
 21
57.52786404499985
 72
    1
 10
-31.64691494398919
 20
57.52786404499985
 11
-29.29577393481769
 21
59.23606797750033
 72
    1
 10
-29.29577393481769
 20
59.23606797750033
 11
-32.2019440468412
 21
59.23606797749992
 97
    0
 75
    0
 76
    1
 98
    0
  0
HATCH
  5
7B
100
AcDbEntity
  8
Red
  6
ByLayer
 62
  256
370
   -1
100
AcDbHatch
 10
0
 20
0
 30
0
210
0
220
0
230
1
  2
SOLID
 70
    1
 71
    0
 91
    1
 92
    0
 93
   10
 72
    1
 10
-32.20194404684123
 20
45.23606797750001
 11
-33.1
 21
47.99999999999895
 72
    1
 10
-33.1
 20
47.99999999999895
 11
-33.99805595315902
 21
45.23606797749977
 72
    1
 10
-33.99805595315902
 20
45.23606797749977
 11
-36.90422606518241
 21
45.23606797749977
 72
    1
 10
-36.90422606518241
 20
45.23606797749977
 11
-34.55308505601111
 21
43.52786404500024
 72
    1
 10
-34.55308505601111
 20
43.52786404500024
 11
-35.45114100917021
 21
40.76393202249952
 72
    1
 10
-35.45114100917021
 20
40.76393202249952
 11
-33.0999999999998
 21
42.47213595499917
 72
    1
 10
-33.0999999999998
 20
42.47213595499917
 11
-30.74885899082971
 21
40.76393202249984
 72
    1
 10
-30.74885899082971
 20
40.76393202249984
 11
-31.64691494398922
 21
43.52786404499994
 72
    1
 10
-31.64691494398922
 20
43.52786404499994
 11
-29.29577393481771
 21
45.23606797750041
 72
    1
 10
-29.29577393481771
 20
45.23606797750041
 11
-32.20194404684123
 21
45.23606797750001
 97
    0
 75
    0
 76
    1
 98
    0
  0
HATCH
  5
7C
100
AcDbEntity
  8
Red
  6
ByLayer
 62
  256
370
   -1
100
AcDbHatch
 10
0
 20
0
 30
0
210
0
220
0
230
1
  2
SOLID
 70
    1
 71
    0
 91
    1
 92
    0
 93
   10
 72
    1
 10
-48.60194404684123
 20
45.23606797749992
 11
-49.50000000000001
 21
47.99999999999886
 72
    1
 10
-49.50000000000001
 20
47.99999999999886
 11
-50.39805595315902
 21
45.23606797749969
 72
    1
 10
-50.39805595315902
 20
45.23606797749969
 11
-53.30422606518242
 21
45.23606797749969
 72
    1
 10
-53.30422606518242
 20
45.23606797749969
 11
-50.95308505601112
 21
43.52786404500016
 72
    1
 10
-50.95308505601112
 20
43.52786404500016
 11
-51.85114100917022
 21
40.76393202249943
 72
    1
 10
-51.85114100917022
 20
40.76393202249943
 11
-49.49999999999981
 21
42.47213595499908
 72
    1
 10
-49.49999999999981
 20
42.47213595499908
 11
-47.14885899082972
 21
40.76393202249975
 72
    1
 10
-47.14885899082972
 20
40.76393202249975
 11
-48.04691494398922
 21
43.52786404499985
 72
    1
 10
-48.04691494398922
 20
43.52786404499985
 11
-45.69577393481772
 21
45.23606797750033
 72
    1
 10
-45.69577393481772
 20
45.23606797750033
 11
-48.60194404684123
 21
45.23606797749992
 97
    0
 75
    0
 76
    1
 98
    0
  0
HATCH
  5
7D
100
AcDbEntity
  8
Red
  6
ByLayer
 62
  256
370
   -1
100
AcDbHatch
 10
0
 20
0
 30
0
210
0
220
0
230
1
  2
SOLID
 70
    1
 71
    0
 91
    1
 92
    0
 93
   10
 72
    1
 10
-65.00194404684123
 20
45.23606797749983
 11
-65.90000000000001
 21
47.99999999999878
 72
    1
 10
-65.90000000000001
 20
47.99999999999878
 11
-66.79805595315904
 21
45.2360679774996
 72
    1
 10
-66.79805595315904
 20
45.2360679774996
 11
-69.70422606518243
 21
45.2360679774996
 72
    1
 10
-69.70422606518243
 20
45.2360679774996
 11
-67.35308505601112
 21
43.52786404500007
 72
    1
 10
-67.35308505601112
 20
43.52786404500007
 11
-68.25114100917023
 21
40.76393202249935
 72
    1
 10
-68.25114100917023
 20
40.76393202249935
 11
-65.89999999999981
 21
42.47213595499899
 72
    1
 10
-65.89999999999981
 20
42.47213595499899
 11
-63.54885899082973
 21
40.76393202249966
 72
    1
 10
-63.54885899082973
 20
40.76393202249966
 11
-64.44691494398923
 21
43.52786404499976
 72
    1
 10
-64.44691494398923
 20
43.52786404499976
 11
-62.09577393481773
 21
45.23606797750024
 72
    1
 10
-62.09577393481773
 20
45.23606797750024
 11
-65.00194404684123
 21
45.23606797749983
 97
    0
 75
    0
 76
    1
 98
    0
  0
HATCH
  5
7E
100
AcDbEntity
  8
Red
  6
ByLayer
 62
  256
370
   -1
100
AcDbHatch
 10
0
 20
0
 30
0
210
0
220
0
230
1
  2
SOLID
 70
    1
 71
    0
 91
    1
 92
    0
 93
   10
 72
    1
 10
-81.40194404684124
 20
45.23606797749974
 11
-82.30000000000001
 21
47.99999999999869
 72
    1
 10
-82.30000000000001
 20
47.99999999999869
 11
-83.19805595315904
 21
45.23606797749951
 72
    1
 10
-83.19805595315904
 20
45.23606797749951
 11
-86.10422606518243
 21
45.23606797749951
 72
    1
 10
-86.10422606518243
 20
45.23606797749951
 11
-83.75308505601113
 21
43.52786404499998
 72
    1
 10
-83.75308505601113
 20
43.52786404499998
 11
-84.65114100917023
 21
40.76393202249925
 72
    1
 10
-84.65114100917023
 20
40.76393202249925
 11
-82.29999999999981
 21
42.4721359549989
 72
    1
 10
-82.29999999999981
 20
42.4721359549989
 11
-79.94885899082973
 21
40.76393202249957
 72
    1
 10
-79.94885899082973
 20
40.76393202249957
 11
-80.84691494398923
 21
43.52786404499967
 72
    1
 10
-80.84691494398923
 20
43.52786404499967
 11
-78.49577393481773
 21
45.23606797750015
 72
    1
 10
-78.49577393481773
 20
45.23606797750015
 11
-81.40194404684124
 21
45.23606797749974
 97
    0
 75
    0
 76
    1
 98
    0
  0
HATCH
  5
7F
100
AcDbEntity
  8
Red
  6
ByLayer
 62
  256
370
   -1
100
AcDbHatch
 10
0
 20
0
 30
0
210
0
220
0
230
1
  2
SOLID
 70
    1
 71
    0
 91
    1
 92
    0
 93
   10
 72
    1
 10
-97.80194404684124
 20
45.23606797749966
 11
-98.70000000000002
 21
47.99999999999859
 72
    1
 10
-98.70000000000002
 20
47.99999999999859
 11
-99.59805595315905
 21
45.23606797749942
 72
    1
 10
-99.59805595315905
 20
45.23606797749942
 11
-102.5042260651824
 21
45.23606797749942
 72
    1
 10
-102.5042260651824
 20
45.23606797749942
 11
-100.1530850560111
 21
43.52786404499989
 72
    1
 10
-100.1530850560111
 20
43.52786404499989
 11
-101.0511410091702
 21
40.76393202249916
 72
    1
 10
-101.0511410091702
 20
40.76393202249916
 11
-98.69999999999982
 21
42.47213595499882
 72
    1
 10
-98.69999999999982
 20
42.47213595499882
 11
-96.34885899082974
 21
40.76393202249949
 72
    1
 10
-96.34885899082974
 20
40.76393202249949
 11
-97.24691494398924
 21
43.52786404499959
 72
    1
 10
-97.24691494398924
 20
43.52786404499959
 11
-94.89577393481774
 21
45.23606797750006
 72
    1
 10
-94.89577393481774
 20
45.23606797750006
 11
-97.80194404684124
 21
45.23606797749966
 97
    0
 75
    0
 76
    1
 98
    0
  0
HATCH
  5
80
100
AcDbEntity
  8
Red
  6
ByLayer
 62
  256
370
   -1
100
AcDbHatch
 10
0
 20
0
 30
0
210
0
220
0
230
1
  2
SOLID
 70
    1
 71
    0
 91
    1
 92
    0
 93
   10
 72
    1
 10
-114.2019440468412
 20
45.23606797749957
 11
-115.1
 21
47.99999999999851
 72
    1
 10
-115.1
 20
47.99999999999851
 11
-115.9980559531591
 21
45.23606797749933
 72
    1
 10
-115.9980559531591
 20
45.23606797749933
 11
-118.9042260651824
 21
45.23606797749933
 72
    1
 10
-118.9042260651824
 20
45.23606797749933
 11
-116.5530850560111
 21
43.5278640449998
 72
    1
 10
-116.5530850560111
 20
43.5278640449998
 11
-117.4511410091702
 21
40.76393202249908
 72
    1
 10
-117.4511410091702
 20
40.76393202249908
 11
-115.0999999999998
 21
42.47213595499873
 72
    1
 10
-115.0999999999998
 20
42.47213595499873
 11
-112.7488589908297
 21
40.7639320224994
 72
    1
 10
-112.7488589908297
 20
40.7639320224994
 11
-113.6469149439892
 21
43.5278640449995
 72
    1
 10
-113.6469149439892
 20
43.5278640449995
 11
-111.2957739348177
 21
45.23606797749997
 72
    1
 10
-111.2957739348177
 20
45.23606797749997
 11
-114.2019440468412
 21
45.23606797749957
 97
    0
 75
    0
 76
    1
 98
    0
  0
HATCH
  5
81
100
AcDbEntity
  8
Red
  6
ByLayer
 62
  256
370
   -1
100
AcDbHatch
 10
0
 20
0
 30
0
210
0
220
0
230
1
  2
SOLID
 70
    1
 71
    0
 91
    1
 92
    0
 93
   10
 72
    1
 10
-106.0019440468413
 20
38.23606797749964
 11
-106.9000000000001
 21
40.99999999999859
 72
    1
 10
-106.9000000000001
 20
40.99999999999859
 11
-107.7980559531591
 21
38.23606797749941
 72
    1
 10
-107.7980559531591
 20
38.23606797749941
 11
-110.7042260651825
 21
38.23606797749941
 72
    1
 10
-110.7042260651825
 20
38.23606797749941
 11
-108.3530850560112
 21
36.52786404499988
 72
    1
 10
-108.3530850560112
 20
36.52786404499988
 11
-109.2511410091703
 21
33.76393202249916
 72
    1
 10
-109.2511410091703
 20
33.76393202249916
 11
-106.8999999999999
 21
35.47213595499881
 72
    1
 10
-106.8999999999999
 20
35.47213595499881
 11
-104.5488589908298
 21
33.76393202249947
 72
    1
 10
-104.5488589908298
 20
33.76393202249947
 11
-105.4469149439893
 21
36.52786404499957
 72
    1
 10
-105.4469149439893
 20
36.52786404499957
 11
-103.0957739348178
 21
38.23606797750005
 72
    1
 10
-103.0957739348178
 20
38.23606797750005
 11
-106.0019440468413
 21
38.23606797749964
 97
    0
 75
    0
 76
    1
 98
    0
  0
HATCH
  5
82
100
AcDbEntity
  8
Red
  6
ByLayer
 62
  256
370
   -1
100
AcDbHatch
 10
0
 20
0
 30
0
210
0
220
0
230
1
  2
SOLID
 70
    1
 71
    0
 91
    1
 92
    0
 93
   10
 72
    1
 10
-89.60194404684128
 20
38.23606797749973
 11
-90.50000000000006
 21
40.99999999999868
 72
    1
 10
-90.50000000000006
 20
40.99999999999868
 11
-91.39805595315906
 21
38.2360679774995
 72
    1
 10
-91.39805595315906
 20
38.2360679774995
 11
-94.30422606518246
 21
38.2360679774995
 72
    1
 10
-94.30422606518246
 20
38.2360679774995
 11
-91.95308505601116
 21
36.52786404499997
 72
    1
 10
-91.95308505601116
 20
36.52786404499997
 11
-92.85114100917026
 21
33.76393202249925
 72
    1
 10
-92.85114100917026
 20
33.76393202249925
 11
-90.49999999999986
 21
35.47213595499889
 72
    1
 10
-90.49999999999986
 20
35.47213595499889
 11
-88.14885899082977
 21
33.76393202249956
 72
    1
 10
-88.14885899082977
 20
33.76393202249956
 11
-89.04691494398926
 21
36.52786404499966
 72
    1
 10
-89.04691494398926
 20
36.52786404499966
 11
-86.69577393481777
 21
38.23606797750014
 72
    1
 10
-86.69577393481777
 20
38.23606797750014
 11
-89.60194404684128
 21
38.23606797749973
 97
    0
 75
    0
 76
    1
 98
    0
  0
HATCH
  5
83
100
AcDbEntity
  8
Red
  6
ByLayer
 62
  256
370
   -1
100
AcDbHatch
 10
0
 20
0
 30
0
210
0
220
0
230
1
  2
SOLID
 70
    1
 71
    0
 91
    1
 92
    0
 93
   10
 72
    1
 10
-73.20194404684128
 20
38.23606797749982
 11
-74.10000000000005
 21
40.99999999999876
 72
    1
 10
-74.10000000000005
 20
40.99999999999876
 11
-74.99805595315905
 21
38.23606797749959
 72
    1
 10
-74.99805595315905
 20
38.23606797749959
 11
-77.90422606518246
 21
38.23606797749959
 72
    1
 10
-77.90422606518246
 20
38.23606797749959
 11
-75.55308505601116
 21
36.52786404500006
 72
    1
 10
-75.55308505601116
 20
36.52786404500006
 11
-76.45114100917026
 21
33.76393202249933
 72
    1
 10
-76.45114100917026
 20
33.76393202249933
 11
-74.09999999999985
 21
35.47213595499898
 72
    1
 10
-74.09999999999985
 20
35.47213595499898
 11
-71.74885899082976
 21
33.76393202249965
 72
    1
 10
-71.74885899082976
 20
33.76393202249965
 11
-72.64691494398926
 21
36.52786404499975
 72
    1
 10
-72.64691494398926
 20
36.52786404499975
 11
-70.29577393481776
 21
38.23606797750023
 72
    1
 10
-70.29577393481776
 20
38.23606797750023
 11
-73.20194404684128
 21
38.23606797749982
 97
    0
 75
    0
 76
    1
 98
    0
  0
HATCH
  5
84
100
AcDbEntity
  8
Red
  6
ByLayer
 62
  256
370
   -1
100
AcDbHatch
 10
0
 20
0
 30
0
210
0
220
0
230
1
  2
SOLID
 70
    1
 71
    0
 91
    1
 92
    0
 93
   10
 72
    1
 10
-56.80194404684126
 20
38.23606797749991
 11
-57.70000000000004
 21
40.99999999999885
 72
    1
 10
-57.70000000000004
 20
40.99999999999885
 11
-58.59805595315905
 21
38.23606797749967
 72
    1
 10
-58.59805595315905
 20
38.23606797749967
 11
-61.50422606518245
 21
38.23606797749967
 72
    1
 10
-61.50422606518245
 20
38.23606797749967
 11
-59.15308505601115
 21
36.52786404500014
 72
    1
 10
-59.15308505601115
 20
36.52786404500014
 11
-60.05114100917025
 21
33.76393202249942
 72
    1
 10
-60.05114100917025
 20
33.76393202249942
 11
-57.69999999999984
 21
35.47213595499908
 72
    1
 10
-57.69999999999984
 20
35.47213595499908
 11
-55.34885899082975
 21
33.76393202249974
 72
    1
 10
-55.34885899082975
 20
33.76393202249974
 11
-56.24691494398925
 21
36.52786404499984
 72
    1
 10
-56.24691494398925
 20
36.52786404499984
 11
-53.89577393481775
 21
38.23606797750031
 72
    1
 10
-53.89577393481775
 20
38.23606797750031
 11
-56.80194404684126
 21
38.23606797749991
 97
    0
 75
    0
 76
    1
 98
    0
  0
HATCH
  5
85
100
AcDbEntity
  8
Red
  6
ByLayer
 62
  256
370
   -1
100
AcDbHatch
 10
0
 20
0
 30
0
210
0
220
0
230
1
  2
SOLID
 70
    1
 71
    0
 91
    1
 92
    0
 93
   10
 72
    1
 10
-40.40194404684126
 20
38.2360679775
 11
-41.30000000000003
 21
40.99999999999894
 72
    1
 10
-41.30000000000003
 20
40.99999999999894
 11
-42.19805595315905
 21
38.23606797749976
 72
    1
 10
-42.19805595315905
 20
38.23606797749976
 11
-45.10422606518244
 21
38.23606797749976
 72
    1
 10
-45.10422606518244
 20
38.23606797749976
 11
-42.75308505601114
 21
36.52786404500024
 72
    1
 10
-42.75308505601114
 20
36.52786404500024
 11
-43.65114100917025
 21
33.76393202249951
 72
    1
 10
-43.65114100917025
 20
33.76393202249951
 11
-41.29999999999983
 21
35.47213595499916
 72
    1
 10
-41.29999999999983
 20
35.47213595499916
 11
-38.94885899082975
 21
33.76393202249983
 72
    1
 10
-38.94885899082975
 20
33.76393202249983
 11
-39.84691494398925
 21
36.52786404499993
 72
    1
 10
-39.84691494398925
 20
36.52786404499993
 11
-37.49577393481775
 21
38.2360679775004
 72
    1
 10
-37.49577393481775
 20
38.2360679775004
 11
-40.40194404684126
 21
38.2360679775
 97
    0
 75
    0
 76
    1
 98
    0
  0
HATCH
  5
86
100
AcDbEntity
  8
Red
  6
ByLayer
 62
  256
370
   -1
100
AcDbHatch
 10
0
 20
0
 30
0
210
0
220
0
230
1
  2
SOLID
 70
    1
 71
    0
 91
    1
 92
    0
 93
    4
 72
    1
 10
123.5
 20
65
 11
123.5
 21
55
 72
    1
 10
123.5
 20
55
 11
-24.7
 21
55
 72
    1
 10
-24.7
 20
55
 11
-24.7
 21
65
 72
    1
 10
-24.7
 20
65
 11
123.5
 21
65
 97
    0
 75
    0
 76
    1
 98
    0
  0
HATCH
  5
87
100
AcDbEntity
  8
Red
  6
ByLayer
 62
  256
370
   -1
100
AcDbHatch
 10
0
 20
0
 30
0
210
0
220
0
230
1
  2
SOLID
 70
    1
 71
    0
 91
    1
 92
    0
 93
    4
 72
    1
 10
123.5
 20
45
 11
123.5
 21
35
 72
    1
 10
123.5
 20
35
 11
-24.7
 21
35
 72
    1
 10
-24.7
 20
35
 11
-24.7
 21
45
 72
    1
 10
-24.7
 20
45
 11
123.5
 21
45
 97
    0
 75
    0
 76
    1
 98
    0
  0
HATCH
  5
88
100
AcDbEntity
  8
Red
  6
ByLayer
 62
  256
370
   -1
100
AcDbHatch
 10
0
 20
0
 30
0
210
0
220
0
230
1
  2
SOLID
 70
    1
 71
    0
 91
    1
 92
    0
 93
    4
 72
    1
 10
123.5
 20
25
 11
123.5
 21
15
 72
    1
 10
123.5
 20
15
 11
-24.7
 21
15
 72
    1
 10
-24.7
 20
15
 11
-24.7
 21
25
 72
    1
 10
-24.7
 20
25
 11
123.5
 21
25
 97
    0
 75
    0
 76
    1
 98
    0
  0
HATCH
  5
89
100
AcDbEntity
  8
Red
  6
ByLayer
 62
  256
370
   -1
100
AcDbHatch
 10
0
 20
0
 30
0
210
0
220
0
230
1
  2
SOLID
 70
    1
 71
    0
 91
    1
 92
    0
 93
    4
 72
    1
 10
123.5
 20
5
 11
123.5
 21
-5
 72
    1
 10
123.5
 20
-5
 11
-24.7
 21
-5
 72
    1
 10
-24.7
 20
-5
 11
-24.7
 21
5
 72
    1
 10
-24.7
 20
5
 11
123.5
 21
5
 97
    0
 75
    0
 76
    1
 98
    0
  0
HATCH
  5
8A
100
AcDbEntity
  8
Red
  6
ByLayer
 62
  256
370
   -1
100
AcDbHatch
 10
0
 20
0
 30
0
210
0
220
0
230
1
  2
SOLID
 70
    1
 71
    0
 91
    1
 92
    0
 93
    4
 72
    1
 10
123.5
 20
-25
 11
123.5
 21
-15
 72
    1
 10
123.5
 20
-15
 11
-123.5
 21
-15
 72
    1
 10
-123.5
 20
-15
 11
-123.5
 21
-25
 72
    1
 10
-123.5
 20
-25
 11
123.5
 21
-25
 97
    0
 75
    0
 76
    1
 98
    0
  0
HATCH
  5
8B
100
AcDbEntity
  8
Red
  6
ByLayer
 62
  256
370
   -1
100
AcDbHatch
 10
0
 20
0
 30
0
210
0
220
0
230
1
  2
SOLID
 70
    1
 71
    0
 91
    1
 92
    0
 93
    4
 72
    1
 10
123.5
 20
-45
 11
123.5
 21
-35
 72
    1
 10
123.5
 20
-35
 11
-123.5
 21
-35
 72
    1
 10
-123.5
 20
-35
 11
-123.5
 21
-45
 72
    1
 10
-123.5
 20
-45
 11
123.5
 21
-45
 97
    0
 75
    0
 76
    1
 98
    0
  0
HATCH
  5
8C
100
AcDbEntity
  8
Red
  6
ByLayer
 62
  256
370
   -1
100
AcDbHatch
 10
0
 20
0
 30
0
210
0
220
0
230
1
  2
SOLID
 70
    1
 71
    0
 91
    1
 92
    0
 93
    4
 72
    1
 10
123.5
 20
-65
 11
123.5
 21
-55
 72
    1
 10
123.5
 20
-55
 11
-123.5
 21
-55
 72
    1
 10
-123.5
 20
-55
 11
-123.5
 21
-65
 72
    1
 10
-123.5
 20
-65
 11
123.5
 21
-65
 97
    0
 75
    0
 76
    1
 98
    0
  0
LINE
  5
8D
100
AcDbEntity
  8
Red
  6
ByLayer
 62
  256
370
   -1
100
AcDbLine
 10
-123.5
 20
-55
 11
-123.5
 21
-65
  0
LINE
  5
8E
100
AcDbEntity
  8
Red
  6
ByLayer
 62
  256
370
   -1
100
AcDbLine
 10
123.5
 20
-65
 11
123.5
 21
-55
  0
LINE
  5
8F
100
AcDbEntity
  8
Red
  6
ByLayer
 62
  256
370
   -1
100
AcDbLine
 10
123.5
 20
-55
 11
-123.5
 21
-55
  0
LINE
  5
90
100
AcDbEntity
  8
Red
  6
ByLayer
 62
  256
370
   -1
100
AcDbLine
 10
-123.5
 20
-35
 11
-123.5
 21
-45
  0
LINE
  5
91
100
AcDbEntity
  8
Red
  6
ByLayer
 62
  256
370
   -1
100
AcDbLine
 10
-123.5
 20
-45
 11
123.5
 21
-45
  0
LINE
  5
92
100
AcDbEntity
  8
Red
  6
ByLayer
 62
  256
370
   -1
100
AcDbLine
 10
123.5
 20
-45
 11
123.5
 21
-35
  0
LINE
  5
93
100
AcDbEntity
  8
Red
  6
ByLayer
 62
  256
370
   -1
100
AcDbLine
 10
123.5
 20
-35
 11
-123.5
 21
-35
  0
LINE
  5
94
100
AcDbEntity
  8
Red
  6
ByLayer
 62
  256
370
   -1
100
AcDbLine
 10
-123.5
 20
-15
 11
-123.5
 21
-25
  0
LINE
  5
95
100
AcDbEntity
  8
Red
  6
ByLayer
 62
  256
370
   -1
100
AcDbLine
 10
-123.5
 20
-25
 11
123.5
 21
-25
  0
LINE
  5
96
100
AcDbEntity
  8
Red
  6
ByLayer
 62
  256
370
   -1
100
AcDbLine
 10
123.5
 20
-25
 11
123.5
 21
-15
  0
LINE
  5
97
100
AcDbEntity
  8
Red
  6
ByLayer
 62
  256
370
   -1
100
AcDbLine
 10
123.5
 20
-15
 11
-123.5
 21
-15
  0
LINE
  5
98
100
AcDbEntity
  8
Red
  6
ByLayer
 62
  256
370
   -1
100
AcDbLine
 10
-24.7
 20
-5
 11
-24.7
 21
5
  0
LINE
  5
99
100
AcDbEntity
  8
Red
  6
ByLayer
 62
  256
370
   -1
100
AcDbLine
 10
-24.7
 20
5
 11
123.5
 21
5
  0
LINE
  5
9A
100
AcDbEntity
  8
Red
  6
ByLayer
 62
  256
370
   -1
100
AcDbLine
 10
123.5
 20
5
 11
123.5
 21
-5
  0
LINE
  5
9B
100
AcDbEntity
  8
Red
  6
ByLayer
 62
  256
370
   -1
100
AcDbLine
 10
-24.7
 20
-5
 11
123.5
 21
-5
  0
LINE
  5
9C
100
AcDbEntity
  8
Red
  6
ByLayer
 62
  256
370
   -1
100
AcDbLine
 10
-24.7
 20
15
 11
-24.7
 21
25
  0
LINE
  5
9D
100
AcDbEntity
  8
Red
  6
ByLayer
 62
  256
370
   -1
100
AcDbLine
 10
-24.7
 20
25
 11
123.5
 21
25
  0
LINE
  5
9E
100
AcDbEntity
  8
Red
  6
ByLayer
 62
  256
370
   -1
100
AcDbLine
 10
123.5
 20
25
 11
123.5
 21
15
  0
LINE
  5
9F
100
AcDbEntity
  8
Red
  6
ByLayer
 62
  256
370
   -1
100
AcDbLine
 10
-24.7
 20
15
 11
123.5
 21
15
  0
LINE
  5
A0
100
AcDbEntity
  8
Red
  6
ByLayer
 62
  256
370
   -1
100
AcDbLine
 10
-24.7
 20
35
 11
-24.7
 21
45
  0
LINE
  5
A1
100
AcDbEntity
  8
Red
  6
ByLayer
 62
  256
370
   -1
100
AcDbLine
 10
-24.7
 20
45
 11
123.5
 21
45
  0
LINE
  5
A2
100
AcDbEntity
  8
Red
  6
ByLayer
 62
  256
370
   -1
100
AcDbLine
 10
123.5
 20
45
 11
123.5
 21
35
  0
LINE
  5
A3
100
AcDbEntity
  8
Red
  6
ByLayer
 62
  256
370
   -1
100
AcDbLine
 10
-24.7
 20
35
 11
123.5
 21
35
  0
LINE
  5
A4
100
AcDbEntity
  8
Red
  6
ByLayer
 62
  256
370
   -1
100
AcDbLine
 10
-24.7
 20
55
 11
-24.7
 21
65
  0
LINE
  5
A5
100
AcDbEntity
  8
Red
  6
ByLayer
 62
  256
370
   -1
100
AcDbLine
 10
-24.7
 20
65
 11
123.5
 21
65
  0
LINE
  5
A6
100
AcDbEntity
  8
Red
  6
ByLayer
 62
  256
370
   -1
100
AcDbLine
 10
123.5
 20
65
 11
123.5
 21
55
  0
LINE
  5
A7
100
AcDbEntity
  8
Red
  6
ByLayer
 62
  256
370
   -1
100
AcDbLine
 10
-24.7
 20
55
 11
123.5
 21
55
  0
LINE
  5
A8
100
AcDbEntity
  8
Black
  6
ByLayer
 62
  256
370
   -1
100
AcDbLine
 10
-24.7
 20
65
 11
-123.5
 21
65
  0
LINE
  5
A9
100
AcDbEntity
  8
Black
  6
ByLayer
 62
  256
370
   -1
100
AcDbLine
 10
-123.5
 20
-5
 11
-123.5
 21
65
  0
LINE
  5
AA
100
AcDbEntity
  8
0
  6
ByLayer
 62
  256
370
   -1
100
AcDbLine
 10
-123.5
 20
-65
 11
-123.5
 21
-115
  0
LINE
  5
AB
100
AcDbEntity
  8
0
  6
ByLayer
 62
  256
370
   -1
100
AcDbLine
 10
123.5
 20
-65
 11
123.5
 21
-115
  0
LINE
  5
AC
100
AcDbEntity
  8
0
  6
ByLayer
 62
  256
370
   -1
100
AcDbLine
 10
-123.5
 20
-115
 11
123.5
 21
-115
  0
LWPOLYLINE
  5
AD
100
AcDbEntity
  8
Red
  6
ByLayer
 62
  256
370
   -1
100
AcDbPolyline
 90
   10
 70
    1
 43
0
 10
-33.09999999999989
 20
0.4721359549994375
 10
-30.7488589908298
 20
-1.236067977499893
 10
-31.6469149439893
 20
1.527864045000207
 10
-29.2957739348178
 20
3.236067977500682
 10
-32.20194404684131
 20
3.236067977500277
 10
-33.10000000000009
 20
5.999999999999218
 10
-33.9980559531591
 20
3.236067977500042
 10
-36.9042260651825
 20
3.236067977500042
 10
-34.5530850560112
 20
1.527864045000513
 10
-35.4511410091703
 20
-1.236067977500213
  0
LWPOLYLINE
  5
AE
100
AcDbEntity
  8
Red
  6
ByLayer
 62
  256
370
   -1
100
AcDbPolyline
 90
   10
 70
    1
 43
0
 10
-49.49999999999989
 20
0.4721359549993487
 10
-47.14885899082981
 20
-1.236067977499982
 10
-48.04691494398931
 20
1.527864045000118
 10
-45.69577393481781
 20
3.236067977500593
 10
-48.60194404684132
 20
3.236067977500188
 10
-49.50000000000009
 20
5.99999999999913
 10
-50.39805595315911
 20
3.236067977499953
 10
-53.3042260651825
 20
3.236067977499953
 10
-50.9530850560112
 20
1.527864045000424
 10
-51.85114100917031
 20
-1.236067977500302
  0
LWPOLYLINE
  5
AF
100
AcDbEntity
  8
Red
  6
ByLayer
 62
  256
370
   -1
100
AcDbPolyline
 90
   10
 70
    1
 43
0
 10
-65.89999999999989
 20
0.4721359549992599
 10
-63.54885899082981
 20
-1.236067977500071
 10
-64.44691494398931
 20
1.527864045000029
 10
-62.09577393481781
 20
3.236067977500504
 10
-65.00194404684132
 20
3.236067977500099
 10
-65.90000000000009
 20
5.999999999999041
 10
-66.79805595315912
 20
3.236067977499864
 10
-69.70422606518251
 20
3.236067977499864
 10
-67.35308505601121
 20
1.527864045000335
 10
-68.25114100917031
 20
-1.236067977500391
  0
LWPOLYLINE
  5
B0
100
AcDbEntity
  8
Red
  6
ByLayer
 62
  256
370
   -1
100
AcDbPolyline
 90
   10
 70
    1
 43
0
 10
-82.2999999999999
 20
0.472135954999171
 10
-79.94885899082982
 20
-1.23606797750016
 10
-80.84691494398932
 20
1.527864044999941
 10
-78.49577393481782
 20
3.236067977500416
 10
-81.40194404684132
 20
3.236067977500011
 10
-82.3000000000001
 20
5.999999999998952
 10
-83.19805595315913
 20
3.236067977499776
 10
-86.10422606518252
 20
3.236067977499776
 10
-83.75308505601122
 20
1.527864045000247
 10
-84.65114100917032
 20
-1.236067977500479
  0
LWPOLYLINE
  5
B1
100
AcDbEntity
  8
Red
  6
ByLayer
 62
  256
370
   -1
100
AcDbPolyline
 90
   10
 70
    1
 43
0
 10
-98.6999999999999
 20
0.4721359549990822
 10
-96.34885899082983
 20
-1.236067977500248
 10
-97.24691494398932
 20
1.527864044999852
 10
-94.89577393481783
 20
3.236067977500327
 10
-97.80194404684133
 20
3.236067977499922
 10
-98.7000000000001
 20
5.999999999998863
 10
-99.59805595315913
 20
3.236067977499687
 10
-102.5042260651825
 20
3.236067977499687
 10
-100.1530850560112
 20
1.527864045000158
 10
-101.0511410091703
 20
-1.236067977500568
  0
LWPOLYLINE
  5
B2
100
AcDbEntity
  8
Red
  6
ByLayer
 62
  256
370
   -1
100
AcDbPolyline
 90
   10
 70
    1
 43
0
 10
-115.0999999999999
 20
0.4721359549989934
 10
-112.7488589908298
 20
-1.236067977500337
 10
-113.6469149439893
 20
1.527864044999763
 10
-111.2957739348178
 20
3.236067977500238
 10
-114.2019440468413
 20
3.236067977499833
 10
-115.1000000000001
 20
5.999999999998774
 10
-115.9980559531591
 20
3.236067977499598
 10
-118.9042260651825
 20
3.236067977499598
 10
-116.5530850560112
 20
1.527864045000069
 10
-117.4511410091703
 20
-1.236067977500657
  0
LWPOLYLINE
  5
B3
100
AcDbEntity
  8
Red
  6
ByLayer
 62
  256
370
   -1
100
AcDbPolyline
 90
   10
 70
    1
 43
0
 10
-41.29999999999989
 20
7.472135954999338
 10
-38.94885899082981
 20
5.763932022500008
 10
-39.8469149439893
 20
8.527864045000108
 10
-37.49577393481781
 20
10.23606797750058
 10
-40.40194404684132
 20
10.23606797750018
 10
-41.30000000000009
 20
12.99999999999912
 10
-42.19805595315911
 20
10.23606797749994
 10
-45.1042260651825
 20
10.23606797749994
 10
-42.7530850560112
 20
8.527864045000413
 10
-43.6511410091703
 20
5.763932022499688
  0
LWPOLYLINE
  5
B4
100
AcDbEntity
  8
Red
  6
ByLayer
 62
  256
370
   -1
100
AcDbPolyline
 90
   10
 70
    1
 43
0
 10
-57.6999999999999
 20
7.472135954999249
 10
-55.34885899082981
 20
5.763932022499919
 10
-56.24691494398931
 20
8.527864045000019
 10
-53.89577393481781
 20
10.23606797750049
 10
-56.80194404684132
 20
10.23606797750009
 10
-57.7000000000001
 20
12.99999999999903
 10
-58.59805595315911
 20
10.23606797749985
 10
-61.50422606518251
 20
10.23606797749985
 10
-59.15308505601121
 20
8.527864045000324
 10
-60.05114100917031
 20
5.763932022499599
  0
LWPOLYLINE
  5
B5
100
AcDbEntity
  8
Red
  6
ByLayer
 62
  256
370
   -1
100
AcDbPolyline
 90
   10
 70
    1
 43
0
 10
-74.09999999999991
 20
7.47213595499916
 10
-71.74885899082982
 20
5.76393202249983
 10
-72.64691494398932
 20
8.52786404499993
 10
-70.29577393481782
 20
10.2360679775004
 10
-73.20194404684133
 20
10.2360679775
 10
-74.10000000000011
 20
12.99999999999894
 10
-74.99805595315911
 20
10.23606797749976
 10
-77.90422606518251
 20
10.23606797749976
 10
-75.55308505601121
 20
8.527864045000236
 10
-76.45114100917031
 20
5.76393202249951
  0
LWPOLYLINE
  5
B6
100
AcDbEntity
  8
Red
  6
ByLayer
 62
  256
370
   -1
100
AcDbPolyline
 90
   10
 70
    1
 43
0
 10
-90.49999999999991
 20
7.472135954999072
 10
-88.14885899082982
 20
5.763932022499741
 10
-89.04691494398932
 20
8.527864044999841
 10
-86.69577393481782
 20
10.23606797750032
 10
-89.60194404684134
 20
10.23606797749991
 10
-90.50000000000011
 20
12.99999999999885
 10
-91.39805595315912
 20
10.23606797749968
 10
-94.30422606518252
 20
10.23606797749968
 10
-91.95308505601122
 20
8.527864045000147
 10
-92.85114100917032
 20
5.763932022499421
  0
LWPOLYLINE
  5
B7
100
AcDbEntity
  8
Red
  6
ByLayer
 62
  256
370
   -1
100
AcDbPolyline
 90
   10
 70
    1
 43
0
 10
-106.8999999999999
 20
7.472135954998983
 10
-104.5488589908298
 20
5.763932022499652
 10
-105.4469149439893
 20
8.527864044999752
 10
-103.0957739348178
 20
10.23606797750023
 10
-106.0019440468413
 20
10.23606797749982
 10
-106.9000000000001
 20
12.99999999999876
 10
-107.7980559531591
 20
10.23606797749959
 10
-110.7042260651825
 20
10.23606797749959
 10
-108.3530850560112
 20
8.527864045000058
 10
-109.2511410091703
 20
5.763932022499333
  0
LWPOLYLINE
  5
B8
100
AcDbEntity
  8
Red
  6
ByLayer
 62
  256
370
   -1
100
AcDbPolyline
 90
   10
 70
    1
 43
0
 10
-33.09999999999986
 20
14.47213595499935
 10
-30.74885899082977
 20
12.76393202250002
 10
-31.64691494398927
 20
15.52786404500012
 10
-29.29577393481777
 20
17.23606797750059
 10
-32.20194404684128
 20
17.23606797750019
 10
-33.10000000000006
 20
19.99999999999913
 10
-33.99805595315907
 20
17.23606797749995
 10
-36.90422606518247
 20
17.23606797749995
 10
-34.55308505601117
 20
15.52786404500042
 10
-35.45114100917027
 20
12.7639320224997
  0
LWPOLYLINE
  5
B9
100
AcDbEntity
  8
Red
  6
ByLayer
 62
  256
370
   -1
100
AcDbPolyline
 90
   10
 70
    1
 43
0
 10
-49.49999999999986
 20
14.47213595499926
 10
-47.14885899082978
 20
12.76393202249993
 10
-48.04691494398928
 20
15.52786404500003
 10
-45.69577393481778
 20
17.2360679775005
 10
-48.60194404684129
 20
17.2360679775001
 10
-49.50000000000006
 20
19.99999999999904
 10
-50.39805595315908
 20
17.23606797749986
 10
-53.30422606518248
 20
17.23606797749986
 10
-50.95308505601118
 20
15.52786404500034
 10
-51.85114100917028
 20
12.76393202249961
  0
LWPOLYLINE
  5
BA
100
AcDbEntity
  8
Red
  6
ByLayer
 62
  256
370
   -1
100
AcDbPolyline
 90
   10
 70
    1
 43
0
 10
-65.89999999999986
 20
14.47213595499917
 10
-63.54885899082979
 20
12.76393202249984
 10
-64.44691494398928
 20
15.52786404499994
 10
-62.09577393481779
 20
17.23606797750042
 10
-65.00194404684129
 20
17.23606797750001
 10
-65.90000000000006
 20
19.99999999999895
 10
-66.79805595315909
 20
17.23606797749978
 10
-69.70422606518248
 20
17.23606797749978
 10
-67.35308505601118
 20
15.52786404500025
 10
-68.25114100917028
 20
12.76393202249952
  0
LWPOLYLINE
  5
BB
100
AcDbEntity
  8
Red
  6
ByLayer
 62
  256
370
   -1
100
AcDbPolyline
 90
   10
 70
    1
 43
0
 10
-82.29999999999987
 20
14.47213595499908
 10
-79.94885899082979
 20
12.76393202249975
 10
-80.84691494398929
 20
15.52786404499985
 10
-78.49577393481779
 20
17.23606797750033
 10
-81.40194404684129
 20
17.23606797749992
 10
-82.30000000000007
 20
19.99999999999886
 10
-83.1980559531591
 20
17.23606797749969
 10
-86.10422606518249
 20
17.23606797749969
 10
-83.75308505601119
 20
15.52786404500016
 10
-84.65114100917029
 20
12.76393202249943
  0
LWPOLYLINE
  5
BC
100
AcDbEntity
  8
Red
  6
ByLayer
 62
  256
370
   -1
100
AcDbPolyline
 90
   10
 70
    1
 43
0
 10
-98.69999999999987
 20
14.47213595499899
 10
-96.3488589908298
 20
12.76393202249966
 10
-97.2469149439893
 20
15.52786404499976
 10
-94.8957739348178
 20
17.23606797750024
 10
-97.8019440468413
 20
17.23606797749983
 10
-98.70000000000007
 20
19.99999999999877
 10
-99.5980559531591
 20
17.2360679774996
 10
-102.5042260651825
 20
17.2360679774996
 10
-100.1530850560112
 20
15.52786404500007
 10
-101.0511410091703
 20
12.76393202249934
  0
LWPOLYLINE
  5
BD
100
AcDbEntity
  8
Red
  6
ByLayer
 62
  256
370
   -1
100
AcDbPolyline
 90
   10
 70
    1
 43
0
 10
-115.0999999999999
 20
14.4721359549989
 10
-112.7488589908298
 20
12.76393202249957
 10
-113.6469149439893
 20
15.52786404499967
 10
-111.2957739348178
 20
17.23606797750015
 10
-114.2019440468413
 20
17.23606797749974
 10
-115.1000000000001
 20
19.99999999999869
 10
-115.9980559531591
 20
17.23606797749951
 10
-118.9042260651825
 20
17.23606797749951
 10
-116.5530850560112
 20
15.52786404499998
 10
-117.4511410091703
 20
12.76393202249925
  0
LWPOLYLINE
  5
BE
100
AcDbEntity
  8
Red
  6
ByLayer
 62
  256
370
   -1
100
AcDbPolyline
 90
   10
 70
    1
 43
0
 10
-41.29999999999986
 20
21.47213595499925
 10
-38.94885899082978
 20
19.76393202249992
 10
-39.84691494398928
 20
22.52786404500002
 10
-37.49577393481778
 20
24.23606797750049
 10
-40.40194404684129
 20
24.23606797750009
 10
-41.30000000000006
 20
26.99999999999903
 10
-42.19805595315908
 20
24.23606797749985
 10
-45.10422606518247
 20
24.23606797749985
 10
-42.75308505601117
 20
22.52786404500032
 10
-43.65114100917027
 20
19.7639320224996
  0
LWPOLYLINE
  5
BF
100
AcDbEntity
  8
Red
  6
ByLayer
 62
  256
370
   -1
100
AcDbPolyline
 90
   10
 70
    1
 43
0
 10
-57.69999999999987
 20
21.47213595499916
 10
-55.34885899082978
 20
19.76393202249983
 10
-56.24691494398928
 20
22.52786404499993
 10
-53.89577393481778
 20
24.2360679775004
 10
-56.80194404684129
 20
24.2360679775
 10
-57.70000000000007
 20
26.99999999999894
 10
-58.59805595315908
 20
24.23606797749976
 10
-61.50422606518248
 20
24.23606797749976
 10
-59.15308505601118
 20
22.52786404500024
 10
-60.05114100917028
 20
19.76393202249951
  0
LWPOLYLINE
  5
C0
100
AcDbEntity
  8
Red
  6
ByLayer
 62
  256
370
   -1
100
AcDbPolyline
 90
   10
 70
    1
 43
0
 10
-74.09999999999988
 20
21.47213595499907
 10
-71.74885899082979
 20
19.76393202249974
 10
-72.64691494398929
 20
22.52786404499984
 10
-70.29577393481779
 20
24.23606797750032
 10
-73.20194404684131
 20
24.23606797749991
 10
-74.10000000000008
 20
26.99999999999885
 10
-74.99805595315908
 20
24.23606797749968
 10
-77.90422606518248
 20
24.23606797749968
 10
-75.55308505601118
 20
22.52786404500015
 10
-76.45114100917029
 20
19.76393202249942
  0
LWPOLYLINE
  5
C1
100
AcDbEntity
  8
Red
  6
ByLayer
 62
  256
370
   -1
100
AcDbPolyline
 90
   10
 70
    1
 43
0
 10
-90.49999999999989
 20
21.47213595499898
 10
-88.14885899082979
 20
19.76393202249965
 10
-89.04691494398929
 20
22.52786404499975
 10
-86.69577393481779
 20
24.23606797750023
 10
-89.60194404684131
 20
24.23606797749982
 10
-90.50000000000009
 20
26.99999999999876
 10
-91.39805595315909
 20
24.23606797749959
 10
-94.30422606518249
 20
24.23606797749959
 10
-91.95308505601119
 20
22.52786404500006
 10
-92.85114100917029
 20
19.76393202249933
  0
LWPOLYLINE
  5
C2
100
AcDbEntity
  8
Red
  6
ByLayer
 62
  256
370
   -1
100
AcDbPolyline
 90
   10
 70
    1
 43
0
 10
-106.8999999999999
 20
21.47213595499889
 10
-104.5488589908298
 20
19.76393202249956
 10
-105.4469149439893
 20
22.52786404499966
 10
-103.0957739348178
 20
24.23606797750014
 10
-106.0019440468413
 20
24.23606797749973
 10
-106.9000000000001
 20
26.99999999999867
 10
-107.7980559531591
 20
24.2360679774995
 10
-110.7042260651825
 20
24.2360679774995
 10
-108.3530850560112
 20
22.52786404499997
 10
-109.2511410091703
 20
19.76393202249924
  0
LWPOLYLINE
  5
C3
100
AcDbEntity
  8
Red
  6
ByLayer
 62
  256
370
   -1
100
AcDbPolyline
 90
   10
 70
    1
 43
0
 10
-33.09999999999983
 20
28.47213595499926
 10
-30.74885899082974
 20
26.76393202249993
 10
-31.64691494398924
 20
29.52786404500003
 10
-29.29577393481774
 20
31.2360679775005
 10
-32.20194404684126
 20
31.2360679775001
 10
-33.10000000000003
 20
33.99999999999904
 10
-33.99805595315905
 20
31.23606797749986
 10
-36.90422606518244
 20
31.23606797749986
 10
-34.55308505601114
 20
29.52786404500034
 10
-35.45114100917024
 20
26.76393202249961
  0
LWPOLYLINE
  5
C4
100
AcDbEntity
  8
Red
  6
ByLayer
 62
  256
370
   -1
100
AcDbPolyline
 90
   10
 70
    1
 43
0
 10
-49.49999999999984
 20
28.47213595499917
 10
-47.14885899082975
 20
26.76393202249984
 10
-48.04691494398925
 20
29.52786404499994
 10
-45.69577393481775
 20
31.23606797750042
 10
-48.60194404684126
 20
31.23606797750001
 10
-49.50000000000004
 20
33.99999999999895
 10
-50.39805595315905
 20
31.23606797749978
 10
-53.30422606518245
 20
31.23606797749978
 10
-50.95308505601115
 20
29.52786404500025
 10
-51.85114100917025
 20
26.76393202249952
  0
LWPOLYLINE
  5
C5
100
AcDbEntity
  8
Red
  6
ByLayer
 62
  256
370
   -1
100
AcDbPolyline
 90
   10
 70
    1
 43
0
 10
-65.89999999999984
 20
28.47213595499908
 10
-63.54885899082976
 20
26.76393202249975
 10
-64.44691494398926
 20
29.52786404499985
 10
-62.09577393481776
 20
31.23606797750033
 10
-65.00194404684126
 20
31.23606797749992
 10
-65.90000000000003
 20
33.99999999999886
 10
-66.79805595315906
 20
31.23606797749969
 10
-69.70422606518245
 20
31.23606797749969
 10
-67.35308505601115
 20
29.52786404500016
 10
-68.25114100917025
 20
26.76393202249943
  0
LWPOLYLINE
  5
C6
100
AcDbEntity
  8
Red
  6
ByLayer
 62
  256
370
   -1
100
AcDbPolyline
 90
   10
 70
    1
 43
0
 10
-82.29999999999984
 20
28.47213595499899
 10
-79.94885899082976
 20
26.76393202249966
 10
-80.84691494398926
 20
29.52786404499976
 10
-78.49577393481776
 20
31.23606797750024
 10
-81.40194404684127
 20
31.23606797749983
 10
-82.30000000000004
 20
33.99999999999878
 10
-83.19805595315907
 20
31.2360679774996
 10
-86.10422606518246
 20
31.2360679774996
 10
-83.75308505601116
 20
29.52786404500007
 10
-84.65114100917026
 20
26.76393202249934
  0
LWPOLYLINE
  5
C7
100
AcDbEntity
  8
Red
  6
ByLayer
 62
  256
370
   -1
100
AcDbPolyline
 90
   10
 70
    1
 43
0
 10
-98.69999999999985
 20
28.4721359549989
 10
-96.34885899082977
 20
26.76393202249957
 10
-97.24691494398927
 20
29.52786404499967
 10
-94.89577393481777
 20
31.23606797750015
 10
-97.80194404684127
 20
31.23606797749974
 10
-98.70000000000005
 20
33.99999999999869
 10
-99.59805595315908
 20
31.23606797749951
 10
-102.5042260651825
 20
31.23606797749951
 10
-100.1530850560112
 20
29.52786404499998
 10
-101.0511410091703
 20
26.76393202249925
  0
LWPOLYLINE
  5
C8
100
AcDbEntity
  8
Red
  6
ByLayer
 62
  256
370
   -1
100
AcDbPolyline
 90
   10
 70
    1
 43
0
 10
-115.0999999999999
 20
28.47213595499882
 10
-112.7488589908298
 20
26.76393202249949
 10
-113.6469149439893
 20
29.52786404499959
 10
-111.2957739348178
 20
31.23606797750006
 10
-114.2019440468413
 20
31.23606797749965
 10
-115.1000000000001
 20
33.99999999999859
 10
-115.9980559531591
 20
31.23606797749942
 10
-118.9042260651825
 20
31.23606797749942
 10
-116.5530850560112
 20
29.52786404499989
 10
-117.4511410091703
 20
26.76393202249917
  0
LWPOLYLINE
  5
C9
100
AcDbEntity
  8
Red
  6
ByLayer
 62
  256
370
   -1
100
AcDbPolyline
 90
   10
 70
    1
 43
0
 10
-41.29999999999983
 20
35.47213595499916
 10
-38.94885899082975
 20
33.76393202249983
 10
-39.84691494398925
 20
36.52786404499993
 10
-37.49577393481775
 20
38.2360679775004
 10
-40.40194404684126
 20
38.2360679775
 10
-41.30000000000003
 20
40.99999999999894
 10
-42.19805595315905
 20
38.23606797749976
 10
-45.10422606518244
 20
38.23606797749976
 10
-42.75308505601114
 20
36.52786404500024
 10
-43.65114100917025
 20
33.76393202249951
  0
LWPOLYLINE
  5
CA
100
AcDbEntity
  8
Red
  6
ByLayer
 62
  256
370
   -1
100
AcDbPolyline
 90
   10
 70
    1
 43
0
 10
-57.69999999999984
 20
35.47213595499908
 10
-55.34885899082975
 20
33.76393202249974
 10
-56.24691494398925
 20
36.52786404499984
 10
-53.89577393481775
 20
38.23606797750031
 10
-56.80194404684126
 20
38.23606797749991
 10
-57.70000000000004
 20
40.99999999999885
 10
-58.59805595315905
 20
38.23606797749967
 10
-61.50422606518245
 20
38.23606797749967
 10
-59.15308505601115
 20
36.52786404500014
 10
-60.05114100917025
 20
33.76393202249942
  0
LWPOLYLINE
  5
CB
100
AcDbEntity
  8
Red
  6
ByLayer
 62
  256
370
   -1
100
AcDbPolyline
 90
   10
 70
    1
 43
0
 10
-74.09999999999985
 20
35.47213595499898
 10
-71.74885899082976
 20
33.76393202249965
 10
-72.64691494398926
 20
36.52786404499975
 10
-70.29577393481776
 20
38.23606797750023
 10
-73.20194404684128
 20
38.23606797749982
 10
-74.10000000000005
 20
40.99999999999876
 10
-74.99805595315905
 20
38.23606797749959
 10
-77.90422606518246
 20
38.23606797749959
 10
-75.55308505601116
 20
36.52786404500006
 10
-76.45114100917026
 20
33.76393202249933
  0
LWPOLYLINE
  5
CC
100
AcDbEntity
  8
Red
  6
ByLayer
 62
  256
370
   -1
100
AcDbPolyline
 90
   10
 70
    1
 43
0
 10
-90.49999999999986
 20
35.47213595499889
 10
-88.14885899082977
 20
33.76393202249956
 10
-89.04691494398926
 20
36.52786404499966
 10
-86.69577393481777
 20
38.23606797750014
 10
-89.60194404684128
 20
38.23606797749973
 10
-90.50000000000006
 20
40.99999999999868
 10
-91.39805595315906
 20
38.2360679774995
 10
-94.30422606518246
 20
38.2360679774995
 10
-91.95308505601116
 20
36.52786404499997
 10
-92.85114100917026
 20
33.76393202249925
  0
LWPOLYLINE
  5
CD
100
AcDbEntity
  8
Red
  6
ByLayer
 62
  256
370
   -1
100
AcDbPolyline
 90
   10
 70
    1
 43
0
 10
-106.8999999999999
 20
35.47213595499881
 10
-104.5488589908298
 20
33.76393202249947
 10
-105.4469149439893
 20
36.52786404499957
 10
-103.0957739348178
 20
38.23606797750005
 10
-106.0019440468413
 20
38.23606797749964
 10
-106.9000000000001
 20
40.99999999999859
 10
-107.7980559531591
 20
38.23606797749941
 10
-110.7042260651825
 20
38.23606797749941
 10
-108.3530850560112
 20
36.52786404499988
 10
-109.2511410091703
 20
33.76393202249916
  0
LWPOLYLINE
  5
CE
100
AcDbEntity
  8
Red
  6
ByLayer
 62
  256
370
   -1
100
AcDbPolyline
 90
   10
 70
    1
 43
0
 10
-33.0999999999998
 20
42.47213595499917
 10
-30.74885899082971
 20
40.76393202249984
 10
-31.64691494398922
 20
43.52786404499994
 10
-29.29577393481771
 20
45.23606797750041
 10
-32.20194404684123
 20
45.23606797750001
 10
-33.1
 20
47.99999999999895
 10
-33.99805595315902
 20
45.23606797749977
 10
-36.90422606518241
 20
45.23606797749977
 10
-34.55308505601111
 20
43.52786404500024
 10
-35.45114100917021
 20
40.76393202249952
  0
LWPOLYLINE
  5
CF
100
AcDbEntity
  8
Red
  6
ByLayer
 62
  256
370
   -1
100
AcDbPolyline
 90
   10
 70
    1
 43
0
 10
-49.49999999999981
 20
42.47213595499908
 10
-47.14885899082972
 20
40.76393202249975
 10
-48.04691494398922
 20
43.52786404499985
 10
-45.69577393481772
 20
45.23606797750033
 10
-48.60194404684123
 20
45.23606797749992
 10
-49.50000000000001
 20
47.99999999999886
 10
-50.39805595315902
 20
45.23606797749969
 10
-53.30422606518242
 20
45.23606797749969
 10
-50.95308505601112
 20
43.52786404500016
 10
-51.85114100917022
 20
40.76393202249943
  0
LWPOLYLINE
  5
D0
100
AcDbEntity
  8
Red
  6
ByLayer
 62
  256
370
   -1
100
AcDbPolyline
 90
   10
 70
    1
 43
0
 10
-65.89999999999981
 20
42.47213595499899
 10
-63.54885899082973
 20
40.76393202249966
 10
-64.44691494398923
 20
43.52786404499976
 10
-62.09577393481773
 20
45.23606797750024
 10
-65.00194404684123
 20
45.23606797749983
 10
-65.90000000000001
 20
47.99999999999878
 10
-66.79805595315904
 20
45.2360679774996
 10
-69.70422606518243
 20
45.2360679774996
 10
-67.35308505601112
 20
43.52786404500007
 10
-68.25114100917023
 20
40.76393202249935
  0
LWPOLYLINE
  5
D1
100
AcDbEntity
  8
Red
  6
ByLayer
 62
  256
370
   -1
100
AcDbPolyline
 90
   10
 70
    1
 43
0
 10
-82.29999999999981
 20
42.4721359549989
 10
-79.94885899082973
 20
40.76393202249957
 10
-80.84691494398923
 20
43.52786404499967
 10
-78.49577393481773
 20
45.23606797750015
 10
-81.40194404684124
 20
45.23606797749974
 10
-82.30000000000001
 20
47.99999999999869
 10
-83.19805595315904
 20
45.23606797749951
 10
-86.10422606518243
 20
45.23606797749951
 10
-83.75308505601113
 20
43.52786404499998
 10
-84.65114100917023
 20
40.76393202249925
  0
LWPOLYLINE
  5
D2
100
AcDbEntity
  8
Red
  6
ByLayer
 62
  256
370
   -1
100
AcDbPolyline
 90
   10
 70
    1
 43
0
 10
-98.69999999999982
 20
42.47213595499882
 10
-96.34885899082974
 20
40.76393202249949
 10
-97.24691494398924
 20
43.52786404499959
 10
-94.89577393481774
 20
45.23606797750006
 10
-97.80194404684124
 20
45.23606797749966
 10
-98.70000000000002
 20
47.99999999999859
 10
-99.59805595315905
 20
45.23606797749942
 10
-102.5042260651824
 20
45.23606797749942
 10
-100.1530850560111
 20
43.52786404499989
 10
-101.0511410091702
 20
40.76393202249916
  0
LWPOLYLINE
  5
D3
100
AcDbEntity
  8
Red
  6
ByLayer
 62
  256
370
   -1
100
AcDbPolyline
 90
   10
 70
    1
 43
0
 10
-115.0999999999998
 20
42.47213595499873
 10
-112.7488589908297
 20
40.7639320224994
 10
-113.6469149439892
 20
43.5278640449995
 10
-111.2957739348177
 20
45.23606797749997
 10
-114.2019440468412
 20
45.23606797749957
 10
-115.1
 20
47.99999999999851
 10
-115.9980559531591
 20
45.23606797749933
 10
-118.9042260651824
 20
45.23606797749933
 10
-116.5530850560111
 20
43.5278640449998
 10
-117.4511410091702
 20
40.76393202249908
  0
LWPOLYLINE
  5
D4
100
AcDbEntity
  8
Red
  6
ByLayer
 62
  256
370
   -1
100
AcDbPolyline
 90
   10
 70
    1
 43
0
 10
-41.29999999999981
 20
49.47213595499908
 10
-38.94885899082972
 20
47.76393202249974
 10
-39.84691494398922
 20
50.52786404499984
 10
-37.49577393481772
 20
52.23606797750031
 10
-40.40194404684123
 20
52.23606797749991
 10
-41.3
 20
54.99999999999885
 10
-42.19805595315902
 20
52.23606797749967
 10
-45.10422606518242
 20
52.23606797749967
 10
-42.75308505601112
 20
50.52786404500014
 10
-43.65114100917022
 20
47.76393202249942
  0
LWPOLYLINE
  5
D5
100
AcDbEntity
  8
Red
  6
ByLayer
 62
  256
370
   -1
100
AcDbPolyline
 90
   10
 70
    1
 43
0
 10
-57.69999999999981
 20
49.47213595499898
 10
-55.34885899082973
 20
47.76393202249965
 10
-56.24691494398922
 20
50.52786404499975
 10
-53.89577393481773
 20
52.23606797750023
 10
-56.80194404684124
 20
52.23606797749982
 10
-57.70000000000001
 20
54.99999999999876
 10
-58.59805595315903
 20
52.23606797749959
 10
-61.50422606518242
 20
52.23606797749959
 10
-59.15308505601112
 20
50.52786404500006
 10
-60.05114100917022
 20
47.76393202249933
  0
LWPOLYLINE
  5
D6
100
AcDbEntity
  8
Red
  6
ByLayer
 62
  256
370
   -1
100
AcDbPolyline
 90
   10
 70
    1
 43
0
 10
-74.09999999999982
 20
49.47213595499889
 10
-71.74885899082973
 20
47.76393202249956
 10
-72.64691494398923
 20
50.52786404499966
 10
-70.29577393481773
 20
52.23606797750014
 10
-73.20194404684125
 20
52.23606797749973
 10
-74.10000000000002
 20
54.99999999999868
 10
-74.99805595315902
 20
52.2360679774995
 10
-77.90422606518243
 20
52.2360679774995
 10
-75.55308505601113
 20
50.52786404499997
 10
-76.45114100917023
 20
47.76393202249925
  0
LWPOLYLINE
  5
D7
100
AcDbEntity
  8
Red
  6
ByLayer
 62
  256
370
   -1
100
AcDbPolyline
 90
   10
 70
    1
 43
0
 10
-90.49999999999983
 20
49.47213595499881
 10
-88.14885899082974
 20
47.76393202249947
 10
-89.04691494398924
 20
50.52786404499957
 10
-86.69577393481774
 20
52.23606797750005
 10
-89.60194404684125
 20
52.23606797749964
 10
-90.50000000000003
 20
54.99999999999859
 10
-91.39805595315903
 20
52.23606797749941
 10
-94.30422606518243
 20
52.23606797749941
 10
-91.95308505601113
 20
50.52786404499988
 10
-92.85114100917023
 20
47.76393202249916
  0
LWPOLYLINE
  5
D8
100
AcDbEntity
  8
Red
  6
ByLayer
 62
  256
370
   -1
100
AcDbPolyline
 90
   10
 70
    1
 43
0
 10
-106.8999999999998
 20
49.47213595499872
 10
-104.5488589908297
 20
47.76393202249939
 10
-105.4469149439892
 20
50.52786404499949
 10
-103.0957739348177
 20
52.23606797749996
 10
-106.0019440468413
 20
52.23606797749956
 10
-106.9
 20
54.99999999999849
 10
-107.798055953159
 20
52.23606797749932
 10
-110.7042260651824
 20
52.23606797749932
 10
-108.3530850560111
 20
50.52786404499979
 10
-109.2511410091702
 20
47.76393202249906
  0
LWPOLYLINE
  5
D9
100
AcDbEntity
  8
Red
  6
ByLayer
 62
  256
370
   -1
100
AcDbPolyline
 90
   10
 70
    1
 43
0
 10
-33.09999999999977
 20
56.47213595499908
 10
-30.74885899082969
 20
54.76393202249975
 10
-31.64691494398919
 20
57.52786404499985
 10
-29.29577393481769
 20
59.23606797750033
 10
-32.2019440468412
 20
59.23606797749992
 10
-33.09999999999997
 20
61.99999999999886
 10
-33.99805595315899
 20
59.23606797749969
 10
-36.90422606518239
 20
59.23606797749969
 10
-34.55308505601108
 20
57.52786404500016
 10
-35.45114100917019
 20
54.76393202249943
  0
LWPOLYLINE
  5
DA
100
AcDbEntity
  8
Red
  6
ByLayer
 62
  256
370
   -1
100
AcDbPolyline
 90
   10
 70
    1
 43
0
 10
-49.49999999999978
 20
56.47213595499899
 10
-47.14885899082969
 20
54.76393202249966
 10
-48.04691494398919
 20
57.52786404499976
 10
-45.69577393481769
 20
59.23606797750024
 10
-48.6019440468412
 20
59.23606797749983
 10
-49.49999999999998
 20
61.99999999999877
 10
-50.39805595315899
 20
59.2360679774996
 10
-53.30422606518239
 20
59.2360679774996
 10
-50.95308505601109
 20
57.52786404500007
 10
-51.85114100917019
 20
54.76393202249935
  0
LWPOLYLINE
  5
DB
100
AcDbEntity
  8
Red
  6
ByLayer
 62
  256
370
   -1
100
AcDbPolyline
 90
   10
 70
    1
 43
0
 10
-65.89999999999978
 20
56.4721359549989
 10
-63.5488589908297
 20
54.76393202249957
 10
-64.4469149439892
 20
57.52786404499967
 10
-62.0957739348177
 20
59.23606797750015
 10
-65.0019440468412
 20
59.23606797749974
 10
-65.89999999999998
 20
61.99999999999869
 10
-66.79805595315901
 20
59.23606797749951
 10
-69.7042260651824
 20
59.23606797749951
 10
-67.3530850560111
 20
57.52786404499998
 10
-68.2511410091702
 20
54.76393202249925
  0
LWPOLYLINE
  5
DC
100
AcDbEntity
  8
Red
  6
ByLayer
 62
  256
370
   -1
100
AcDbPolyline
 90
   10
 70
    1
 43
0
 10
-82.29999999999978
 20
56.47213595499882
 10
-79.94885899082971
 20
54.76393202249949
 10
-80.8469149439892
 20
57.52786404499959
 10
-78.49577393481771
 20
59.23606797750006
 10
-81.40194404684121
 20
59.23606797749966
 10
-82.29999999999998
 20
61.9999999999986
 10
-83.19805595315901
 20
59.23606797749942
 10
-86.1042260651824
 20
59.23606797749942
 10
-83.7530850560111
 20
57.52786404499989
 10
-84.6511410091702
 20
54.76393202249916
  0
LWPOLYLINE
  5
DD
100
AcDbEntity
  8
Red
  6
ByLayer
 62
  256
370
   -1
100
AcDbPolyline
 90
   10
 70
    1
 43
0
 10
-98.69999999999979
 20
56.47213595499873
 10
-96.34885899082971
 20
54.7639320224994
 10
-97.24691494398921
 20
57.5278640449995
 10
-94.89577393481771
 20
59.23606797749997
 10
-97.80194404684121
 20
59.23606797749957
 10
-98.69999999999999
 20
61.99999999999851
 10
-99.59805595315902
 20
59.23606797749933
 10
-102.5042260651824
 20
59.23606797749933
 10
-100.1530850560111
 20
57.5278640449998
 10
-101.0511410091702
 20
54.76393202249908
  0
LWPOLYLINE
  5
DE
100
AcDbEntity
  8
Red
  6
ByLayer
 62
  256
370
   -1
100
AcDbPolyline
 90
   10
 70
    1
 43
0
 10
-115.0999999999998
 20
56.47213595499863
 10
-112.7488589908297
 20
54.7639320224993
 10
-113.6469149439892
 20
57.5278640449994
 10
-111.2957739348177
 20
59.23606797749989
 10
-114.2019440468412
 20
59.23606797749947
 10
-115.1
 20
61.99999999999842
 10
-115.998055953159
 20
59.23606797749925
 10
-118.9042260651824
 20
59.23606797749925
 10
-116.5530850560111
 20
57.52786404499972
 10
-117.4511410091702
 20
54.76393202249899
  0
LINE
  5
DF
100
AcDbEntity
  8
Black
  6
ByLayer
 62
  256
370
   -1
100
AcDbLine
 10
-123.5
 20
-25
 11
-123.5
 21
-35
  0
LINE
  5
E0
100
AcDbEntity
  8
Black
  6
ByLayer
 62
  256
370
   -1
100
AcDbLine
 10
-123.5
 20
-45
 11
-123.5
 21
-55
  0
LINE
  5
E1
100
AcDbEntity
  8
Black
  6
ByLayer
 62
  256
370
   -1
100
AcDbLine
 10
123.5
 20
-55
 11
123.5
 21
-45
  0
LINE
  5
E2
100
AcDbEntity
  8
Black
  6
ByLayer
 62
  256
370
   -1
100
AcDbLine
 10
123.5
 20
-35
 11
123.5
 21
-25
  0
LINE
  5
E3
100
AcDbEntity
  8
Black
  6
ByLayer
 62
  256
370
   -1
100
AcDbLine
 10
123.5
 20
-15
 11
123.5
 21
-5
  0
LINE
  5
E4
100
AcDbEntity
  8
Black
  6
ByLayer
 62
  256
370
   -1
100
AcDbLine
 10
123.5
 20
5
 11
123.5
 21
15
  0
LINE
  5
E5
100
AcDbEntity
  8
Black
  6
ByLayer
 62
  256
370
   -1
100
AcDbLine
 10
123.5
 20
25
 11
123.5
 21
35
  0
LINE
  5
E6
100
AcDbEntity
  8
Black
  6
ByLayer
 62
  256
370
   -1
100
AcDbLine
 10
123.5
 20
45
 11
123.5
 21
55
  0
LINE
  5
E7
100
AcDbEntity
  8
Black
  6
ByLayer
 62
  256
370
   -1
100
AcDbLine
 10
-24.7
 20
65
 11
-123.5
 21
65
  0
LINE
  5
E8
100
AcDbEntity
  8
Black
  6
ByLayer
 62
  256
370
   -1
100
AcDbLine
 10
-123.5
 20
65
 11
-123.5
 21
-15
  0
MTEXT
  5
E9
100
AcDbEntity
  8
0
  6
ByLayer
 62
  256
370
   -1
100
AcDbMText
 10
0
 20
-90
 30
0
 40
7
 41
164.4844444444444
 71
    5
 72
    1
  1
Flag of the movement\P"Remember Everyone-Everybody\PDeployed" (R.E.D.), by Felipe Lohan\PPinheiro da Silva.
  7
unicode
210
0
220
0
230
1
 50
0
 73
    2
 44
1
  0
ENDSEC
  0
SECTION
  2
OBJECTS
  0
DICTIONARY
  5
C
330
0
100
AcDbDictionary
281
    1
  3
ACAD_GROUP
350
D
  0
DICTIONARY
  5
D
330
C
100
AcDbDictionary
281
    1
  0
PLOTSETTINGS
  5
EA
100
AcDbPlotSettings
  6
1x1
 40
0
 41
0
 42
0
 43
0
  0
ENDSEC
  0
EOF
