999
dxfrw 0.6.3
  0
SECTION
  2
HEADER
  9
$ACADVER
  1
AC1021
  9
$DWGCODEPAGE
  3
ANSI_1252
  9
$INSBASE
 10
0
 20
0
 30
0
  9
$EXTMIN
 10
10000000000
 20
10000000000
 30
0
  9
$EXTMAX
 10
-10000000000
 20
-10000000000
 30
0
  9
$LIMMIN
 10
0
 20
0
  9
$LIMMAX
 10
420
 20
297
  9
$ORTHOMODE
 70
    0
  9
$REGENMODE
 70
    1
  9
$FILLMODE
 70
    1
  9
$QTEXTMODE
 70
    0
  9
$MIRRTEXT
 70
    0
  9
$LTSCALE
 40
1
  9
$ATTMODE
 70
    0
  9
$TEXTSIZE
 40
2.5
  9
$TRACEWID
 40
15.68
  9
$TEXTSTYLE
  7
STANDARD
  9
$CLAYER
  8
0
  9
$CELTYPE
  6
BYLAYER
  9
$CECOLOR
 62
  256
  9
$CELTSCALE
 40
1
  9
$DISPSILH
 70
    0
  9
$DIMSCALE
 40
2.5
  9
$DIMASZ
 40
2.5
  9
$DIMEXO
 40
0.625
  9
$DIMDLI
 40
3.75
  9
$DIMRND
 40
0
  9
$DIMDLE
 40
0
  9
$DIMEXE
 40
1.25
  9
$DIMTP
 40
0
  9
$DIMTM
 40
0
  9
$DIMTXT
 40
2.5
  9
$DIMCEN
 40
2.5
  9
$DIMTSZ
 40
0
  9
$DIMTOL
 70
    0
  9
$DIMLIM
 70
    0
  9
$DIMTIH
 70
    0
  9
$DIMTOH
 70
    0
  9
$DIMSE1
 70
    0
  9
$DIMSE2
 70
    0
  9
$DIMTAD
 70
    1
  9
$DIMZIN
 70
    1
  9
$DIMBLK
  1

  9
$DIMASO
 70
    1
  9
$DIMSHO
 70
    1
  9
$DIMPOST
  1

  9
$DIMAPOST
  1

  9
$DIMALT
 70
    0
  9
$DIMALTD
 70
    3
  9
$DIMALTF
 40
0.03937
  9
$DIMLFAC
 40
1
  9
$DIMTOFL
 70
    1
  9
$DIMTVP
 40
0
  9
$DIMTIX
 70
    0
  9
$DIMSOXD
 70
    0
  9
$DIMSAH
 70
    0
  9
$DIMBLK1
  1

  9
$DIMBLK2
  1

  9
$DIMSTYLE
  2
STANDARD
  9
$DIMCLRD
 70
    0
  9
$DIMCLRE
 70
    0
  9
$DIMCLRT
 70
    0
  9
$DIMTFAC
 40
1
  9
$DIMGAP
 40
0.625
  9
$DIMJUST
 70
    0
  9
$DIMSD1
 70
    0
  9
$DIMSD2
 70
    0
  9
$DIMTOLJ
 70
    0
  9
$DIMTZIN
 70
    8
  9
$DIMALTZ
 70
    0
  9
$DIMALTTZ
 70
    0
  9
$DIMUPT
 70
    0
  9
$DIMDEC
 70
    4
  9
$DIMTDEC
 70
    2
  9
$DIMALTU
 70
    2
  9
$DIMALTTD
 70
    3
  9
$DIMTXSTY
  7
standard
  9
$DIMAUNIT
 70
    0
  9
$DIMADEC
 70
    2
  9
$DIMALTRND
 40
0
  9
$DIMAZIN
 70
    0
  9
$DIMDSEP
 70
    0
  9
$DIMATFIT
 70
    3
  9
$DIMFRAC
 70
    0
  9
$DIMLDRBLK
  1
STANDARD
  9
$DIMLUNIT
 70
    2
  9
$DIMLWD
 70
   -2
  9
$DIMLWE
 70
   -2
  9
$DIMTMOVE
 70
    0
  9
$DIMFXL
 40
1
  9
$DIMFXLON
 70
    0
  9
$DIMJOGANG
 40
0.7854
  9
$DIMTFILL
 70
    0
  9
$DIMTFILLCLR
 70
    0
  9
$DIMARCSYM
 70
    0
  9
$DIMLTYPE
  6

  9
$DIMLTEX1
  6

  9
$DIMLTEX2
  6

  9
$LUNITS
 70
    2
  9
$LUPREC
 70
    4
  9
$SKETCHINC
 40
1
  9
$FILLETRAD
 40
0
  9
$AUNITS
 70
    0
  9
$AUPREC
 70
    2
  9
$MENU
  1
.
  9
$ELEVATION
 40
0
  9
$PELEVATION
 40
0
  9
$THICKNESS
 40
0
  9
$LIMCHECK
 70
    0
  9
$CHAMFERA
 40
0
  9
$CHAMFERB
 40
0
  9
$CHAMFERC
 40
0
  9
$CHAMFERD
 40
0
  9
$SKPOLY
 70
    0
  9
$USRTIMER
 70
    1
  9
$ANGBASE
 50
0
  9
$ANGDIR
 70
    0
  9
$PDMODE
 70
   34
  9
$PDSIZE
 40
0
  9
$PLINEWID
 40
0
  9
$SPLFRAME
 70
    0
  9
$SPLINETYPE
 70
    2
  9
$SPLINESEGS
 70
    8
  9
$HANDSEED
  5
20000
  9
$SURFTAB1
 70
    6
  9
$SURFTAB2
 70
    6
  9
$SURFTYPE
 70
    6
  9
$SURFU
 70
    6
  9
$SURFV
 70
    6
  9
$UCSBASE
  2

  9
$UCSNAME
  2

  9
$UCSORG
 10
0
 20
0
 30
0
  9
$UCSXDIR
 10
1
 20
0
 30
0
  9
$UCSYDIR
 10
0
 20
1
 30
0
  9
$UCSORTHOREF
  2

  9
$UCSORTHOVIEW
 70
    0
  9
$UCSORGTOP
 10
0
 20
0
 30
0
  9
$UCSORGBOTTOM
 10
0
 20
0
 30
0
  9
$UCSORGLEFT
 10
0
 20
0
 30
0
  9
$UCSORGRIGHT
 10
0
 20
0
 30
0
  9
$UCSORGFRONT
 10
0
 20
0
 30
0
  9
$UCSORGBACK
 10
0
 20
0
 30
0
  9
$PUCSBASE
  2

  9
$PUCSNAME
  2

  9
$PUCSORG
 10
0
 20
0
 30
0
  9
$PUCSXDIR
 10
1
 20
0
 30
0
  9
$PUCSYDIR
 10
0
 20
1
 30
0
  9
$PUCSORTHOREF
  2

  9
$PUCSORTHOVIEW
 70
    0
  9
$PUCSORGTOP
 10
0
 20
0
 30
0
  9
$PUCSORGBOTTOM
 10
0
 20
0
 30
0
  9
$PUCSORGLEFT
 10
0
 20
0
 30
0
  9
$PUCSORGRIGHT
 10
0
 20
0
 30
0
  9
$PUCSORGFRONT
 10
0
 20
0
 30
0
  9
$PUCSORGBACK
 10
0
 20
0
 30
0
  9
$USERI1
 70
    0
  9
$USERI2
 70
    0
  9
$USERI3
 70
    0
  9
$USERI4
 70
    0
  9
$USERI5
 70
    0
  9
$USERR1
 40
0
  9
$USERR2
 40
0
  9
$USERR3
 40
0
  9
$USERR4
 40
0
  9
$USERR5
 40
0
  9
$WORLDVIEW
 70
    1
  9
$SHADEDGE
 70
    3
  9
$SHADEDIF
 70
   70
  9
$TILEMODE
 70
    1
  9
$MAXACTVP
 70
   64
  9
$PINSBASE
 10
21
 20
20
 30
0
  9
$PLIMCHECK
 70
    0
  9
$PEXTMIN
 10
0
 20
0
 30
0
  9
$PEXTMAX
 10
0
 20
0
 30
0
  9
$GRIDMODE
 70
    1
  9
$SNAPSTYLE
 70
    0
  9
$GRIDUNIT
 10
0
 20
0
  9
$PLIMMIN
 10
0
 20
0
  9
$PLIMMAX
 10
297
 20
210
  9
$UNITMODE
 70
    0
  9
$VISRETAIN
 70
    1
  9
$PLINEGEN
 70
    0
  9
$PSLTSCALE
 70
    1
  9
$TREEDEPTH
 70
 3020
  9
$CMLSTYLE
  2
Standard
  9
$CMLJUST
 70
    0
  9
$CMLSCALE
 40
20
  9
$PROXYGRAPHICS
 70
    1
  9
$MEASUREMENT
 70
    1
  9
$CELWEIGHT
370
   -1
  9
$ENDCAPS
280
    0
  9
$JOINSTYLE
280
    0
  9
$LWDISPLAY
290
    0
  9
$INSUNITS
 70
    4
  9
$HYPERLINKBASE
  1

  9
$STYLESHEET
  1

  9
$XEDIT
290
    1
  9
$CEPSNTYPE
380
    0
  9
$PSTYLEMODE
290
    1
  9
$EXTNAMES
290
    1
  9
$PSVPSCALE
 40
1
  9
$OLESTARTUP
290
    0
  9
$SORTENTS
280
  127
  9
$INDEXCTL
280
    0
  9
$HIDETEXT
280
    1
  9
$XCLIPFRAME
290
    0
  9
$HALOGAP
280
    0
  9
$OBSCOLOR
 70
  257
  9
$OBSLTYPE
280
    0
  9
$INTERSECTIONDISPLAY
280
    0
  9
$INTERSECTIONCOLOR
 70
  257
  9
$DIMASSOC
280
    1
  9
$PROJECTNAME
  1

  9
$CAMERADISPLAY
290
    0
  9
$LENSLENGTH
 40
50
  9
$CAMERAHEIGHT
 40
0
  9
$STEPSPERSEC
 40
2
  9
$STEPSIZE
 40
50
  9
$3DDWFPREC
 40
2
  9
$PSOLWIDTH
 40
5
  9
$PSOLHEIGHT
 40
80
  9
$LOFTANG1
 40
1.570796326794897
  9
$LOFTANG2
 40
1.570796326794897
  9
$LOFTMAG1
 40
0
  9
$LOFTMAG2
 40
0
  9
$LOFTPARAM
 70
    7
  9
$LOFTNORMALS
280
    1
  9
$LATITUDE
 40
1
  9
$LONGITUDE
 40
1
  9
$NORTHDIRECTION
 40
0
  9
$TIMEZONE
 70
-8000
  9
$LIGHTGLYPHDISPLAY
280
    1
  9
$TILEMODELIGHTSYNCH
280
    1
  9
$SOLIDHIST
280
    1
  9
$SHOWHIST
280
    1
  9
$DWFFRAME
280
    2
  9
$DGNFRAME
280
    0
  9
$REALWORLDSCALE
290
    1
  9
$INTERFERECOLOR
 62
    1
  9
$CSHADOW
280
    0
  9
$SHADOWPLANELOCATION
 40
0
  0
ENDSEC
  0
SECTION
  2
CLASSES
  0
ENDSEC
  0
SECTION
  2
TABLES
  0
TABLE
  2
VPORT
  5
8
330
0
100
AcDbSymbolTable
 70
    1
  0
VPORT
  5
31
330
2
100
AcDbSymbolTableRecord
100
AcDbViewportTableRecord
  2
*ACTIVE
 70
    0
 10
0
 20
0
 11
1
 21
1
 12
261.4762479027099
 22
88.53784343541125
 13
0
 23
0
 14
10
 24
10
 15
10
 25
10
 16
0
 26
0
 36
1
 17
0
 27
0
 37
0
 40
299.5392460151297
 41
2.790055248618784
 42
50
 43
0
 44
0
 50
0
 51
0
 71
    0
 72
  100
 73
    1
 74
    3
 75
    0
 76
    1
 77
    0
 78
    0
281
    0
 65
    1
110
0
120
0
130
0
111
1
121
0
131
0
112
0
122
1
132
0
 79
    0
146
0
348
10020
 60
    7
 61
    5
292
1
282
    1
141
0
142
0
 63
  250
421
3358443
  0
ENDTAB
  0
TABLE
  2
LTYPE
  5
5
330
0
100
AcDbSymbolTable
 70
    4
  0
LTYPE
  5
14
330
5
100
AcDbSymbolTableRecord
100
AcDbLinetypeTableRecord
  2
ByBlock
 70
    0
  3

 72
   65
 73
    0
 40
0
  0
LTYPE
  5
15
330
5
100
AcDbSymbolTableRecord
100
AcDbLinetypeTableRecord
  2
ByLayer
 70
    0
  3

 72
   65
 73
    0
 40
0
  0
LTYPE
  5
16
330
5
100
AcDbSymbolTableRecord
100
AcDbLinetypeTableRecord
  2
Continuous
 70
    0
  3
Solid line
 72
   65
 73
    0
 40
0
  0
LTYPE
  5
32
330
5
100
AcDbSymbolTableRecord
100
AcDbLinetypeTableRecord
  2
DOT
 70
    0
  3
Dot . . . . . . . . . . . . . . . . . . . . . .
 72
   65
 73
    2
 40
6.35
 49
0
 74
    0
 49
-6.35
 74
    0
  0
LTYPE
  5
33
330
5
100
AcDbSymbolTableRecord
100
AcDbLinetypeTableRecord
  2
DOTTINY
 70
    0
  3
Dot (.15x) .....................................
 72
   65
 73
    2
 40
0.9525
 49
0
 74
    0
 49
-0.9525
 74
    0
  0
LTYPE
  5
34
330
5
100
AcDbSymbolTableRecord
100
AcDbLinetypeTableRecord
  2
DOT2
 70
    0
  3
Dot (.5x) .....................................
 72
   65
 73
    2
 40
3.175
 49
0
 74
    0
 49
-3.175
 74
    0
  0
LTYPE
  5
35
330
5
100
AcDbSymbolTableRecord
100
AcDbLinetypeTableRecord
  2
DOTX2
 70
    0
  3
Dot (2x) .  .  .  .  .  .  .  .  .  .  .  .  .
 72
   65
 73
    2
 40
12.7
 49
0
 74
    0
 49
-12.7
 74
    0
  0
LTYPE
  5
36
330
5
100
AcDbSymbolTableRecord
100
AcDbLinetypeTableRecord
  2
DASHED
 70
    0
  3
Dashed _ _ _ _ _ _ _ _ _ _ _ _ _ _ _ _ _
 72
   65
 73
    2
 40
19.05
 49
12.7
 74
    0
 49
-6.35
 74
    0
  0
LTYPE
  5
37
330
5
100
AcDbSymbolTableRecord
100
AcDbLinetypeTableRecord
  2
DASHEDTINY
 70
    0
  3
Dashed (.15x) _ _ _ _ _ _ _ _ _ _ _ _ _ _ _ _ _
 72
   65
 73
    2
 40
2.8575
 49
1.905
 74
    0
 49
-0.9525
 74
    0
  0
LTYPE
  5
38
330
5
100
AcDbSymbolTableRecord
100
AcDbLinetypeTableRecord
  2
DASHED2
 70
    0
  3
Dashed (.5x) _ _ _ _ _ _ _ _ _ _ _ _ _ _ _ _ _
 72
   65
 73
    2
 40
9.524999999999999
 49
6.35
 74
    0
 49
-3.175
 74
    0
  0
LTYPE
  5
39
330
5
100
AcDbSymbolTableRecord
100
AcDbLinetypeTableRecord
  2
DASHEDX2
 70
    0
  3
Dashed (2x) ____  ____  ____  ____  ____  ___
 72
   65
 73
    2
 40
38.09999999999999
 49
25.4
 74
    0
 49
-12.7
 74
    0
  0
LTYPE
  5
3A
330
5
100
AcDbSymbolTableRecord
100
AcDbLinetypeTableRecord
  2
DASHDOT
 70
    0
  3
Dash dot __ . __ . __ . __ . __ . __ . __ . __
 72
   65
 73
    4
 40
25.4
 49
12.7
 74
    0
 49
-6.35
 74
    0
 49
0
 74
    0
 49
-6.35
 74
    0
  0
LTYPE
  5
3B
330
5
100
AcDbSymbolTableRecord
100
AcDbLinetypeTableRecord
  2
DASHDOTTINY
 70
    0
  3
Dash dot (.15x) _._._._._._._._._._._._._._._.
 72
   65
 73
    4
 40
3.81
 49
1.905
 74
    0
 49
-0.9525
 74
    0
 49
0
 74
    0
 49
-0.9525
 74
    0
  0
LTYPE
  5
3C
330
5
100
AcDbSymbolTableRecord
100
AcDbLinetypeTableRecord
  2
DASHDOT2
 70
    0
  3
Dash dot (.5x) _._._._._._._._._._._._._._._.
 72
   65
 73
    4
 40
12.7
 49
6.35
 74
    0
 49
-3.175
 74
    0
 49
0
 74
    0
 49
-3.175
 74
    0
  0
LTYPE
  5
3D
330
5
100
AcDbSymbolTableRecord
100
AcDbLinetypeTableRecord
  2
DASHDOTX2
 70
    0
  3
Dash dot (2x) ____  .  ____  .  ____  .  ___
 72
   65
 73
    4
 40
50.8
 49
25.4
 74
    0
 49
-12.7
 74
    0
 49
0
 74
    0
 49
-12.7
 74
    0
  0
LTYPE
  5
3E
330
5
100
AcDbSymbolTableRecord
100
AcDbLinetypeTableRecord
  2
DIVIDE
 70
    0
  3
Divide ____ . . ____ . . ____ . . ____ . . ____
 72
   65
 73
    6
 40
31.75
 49
12.7
 74
    0
 49
-6.35
 74
    0
 49
0
 74
    0
 49
-6.35
 74
    0
 49
0
 74
    0
 49
-6.35
 74
    0
  0
LTYPE
  5
3F
330
5
100
AcDbSymbolTableRecord
100
AcDbLinetypeTableRecord
  2
DIVIDETINY
 70
    0
  3
Divide (.15x) __..__..__..__..__..__..__..__.._
 72
   65
 73
    6
 40
4.7625
 49
1.905
 74
    0
 49
-0.9525
 74
    0
 49
0
 74
    0
 49
-0.9525
 74
    0
 49
0
 74
    0
 49
-0.9525
 74
    0
  0
LTYPE
  5
40
330
5
100
AcDbSymbolTableRecord
100
AcDbLinetypeTableRecord
  2
DIVIDE2
 70
    0
  3
Divide (.5x) __..__..__..__..__..__..__..__.._
 72
   65
 73
    6
 40
15.875
 49
6.35
 74
    0
 49
-3.175
 74
    0
 49
0
 74
    0
 49
-3.175
 74
    0
 49
0
 74
    0
 49
-3.175
 74
    0
  0
LTYPE
  5
41
330
5
100
AcDbSymbolTableRecord
100
AcDbLinetypeTableRecord
  2
DIVIDEX2
 70
    0
  3
Divide (2x) ________  .  .  ________  .  .  _
 72
   65
 73
    6
 40
63.5
 49
25.4
 74
    0
 49
-12.7
 74
    0
 49
0
 74
    0
 49
-12.7
 74
    0
 49
0
 74
    0
 49
-12.7
 74
    0
  0
LTYPE
  5
42
330
5
100
AcDbSymbolTableRecord
100
AcDbLinetypeTableRecord
  2
BORDER
 70
    0
  3
Border __ __ . __ __ . __ __ . __ __ . __ __ .
 72
   65
 73
    6
 40
44.45
 49
12.7
 74
    0
 49
-6.35
 74
    0
 49
12.7
 74
    0
 49
-6.35
 74
    0
 49
0
 74
    0
 49
-6.35
 74
    0
  0
LTYPE
  5
43
330
5
100
AcDbSymbolTableRecord
100
AcDbLinetypeTableRecord
  2
BORDERTINY
 70
    0
  3
Border (.15x) __.__.__.__.__.__.__.__.__.__.__.
 72
   65
 73
    6
 40
6.6675
 49
1.905
 74
    0
 49
-0.9525
 74
    0
 49
1.905
 74
    0
 49
-0.9525
 74
    0
 49
0
 74
    0
 49
-0.9525
 74
    0
  0
LTYPE
  5
44
330
5
100
AcDbSymbolTableRecord
100
AcDbLinetypeTableRecord
  2
BORDER2
 70
    0
  3
Border (.5x) __.__.__.__.__.__.__.__.__.__.__.
 72
   65
 73
    6
 40
22.225
 49
6.35
 74
    0
 49
-3.175
 74
    0
 49
6.35
 74
    0
 49
-3.175
 74
    0
 49
0
 74
    0
 49
-3.175
 74
    0
  0
LTYPE
  5
45
330
5
100
AcDbSymbolTableRecord
100
AcDbLinetypeTableRecord
  2
BORDERX2
 70
    0
  3
Border (2x) ____  ____  .  ____  ____  .  ___
 72
   65
 73
    6
 40
88.89999999999999
 49
25.4
 74
    0
 49
-12.7
 74
    0
 49
25.4
 74
    0
 49
-12.7
 74
    0
 49
0
 74
    0
 49
-12.7
 74
    0
  0
LTYPE
  5
46
330
5
100
AcDbSymbolTableRecord
100
AcDbLinetypeTableRecord
  2
CENTER
 70
    0
  3
Center ____ _ ____ _ ____ _ ____ _ ____ _ ____
 72
   65
 73
    4
 40
50.8
 49
31.75
 74
    0
 49
-6.35
 74
    0
 49
6.35
 74
    0
 49
-6.35
 74
    0
  0
LTYPE
  5
47
330
5
100
AcDbSymbolTableRecord
100
AcDbLinetypeTableRecord
  2
CENTERTINY
 70
    0
  3
Center (.15x) ___ _ ___ _ ___ _ ___ _ ___ _ ___
 72
   65
 73
    4
 40
7.619999999999999
 49
4.7625
 74
    0
 49
-0.9525
 74
    0
 49
0.9525
 74
    0
 49
-0.9525
 74
    0
  0
LTYPE
  5
48
330
5
100
AcDbSymbolTableRecord
100
AcDbLinetypeTableRecord
  2
CENTER2
 70
    0
  3
Center (.5x) ___ _ ___ _ ___ _ ___ _ ___ _ ___
 72
   65
 73
    4
 40
28.575
 49
19.05
 74
    0
 49
-3.175
 74
    0
 49
3.175
 74
    0
 49
-3.175
 74
    0
  0
LTYPE
  5
49
330
5
100
AcDbSymbolTableRecord
100
AcDbLinetypeTableRecord
  2
CENTERX2
 70
    0
  3
Center (2x) ________  __  ________  __  _____
 72
   65
 73
    4
 40
101.6
 49
63.5
 74
    0
 49
-12.7
 74
    0
 49
12.7
 74
    0
 49
-12.7
 74
    0
  0
ENDTAB
  0
TABLE
  2
LAYER
  5
2
330
0
100
AcDbSymbolTable
 70
    1
  0
LAYER
  5
10
330
2
100
AcDbSymbolTableRecord
100
AcDbLayerTableRecord
  2
0
 70
    0
 62
    7
  6
CONTINUOUS
370
    0
390
F
  0
LAYER
  5
4A
330
2
100
AcDbSymbolTableRecord
100
AcDbLayerTableRecord
  2
Marking-aid
 70
    1
 62
    6
  6
CONTINUOUS
370
    0
390
F
  0
LAYER
  5
4B
330
2
100
AcDbSymbolTableRecord
100
AcDbLayerTableRecord
  2
Red
 70
    0
 62
    1
  6
CONTINUOUS
370
    0
390
F
  0
LAYER
  5
4C
330
2
100
AcDbSymbolTableRecord
100
AcDbLayerTableRecord
  2
stars
 70
    0
 62
    2
  6
CONTINUOUS
370
    0
390
F
  0
ENDTAB
  0
TABLE
  2
STYLE
  5
3
330
0
100
AcDbSymbolTable
 70
    3
  0
STYLE
  5
4D
330
2
100
AcDbSymbolTableRecord
100
AcDbTextStyleTableRecord
  2
standard
 70
    0
 40
0
 41
1
 50
0
 71
    0
 42
1
  3
standard
  4

  0
ENDTAB
  0
TABLE
  2
VIEW
  5
6
330
0
100
AcDbSymbolTable
 70
    0
  0
ENDTAB
  0
TABLE
  2
UCS
  5
7
330
0
100
AcDbSymbolTable
 70
    0
  0
ENDTAB
  0
TABLE
  2
APPID
  5
9
330
0
100
AcDbSymbolTable
 70
    1
  0
APPID
  5
12
330
9
100
AcDbSymbolTableRecord
100
AcDbRegAppTableRecord
  2
ACAD
 70
    0
  0
APPID
  5
4E
330
9
100
AcDbSymbolTableRecord
100
AcDbRegAppTableRecord
  2
LibreCad
 70
    0
  0
ENDTAB
  0
TABLE
  2
DIMSTYLE
  5
A
330
0
100
AcDbSymbolTable
 70
    1
100
AcDbDimStyleTable
 71
    1
  0
DIMSTYLE
105
4F
330
A
100
AcDbSymbolTableRecord
100
AcDbDimStyleTableRecord
  2
Standard
 70
    0
 40
2.5
 41
2.5
 42
0.625
 43
0.38
 44
1.25
 45
0
 46
0
 47
0
 48
0
 49
1
140
2.5
141
0.09
142
0
143
25.4
144
1
145
0
146
1
147
0.625
148
0
 71
    0
 72
    0
 73
    0
 74
    1
 75
    0
 76
    0
 77
    0
 78
    1
 79
    0
170
    0
171
    2
172
    0
173
    0
174
    0
175
    0
176
    0
177
    0
178
    0
179
    2
271
    4
272
    4
273
    2
274
    2
275
    0
276
    0
277
    2
278
    0
279
    0
280
    0
281
    0
282
    0
283
    1
284
    0
285
    0
286
    0
288
    0
289
    3
340
standard
341

371
   -2
372
   -2
  0
ENDTAB
  0
TABLE
  2
BLOCK_RECORD
  5
1
330
0
100
AcDbSymbolTable
 70
    2
  0
BLOCK_RECORD
  5
1F
330
1
100
AcDbSymbolTableRecord
100
AcDbBlockTableRecord
  2
*Model_Space
 70
    0
280
    1
281
    0
  0
BLOCK_RECORD
  5
1E
330
1
100
AcDbSymbolTableRecord
100
AcDbBlockTableRecord
  2
*Paper_Space
 70
    0
280
    1
281
    0
  0
ENDTAB
  0
ENDSEC
  0
SECTION
  2
BLOCKS
  0
BLOCK
  5
20
330
1F
100
AcDbEntity
  8
0
100
AcDbBlockBegin
  2
*Model_Space
 70
    0
 10
0
 20
0
 30
0
  3
*Model_Space
  1

  0
ENDBLK
  5
21
330
1F
100
AcDbEntity
  8
0
100
AcDbBlockEnd
  0
BLOCK
  5
1C
330
1B
100
AcDbEntity
  8
0
100
AcDbBlockBegin
  2
*Paper_Space
 70
    0
 10
0
 20
0
 30
0
  3
*Paper_Space
  1

  0
ENDBLK
  5
1D
330
1F
100
AcDbEntity
  8
0
100
AcDbBlockEnd
  0
ENDSEC
  0
SECTION
  2
ENTITIES
  0
HATCH
  5
50
100
AcDbEntity
  8
Red
  6
ByLayer
 62
  256
370
   -1
100
AcDbHatch
 10
0
 20
0
 30
0
210
0
220
0
230
1
  2
SOLID
 70
    1
 71
    0
 91
    1
 92
    0
 93
    4
 72
    1
 10
0
 20
0
 11
255
 21
0
 72
    1
 10
255
 20
0
 11
255
 21
170
 72
    1
 10
255
 20
170
 11
0
 21
170
 72
    1
 10
0
 20
170
 11
0
 21
0
 97
    0
 75
    0
 76
    1
 98
    0
  0
HATCH
  5
51
100
AcDbEntity
  8
Marking-aid
  6
ByLayer
 62
  256
370
   -1
100
AcDbHatch
 10
0
 20
0
 30
0
210
0
220
0
230
1
  2
SOLID
 70
    1
 71
    0
 91
    1
 92
    0
 93
   10
 72
    1
 10
8.5
 20
102
 11
6.591631099536762
 21
96.12664445218705
 72
    1
 10
6.591631099536762
 20
96.12664445218705
 11
0.4160196114911958
 21
96.12664445218705
 72
    1
 10
0.4160196114911958
 20
96.12664445218705
 11
5.412194255977184
 21
92.4967110956259
 72
    1
 10
5.412194255977198
 20
92.49671109562588
 11
3.503825355513977
 21
86.62335554781295
 72
    1
 10
3.503825355513977
 20
86.62335554781295
 11
8.499999999999972
 21
90.25328890437407
 72
    1
 10
8.5
 20
90.25328890437409
 11
13.49617464448602
 21
86.62335554781295
 72
    1
 10
13.49617464448602
 20
86.62335554781295
 11
11.58780574402278
 21
92.4967110956259
 72
    1
 10
11.58780574402279
 20
92.49671109562588
 11
16.58398038850881
 21
96.12664445218705
 72
    1
 10
16.58398038850881
 20
96.12664445218705
 11
10.40836890046324
 21
96.12664445218705
 72
    1
 10
10.40836890046324
 20
96.12664445218705
 11
8.5
 21
102
 97
    0
 75
    0
 76
    1
 98
    0
  0
HATCH
  5
52
100
AcDbEntity
  8
stars
  6
ByLayer
 62
  256
370
   -1
100
AcDbHatch
 10
0
 20
0
 30
0
210
0
220
0
230
1
  2
SOLID
 70
    1
 71
    0
 91
    1
 92
    0
 93
   10
 72
    1
 10
93.82704661211378
 20
112.8351301718404
 11
98.95014912085315
 21
109.3866525459554
 72
    1
 10
98.95014912085315
 20
109.3866525459554
 11
97.25357774258266
 21
103.4486543302506
 72
    1
 10
97.25357774258266
 20
103.4486543302506
 11
102.1164005991039
 21
107.255376163715
 72
    1
 10
102.1164005991039
 20
107.255376163715
 11
107.2395031078433
 21
103.8068985378301
 72
    1
 10
107.2395031078433
 20
103.8068985378301
 11
105.121790405704
 21
109.6080596425123
 72
    1
 10
105.1217904057039
 20
109.6080596425124
 11
109.9846132622252
 21
113.4147814759768
 72
    1
 10
109.9846132622252
 20
113.4147814759768
 11
103.8129719773744
 21
113.1933743794199
 72
    1
 10
103.8129719773744
 20
113.1933743794199
 11
101.6952592752351
 21
118.9945354841021
 72
    1
 10
101.6952592752351
 20
118.9945354841021
 11
99.99868789696457
 21
113.0565372683973
 72
    1
 10
99.99868789696457
 20
113.0565372683973
 11
93.82704661211378
 21
112.8351301718404
 97
    0
 75
    0
 76
    1
 98
    0
  0
HATCH
  5
53
100
AcDbEntity
  8
stars
  6
ByLayer
 62
  256
370
   -1
100
AcDbHatch
 10
0
 20
0
 30
0
210
0
220
0
230
1
  2
SOLID
 70
    1
 71
    0
 91
    1
 92
    0
 93
   10
 72
    1
 10
93.58542925448924
 20
134.7979188177189
 11
99.66963867974894
 21
133.7393476482355
 72
    1
 10
99.66963867974894
 20
133.7393476482355
 11
100.5430017807912
 21
127.6258041467122
 72
    1
 10
100.5430017807912
 20
127.6258041467122
 11
103.4298868992319
 21
133.0851146859841
 72
    1
 10
103.4298868992319
 20
133.0851146859841
 11
109.5140963244917
 21
132.0265435165009
 72
    1
 10
109.5140963244917
 20
132.0265435165009
 11
105.2140800240446
 21
136.4591541543947
 72
    1
 10
105.2140800240446
 20
136.4591541543948
 11
108.1009651424853
 21
141.9184646936667
 72
    1
 10
108.1009651424853
 20
141.9184646936667
 11
102.5565237981897
 21
139.1986581875075
 72
    1
 10
102.5565237981897
 20
139.1986581875075
 11
98.25650749774262
 21
143.6312688254014
 72
    1
 10
98.25650749774262
 20
143.6312688254014
 11
99.12987059878483
 21
137.517725323878
 72
    1
 10
99.12987059878483
 20
137.517725323878
 11
93.58542925448924
 21
134.7979188177189
 97
    0
 75
    0
 76
    1
 98
    0
  0
HATCH
  5
54
100
AcDbEntity
  8
stars
  6
ByLayer
 62
  256
370
   -1
100
AcDbHatch
 10
0
 20
0
 30
0
210
0
220
0
230
1
  2
SOLID
 70
    1
 71
    0
 91
    1
 92
    0
 93
   10
 72
    1
 10
77.71132871468117
 20
148.6267551069522
 11
83.72953135912992
 21
150.0121843478846
 72
    1
 10
83.72953135912992
 20
150.0121843478846
 11
86.90687975931141
 21
144.7166546864489
 72
    1
 10
86.90687975931141
 20
144.7166546864489
 11
87.44898514458376
 21
150.8684267077887
 72
    1
 10
87.44898514458379
 20
150.8684267077887
 11
93.46718778903251
 21
152.2538559487211
 72
    1
 10
93.46718778903251
 20
152.2538559487211
 11
87.78402469816645
 21
154.6704309080174
 72
    1
 10
87.78402469816643
 20
154.6704309080174
 11
88.32613008343876
 21
160.8222029293572
 72
    1
 10
88.32613008343876
 20
160.8222029293572
 11
84.27163674440226
 21
156.1639563692243
 72
    1
 10
84.27163674440227
 20
156.1639563692244
 11
78.58847365353616
 21
158.5805313285206
 72
    1
 10
78.58847365353616
 20
158.5805313285206
 11
81.76582205371764
 21
153.285001667085
 72
    1
 10
81.76582205371764
 20
153.285001667085
 11
77.71132871468117
 21
148.6267551069522
 97
    0
 75
    0
 76
    1
 98
    0
  0
HATCH
  5
55
100
AcDbEntity
  8
stars
  6
ByLayer
 62
  256
370
   -1
100
AcDbHatch
 10
0
 20
0
 30
0
210
0
220
0
230
1
  2
SOLID
 70
    1
 71
    0
 91
    1
 92
    0
 93
   10
 72
    1
 10
78.3626143547834
 20
98.80990694802392
 11
81.75678665105922
 21
93.650665562464
 72
    1
 10
81.75678665105922
 20
93.650665562464
 11
77.89891343356868
 21
88.82832261644185
 72
    1
 10
77.89891343356868
 20
88.82832261644185
 11
83.85450049383093
 21
90.46207903002285
 72
    1
 10
83.85450049383094
 20
90.46207903002286
 11
87.24867279010675
 21
85.30283764446297
 72
    1
 10
87.24867279010675
 20
85.30283764446297
 11
87.5352557200321
 21
91.47179602295404
 72
    1
 10
87.5352557200321
 20
91.47179602295407
 11
93.49084278029434
 21
93.10555243653511
 72
    1
 10
93.49084278029434
 20
93.10555243653511
 11
87.71237371132146
 21
95.28442197604502
 72
    1
 10
87.71237371132149
 20
95.28442197604502
 11
87.99895664124682
 21
101.4533803545362
 72
    1
 10
87.99895664124682
 20
101.4533803545362
 11
84.14108342375629
 21
96.631037408514
 72
    1
 10
84.14108342375629
 20
96.631037408514
 11
78.3626143547834
 21
98.80990694802392
 97
    0
 75
    0
 76
    1
 98
    0
  0
HATCH
  5
56
100
AcDbEntity
  8
stars
  6
ByLayer
 62
  256
370
   -1
100
AcDbHatch
 10
0
 20
0
 30
0
210
0
220
0
230
1
  2
SOLID
 70
    1
 71
    0
 91
    1
 92
    0
 93
   10
 72
    1
 10
42.5
 20
153
 11
36.77489329861029
 21
135.3799333565612
 72
    1
 10
36.77489329861029
 20
135.3799333565612
 11
18.24805883447359
 21
135.3799333565612
 72
    1
 10
18.24805883447359
 20
135.3799333565612
 11
33.23658276793157
 21
124.4901332868777
 72
    1
 10
33.23658276793162
 20
124.4901332868777
 11
27.51147606654193
 21
106.8700666434388
 72
    1
 10
27.51147606654193
 20
106.8700666434388
 11
42.5
 21
117.7598667131223
 72
    1
 10
42.5
 20
117.7598667131223
 11
57.48852393345806
 21
106.8700666434388
 72
    1
 10
57.48852393345806
 20
106.8700666434388
 11
51.76341723206835
 21
124.4901332868777
 72
    1
 10
51.76341723206833
 20
124.4901332868777
 11
66.75194116552642
 21
135.3799333565612
 72
    1
 10
66.75194116552642
 20
135.3799333565612
 11
48.22510670138972
 21
135.3799333565612
 72
    1
 10
48.22510670138971
 20
135.3799333565612
 11
42.5
 21
153
 97
    0
 75
    0
 76
    1
 98
    0
  0
LINE
  5
57
100
AcDbEntity
  8
stars
  6
ByLayer
 62
  256
370
   -1
100
AcDbLine
 10
42.5
 20
153
 11
36.77489329861029
 21
135.3799333565612
  0
LINE
  5
58
100
AcDbEntity
  8
stars
  6
ByLayer
 62
  256
370
   -1
100
AcDbLine
 10
33.23658276793162
 20
124.4901332868777
 11
27.51147606654193
 21
106.8700666434388
  0
LINE
  5
59
100
AcDbEntity
  8
stars
  6
ByLayer
 62
  256
370
   -1
100
AcDbLine
 10
48.22510670138971
 20
135.3799333565612
 11
42.5
 21
153
  0
LINE
  5
5A
100
AcDbEntity
  8
stars
  6
ByLayer
 62
  256
370
   -1
100
AcDbLine
 10
57.48852393345806
 20
106.8700666434388
 11
51.76341723206835
 21
124.4901332868777
  0
LINE
  5
5B
100
AcDbEntity
  8
stars
  6
ByLayer
 62
  256
370
   -1
100
AcDbLine
 10
27.51147606654193
 20
106.8700666434388
 11
42.5
 21
117.7598667131223
  0
LINE
  5
5C
100
AcDbEntity
  8
stars
  6
ByLayer
 62
  256
370
   -1
100
AcDbLine
 10
51.76341723206833
 20
124.4901332868777
 11
66.75194116552642
 21
135.3799333565612
  0
LINE
  5
5D
100
AcDbEntity
  8
stars
  6
ByLayer
 62
  256
370
   -1
100
AcDbLine
 10
18.24805883447359
 20
135.3799333565612
 11
33.23658276793157
 21
124.4901332868777
  0
LINE
  5
5E
100
AcDbEntity
  8
stars
  6
ByLayer
 62
  256
370
   -1
100
AcDbLine
 10
42.5
 20
117.7598667131223
 11
57.48852393345806
 21
106.8700666434388
  0
LINE
  5
5F
100
AcDbEntity
  8
stars
  6
ByLayer
 62
  256
370
   -1
100
AcDbLine
 10
66.75194116552642
 20
135.3799333565612
 11
48.22510670138972
 21
135.3799333565612
  0
LINE
  5
60
100
AcDbEntity
  8
stars
  6
ByLayer
 62
  256
370
   -1
100
AcDbLine
 10
36.77489329861029
 20
135.3799333565612
 11
18.24805883447359
 21
135.3799333565612
  0
CIRCLE
  5
61
100
AcDbEntity
  8
Marking-aid
  6
ByLayer
 62
  256
370
   -1
100
AcDbCircle
 10
42.5
 20
127.5
 40
25.5
  0
CIRCLE
  5
62
100
AcDbEntity
  8
Marking-aid
  6
ByLayer
 62
  256
370
   -1
100
AcDbCircle
 10
8.5
 20
93.5
 40
8.5
  0
LINE
  5
63
100
AcDbEntity
  8
Marking-aid
  6
ByLayer
 62
  256
370
   -1
100
AcDbLine
 10
0
 20
93.5
 11
8.5
 21
110.5
  0
LINE
  5
64
100
AcDbEntity
  8
Marking-aid
  6
ByLayer
 62
  256
370
   -1
100
AcDbLine
 10
8.5
 20
110.5
 11
17
 21
93.49999865130084
  0
LINE
  5
65
100
AcDbEntity
  8
stars
  6
ByLayer
 62
  256
370
   -1
100
AcDbLine
 10
78.3626143547834
 20
98.80990694802392
 11
81.75678665105922
 21
93.650665562464
  0
LINE
  5
66
100
AcDbEntity
  8
stars
  6
ByLayer
 62
  256
370
   -1
100
AcDbLine
 10
83.85450049383094
 20
90.46207903002286
 11
87.24867279010675
 21
85.30283764446297
  0
LINE
  5
67
100
AcDbEntity
  8
stars
  6
ByLayer
 62
  256
370
   -1
100
AcDbLine
 10
87.24867279010675
 20
85.30283764446297
 11
87.5352557200321
 21
91.47179602295404
  0
LINE
  5
68
100
AcDbEntity
  8
stars
  6
ByLayer
 62
  256
370
   -1
100
AcDbLine
 10
87.71237371132149
 20
95.28442197604502
 11
87.99895664124682
 21
101.4533803545362
  0
LINE
  5
69
100
AcDbEntity
  8
stars
  6
ByLayer
 62
  256
370
   -1
100
AcDbLine
 10
87.99895664124682
 20
101.4533803545362
 11
84.14108342375629
 21
96.631037408514
  0
LINE
  5
6A
100
AcDbEntity
  8
stars
  6
ByLayer
 62
  256
370
   -1
100
AcDbLine
 10
81.75678665105922
 20
93.650665562464
 11
77.89891343356868
 21
88.82832261644185
  0
LINE
  5
6B
100
AcDbEntity
  8
stars
  6
ByLayer
 62
  256
370
   -1
100
AcDbLine
 10
77.89891343356868
 20
88.82832261644185
 11
83.85450049383093
 21
90.46207903002285
  0
LINE
  5
6C
100
AcDbEntity
  8
stars
  6
ByLayer
 62
  256
370
   -1
100
AcDbLine
 10
87.5352557200321
 20
91.47179602295407
 11
93.49084278029434
 21
93.10555243653511
  0
LINE
  5
6D
100
AcDbEntity
  8
stars
  6
ByLayer
 62
  256
370
   -1
100
AcDbLine
 10
93.49084278029434
 20
93.10555243653511
 11
87.71237371132146
 21
95.28442197604502
  0
LINE
  5
6E
100
AcDbEntity
  8
stars
  6
ByLayer
 62
  256
370
   -1
100
AcDbLine
 10
84.14108342375629
 20
96.631037408514
 11
78.3626143547834
 21
98.80990694802392
  0
CIRCLE
  5
6F
100
AcDbEntity
  8
Marking-aid
  6
ByLayer
 62
  256
370
   -1
100
AcDbCircle
 10
85
 20
93.5
 40
8.5
  0
LINE
  5
70
100
AcDbEntity
  8
Marking-aid
  6
ByLayer
 62
  256
370
   -1
100
AcDbLine
 10
79.69009305197608
 20
86.8626143547834
 11
71.72522870956682
 21
104.1198138960478
  0
LINE
  5
71
100
AcDbEntity
  8
Marking-aid
  6
ByLayer
 62
  256
370
   -1
100
AcDbLine
 10
71.72522870956682
 20
104.1198138960478
 11
90.30990800118116
 21
100.1373848026911
  0
LINE
  5
72
100
AcDbEntity
  8
stars
  6
ByLayer
 62
  256
370
   -1
100
AcDbLine
 10
77.71132871468117
 20
148.6267551069522
 11
83.72953135912992
 21
150.0121843478846
  0
LINE
  5
73
100
AcDbEntity
  8
stars
  6
ByLayer
 62
  256
370
   -1
100
AcDbLine
 10
87.44898514458379
 20
150.8684267077887
 11
93.46718778903251
 21
152.2538559487211
  0
LINE
  5
74
100
AcDbEntity
  8
stars
  6
ByLayer
 62
  256
370
   -1
100
AcDbLine
 10
93.46718778903251
 20
152.2538559487211
 11
87.78402469816645
 21
154.6704309080174
  0
LINE
  5
75
100
AcDbEntity
  8
stars
  6
ByLayer
 62
  256
370
   -1
100
AcDbLine
 10
84.27163674440227
 20
156.1639563692244
 11
78.58847365353616
 21
158.5805313285206
  0
LINE
  5
76
100
AcDbEntity
  8
stars
  6
ByLayer
 62
  256
370
   -1
100
AcDbLine
 10
78.58847365353616
 20
158.5805313285206
 11
81.76582205371764
 21
153.285001667085
  0
LINE
  5
77
100
AcDbEntity
  8
stars
  6
ByLayer
 62
  256
370
   -1
100
AcDbLine
 10
83.72953135912992
 20
150.0121843478846
 11
86.90687975931141
 21
144.7166546864489
  0
LINE
  5
78
100
AcDbEntity
  8
stars
  6
ByLayer
 62
  256
370
   -1
100
AcDbLine
 10
86.90687975931141
 20
144.7166546864489
 11
87.44898514458376
 21
150.8684267077887
  0
LINE
  5
79
100
AcDbEntity
  8
stars
  6
ByLayer
 62
  256
370
   -1
100
AcDbLine
 10
87.78402469816643
 20
154.6704309080174
 11
88.32613008343876
 21
160.8222029293572
  0
LINE
  5
7A
100
AcDbEntity
  8
stars
  6
ByLayer
 62
  256
370
   -1
100
AcDbLine
 10
88.32613008343876
 20
160.8222029293572
 11
84.27163674440226
 21
156.1639563692243
  0
LINE
  5
7B
100
AcDbEntity
  8
stars
  6
ByLayer
 62
  256
370
   -1
100
AcDbLine
 10
81.76582205371764
 20
153.285001667085
 11
77.71132871468117
 21
148.6267551069522
  0
CIRCLE
  5
7C
100
AcDbEntity
  8
Marking-aid
  6
ByLayer
 62
  256
370
   -1
100
AcDbCircle
 10
85
 20
153
 40
8.5
  0
LINE
  5
7D
100
AcDbEntity
  8
Marking-aid
  6
ByLayer
 62
  256
370
   -1
100
AcDbLine
 10
89.37324489304783
 20
145.7113287146812
 11
70.42265742936235
 21
144.2535102139043
  0
LINE
  5
7E
100
AcDbEntity
  8
Marking-aid
  6
ByLayer
 62
  256
370
   -1
100
AcDbLine
 10
70.42265742936235
 20
144.2535102139043
 11
80.62675626344922
 21
160.2886719792237
  0
LINE
  5
7F
100
AcDbEntity
  8
stars
  6
ByLayer
 62
  256
370
   -1
100
AcDbLine
 10
93.58542925448924
 20
134.7979188177189
 11
99.66963867974894
 21
133.7393476482355
  0
LINE
  5
80
100
AcDbEntity
  8
stars
  6
ByLayer
 62
  256
370
   -1
100
AcDbLine
 10
103.4298868992319
 20
133.0851146859841
 11
109.5140963244917
 21
132.0265435165009
  0
LINE
  5
81
100
AcDbEntity
  8
stars
  6
ByLayer
 62
  256
370
   -1
100
AcDbLine
 10
109.5140963244917
 20
132.0265435165009
 11
105.2140800240446
 21
136.4591541543947
  0
LINE
  5
82
100
AcDbEntity
  8
stars
  6
ByLayer
 62
  256
370
   -1
100
AcDbLine
 10
102.5565237981897
 20
139.1986581875075
 11
98.25650749774262
 21
143.6312688254014
  0
LINE
  5
83
100
AcDbEntity
  8
stars
  6
ByLayer
 62
  256
370
   -1
100
AcDbLine
 10
98.25650749774262
 20
143.6312688254014
 11
99.12987059878483
 21
137.517725323878
  0
LINE
  5
84
100
AcDbEntity
  8
stars
  6
ByLayer
 62
  256
370
   -1
100
AcDbLine
 10
99.66963867974894
 20
133.7393476482355
 11
100.5430017807912
 21
127.6258041467122
  0
LINE
  5
85
100
AcDbEntity
  8
stars
  6
ByLayer
 62
  256
370
   -1
100
AcDbLine
 10
100.5430017807912
 20
127.6258041467122
 11
103.4298868992319
 21
133.0851146859841
  0
LINE
  5
86
100
AcDbEntity
  8
stars
  6
ByLayer
 62
  256
370
   -1
100
AcDbLine
 10
105.2140800240446
 20
136.4591541543948
 11
108.1009651424853
 21
141.9184646936667
  0
LINE
  5
87
100
AcDbEntity
  8
stars
  6
ByLayer
 62
  256
370
   -1
100
AcDbLine
 10
108.1009651424853
 20
141.9184646936667
 11
102.5565237981897
 21
139.1986581875075
  0
LINE
  5
88
100
AcDbEntity
  8
stars
  6
ByLayer
 62
  256
370
   -1
100
AcDbLine
 10
99.12987059878483
 20
137.517725323878
 11
93.58542925448924
 21
134.7979188177189
  0
LINE
  5
89
100
AcDbEntity
  8
Marking-aid
  6
ByLayer
 62
  256
370
   -1
100
AcDbLine
 10
85.17085850897848
 20
133.5958376354377
 11
100.7979201528629
 21
144.4145709362456
  0
LINE
  5
8A
100
AcDbEntity
  8
stars
  6
ByLayer
 62
  256
370
   -1
100
AcDbLine
 10
93.82704661211378
 20
112.8351301718404
 11
98.95014912085315
 21
109.3866525459554
  0
LINE
  5
8B
100
AcDbEntity
  8
stars
  6
ByLayer
 62
  256
370
   -1
100
AcDbLine
 10
102.1164005991039
 20
107.255376163715
 11
107.2395031078433
 21
103.8068985378301
  0
LINE
  5
8C
100
AcDbEntity
  8
stars
  6
ByLayer
 62
  256
370
   -1
100
AcDbLine
 10
107.2395031078433
 20
103.8068985378301
 11
105.121790405704
 21
109.6080596425123
  0
LINE
  5
8D
100
AcDbEntity
  8
stars
  6
ByLayer
 62
  256
370
   -1
100
AcDbLine
 10
103.8129719773744
 20
113.1933743794199
 11
101.6952592752351
 21
118.9945354841021
  0
LINE
  5
8E
100
AcDbEntity
  8
stars
  6
ByLayer
 62
  256
370
   -1
100
AcDbLine
 10
101.6952592752351
 20
118.9945354841021
 11
99.99868789696457
 21
113.0565372683973
  0
LINE
  5
8F
100
AcDbEntity
  8
stars
  6
ByLayer
 62
  256
370
   -1
100
AcDbLine
 10
98.95014912085315
 20
109.3866525459554
 11
97.25357774258266
 21
103.4486543302506
  0
LINE
  5
90
100
AcDbEntity
  8
stars
  6
ByLayer
 62
  256
370
   -1
100
AcDbLine
 10
97.25357774258266
 20
103.4486543302506
 11
102.1164005991039
 21
107.255376163715
  0
LINE
  5
91
100
AcDbEntity
  8
stars
  6
ByLayer
 62
  256
370
   -1
100
AcDbLine
 10
105.1217904057039
 20
109.6080596425124
 11
109.9846132622252
 21
113.4147814759768
  0
LINE
  5
92
100
AcDbEntity
  8
stars
  6
ByLayer
 62
  256
370
   -1
100
AcDbLine
 10
109.9846132622252
 20
113.4147814759768
 11
103.8129719773744
 21
113.1933743794199
  0
LINE
  5
93
100
AcDbEntity
  8
stars
  6
ByLayer
 62
  256
370
   -1
100
AcDbLine
 10
99.99868789696457
 20
113.0565372683973
 11
93.82704661211378
 21
112.8351301718404
  0
CIRCLE
  5
94
100
AcDbEntity
  8
Marking-aid
  6
ByLayer
 62
  256
370
   -1
100
AcDbCircle
 10
102
 20
110.5
 40
8.5
  0
LINE
  5
95
100
AcDbEntity
  8
Marking-aid
  6
ByLayer
 62
  256
370
   -1
100
AcDbLine
 10
99.66486982815964
 20
102.3270466121138
 11
85.65409322422757
 21
115.1702603436807
  0
LINE
  5
96
100
AcDbEntity
  8
Marking-aid
  6
ByLayer
 62
  256
370
   -1
100
AcDbLine
 10
85.65409322422757
 20
115.1702603436807
 11
104.3351314686469
 21
118.67295301737
  0
CIRCLE
  5
97
100
AcDbEntity
  8
Marking-aid
  6
ByLayer
 62
  256
370
   -1
100
AcDbCircle
 10
102
 20
136
 40
8.5
  0
LINE
  5
98
100
AcDbEntity
  8
Marking-aid
  6
ByLayer
 62
  256
370
   -1
100
AcDbLine
 10
103.2020811822812
 20
127.5854292544892
 11
85.17085850897848
 21
133.5958376354377
  0
LINE
  5
99
100
AcDbEntity
  8
Marking-aid
  6
ByLayer
 62
  256
370
   -1
100
AcDbLine
 10
8.5
 20
170
 11
8.5
 21
85
  0
LINE
  5
9A
100
AcDbEntity
  8
Marking-aid
  6
ByLayer
 62
  256
370
   -1
100
AcDbLine
 10
17
 20
170
 11
17
 21
85
  0
LINE
  5
9B
100
AcDbEntity
  8
Marking-aid
  6
ByLayer
 62
  256
370
   -1
100
AcDbLine
 10
25.5
 20
170
 11
25.5
 21
85
  0
LINE
  5
9C
100
AcDbEntity
  8
Marking-aid
  6
ByLayer
 62
  256
370
   -1
100
AcDbLine
 10
34
 20
170
 11
34
 21
85
  0
LINE
  5
9D
100
AcDbEntity
  8
Marking-aid
  6
ByLayer
 62
  256
370
   -1
100
AcDbLine
 10
42.5
 20
170
 11
42.5
 21
85
  0
LINE
  5
9E
100
AcDbEntity
  8
Marking-aid
  6
ByLayer
 62
  256
370
   -1
100
AcDbLine
 10
51
 20
170
 11
51
 21
85
  0
LINE
  5
9F
100
AcDbEntity
  8
Marking-aid
  6
ByLayer
 62
  256
370
   -1
100
AcDbLine
 10
59.5
 20
170
 11
59.5
 21
85
  0
LINE
  5
A0
100
AcDbEntity
  8
Marking-aid
  6
ByLayer
 62
  256
370
   -1
100
AcDbLine
 10
68
 20
170
 11
68
 21
85
  0
LINE
  5
A1
100
AcDbEntity
  8
Marking-aid
  6
ByLayer
 62
  256
370
   -1
100
AcDbLine
 10
76.5
 20
170
 11
76.5
 21
85
  0
LINE
  5
A2
100
AcDbEntity
  8
Marking-aid
  6
ByLayer
 62
  256
370
   -1
100
AcDbLine
 10
85
 20
170
 11
85
 21
85
  0
LINE
  5
A3
100
AcDbEntity
  8
Marking-aid
  6
ByLayer
 62
  256
370
   -1
100
AcDbLine
 10
93.5
 20
170
 11
93.5
 21
85
  0
LINE
  5
A4
100
AcDbEntity
  8
Marking-aid
  6
ByLayer
 62
  256
370
   -1
100
AcDbLine
 10
102
 20
170
 11
102
 21
85
  0
LINE
  5
A5
100
AcDbEntity
  8
Marking-aid
  6
ByLayer
 62
  256
370
   -1
100
AcDbLine
 10
110.5
 20
170
 11
110.5
 21
85
  0
LINE
  5
A6
100
AcDbEntity
  8
Marking-aid
  6
ByLayer
 62
  256
370
   -1
100
AcDbLine
 10
119
 20
170
 11
119
 21
85
  0
LINE
  5
A7
100
AcDbEntity
  8
Marking-aid
  6
ByLayer
 62
  256
370
   -1
100
AcDbLine
 10
127.5
 20
93.5
 11
-1.405282202021588e-14
 21
93.5
  0
LINE
  5
A8
100
AcDbEntity
  8
Marking-aid
  6
ByLayer
 62
  256
370
   -1
100
AcDbLine
 10
127.5
 20
102
 11
-1.2491397351303e-14
 21
102
  0
LINE
  5
A9
100
AcDbEntity
  8
Marking-aid
  6
ByLayer
 62
  256
370
   -1
100
AcDbLine
 10
127.5
 20
110.5
 11
-1.092997268239013e-14
 21
110.5
  0
LINE
  5
AA
100
AcDbEntity
  8
Marking-aid
  6
ByLayer
 62
  256
370
   -1
100
AcDbLine
 10
127.5
 20
119
 11
-9.368548013477251e-15
 21
119
  0
LINE
  5
AB
100
AcDbEntity
  8
Marking-aid
  6
ByLayer
 62
  256
370
   -1
100
AcDbLine
 10
127.5
 20
127.5
 11
-7.807123344564377e-15
 21
127.5
  0
LINE
  5
AC
100
AcDbEntity
  8
Marking-aid
  6
ByLayer
 62
  256
370
   -1
100
AcDbLine
 10
127.5
 20
136
 11
-6.245698675651501e-15
 21
136
  0
LINE
  5
AD
100
AcDbEntity
  8
Marking-aid
  6
ByLayer
 62
  256
370
   -1
100
AcDbLine
 10
127.5
 20
144.5
 11
-4.684274006738626e-15
 21
144.5
  0
LINE
  5
AE
100
AcDbEntity
  8
Marking-aid
  6
ByLayer
 62
  256
370
   -1
100
AcDbLine
 10
127.5
 20
153
 11
-3.122849337825751e-15
 21
153
  0
LINE
  5
AF
100
AcDbEntity
  8
Marking-aid
  6
ByLayer
 62
  256
370
   -1
100
AcDbLine
 10
127.5
 20
161.5
 11
-1.561424668912875e-15
 21
161.5
  0
LINE
  5
B0
100
AcDbEntity
  8
Marking-aid
  6
ByLayer
 62
  256
370
   -1
100
AcDbLine
 10
127.5
 20
170
 11
127.5
 21
85
  0
LINE
  5
B1
100
AcDbEntity
  8
Marking-aid
  6
ByLayer
 62
  256
370
   -1
100
AcDbLine
 10
0
 20
85
 11
127.5
 21
85
  0
LINE
  5
B2
100
AcDbEntity
  8
Marking-aid
  6
ByLayer
 62
  256
370
   -1
100
AcDbLine
 10
8.5
 20
102
 11
6.591631099536762
 21
96.12664445218705
  0
LINE
  5
B3
100
AcDbEntity
  8
Marking-aid
  6
ByLayer
 62
  256
370
   -1
100
AcDbLine
 10
5.412194255977198
 20
92.49671109562588
 11
3.503825355513977
 21
86.62335554781295
  0
LINE
  5
B4
100
AcDbEntity
  8
Marking-aid
  6
ByLayer
 62
  256
370
   -1
100
AcDbLine
 10
3.503825355513977
 20
86.62335554781295
 11
8.499999999999972
 21
90.25328890437407
  0
LINE
  5
B5
100
AcDbEntity
  8
Marking-aid
  6
ByLayer
 62
  256
370
   -1
100
AcDbLine
 10
11.58780574402279
 20
92.49671109562588
 11
16.58398038850881
 21
96.12664445218705
  0
LINE
  5
B6
100
AcDbEntity
  8
Marking-aid
  6
ByLayer
 62
  256
370
   -1
100
AcDbLine
 10
16.58398038850881
 20
96.12664445218705
 11
10.40836890046324
 21
96.12664445218705
  0
LINE
  5
B7
100
AcDbEntity
  8
Marking-aid
  6
ByLayer
 62
  256
370
   -1
100
AcDbLine
 10
6.591631099536762
 20
96.12664445218705
 11
0.4160196114911958
 21
96.12664445218705
  0
LINE
  5
B8
100
AcDbEntity
  8
Marking-aid
  6
ByLayer
 62
  256
370
   -1
100
AcDbLine
 10
0.4160196114911958
 20
96.12664445218705
 11
5.412194255977184
 21
92.4967110956259
  0
LINE
  5
B9
100
AcDbEntity
  8
Marking-aid
  6
ByLayer
 62
  256
370
   -1
100
AcDbLine
 10
8.5
 20
90.25328890437409
 11
13.49617464448602
 21
86.62335554781295
  0
LINE
  5
BA
100
AcDbEntity
  8
Marking-aid
  6
ByLayer
 62
  256
370
   -1
100
AcDbLine
 10
13.49617464448602
 20
86.62335554781295
 11
11.58780574402278
 21
92.4967110956259
  0
LINE
  5
BB
100
AcDbEntity
  8
Marking-aid
  6
ByLayer
 62
  256
370
   -1
100
AcDbLine
 10
10.40836890046324
 20
96.12664445218705
 11
8.5
 21
102
  0
LINE
  5
BC
100
AcDbEntity
  8
Marking-aid
  6
ByLayer
 62
  256
370
   -1
100
AcDbLine
 10
42.5
 20
127.5
 11
85
 21
93.5
  0
LINE
  5
BD
100
AcDbEntity
  8
Marking-aid
  6
ByLayer
 62
  256
370
   -1
100
AcDbLine
 10
42.5
 20
127.5
 11
102
 21
110.5
  0
LINE
  5
BE
100
AcDbEntity
  8
Marking-aid
  6
ByLayer
 62
  256
370
   -1
100
AcDbLine
 10
42.5
 20
127.5
 11
102
 21
136
  0
LINE
  5
BF
100
AcDbEntity
  8
Marking-aid
  6
ByLayer
 62
  256
370
   -1
100
AcDbLine
 10
42.5
 20
127.5
 11
85
 21
153
  0
LINE
  5
C0
100
AcDbEntity
  8
Red
  6
ByLayer
 62
  256
370
   -1
100
AcDbLine
 10
0
 20
0
 11
255
 21
0
  0
LINE
  5
C1
100
AcDbEntity
  8
Red
  6
ByLayer
 62
  256
370
   -1
100
AcDbLine
 10
255
 20
0
 11
255
 21
170
  0
LINE
  5
C2
100
AcDbEntity
  8
Red
  6
ByLayer
 62
  256
370
   -1
100
AcDbLine
 10
255
 20
170
 11
0
 21
170
  0
LINE
  5
C3
100
AcDbEntity
  8
Red
  6
ByLayer
 62
  256
370
   -1
100
AcDbLine
 10
0
 20
170
 11
0
 21
0
  0
LINE
  5
C4
100
AcDbEntity
  8
0
  6
ByLayer
 62
  256
370
   -1
100
AcDbLine
 10
-5.510910596163089e-15
 20
-30
 11
255
 21
-30
  0
LINE
  5
C5
100
AcDbEntity
  8
0
  6
ByLayer
 62
  256
370
   -1
100
AcDbLine
 10
0
 20
0
 11
-5.510910596163089e-15
 21
-30
  0
LINE
  5
C6
100
AcDbEntity
  8
0
  6
ByLayer
 62
  256
370
   -1
100
AcDbLine
 10
255
 20
0
 11
255
 21
-30
  0
MTEXT
  5
C7
100
AcDbEntity
  8
0
  6
ByLayer
 62
  256
370
   -1
100
AcDbMText
 10
127.5
 20
-15
 30
0
 40
8
 41
163.1111111111149
 71
    5
 72
    1
  1
Mainland China Flag, by Felipe\PLohan Pinheiro da Silva
  7
standard
210
0
220
0
230
1
 50
0
 73
    2
 44
1
  0
ENDSEC
  0
SECTION
  2
OBJECTS
  0
DICTIONARY
  5
C
330
0
100
AcDbDictionary
281
    1
  3
ACAD_GROUP
350
D
  0
DICTIONARY
  5
D
330
C
100
AcDbDictionary
281
    1
  0
ENDSEC
  0
EOF
