999
dxfrw 0.6.3
  0
SECTION
  2
HEADER
  9
$ACADVER
  1
AC1021
  9
$DWGCODEPAGE
  3
ANSI_1252
  9
$INSBASE
 10
0
 20
0
 30
0
  9
$EXTMIN
 10
-123.5
 20
-390
 30
0
  9
$EXTMAX
 10
303.2050807568878
 20
65.00000000000003
 30
0
  9
$LIMMIN
 10
0
 20
0
  9
$LIMMAX
 10
420
 20
297
  9
$ORTHOMODE
 70
    0
  9
$REGENMODE
 70
    1
  9
$FILLMODE
 70
    1
  9
$QTEXTMODE
 70
    0
  9
$MIRRTEXT
 70
    0
  9
$LTSCALE
 40
1
  9
$ATTMODE
 70
    0
  9
$TEXTSIZE
 40
2.5
  9
$TRACEWID
 40
15.68
  9
$TEXTSTYLE
  7
STANDARD
  9
$CLAYER
  8
White
  9
$CELTYPE
  6
BYLAYER
  9
$CECOLOR
 62
  256
  9
$CELTSCALE
 40
1
  9
$DISPSILH
 70
    0
  9
$DIMSCALE
 40
1
  9
$DIMASZ
 40
2.5
  9
$DIMEXO
 40
0.625
  9
$DIMDLI
 40
3.75
  9
$DIMRND
 40
0
  9
$DIMDLE
 40
0
  9
$DIMEXE
 40
1.25
  9
$DIMTP
 40
0
  9
$DIMTM
 40
0
  9
$DIMTXT
 40
2.5
  9
$DIMCEN
 40
2.5
  9
$DIMTSZ
 40
0
  9
$DIMTOL
 70
    0
  9
$DIMLIM
 70
    0
  9
$DIMTIH
 70
    0
  9
$DIMTOH
 70
    0
  9
$DIMSE1
 70
    0
  9
$DIMSE2
 70
    0
  9
$DIMTAD
 70
    1
  9
$DIMZIN
 70
    1
  9
$DIMBLK
  1

  9
$DIMASO
 70
    1
  9
$DIMSHO
 70
    1
  9
$DIMPOST
  1

  9
$DIMAPOST
  1

  9
$DIMALT
 70
    0
  9
$DIMALTD
 70
    3
  9
$DIMALTF
 40
0.03937
  9
$DIMLFAC
 40
1
  9
$DIMTOFL
 70
    1
  9
$DIMTVP
 40
0
  9
$DIMTIX
 70
    0
  9
$DIMSOXD
 70
    0
  9
$DIMSAH
 70
    0
  9
$DIMBLK1
  1

  9
$DIMBLK2
  1

  9
$DIMSTYLE
  2
STANDARD
  9
$DIMCLRD
 70
    0
  9
$DIMCLRE
 70
    0
  9
$DIMCLRT
 70
    0
  9
$DIMTFAC
 40
1
  9
$DIMGAP
 40
0.625
  9
$DIMJUST
 70
    0
  9
$DIMSD1
 70
    0
  9
$DIMSD2
 70
    0
  9
$DIMTOLJ
 70
    0
  9
$DIMTZIN
 70
    8
  9
$DIMALTZ
 70
    0
  9
$DIMALTTZ
 70
    0
  9
$DIMUPT
 70
    0
  9
$DIMDEC
 70
    4
  9
$DIMTDEC
 70
    2
  9
$DIMALTU
 70
    2
  9
$DIMALTTD
 70
    3
  9
$DIMTXSTY
  7
standard
  9
$DIMAUNIT
 70
    0
  9
$DIMADEC
 70
    2
  9
$DIMALTRND
 40
0
  9
$DIMAZIN
 70
    0
  9
$DIMDSEP
 70
    0
  9
$DIMATFIT
 70
    3
  9
$DIMFRAC
 70
    0
  9
$DIMLDRBLK
  1
STANDARD
  9
$DIMLUNIT
 70
    2
  9
$DIMLWD
 70
   -2
  9
$DIMLWE
 70
   -2
  9
$DIMTMOVE
 70
    0
  9
$DIMFXL
 40
1
  9
$DIMFXLON
 70
    0
  9
$DIMJOGANG
 40
0.7854
  9
$DIMTFILL
 70
    0
  9
$DIMTFILLCLR
 70
    0
  9
$DIMARCSYM
 70
    0
  9
$DIMLTYPE
  6

  9
$DIMLTEX1
  6

  9
$DIMLTEX2
  6

  9
$LUNITS
 70
    2
  9
$LUPREC
 70
    4
  9
$SKETCHINC
 40
1
  9
$FILLETRAD
 40
0
  9
$AUNITS
 70
    0
  9
$AUPREC
 70
    2
  9
$MENU
  1
.
  9
$ELEVATION
 40
0
  9
$PELEVATION
 40
0
  9
$THICKNESS
 40
0
  9
$LIMCHECK
 70
    0
  9
$CHAMFERA
 40
0
  9
$CHAMFERB
 40
0
  9
$CHAMFERC
 40
0
  9
$CHAMFERD
 40
0
  9
$SKPOLY
 70
    0
  9
$USRTIMER
 70
    1
  9
$ANGBASE
 50
0
  9
$ANGDIR
 70
    0
  9
$PDMODE
 70
   34
  9
$PDSIZE
 40
0
  9
$PLINEWID
 40
0
  9
$SPLFRAME
 70
    0
  9
$SPLINETYPE
 70
    2
  9
$SPLINESEGS
 70
    8
  9
$HANDSEED
  5
20000
  9
$SURFTAB1
 70
    6
  9
$SURFTAB2
 70
    6
  9
$SURFTYPE
 70
    6
  9
$SURFU
 70
    6
  9
$SURFV
 70
    6
  9
$UCSBASE
  2

  9
$UCSNAME
  2

  9
$UCSORG
 10
0
 20
0
 30
0
  9
$UCSXDIR
 10
1
 20
0
 30
0
  9
$UCSYDIR
 10
0
 20
1
 30
0
  9
$UCSORTHOREF
  2

  9
$UCSORTHOVIEW
 70
    0
  9
$UCSORGTOP
 10
0
 20
0
 30
0
  9
$UCSORGBOTTOM
 10
0
 20
0
 30
0
  9
$UCSORGLEFT
 10
0
 20
0
 30
0
  9
$UCSORGRIGHT
 10
0
 20
0
 30
0
  9
$UCSORGFRONT
 10
0
 20
0
 30
0
  9
$UCSORGBACK
 10
0
 20
0
 30
0
  9
$PUCSBASE
  2

  9
$PUCSNAME
  2

  9
$PUCSORG
 10
0
 20
0
 30
0
  9
$PUCSXDIR
 10
1
 20
0
 30
0
  9
$PUCSYDIR
 10
0
 20
1
 30
0
  9
$PUCSORTHOREF
  2

  9
$PUCSORTHOVIEW
 70
    0
  9
$PUCSORGTOP
 10
0
 20
0
 30
0
  9
$PUCSORGBOTTOM
 10
0
 20
0
 30
0
  9
$PUCSORGLEFT
 10
0
 20
0
 30
0
  9
$PUCSORGRIGHT
 10
0
 20
0
 30
0
  9
$PUCSORGFRONT
 10
0
 20
0
 30
0
  9
$PUCSORGBACK
 10
0
 20
0
 30
0
  9
$USERI1
 70
    0
  9
$USERI2
 70
    0
  9
$USERI3
 70
    0
  9
$USERI4
 70
    0
  9
$USERI5
 70
    0
  9
$USERR1
 40
0
  9
$USERR2
 40
0
  9
$USERR3
 40
0
  9
$USERR4
 40
0
  9
$USERR5
 40
0
  9
$WORLDVIEW
 70
    1
  9
$SHADEDGE
 70
    3
  9
$SHADEDIF
 70
   70
  9
$TILEMODE
 70
    1
  9
$MAXACTVP
 70
   64
  9
$PINSBASE
 10
148.5
 20
130.6944444444445
 30
0
  9
$PLIMCHECK
 70
    0
  9
$PEXTMIN
 10
0
 20
0
 30
0
  9
$PEXTMAX
 10
0
 20
0
 30
0
  9
$GRIDMODE
 70
    1
  9
$SNAPSTYLE
 70
    1
  9
$GRIDUNIT
 10
0
 20
0
  9
$PLIMMIN
 10
0
 20
0
  9
$PLIMMAX
 10
297
 20
210
  9
$UNITMODE
 70
    0
  9
$VISRETAIN
 70
    1
  9
$PLINEGEN
 70
    0
  9
$PSLTSCALE
 70
    1
  9
$TREEDEPTH
 70
 3020
  9
$CMLSTYLE
  2
Standard
  9
$CMLJUST
 70
    0
  9
$CMLSCALE
 40
20
  9
$PROXYGRAPHICS
 70
    1
  9
$MEASUREMENT
 70
    1
  9
$CELWEIGHT
370
   -1
  9
$ENDCAPS
280
    0
  9
$JOINSTYLE
280
    0
  9
$LWDISPLAY
290
    0
  9
$INSUNITS
 70
    0
  9
$HYPERLINKBASE
  1

  9
$STYLESHEET
  1

  9
$XEDIT
290
    1
  9
$CEPSNTYPE
380
    0
  9
$PSTYLEMODE
290
    1
  9
$EXTNAMES
290
    1
  9
$PSVPSCALE
 40
1.02778
  9
$OLESTARTUP
290
    0
  9
$SORTENTS
280
  127
  9
$INDEXCTL
280
    0
  9
$HIDETEXT
280
    1
  9
$XCLIPFRAME
290
    0
  9
$HALOGAP
280
    0
  9
$OBSCOLOR
 70
  257
  9
$OBSLTYPE
280
    0
  9
$INTERSECTIONDISPLAY
280
    0
  9
$INTERSECTIONCOLOR
 70
  257
  9
$DIMASSOC
280
    1
  9
$PROJECTNAME
  1

  9
$CAMERADISPLAY
290
    0
  9
$LENSLENGTH
 40
50
  9
$CAMERAHEIGHT
 40
0
  9
$STEPSPERSEC
 40
2
  9
$STEPSIZE
 40
50
  9
$3DDWFPREC
 40
2
  9
$PSOLWIDTH
 40
5
  9
$PSOLHEIGHT
 40
80
  9
$LOFTANG1
 40
1.570796326794897
  9
$LOFTANG2
 40
1.570796326794897
  9
$LOFTMAG1
 40
0
  9
$LOFTMAG2
 40
0
  9
$LOFTPARAM
 70
    7
  9
$LOFTNORMALS
280
    1
  9
$LATITUDE
 40
1
  9
$LONGITUDE
 40
1
  9
$NORTHDIRECTION
 40
0
  9
$TIMEZONE
 70
-8000
  9
$LIGHTGLYPHDISPLAY
280
    1
  9
$TILEMODELIGHTSYNCH
280
    1
  9
$SOLIDHIST
280
    1
  9
$SHOWHIST
280
    1
  9
$DWFFRAME
280
    2
  9
$DGNFRAME
280
    0
  9
$REALWORLDSCALE
290
    1
  9
$INTERFERECOLOR
 62
    1
  9
$CSHADOW
280
    0
  9
$SHADOWPLANELOCATION
 40
0
  0
ENDSEC
  0
SECTION
  2
CLASSES
  0
ENDSEC
  0
SECTION
  2
TABLES
  0
TABLE
  2
VPORT
  5
8
330
0
100
AcDbSymbolTable
 70
    1
  0
VPORT
  5
31
330
2
100
AcDbSymbolTableRecord
100
AcDbViewportTableRecord
  2
*ACTIVE
 70
    0
 10
0
 20
0
 11
1
 21
1
 12
359.8780487804878
 22
36.46341463414634
 13
0
 23
0
 14
10
 24
10
 15
10
 25
10
 16
0
 26
0
 36
1
 17
0
 27
0
 37
0
 40
470.8536585365854
 41
2.673400673400673
 42
50
 43
0
 44
0
 50
0
 51
0
 71
    0
 72
  100
 73
    1
 74
    3
 75
    0
 76
    1
 77
    1
 78
    0
281
    0
 65
    1
110
0
120
0
130
0
111
1
121
0
131
0
112
0
122
1
132
0
 79
    0
146
0
348
10020
 60
    7
 61
    5
292
1
282
    1
141
0
142
0
 63
  250
421
3358443
  0
ENDTAB
  0
TABLE
  2
LTYPE
  5
5
330
0
100
AcDbSymbolTable
 70
    4
  0
LTYPE
  5
14
330
5
100
AcDbSymbolTableRecord
100
AcDbLinetypeTableRecord
  2
ByBlock
 70
    0
  3

 72
   65
 73
    0
 40
0
  0
LTYPE
  5
15
330
5
100
AcDbSymbolTableRecord
100
AcDbLinetypeTableRecord
  2
ByLayer
 70
    0
  3

 72
   65
 73
    0
 40
0
  0
LTYPE
  5
16
330
5
100
AcDbSymbolTableRecord
100
AcDbLinetypeTableRecord
  2
Continuous
 70
    0
  3
Solid line
 72
   65
 73
    0
 40
0
  0
LTYPE
  5
32
330
5
100
AcDbSymbolTableRecord
100
AcDbLinetypeTableRecord
  2
DOT
 70
    0
  3
Dot . . . . . . . . . . . . . . . . . . . . . .
 72
   65
 73
    2
 40
6.35
 49
0
 74
    0
 49
-6.35
 74
    0
  0
LTYPE
  5
33
330
5
100
AcDbSymbolTableRecord
100
AcDbLinetypeTableRecord
  2
DOTTINY
 70
    0
  3
Dot (.15x) .....................................
 72
   65
 73
    2
 40
0.9525
 49
0
 74
    0
 49
-0.9525
 74
    0
  0
LTYPE
  5
34
330
5
100
AcDbSymbolTableRecord
100
AcDbLinetypeTableRecord
  2
DOT2
 70
    0
  3
Dot (.5x) .....................................
 72
   65
 73
    2
 40
3.175
 49
0
 74
    0
 49
-3.175
 74
    0
  0
LTYPE
  5
35
330
5
100
AcDbSymbolTableRecord
100
AcDbLinetypeTableRecord
  2
DOTX2
 70
    0
  3
Dot (2x) .  .  .  .  .  .  .  .  .  .  .  .  .
 72
   65
 73
    2
 40
12.7
 49
0
 74
    0
 49
-12.7
 74
    0
  0
LTYPE
  5
36
330
5
100
AcDbSymbolTableRecord
100
AcDbLinetypeTableRecord
  2
DASHED
 70
    0
  3
Dashed _ _ _ _ _ _ _ _ _ _ _ _ _ _ _ _ _
 72
   65
 73
    2
 40
19.05
 49
12.7
 74
    0
 49
-6.35
 74
    0
  0
LTYPE
  5
37
330
5
100
AcDbSymbolTableRecord
100
AcDbLinetypeTableRecord
  2
DASHEDTINY
 70
    0
  3
Dashed (.15x) _ _ _ _ _ _ _ _ _ _ _ _ _ _ _ _ _
 72
   65
 73
    2
 40
2.8575
 49
1.905
 74
    0
 49
-0.9525
 74
    0
  0
LTYPE
  5
38
330
5
100
AcDbSymbolTableRecord
100
AcDbLinetypeTableRecord
  2
DASHED2
 70
    0
  3
Dashed (.5x) _ _ _ _ _ _ _ _ _ _ _ _ _ _ _ _ _
 72
   65
 73
    2
 40
9.524999999999999
 49
6.35
 74
    0
 49
-3.175
 74
    0
  0
LTYPE
  5
39
330
5
100
AcDbSymbolTableRecord
100
AcDbLinetypeTableRecord
  2
DASHEDX2
 70
    0
  3
Dashed (2x) ____  ____  ____  ____  ____  ___
 72
   65
 73
    2
 40
38.09999999999999
 49
25.4
 74
    0
 49
-12.7
 74
    0
  0
LTYPE
  5
3A
330
5
100
AcDbSymbolTableRecord
100
AcDbLinetypeTableRecord
  2
DASHDOT
 70
    0
  3
Dash dot __ . __ . __ . __ . __ . __ . __ . __
 72
   65
 73
    4
 40
25.4
 49
12.7
 74
    0
 49
-6.35
 74
    0
 49
0
 74
    0
 49
-6.35
 74
    0
  0
LTYPE
  5
3B
330
5
100
AcDbSymbolTableRecord
100
AcDbLinetypeTableRecord
  2
DASHDOTTINY
 70
    0
  3
Dash dot (.15x) _._._._._._._._._._._._._._._.
 72
   65
 73
    4
 40
3.81
 49
1.905
 74
    0
 49
-0.9525
 74
    0
 49
0
 74
    0
 49
-0.9525
 74
    0
  0
LTYPE
  5
3C
330
5
100
AcDbSymbolTableRecord
100
AcDbLinetypeTableRecord
  2
DASHDOT2
 70
    0
  3
Dash dot (.5x) _._._._._._._._._._._._._._._.
 72
   65
 73
    4
 40
12.7
 49
6.35
 74
    0
 49
-3.175
 74
    0
 49
0
 74
    0
 49
-3.175
 74
    0
  0
LTYPE
  5
3D
330
5
100
AcDbSymbolTableRecord
100
AcDbLinetypeTableRecord
  2
DASHDOTX2
 70
    0
  3
Dash dot (2x) ____  .  ____  .  ____  .  ___
 72
   65
 73
    4
 40
50.8
 49
25.4
 74
    0
 49
-12.7
 74
    0
 49
0
 74
    0
 49
-12.7
 74
    0
  0
LTYPE
  5
3E
330
5
100
AcDbSymbolTableRecord
100
AcDbLinetypeTableRecord
  2
DIVIDE
 70
    0
  3
Divide ____ . . ____ . . ____ . . ____ . . ____
 72
   65
 73
    6
 40
31.75
 49
12.7
 74
    0
 49
-6.35
 74
    0
 49
0
 74
    0
 49
-6.35
 74
    0
 49
0
 74
    0
 49
-6.35
 74
    0
  0
LTYPE
  5
3F
330
5
100
AcDbSymbolTableRecord
100
AcDbLinetypeTableRecord
  2
DIVIDETINY
 70
    0
  3
Divide (.15x) __..__..__..__..__..__..__..__.._
 72
   65
 73
    6
 40
4.7625
 49
1.905
 74
    0
 49
-0.9525
 74
    0
 49
0
 74
    0
 49
-0.9525
 74
    0
 49
0
 74
    0
 49
-0.9525
 74
    0
  0
LTYPE
  5
40
330
5
100
AcDbSymbolTableRecord
100
AcDbLinetypeTableRecord
  2
DIVIDE2
 70
    0
  3
Divide (.5x) __..__..__..__..__..__..__..__.._
 72
   65
 73
    6
 40
15.875
 49
6.35
 74
    0
 49
-3.175
 74
    0
 49
0
 74
    0
 49
-3.175
 74
    0
 49
0
 74
    0
 49
-3.175
 74
    0
  0
LTYPE
  5
41
330
5
100
AcDbSymbolTableRecord
100
AcDbLinetypeTableRecord
  2
DIVIDEX2
 70
    0
  3
Divide (2x) ________  .  .  ________  .  .  _
 72
   65
 73
    6
 40
63.5
 49
25.4
 74
    0
 49
-12.7
 74
    0
 49
0
 74
    0
 49
-12.7
 74
    0
 49
0
 74
    0
 49
-12.7
 74
    0
  0
LTYPE
  5
42
330
5
100
AcDbSymbolTableRecord
100
AcDbLinetypeTableRecord
  2
BORDER
 70
    0
  3
Border __ __ . __ __ . __ __ . __ __ . __ __ .
 72
   65
 73
    6
 40
44.45
 49
12.7
 74
    0
 49
-6.35
 74
    0
 49
12.7
 74
    0
 49
-6.35
 74
    0
 49
0
 74
    0
 49
-6.35
 74
    0
  0
LTYPE
  5
43
330
5
100
AcDbSymbolTableRecord
100
AcDbLinetypeTableRecord
  2
BORDERTINY
 70
    0
  3
Border (.15x) __.__.__.__.__.__.__.__.__.__.__.
 72
   65
 73
    6
 40
6.6675
 49
1.905
 74
    0
 49
-0.9525
 74
    0
 49
1.905
 74
    0
 49
-0.9525
 74
    0
 49
0
 74
    0
 49
-0.9525
 74
    0
  0
LTYPE
  5
44
330
5
100
AcDbSymbolTableRecord
100
AcDbLinetypeTableRecord
  2
BORDER2
 70
    0
  3
Border (.5x) __.__.__.__.__.__.__.__.__.__.__.
 72
   65
 73
    6
 40
22.225
 49
6.35
 74
    0
 49
-3.175
 74
    0
 49
6.35
 74
    0
 49
-3.175
 74
    0
 49
0
 74
    0
 49
-3.175
 74
    0
  0
LTYPE
  5
45
330
5
100
AcDbSymbolTableRecord
100
AcDbLinetypeTableRecord
  2
BORDERX2
 70
    0
  3
Border (2x) ____  ____  .  ____  ____  .  ___
 72
   65
 73
    6
 40
88.89999999999999
 49
25.4
 74
    0
 49
-12.7
 74
    0
 49
25.4
 74
    0
 49
-12.7
 74
    0
 49
0
 74
    0
 49
-12.7
 74
    0
  0
LTYPE
  5
46
330
5
100
AcDbSymbolTableRecord
100
AcDbLinetypeTableRecord
  2
CENTER
 70
    0
  3
Center ____ _ ____ _ ____ _ ____ _ ____ _ ____
 72
   65
 73
    4
 40
50.8
 49
31.75
 74
    0
 49
-6.35
 74
    0
 49
6.35
 74
    0
 49
-6.35
 74
    0
  0
LTYPE
  5
47
330
5
100
AcDbSymbolTableRecord
100
AcDbLinetypeTableRecord
  2
CENTERTINY
 70
    0
  3
Center (.15x) ___ _ ___ _ ___ _ ___ _ ___ _ ___
 72
   65
 73
    4
 40
7.619999999999999
 49
4.7625
 74
    0
 49
-0.9525
 74
    0
 49
0.9525
 74
    0
 49
-0.9525
 74
    0
  0
LTYPE
  5
48
330
5
100
AcDbSymbolTableRecord
100
AcDbLinetypeTableRecord
  2
CENTER2
 70
    0
  3
Center (.5x) ___ _ ___ _ ___ _ ___ _ ___ _ ___
 72
   65
 73
    4
 40
28.575
 49
19.05
 74
    0
 49
-3.175
 74
    0
 49
3.175
 74
    0
 49
-3.175
 74
    0
  0
LTYPE
  5
49
330
5
100
AcDbSymbolTableRecord
100
AcDbLinetypeTableRecord
  2
CENTERX2
 70
    0
  3
Center (2x) ________  __  ________  __  _____
 72
   65
 73
    4
 40
101.6
 49
63.5
 74
    0
 49
-12.7
 74
    0
 49
12.7
 74
    0
 49
-12.7
 74
    0
  0
ENDTAB
  0
TABLE
  2
LAYER
  5
2
330
0
100
AcDbSymbolTable
 70
    1
  0
LAYER
  5
10
330
2
100
AcDbSymbolTableRecord
100
AcDbLayerTableRecord
  2
0
 70
    0
 62
    7
  6
CONTINUOUS
370
    0
390
F
  0
LAYER
  5
4A
330
2
100
AcDbSymbolTableRecord
100
AcDbLayerTableRecord
  2
Blue
 70
    0
 62
    5
  6
CONTINUOUS
370
    0
390
F
  0
LAYER
  5
4B
330
2
100
AcDbSymbolTableRecord
100
AcDbLayerTableRecord
  2
Picollo
 70
    0
 62
   30
  6
CONTINUOUS
370
    0
390
F
  0
LAYER
  5
4C
330
2
100
AcDbSymbolTableRecord
100
AcDbLayerTableRecord
  2
Red
 70
    0
 62
    1
  6
CONTINUOUS
370
    0
390
F
  0
LAYER
  5
4D
330
2
100
AcDbSymbolTableRecord
100
AcDbLayerTableRecord
  2
White
 70
    0
 62
  255
420
16711422
  6
CONTINUOUS
370
    0
390
F
  0
ENDTAB
  0
TABLE
  2
STYLE
  5
3
330
0
100
AcDbSymbolTable
 70
    3
  0
STYLE
  5
4E
330
2
100
AcDbSymbolTableRecord
100
AcDbTextStyleTableRecord
  2
STANDARD
 70
    0
 40
0
 41
1
 50
0
 71
    0
 42
1
  3
STANDARD
  4

  0
ENDTAB
  0
TABLE
  2
VIEW
  5
6
330
0
100
AcDbSymbolTable
 70
    0
  0
ENDTAB
  0
TABLE
  2
UCS
  5
7
330
0
100
AcDbSymbolTable
 70
    0
  0
ENDTAB
  0
TABLE
  2
APPID
  5
9
330
0
100
AcDbSymbolTable
 70
    1
  0
APPID
  5
12
330
9
100
AcDbSymbolTableRecord
100
AcDbRegAppTableRecord
  2
ACAD
 70
    0
  0
APPID
  5
4F
330
9
100
AcDbSymbolTableRecord
100
AcDbRegAppTableRecord
  2
LibreCad
 70
    0
  0
ENDTAB
  0
TABLE
  2
DIMSTYLE
  5
A
330
0
100
AcDbSymbolTable
 70
    1
100
AcDbDimStyleTable
 71
    1
  0
DIMSTYLE
105
50
330
A
100
AcDbSymbolTableRecord
100
AcDbDimStyleTableRecord
  2
Standard
 70
    0
 40
1
 41
2.5
 42
0.625
 43
0.38
 44
1.25
 45
0
 46
0
 47
0
 48
0
 49
1
140
2.5
141
0.09
142
0
143
25.4
144
1
145
0
146
1
147
0.625
148
0
 71
    0
 72
    0
 73
    0
 74
    1
 75
    0
 76
    0
 77
    0
 78
    1
 79
    0
170
    0
171
    2
172
    0
173
    0
174
    0
175
    0
176
    0
177
    0
178
    0
179
    2
271
    4
272
    4
273
    2
274
    2
275
    0
276
    0
277
    2
278
    0
279
    0
280
    0
281
    0
282
    0
283
    1
284
    0
285
    0
286
    0
288
    0
289
    3
340
4E
  0
ENDTAB
  0
TABLE
  2
BLOCK_RECORD
  5
1
330
0
100
AcDbSymbolTable
 70
    2
  0
BLOCK_RECORD
  5
1F
330
1
100
AcDbSymbolTableRecord
100
AcDbBlockTableRecord
  2
*Model_Space
 70
    0
280
    1
281
    0
  0
BLOCK_RECORD
  5
1E
330
1
100
AcDbSymbolTableRecord
100
AcDbBlockTableRecord
  2
*Paper_Space
 70
    0
280
    1
281
    0
  0
ENDTAB
  0
ENDSEC
  0
SECTION
  2
BLOCKS
  0
BLOCK
  5
20
330
1F
100
AcDbEntity
  8
0
100
AcDbBlockBegin
  2
*Model_Space
 70
    0
 10
0
 20
0
 30
0
  3
*Model_Space
  1

  0
ENDBLK
  5
21
330
1F
100
AcDbEntity
  8
0
100
AcDbBlockEnd
  0
BLOCK
  5
1C
330
1B
100
AcDbEntity
  8
0
100
AcDbBlockBegin
  2
*Paper_Space
 70
    0
 10
0
 20
0
 30
0
  3
*Paper_Space
  1

  0
ENDBLK
  5
1D
330
1F
100
AcDbEntity
  8
0
100
AcDbBlockEnd
  0
ENDSEC
  0
SECTION
  2
ENTITIES
  0
HATCH
  5
51
100
AcDbEntity
  8
White
  6
ByLayer
 62
  256
370
   -1
100
AcDbHatch
 10
0
 20
0
 30
0
210
0
220
0
230
1
  2
SOLID
 70
    1
 71
    0
 91
    1
 92
    0
 93
    4
 72
    1
 10
-24.7
 20
45
 11
123.5
 21
45
 72
    1
 10
123.5
 20
45
 11
123.5
 21
55
 72
    1
 10
123.5
 20
55
 11
-24.7
 21
55
 72
    1
 10
-24.7
 20
55
 11
-24.7
 21
45
 97
    0
 75
    0
 76
    1
 98
    0
  0
HATCH
  5
52
100
AcDbEntity
  8
White
  6
ByLayer
 62
  256
370
   -1
100
AcDbHatch
 10
0
 20
0
 30
0
210
0
220
0
230
1
  2
SOLID
 70
    1
 71
    0
 91
    1
 92
    0
 93
    4
 72
    1
 10
-24.7
 20
25
 11
123.5
 21
25
 72
    1
 10
123.5
 20
25
 11
123.5
 21
35
 72
    1
 10
123.5
 20
35
 11
-24.7
 21
35
 72
    1
 10
-24.7
 20
35
 11
-24.7
 21
25
 97
    0
 75
    0
 76
    1
 98
    0
  0
HATCH
  5
53
100
AcDbEntity
  8
White
  6
ByLayer
 62
  256
370
   -1
100
AcDbHatch
 10
0
 20
0
 30
0
210
0
220
0
230
1
  2
SOLID
 70
    1
 71
    0
 91
    1
 92
    0
 93
    4
 72
    1
 10
-24.7
 20
5
 11
123.5
 21
5
 72
    1
 10
123.5
 20
5
 11
123.5
 21
15
 72
    1
 10
123.5
 20
15
 11
-24.7
 21
15
 72
    1
 10
-24.7
 20
15
 11
-24.7
 21
5
 97
    0
 75
    0
 76
    1
 98
    0
  0
HATCH
  5
54
100
AcDbEntity
  8
White
  6
ByLayer
 62
  256
370
   -1
100
AcDbHatch
 10
0
 20
0
 30
0
210
0
220
0
230
1
  2
SOLID
 70
    1
 71
    0
 91
    1
 92
    0
 93
    5
 72
    1
 10
123.5
 20
-15
 11
-123.5
 21
-15
 72
    1
 10
-123.5
 20
-15
 11
-123.5
 21
-5
 72
    1
 10
-123.5
 20
-5
 11
-24.7
 21
-5
 72
    1
 10
-24.7
 20
-5
 11
123.5
 21
-5
 72
    1
 10
123.5
 20
-5
 11
123.5
 21
-15
 97
    0
 75
    0
 76
    1
 98
    0
  0
HATCH
  5
55
100
AcDbEntity
  8
White
  6
ByLayer
 62
  256
370
   -1
100
AcDbHatch
 10
0
 20
0
 30
0
210
0
220
0
230
1
  2
SOLID
 70
    1
 71
    0
 91
    1
 92
    0
 93
    4
 72
    1
 10
123.5
 20
-35
 11
-123.5
 21
-35
 72
    1
 10
-123.5
 20
-35
 11
-123.5
 21
-25
 72
    1
 10
-123.5
 20
-25
 11
123.5
 21
-25
 72
    1
 10
123.5
 20
-25
 11
123.5
 21
-35
 97
    0
 75
    0
 76
    1
 98
    0
  0
HATCH
  5
56
100
AcDbEntity
  8
White
  6
ByLayer
 62
  256
370
   -1
100
AcDbHatch
 10
0
 20
0
 30
0
210
0
220
0
230
1
  2
SOLID
 70
    1
 71
    0
 91
    1
 92
    0
 93
    4
 72
    1
 10
123.5
 20
-55
 11
-123.5
 21
-55
 72
    1
 10
-123.5
 20
-55
 11
-123.5
 21
-45
 72
    1
 10
-123.5
 20
-45
 11
123.5
 21
-45
 72
    1
 10
123.5
 20
-45
 11
123.5
 21
-55
 97
    0
 75
    0
 76
    1
 98
    0
  0
HATCH
  5
57
100
AcDbEntity
  8
White
  6
ByLayer
 62
  256
370
   -1
100
AcDbHatch
 10
0
 20
0
 30
0
210
0
220
0
230
1
  2
SOLID
 70
    1
 71
    0
 91
    1
 92
    0
 93
    4
 72
    1
 10
293.2050807568878
 20
-182
 11
293.2050807568878
 21
65.00000000000003
 72
    1
 10
293.2050807568878
 20
65.00000000000003
 11
283.2050807568878
 21
65.00000000000003
 72
    1
 10
283.2050807568878
 20
65.00000000000003
 11
283.2050807568878
 21
-182
 72
    1
 10
283.2050807568878
 20
-182
 11
293.2050807568878
 21
-182
 97
    0
 75
    0
 76
    1
 98
    0
  0
HATCH
  5
58
100
AcDbEntity
  8
White
  6
ByLayer
 62
  256
370
   -1
100
AcDbHatch
 10
0
 20
0
 30
0
210
0
220
0
230
1
  2
SOLID
 70
    1
 71
    0
 91
    1
 92
    0
 93
    4
 72
    1
 10
273.2050807568878
 20
-182
 11
273.2050807568878
 21
65.00000000000003
 72
    1
 10
273.2050807568878
 20
65.00000000000003
 11
263.2050807568878
 21
65
 72
    1
 10
263.2050807568878
 20
65
 11
263.2050807568878
 21
-182
 72
    1
 10
263.2050807568878
 20
-182
 11
273.2050807568878
 21
-182
 97
    0
 75
    0
 76
    1
 98
    0
  0
HATCH
  5
59
100
AcDbEntity
  8
White
  6
ByLayer
 62
  256
370
   -1
100
AcDbHatch
 10
0
 20
0
 30
0
210
0
220
0
230
1
  2
SOLID
 70
    1
 71
    0
 91
    1
 92
    0
 93
    5
 72
    1
 10
253.2050807568878
 20
-182
 11
253.2050807568878
 21
65
 72
    1
 10
253.2050807568878
 20
65
 11
243.2050807568878
 21
65
 72
    1
 10
243.2050807568878
 20
65
 11
243.2050807568878
 21
-33.79999999999994
 72
    1
 10
243.2050807568878
 20
-33.79999999999994
 11
243.2050807568878
 21
-182
 72
    1
 10
243.2050807568878
 20
-182
 11
253.2050807568878
 21
-182
 97
    0
 75
    0
 76
    1
 98
    0
  0
HATCH
  5
5A
100
AcDbEntity
  8
White
  6
ByLayer
 62
  256
370
   -1
100
AcDbHatch
 10
0
 20
0
 30
0
210
0
220
0
230
1
  2
SOLID
 70
    1
 71
    0
 91
    1
 92
    0
 93
    4
 72
    1
 10
233.2050807568878
 20
-33.79999999999994
 11
233.2050807568878
 21
-182
 72
    1
 10
233.2050807568878
 20
-182
 11
223.2050807568878
 21
-182
 72
    1
 10
223.2050807568878
 20
-182
 11
223.2050807568878
 21
-33.79999999999994
 72
    1
 10
223.2050807568878
 20
-33.79999999999994
 11
233.2050807568878
 21
-33.79999999999994
 97
    0
 75
    0
 76
    1
 98
    0
  0
HATCH
  5
5B
100
AcDbEntity
  8
White
  6
ByLayer
 62
  256
370
   -1
100
AcDbHatch
 10
0
 20
0
 30
0
210
0
220
0
230
1
  2
SOLID
 70
    1
 71
    0
 91
    1
 92
    0
 93
    4
 72
    1
 10
213.2050807568878
 20
-33.79999999999994
 11
213.2050807568878
 21
-182
 72
    1
 10
213.2050807568878
 20
-182
 11
203.2050807568878
 21
-182
 72
    1
 10
203.2050807568878
 20
-182
 11
203.2050807568878
 21
-33.79999999999995
 72
    1
 10
203.2050807568878
 20
-33.79999999999995
 11
213.2050807568878
 21
-33.79999999999994
 97
    0
 75
    0
 76
    1
 98
    0
  0
HATCH
  5
5C
100
AcDbEntity
  8
White
  6
ByLayer
 62
  256
370
   -1
100
AcDbHatch
 10
0
 20
0
 30
0
210
0
220
0
230
1
  2
SOLID
 70
    1
 71
    0
 91
    1
 92
    0
 93
    4
 72
    1
 10
193.2050807568878
 20
-33.79999999999995
 11
193.2050807568878
 21
-182
 72
    1
 10
193.2050807568878
 20
-182
 11
183.2050807568878
 21
-182
 72
    1
 10
183.2050807568878
 20
-182
 11
183.2050807568878
 21
-33.79999999999995
 72
    1
 10
183.2050807568878
 20
-33.79999999999995
 11
193.2050807568878
 21
-33.79999999999995
 97
    0
 75
    0
 76
    1
 98
    0
  0
HATCH
  5
5D
100
AcDbEntity
  8
Red
  6
ByLayer
 62
  256
370
   -1
100
AcDbHatch
 10
0
 20
0
 30
0
210
0
220
0
230
1
  2
SOLID
 70
    1
 71
    0
 91
    1
 92
    0
 93
    4
 72
    1
 10
183.2050807568878
 20
-33.79999999999995
 11
183.2050807568878
 21
-182
 72
    1
 10
183.2050807568878
 20
-182
 11
173.2050807568878
 21
-182
 72
    1
 10
173.2050807568878
 20
-182
 11
173.2050807568878
 21
-33.79999999999995
 72
    1
 10
173.2050807568878
 20
-33.79999999999995
 11
183.2050807568878
 21
-33.79999999999995
 97
    0
 75
    0
 76
    1
 98
    0
  0
HATCH
  5
5E
100
AcDbEntity
  8
Red
  6
ByLayer
 62
  256
370
   -1
100
AcDbHatch
 10
0
 20
0
 30
0
210
0
220
0
230
1
  2
SOLID
 70
    1
 71
    0
 91
    1
 92
    0
 93
    4
 72
    1
 10
193.2050807568878
 20
-33.79999999999995
 11
193.2050807568878
 21
-182
 72
    1
 10
193.2050807568878
 20
-182
 11
203.2050807568878
 21
-182
 72
    1
 10
203.2050807568878
 20
-182
 11
203.2050807568878
 21
-33.79999999999995
 72
    1
 10
203.2050807568878
 20
-33.79999999999995
 11
193.2050807568878
 21
-33.79999999999995
 97
    0
 75
    0
 76
    1
 98
    0
  0
HATCH
  5
5F
100
AcDbEntity
  8
Red
  6
ByLayer
 62
  256
370
   -1
100
AcDbHatch
 10
0
 20
0
 30
0
210
0
220
0
230
1
  2
SOLID
 70
    1
 71
    0
 91
    1
 92
    0
 93
    4
 72
    1
 10
213.2050807568878
 20
-33.79999999999994
 11
213.2050807568878
 21
-182
 72
    1
 10
213.2050807568878
 20
-182
 11
223.2050807568878
 21
-182
 72
    1
 10
223.2050807568878
 20
-182
 11
223.2050807568878
 21
-33.79999999999994
 72
    1
 10
223.2050807568878
 20
-33.79999999999994
 11
213.2050807568878
 21
-33.79999999999994
 97
    0
 75
    0
 76
    1
 98
    0
  0
HATCH
  5
60
100
AcDbEntity
  8
Red
  6
ByLayer
 62
  256
370
   -1
100
AcDbHatch
 10
0
 20
0
 30
0
210
0
220
0
230
1
  2
SOLID
 70
    1
 71
    0
 91
    1
 92
    0
 93
    4
 72
    1
 10
233.2050807568878
 20
-33.79999999999994
 11
233.2050807568878
 21
-182
 72
    1
 10
233.2050807568878
 20
-182
 11
243.2050807568878
 21
-182
 72
    1
 10
243.2050807568878
 20
-182
 11
243.2050807568878
 21
-33.79999999999994
 72
    1
 10
243.2050807568878
 20
-33.79999999999994
 11
233.2050807568878
 21
-33.79999999999994
 97
    0
 75
    0
 76
    1
 98
    0
  0
HATCH
  5
61
100
AcDbEntity
  8
Red
  6
ByLayer
 62
  256
370
   -1
100
AcDbHatch
 10
0
 20
0
 30
0
210
0
220
0
230
1
  2
SOLID
 70
    1
 71
    0
 91
    1
 92
    0
 93
    4
 72
    1
 10
263.2050807568878
 20
65
 11
263.2050807568878
 21
-182
 72
    1
 10
263.2050807568878
 20
-182
 11
253.2050807568878
 21
-182
 72
    1
 10
253.2050807568878
 20
-182
 11
253.2050807568878
 21
65
 72
    1
 10
253.2050807568878
 20
65
 11
263.2050807568878
 21
65
 97
    0
 75
    0
 76
    1
 98
    0
  0
HATCH
  5
62
100
AcDbEntity
  8
Red
  6
ByLayer
 62
  256
370
   -1
100
AcDbHatch
 10
0
 20
0
 30
0
210
0
220
0
230
1
  2
SOLID
 70
    1
 71
    0
 91
    1
 92
    0
 93
    4
 72
    1
 10
283.2050807568878
 20
65.00000000000003
 11
283.2050807568878
 21
-182
 72
    1
 10
283.2050807568878
 20
-182
 11
273.2050807568878
 21
-182
 72
    1
 10
273.2050807568878
 20
-182
 11
273.2050807568878
 21
65.00000000000003
 72
    1
 10
273.2050807568878
 20
65.00000000000003
 11
283.2050807568878
 21
65.00000000000003
 97
    0
 75
    0
 76
    1
 98
    0
  0
HATCH
  5
63
100
AcDbEntity
  8
Red
  6
ByLayer
 62
  256
370
   -1
100
AcDbHatch
 10
0
 20
0
 30
0
210
0
220
0
230
1
  2
SOLID
 70
    1
 71
    0
 91
    1
 92
    0
 93
    4
 72
    1
 10
303.2050807568878
 20
65.00000000000003
 11
303.2050807568878
 21
-182
 72
    1
 10
303.2050807568878
 20
-182
 11
293.2050807568878
 21
-182
 72
    1
 10
293.2050807568878
 20
-182
 11
293.2050807568878
 21
65.00000000000003
 72
    1
 10
293.2050807568878
 20
65.00000000000003
 11
303.2050807568878
 21
65.00000000000003
 97
    0
 75
    0
 76
    1
 98
    0
  0
HATCH
  5
64
100
AcDbEntity
  8
Red
  6
ByLayer
 62
  256
370
   -1
100
AcDbHatch
 10
0
 20
0
 30
0
210
0
220
0
230
1
  2
SOLID
 70
    1
 71
    0
 91
    1
 92
    0
 93
    4
 72
    1
 10
-24.7
 20
55
 11
123.5
 21
55
 72
    1
 10
123.5
 20
55
 11
123.5
 21
65
 72
    1
 10
123.5
 20
65
 11
-24.7
 21
65
 72
    1
 10
-24.7
 20
65
 11
-24.7
 21
55
 97
    0
 75
    0
 76
    1
 98
    0
  0
HATCH
  5
65
100
AcDbEntity
  8
Red
  6
ByLayer
 62
  256
370
   -1
100
AcDbHatch
 10
0
 20
0
 30
0
210
0
220
0
230
1
  2
SOLID
 70
    1
 71
    0
 91
    1
 92
    0
 93
    4
 72
    1
 10
-24.7
 20
45
 11
123.5
 21
45
 72
    1
 10
123.5
 20
45
 11
123.5
 21
35
 72
    1
 10
123.5
 20
35
 11
-24.7
 21
35
 72
    1
 10
-24.7
 20
35
 11
-24.7
 21
45
 97
    0
 75
    0
 76
    1
 98
    0
  0
HATCH
  5
66
100
AcDbEntity
  8
Red
  6
ByLayer
 62
  256
370
   -1
100
AcDbHatch
 10
0
 20
0
 30
0
210
0
220
0
230
1
  2
SOLID
 70
    1
 71
    0
 91
    1
 92
    0
 93
    4
 72
    1
 10
-24.7
 20
25
 11
123.5
 21
25
 72
    1
 10
123.5
 20
25
 11
123.5
 21
15
 72
    1
 10
123.5
 20
15
 11
-24.7
 21
15
 72
    1
 10
-24.7
 20
15
 11
-24.7
 21
25
 97
    0
 75
    0
 76
    1
 98
    0
  0
HATCH
  5
67
100
AcDbEntity
  8
Red
  6
ByLayer
 62
  256
370
   -1
100
AcDbHatch
 10
0
 20
0
 30
0
210
0
220
0
230
1
  2
SOLID
 70
    1
 71
    0
 91
    1
 92
    0
 93
    4
 72
    1
 10
-24.7
 20
5
 11
123.5
 21
5
 72
    1
 10
123.5
 20
5
 11
123.5
 21
-5
 72
    1
 10
123.5
 20
-5
 11
-24.7
 21
-5
 72
    1
 10
-24.7
 20
-5
 11
-24.7
 21
5
 97
    0
 75
    0
 76
    1
 98
    0
  0
HATCH
  5
68
100
AcDbEntity
  8
Red
  6
ByLayer
 62
  256
370
   -1
100
AcDbHatch
 10
0
 20
0
 30
0
210
0
220
0
230
1
  2
SOLID
 70
    1
 71
    0
 91
    1
 92
    0
 93
    4
 72
    1
 10
-123.5
 20
-25
 11
123.5
 21
-25
 72
    1
 10
123.5
 20
-25
 11
123.5
 21
-15
 72
    1
 10
123.5
 20
-15
 11
-123.5
 21
-15
 72
    1
 10
-123.5
 20
-15
 11
-123.5
 21
-25
 97
    0
 75
    0
 76
    1
 98
    0
  0
HATCH
  5
69
100
AcDbEntity
  8
Red
  6
ByLayer
 62
  256
370
   -1
100
AcDbHatch
 10
0
 20
0
 30
0
210
0
220
0
230
1
  2
SOLID
 70
    1
 71
    0
 91
    1
 92
    0
 93
    4
 72
    1
 10
-123.5
 20
-45
 11
123.5
 21
-45
 72
    1
 10
123.5
 20
-45
 11
123.5
 21
-35
 72
    1
 10
123.5
 20
-35
 11
-123.5
 21
-35
 72
    1
 10
-123.5
 20
-35
 11
-123.5
 21
-45
 97
    0
 75
    0
 76
    1
 98
    0
  0
HATCH
  5
6A
100
AcDbEntity
  8
Red
  6
ByLayer
 62
  256
370
   -1
100
AcDbHatch
 10
0
 20
0
 30
0
210
0
220
0
230
1
  2
SOLID
 70
    1
 71
    0
 91
    1
 92
    0
 93
    4
 72
    1
 10
-123.5
 20
-65
 11
123.5
 21
-65
 72
    1
 10
123.5
 20
-65
 11
123.5
 21
-55
 72
    1
 10
123.5
 20
-55
 11
-123.5
 21
-55
 72
    1
 10
-123.5
 20
-55
 11
-123.5
 21
-65
 97
    0
 75
    0
 76
    1
 98
    0
  0
HATCH
  5
6B
100
AcDbEntity
  8
Blue
  6
ByLayer
 62
  256
370
   -1
100
AcDbHatch
 10
0
 20
0
 30
0
210
0
220
0
230
1
  2
SOLID
 70
    1
 71
    0
 91
    1
 92
    0
 93
   10
 72
    1
 10
183.2050807568878
 20
-33.79999999999995
 11
193.2050807568878
 21
-33.79999999999995
 72
    1
 10
193.2050807568878
 20
-33.79999999999995
 11
203.2050807568878
 21
-33.79999999999995
 72
    1
 10
203.2050807568878
 20
-33.79999999999995
 11
213.2050807568878
 21
-33.79999999999994
 72
    1
 10
213.2050807568878
 20
-33.79999999999994
 11
223.2050807568878
 21
-33.79999999999994
 72
    1
 10
223.2050807568878
 20
-33.79999999999994
 11
233.2050807568878
 21
-33.79999999999994
 72
    1
 10
233.2050807568878
 20
-33.79999999999994
 11
243.2050807568878
 21
-33.79999999999994
 72
    1
 10
243.2050807568878
 20
-33.79999999999994
 11
243.2050807568878
 21
65
 72
    1
 10
243.2050807568878
 20
65
 11
173.2050807568878
 21
65
 72
    1
 10
173.2050807568878
 20
65
 11
173.2050807568878
 21
-33.79999999999995
 72
    1
 10
173.2050807568878
 20
-33.79999999999995
 11
183.2050807568878
 21
-33.79999999999995
 97
    0
 75
    0
 76
    1
 98
    0
  0
HATCH
  5
6C
100
AcDbEntity
  8
Red
  6
ByLayer
 62
  256
370
   -1
100
AcDbHatch
 10
0
 20
0
 30
0
210
0
220
0
230
1
  2
SOLID
 70
    1
 71
    0
 91
    1
 92
    0
 93
   37
 72
    1
 10
213.0511229877844
 20
35.25577327418735
 11
208.2050807568878
 21
44.76666666666672
 72
    1
 10
208.2050807568878
 20
44.76666666666672
 11
203.3590385259911
 21
35.25577327418735
 72
    2
 10
202.5144385916042
 20
35.68611843539879
 40
0.9479166666666654
 50
27.00000000000005
 51
120
 73
    0
 72
    1
 10
202.0404802582708
 20
34.86519852139481
 11
197.2675807568878
 21
37.62083333333339
 72
    1
 10
197.2675807568878
 20
37.62083333333339
 11
200.2498213537978
 21
22.27853549391071
 72
    2
 10
199.3193205861546
 20
22.09766446704335
 40
0.9479166666666472
 50
348.9999999999995
 51
136.9999999999993
 73
    0
 72
    1
 10
198.6260582231614
 20
21.45118685490078
 11
192.4550807568878
 21
28.06875000000005
 72
    1
 10
192.4550807568878
 20
28.06875000000005
 11
192.0760106619688
 21
24.50743072517309
 72
    2
 10
191.1334185845086
 20
24.60776109173087
 40
0.9479166666666604
 50
6.075738945810015
 51
101.999999999998
 73
    0
 72
    1
 10
190.9363356275876
 20
23.68055867853528
 11
181.9550807568878
 21
25.58958333333339
 72
    1
 10
181.9550807568878
 20
25.58958333333339
 11
184.6670047866656
 21
17.24313939281628
 72
    2
 10
183.7654824639276
 20
16.95021703356503
 40
0.947916666666664
 50
341.9999999999994
 51
65.00000000000151
 73
    0
 72
    1
 10
184.1660893578692
 20
16.09111277710319
 11
181.0800807568878
 21
14.65208333333339
 72
    1
 10
181.0800807568878
 20
14.65208333333339
 11
194.8073489419545
 21
3.535960737680551
 72
    2
 10
194.2108056546052
 20
2.799291128382865
 40
0.9479166666666464
 50
309.0000000000046
 51
20.00000000000507
 73
    0
 72
    1
 10
195.1015559513918
 20
2.475084534188664
 11
193.4029974235544
 21
-2.19166666666661
 72
    1
 10
193.4029974235544
 20
-2.19166666666661
 11
205.927993383074
 21
0.01682805426118605
 72
    2
 10
206.16856846255
 20
-1.34754102022446
 40
1.385416666666644
 50
260.0000000000016
 51
3.000000000000831
 73
    0
 72
    1
 10
207.5520864638245
 20
-1.420048126269389
 11
206.8925807568878
 21
-14.0041666666666
 72
    1
 10
206.8925807568878
 20
-14.0041666666666
 11
209.5175807568878
 21
-14.0041666666666
 72
    1
 10
209.5175807568878
 20
-14.0041666666666
 11
208.858075049951
 21
-1.4200481262694
 72
    2
 10
210.2415930512255
 20
-1.347541020224471
 40
1.385416666666661
 50
176.9999999999996
 51
279.9999999999997
 73
    0
 72
    1
 10
210.4821681307017
 20
0.01682805426118605
 11
223.0071640902212
 21
-2.19166666666661
 72
    1
 10
223.0071640902212
 20
-2.19166666666661
 11
221.3086055623837
 21
2.475084534188678
 72
    2
 10
222.1993558591704
 20
2.799291128382755
 40
0.9479166666666821
 50
160.0000000000037
 51
231.000000000003
 73
    0
 72
    1
 10
221.6028125718211
 20
3.535960737680551
 11
235.3300807568878
 21
14.65208333333339
 72
    1
 10
235.3300807568878
 20
14.65208333333339
 11
232.2440721559063
 21
16.09111277710322
 72
    2
 10
232.644679049848
 20
16.95021703356504
 40
0.9479166666666655
 50
114.9999999999982
 51
197.9999999999985
 73
    0
 72
    1
 10
231.74315672711
 20
17.24313939281627
 11
234.4550807568878
 21
25.58958333333339
 72
    1
 10
234.4550807568878
 20
25.58958333333339
 11
225.4738258861879
 21
23.68055867853529
 72
    2
 10
225.2767429292669
 20
24.60776109173085
 40
0.9479166666666414
 50
78.00000000000186
 51
173.9242610541906
 73
    0
 72
    1
 10
224.3341508518066
 20
24.50743072517309
 11
223.9550807568878
 21
28.06875000000005
 72
    1
 10
223.9550807568878
 20
28.06875000000005
 11
217.7841032906141
 21
21.45118685490079
 72
    2
 10
217.0908409276209
 20
22.09766446704336
 40
0.9479166666666616
 50
42.99999999999941
 51
191.0000000000002
 73
    0
 72
    1
 10
216.1603401599777
 20
22.27853549391071
 11
219.1425807568878
 21
37.62083333333339
 72
    1
 10
219.1425807568878
 20
37.62083333333339
 11
214.3696812555047
 21
34.8651985213948
 72
    2
 10
213.8957229221713
 20
35.68611843539879
 40
0.9479166666666654
 50
60.00000000000004
 51
152.9999999999999
 73
    0
 97
    0
 75
    0
 76
    1
 98
    0
  0
HATCH
  5
6D
100
AcDbEntity
  8
Blue
  6
ByLayer
 62
  256
370
   -1
100
AcDbHatch
 10
0
 20
0
 30
0
210
0
220
0
230
1
  2
SOLID
 70
    1
 71
    0
 91
    1
 92
    0
 93
    4
 72
    1
 10
-24.7
 20
-5
 11
-123.5
 21
-5
 72
    1
 10
-123.5
 20
-5
 11
-123.5
 21
65
 72
    1
 10
-123.5
 20
65
 11
-24.7
 21
65
 72
    1
 10
-24.7
 20
65
 11
-24.7
 21
-5
 97
    0
 75
    0
 76
    1
 98
    0
  0
HATCH
  5
6E
100
AcDbEntity
  8
Red
  6
ByLayer
 62
  256
370
   -1
100
AcDbHatch
 10
0
 20
0
 30
0
210
0
220
0
230
1
  2
SOLID
 70
    1
 71
    0
 91
    1
 92
    0
 93
   37
 72
    1
 10
-69.25395776910331
 20
49.65577327418728
 11
-74.09999999999998
 21
59.16666666666666
 72
    1
 10
-74.09999999999998
 20
59.16666666666666
 11
-78.94604223089654
 21
49.65577327418728
 72
    2
 10
-79.79064216528346
 20
50.08611843539873
 40
0.9479166666666659
 50
27.00000000000015
 51
120.0000000000001
 73
    0
 72
    1
 10
-80.2646004986168
 20
49.26519852139472
 11
-85.03749999999997
 21
52.02083333333333
 72
    1
 10
-85.03749999999997
 20
52.02083333333333
 11
-82.05525940308996
 21
36.67853549391065
 72
    2
 10
-82.9857601707331
 20
36.49766446704329
 40
0.9479166666666659
 50
348.9999999999998
 51
137
 73
    0
 72
    1
 10
-83.6790225337263
 20
35.85118685490072
 11
-89.84999999999997
 21
42.46874999999999
 72
    1
 10
-89.84999999999997
 20
42.46874999999999
 11
-90.22907009491887
 21
38.90743072517302
 72
    2
 10
-91.1716621723791
 20
39.00776109173081
 40
0.9479166666666665
 50
6.075738945810574
 51
102.0000000000001
 73
    0
 72
    1
 10
-91.36874512930009
 20
38.08055867853522
 11
-100.35
 21
39.98958333333333
 72
    1
 10
-100.35
 20
39.98958333333333
 11
-97.6380759702221
 21
31.64313939281622
 72
    2
 10
-98.53959829296028
 20
31.35021703356497
 40
0.9479166666666665
 50
342.0000000000002
 51
65.00000000000003
 73
    0
 72
    1
 10
-98.13899139901854
 20
30.49111277710314
 11
-101.225
 21
29.05208333333332
 72
    1
 10
-101.225
 20
29.05208333333332
 11
-87.49773181493322
 21
17.93596073768048
 72
    2
 10
-88.09427510228255
 20
17.19929112838273
 40
0.9479166666666665
 50
309
 51
19.99999999999998
 73
    0
 72
    1
 10
-87.20352480549592
 20
16.8750845341886
 11
-88.90208333333329
 21
12.20833333333333
 72
    1
 10
-88.90208333333329
 20
12.20833333333333
 11
-76.37708737381379
 21
14.41682805426112
 72
    2
 10
-76.13651229433775
 20
13.05245897977546
 40
1.385416666666667
 50
260.0000000000001
 51
3.000000000000017
 73
    0
 72
    1
 10
-74.75299429306318
 20
12.97995187373055
 11
-75.41249999999998
 21
0.3958333333333286
 72
    1
 10
-75.41249999999998
 20
0.3958333333333286
 11
-72.78749999999998
 21
0.3958333333333286
 72
    1
 10
-72.78749999999998
 20
0.3958333333333286
 11
-73.44700570693666
 21
12.97995187373054
 72
    2
 10
-72.06348770566211
 20
13.05245897977546
 40
1.385416666666671
 50
176.9999999999998
 51
279.9999999999998
 73
    0
 72
    1
 10
-71.8229126261861
 20
14.41682805426112
 11
-59.29791666666664
 21
12.20833333333333
 72
    1
 10
-59.29791666666664
 20
12.20833333333333
 11
-60.99647519450394
 21
16.87508453418861
 72
    2
 10
-60.10572489771732
 20
17.19929112838274
 40
0.9479166666666665
 50
159.9999999999998
 51
230.9999999999999
 73
    0
 72
    1
 10
-60.70226818506666
 20
17.93596073768049
 11
-46.97499999999998
 21
29.05208333333332
 72
    1
 10
-46.97499999999998
 20
29.05208333333332
 11
-50.06100860098134
 21
30.49111277710314
 72
    2
 10
-49.66040170703967
 20
31.35021703356496
 40
0.9479166666666554
 50
115
 51
197.9999999999997
 73
    0
 72
    1
 10
-50.56192402977774
 20
31.6431393928162
 11
-47.84999999999998
 21
39.98958333333333
 72
    1
 10
-47.84999999999998
 20
39.98958333333333
 11
-56.83125487069978
 21
38.08055867853522
 72
    2
 10
-57.02833782762075
 20
39.0077610917308
 40
0.9479166666666659
 50
77.99999999999973
 51
173.9242610541893
 73
    0
 72
    1
 10
-57.97092990508102
 20
38.90743072517302
 11
-58.34999999999998
 21
42.46874999999999
 72
    1
 10
-58.34999999999998
 20
42.46874999999999
 11
-64.52097746627359
 21
35.85118685490072
 72
    2
 10
-65.21423982926677
 20
36.49766446704329
 40
0.9479166666666635
 50
42.99999999999972
 51
190.9999999999998
 73
    0
 72
    1
 10
-66.14474059690988
 20
36.67853549391065
 11
-63.16249999999998
 21
52.02083333333333
 72
    1
 10
-63.16249999999998
 20
52.02083333333333
 11
-67.93539950138309
 21
49.26519852139472
 72
    2
 10
-68.40935783471643
 20
50.08611843539873
 40
0.9479166666666665
 50
59.99999999999993
 51
152.9999999999999
 73
    0
 97
    0
 75
    0
 76
    1
 98
    0
  0
LINE
  5
6F
100
AcDbEntity
  8
0
  6
ByLayer
 62
  256
370
   -1
100
AcDbLine
 10
-123.5
 20
-65
 11
-123.5
 21
-115
  0
LINE
  5
70
100
AcDbEntity
  8
0
  6
ByLayer
 62
  256
370
   -1
100
AcDbLine
 10
123.5
 20
-65
 11
123.5
 21
-115
  0
LINE
  5
71
100
AcDbEntity
  8
0
  6
ByLayer
 62
  256
370
   -1
100
AcDbLine
 10
-123.5
 20
-115
 11
123.5
 21
-115
  0
LWPOLYLINE
  5
72
100
AcDbEntity
  8
Red
  6
ByLayer
 62
  256
370
   -1
100
AcDbPolyline
 90
   37
 70
    1
 43
0
 10
-63.16249999999998
 20
52.02083333333333
 10
-67.9353995013831
 20
49.26519852139474
 42
-0.4296339059668398
 10
-69.25395776910332
 20
49.65577327418728
 10
-74.09999999999998
 20
59.16666666666666
 10
-78.94604223089655
 20
49.65577327418729
 42
-0.4296339059668435
 10
-80.2646004986168
 20
49.26519852139472
 10
-85.03749999999997
 20
52.02083333333333
 10
-82.05525940309003
 20
36.67853549391064
 42
-0.7535540501027934
 10
-83.6790225337263
 20
35.85118685490071
 10
-89.84999999999997
 20
42.46874999999999
 10
-90.22907009491885
 20
38.90743072517304
 42
-0.4448327607626985
 10
-91.36874512930009
 20
38.08055867853523
 10
-100.35
 20
39.98958333333333
 10
-97.63807597022215
 20
31.64313939281621
 42
-0.3788661086953015
 10
-98.13899139901854
 20
30.49111277710316
 10
-101.225
 20
29.05208333333332
 10
-87.49773181493322
 20
17.93596073768049
 42
-0.3201025237009694
 10
-87.2035248054959
 20
16.8750845341886
 10
-88.90208333333329
 20
12.20833333333333
 10
-76.37708737381379
 20
14.41682805426113
 42
-0.4823427408175634
 10
-74.75299429306322
 20
12.97995187373055
 10
-75.41249999999998
 20
0.3958333333333286
 10
-72.78749999999998
 20
0.3958333333333286
 10
-73.44700570693665
 20
12.97995187373054
 42
-0.482342740817567
 10
-71.8229126261861
 20
14.41682805426112
 10
-59.29791666666664
 20
12.20833333333333
 10
-60.99647519450394
 20
16.87508453418861
 42
-0.3201025237009615
 10
-60.70226818506665
 20
17.93596073768049
 10
-46.97499999999998
 20
29.05208333333332
 10
-50.06100860098134
 20
30.49111277710315
 42
-0.3788661086953103
 10
-50.56192402977774
 20
31.6431393928162
 10
-47.84999999999998
 20
39.98958333333333
 10
-56.83125487069979
 20
38.08055867853522
 42
-0.4448327607626963
 10
-57.97092990508102
 20
38.90743072517302
 10
-58.34999999999998
 20
42.46874999999999
 10
-64.52097746627361
 20
35.85118685490074
 42
-0.7535540501028086
 10
-66.14474059690993
 20
36.67853549391065
  0
LINE
  5
73
100
AcDbEntity
  8
Red
  6
ByLayer
 62
  256
370
   -1
100
AcDbLine
 10
-123.5
 20
-65
 11
123.5
 21
-65
  0
LINE
  5
74
100
AcDbEntity
  8
Red
  6
ByLayer
 62
  256
370
   -1
100
AcDbLine
 10
123.5
 20
-55
 11
-123.5
 21
-55
  0
LINE
  5
75
100
AcDbEntity
  8
Red
  6
ByLayer
 62
  256
370
   -1
100
AcDbLine
 10
-123.5
 20
-45
 11
123.5
 21
-45
  0
LINE
  5
76
100
AcDbEntity
  8
Red
  6
ByLayer
 62
  256
370
   -1
100
AcDbLine
 10
123.5
 20
-35
 11
-123.5
 21
-35
  0
LINE
  5
77
100
AcDbEntity
  8
Red
  6
ByLayer
 62
  256
370
   -1
100
AcDbLine
 10
-123.5
 20
-25
 11
123.5
 21
-25
  0
LINE
  5
78
100
AcDbEntity
  8
Red
  6
ByLayer
 62
  256
370
   -1
100
AcDbLine
 10
123.5
 20
-15
 11
-123.5
 21
-15
  0
LINE
  5
79
100
AcDbEntity
  8
Red
  6
ByLayer
 62
  256
370
   -1
100
AcDbLine
 10
-24.7
 20
5
 11
123.5
 21
5
  0
LINE
  5
7A
100
AcDbEntity
  8
Red
  6
ByLayer
 62
  256
370
   -1
100
AcDbLine
 10
-24.7
 20
25
 11
123.5
 21
25
  0
LINE
  5
7B
100
AcDbEntity
  8
Red
  6
ByLayer
 62
  256
370
   -1
100
AcDbLine
 10
-24.7
 20
15
 11
123.5
 21
15
  0
LINE
  5
7C
100
AcDbEntity
  8
Red
  6
ByLayer
 62
  256
370
   -1
100
AcDbLine
 10
-24.7
 20
45
 11
123.5
 21
45
  0
LINE
  5
7D
100
AcDbEntity
  8
Red
  6
ByLayer
 62
  256
370
   -1
100
AcDbLine
 10
-24.7
 20
35
 11
123.5
 21
35
  0
LINE
  5
7E
100
AcDbEntity
  8
Red
  6
ByLayer
 62
  256
370
   -1
100
AcDbLine
 10
-24.7
 20
55
 11
123.5
 21
55
  0
LINE
  5
7F
100
AcDbEntity
  8
Red
  6
ByLayer
 62
  256
370
   -1
100
AcDbLine
 10
-123.5
 20
-55
 11
-123.5
 21
-65
  0
LINE
  5
80
100
AcDbEntity
  8
Red
  6
ByLayer
 62
  256
370
   -1
100
AcDbLine
 10
123.5
 20
-65
 11
123.5
 21
-55
  0
LINE
  5
81
100
AcDbEntity
  8
Red
  6
ByLayer
 62
  256
370
   -1
100
AcDbLine
 10
-123.5
 20
-35
 11
-123.5
 21
-45
  0
LINE
  5
82
100
AcDbEntity
  8
Red
  6
ByLayer
 62
  256
370
   -1
100
AcDbLine
 10
123.5
 20
-45
 11
123.5
 21
-35
  0
LINE
  5
83
100
AcDbEntity
  8
Red
  6
ByLayer
 62
  256
370
   -1
100
AcDbLine
 10
-123.5
 20
-15
 11
-123.5
 21
-25
  0
LINE
  5
84
100
AcDbEntity
  8
Red
  6
ByLayer
 62
  256
370
   -1
100
AcDbLine
 10
123.5
 20
-25
 11
123.5
 21
-15
  0
LINE
  5
85
100
AcDbEntity
  8
Red
  6
ByLayer
 62
  256
370
   -1
100
AcDbLine
 10
123.5
 20
5
 11
123.5
 21
-5
  0
LINE
  5
86
100
AcDbEntity
  8
Red
  6
ByLayer
 62
  256
370
   -1
100
AcDbLine
 10
123.5
 20
25
 11
123.5
 21
15
  0
LINE
  5
87
100
AcDbEntity
  8
Red
  6
ByLayer
 62
  256
370
   -1
100
AcDbLine
 10
123.5
 20
45
 11
123.5
 21
35
  0
LINE
  5
88
100
AcDbEntity
  8
Red
  6
ByLayer
 62
  256
370
   -1
100
AcDbLine
 10
123.5
 20
65
 11
123.5
 21
55
  0
LINE
  5
89
100
AcDbEntity
  8
Red
  6
ByLayer
 62
  256
370
   -1
100
AcDbLine
 10
-24.7
 20
-5
 11
123.5
 21
-5
  0
LINE
  5
8A
100
AcDbEntity
  8
Blue
  6
ByLayer
 62
  256
370
   -1
100
AcDbLine
 10
-123.5
 20
65
 11
-24.7
 21
65
  0
LINE
  5
8B
100
AcDbEntity
  8
Red
  6
ByLayer
 62
  256
370
   -1
100
AcDbLine
 10
-24.7
 20
65
 11
123.5
 21
65
  0
LINE
  5
8C
100
AcDbEntity
  8
Blue
  6
ByLayer
 62
  256
370
   -1
100
AcDbLine
 10
-24.7
 20
-5
 11
-123.5
 21
-5
  0
LINE
  5
8D
100
AcDbEntity
  8
Blue
  6
ByLayer
 62
  256
370
   -1
100
AcDbLine
 10
-123.5
 20
65
 11
-123.5
 21
-5
  0
LINE
  5
8E
100
AcDbEntity
  8
Blue
  6
ByLayer
 62
  256
370
   -1
100
AcDbLine
 10
-24.7
 20
65
 11
-24.7
 21
-5
  0
LINE
  5
8F
100
AcDbEntity
  8
White
  6
ByLayer
 62
  256
370
   -1
100
AcDbLine
 10
123.5
 20
55
 11
123.5
 21
45
  0
LINE
  5
90
100
AcDbEntity
  8
White
  6
ByLayer
 62
  256
370
   -1
100
AcDbLine
 10
123.5
 20
35
 11
123.5
 21
25
  0
LINE
  5
91
100
AcDbEntity
  8
White
  6
ByLayer
 62
  256
370
   -1
100
AcDbLine
 10
123.5
 20
15
 11
123.5
 21
5
  0
LINE
  5
92
100
AcDbEntity
  8
White
  6
ByLayer
 62
  256
370
   -1
100
AcDbLine
 10
123.5
 20
-5
 11
123.5
 21
-15
  0
LINE
  5
93
100
AcDbEntity
  8
White
  6
ByLayer
 62
  256
370
   -1
100
AcDbLine
 10
123.5
 20
-25
 11
123.5
 21
-35
  0
LINE
  5
94
100
AcDbEntity
  8
White
  6
ByLayer
 62
  256
370
   -1
100
AcDbLine
 10
123.5
 20
-45
 11
123.5
 21
-55
  0
LINE
  5
95
100
AcDbEntity
  8
White
  6
ByLayer
 62
  256
370
   -1
100
AcDbLine
 10
-123.5
 20
-55
 11
-123.5
 21
-45
  0
LINE
  5
96
100
AcDbEntity
  8
White
  6
ByLayer
 62
  256
370
   -1
100
AcDbLine
 10
-123.5
 20
-35
 11
-123.5
 21
-25
  0
LINE
  5
97
100
AcDbEntity
  8
White
  6
ByLayer
 62
  256
370
   -1
100
AcDbLine
 10
-123.5
 20
-15
 11
-123.5
 21
-5
  0
LINE
  5
98
100
AcDbEntity
  8
Red
  6
ByLayer
 62
  256
370
   -1
100
AcDbLine
 10
-24.7
 20
-5
 11
-24.7
 21
5
  0
LINE
  5
99
100
AcDbEntity
  8
Red
  6
ByLayer
 62
  256
370
   -1
100
AcDbLine
 10
-24.7
 20
15
 11
-24.7
 21
25
  0
LINE
  5
9A
100
AcDbEntity
  8
Red
  6
ByLayer
 62
  256
370
   -1
100
AcDbLine
 10
-24.7
 20
35
 11
-24.7
 21
45
  0
LINE
  5
9B
100
AcDbEntity
  8
Red
  6
ByLayer
 62
  256
370
   -1
100
AcDbLine
 10
-24.7
 20
55
 11
-24.7
 21
65
  0
LINE
  5
9C
100
AcDbEntity
  8
White
  6
ByLayer
 62
  256
370
   -1
100
AcDbLine
 10
-24.7
 20
55
 11
-24.7
 21
45
  0
LINE
  5
9D
100
AcDbEntity
  8
White
  6
ByLayer
 62
  256
370
   -1
100
AcDbLine
 10
-24.7
 20
35
 11
-24.7
 21
25
  0
LINE
  5
9E
100
AcDbEntity
  8
White
  6
ByLayer
 62
  256
370
   -1
100
AcDbLine
 10
-24.7
 20
15
 11
-24.7
 21
5
  0
MTEXT
  5
9F
100
AcDbEntity
  8
0
  6
ByLayer
 62
  256
370
   -1
100
AcDbMText
 10
0
 20
-90
 30
0
 40
8
 41
230.4474905246313
 71
    5
 72
    1
  1
Flag of the United States Of The Canada\PFrontal side for horizontal display\PBy Felipe Lohan Pinheiro da Silva
  7
STANDARD
210
0
220
0
230
1
 50
0
 73
    2
 44
1
  0
LINE
  5
A0
100
AcDbEntity
  8
Red
  6
ByLayer
 62
  256
370
   -1
100
AcDbLine
 10
303.2050807568878
 20
65.00000000000003
 11
303.2050807568878
 21
-182
  0
LINE
  5
A1
100
AcDbEntity
  8
Red
  6
ByLayer
 62
  256
370
   -1
100
AcDbLine
 10
293.2050807568878
 20
-182
 11
293.2050807568878
 21
65.00000000000003
  0
LINE
  5
A2
100
AcDbEntity
  8
Red
  6
ByLayer
 62
  256
370
   -1
100
AcDbLine
 10
283.2050807568878
 20
65.00000000000003
 11
283.2050807568878
 21
-182
  0
LINE
  5
A3
100
AcDbEntity
  8
Red
  6
ByLayer
 62
  256
370
   -1
100
AcDbLine
 10
273.2050807568878
 20
-182
 11
273.2050807568878
 21
65.00000000000003
  0
LINE
  5
A4
100
AcDbEntity
  8
Red
  6
ByLayer
 62
  256
370
   -1
100
AcDbLine
 10
263.2050807568878
 20
65
 11
263.2050807568878
 21
-182
  0
LINE
  5
A5
100
AcDbEntity
  8
Red
  6
ByLayer
 62
  256
370
   -1
100
AcDbLine
 10
253.2050807568878
 20
-182
 11
253.2050807568878
 21
65
  0
LINE
  5
A6
100
AcDbEntity
  8
Red
  6
ByLayer
 62
  256
370
   -1
100
AcDbLine
 10
233.2050807568878
 20
-33.79999999999994
 11
233.2050807568878
 21
-182
  0
LINE
  5
A7
100
AcDbEntity
  8
Red
  6
ByLayer
 62
  256
370
   -1
100
AcDbLine
 10
213.2050807568878
 20
-33.79999999999994
 11
213.2050807568878
 21
-182
  0
LINE
  5
A8
100
AcDbEntity
  8
Red
  6
ByLayer
 62
  256
370
   -1
100
AcDbLine
 10
223.2050807568878
 20
-33.79999999999994
 11
223.2050807568878
 21
-182
  0
LINE
  5
A9
100
AcDbEntity
  8
Red
  6
ByLayer
 62
  256
370
   -1
100
AcDbLine
 10
193.2050807568878
 20
-33.79999999999995
 11
193.2050807568878
 21
-182
  0
LINE
  5
AA
100
AcDbEntity
  8
Red
  6
ByLayer
 62
  256
370
   -1
100
AcDbLine
 10
203.2050807568878
 20
-33.79999999999995
 11
203.2050807568878
 21
-182
  0
LINE
  5
AB
100
AcDbEntity
  8
Red
  6
ByLayer
 62
  256
370
   -1
100
AcDbLine
 10
183.2050807568878
 20
-33.79999999999995
 11
183.2050807568878
 21
-182
  0
LINE
  5
AC
100
AcDbEntity
  8
Red
  6
ByLayer
 62
  256
370
   -1
100
AcDbLine
 10
293.2050807568878
 20
65.00000000000003
 11
303.2050807568878
 21
65.00000000000003
  0
LINE
  5
AD
100
AcDbEntity
  8
Red
  6
ByLayer
 62
  256
370
   -1
100
AcDbLine
 10
303.2050807568878
 20
-182
 11
293.2050807568878
 21
-182
  0
LINE
  5
AE
100
AcDbEntity
  8
Red
  6
ByLayer
 62
  256
370
   -1
100
AcDbLine
 10
273.2050807568878
 20
65.00000000000003
 11
283.2050807568878
 21
65.00000000000003
  0
LINE
  5
AF
100
AcDbEntity
  8
Red
  6
ByLayer
 62
  256
370
   -1
100
AcDbLine
 10
283.2050807568878
 20
-182
 11
273.2050807568878
 21
-182
  0
LINE
  5
B0
100
AcDbEntity
  8
Red
  6
ByLayer
 62
  256
370
   -1
100
AcDbLine
 10
253.2050807568878
 20
65
 11
263.2050807568878
 21
65
  0
LINE
  5
B1
100
AcDbEntity
  8
Red
  6
ByLayer
 62
  256
370
   -1
100
AcDbLine
 10
263.2050807568878
 20
-182
 11
253.2050807568878
 21
-182
  0
LINE
  5
B2
100
AcDbEntity
  8
Red
  6
ByLayer
 62
  256
370
   -1
100
AcDbLine
 10
233.2050807568878
 20
-182
 11
243.2050807568878
 21
-182
  0
LINE
  5
B3
100
AcDbEntity
  8
Red
  6
ByLayer
 62
  256
370
   -1
100
AcDbLine
 10
213.2050807568878
 20
-182
 11
223.2050807568878
 21
-182
  0
LINE
  5
B4
100
AcDbEntity
  8
Red
  6
ByLayer
 62
  256
370
   -1
100
AcDbLine
 10
193.2050807568878
 20
-182
 11
203.2050807568878
 21
-182
  0
LINE
  5
B5
100
AcDbEntity
  8
Red
  6
ByLayer
 62
  256
370
   -1
100
AcDbLine
 10
173.2050807568878
 20
-182
 11
183.2050807568878
 21
-182
  0
LINE
  5
B6
100
AcDbEntity
  8
Red
  6
ByLayer
 62
  256
370
   -1
100
AcDbLine
 10
243.2050807568878
 20
-33.79999999999994
 11
243.2050807568878
 21
-182
  0
LINE
  5
B7
100
AcDbEntity
  8
Blue
  6
ByLayer
 62
  256
370
   -1
100
AcDbLine
 10
173.2050807568878
 20
65
 11
173.2050807568878
 21
-33.79999999999995
  0
LINE
  5
B8
100
AcDbEntity
  8
Red
  6
ByLayer
 62
  256
370
   -1
100
AcDbLine
 10
173.2050807568878
 20
-33.79999999999995
 11
173.2050807568878
 21
-182
  0
LINE
  5
B9
100
AcDbEntity
  8
Blue
  6
ByLayer
 62
  256
370
   -1
100
AcDbLine
 10
243.2050807568878
 20
-33.79999999999994
 11
243.2050807568878
 21
65
  0
LINE
  5
BA
100
AcDbEntity
  8
Blue
  6
ByLayer
 62
  256
370
   -1
100
AcDbLine
 10
173.2050807568878
 20
65
 11
243.2050807568878
 21
65
  0
LINE
  5
BB
100
AcDbEntity
  8
White
  6
ByLayer
 62
  256
370
   -1
100
AcDbLine
 10
183.2050807568878
 20
-182
 11
193.2050807568878
 21
-182
  0
LINE
  5
BC
100
AcDbEntity
  8
White
  6
ByLayer
 62
  256
370
   -1
100
AcDbLine
 10
203.2050807568878
 20
-182
 11
213.2050807568878
 21
-182
  0
LINE
  5
BD
100
AcDbEntity
  8
White
  6
ByLayer
 62
  256
370
   -1
100
AcDbLine
 10
223.2050807568878
 20
-182
 11
233.2050807568878
 21
-182
  0
LINE
  5
BE
100
AcDbEntity
  8
White
  6
ByLayer
 62
  256
370
   -1
100
AcDbLine
 10
243.2050807568878
 20
-182
 11
253.2050807568878
 21
-182
  0
LINE
  5
BF
100
AcDbEntity
  8
White
  6
ByLayer
 62
  256
370
   -1
100
AcDbLine
 10
263.2050807568878
 20
-182
 11
273.2050807568878
 21
-182
  0
LINE
  5
C0
100
AcDbEntity
  8
White
  6
ByLayer
 62
  256
370
   -1
100
AcDbLine
 10
283.2050807568878
 20
-182
 11
293.2050807568878
 21
-182
  0
LINE
  5
C1
100
AcDbEntity
  8
White
  6
ByLayer
 62
  256
370
   -1
100
AcDbLine
 10
293.2050807568878
 20
65.00000000000003
 11
283.2050807568878
 21
65.00000000000003
  0
LINE
  5
C2
100
AcDbEntity
  8
White
  6
ByLayer
 62
  256
370
   -1
100
AcDbLine
 10
273.2050807568878
 20
65.00000000000003
 11
263.2050807568878
 21
65
  0
LINE
  5
C3
100
AcDbEntity
  8
White
  6
ByLayer
 62
  256
370
   -1
100
AcDbLine
 10
253.2050807568878
 20
65
 11
243.2050807568878
 21
65
  0
LINE
  5
C4
100
AcDbEntity
  8
Red
  6
ByLayer
 62
  256
370
   -1
100
AcDbLine
 10
243.2050807568878
 20
-33.79999999999994
 11
233.2050807568878
 21
-33.79999999999994
  0
LINE
  5
C5
100
AcDbEntity
  8
Red
  6
ByLayer
 62
  256
370
   -1
100
AcDbLine
 10
223.2050807568878
 20
-33.79999999999994
 11
213.2050807568878
 21
-33.79999999999994
  0
LINE
  5
C6
100
AcDbEntity
  8
Red
  6
ByLayer
 62
  256
370
   -1
100
AcDbLine
 10
203.2050807568878
 20
-33.79999999999995
 11
193.2050807568878
 21
-33.79999999999995
  0
LINE
  5
C7
100
AcDbEntity
  8
Red
  6
ByLayer
 62
  256
370
   -1
100
AcDbLine
 10
183.2050807568878
 20
-33.79999999999995
 11
173.2050807568878
 21
-33.79999999999995
  0
LINE
  5
C8
100
AcDbEntity
  8
White
  6
ByLayer
 62
  256
370
   -1
100
AcDbLine
 10
183.2050807568878
 20
-33.79999999999995
 11
193.2050807568878
 21
-33.79999999999995
  0
LINE
  5
C9
100
AcDbEntity
  8
White
  6
ByLayer
 62
  256
370
   -1
100
AcDbLine
 10
203.2050807568878
 20
-33.79999999999995
 11
213.2050807568878
 21
-33.79999999999994
  0
LINE
  5
CA
100
AcDbEntity
  8
White
  6
ByLayer
 62
  256
370
   -1
100
AcDbLine
 10
223.2050807568878
 20
-33.79999999999994
 11
233.2050807568878
 21
-33.79999999999994
  0
LINE
  5
CB
100
AcDbEntity
  8
0
  6
ByLayer
 62
  256
370
   -1
100
AcDbLine
 10
173.2050807568878
 20
-182
 11
173.2050807568878
 21
-390
  0
LINE
  5
CC
100
AcDbEntity
  8
0
  6
ByLayer
 62
  256
370
   -1
100
AcDbLine
 10
303.2050807568878
 20
-182
 11
303.2050807568878
 21
-390
  0
LINE
  5
CD
100
AcDbEntity
  8
0
  6
ByLayer
 62
  256
370
   -1
100
AcDbLine
 10
303.2050807568878
 20
-390
 11
173.2050807568878
 21
-390
  0
LWPOLYLINE
  5
CE
100
AcDbEntity
  8
Red
  6
ByLayer
 62
  256
370
   -1
100
AcDbPolyline
 90
   37
 70
    1
 43
0
 10
219.1425807568878
 20
37.62083333333339
 10
214.3696812555047
 20
34.86519852139475
 42
-0.4296339059668216
 10
213.0511229877845
 20
35.2557732741874
 10
208.2050807568878
 20
44.76666666666672
 10
203.3590385259911
 20
35.25577327418736
 42
-0.4296339059668348
 10
202.0404802582708
 20
34.8651985213948
 10
197.2675807568878
 20
37.62083333333339
 10
200.2498213537977
 20
22.27853549391071
 42
-0.7535540501028255
 10
198.6260582231614
 20
21.45118685490081
 10
192.4550807568878
 20
28.06875000000005
 10
192.0760106619689
 20
24.5074307251731
 42
-0.4448327607626851
 10
190.9363356275876
 20
23.68055867853528
 10
181.9550807568878
 20
25.58958333333339
 10
184.6670047866656
 20
17.24313939281628
 42
-0.3788661086953236
 10
184.1660893578692
 20
16.09111277710318
 10
181.0800807568878
 20
14.65208333333339
 10
194.8073489419546
 20
3.535960737680584
 42
-0.3201025237009841
 10
195.1015559513918
 20
2.475084534188644
 10
193.4029974235544
 20
-2.19166666666661
 10
205.927993383074
 20
0.01682805426118117
 42
-0.4823427408175722
 10
207.5520864638245
 20
-1.420048126269391
 10
206.8925807568878
 20
-14.0041666666666
 10
209.5175807568878
 20
-14.0041666666666
 10
208.858075049951
 20
-1.420048126269387
 42
-0.4823427408175798
 10
210.4821681307017
 20
0.0168280542611785
 10
223.0071640902212
 20
-2.19166666666661
 10
221.3086055623837
 20
2.475084534188679
 42
-0.3201025237009665
 10
221.6028125718211
 20
3.535960737680561
 10
235.3300807568878
 20
14.65208333333339
 10
232.2440721559063
 20
16.09111277710319
 42
-0.3788661086953274
 10
231.74315672711
 20
17.24313939281627
 10
234.4550807568878
 20
25.58958333333339
 10
225.4738258861879
 20
23.68055867853528
 42
-0.4448327607626827
 10
224.3341508518066
 20
24.50743072517309
 10
223.9550807568878
 20
28.06875000000005
 10
217.784103290614
 20
21.45118685490085
 42
-0.7535540501028372
 10
216.1603401599776
 20
22.27853549391073
  0
MTEXT
  5
CF
100
AcDbEntity
  8
0
  6
ByLayer
 62
  256
370
   -1
100
AcDbMText
 10
238.2050807568878
 20
-286
 30
0
 40
9.5
 41
107.1388868748714
 71
    5
 72
    1
  1
Flag of the\PUnited States\POf The Canada\P\P[Rear/Back] side\Pfor vertical\Pdisplay\P\PBy Felipe Lohan\PPinheiro da Silva
  7
STANDARD
210
0
220
0
230
1
 50
0
 73
    2
 44
1
  0
ENDSEC
  0
SECTION
  2
OBJECTS
  0
DICTIONARY
  5
C
330
0
100
AcDbDictionary
281
    1
  3
ACAD_GROUP
350
D
  0
DICTIONARY
  5
D
330
C
100
AcDbDictionary
281
    1
  0
PLOTSETTINGS
  5
D0
100
AcDbPlotSettings
  6
1x1
 40
0
 41
0
 42
0
 43
0
  0
ENDSEC
  0
EOF
